<?xml version="1.0" encoding="UTF-8"?>
<!DOCTYPE svg PUBLIC "-//W3C//DTD SVG 1.1//EN" "http://www.w3.org/Graphics/SVG/1.1/DTD/svg11.dtd">
<!-- Creator: CorelDRAW 2021 (64-Bit) -->
<svg xmlns="http://www.w3.org/2000/svg" xml:space="preserve" width="4.83326in" height="1.61181in" version="1.1" style="shape-rendering:geometricPrecision; text-rendering:geometricPrecision; image-rendering:optimizeQuality; fill-rule:evenodd; clip-rule:evenodd"
viewBox="0 0 4833.34 1611.84"
 xmlns:xlink="http://www.w3.org/1999/xlink"
 xmlns:xodm="http://www.corel.com/coreldraw/odm/2003">
 <defs>
  <style type="text/css">
   <![CDATA[
    .fil0 {fill:#E7E7E7}
   ]]>
  </style>
 </defs>
 <g id="Layer_x0020_1">
  <metadata id="CorelCorpID_0Corel-Layer"/>
  <path class="fil0" d="M4833.34 571.67l-120.15 18.8c-4.52,0.68 -12.6,0.93 -16.63,2.68 -4.43,1.93 -56.87,9.02 -62.47,9.87 -20.19,3.04 -39.05,6.45 -58.29,9.35 -36.9,5.55 -71.41,11.28 -105.12,16.34l-70.03 11.02c-7.37,1.1 -15.01,1.68 -22.18,3.3 -1,0.22 -1.21,0.7 -2.35,0.88l-39.44 5.87c-13.65,2.04 -26.46,4.43 -39.56,6.38 -25.3,3.77 -49.15,7.77 -72.62,11.26 -22.41,3.33 -44.04,7.33 -65.08,10.09 -1.23,0.16 -2.25,0.76 -3.64,0.96l-26.43 3.91c-9.83,1.45 -19.1,3.22 -28.59,4.63 -36.06,5.32 -69.65,11.28 -101.51,15.71 -1.03,0.14 -1.67,0.61 -2.72,0.76 -28.87,4.17 -56.15,8.92 -81.97,12.68 -6.51,0.95 -12.67,2.17 -18.97,3.09 -6.21,0.91 -12.34,1.8 -18.39,2.68 -0.82,0.11 -1.37,0.54 -2.11,0.63 -11.02,1.37 -21.86,3.48 -32.33,4.99 -21.67,3.13 -42.11,6.69 -61.78,9.52l0 0.28c1.18,-0.17 2.28,-0.04 3.53,-0.21 18.5,-2.65 37.84,-4.82 58.1,-7.71 5.63,-0.8 11.11,-1.27 16.84,-2.09 5.81,-0.82 11.7,-1.66 17.67,-2.51 1.52,-0.22 2.84,-0.08 4.43,-0.31 36.19,-5.13 75.25,-9.63 117.81,-15.63 2,-0.28 3.66,-0.15 5.7,-0.44 30.11,-4.23 61.99,-7.93 95.83,-12.67 9.47,-1.32 18.75,-2.21 28.46,-3.56 9.9,-1.38 19.96,-2.78 30.21,-4.21 2.7,-0.37 4.92,-0.26 7.62,-0.63 63.18,-8.78 133.18,-17.11 211.67,-27.95 3.8,-0.52 6.96,-0.46 10.7,-0.97 89.75,-12.36 191.22,-24.61 307.77,-40.53 5.7,-0.78 10.59,-0.82 16.12,-1.58l115.03 -15.02c1.59,-0.22 3.2,-0.46 4.81,-0.65l0.05 -0.01 0 -29.02zm-4832.65 483.51l-0.03 27.11 123.57 -19.39c4.51,-0.68 12.57,-0.93 16.58,-2.68 4.42,-1.93 56.71,-9.02 62.29,-9.86 20.13,-3.04 38.93,-6.46 58.12,-9.35 36.8,-5.55 71.21,-11.28 104.82,-16.34l69.83 -11.02c7.35,-1.1 14.96,-1.68 22.11,-3.3 1,-0.22 1.2,-0.7 2.34,-0.88l39.32 -5.87c13.61,-2.04 26.38,-4.43 39.45,-6.38 25.23,-3.77 49.01,-7.77 72.41,-11.26 22.35,-3.33 43.92,-7.34 64.89,-10.09 1.23,-0.16 2.25,-0.76 3.63,-0.96l26.36 -3.91c9.81,-1.45 19.04,-3.22 28.5,-4.63 35.97,-5.32 69.45,-11.28 101.22,-15.71 1.02,-0.15 1.66,-0.61 2.72,-0.76 28.79,-4.17 55.99,-8.92 81.73,-12.68 6.49,-0.95 12.63,-2.17 18.92,-3.09 6.19,-0.91 12.31,-1.8 18.34,-2.68 0.81,-0.12 1.36,-0.54 2.11,-0.63 10.99,-1.37 21.8,-3.48 32.23,-5 21.6,-3.13 42,-6.69 61.61,-9.52l0 -0.28c-1.18,0.17 -2.27,0.04 -3.52,0.21 -18.45,2.65 -37.73,4.82 -57.93,7.71 -5.62,0.8 -11.08,1.27 -16.8,2.09 -5.8,0.83 -11.67,1.66 -17.62,2.51 -1.52,0.22 -2.83,0.08 -4.41,0.3 -36.09,5.13 -75.04,9.63 -117.48,15.63 -2,0.28 -3.65,0.15 -5.69,0.44 -30.02,4.23 -61.81,7.93 -95.55,12.66 -9.44,1.32 -18.7,2.21 -28.38,3.57 -9.87,1.38 -19.91,2.78 -30.12,4.21 -2.69,0.38 -4.9,0.26 -7.6,0.63 -63,8.79 -132.8,17.12 -211.07,27.95 -3.8,0.53 -6.94,0.46 -10.68,0.97 -89.49,12.35 -190.67,24.61 -306.89,40.53 -5.69,0.78 -10.56,0.83 -16.08,1.58l-114.69 15.02c-1.59,0.22 -3.19,0.46 -4.8,0.65 -1.64,0.19 -3.78,-0.45 -3.78,2.51zm1.04 -831.85c7.52,2.33 13.86,3.65 21.1,5.89 5.76,1.78 16.07,6.1 21.1,6.17 4.85,0.06 15.28,4.47 20.67,6.15 6.92,2.15 13,3.41 20.02,5.59 13.43,4.17 25.86,7.39 39.04,11.51 3.42,1.06 5.78,1.18 9.28,2.27 21.81,6.8 42.89,12.17 63.59,18.63l25.81 7.48c1.42,0.44 2.87,0.96 4.28,1.37 1.57,0.44 2.19,0.05 3.97,0.63 22.34,7.27 43.37,12.45 64.59,19.1l0 -0.55c-1.25,-0.39 -2.07,-1.23 -3.67,-1.72 -19.65,-5.95 -39.87,-13.68 -60.65,-20.22 -3.07,-0.97 -5.42,-2.31 -8.24,-3.18l-17.3 -5.46c-3.11,-0.98 -5.27,-2.25 -8.5,-3.27 -12.08,-3.82 -23.45,-8.01 -35.78,-11.91 -6.42,-2.03 -11.88,-4.37 -18.32,-6.41 -6.13,-1.94 -13.01,-3.72 -18.74,-6.51 -5.61,-2.73 -13.49,-4.31 -19.43,-6.19 -19.23,-6.09 -39.78,-14.09 -60.39,-20.43l-42.38 -14.78 -0.02 15.84zm-1.26 1002.44l-0.01 10.59c76.84,-18.03 147.14,-36.97 212.55,-52.23 7.93,-1.85 15.04,-4.09 22.94,-5.93 7.68,-1.79 15.28,-3.56 22.82,-5.32 3.8,-0.88 6.8,-2.15 10.67,-3.04 4.57,-1.06 30.41,-6.57 32.52,-7.8 2.73,-1.58 26.29,-6.43 30.95,-7.51 3.63,-0.84 6.5,-2.05 9.94,-2.85 6.71,-1.55 13.35,-3.09 19.94,-4.62 6.72,-1.56 12.7,-3.46 19.21,-4.97l0 -0.52c-52.65,12.17 -108.73,22.87 -169.52,36.83 -8.13,1.87 -15.39,2.94 -23.61,4.83 -8.21,1.88 -16.5,3.78 -24.87,5.7l-51.74 11.26c-2.23,0.54 -3.58,0.17 -6.1,0.77l-41.44 9.47c-2.75,0.63 -4.2,0.28 -6.76,0.89l-54.73 11.81c-1.46,0.28 -2.74,-0.04 -2.74,2.64zm0.55 -436.31c97.7,0.53 185.72,-1.37 265.29,-0.82 18.76,0.13 36.7,-0.3 54.8,-0.17 9.04,0.06 17.22,-0.41 26.01,-0.35 8.55,0.06 17,0.13 25.36,0.19 8.33,0.06 16.05,-0.41 24.32,-0.33 8,0.06 15.91,0.12 23.74,0.19 4.02,0.03 7.31,-0.46 11.28,-0.42 11.43,0.1 22.69,0.19 33.77,0.28l0 -0.5c-1.95,-0.02 -3.22,-0.52 -5.26,-0.54l-16.61 -0.15c-7.42,-0.07 -15.56,0.86 -22.78,-0.69 -2.94,-0.63 -19.24,-0.21 -23.72,-0.25 -4,-0.04 -8.01,-0.07 -12.06,-0.12 -4.31,-0.04 -8.07,-0.59 -12.25,-0.63 -8.35,-0.08 -16.8,-0.17 -25.35,-0.25 -8.8,-0.09 -17.2,-0.71 -25.99,-0.8 -8.94,-0.09 -17.99,-0.18 -27.15,-0.27 -9.46,-0.1 -18.21,-0.74 -27.86,-0.84 -9.51,-0.1 -19.13,-0.2 -28.87,-0.3 -9.98,-0.11 -19.54,-0.79 -29.94,-0.91 -63.61,-0.68 -132.34,-3.33 -206.73,-4.21l-0.01 11.89zm-0.04 29.08c0,0.39 0,0.76 0,1.13l-0.01 9.94c0.28,3.55 1.63,2.34 6.88,1.42 4.05,-0.72 34.59,-0.63 40.8,-0.73 5.46,-0.09 9.98,-0.81 15.57,-0.9 40.8,-0.68 79.31,-2.54 116.66,-3.13 4.63,-0.07 8.4,-0.72 13.11,-0.8l26.69 -0.42c4.52,-0.07 8.19,-0.71 12.76,-0.78 33.65,-0.51 65.27,-2.09 96.32,-2.54 3.88,-0.06 6.99,-0.65 10.91,-0.7l22.23 -0.31c3.77,-0.05 6.84,-0.62 10.66,-0.67 14.36,-0.2 27.85,-0.91 41.56,-1.09l0 -0.52c-13.68,0.18 -27.21,-0.16 -41.56,0.02 -3.7,0.05 -6.66,-0.45 -10.43,-0.41l-22.22 0.28c-3.95,0.04 -7.11,-0.45 -11.13,-0.41 -31.02,0.37 -62.66,-0.39 -96.32,-0.01 -4.44,0.05 -7.98,-0.48 -12.49,-0.43l-26.68 0.29c-4.75,0.05 -8.55,-0.51 -13.39,-0.46 -37.34,0.4 -75.82,-0.44 -116.65,-0.04 -5.43,0.05 -9.74,-0.56 -15.24,-0.5 -5.05,0.05 -38.02,0.85 -40.65,0.11 -1.43,-0.41 -2.37,-0.35 -3.92,-0.36 -1.59,-0.02 -3.43,-0.86 -3.44,2.02zm354.96 -818.53c5.43,2.82 10.82,5.65 16.19,8.5l47.87 24.91c2,1.08 3.42,1.3 5.56,2.44l39.33 19.91c-29.77,-15.85 -60.32,-33.15 -92.76,-50.44 -3.26,-1.74 -6.11,-3.56 -9.16,-5.33l-7.04 0zm-355.83 1518.12c58.32,-22.5 112.21,-43.93 163.87,-63.85 48.58,-18.73 94.45,-36.42 137.84,-53.15 20.95,-8.07 40.63,-16.2 60.52,-23.86l157.22 -60.57c2,-0.76 3.45,-1.8 5.54,-2.61l121.55 -46.78c12.81,-4.93 24.97,-10.03 37.18,-14.73 23.59,-9.07 46.25,-17.78 68.05,-26.17 21.06,-8.1 41.01,-16.15 60.5,-23.63l0 -0.37c-178.7,68.59 -430.33,163.07 -812.26,309.12l-0.01 6.61zm136.94 -1518.12c11.19,5.05 21.78,9.54 32.85,14.67 49.94,23.17 96.45,43.61 140.98,64.3 5.52,2.56 10.19,4.18 15.64,6.72 10.56,4.9 20.97,9.75 31.24,14.52 5.27,2.45 9.92,4.08 14.93,6.41 9.86,4.59 19.6,9.12 29.21,13.59 9.59,4.46 18.6,8.15 28.08,12.56 35.88,16.71 69.67,31.47 102.29,46.69l0 -0.47c-1.91,-0.89 -3.54,-2.13 -5.65,-3.11 -47.65,-22.26 -98.64,-47.6 -153.69,-73.38l-53.94 -25.8c-1.34,-0.62 -2.69,-1.24 -4.04,-1.87 -1.54,-0.72 -2.13,-1.6 -3.81,-2.36 -44.07,-20.08 -91.35,-43.99 -140.94,-67.28 -3.64,-1.71 -7.23,-3.44 -10.82,-5.19l-22.33 0zm87.04 1611.77c35.28,-17.83 68.89,-35.05 101.42,-51.16l56.56 -28.54c2.82,-1.39 4.81,-2.9 7.59,-4.28 10.28,-5.08 20.41,-10.09 30.42,-15.05 9.87,-4.89 19.23,-10.01 28.98,-14.83 18.84,-9.32 36.67,-18.61 54.61,-27.47l44.56 -22.48c2.2,-1.09 3.77,-2.33 5.98,-3.42l0 -0.47c-33.45,16.49 -68.13,32.61 -105.15,50.82l-51.46 24.81c-2.77,1.36 -4.74,1.8 -7.51,3.17 -10.42,5.13 -20.98,10.32 -31.7,15.58 -10.9,5.35 -21.5,10.03 -32.87,15.61 -22.91,11.26 -45.84,21.95 -70.25,33.93l-49.36 23.78 18.18 0zm297.82 -1611.77l18.73 11.18c9.88,5.89 19.09,10.93 28.72,16.68 18.75,11.2 36.48,21.33 54.14,31.89l0 -0.44c-17.58,-10.51 -35.28,-21.55 -53.97,-32.72 -9.6,-5.74 -18.81,-11.72 -28.71,-17.65l-14.93 -8.94 -3.97 0zm-475.87 0l25.26 10.89c7.64,3.37 14.38,5.7 22.05,9.09 28.87,12.72 55.93,24.05 83.04,36 6.61,2.92 12.58,4.96 19.28,7.92 40.86,18.04 79.77,34.1 116.86,50.5 3.07,1.36 5.52,1.88 8.32,3.13 32.45,14.54 63.26,26.95 93.03,40.15 9.89,4.39 19.14,7.97 28.63,12.19 18.62,8.26 36.24,15.58 53.99,23.46 2.33,1.04 3.96,1.28 6.28,2.31l43.76 18.51 -43.39 -19.8c-2.22,-0.99 -4.06,-2.3 -6.46,-3.36 -17.74,-7.91 -35.33,-16.24 -53.97,-24.56 -23.52,-10.49 -48.25,-22.57 -73.56,-33.89 -5.46,-2.44 -10.32,-5.14 -15.68,-7.54 -10.69,-4.78 -21.63,-9.33 -32.61,-14.56 -1.42,-0.67 -2.12,-1.54 -3.78,-2.26l-29.77 -13.32c-6,-2.69 -11.26,-5.6 -17.21,-8.27l-73.86 -33.67c-6.81,-3.06 -12.73,-6.31 -19.55,-9.37 -27.1,-12.16 -54.13,-24.89 -83.01,-37.86 -4.13,-1.86 -7.96,-3.77 -11.84,-5.68l-35.8 0zm-45.97 1560.47c-0,3.21 3.25,0.65 6.53,-0.7l7.17 -3.59c4.78,-2.46 10.35,-4.23 15.17,-6.2l57.64 -23.6c9.58,-3.93 18.36,-8.15 27.47,-11.87 17.85,-7.3 35.35,-14.45 52.49,-21.47 17.04,-6.96 32.95,-14.06 49.42,-20.79 61.81,-25.26 118.67,-49.59 172.1,-71.39 6.57,-2.68 12.37,-5.56 18.77,-8.17l45.51 -18.55c3.15,-1.28 5.58,-2.78 8.65,-4.02 11.49,-4.68 22.8,-9.29 33.92,-13.82 11.13,-4.53 21.52,-9.24 32.31,-13.64 40.94,-16.65 79.12,-33.08 115.44,-47.84l-51.17 19.89c-1.43,0.59 -2.18,0.41 -3.54,0.98 -19.53,8.19 -39.56,15.56 -60.21,23.92 -43.53,17.63 -89.56,35.24 -139.26,55.32l-70.38 27.9c-2.88,1.16 -8.04,3.91 -10.65,4.07 -2.87,0.16 -39.74,15.7 -43.86,17.37 -15.51,6.25 -30.59,11.76 -46.56,18.19 -66.69,26.88 -138.32,54.48 -216.95,86.12l-0.02 11.91zm0.3 -242.77c125.18,-34.84 234.35,-66.96 330.86,-93.73 15.12,-4.19 29.31,-8.66 43.93,-12.7 14.23,-3.94 28.19,-7.81 41.89,-11.6 6.79,-1.88 12.93,-4.09 19.67,-5.95 4.79,-1.33 54.79,-14.57 56.77,-15.91 2.4,-1.61 47.92,-13.52 52.4,-14.75 5.76,-1.59 10.91,-3.48 16.5,-5.02 10.83,-2.99 21.48,-5.93 31.96,-8.82 10.44,-2.88 20.21,-6.02 30.28,-8.79 19.63,-5.41 38.35,-11 56.68,-16.04l0 -0.42c-56.56,15.54 -118.68,31.22 -187.55,50.07 -12.33,3.37 -24.3,6.16 -37.11,9.66 -12.95,3.54 -26.15,7.15 -39.6,10.83 -6.89,1.88 -13.17,3.08 -20.22,5l-54.03 14.75c-3.43,0.94 -8,2.8 -11.32,3.06 -7,0.56 -15.17,3.62 -22.72,5.68 -15.84,4.32 -32.01,8.73 -48.51,13.23 -8.61,2.35 -16.51,3.93 -25.15,6.28 -17.3,4.71 -34.96,9.52 -53.02,14.44 -18.68,5.09 -36.89,9.43 -56.28,14.7 -19.72,5.37 -39.89,10.85 -60.52,16.46 -21.23,5.78 -42.39,10.88 -64.89,17l-0.02 12.56zm413.85 -1317.7l0.64 0.35c4.89,2.71 9.07,4.5 13.82,7.13 35.88,19.83 69.64,37.04 102.11,55.02l0 -0.46c-19.85,-11.01 -40.56,-23.46 -61.79,-35.24 -4.45,-2.47 -8.43,-5.17 -13.06,-7.74l-20.15 -11.19c-2.4,-1.33 -4.19,-2.83 -6.71,-4.24l-6.5 -3.63 -8.37 0zm55.39 0c2.86,1.61 5.74,3.23 8.62,4.89 13.02,7.47 25.8,14.81 38.34,22.02 12.29,7.06 24.1,13.38 36.1,20.27 11.72,6.73 23.23,13.34 34.53,19.84 5.52,3.17 10.73,5.72 16.28,8.91 3.83,2.2 45.63,26.72 47.12,26.98 2.24,0.39 39.74,22.56 43.66,24.81 4.78,2.75 9.22,4.9 13.8,7.54l0 -0.41c-9.21,-5.31 -18.57,-10.7 -28.08,-16.18 -9.76,-5.63 -19.38,-11.59 -29.34,-17.33 -10.15,-5.86 -20.48,-11.81 -30.98,-17.87 -10.8,-6.22 -21.28,-12.72 -32.46,-19.17 -34.71,-20.02 -71.43,-41.48 -110.39,-64.31l-7.2 0zm46.76 1611.77c57.04,-34.97 109.28,-67.22 157.53,-96.3l0 -0.41c-2.3,1.38 -4.24,2.12 -6.64,3.57l-35.08 21.11c-4.96,2.99 -9.46,5.26 -14.46,8.26 -9.93,5.98 -20.03,12.06 -30.29,18.22 -10.52,6.33 -20.73,12.02 -31.64,18.57 -14.78,8.88 -29.86,17.85 -45.3,26.98l5.87 0zm-516.35 -6.97l84.93 -37.37c4.19,-1.8 7.33,-3.8 11.24,-5.48 30.43,-13.09 58.94,-26.06 87.29,-38.28 26.69,-11.51 53.52,-24.24 78.55,-35.02 24.94,-10.73 48.46,-21.45 72,-31.55 2.92,-1.25 5.24,-2.8 8.31,-4.12 35.82,-15.4 70.01,-31.13 102.62,-45.13 5.14,-2.21 9.71,-4.67 14.63,-6.77 19.19,-8.23 37.28,-16.48 55.44,-24.26 4.6,-1.97 8.62,-4.17 13.05,-6.07l38.18 -17.27c-33.76,14.43 -69.16,28.11 -106.67,44.1l-44.61 18.52c-5.31,2.26 -9.96,3.72 -15.37,6.02 -21.53,9.17 -42.99,17.77 -65.81,27.48 -5.88,2.5 -11.11,4.18 -17.15,6.75l-73.42 30.63c-6.55,2.78 -12.46,4.71 -19.25,7.59l-35.45 15.05c-2.13,0.93 -3.04,0.66 -5.02,1.51 -42.52,18.4 -86.85,35.59 -133.77,55.45 -16.6,7.03 -32.76,13.2 -49.69,20.36l-0.02 17.87zm1.94 -1555.1l-0.01 8.59c198.86,79.26 358.67,141.35 490.96,194.22 7.59,3.04 14.55,5.33 22.02,8.32 21.55,8.62 42.43,16.97 62.65,25.06 13.11,5.24 25.67,9.83 38.37,14.91 12.39,4.96 24.53,9.82 36.43,14.59 11.73,4.7 22.79,8.7 34.09,13.23 11.03,4.42 21.86,8.76 32.48,13.01 10.53,4.22 20.52,7.82 30.61,11.87 9.88,3.96 19.59,7.86 29.13,11.69l0 -0.38c-81,-32.52 -175.4,-72.2 -286.15,-116.81 -79.82,-32.15 -169.39,-69.33 -270.83,-110.26 -22.11,-8.93 -44.02,-18.37 -67.43,-27.82l-112.56 -45.46c-3.66,-1.48 -6.06,-3.11 -9.61,-4.52l-25.67 -10.39c-1.72,-0.7 -4.46,-2.88 -4.46,0.18zm-1.39 1108.63c40.63,-7.83 80.08,-16.7 117.56,-23.9 7.63,-1.46 14.24,-3.34 21.81,-4.79l36.95 -7.07c2,-0.37 2.92,-1.2 5.06,-1.59 53,-9.56 102.89,-21.37 149.64,-30.26 44.19,-8.4 85.65,-17.83 125.16,-25.3 4.93,-0.94 9.25,-2.24 14,-3.14l54.22 -10.72c4.42,-0.83 8.39,-2.06 12.86,-2.89l18.91 -3.56c2.26,-0.43 3.92,-1.2 6.07,-1.6l0 -0.46c-16.75,3.14 -33.37,5.78 -50.95,9.07 -4.59,0.85 -8.64,1.13 -13.18,1.98l-56.42 10.02c-4.98,0.93 -9.59,1.28 -14.79,2.25l-22.88 4.26c-2.82,0.52 -4.85,0.38 -7.65,0.89 -21.41,3.98 -42.73,7.4 -65.35,11.59 -5.91,1.09 -11.06,1.5 -16.96,2.59 -38.68,7.15 -79.28,13.5 -122.07,21.39 -3.68,0.67 -6.33,0.57 -10.04,1.26 -28.18,5.18 -56.37,9.74 -86.45,15.26 -7.85,1.44 -14.69,2.06 -22.62,3.51l-72.87 12.69 -0.02 18.51zm0.53 -422.39l-0.02 15.86c35.08,0.9 70.06,0.52 102.54,1.38 32.19,0.85 62.37,1.04 92.38,1.85 7.24,0.19 13.93,-0.21 21.27,-0.01l80.86 1.63c6.54,0.18 12.42,-0.21 18.98,-0.03l32.32 0.9c1.76,0.06 2.87,-0.43 4.3,-0.43 11.79,-0.02 23.5,0.68 34.94,1 5.8,0.16 10.89,-0.21 16.65,-0.05l63.97 1.33c5.28,0.15 9.87,-0.21 15.08,-0.06 19.8,0.58 38.48,0.65 57.19,1.2 4.7,0.14 8.79,-0.2 13.39,-0.06l39.23 0.27c-17.17,-0.53 -34.41,-1.71 -52.62,-2.07 -1.24,-0.02 -1.8,-0.56 -3.13,-0.58l-24.85 -0.78c-4.94,-0.15 -9.39,-0.78 -14.26,-0.93l-61.18 -2.44c-5.54,-0.18 -10.68,-0.85 -16.11,-1.03 -22.37,-0.72 -44.76,-1.98 -68.5,-2.76 -23.93,-0.78 -49.54,-2.74 -75.1,-3.59 -27.01,-0.91 -54.23,-2.39 -83.23,-3.37 -3.87,-0.13 -6.72,-0.82 -10.57,-0.96 -53.44,-1.83 -110.38,-5.04 -171.2,-7.17 -2.17,-0.08 -4.69,0.05 -6.82,-0.24 -1.26,-0.17 -5.5,-2.72 -5.5,1.13zm0.08 -67.4c46.51,3.27 89.89,5.7 132.17,8.7 20.5,1.45 39.6,2.2 59.14,3.59 19,1.35 37.59,2.68 55.75,3.97 4.63,0.33 8.46,0.03 12.85,0.34l63.65 4.55c8.31,0.59 15.81,0.59 23.84,1.17 15.56,1.12 30.8,2.22 45.74,3.29 14.8,1.06 28.75,1.56 43.06,2.59 53.66,3.87 103.1,6.51 149.45,9.89l55.99 3.65c2.47,0.19 5.31,0.76 7.52,0.19 1.33,-0.35 27.44,1.96 29.47,2.11 9.67,0.71 18.82,0.97 28.09,1.66l0 -0.41c-37.83,-2.82 -77.89,-6.67 -121.07,-9.91 -11.39,-0.85 -22.45,-2.15 -34.22,-3.04 -11.87,-0.9 -23.96,-1.81 -36.28,-2.74 -6.22,-0.46 -12.16,-1.39 -18.63,-1.88l-39.63 -3.01c-6.98,-0.53 -13.52,-1.53 -20.49,-2.06 -121.01,-9.21 -263.65,-22.46 -436.39,-35.85l-0.02 13.21zm0.07 -55.5l-0.02 17.84c65.22,5.91 125.29,9.51 182.1,14.72 7.02,0.65 13.05,0.61 19.95,1.25l58.11 4.78c36.19,3.35 71.58,4.99 104.58,8.07 5.4,0.51 10.76,1.01 16.08,1.51 5.55,0.52 10.33,0.44 15.74,0.95l23.09 2.17c2.73,0.26 4.69,-0.06 7.4,0.19 8.8,0.83 20.95,2.64 29.45,2.27 4.47,-0.19 9.68,0.92 14.17,1.35 4.73,0.44 9.42,0.85 14.08,1.33 1.37,0.15 2.05,-0.28 3.19,-0.2l23.96 2.29c4.37,0.42 8.43,0.33 12.91,0.76 4.37,0.42 8.7,0.83 13.01,1.24 4.43,0.42 8.26,0.32 12.59,0.73 4.2,0.41 8.37,0.8 12.52,1.2l0 -0.46c-29.14,-2.8 -60,-7.2 -92.06,-10.32 -4.75,-0.46 -9.2,-1.4 -14.17,-1.88 -39.58,-3.85 -80.98,-9.7 -125.41,-13.84 -2.75,-0.26 -5.17,-1.06 -8.18,-1.35 -8.76,-0.87 -17.61,-1.74 -26.57,-2.63 -6.05,-0.6 -11.65,-1.71 -17.97,-2.34 -6.17,-0.61 -12.38,-1.23 -18.65,-1.84 -6.46,-0.64 -12.12,-1.78 -18.57,-2.43 -52.73,-5.25 -109.22,-12.71 -169.45,-18.78 -7.93,-0.8 -15.26,-2.17 -23.55,-3.01 -8.1,-0.82 -16.27,-1.64 -24.51,-2.47 -3.98,-0.41 -8.57,-0.45 -12.51,-1.26 -1.91,-0.39 -3.37,-1.01 -5.8,-1.24 -2.94,-0.29 -5.5,-1.7 -5.5,1.42zm-0.48 383.31c65.17,-6.89 125.28,-15.17 182.19,-21.06 3.45,-0.35 6.14,-1.23 9.76,-1.61l30.21 -3.15c6.59,-0.69 12.41,-1.87 19.02,-2.56 6.42,-0.67 12.78,-1.33 19.09,-1.98 6.4,-0.66 12.03,-1.81 18.15,-2.45 47.18,-4.89 91.79,-11.1 133.71,-15.4 5.25,-0.54 9.84,-1.52 15.09,-2.06 5.03,-0.51 10.02,-1.02 14.98,-1.53 5.09,-0.52 9.6,-1.48 14.48,-1.98 37.53,-3.83 72.68,-8.82 106.47,-12.22l0 -0.46c-4.2,0.42 -7.89,0.32 -12.18,0.75 -29.8,2.98 -61.26,4.67 -93.89,7.89l-44.52 3.89c-5.3,0.52 -9.98,0.47 -15.4,1 -5.2,0.51 -10.45,1.03 -15.73,1.55 -5.55,0.55 -10.65,0.52 -16.08,1.05l-29.28 2.87c-1.73,0.2 -2.44,-0.34 -4.17,-0.15 -23.32,2.59 -46.6,4 -71.36,6.4 -3.33,0.32 -5.74,-0.02 -8.97,0.3l-29.13 2.82c-6.82,0.66 -12.79,0.65 -19.74,1.33 -34.17,3.3 -69.81,5.5 -106.9,9.05 -30.64,2.94 -63.02,4.74 -95.78,7.85l-0.02 19.83zm1.22 -976.35l112.83 46.67c4.09,1.72 11.31,5.61 14.97,6.11 4.26,0.58 52.19,21.47 57.5,23.7 18.71,7.85 36.16,14.59 54,22.09 66.97,28.15 128.11,52.78 185.16,76.79 6.76,2.84 13.2,5.05 20.01,7.91 13.16,5.55 26.09,10.99 38.77,16.34 6.39,2.69 12.24,4.67 18.6,7.35 47.35,19.96 91.17,37.55 132.47,54.99l50.02 20.71c2.43,1.02 4.39,1.44 6.84,2.47l0 -0.41c-37.49,-15.88 -77.07,-33.52 -119.7,-51.6l-60.34 -26.07c-2.95,-1.26 -6.37,-2.28 -9.29,-3.94l-37.53 -16.42c-13.26,-5.64 -26.15,-11.63 -39.85,-17.45 -56.91,-24.2 -117.95,-51.26 -184.89,-79.77 -8.76,-3.73 -17.13,-7.87 -26.28,-11.78l-55.78 -23.77c-9.93,-4.24 -19.09,-8.74 -29.33,-13.11 -41.05,-17.51 -83.26,-36.17 -128.18,-55.34l-0.02 14.52zm-1.76 1404.85l-0.02 18.52c67.39,-23.3 129.2,-46.52 187.61,-66.66 7.19,-2.47 13.5,-5.24 20.66,-7.7 6.86,-2.37 13.67,-4.71 20.42,-7.03 6.93,-2.39 12.93,-5.03 19.65,-7.34 32.01,-11.01 62.73,-22.68 92.3,-32.84 44.73,-15.36 87.66,-32.14 127.4,-45.73 4.88,-1.67 9.72,-3.32 14.53,-4.96 4.88,-1.67 9.17,-3.62 14.05,-5.28 4.69,-1.6 9.33,-3.19 13.95,-4.77 4.74,-1.62 8.87,-3.51 13.48,-5.08l20 -6.83c2.21,-0.75 4.02,-1.84 6.36,-2.63l19.21 -6.55c2.31,-0.79 4.13,-1.87 6.28,-2.6l0 -0.46c-34.28,11.66 -69.91,22.34 -108.06,35.27 -2.64,0.9 -4.69,1.09 -7.19,1.94l-22.62 7.66c-5.24,1.78 -9.91,2.85 -15.29,4.67 -5.24,1.77 -10.51,3.56 -15.83,5.35 -5.54,1.87 -10.41,3 -15.96,4.88 -38.97,13.17 -80.3,25.48 -123.66,40.1 -45.84,15.45 -94.74,30.12 -146.36,47.45 -7.79,2.62 -14.83,4.37 -22.91,7.07 -7.88,2.65 -15.82,5.31 -23.84,8 -8.37,2.81 -15.73,4.63 -24.17,7.46l-47.61 15.25c-1.29,0.41 -2.39,0.28 -2.39,2.83zm73.42 186.93l10.61 -4.9c9.2,-4.18 17.58,-8.61 26.33,-12.58 34.52,-15.66 66.82,-30.91 98.77,-45.4 7.75,-3.52 14.76,-7.28 22.52,-10.79 44.05,-19.96 85.82,-39.98 125.43,-57.89 6.61,-3 12.42,-6.16 18.91,-9.09 24.82,-11.22 48.22,-22.31 71.49,-32.82 3.04,-1.37 5.35,-2.91 8.31,-4.25 35.53,-16.03 69.28,-32.22 101.45,-46.71 4.89,-2.2 9.33,-4.65 14.24,-6.87 18.8,-8.46 36.61,-16.93 54.41,-24.94l0 -0.43c-1.24,0.56 -1.93,0.4 -3.04,0.91l-23.34 10.49c-4.7,2.11 -8.89,3.54 -13.63,5.67 -62.93,28.24 -132.61,57.02 -209.67,91.47 -31.78,14.21 -65.27,28.08 -100.06,43.61 -7.41,3.31 -14.03,5.69 -21.55,9.04l-39.5 17.62c-2.31,1.04 -3.54,0.96 -5.68,1.93 -31.97,14.65 -64.31,28.06 -98.74,43.39 -9.04,4.03 -17.32,7.08 -26.32,11.08l-49.11 21.47 38.17 0zm392.73 0l0.6 -0.34c146.38,-85.2 264.8,-154.92 362.84,-211.91 12.65,-7.36 24.78,-14.77 36.89,-21.8l96.62 -56.78c-40.55,23.53 -84.71,48.8 -133.52,77.1 -6.52,3.78 -12.81,7.06 -19.44,10.9 -95.61,55.41 -210.52,121.31 -351.64,202.83l7.63 0zm-464.89 -1199.55l-0.02 13.87c46.67,9.37 90.77,17.1 133.31,26.16 2.54,0.54 4.55,0.3 7.39,0.87l52.21 10.52c19.31,3.89 37.38,6.95 55.88,10.69 35.35,7.13 68.51,13.28 101,19.85 8.01,1.62 15.35,2.57 23.03,4.13l44.84 9.08c7.36,1.49 13.99,2.33 21.22,3.79 27.63,5.61 53.64,10.4 79.17,15.59l62.39 12.22c2.46,0.5 6.3,1.93 8.56,1.67 2.78,-0.3 29.29,5.6 32.61,6.27 10.62,2.17 20.65,3.78 30.96,5.89 20,4.09 38.99,7.55 57.77,11.39l0 -0.4c-4.7,-0.96 -9,-2.26 -13.72,-3.22l-29 -5.96c-5.02,-1.03 -9.72,-2.43 -14.91,-3.49 -20.73,-4.27 -41.71,-9.02 -63.86,-13.59l-68.5 -14.57c-1.07,-0.23 -1.29,-0.75 -2.31,-1 -12.56,-3.01 -25.49,-5.25 -38.56,-7.95 -13.45,-2.79 -26.72,-6.02 -40.82,-8.94 -28.72,-5.95 -58.1,-12.56 -89.35,-19.05 -8.07,-1.68 -15.49,-3.76 -23.76,-5.48 -59.5,-12.37 -123.57,-26.86 -193.15,-41.38 -39.55,-8.25 -81.03,-17.85 -124.53,-26.62 -3.83,-0.78 -7.89,-4.13 -7.89,-0.33zm-1.17 935.91c-0,0.26 -0,0.51 -0,0.75l-0.01 7.19c0.36,3.12 2.31,1.28 10.97,-1.31 3.97,-1.19 7.92,-2.38 11.85,-3.56 4.06,-1.21 7.14,-2.79 11.37,-4.06l141.61 -42.43c13.51,-4.04 25.93,-8.36 38.94,-12.25l107.45 -32.16c11.26,-3.37 21.61,-7.01 32.55,-10.28 31.41,-9.39 61.54,-18.4 90.46,-27.04 9.51,-2.84 18.3,-5.96 27.6,-8.73 26.72,-7.98 52.44,-15.66 77.21,-23.05 8.06,-2.41 15.59,-5.12 23.53,-7.49 23.02,-6.87 45.24,-13.49 66.68,-19.89 7,-2.09 13.63,-4.5 20.58,-6.56 20.03,-5.96 39.41,-11.74 58.15,-17.32 6.08,-1.81 11.96,-3.96 18.03,-5.76l51.17 -15.22c2.81,-0.83 5.22,-1.94 7.97,-2.75l53.32 -16.2c-2.45,0.72 -4.58,1 -7.08,1.74l-54.1 16.04c-2.73,0.81 -5.24,1.17 -8.08,2.01l-61.1 18.09c-1.65,0.48 -2.82,0.43 -4.43,0.91l-74.28 21.97c-1.77,0.52 -3.18,0.5 -5.07,1.06l-38.42 11.35c-15.21,4.5 -30.92,9.69 -46.88,13.87 -1.02,0.26 -1.53,-0.05 -2.73,0.31 -27.97,8.65 -57.49,16.97 -88.03,25.97 -3.7,1.09 -10.59,4.11 -13.91,3.82 -1.83,-0.16 -104.36,30.37 -118.89,34.82 -1.72,0.53 -2.44,0.16 -3.98,0.6l-136.53 40.2c-3.63,1.07 -6.42,1.28 -9.84,2.3l-165.11 48.54c-3.91,1.15 -5.7,0.83 -8.93,1.89 -1.19,0.38 -2.04,0.35 -2.04,2.66zm0.08 -68.13c41.28,-10.65 79.78,-21.22 117.58,-30.96 9.33,-2.41 17.62,-5.16 26.82,-7.52 51.68,-13.3 100.36,-26.98 146.26,-38.76 7.67,-1.97 14.48,-4.27 22.02,-6.21 28.63,-7.33 55.58,-14.85 82.27,-21.59 1.81,-0.47 2.88,-1.29 4.48,-1.69l33.26 -8.49c6.29,-1.61 11.86,-3.54 18.06,-5.11 73.92,-18.87 140.65,-38.15 200.9,-53.43l0 -0.43c-4.53,1.15 -8.63,1.76 -13.25,2.92 -27.65,6.99 -56.58,13.39 -86.88,21.03 -5.37,1.35 -10.24,2.11 -15.72,3.49 -43.96,11.06 -90.58,21.28 -140.82,33.88 -33,8.27 -67.77,15.9 -104.05,24.96 -7.63,1.91 -14.57,3.07 -22.41,5.03 -11.61,2.89 -23.39,5.84 -35.36,8.82 -4.31,1.08 -7.73,1.36 -11.96,2.41 -33.45,8.33 -67.36,16.18 -103.59,25.2 -9.41,2.34 -17.98,3.85 -27.67,6.26l-89.9 21.68 -0.02 18.51zm1.02 -815.6c-0,3.31 5.67,3 8.91,3.58l29.54 4.64c32.02,5.74 62.92,11.29 92.79,16.65 6.07,1.09 11.25,1.41 17.37,2.52 22.73,4.08 44.86,8.06 66.42,11.94 21.02,3.78 41.04,6.81 61.21,10.44 38.6,6.95 74.76,12.93 109.92,19.27l84.4 14.75c4.02,0.72 7.35,0.83 11.25,1.54 57.39,10.4 109.76,19 158.49,27.86 21.42,3.89 42.23,7.12 62.27,10.91 1.39,0.27 2.39,0.03 3.85,0.3 10.38,1.9 20.56,3.76 30.57,5.58 9.93,1.82 19.36,3.15 29,4.91l0 -0.39c-19.2,-3.52 -38.69,-7.5 -59.3,-11.28l-64.02 -12.19c-0.94,-0.16 -1.21,-0.65 -2.06,-0.84 -11.77,-2.59 -23.88,-4.39 -36.13,-6.65 -12.63,-2.33 -25.01,-5.06 -38.16,-7.49 -27,-4.99 -54.58,-10.57 -83.93,-16l-82.72 -15.83c-3.87,-0.72 -9.08,-0.96 -12.84,-2.42 -7.99,-3.08 -17.16,-3.68 -25.72,-5.27 -103.75,-19.28 -222.67,-43.22 -361.08,-69.09l-0.02 12.55zm0.15 -116.9c-0,3.22 3.55,2.84 5.15,3.23 2.27,0.54 4.12,0.98 5.9,0.94 2.46,-0.06 32.69,7.74 36.59,8.69 4.24,1.03 7.26,1.11 11.37,2.11 8.89,2.17 28.92,8.02 35.12,8.49 8.3,0.63 28.12,6.29 38.28,8.73 1.98,0.48 3.08,0.1 5.32,0.66l42.05 9.63c52.97,12.91 102.27,22.69 149.04,34.15 5.85,1.44 10.91,2.13 16.61,3.54 5.54,1.36 11.04,2.7 16.48,4.05 5.4,1.32 10.4,2.02 15.91,3.38 5.38,1.32 10.71,2.59 16.02,3.95 1.49,0.38 2.07,-0.05 3.62,0.35l22.85 5.63c1.55,0.39 2.42,0.1 3.7,0.37l22.23 5.5c2.5,0.62 4.5,0.61 7.13,1.26 4.78,1.18 9.52,2.35 14.23,3.51 4.82,1.19 8.98,1.72 13.76,2.91 27.08,6.69 53.13,11.72 78.17,17.94l0 -0.45c-4.26,-1.06 -8.04,-2.47 -12.23,-3.52 -4.19,-1.04 -8.41,-2.09 -12.64,-3.15 -4.33,-1.08 -8.23,-2.52 -12.71,-3.64 -4.35,-1.09 -8.74,-2.19 -13.14,-3.28 -2.24,-0.56 -4.01,-1.48 -6.39,-2.07 -4.35,-1.09 -17.8,-3.72 -20.37,-5.38 -1.5,-0.96 -18,-4.71 -21.03,-5.46 -2.6,-0.65 -4.47,-1.62 -7.05,-2.26 -4.81,-1.21 -9.64,-2.42 -14.52,-3.64 -5.08,-1.27 -9.52,-2.89 -14.61,-4.16 -40.89,-10.26 -84.24,-23.3 -130.13,-34.87 -6.14,-1.54 -11.5,-3.45 -17.76,-5.04 -6.09,-1.54 -12.23,-3.09 -18.42,-4.65 -3.33,-0.84 -5.75,-2.03 -8.98,-2.85 -9,-2.26 -20.15,-4.5 -28.91,-7.29l-34.69 -9.38c-1.98,-0.48 -2.89,-1.37 -5.03,-1.89 -20.72,-5.03 -41.73,-11.19 -63.48,-16.72 -7.65,-1.94 -14.46,-4.3 -22.34,-6.31 -30.77,-7.83 -62.16,-17.1 -95.08,-25.5l-0.03 22.46zm561.51 1264.28l8.59 -5.37c5.12,-3.2 9.78,-6.57 14.9,-9.77 5,-3.13 9.95,-6.22 14.87,-9.3 4.95,-3.09 9.46,-6.35 14.22,-9.33l41.38 -26.71c-22.49,14.03 -45.89,27.74 -70.16,42.87 -5.17,3.22 -9.85,5.68 -15.06,8.92l-13.96 8.69 5.19 0zm-148.83 0c68.04,-38.18 129.63,-73.66 186.32,-105.43 6.78,-3.8 13.19,-7.84 19.94,-11.62 13.05,-7.31 25.83,-14.46 38.34,-21.47 6.22,-3.48 11.99,-7.14 18.15,-10.59 46.16,-25.84 88.56,-50.34 128.19,-72.49l0 -0.38c-4.89,2.74 -9.51,4.94 -14.42,7.68l-38.06 21.25c-2.66,1.48 -5.11,2.45 -7.89,4 -10.78,6.02 -21.77,12.15 -32.98,18.39 -11.45,6.39 -22.85,12.33 -34.85,19.03 -24.6,13.71 -49.82,27.33 -76.59,42.25l-84.12 46.4c-1.16,0.63 -1.61,0.37 -2.87,1.1 -31.92,18.24 -65.22,35.8 -100.1,55.19l-12.05 6.68 12.98 0zm-414.1 -132.01c-0,3.18 3.24,0.8 4.82,0.22l17 -6.89c108.69,-39.78 205.16,-76.26 291.42,-107.78 21.66,-7.91 42.16,-15.94 62.5,-23.36 19.87,-7.25 39.22,-14.31 58.06,-21.19 4.73,-1.72 8.77,-3.7 13.46,-5.41 97.45,-35.53 182.13,-67.75 256.78,-94.87 1.63,-0.59 2.75,-1.41 4.39,-2l30.91 -11.23c11.47,-4.17 22.33,-8.5 33.32,-12.48 21.3,-7.73 41.44,-15.41 61.15,-22.56l-52.84 18.39c-2.14,0.77 -6.09,2.93 -8.01,2.67 -1.31,-0.18 -13.84,4.84 -16.35,5.75 -40.27,14.55 -83.54,29.35 -130.27,46.21l-77.28 27.41c-1.94,0.7 -3.9,1.41 -5.86,2.11 -2.18,0.78 -3.71,0.87 -5.91,1.66 -67.13,24.18 -140.82,49.65 -223.34,79.3l-123.26 43.71c-6.66,2.39 -12.4,3.85 -19.11,6.25 -26.36,9.46 -53.56,19.21 -81.64,29.28 -29.12,10.44 -58.6,20.35 -89.93,31.58l-0.02 13.23zm0.45 -363.75c58.03,-9.87 111.73,-19.61 162.92,-28.3 48.25,-8.19 93.59,-17 136.94,-23.78 1.63,-0.26 2.2,-0.91 3.61,-1.19 18.78,-3.71 38.64,-6.51 56.56,-9.54 19.3,-3.26 37.5,-6.85 55.91,-9.96 35.23,-5.94 68.29,-12 100.38,-17.4 7.83,-1.32 15,-3 22.65,-4.28 50.71,-8.51 97.53,-17.24 141.11,-24.53l59.83 -10.4c2.8,-0.46 5.17,-1.26 7.95,-1.72 21.06,-3.51 41.06,-7.22 60.54,-10.45l0 -0.37c-19.42,3.22 -39.4,6.14 -60.41,9.62 -2.67,0.44 -5.15,0.45 -7.95,0.91 -42.08,6.94 -87.32,13.56 -136.37,21.61 -6.99,1.15 -13.58,1.78 -20.63,2.94l-43.71 7.17c-7.64,1.25 -14.91,1.97 -22.82,3.27 -32.01,5.24 -64.98,10.12 -100.14,15.86 -34.44,5.63 -70.55,10.79 -108.53,17.17 -2.68,0.45 -4.82,0.24 -7.72,0.71 -88.95,14.46 -187.71,29.26 -300.1,47.45l-0.02 15.2zm0.11 -83.3c40.46,-5.07 79.2,-9.92 116.32,-14.57 35.89,-4.49 69.49,-9.3 102.64,-13.44 31.58,-3.94 61.97,-7.74 91.23,-11.4 28.39,-3.54 55.14,-7.41 81.63,-10.71 25.33,-3.16 49.81,-6.2 73.46,-9.15 23.02,-2.87 44.82,-6.06 66.47,-8.75 20.77,-2.58 40.9,-5.08 60.42,-7.5 19.02,-2.37 37.15,-5.05 55.17,-7.29 17.34,-2.15 34.19,-4.23 50.58,-6.26 15.98,-1.98 31.31,-4.27 46.53,-6.15 82.78,-10.22 154.12,-20.05 216.22,-27.65l0 -0.32c-84.75,10.34 -187.12,21.3 -313.17,36.5 -159.2,19.21 -366.52,41.97 -647.49,75.47l-0.01 11.24zm0.09 -74.7c10.64,-0.91 20.07,-2.36 30.51,-3.24 10.06,-0.85 20.01,-1.7 29.85,-2.53 5.11,-0.43 9.3,-1.43 14.08,-1.83l42.78 -3.61c2.58,-0.2 3.94,-0.98 6.33,-1.17 10.18,-0.73 41.11,-2.68 46.53,-4.41l38.06 -3.28c4.42,-0.37 7.94,-1.25 12.14,-1.6 8.09,-0.68 16.09,-1.35 24.02,-2 8.06,-0.67 15.35,-1.85 23.07,-2.49 7.63,-0.63 15.18,-1.26 22.67,-1.88 7.65,-0.64 14.47,-1.76 22.04,-2.38 55.64,-4.6 107.59,-10.95 155.88,-14.87 5.99,-0.48 11.39,-1.41 17.17,-1.87 5.69,-0.46 11.33,-0.92 16.93,-1.37 5.65,-0.46 10.72,-1.34 16.35,-1.8 5.48,-0.44 10.91,-0.88 16.3,-1.31 2.78,-0.22 4.92,-0.87 7.65,-1.09l23.3 -1.85c1.24,-0.09 2.08,-0.64 3.49,-0.75l22.52 -1.8c0.56,-0.05 1.21,-0.02 1.76,-0.15 0.72,-0.17 0.88,-0.53 1.75,-0.6l21.32 -1.68c2.5,-0.2 4.43,-0.79 6.89,-0.98 4.61,-0.37 9.18,-0.73 13.72,-1.08 4.68,-0.38 8.87,-1.14 13.41,-1.5l0 -0.43c-4.44,0.35 -8.91,0.7 -13.41,1.05 -4.6,0.36 -8.83,0.26 -13.57,0.63 -37.93,2.96 -78.32,4.24 -121.3,7.53 -5.76,0.44 -10.96,0.35 -16.73,0.8 -5.8,0.44 -11.65,0.88 -17.54,1.33 -5.93,0.46 -11.45,0.38 -17.6,0.85 -6.03,0.45 -12.11,0.92 -18.25,1.38 -3.19,0.24 -5.72,-0.08 -9,0.17 -8.16,0.62 -21.78,2.59 -28.97,2.2l-34.62 2.08c-1.98,0.15 -3.04,-0.33 -4.95,-0.17l-31.59 2.37c-3.73,0.28 -6.78,-0.04 -10.66,0.25 -7.28,0.54 -14.62,1.08 -22.03,1.64 -7.7,0.57 -14.63,0.53 -22.41,1.11 -7.7,0.57 -15.47,1.15 -23.32,1.73 -8.04,0.59 -15.62,0.57 -24.01,1.19 -67.4,4.97 -140.74,7.85 -220.53,13.62l-0.03 23.8zm0.06 -42.97c-0,3.25 1.53,1.52 2.76,1.2l44.92 -2.88c4.27,-0.27 11.98,0.11 15.75,-1.26 3.74,-1.35 45.03,-3.17 52.87,-3.66l56.85 -4.14c2.37,-0.11 4.13,-0.86 6.77,-1.03l40.08 -2.47c4.61,-0.28 8.24,-1.09 12.76,-1.36l37.63 -2.31c4.09,-0.25 7.72,-1.04 11.99,-1.3 7.98,-0.49 15.88,-0.97 23.69,-1.44 8.03,-0.48 15.24,-1.48 22.99,-1.94 7.52,-0.46 14.95,-0.91 22.32,-1.35 7.55,-0.46 14.28,-1.39 21.69,-1.84 7.16,-0.43 14.25,-0.86 21.28,-1.28 7.04,-0.42 13.46,-1.33 20.47,-1.75 51.87,-3.11 100.3,-7.92 145.27,-10.55 42.13,-2.46 81.78,-6.52 118.88,-8.63l0 -0.42c-9.03,0.51 -18.02,0.6 -27.46,1.13 -4.85,0.28 -9.28,0.09 -14.13,0.36 -4.89,0.27 -9.81,0.55 -14.78,0.83 -5.07,0.28 -9.67,0.1 -14.82,0.39 -5.13,0.28 -10.29,0.57 -15.51,0.86 -5.26,0.29 -10.13,0.11 -15.56,0.41 -5.38,0.29 -10.81,0.6 -16.29,0.9 -5.43,0.3 -10.68,0.12 -16.35,0.43 -5.67,0.31 -11.37,0.63 -17.13,0.94 -3,0.17 -5.36,-0.17 -8.37,-0.01l-26.89 1.47c-2.96,0.16 -5.65,-0.19 -8.82,-0.01l-28.36 1.55c-1.54,0.1 -2.76,-0.37 -4.54,-0.27 -4.85,0.26 -32.64,2.28 -34.62,1.65 -3.06,-0.98 -31.45,1.93 -38.74,1.8 -1.13,-0.02 -1.35,-0.48 -2.62,-0.43l-38.38 2.07c-1.95,0.13 -3.39,-0.37 -5.57,-0.25l-34.82 1.84c-4.22,0.22 -7.57,-0.16 -11.8,0.06l-37 1.94c-4.24,0.22 -8.03,-0.16 -12.54,0.07 -8.57,0.45 -17.22,0.9 -25.97,1.35 -9.16,0.47 -17.59,0.33 -26.8,0.8 -9.13,0.47 -18.36,0.95 -27.69,1.43 -9.76,0.5 -18.65,0.35 -28.61,0.86 -9.76,0.5 -19.62,1.01 -29.59,1.52 -10.33,0.53 -19.91,0.39 -30.62,0.94 -21.33,1.09 -42.47,1.52 -64.53,2.63l-0.03 21.15zm0.07 -57.5l-0.02 15.87c55.53,-2.2 106.96,-4.87 156.25,-6.81 46.16,-1.82 90.61,-4.71 132.03,-6.31 39.85,-1.54 77.12,-3.51 113.27,-4.89 4.31,-0.17 8.34,-0.83 12.82,-1l37.72 -1.43c8.27,-0.32 15.92,-1.1 23.88,-1.4l88.61 -3.78c7.01,-0.26 13.41,-0.96 20.25,-1.21 26.4,-0.97 51.26,-2.32 75.61,-3.21 5.96,-0.21 11.48,-0.83 17.38,-1.05 36.22,-1.31 70.32,-3.33 102.42,-4.47 2.54,-0.09 4.69,-0.54 7.16,-0.63l0 -0.39c-19.43,0.68 -39.21,0.96 -60.06,1.69 -21.36,0.73 -43.94,0.67 -67.03,1.45 -49.39,1.66 -102.82,2.06 -161.23,3.97l-72.09 1.84c-8.63,0.28 -16.87,0.03 -25.83,0.31 -36.13,1.15 -73.39,1.8 -113.34,3.05 -5.33,0.17 -9.87,-0.25 -15.17,-0.08 -76.09,2.37 -159.86,3.73 -252.51,6.56 -3.85,0.11 -6.45,-0.47 -10.17,-0.35 -1.82,0.05 -3.65,0.11 -5.48,0.16 -1.72,0.03 -4.47,-0.94 -4.47,2.11zm0.18 -145.39c107.12,5.03 201.99,7.72 287.74,11.84 2.78,0.13 4.82,-0.35 7.35,-0.2l51.19 2.48c9.38,0.46 18.24,0.35 27.56,0.8 9.04,0.44 17.96,0.88 26.78,1.31 8.89,0.43 17.03,0.31 25.63,0.74 64.36,3.16 123.31,4.66 177.28,7.37 6.52,0.33 12.59,0.2 19.05,0.52 6.27,0.32 12.48,0.63 18.63,0.94 6.2,0.31 11.94,0.17 17.93,0.47 45.67,2.33 87.7,3.28 127.05,5.33l0 -0.38c-4.79,-0.25 -9.28,-0.87 -14.2,-1.13 -35.05,-1.85 -72.6,-5.06 -112.56,-7.21l-55.75 -3.44c-6.64,-0.36 -12.84,-1.14 -19.63,-1.51l-30.89 -1.68c-3.56,-0.19 -6.75,-0.83 -10.46,-1.04l-38.6 -2.11c-2.09,-0.11 -3.5,-0.69 -5.52,-0.79 -63.91,-3.32 -133.55,-8.95 -210.84,-13.3 -85.19,-4.79 -181.14,-12.68 -287.73,-18.82l-0.02 19.83zm208.79 -712.14c4.38,2.01 8.78,4.04 13.26,6.21 10.79,5.23 21.44,10.38 31.95,15.47 10.67,5.17 20.38,9.3 30.74,14.32 76.58,37.1 145.56,68.95 208.99,99.8 2.04,0.99 3.36,1.14 5.37,2.13l38.37 18.64c3.69,1.8 6.78,2.83 10.37,4.57 10.38,5.05 20.59,10.02 30.65,14.9 6.7,3.26 12.87,5.81 19.49,9.03 6.42,3.13 12.77,6.22 19.06,9.28 6.35,3.09 12.19,5.5 18.35,8.49 41.02,19.98 79.5,37.5 115.42,55.03 10.02,4.89 19.51,9.14 29.12,13.83l-44.15 -22.36c-5.28,-2.59 -10.2,-5.39 -15.58,-8.02 -5.29,-2.59 -10.63,-5.2 -16.01,-7.84 -5.54,-2.7 -10.8,-5.7 -16.33,-8.41l-25.59 -12.53c-3.09,-1.51 -5.76,-3.25 -8.78,-4.73 -49.19,-24.11 -102.09,-51.44 -160.12,-79.95 -7.67,-3.78 -14.95,-7.84 -22.89,-11.74 -7.86,-3.87 -15.82,-7.78 -23.87,-11.73 -8.31,-4.09 -16.06,-8.4 -24.49,-12.55 -56.22,-27.65 -117.22,-59.08 -183.24,-91.84l-30.1 0zm150.15 1611.77l13.16 -7.12c4.59,-2.48 8.47,-5.1 12.9,-7.5l37.38 -20.21c4.29,-2.32 7.85,-4.76 12.05,-7.02 11.84,-6.4 23.49,-12.69 34.95,-18.88 3.99,-2.15 7.31,-4.43 11.27,-6.57 11.09,-5.99 22.01,-11.88 32.75,-17.68 3.65,-1.97 6.73,-4.11 10.4,-6.09l30.76 -16.59c3.43,-1.85 6.43,-3.93 9.94,-5.82 6.55,-3.53 13.02,-7.02 19.43,-10.48 6.46,-3.48 12.52,-7.2 18.71,-10.53 6.17,-3.32 12.27,-6.61 18.31,-9.87 6.15,-3.31 11.88,-6.83 17.79,-10.01 5.82,-3.13 11.58,-6.24 17.29,-9.31 5.76,-3.1 11.1,-6.39 16.66,-9.39 5.5,-2.96 10.95,-5.89 16.35,-8.79 5.5,-2.96 10.57,-6.1 15.9,-8.97 5.2,-2.8 10.36,-5.57 15.48,-8.32 5.22,-2.8 9.99,-5.77 15.07,-8.5 4.93,-2.65 9.83,-5.28 14.67,-7.88 4.95,-2.66 9.46,-5.47 14.3,-8.07l0 -0.39c-4.73,2.54 -9.49,5.09 -14.3,7.67 -4.94,2.65 -9.53,4.71 -14.54,7.4 -4.98,2.67 -10,5.37 -15.06,8.08 -5.26,2.82 -10.13,5.03 -15.47,7.89 -5.25,2.82 -10.55,5.65 -15.9,8.52 -5.49,2.94 -10.59,5.26 -16.2,8.26 -5.54,2.97 -11.15,5.97 -16.8,9 -5.84,3.13 -11.29,5.61 -17.28,8.82 -5.87,3.15 -11.79,6.31 -17.78,9.52 -6.11,3.27 -11.86,5.89 -18.15,9.26 -6.22,3.33 -12.5,6.69 -18.85,10.08 -6.52,3.48 -12.69,6.32 -19.43,9.92 -6.61,3.54 -13.29,7.1 -20.03,10.71 -6.91,3.69 -13.5,6.74 -20.66,10.57 -57.28,30.59 -119.92,62.04 -188.07,98.27l23.03 0zm-358.21 -1484.17l-0.02 15.19c68.42,24.16 131.24,45.73 190.62,66.71 7.24,2.56 13.59,4.22 20.81,6.78l168.49 59.08c11.2,3.97 21.81,7.2 32.82,11.11l57.82 20.51c1.51,0.56 2.18,0.24 3.64,0.79 56.47,20.87 108.67,37.66 156.75,54.76 7.67,2.73 15.24,5.43 22.72,8.08 7.54,2.68 14.65,4.78 21.89,7.36 28.18,10.03 54.65,19.05 80.28,28.19l53.34 18.63c5.65,2.02 11.04,3.57 16.65,5.57 21.53,7.69 41.89,14.61 61.74,21.7l0 -0.34c-4.93,-1.77 -9.59,-3.79 -14.61,-5.58 -36.24,-12.98 -75.12,-27.66 -117.23,-42.76 -3.19,-1.14 -6.03,-2.56 -9.3,-3.73l-92.76 -33.74c-7.54,-2.7 -14.89,-5.79 -22.72,-8.61l-45.19 -16.25c-1.17,-0.41 -1.79,-1.12 -3.07,-1.57 -52.15,-18.25 -108.65,-40.12 -170.16,-62.32 -10.85,-3.92 -21.86,-7.89 -33.05,-11.93 -11.52,-4.16 -22.65,-8.7 -34.37,-12.94 -48.73,-17.61 -99.9,-36.67 -155.32,-56.71l-151.68 -55.5c-4.33,-1.56 -7.98,-3.54 -12.63,-5.23l-19.63 -7.11c-3.05,-1.1 -5.83,-3.28 -5.84,-0.13zm-1.34 1071.06c124.93,-26.79 233.78,-51.86 330.11,-72.41 54.43,-11.61 105.34,-23.48 152.7,-33.56 9.29,-1.97 17.95,-4.29 26.88,-6.19l51.05 -10.9c3.52,-1.83 42.72,-9.45 47.07,-10.37 7.63,-1.61 14.76,-3.57 22.27,-5.16 88.32,-18.69 164.92,-36.79 231.8,-50.82l0 -0.36c-24.64,5.17 -50.63,9.87 -77.89,15.55 -5.74,1.2 -11.23,1.96 -17.01,3.16 -8.77,1.83 -17.68,3.69 -26.74,5.57 -2.77,0.57 -6.51,2.04 -9.2,1.89 -3.44,-0.18 -14.32,2.6 -18.61,3.5 -6.43,1.33 -12.93,2.69 -19.5,4.06 -6.71,1.4 -13.11,2.31 -20.04,3.74 -95.74,19.88 -208.41,40.8 -342.53,68.41 -46.43,9.56 -96.4,18.69 -148.94,29.47 -56.61,11.61 -116.37,23.23 -181.39,36.55l-0.02 17.85zm1.14 -910.61l-0.02 18.48c115.6,30.64 216.92,55.74 307.75,79.91 10.67,2.83 20.71,4.97 31.25,7.78 10.21,2.72 20.29,5.41 30.24,8.06 9.98,2.66 19.13,4.57 28.85,7.16 9.51,2.54 18.9,5.04 28.17,7.52 9.23,2.46 17.85,4.26 26.71,6.63l75.16 19.61c60.01,16.06 115.21,29.09 165.45,42.6 6.02,1.62 11.98,3.22 17.87,4.81 5.89,1.58 11.38,2.65 17.21,4.22 5.66,1.53 11.27,3.04 16.82,4.53 5.64,1.52 10.83,2.52 16.32,4 7.99,2.15 15.85,4.28 23.61,6.37 2.61,0.7 4.98,0.96 7.65,1.69 7.54,2.04 14.97,4.04 22.3,6.02 2.55,0.69 4.78,0.92 7.23,1.58l0 -0.37c-39.86,-10.8 -82.55,-23.55 -129.14,-36.21 -6.04,-1.64 -12,-3.68 -18.3,-5.39 -6.28,-1.7 -12.62,-3.43 -19.03,-5.17 -6.56,-1.79 -12.76,-3.91 -19.49,-5.74 -6.74,-1.83 -13.56,-3.69 -20.45,-5.57 -7.05,-1.91 -13.7,-4.18 -20.82,-6.12 -51.77,-14.13 -108.1,-30.96 -169.3,-47.72 -47.22,-12.93 -97.62,-27.83 -151.61,-42.66 -11.36,-3.12 -22.38,-6.72 -34.25,-9.98 -11.75,-3.23 -23.67,-6.51 -35.77,-9.83 -12.57,-3.46 -24.42,-7.32 -37.38,-10.88 -12.83,-3.53 -25.87,-7.13 -39.1,-10.77 -13.79,-3.8 -26.94,-8.05 -40.95,-11.91 -5.21,-1.44 -72.65,-19.28 -76.5,-21.46 -1.79,-1.02 -3.78,-1.32 -5.66,-1.84 -1.57,-0.44 -4.8,-2.53 -4.81,0.66zm0.02 -20.47c14.01,4 27.81,7.95 41.41,11.84 13.71,3.92 26.23,6.86 39.6,10.69 97.84,28.01 185.49,50.85 264.4,73.56 18.64,5.37 36.45,9.96 54.37,15.13 8.89,2.57 17.02,4.39 25.64,6.88 8.42,2.43 16.74,4.83 24.96,7.2 8.19,2.37 15.8,4.07 23.91,6.41 7.85,2.27 15.62,4.51 23.3,6.73 3.9,1.13 7.15,1.58 11,2.69l32.98 9.54c1.89,0.56 3.2,0.47 5.17,1.04l33.62 9.74c1.09,0.33 1.55,0.05 2.43,0.23 8.96,1.85 20.22,5.88 29.35,8.52 3.33,0.96 6.2,1.35 9.39,2.28 6.28,1.82 12.49,3.62 18.64,5.41 6.2,1.8 11.99,3.06 17.95,4.79 5.87,1.7 11.67,3.39 17.43,5.07 5.85,1.7 11.19,2.83 16.93,4.5 32.6,9.49 63.4,17.27 92.56,25.78l0 -0.37c-19.25,-5.63 -39.11,-12.24 -59.86,-18.32 -5.39,-1.57 -10.44,-3.46 -15.86,-5.05 -5.47,-1.61 -11,-3.23 -16.58,-4.87 -5.71,-1.67 -11.06,-3.66 -16.92,-5.39 -5.8,-1.7 -11.65,-3.42 -17.57,-5.16 -3.06,-0.9 -5.67,-2.1 -8.69,-2.99l-27.74 -8.16c-1.74,-0.51 -2.91,-1.3 -4.59,-1.79 -5.09,-1.48 -31.7,-8.73 -34.16,-10.4 -1.67,-1.13 -26.74,-8 -30.87,-9.22 -3.65,-1.08 -6.95,-2.52 -10.46,-3.56l-32.98 -9.73c-3.77,-1.11 -7.22,-2.61 -11.17,-3.78 -7.61,-2.26 -15.32,-4.53 -23.11,-6.83 -8.1,-2.39 -15.65,-5.13 -23.9,-7.57 -8.22,-2.44 -16.54,-4.89 -24.95,-7.39 -8.55,-2.53 -16.75,-5.47 -25.63,-8.1 -73.19,-21.69 -154.21,-47.99 -244.14,-74.76 -12.26,-3.65 -23.9,-7.73 -36.31,-11.43 -12.54,-3.74 -25.27,-7.54 -38.19,-11.38 -13.32,-3.97 -25.83,-8.33 -39.58,-12.45 -13.7,-4.09 -27.61,-8.24 -41.74,-12.45l-0.03 23.11zm-0.38 304.49l-0.02 18.49c128.36,14.42 239.43,25.17 337.74,36.32 5.94,0.68 11.17,0.74 16.89,1.39 16.74,1.91 33.11,3.77 49.12,5.59 10.59,1.2 20.44,1.81 30.8,2.99 10.04,1.15 19.95,2.28 29.72,3.39 9.79,1.11 18.87,1.67 28.32,2.74 62.05,7.11 118.84,12.28 170.78,18.28 34.6,4 67.22,6.96 98.07,10.55 6.02,0.7 11.68,0.97 17.63,1.67 5.79,0.67 11.51,1.34 17.18,2 5.74,0.67 11.06,0.92 16.65,1.57 5.43,0.63 10.81,1.26 16.13,1.89 5.33,0.62 10.41,0.85 15.54,1.45l22.59 2.65c2.57,0.3 4.85,0.22 7.32,0.51l0 -0.35c-40.35,-4.76 -83.83,-11.04 -131.48,-16.7 -6.24,-0.74 -12.35,-1.87 -18.83,-2.64 -6.46,-0.78 -13,-1.56 -19.61,-2.34 -6.78,-0.81 -13.21,-2 -20.16,-2.83 -6.97,-0.84 -14.02,-1.69 -21.16,-2.54 -7.28,-0.87 -14.27,-2.14 -21.64,-3.03l-70.37 -8.91c-69.5,-8.37 -147.39,-19.8 -234.15,-30.38 -11.64,-1.42 -23.45,-2.86 -35.45,-4.32 -12.3,-1.5 -24.11,-3.5 -36.88,-5.06 -12.78,-1.56 -25.75,-3.15 -38.94,-4.77 -13.72,-1.67 -26.82,-3.87 -40.88,-5.59 -21.22,-2.6 -42.98,-5.27 -65.32,-8.01 -7.69,-0.94 -14.63,-2.42 -22.6,-3.4l-94.58 -12.35c-1.29,-0.17 -2.39,-0.81 -2.39,1.75zm0.1 -79.28c0,0.4 -0,0.78 -0,1.16l-0.02 12.28c0.37,3.01 1.85,2.05 6.87,2.83 6.23,0.98 18.93,3.45 23.68,3.15 3.27,-0.2 88.33,13.78 90.23,14.08 37.46,5.88 72.49,10.8 106.84,16.2 64.59,10.17 123.64,18.93 179.04,27.67 13.19,2.08 25.65,3.54 38.49,5.57 83.04,13.13 156.71,23.89 222.84,34.4 4.53,0.72 8.66,0.96 13.02,1.65 62.15,9.89 117.95,18.02 168.59,26.12 3.24,0.52 6.15,0.63 9.37,1.14 45.19,7.24 86.4,13.2 124.31,19.3l0 -0.3c-1.28,-0.21 -2.3,-0.69 -3.54,-0.89l-26.39 -4.26c-32.08,-5.19 -66.52,-11.75 -103.64,-17.48 -0.9,-0.14 -1.38,-0.6 -2.24,-0.72 -25.61,-3.71 -52.65,-8.95 -81.06,-13.58l-96.71 -16.19c-0.78,-0.13 -0.91,-0.48 -1.55,-0.69 -4.18,-1.36 -9.12,-1.5 -13.45,-2.2l-42.69 -6.99c-10.02,-1.64 -19.77,-3.69 -30.01,-5.37l-165.3 -27.65c-3.52,-0.57 -6.35,-1.56 -9.81,-2.13 -55.38,-9.13 -114.52,-19.43 -178.98,-30.08 -65.29,-10.8 -135.99,-23.65 -212.83,-35.83 -3.03,-0.48 -4.72,-1.45 -7.83,-1.96 -3.33,-0.54 -7.2,-2.46 -7.21,0.79zm0.39 -309.74c-0,3.14 2.78,2.9 5.83,3.91l98.16 31.8c16.67,5.52 32.08,10 48.05,15.29 116.59,38.6 218.43,70.73 307.89,100.45 10.54,3.5 20.55,6.33 30.91,9.78 10,3.33 19.85,6.61 29.56,9.83 9.72,3.23 18.76,5.76 28.15,8.89 13.71,4.56 27.15,9.04 40.31,13.42 4.52,1.51 8.47,2.37 12.89,3.84 64.65,21.54 122.66,39.67 175.55,57.35 6.36,2.13 12.29,3.73 18.46,5.79 40.9,13.69 78.88,25.35 114.02,37.15l0 -0.34c-4.88,-1.64 -9.8,-3.29 -14.78,-4.96 -5.04,-1.7 -9.95,-3.69 -15.16,-5.44 -5.19,-1.74 -10.43,-3.51 -15.73,-5.29 -5.44,-1.83 -10.63,-3.94 -16.15,-5.8 -8.33,-2.8 -16.78,-5.65 -25.39,-8.55 -3,-1.01 -5.66,-2.27 -8.64,-3.28l-27.15 -9.15c-2.61,-0.88 -7,-1.61 -9.28,-3.41 -1.04,-0.82 -38.07,-12.95 -39.11,-13.3 -3.42,-1.15 -6.57,-2.62 -10.1,-3.81l-31.85 -10.76c-7.35,-2.49 -14.48,-5.31 -22.1,-7.89 -7.6,-2.57 -15.3,-5.17 -23.1,-7.81 -8.02,-2.71 -15.72,-5.75 -23.87,-8.52 -68.82,-23.3 -145.9,-50.86 -232.54,-80.29 -11.77,-4 -23.18,-8.4 -35.43,-12.57 -103.47,-35.18 -221.6,-77.17 -359.38,-124.16l-0.02 17.83zm156.4 1428.71c68.52,-33.33 131.62,-64.18 189.8,-91.86 88.7,-42.21 167.84,-81.77 238.43,-115.27 63.55,-30.15 121.25,-59.16 173.55,-83.89 47.8,-22.61 91.75,-44.83 132.07,-63.84l0 -0.35c-40.28,18.98 -84.19,38.18 -131.95,60.61 -52.28,24.56 -109.96,49.93 -173.5,79.69 -70.57,33.05 -149.68,68.08 -238.36,109.49 -69.38,32.39 -145.76,66.89 -229.97,105.42l39.93 0zm123.07 -1611.77c29.99,14.93 58.85,29.32 86.64,43.38 91.98,46.56 173.68,86.04 245.98,122.73 8.52,4.33 16.92,8.59 25.2,12.8 8.28,4.2 15.99,7.69 24.06,11.79 7.86,3.99 15.62,7.93 23.27,11.82 7.71,3.92 14.95,7.19 22.39,10.96 10.88,5.53 21.55,10.96 32.02,16.28 3.55,1.8 6.66,2.99 10.16,4.77 11.78,5.99 23.32,11.86 34.61,17.6 1.72,0.88 3.04,1.17 4.7,2.02 48.37,24.62 92.28,45.92 132.81,66.6l0 -0.33c-4.92,-2.51 -9.64,-5.26 -14.69,-7.84 -5.03,-2.57 -10.11,-5.17 -15.26,-7.8 -5.27,-2.69 -10.3,-5.61 -15.65,-8.35 -27.38,-13.99 -56.31,-29.52 -86.98,-45.21 -39.11,-20.02 -81.44,-42.91 -126.81,-66.19 -7.96,-4.08 -16.02,-8.22 -24.19,-12.4 -8.34,-4.28 -16.5,-8.91 -25.18,-13.36 -8.63,-4.43 -17.37,-8.92 -26.24,-13.47 -9.12,-4.68 -17.83,-9.61 -27.21,-14.43 -9.39,-4.82 -18.91,-9.71 -28.57,-14.67 -9.94,-5.1 -19.57,-10.53 -29.67,-15.72 -15.43,-7.93 -31.21,-16.04 -47.36,-24.34 -5.64,-2.9 -10.67,-5.98 -16.33,-8.89l-61.13 -31.45c-3.29,-1.69 -5.89,-3.56 -9.04,-5.18 -19.52,-10.04 -39.56,-20.42 -60.15,-31.11l-27.39 0zm-279.73 387.77c129.3,28.62 242.11,51.88 340.88,73.84 13.3,2.96 25.78,5.2 38.73,8.08 94.55,21.07 177.37,38.13 251.24,54.67 4.27,0.96 8.3,1.42 12.65,2.4l37.27 8.35c7.93,1.78 15.52,3.07 23.34,4.83 7.66,1.72 15.22,3.42 22.69,5.09 7.43,1.67 14.36,2.83 21.57,4.45l60.6 13.26c36.69,8.26 71.12,14.98 103.06,22.21 5.16,1.17 10.27,2.32 15.32,3.46 5.05,1.14 9.79,1.89 14.74,3.01l0 -0.33c-40.53,-9.2 -84.57,-20.27 -133.13,-31.35 -3.26,-0.74 -6.15,-1.78 -9.43,-2.53 -9.83,-2.24 -19.85,-4.54 -30.05,-6.87 -6.93,-1.58 -13.61,-3.5 -20.75,-5.13 -7.18,-1.64 -14.45,-3.3 -21.81,-5 -7.52,-1.72 -14.8,-3.8 -22.42,-5.54 -64.83,-14.86 -137.46,-32.88 -219.16,-51.69 -11.05,-2.54 -21.82,-5.52 -33.33,-8.17 -11.54,-2.67 -23.27,-5.36 -35.19,-8.11 -12.3,-2.84 -24.16,-6.1 -36.78,-9.01 -108.36,-25.02 -233.12,-55.67 -380.03,-89.75l-0.02 19.82zm-1.27 1015.91c138.1,-44.82 257.33,-85.78 360.84,-119.23 91.05,-29.41 171.83,-57.41 243.67,-80.51 64.5,-20.74 122.84,-41.13 175.6,-58.02 48.11,-15.41 92.23,-30.94 132.64,-43.82l0 -0.34c-40.37,12.86 -84.45,25.43 -132.52,40.67 -52.76,16.73 -111.05,33.52 -175.55,53.87 -71.8,22.67 -152.57,46.16 -243.59,74.76 -103.56,32.54 -222.84,67.56 -361.05,110.8l-0.03 21.83zm299.68 208.09c19.83,-10.45 39.14,-20.56 57.95,-30.34 12.17,-6.32 23.48,-12.72 35.17,-18.8 11.43,-5.94 22.69,-11.78 33.77,-17.54 11.01,-5.72 21.3,-11.56 32.05,-17.15 10.43,-5.41 20.71,-10.75 30.84,-16.01 5.14,-2.67 9.67,-5.5 14.64,-8.08l42.97 -22.3c2.46,-1.28 4.33,-2.7 6.67,-3.92l33.5 -17.37c3.66,-1.9 9.72,-4.16 12.84,-6.98 1.37,-1.24 38.68,-20.17 42.95,-22.37 2.03,-1.06 3.74,-2.37 5.88,-3.48l34.27 -17.74c3.75,-1.94 7.16,-4.12 10.95,-6.08 7.23,-3.74 14.37,-7.44 21.43,-11.09 7.08,-3.67 13.66,-7.47 20.54,-11.03 6.72,-3.47 13.37,-6.91 19.93,-10.3 6.56,-3.39 12.76,-6.98 19.24,-10.33 48.11,-24.86 92.03,-48.97 132.49,-69.81l0 -0.34c-4.95,2.55 -9.72,4.67 -14.71,7.23 -5.03,2.59 -10.12,5.21 -15.26,7.86 -5.26,2.7 -10.27,4.93 -15.65,7.69 -5.36,2.76 -10.78,5.54 -16.26,8.37 -5.52,2.84 -10.96,5.27 -16.69,8.21 -5.72,2.94 -11.51,5.91 -17.37,8.92 -2.95,1.52 -5.68,2.54 -8.74,4.12 -3.02,1.54 -6.06,3.11 -9.11,4.67 -6.08,3.12 -12.52,7.05 -18.7,9.61l-33.91 17c-1.83,0.94 -3.21,1.25 -5.01,2.18l-31.21 16c-3.7,1.9 -6.98,3.17 -10.74,5.09 -7.32,3.75 -14.73,7.55 -22.24,11.4 -7.72,3.96 -15.11,7.31 -22.95,11.33 -7.91,4.04 -15.91,8.15 -24.02,12.3 -8.34,4.27 -16.36,7.94 -24.98,12.35 -71.69,36.68 -151.96,75.74 -242.57,121.98 -24.52,12.52 -49.51,24.71 -75.89,38.17 -4.46,2.27 -8.85,4.45 -13.24,6.6l31.17 0zm-298.06 -1506.62c33.91,12.66 66.59,24.86 98.14,36.64 10.43,3.89 20,6.85 30.35,10.72 19.76,7.38 39.07,14.6 57.95,21.65 18.68,6.99 36.12,12.93 53.93,19.59 17.3,6.47 34.23,12.81 50.81,19.01 16.35,6.11 31.72,11.31 47.49,17.22 87.25,32.67 164.94,60.31 234.67,86.5 42.65,16.01 82.45,30.11 119.93,44.21 9.1,3.42 17.73,6.26 26.47,9.55 8.6,3.24 17.07,6.43 25.42,9.57 8.32,3.13 16.12,5.68 24.2,8.72 7.91,2.98 15.7,5.92 23.39,8.81 7.55,2.85 14.78,5.2 22.2,8 7.23,2.73 14.36,5.43 21.39,8.07 3.54,1.33 6.72,2.17 10.22,3.5l30.04 11.35c1.64,0.62 3.01,0.79 4.69,1.43l31.28 11.83c0.52,0.19 0.61,-0.07 1.06,0.04 2.91,0.78 5.95,2.26 8.83,3.36l17.34 6.56c2.88,1.09 5.57,1.78 8.35,2.83l24.23 9.18c2.66,1 5.11,1.62 7.77,2.63 5.13,1.94 10.2,3.87 15.22,5.77 5.04,1.91 9.8,3.41 14.7,5.27l0 -0.31c-4.85,-1.84 -9.74,-3.7 -14.7,-5.58 -5.05,-1.91 -9.95,-4.08 -15.14,-6.06 -32.05,-12.19 -66.48,-26.28 -103.64,-40.44 -26.46,-10.09 -54.3,-21.44 -83.84,-32.72 -7.73,-2.95 -15.28,-6.22 -23.15,-9.23 -7.98,-3.06 -16.08,-6.15 -24.31,-9.29 -8.44,-3.23 -16.59,-6.75 -25.28,-10.07 -8.77,-3.36 -17.69,-6.76 -26.73,-10.23 -9.16,-3.5 -18.19,-7.38 -27.73,-11.03 -9.59,-3.67 -19.33,-7.4 -29.22,-11.19 -5.1,-1.95 -9.74,-4.17 -14.93,-6.16l-48.04 -18.41c-2.81,-1.08 -5.19,-2.45 -8.12,-3.58l-59.13 -22.67c-1.06,-0.4 -1.24,-0.92 -2.18,-1.35 -6.01,-2.78 -12.4,-4.74 -18.56,-7.11 -12.78,-4.9 -25.79,-9.91 -39.05,-15 -6.86,-2.63 -13.37,-5.64 -20.17,-8.26l-64.34 -24.72c-7.63,-2.94 -14.76,-6.21 -22.67,-9.25 -15.58,-6 -31.48,-12.11 -47.71,-18.36 -16.87,-6.49 -33.3,-13.37 -50.79,-20.11 -17.67,-6.81 -35.73,-13.76 -54.19,-20.87 -19.03,-7.33 -37.66,-15.11 -57.65,-22.82 -41.22,-15.89 -83.69,-32.9 -128.79,-50.29l-0.03 23.1zm-0.57 449.08c25.09,3.31 48.49,5.75 72.17,8.89 22.94,3.04 45.29,5.99 67.08,8.87 5.41,0.72 9.98,0.71 15.48,1.44 113.6,15.06 212.77,26.62 300.52,38.35 7.22,0.96 13.78,1.35 20.91,2.31 13.78,1.85 27.29,3.66 40.54,5.43 6.7,0.89 12.76,1.23 19.3,2.11 49.21,6.61 94.56,11.83 137.09,17.58l51.4 6.54c2.47,0.33 4.49,0.21 6.89,0.53 35.95,4.88 69.38,8.67 101.07,13l38.76 4.94c1.62,0.22 3.78,0.96 5.32,0.71 3.25,-0.53 6.93,0.62 10.3,1.09 36.45,5 70.21,8.67 101.71,13.02 1.43,0.2 2.62,0.05 4,0.24l20.13 2.78c2.61,0.37 5.09,0.41 7.73,0.78 10.2,1.42 19.98,2.48 29.67,3.83l0 -0.29c-9.66,-1.35 -19.42,-3.01 -29.6,-4.43 -2.62,-0.36 -5.03,-1 -7.66,-1.37l-16.02 -2.25c-2.8,-0.39 -5.39,-1.06 -8.17,-1.45 -22.74,-3.2 -46.47,-7.19 -71.71,-10.76l-37.68 -5.68c-1,-0.14 -1.61,-0.58 -2.59,-0.72 -44.08,-6.07 -92.24,-14.46 -145.25,-21.85 -1.26,-0.18 -2.03,-0.7 -3.31,-0.88 -37.27,-5.21 -77.07,-11.93 -119.63,-18.07 -23.22,-3.35 -47.11,-7.26 -72.27,-10.9 -6.39,-0.92 -12.48,-2.28 -19.11,-3.24l-40.71 -5.9c-7.13,-1.04 -13.76,-2.5 -21.09,-3.56 -59.93,-8.72 -124.6,-19.2 -195.89,-29.61l-104.05 -15.81c-5.43,-0.79 -10.11,-2.08 -15.77,-2.91 -21.79,-3.2 -44.13,-6.48 -67.05,-9.84 -23.7,-3.48 -47.3,-7.6 -72.49,-11.3l-0.04 28.4zm4832.03 875.01c-6.4,-1.86 -12.08,-3.11 -18.46,-5.09 -5.78,-1.78 -16.11,-6.1 -21.16,-6.17 -4.86,-0.06 -15.32,-4.47 -20.72,-6.14 -6.94,-2.15 -13.04,-3.41 -20.08,-5.59 -13.46,-4.17 -25.94,-7.39 -39.15,-11.52 -3.43,-1.06 -5.8,-1.17 -9.3,-2.26 -21.87,-6.8 -43.02,-12.17 -63.78,-18.63l-25.88 -7.48c-1.43,-0.44 -2.87,-0.96 -4.29,-1.37 -1.57,-0.44 -2.19,-0.05 -3.98,-0.63 -22.4,-7.27 -43.49,-12.45 -64.77,-19.11l0 0.56c1.25,0.39 2.07,1.23 3.68,1.71 19.71,5.95 39.98,13.68 60.83,20.22 3.08,0.97 5.43,2.31 8.26,3.18l17.35 5.46c3.11,0.97 5.29,2.25 8.53,3.27 12.12,3.82 23.52,8.01 35.89,11.91 6.44,2.03 11.92,4.37 18.38,6.41 6.15,1.94 13.05,3.72 18.8,6.52 5.62,2.73 13.53,4.31 19.49,6.19 19.28,6.09 39.89,14.09 60.56,20.43l39.83 13.85 0 -15.71zm0 -1011.28c-75.52,17.76 -144.71,36.29 -209.19,51.29 -7.96,1.85 -15.09,4.09 -23.01,5.93 -7.7,1.79 -15.33,3.56 -22.88,5.31 -3.81,0.88 -6.82,2.15 -10.7,3.05 -4.59,1.06 -30.5,6.57 -32.61,7.79 -2.74,1.58 -26.37,6.43 -31.04,7.51 -3.63,0.84 -6.51,2.05 -9.96,2.85 -6.73,1.54 -13.39,3.09 -20,4.62 -6.74,1.56 -12.74,3.47 -19.26,4.97l0 0.53c52.8,-12.17 109.04,-22.87 170.01,-36.84 8.15,-1.86 15.44,-2.94 23.68,-4.83 8.23,-1.88 16.55,-3.78 24.95,-5.7l51.89 -11.25c2.24,-0.54 3.59,-0.17 6.12,-0.77l41.56 -9.47c2.75,-0.63 4.22,-0.28 6.78,-0.89l53.68 -11.55 0 -12.55zm0 445.95c-96.62,-0.47 -183.77,1.38 -262.64,0.83 -18.81,-0.13 -36.8,0.31 -54.95,0.17 -9.07,-0.06 -17.28,0.42 -26.09,0.35 -8.57,-0.06 -17.05,-0.13 -25.43,-0.19 -8.36,-0.06 -16.09,0.4 -24.39,0.33 -8.02,-0.06 -15.96,-0.12 -23.81,-0.19 -4.03,-0.04 -7.33,0.46 -11.32,0.42 -11.46,-0.1 -22.76,-0.19 -33.87,-0.28l0 0.5c1.96,0.02 3.23,0.53 5.27,0.54l16.66 0.15c7.44,0.07 15.6,-0.86 22.85,0.69 2.95,0.64 19.29,0.22 23.78,0.26 4.01,0.04 8.04,0.07 12.09,0.11 4.33,0.04 8.1,0.59 12.29,0.63 8.38,0.08 16.85,0.17 25.43,0.25 8.82,0.09 17.25,0.72 26.06,0.8 8.97,0.09 18.04,0.18 27.22,0.27 9.48,0.1 18.26,0.74 27.94,0.84 9.54,0.1 19.19,0.2 28.96,0.3 10.01,0.1 19.59,0.79 30.02,0.91 62.83,0.67 130.62,3.25 203.92,4.17l0 -11.87zm0 -42.26c-0.9,0.19 -2.03,0.46 -3.44,0.71 -4.06,0.72 -34.69,0.63 -40.91,0.73 -5.48,0.09 -10.01,0.81 -15.61,0.9 -40.92,0.67 -79.54,2.54 -116.99,3.13 -4.64,0.07 -8.42,0.72 -13.15,0.8l-26.78 0.41c-4.52,0.07 -8.21,0.71 -12.8,0.78 -33.74,0.51 -65.46,2.09 -96.59,2.54 -3.89,0.06 -7.01,0.65 -10.94,0.7l-22.29 0.31c-3.78,0.05 -6.86,0.62 -10.69,0.68 -14.4,0.19 -27.93,0.91 -41.68,1.08l-0 0.52c13.72,-0.18 27.29,0.16 41.69,-0.02 3.7,-0.05 6.67,0.45 10.46,0.4l22.29 -0.28c3.96,-0.05 7.13,0.45 11.17,0.4 31.11,-0.37 62.84,0.39 96.59,0.01 4.46,-0.05 8,0.48 12.53,0.43l26.76 -0.29c4.76,-0.05 8.57,0.51 13.43,0.46 37.45,-0.4 76.04,0.44 116.99,0.04 5.44,-0.05 9.77,0.56 15.28,0.5 5.06,-0.05 38.13,-0.85 40.77,-0.11 1.43,0.4 2.38,0.35 3.93,0.35l0 -15.22zm-433.6 790.19l-28.19 -14.24c8.73,4.63 17.52,9.39 26.41,14.24l1.78 0zm433.6 -1474.92c-56.83,21.9 -109.49,42.76 -160.02,62.19 -48.71,18.73 -94.72,36.42 -138.23,53.15 -21.01,8.07 -40.75,16.2 -60.7,23.87l-157.67 60.56c-2,0.77 -3.46,1.81 -5.56,2.61l-121.9 46.78c-12.84,4.93 -25.04,10.03 -37.28,14.72 -23.66,9.07 -46.38,17.79 -68.24,26.17 -21.12,8.1 -41.13,16.15 -60.68,23.63l0 0.37c178.53,-68.33 429.68,-162.36 810.28,-307.48l0 -6.59zm-224.9 1474.92c-28.4,-12.81 -55.77,-25.08 -82.44,-37.44 -5.54,-2.56 -10.22,-4.19 -15.69,-6.72 -10.58,-4.91 -21.03,-9.75 -31.34,-14.53 -5.28,-2.44 -9.94,-4.08 -14.97,-6.41 -9.89,-4.59 -19.65,-9.12 -29.29,-13.59 -9.62,-4.46 -18.66,-8.15 -28.16,-12.56 -35.98,-16.71 -69.87,-31.48 -102.58,-46.69l0 0.46c1.92,0.89 3.55,2.13 5.67,3.11 47.79,22.26 98.92,47.6 154.13,73.38l54.1 25.8c1.34,0.62 2.7,1.24 4.05,1.87 1.54,0.72 2.14,1.6 3.82,2.36 21.13,9.6 42.99,20.08 65.5,30.94l17.2 0zm86.41 -1611.77l-25.63 12.9c-3.7,1.83 -6.31,3.72 -9.96,5.53 -52.64,26.04 -101.4,51.28 -147.93,74.26l-56.72 28.54c-2.82,1.39 -4.82,2.9 -7.61,4.28 -10.31,5.08 -20.48,10.09 -30.5,15.04 -9.91,4.89 -19.29,10.02 -29.07,14.83 -18.9,9.32 -36.77,18.61 -54.76,27.48l-44.69 22.48c-2.21,1.09 -3.78,2.32 -6,3.41l0 0.47c33.54,-16.48 68.32,-32.6 105.45,-50.82l51.61 -24.81c2.78,-1.36 4.76,-1.81 7.53,-3.17 10.45,-5.13 21.04,-10.32 31.8,-15.58 10.93,-5.35 21.56,-10.02 32.96,-15.61 22.98,-11.25 45.97,-21.95 70.45,-33.93l67.07 -32.23c3.6,-1.76 6.19,-2.42 9.84,-4.21 19.56,-9.55 39.48,-19.13 59.85,-28.87l-23.68 0zm-451.32 1611.77c-10.5,-6.12 -20.78,-12.1 -31.04,-18.21l0 0.44c9.71,5.78 19.45,11.73 29.38,17.77l1.66 0zm450.7 0c-11.19,-4.81 -22.26,-9.57 -33.35,-14.45 -6.63,-2.92 -12.61,-4.96 -19.33,-7.91 -40.98,-18.04 -80,-34.1 -117.2,-50.5 -3.07,-1.35 -5.53,-1.87 -8.34,-3.13 -32.55,-14.54 -63.44,-26.95 -93.29,-40.15 -9.92,-4.38 -19.2,-7.97 -28.71,-12.18 -18.67,-8.26 -36.34,-15.58 -54.15,-23.47 -2.33,-1.03 -3.97,-1.28 -6.29,-2.31l-43.88 -18.51 43.51 19.8c2.24,0.98 4.07,2.3 6.48,3.36 17.8,7.91 35.43,16.24 54.13,24.56 23.59,10.5 48.39,22.58 73.77,33.89 5.47,2.44 10.35,5.14 15.73,7.54 10.72,4.78 21.69,9.33 32.71,14.57 1.42,0.67 2.13,1.54 3.79,2.26l29.85 13.33c6.02,2.68 11.29,5.6 17.26,8.27l74.06 33.67c6.83,3.05 12.77,6.31 19.61,9.36l4.48 2.01 29.17 0zm139.1 -1519.25c-0.7,0.35 -1.44,0.71 -2.17,1.01l-7.19 3.59c-4.79,2.46 -10.38,4.24 -15.21,6.2l-57.8 23.6c-9.61,3.92 -18.42,8.15 -27.55,11.87 -17.91,7.3 -35.45,14.46 -52.64,21.47 -17.08,6.96 -33.04,14.06 -49.56,20.79 -61.99,25.26 -119.01,49.6 -172.6,71.39 -6.59,2.68 -12.41,5.56 -18.82,8.17l-45.64 18.55c-3.16,1.28 -5.59,2.78 -8.67,4.02 -11.52,4.68 -22.86,9.29 -34.02,13.82 -11.17,4.54 -21.58,9.24 -32.41,13.64 -41.06,16.65 -79.34,33.08 -115.77,47.84l51.31 -19.88c1.43,-0.59 2.19,-0.41 3.55,-0.98 19.58,-8.19 39.67,-15.57 60.38,-23.93 43.66,-17.62 89.82,-35.23 139.66,-55.32l70.59 -27.9c2.89,-1.16 8.06,-3.91 10.67,-4.07 2.88,-0.15 39.85,-15.7 43.99,-17.37 15.56,-6.26 30.69,-11.76 46.69,-18.19 65.65,-26.39 136.07,-53.46 213.22,-84.37l0 -13.97zm0 244.21c-123.83,34.41 -232,66.12 -327.74,92.59 -15.17,4.19 -29.39,8.66 -44.06,12.71 -14.27,3.94 -28.27,7.8 -42.01,11.6 -6.81,1.88 -12.97,4.09 -19.73,5.95 -4.8,1.33 -54.95,14.57 -56.93,15.9 -2.41,1.61 -48.06,13.52 -52.55,14.75 -5.77,1.59 -10.93,3.48 -16.55,5.02 -10.86,2.99 -21.55,5.93 -32.05,8.82 -10.47,2.88 -20.27,6.02 -30.36,8.78 -19.69,5.41 -38.46,11 -56.84,16.04l0 0.42c56.72,-15.54 119.02,-31.23 188.08,-50.07 12.36,-3.38 24.37,-6.16 37.22,-9.67 12.99,-3.54 26.23,-7.15 39.71,-10.83 6.91,-1.88 13.21,-3.08 20.27,-5l54.19 -14.75c3.43,-0.93 8.02,-2.8 11.35,-3.06 7.02,-0.56 15.21,-3.62 22.78,-5.68 15.88,-4.32 32.1,-8.72 48.65,-13.22 8.63,-2.35 16.56,-3.93 25.22,-6.28 17.35,-4.71 35.06,-9.52 53.17,-14.44 18.74,-5.09 37,-9.43 56.45,-14.7 19.78,-5.37 40,-10.85 60.7,-16.46 20.01,-5.43 39.96,-10.26 61.02,-15.9l0 -12.52zm-489 1275.03c-13.19,-7.01 -26.13,-13.93 -38.88,-20.96l0 0.47c11.72,6.47 23.72,13.45 35.96,20.5l2.92 0zm-50.8 0c-3.33,-1.86 -6.66,-3.73 -10.01,-5.65 -11.75,-6.73 -23.29,-13.35 -34.63,-19.85 -5.54,-3.17 -10.76,-5.72 -16.32,-8.91 -3.84,-2.2 -45.77,-26.72 -47.26,-26.98 -2.24,-0.39 -39.85,-22.56 -43.79,-24.81 -4.79,-2.75 -9.25,-4.9 -13.84,-7.53l0 0.41c9.23,5.31 18.62,10.7 28.16,16.18 9.79,5.62 19.44,11.59 29.43,17.33 10.18,5.85 20.54,11.81 31.08,17.87 10.83,6.22 21.34,12.71 32.55,19.16 12.85,7.4 26,14.99 39.41,22.78l5.22 0zm94.58 -1611.77c-84.5,51.24 -159.17,97.57 -226.17,137.84l0 0.41c2.31,-1.39 4.25,-2.12 6.66,-3.57l35.18 -21.11c4.98,-2.99 9.49,-5.25 14.5,-8.26 9.96,-5.98 20.09,-12.06 30.38,-18.22 10.55,-6.33 20.78,-12.02 31.72,-18.57 36.55,-21.91 74.97,-44.28 115.83,-68.51l-8.11 0zm445.22 50.45l-80.75 35.43c-4.19,1.81 -7.35,3.8 -11.28,5.48 -30.52,13.09 -59.11,26.06 -87.54,38.29 -26.76,11.51 -53.67,24.24 -78.77,35.02 -25.01,10.74 -48.6,21.45 -72.21,31.55 -2.93,1.25 -5.26,2.8 -8.34,4.12 -35.92,15.4 -70.21,31.13 -102.91,45.13 -5.16,2.21 -9.74,4.67 -14.68,6.77 -19.24,8.23 -37.38,16.48 -55.6,24.26 -4.61,1.98 -8.65,4.17 -13.09,6.07l-38.28 17.26c33.86,-14.43 69.36,-28.11 106.97,-44.1l44.74 -18.52c5.33,-2.26 9.99,-3.72 15.41,-6.02 21.59,-9.17 43.11,-17.77 66,-27.48 5.9,-2.5 11.14,-4.18 17.21,-6.75l73.63 -30.63c6.57,-2.78 12.5,-4.7 19.31,-7.59l35.55 -15.05c2.13,-0.92 3.05,-0.66 5.04,-1.51 42.64,-18.4 87.1,-35.59 134.16,-55.45 15.2,-6.42 30.04,-12.13 45.42,-18.52l0 -17.77zm0 1543.58c-198.27,-78.78 -357.76,-140.57 -489.87,-193.22 -7.62,-3.04 -14.59,-5.33 -22.08,-8.32 -21.61,-8.62 -42.55,-16.97 -62.83,-25.06 -13.14,-5.24 -25.74,-9.82 -38.48,-14.91 -12.43,-4.96 -24.6,-9.82 -36.54,-14.59 -11.76,-4.69 -22.85,-8.7 -34.19,-13.22 -11.06,-4.42 -21.92,-8.76 -32.58,-13.02 -10.56,-4.22 -20.57,-7.82 -30.69,-11.87 -9.91,-3.96 -19.65,-7.85 -29.22,-11.69l0 0.38c81.24,32.52 175.91,72.2 286.97,116.81 80.05,32.15 169.88,69.33 271.61,110.26 22.18,8.93 44.15,18.37 67.62,27.82l112.89 45.46c3.67,1.48 6.07,3.1 9.64,4.52l25.75 10.39c0.59,0.24 1.31,0.66 2,0.98l0 -10.74zm0 -1098.3c-39.39,7.64 -77.63,16.18 -114.03,23.15 -7.65,1.46 -14.28,3.35 -21.87,4.8l-37.06 7.07c-2.01,0.37 -2.93,1.2 -5.08,1.59 -53.15,9.56 -103.18,21.37 -150.07,30.26 -44.32,8.41 -85.9,17.84 -125.52,25.31 -4.94,0.93 -9.28,2.24 -14.04,3.14l-54.37 10.72c-4.43,0.83 -8.41,2.05 -12.89,2.89l-18.97 3.56c-2.26,0.43 -3.93,1.2 -6.09,1.6l0 0.46c16.79,-3.14 33.47,-5.78 51.1,-9.07 4.6,-0.85 8.67,-1.14 13.22,-1.98l56.58 -10.03c5,-0.93 9.62,-1.28 14.83,-2.25l22.95 -4.26c2.83,-0.53 4.86,-0.38 7.67,-0.9 21.47,-3.97 42.85,-7.39 65.54,-11.59 5.92,-1.1 11.08,-1.51 17.02,-2.6 38.78,-7.15 79.5,-13.5 122.42,-21.38 3.69,-0.68 6.35,-0.58 10.07,-1.26 28.26,-5.18 56.53,-9.74 86.7,-15.26 7.87,-1.44 14.72,-2.06 22.68,-3.51l69.23 -12.02 0 -18.43zm0 405.7c-34.05,-0.8 -67.93,-0.47 -99.48,-1.3 -32.28,-0.85 -62.54,-1.04 -92.65,-1.85 -7.26,-0.19 -13.96,0.21 -21.33,0.01l-81.09 -1.63c-6.56,-0.18 -12.45,0.22 -19.04,0.03l-32.41 -0.9c-1.76,-0.05 -2.87,0.43 -4.32,0.43 -11.82,0.02 -23.57,-0.68 -35.04,-1 -5.82,-0.16 -10.92,0.21 -16.7,0.05l-64.16 -1.33c-5.29,-0.16 -9.9,0.21 -15.12,0.05 -19.85,-0.57 -38.58,-0.65 -57.35,-1.2 -4.72,-0.14 -8.82,0.2 -13.43,0.06l-39.34 -0.26c17.21,0.52 34.51,1.71 52.77,2.07 1.24,0.02 1.81,0.56 3.13,0.57l24.93 0.78c4.95,0.15 9.42,0.78 14.3,0.93l61.36 2.45c5.56,0.18 10.71,0.85 16.16,1.02 22.43,0.73 44.89,1.98 68.69,2.76 24,0.78 49.68,2.73 75.31,3.59 27.09,0.91 54.38,2.39 83.47,3.37 3.89,0.13 6.74,0.83 10.61,0.96 53.59,1.83 110.7,5.04 171.69,7.17 2.18,0.08 4.7,-0.05 6.84,0.24 0.45,0.06 1.29,0.43 2.17,0.7l0 -17.77zm0 83.12c-45.42,-3.16 -87.88,-5.55 -129.29,-8.47 -20.55,-1.45 -39.71,-2.2 -59.31,-3.59 -19.06,-1.35 -37.69,-2.68 -55.91,-3.97 -4.63,-0.33 -8.48,-0.03 -12.89,-0.34l-63.84 -4.55c-8.33,-0.59 -15.85,-0.59 -23.91,-1.17 -15.6,-1.12 -30.89,-2.21 -45.87,-3.29 -14.85,-1.06 -28.83,-1.55 -43.19,-2.58 -53.82,-3.88 -103.4,-6.51 -149.88,-9.89l-56.15 -3.65c-2.48,-0.19 -5.32,-0.76 -7.54,-0.19 -1.34,0.35 -27.51,-1.96 -29.56,-2.11 -9.69,-0.71 -18.87,-0.97 -28.17,-1.65l0 0.41c37.94,2.82 78.12,6.67 121.42,9.9 11.43,0.85 22.52,2.15 34.32,3.04 11.91,0.9 24.03,1.81 36.39,2.74 6.24,0.47 12.19,1.39 18.68,1.88l39.75 3c7,0.53 13.56,1.53 20.55,2.06 120.6,9.16 262.62,22.3 434.4,35.6l0 -13.18zm0 37.6c-64.17,-5.74 -123.36,-9.31 -179.41,-14.43 -7.05,-0.65 -13.09,-0.61 -20,-1.24l-58.28 -4.78c-36.29,-3.35 -71.79,-4.99 -104.88,-8.07 -5.42,-0.5 -10.79,-1.01 -16.13,-1.5 -5.56,-0.52 -10.36,-0.44 -15.78,-0.95l-23.16 -2.16c-2.74,-0.26 -4.7,0.06 -7.42,-0.19 -8.82,-0.83 -21.01,-2.63 -29.53,-2.27 -4.49,0.19 -9.71,-0.92 -14.22,-1.34 -4.74,-0.44 -9.45,-0.85 -14.12,-1.33 -1.37,-0.14 -2.06,0.28 -3.2,0.21l-24.02 -2.29c-4.39,-0.41 -8.46,-0.33 -12.95,-0.76 -4.38,-0.41 -8.73,-0.83 -13.04,-1.24 -4.45,-0.42 -8.29,-0.31 -12.63,-0.73 -4.21,-0.4 -8.39,-0.8 -12.56,-1.2l0 0.46c29.23,2.8 60.17,7.2 92.32,10.32 4.77,0.46 9.22,1.39 14.21,1.88 39.69,3.85 81.21,9.7 125.77,13.85 2.76,0.26 5.18,1.06 8.2,1.35 8.79,0.87 17.66,1.74 26.64,2.63 6.07,0.6 11.68,1.7 18.02,2.33 6.19,0.61 12.42,1.23 18.7,1.85 6.48,0.64 12.15,1.78 18.62,2.42 52.88,5.25 109.53,12.72 169.94,18.78 7.95,0.8 15.3,2.17 23.61,3 8.12,0.82 16.32,1.65 24.58,2.48 3.99,0.4 8.59,0.45 12.54,1.26 1.91,0.39 3.38,1.01 5.82,1.24 0.82,0.08 1.61,0.25 2.33,0.38l0 -19.93zm0 -364.8c-63.95,6.82 -123.04,14.89 -179.05,20.67 -3.46,0.35 -6.16,1.23 -9.79,1.61l-30.3 3.15c-6.61,0.69 -12.44,1.87 -19.07,2.56 -6.44,0.67 -12.82,1.33 -19.15,1.98 -6.42,0.67 -12.07,1.82 -18.2,2.45 -47.32,4.89 -92.05,11.1 -134.1,15.4 -5.26,0.54 -9.87,1.52 -15.13,2.05 -5.04,0.52 -10.05,1.02 -15.02,1.53 -5.11,0.52 -9.63,1.48 -14.52,1.98 -37.64,3.82 -72.89,8.82 -106.77,12.22l0 0.46c4.21,-0.42 7.91,-0.33 12.22,-0.75 29.89,-2.98 61.44,-4.67 94.16,-7.9l44.65 -3.89c5.32,-0.52 10,-0.47 15.45,-1 5.22,-0.52 10.48,-1.03 15.78,-1.55 5.56,-0.55 10.69,-0.52 16.12,-1.05l29.36 -2.87c1.74,-0.2 2.45,0.34 4.19,0.15 23.39,-2.59 46.74,-4 71.56,-6.41 3.33,-0.32 5.76,0.02 9,-0.3l29.21 -2.82c6.84,-0.66 12.83,-0.65 19.8,-1.33 34.27,-3.3 70.01,-5.5 107.21,-9.05 29.59,-2.83 60.8,-4.61 92.41,-7.52l0 -19.79zm-49.8 954.42l-60.91 -25.12c-4.1,-1.72 -11.34,-5.61 -15.01,-6.11 -4.27,-0.58 -52.34,-21.47 -57.67,-23.71 -18.76,-7.85 -36.26,-14.59 -54.16,-22.09 -67.16,-28.14 -128.48,-52.78 -185.69,-76.79 -6.78,-2.84 -13.24,-5.05 -20.07,-7.91 -13.2,-5.55 -26.17,-10.99 -38.88,-16.33 -6.41,-2.69 -12.28,-4.67 -18.65,-7.35 -47.49,-19.96 -91.44,-37.55 -132.86,-54.99l-50.17 -20.71c-2.44,-1.03 -4.41,-1.44 -6.86,-2.48l0 0.42c37.6,15.87 77.29,33.52 120.04,51.6l60.52 26.07c2.96,1.26 6.38,2.28 9.32,3.94l37.63 16.43c13.3,5.63 26.23,11.62 39.97,17.45 57.07,24.19 118.29,51.26 185.42,79.77 8.79,3.73 17.17,7.87 26.35,11.78l55.94 23.77c9.96,4.23 19.15,8.74 29.41,13.11 14.78,6.29 29.71,12.73 44.87,19.28l31.45 0zm49.8 -1400.37c-65.93,22.81 -126.57,45.48 -183.92,65.2 -7.21,2.48 -13.54,5.24 -20.72,7.7 -6.88,2.37 -13.7,4.71 -20.48,7.04 -6.94,2.39 -12.96,5.03 -19.71,7.34 -32.1,11.01 -62.91,22.68 -92.56,32.84 -44.86,15.35 -87.91,32.14 -127.76,45.72 -4.89,1.67 -9.74,3.32 -14.57,4.97 -4.89,1.67 -9.2,3.61 -14.09,5.28 -4.7,1.6 -9.36,3.19 -13.99,4.76 -4.76,1.62 -8.9,3.51 -13.52,5.08l-20.05 6.82c-2.22,0.75 -4.04,1.84 -6.38,2.64l-19.27 6.55c-2.32,0.79 -4.14,1.86 -6.3,2.59l0 0.46c34.38,-11.66 70.11,-22.34 108.36,-35.27 2.65,-0.89 4.7,-1.09 7.22,-1.94l22.69 -7.66c5.26,-1.78 9.93,-2.85 15.33,-4.67 5.25,-1.77 10.54,-3.56 15.87,-5.35 5.56,-1.88 10.45,-3.01 16.01,-4.88 39.08,-13.17 80.53,-25.48 124.01,-40.1 45.97,-15.44 95.01,-30.12 146.78,-47.45 7.81,-2.62 14.88,-4.37 22.98,-7.07 7.9,-2.65 15.87,-5.32 23.9,-8 8.4,-2.81 15.78,-4.63 24.24,-7.46l45.94 -14.67 0 -20.47zm0 -201.85l-80.07 36.89c-9.22,4.17 -17.62,8.61 -26.41,12.58 -34.62,15.66 -67.01,30.91 -99.05,45.4 -7.77,3.52 -14.8,7.28 -22.58,10.79 -44.18,19.96 -86.07,39.98 -125.79,57.89 -6.63,2.99 -12.46,6.15 -18.96,9.09 -24.89,11.22 -48.36,22.31 -71.7,32.82 -3.06,1.37 -5.37,2.91 -8.33,4.25 -35.63,16.03 -69.48,32.22 -101.74,46.71 -4.9,2.2 -9.35,4.66 -14.28,6.87 -18.85,8.46 -36.72,16.93 -54.57,24.94l0 0.43c1.25,-0.56 1.93,-0.4 3.05,-0.91l23.41 -10.49c4.71,-2.11 8.91,-3.54 13.66,-5.67 63.11,-28.24 132.99,-57.02 210.28,-91.47 31.87,-14.2 65.45,-28.08 100.35,-43.6 7.43,-3.31 14.08,-5.69 21.61,-9.05l39.61 -17.61c2.32,-1.05 3.55,-0.96 5.7,-1.93 32.06,-14.65 64.49,-28.06 99.02,-43.39 9.07,-4.02 17.36,-7.07 26.39,-11.08l80.41 -35.05 0 -18.4zm-392.61 -9.55c-24.71,14.37 -48.08,28.42 -71.27,41.88 -146.8,85.2 -265.56,154.92 -363.88,211.91 -12.69,7.35 -24.85,14.77 -37,21.8l-96.9 56.78c40.67,-23.53 84.95,-48.8 133.9,-77.1 6.54,-3.79 12.84,-7.06 19.49,-10.91 110.28,-63.73 246.15,-141.32 418.18,-240.61l6.56 -3.75 -9.08 0zm392.61 1226.63c-45.71,-9.11 -88.97,-16.7 -130.74,-25.58 -2.55,-0.54 -4.56,-0.3 -7.41,-0.87l-52.36 -10.52c-19.36,-3.89 -37.48,-6.95 -56.04,-10.69 -35.45,-7.13 -68.7,-13.28 -101.29,-19.85 -8.03,-1.62 -15.4,-2.57 -23.09,-4.12l-44.97 -9.09c-7.38,-1.49 -14.03,-2.32 -21.29,-3.79 -27.71,-5.61 -53.8,-10.4 -79.39,-15.59l-62.58 -12.22c-2.46,-0.5 -6.32,-1.93 -8.58,-1.67 -2.79,0.31 -29.37,-5.59 -32.71,-6.27 -10.65,-2.17 -20.71,-3.78 -31.05,-5.89 -20.06,-4.09 -39.1,-7.55 -57.94,-11.39l0 0.41c4.71,0.96 9.02,2.26 13.75,3.22l29.09 5.96c5.04,1.04 9.75,2.43 14.95,3.49 20.79,4.27 41.83,9.02 64.04,13.59l68.69 14.57c1.07,0.23 1.3,0.75 2.31,0.99 12.6,3.01 25.56,5.26 38.67,7.96 13.49,2.78 26.8,6.02 40.94,8.94 28.8,5.95 58.26,12.56 89.6,19.05 8.09,1.68 15.53,3.76 23.83,5.47 59.67,12.37 123.92,26.87 193.7,41.39 39.66,8.25 81.26,17.85 124.88,26.62 1.75,0.35 3.54,1.24 4.98,1.74l0 -15.87zm0 -930.35c-1.61,0.54 -3.83,1.36 -6.88,2.27 -3.98,1.19 -7.95,2.38 -11.89,3.56 -4.07,1.21 -7.16,2.78 -11.4,4.06l-142.02 42.43c-13.55,4.04 -26,8.36 -39.06,12.25l-107.76 32.16c-11.3,3.37 -21.67,7.01 -32.64,10.28 -31.5,9.39 -61.72,18.39 -90.72,27.04 -9.54,2.83 -18.35,5.96 -27.68,8.73 -26.8,7.98 -52.59,15.66 -77.43,23.05 -8.08,2.41 -15.63,5.12 -23.6,7.49 -23.09,6.86 -45.37,13.48 -66.87,19.88 -7.02,2.09 -13.67,4.5 -20.64,6.57 -20.09,5.96 -39.52,11.74 -58.32,17.32 -6.1,1.81 -11.99,3.96 -18.08,5.76l-51.32 15.22c-2.82,0.84 -5.24,1.94 -7.99,2.75l-53.48 16.2c2.46,-0.73 4.59,-1 7.1,-1.74l54.25 -16.04c2.74,-0.81 5.26,-1.17 8.11,-2.02l61.27 -18.09c1.66,-0.48 2.83,-0.43 4.44,-0.91l74.49 -21.96c1.77,-0.53 3.19,-0.5 5.08,-1.06l38.53 -11.35c15.25,-4.49 31.01,-9.69 47.02,-13.87 1.02,-0.27 1.53,0.05 2.74,-0.32 28.05,-8.65 57.65,-16.96 88.28,-25.97 3.71,-1.1 10.62,-4.11 13.95,-3.82 1.83,0.16 104.66,-30.37 119.23,-34.83 1.72,-0.52 2.45,-0.15 4,-0.6l136.92 -40.2c3.64,-1.07 6.44,-1.28 9.87,-2.3l165.58 -48.54c3.01,-0.88 4.77,-0.9 6.89,-1.34l0 -12.1zm0 78.06c-39.88,10.3 -77.21,20.5 -113.89,29.92 -9.36,2.41 -17.67,5.16 -26.89,7.52 -51.83,13.3 -100.64,26.97 -146.68,38.76 -7.69,1.96 -14.52,4.27 -22.09,6.2 -28.72,7.34 -55.74,14.85 -82.5,21.6 -1.82,0.47 -2.89,1.29 -4.49,1.69l-33.35 8.48c-6.31,1.61 -11.89,3.54 -18.11,5.12 -74.14,18.87 -141.05,38.15 -201.48,53.43l0 0.43c4.54,-1.15 8.65,-1.75 13.29,-2.92 27.73,-6.99 56.74,-13.4 87.13,-21.03 5.39,-1.36 10.27,-2.11 15.77,-3.49 44.09,-11.06 90.84,-21.29 141.23,-33.88 33.09,-8.27 67.96,-15.9 104.34,-24.97 7.65,-1.9 14.61,-3.07 22.47,-5.03 11.64,-2.9 23.46,-5.84 35.46,-8.82 4.32,-1.08 7.75,-1.35 11.99,-2.41 33.54,-8.33 67.55,-16.18 103.89,-25.2 9.44,-2.34 18.03,-3.85 27.75,-6.25l86.16 -20.72 0 -18.44zm0 811.81c-1.87,-0.46 -4.23,-0.52 -5.93,-0.82l-29.63 -4.64c-32.11,-5.75 -63.11,-11.29 -93.06,-16.66 -6.08,-1.08 -11.29,-1.41 -17.43,-2.51 -22.79,-4.09 -44.98,-8.07 -66.61,-11.94 -21.08,-3.78 -41.16,-6.81 -61.38,-10.44 -38.72,-6.95 -74.97,-12.93 -110.23,-19.28l-84.64 -14.75c-4.02,-0.72 -7.37,-0.84 -11.28,-1.54 -57.56,-10.4 -110.08,-19 -158.95,-27.86 -21.48,-3.89 -42.35,-7.12 -62.45,-10.91 -1.39,-0.26 -2.39,-0.03 -3.86,-0.29 -10.41,-1.9 -20.62,-3.76 -30.66,-5.59 -9.96,-1.81 -19.42,-3.14 -29.08,-4.91l0 0.39c19.25,3.52 38.8,7.49 59.47,11.28l64.21 12.19c0.95,0.16 1.21,0.65 2.07,0.84 11.8,2.59 23.95,4.39 36.24,6.65 12.67,2.33 25.08,5.07 38.27,7.5 27.08,4.99 54.74,10.57 84.17,16l82.95 15.83c3.89,0.72 9.11,0.96 12.88,2.42 8.02,3.08 17.21,3.68 25.8,5.27 103.3,19.14 221.6,42.87 359.13,68.52l0 -14.74zm0 116.77c-0.85,-0.15 -1.72,-0.2 -2.31,-0.34 -2.28,-0.54 -4.14,-0.98 -5.92,-0.95 -2.46,0.06 -32.78,-7.74 -36.69,-8.69 -4.26,-1.03 -7.28,-1.11 -11.41,-2.11 -8.92,-2.17 -29,-8.02 -35.22,-8.49 -8.32,-0.63 -28.2,-6.29 -38.39,-8.73 -1.98,-0.48 -3.09,-0.1 -5.34,-0.67l-42.17 -9.63c-53.12,-12.91 -102.56,-22.69 -149.47,-34.15 -5.87,-1.44 -10.94,-2.13 -16.66,-3.54 -5.56,-1.36 -11.07,-2.7 -16.54,-4.05 -5.41,-1.32 -10.43,-2.02 -15.96,-3.38 -5.39,-1.32 -10.74,-2.59 -16.06,-3.95 -1.5,-0.38 -2.08,0.05 -3.63,-0.35l-22.91 -5.63c-1.56,-0.39 -2.43,-0.1 -3.71,-0.38l-22.3 -5.5c-2.51,-0.63 -4.51,-0.61 -7.15,-1.26 -4.79,-1.18 -9.55,-2.35 -14.28,-3.52 -4.83,-1.19 -9,-1.72 -13.79,-2.91 -27.15,-6.69 -53.29,-11.73 -78.39,-17.94l0 0.46c4.27,1.06 8.06,2.47 12.27,3.51 4.2,1.04 8.43,2.09 12.68,3.15 4.34,1.08 8.26,2.53 12.75,3.64 4.36,1.08 8.76,2.19 13.18,3.28 2.25,0.56 4.02,1.48 6.4,2.07 4.36,1.09 17.85,3.72 20.43,5.38 1.51,0.96 18.06,4.7 21.09,5.46 2.61,0.65 4.48,1.62 7.07,2.27 4.82,1.2 9.67,2.42 14.56,3.63 5.09,1.28 9.55,2.89 14.65,4.17 41,10.26 84.48,23.3 130.51,34.87 6.15,1.55 11.54,3.46 17.81,5.04 6.11,1.54 12.26,3.09 18.47,4.66 3.34,0.83 5.76,2.02 9.01,2.84 9.03,2.27 20.22,4.51 28.99,7.29l34.79 9.38c1.99,0.48 2.9,1.37 5.04,1.89 20.77,5.03 41.84,11.19 63.66,16.72 7.68,1.94 14.5,4.3 22.41,6.31 29.98,7.6 60.54,16.57 92.53,24.78l0 -24.63zm-494.97 -1302.92c-14.48,9.24 -28.68,18.24 -42.62,26.93 -2.63,1.63 -5.01,3.59 -7.79,5.33l-23.51 14.66c-5.13,3.2 -9.8,6.57 -14.94,9.77 -5.01,3.13 -9.98,6.22 -14.92,9.3 -4.96,3.09 -9.49,6.35 -14.26,9.33l-41.5 26.71c22.56,-14.04 46.02,-27.75 70.36,-42.87 5.19,-3.22 9.88,-5.68 15.1,-8.93l23.33 -14.49c2.87,-1.78 5.15,-2.73 7.96,-4.48 16.66,-10.34 33.67,-20.69 51.13,-31.25l-8.33 0zm157.24 0l-16.69 9.34c-19.34,10.83 -37.56,21.54 -55.86,31.78 -68.53,38.34 -130.53,73.96 -187.59,105.84 -6.8,3.8 -13.23,7.84 -20,11.61 -13.09,7.31 -25.9,14.46 -38.45,21.47 -6.24,3.48 -12.03,7.14 -18.21,10.59 -46.29,25.84 -88.81,50.34 -128.55,72.49l-0 0.38c4.91,-2.73 9.54,-4.94 14.46,-7.68l38.17 -21.24c2.67,-1.48 5.12,-2.45 7.91,-4 10.81,-6.02 21.84,-12.15 33.08,-18.4 11.48,-6.39 22.91,-12.33 34.94,-19.02 24.67,-13.71 49.96,-27.33 76.82,-42.25l84.36 -46.4c1.16,-0.64 1.61,-0.38 2.88,-1.1 32.01,-18.24 65.41,-35.8 100.39,-55.19 28.33,-15.71 57.37,-31.49 87.81,-48.21l-15.46 0zm337.73 173.09l-0.56 0.24 -17.05 6.89c-109.01,39.78 -205.76,76.26 -292.26,107.77 -21.72,7.91 -42.28,15.94 -62.69,23.36 -19.93,7.25 -39.33,14.32 -58.23,21.2 -4.74,1.72 -8.79,3.7 -13.5,5.41 -97.73,35.53 -182.66,67.75 -257.52,94.86 -1.63,0.59 -2.76,1.41 -4.4,2l-31 11.23c-11.5,4.17 -22.4,8.5 -33.42,12.48 -21.37,7.73 -41.56,15.42 -61.33,22.56l52.99 -18.39c2.15,-0.78 6.11,-2.93 8.03,-2.67 1.32,0.18 13.89,-4.84 16.39,-5.74 40.39,-14.56 83.78,-29.35 130.65,-46.21l77.51 -27.41c1.95,-0.7 3.91,-1.41 5.87,-2.11 2.19,-0.79 3.72,-0.87 5.92,-1.66 67.33,-24.18 141.22,-49.65 223.98,-79.3l123.62 -43.7c6.68,-2.39 12.44,-3.85 19.17,-6.26 26.44,-9.45 53.72,-19.21 81.88,-29.28 27.89,-9.97 56.09,-19.46 85.93,-30.07l0 -15.2zm0 364.85c-56.74,9.65 -109.36,19.16 -159.57,27.65 -48.39,8.19 -93.86,17 -137.34,23.78 -1.64,0.25 -2.21,0.91 -3.63,1.19 -18.83,3.71 -38.75,6.51 -56.72,9.54 -19.35,3.26 -37.6,6.85 -56.08,9.96 -35.33,5.94 -68.49,12 -100.67,17.4 -7.85,1.32 -15.04,3 -22.71,4.28 -50.85,8.52 -97.8,17.24 -141.51,24.53l-60 10.4c-2.81,0.47 -5.19,1.26 -7.98,1.72 -21.12,3.51 -41.18,7.22 -60.71,10.45l0 0.37c19.48,-3.22 39.52,-6.14 60.58,-9.62 2.67,-0.44 5.17,-0.45 7.97,-0.91 42.21,-6.94 87.58,-13.56 136.76,-21.61 7.01,-1.15 13.62,-1.78 20.69,-2.94l43.84 -7.16c7.66,-1.25 14.95,-1.97 22.88,-3.27 32.1,-5.24 65.16,-10.13 100.43,-15.86 34.54,-5.63 70.75,-10.79 108.84,-17.17 2.69,-0.45 4.83,-0.24 7.74,-0.71 88.21,-14.3 186.02,-28.93 297.16,-46.84l0 -15.17zm0 83.12l-112.94 14.11c-36,4.49 -69.69,9.3 -102.93,13.44 -31.68,3.94 -62.15,7.74 -91.5,11.4 -28.48,3.54 -55.3,7.41 -81.86,10.71 -25.41,3.15 -49.95,6.2 -73.68,9.15 -23.08,2.87 -44.95,6.06 -66.66,8.75 -20.83,2.58 -41.02,5.08 -60.6,7.51 -19.08,2.36 -37.26,5.05 -55.33,7.28 -17.39,2.15 -34.29,4.24 -50.72,6.26 -16.02,1.98 -31.39,4.28 -46.66,6.16 -83.02,10.22 -154.57,20.05 -216.84,27.65l0 0.32c85,-10.34 187.66,-21.3 314.07,-36.5 158.95,-19.12 365.76,-41.77 645.65,-75.03l0 -11.22zm0 74.58c-9.22,0.9 -17.71,2.13 -26.98,2.91 -10.09,0.85 -20.06,1.7 -29.93,2.54 -5.12,0.43 -9.32,1.43 -14.12,1.83l-42.91 3.61c-2.59,0.2 -3.95,0.99 -6.34,1.17 -10.21,0.73 -41.23,2.68 -46.67,4.41l-38.17 3.28c-4.43,0.37 -7.96,1.25 -12.18,1.6 -8.11,0.67 -16.13,1.34 -24.09,2 -8.08,0.68 -15.39,1.85 -23.13,2.49 -7.65,0.63 -15.23,1.26 -22.74,1.88 -7.67,0.64 -14.52,1.75 -22.1,2.38 -55.8,4.59 -107.9,10.94 -156.33,14.87 -6.01,0.48 -11.42,1.41 -17.21,1.87 -5.71,0.46 -11.37,0.92 -16.98,1.37 -5.66,0.46 -10.75,1.35 -16.39,1.8 -5.49,0.44 -10.94,0.87 -16.35,1.31 -2.79,0.22 -4.93,0.87 -7.68,1.09l-23.36 1.85c-1.25,0.09 -2.09,0.64 -3.5,0.75l-22.58 1.8c-0.56,0.04 -1.21,0.02 -1.76,0.14 -0.72,0.17 -0.88,0.53 -1.76,0.61l-21.39 1.68c-2.5,0.2 -4.44,0.79 -6.91,0.98 -4.62,0.37 -9.21,0.72 -13.76,1.08 -4.7,0.37 -8.9,1.14 -13.46,1.49l0 0.43c4.45,-0.35 8.94,-0.7 13.45,-1.05 4.61,-0.37 8.85,-0.26 13.6,-0.63 38.04,-2.96 78.55,-4.24 121.65,-7.53 5.78,-0.44 10.99,-0.35 16.78,-0.8 5.82,-0.44 11.68,-0.88 17.59,-1.33 5.95,-0.46 11.49,-0.38 17.65,-0.85 6.05,-0.46 12.15,-0.92 18.3,-1.39 3.2,-0.24 5.74,0.08 9.03,-0.17 8.18,-0.62 21.85,-2.59 29.04,-2.2l34.72 -2.07c1.99,-0.16 3.05,0.33 4.96,0.17l31.67 -2.37c3.74,-0.28 6.8,0.04 10.69,-0.25 7.3,-0.54 14.66,-1.09 22.09,-1.64 7.72,-0.57 14.68,-0.53 22.47,-1.11 7.72,-0.57 15.51,-1.15 23.39,-1.73 8.07,-0.59 15.67,-0.58 24.08,-1.2 66.58,-4.9 138.95,-7.76 217.57,-13.36l0 -23.72zm0 41.48l-44.25 2.83c-4.29,0.26 -12.02,-0.11 -15.8,1.26 -3.75,1.36 -45.16,3.17 -53.02,3.67l-57.01 4.14c-2.38,0.11 -4.14,0.86 -6.79,1.03l-40.19 2.47c-4.62,0.28 -8.26,1.08 -12.8,1.36l-37.73 2.31c-4.11,0.25 -7.74,1.04 -12.03,1.3 -8,0.49 -15.92,0.97 -23.76,1.45 -8.05,0.48 -15.28,1.48 -23.06,1.94 -7.54,0.46 -14.99,0.91 -22.38,1.35 -7.57,0.46 -14.33,1.39 -21.75,1.84 -7.18,0.43 -14.3,0.86 -21.33,1.28 -7.06,0.42 -13.5,1.33 -20.53,1.75 -52.01,3.11 -100.58,7.92 -145.69,10.55 -42.24,2.46 -82.02,6.52 -119.23,8.63l0 0.42c9.06,-0.51 18.08,-0.6 27.54,-1.13 4.86,-0.28 9.3,-0.09 14.18,-0.36 4.9,-0.27 9.83,-0.55 14.82,-0.83 5.08,-0.28 9.7,-0.1 14.86,-0.39 5.15,-0.28 10.32,-0.57 15.56,-0.86 5.28,-0.3 10.16,-0.11 15.6,-0.41 5.4,-0.3 10.84,-0.6 16.34,-0.9 5.44,-0.3 10.71,-0.12 16.4,-0.43 5.68,-0.31 11.41,-0.63 17.18,-0.94 3.01,-0.17 5.38,0.17 8.4,0.01l26.97 -1.47c2.98,-0.16 5.67,0.19 8.85,0.01l28.44 -1.55c1.54,-0.1 2.76,0.37 4.55,0.27 4.87,-0.27 32.74,-2.29 34.72,-1.65 3.07,0.98 31.54,-1.93 38.85,-1.8 1.13,0.02 1.35,0.48 2.62,0.43l38.5 -2.06c1.95,-0.13 3.4,0.37 5.59,0.25l34.92 -1.84c4.23,-0.22 7.59,0.16 11.83,-0.06l37.11 -1.94c4.24,-0.22 8.05,0.16 12.58,-0.07 8.59,-0.45 17.27,-0.9 26.04,-1.35 9.19,-0.48 17.64,-0.33 26.87,-0.8 9.16,-0.47 18.42,-0.95 27.77,-1.44 9.79,-0.5 18.7,-0.35 28.69,-0.86 9.78,-0.5 19.67,-1.01 29.67,-1.52 10.36,-0.53 19.97,-0.39 30.71,-0.93 20.25,-1.03 40.32,-1.47 61.18,-2.46l0 -22.47zm0 42.93c-54.35,2.17 -104.79,4.77 -153.18,6.67 -46.29,1.81 -90.87,4.7 -132.42,6.3 -39.96,1.54 -77.34,3.52 -113.6,4.89 -4.32,0.17 -8.37,0.83 -12.85,1l-37.83 1.43c-8.3,0.31 -15.97,1.1 -23.95,1.4l-88.86 3.78c-7.03,0.27 -13.45,0.96 -20.31,1.21 -26.47,0.97 -51.41,2.33 -75.82,3.21 -5.98,0.22 -11.51,0.84 -17.43,1.05 -36.33,1.31 -70.52,3.33 -102.71,4.47 -2.55,0.08 -4.7,0.54 -7.18,0.63l0 0.39c19.49,-0.67 39.32,-0.96 60.24,-1.68 21.42,-0.74 44.07,-0.67 67.23,-1.45 49.54,-1.66 103.12,-2.07 161.7,-3.97l72.29 -1.84c8.66,-0.28 16.93,-0.03 25.91,-0.31 36.23,-1.15 73.6,-1.79 113.66,-3.05 5.35,-0.17 9.9,0.25 15.21,0.08 76.31,-2.37 160.32,-3.73 253.24,-6.56 3.87,-0.12 6.47,0.47 10.19,0.35 1.83,-0.05 3.66,-0.11 5.49,-0.16 0.3,-0 0.64,0.02 0.99,0.05l0 -17.89zm0 160.96c-106.06,-4.93 -200.14,-7.61 -285.25,-11.69 -2.78,-0.13 -4.83,0.35 -7.37,0.21l-51.34 -2.49c-9.41,-0.45 -18.29,-0.35 -27.64,-0.8 -9.06,-0.44 -18.02,-0.88 -26.86,-1.31 -8.92,-0.43 -17.08,-0.32 -25.71,-0.74 -64.54,-3.16 -123.67,-4.66 -177.79,-7.37 -6.54,-0.33 -12.62,-0.19 -19.11,-0.52 -6.29,-0.32 -12.52,-0.64 -18.68,-0.95 -6.22,-0.31 -11.98,-0.17 -17.98,-0.47 -45.8,-2.32 -87.95,-3.28 -127.42,-5.32l0 0.38c4.8,0.25 9.31,0.87 14.24,1.13 35.15,1.84 72.81,5.06 112.89,7.21l55.9 3.44c6.66,0.36 12.88,1.14 19.69,1.51l30.98 1.68c3.57,0.2 6.77,0.84 10.49,1.04l38.72 2.11c2.09,0.11 3.52,0.69 5.53,0.79 64.09,3.32 133.93,8.95 211.45,13.3 84.55,4.74 179.69,12.52 285.26,18.63l0 -19.79zm-293.71 670.76c-72.25,-34.76 -137.7,-64.97 -198.13,-94.27 -2.05,-0.99 -3.37,-1.14 -5.39,-2.13l-38.47 -18.64c-3.7,-1.8 -6.8,-2.83 -10.4,-4.57 -10.41,-5.05 -20.65,-10.02 -30.74,-14.9 -6.72,-3.26 -12.91,-5.81 -19.55,-9.03 -6.43,-3.13 -12.81,-6.22 -19.12,-9.28 -6.37,-3.09 -12.22,-5.5 -18.4,-8.49 -41.13,-19.98 -79.73,-37.5 -115.75,-55.03 -10.05,-4.89 -19.57,-9.14 -29.21,-13.83l44.28 22.36c5.3,2.58 10.23,5.39 15.62,8.02 5.3,2.59 10.65,5.2 16.06,7.84 5.55,2.7 10.83,5.7 16.37,8.41l25.67 12.54c3.1,1.51 5.77,3.25 8.81,4.73 49.34,24.11 102.38,51.44 160.59,79.95 7.69,3.77 15,7.84 22.95,11.74 7.89,3.86 15.87,7.78 23.94,11.73 8.33,4.08 16.11,8.4 24.56,12.55 32.01,15.7 65.57,32.62 100.71,50.31l25.61 0zm13.04 -1611.77l-35.34 19.07c-4.85,2.62 -9.04,5.41 -13.64,7.9l-40.2 21.68c-4.61,2.49 -8.49,5.11 -12.93,7.5l-37.49 20.2c-4.3,2.32 -7.88,4.76 -12.08,7.02 -11.88,6.4 -23.56,12.69 -35.05,18.88 -4,2.15 -7.33,4.43 -11.3,6.57 -11.13,5.99 -22.07,11.88 -32.84,17.67 -3.67,1.97 -6.75,4.11 -10.43,6.09l-30.84 16.59c-3.44,1.85 -6.45,3.93 -9.97,5.82 -6.56,3.53 -13.06,7.02 -19.49,10.47 -6.48,3.48 -12.56,7.2 -18.76,10.54 -6.18,3.32 -12.3,6.61 -18.36,9.86 -6.17,3.31 -11.91,6.84 -17.84,10.02 -5.83,3.13 -11.61,6.24 -17.33,9.31 -5.78,3.1 -11.13,6.39 -16.71,9.39 -5.52,2.96 -10.98,5.89 -16.39,8.79 -5.52,2.96 -10.61,6.1 -15.95,8.97 -5.22,2.8 -10.39,5.57 -15.52,8.32 -5.24,2.8 -10.02,5.78 -15.11,8.5 -4.95,2.65 -9.86,5.28 -14.72,7.88 -4.96,2.66 -9.49,5.48 -14.34,8.07l0 0.39c4.74,-2.54 9.52,-5.09 14.34,-7.67 4.96,-2.65 9.56,-4.71 14.59,-7.4 4.99,-2.67 10.02,-5.36 15.1,-8.07 5.27,-2.82 10.16,-5.03 15.52,-7.89 5.26,-2.82 10.58,-5.65 15.94,-8.52 5.51,-2.94 10.63,-5.26 16.24,-8.25 5.56,-2.97 11.18,-5.97 16.85,-9 5.86,-3.13 11.32,-5.61 17.33,-8.82 5.89,-3.15 11.83,-6.31 17.83,-9.52 6.13,-3.27 11.89,-5.9 18.21,-9.26 6.24,-3.33 12.54,-6.69 18.91,-10.08 6.54,-3.48 12.72,-6.32 19.48,-9.93 6.63,-3.54 13.32,-7.1 20.08,-10.7 6.93,-3.69 13.54,-6.74 20.72,-10.57 58.4,-31.11 122.36,-63.09 192.03,-100.09 24.43,-12.98 49.71,-26.16 75.86,-39.72l-26.4 0zm280.68 1509.61c-67.61,-23.79 -129.77,-45.08 -188.57,-65.8 -7.26,-2.56 -13.63,-4.22 -20.87,-6.78l-168.98 -59.08c-11.23,-3.97 -21.87,-7.2 -32.92,-11.11l-57.99 -20.51c-1.52,-0.55 -2.19,-0.24 -3.65,-0.79 -56.64,-20.87 -108.98,-37.67 -157.21,-54.76 -7.69,-2.73 -15.28,-5.42 -22.78,-8.08 -7.56,-2.68 -14.69,-4.78 -21.96,-7.36 -28.26,-10.03 -54.82,-19.06 -80.52,-28.19l-53.49 -18.63c-5.67,-2.01 -11.07,-3.56 -16.7,-5.57 -21.59,-7.69 -42.01,-14.61 -61.91,-21.69l0 0.34c4.94,1.76 9.62,3.78 14.65,5.58 36.35,12.98 75.33,27.65 117.57,42.76 3.19,1.14 6.04,2.56 9.32,3.73l93.03 33.74c7.56,2.7 14.93,5.78 22.78,8.61l45.32 16.25c1.17,0.41 1.79,1.12 3.08,1.57 52.3,18.24 108.96,40.12 170.65,62.32 10.88,3.92 21.93,7.89 33.14,11.93 11.56,4.16 22.71,8.7 34.47,12.94 48.87,17.6 100.19,36.67 155.77,56.71l152.12 55.5c4.34,1.56 8,3.54 12.67,5.23l19.69 7.11c1.18,0.43 2.32,1.02 3.28,1.39l0 -17.36zm0 -1054.13c-123.65,26.47 -231.54,51.24 -327.13,71.57 -54.59,11.61 -105.64,23.48 -153.14,33.56 -9.32,1.97 -18,4.29 -26.96,6.19l-51.2 10.9c-3.53,1.83 -42.84,9.45 -47.2,10.37 -7.65,1.62 -14.8,3.57 -22.34,5.16 -88.58,18.69 -165.39,36.79 -232.46,50.82l-0 0.35c24.71,-5.16 50.78,-9.86 78.12,-15.55 5.76,-1.2 11.26,-1.96 17.06,-3.16 8.79,-1.83 17.73,-3.69 26.81,-5.57 2.78,-0.58 6.53,-2.04 9.22,-1.89 3.45,0.19 14.36,-2.6 18.67,-3.5 6.44,-1.33 12.96,-2.69 19.56,-4.06 6.73,-1.39 13.15,-2.31 20.09,-3.74 96.01,-19.88 209.01,-40.8 343.52,-68.41 46.56,-9.56 96.67,-18.69 149.36,-29.47 55.63,-11.38 114.31,-22.77 178.01,-35.75l0 -17.82zm0 890.55c-114.77,-30.31 -215.47,-55.2 -305.83,-79.17 -10.7,-2.84 -20.77,-4.97 -31.34,-7.78 -10.24,-2.72 -20.35,-5.41 -30.33,-8.06 -10.01,-2.66 -19.19,-4.57 -28.93,-7.17 -9.54,-2.54 -18.95,-5.04 -28.25,-7.52 -9.25,-2.46 -17.9,-4.26 -26.78,-6.63l-75.38 -19.61c-60.18,-16.05 -115.55,-29.09 -165.93,-42.6 -6.04,-1.62 -12.01,-3.22 -17.92,-4.81 -5.91,-1.58 -11.41,-2.65 -17.25,-4.22 -5.68,-1.53 -11.3,-3.04 -16.87,-4.54 -5.65,-1.52 -10.87,-2.52 -16.37,-4 -8.01,-2.15 -15.9,-4.28 -23.68,-6.37 -2.62,-0.7 -4.99,-0.96 -7.67,-1.69 -7.56,-2.04 -15.01,-4.04 -22.36,-6.02 -2.56,-0.69 -4.8,-0.92 -7.25,-1.58l0 0.37c39.97,10.79 82.78,23.55 129.5,36.2 6.06,1.65 12.04,3.68 18.35,5.39 6.29,1.71 12.65,3.43 19.08,5.18 6.58,1.79 12.79,3.91 19.55,5.74 6.76,1.83 13.59,3.69 20.51,5.57 7.07,1.92 13.74,4.19 20.88,6.12 51.91,14.13 108.41,30.95 169.79,47.72 47.36,12.93 97.9,27.84 152.04,42.66 11.39,3.12 22.45,6.71 34.35,9.98 11.79,3.23 23.74,6.51 35.87,9.83 12.6,3.46 24.49,7.32 37.48,10.89 12.87,3.53 25.94,7.13 39.22,10.76 13.83,3.8 27.02,8.05 41.07,11.91 5.22,1.44 72.86,19.28 76.72,21.46 1.79,1.02 3.8,1.32 5.68,1.84 0.55,0.15 1.3,0.51 2.04,0.77l0 -20.65zm0 38.91l-38.77 -11.05c-13.75,-3.93 -26.3,-6.87 -39.71,-10.7 -98.12,-28.01 -186.02,-50.85 -265.16,-73.56 -18.69,-5.36 -36.55,-9.96 -54.52,-15.13 -8.92,-2.57 -17.07,-4.39 -25.71,-6.87 -8.45,-2.43 -16.78,-4.83 -25.03,-7.2 -8.22,-2.36 -15.85,-4.07 -23.98,-6.41 -7.88,-2.27 -15.67,-4.51 -23.37,-6.73 -3.91,-1.12 -7.17,-1.58 -11.02,-2.69l-33.08 -9.54c-1.89,-0.55 -3.21,-0.46 -5.18,-1.03l-33.72 -9.74c-1.09,-0.33 -1.55,-0.05 -2.44,-0.23 -8.99,-1.85 -20.28,-5.88 -29.44,-8.53 -3.34,-0.96 -6.22,-1.35 -9.41,-2.28 -6.3,-1.82 -12.53,-3.62 -18.7,-5.41 -6.21,-1.8 -12.02,-3.06 -18,-4.79 -5.89,-1.7 -11.71,-3.39 -17.48,-5.06 -5.87,-1.7 -11.23,-2.83 -16.98,-4.5 -32.7,-9.49 -63.58,-17.27 -92.82,-25.79l0 0.38c19.31,5.63 39.23,12.23 60.03,18.32 5.41,1.57 10.47,3.46 15.9,5.05 5.49,1.61 11.03,3.23 16.62,4.87 5.72,1.67 11.09,3.67 16.97,5.39 5.82,1.7 11.69,3.42 17.61,5.16 3.07,0.9 5.69,2.1 8.71,2.99l27.83 8.16c1.74,0.51 2.92,1.3 4.61,1.79 5.1,1.48 31.78,8.73 34.25,10.39 1.67,1.13 26.82,8.01 30.96,9.22 3.67,1.08 6.96,2.52 10.49,3.56l33.08 9.73c3.78,1.11 7.23,2.61 11.2,3.78 7.64,2.25 15.37,4.53 23.18,6.83 8.12,2.39 15.7,5.13 23.97,7.57 8.24,2.43 16.58,4.89 25.02,7.38 8.57,2.53 16.8,5.47 25.71,8.1 73.4,21.69 154.65,47.99 244.84,74.76 12.3,3.65 23.96,7.73 36.41,11.43 12.58,3.74 25.35,7.53 38.3,11.38 13.35,3.97 25.9,8.33 39.7,12.44l39.13 11.64 0 -23.09zm0 -322.55c-127.39,-14.25 -237.76,-24.91 -335.55,-35.97 -5.96,-0.67 -11.2,-0.73 -16.93,-1.39 -16.78,-1.9 -33.21,-3.76 -49.26,-5.59 -10.63,-1.2 -20.5,-1.81 -30.89,-3 -10.07,-1.15 -20.01,-2.27 -29.8,-3.39 -9.82,-1.11 -18.93,-1.67 -28.4,-2.75 -62.23,-7.11 -119.18,-12.28 -171.27,-18.28 -34.69,-4 -67.41,-6.96 -98.35,-10.54 -6.03,-0.7 -11.71,-0.98 -17.67,-1.67 -5.8,-0.68 -11.55,-1.35 -17.23,-2 -5.75,-0.67 -11.09,-0.92 -16.69,-1.57 -5.45,-0.64 -10.84,-1.26 -16.18,-1.89 -5.35,-0.62 -10.44,-0.85 -15.58,-1.45l-22.66 -2.65c-2.57,-0.3 -4.86,-0.22 -7.33,-0.51l0 0.35c40.47,4.76 84.07,11.04 131.86,16.7 6.26,0.74 12.38,1.87 18.88,2.64 6.48,0.77 13.04,1.55 19.67,2.34 6.8,0.81 13.25,2 20.21,2.83 6.99,0.83 14.06,1.69 21.22,2.54 7.3,0.87 14.31,2.14 21.7,3.03l70.57 8.91c69.69,8.38 147.81,19.8 234.83,30.38 11.67,1.42 23.52,2.86 35.55,4.32 12.34,1.5 24.17,3.5 36.98,5.06 12.81,1.56 25.82,3.15 39.05,4.76 13.76,1.67 26.89,3.87 41,5.59 21.28,2.6 43.11,5.28 65.5,8.01 7.72,0.94 14.67,2.43 22.67,3.41l94.11 12.24 0 -20.49zm0 82.25c-0.96,-0.08 -2.21,-0.15 -3.83,-0.4 -6.25,-0.98 -18.99,-3.46 -23.75,-3.16 -3.28,0.2 -88.58,-13.78 -90.49,-14.08 -37.56,-5.89 -72.7,-10.8 -107.14,-16.2 -64.77,-10.17 -123.99,-18.93 -179.56,-27.67 -13.23,-2.08 -25.73,-3.54 -38.6,-5.57 -83.28,-13.13 -157.16,-23.89 -223.48,-34.4 -4.54,-0.71 -8.68,-0.96 -13.05,-1.65 -62.33,-9.89 -118.29,-18.02 -169.07,-26.12 -3.25,-0.52 -6.17,-0.63 -9.39,-1.14 -45.32,-7.25 -86.65,-13.2 -124.66,-19.3l0 0.31c1.28,0.21 2.3,0.69 3.54,0.89l26.47 4.26c32.17,5.19 66.72,11.75 103.94,17.48 0.9,0.14 1.39,0.6 2.25,0.72 25.68,3.71 52.8,8.95 81.29,13.58l96.99 16.19c0.78,0.13 0.91,0.48 1.55,0.69 4.2,1.36 9.15,1.49 13.49,2.2l42.81 6.99c10.05,1.65 19.83,3.69 30.1,5.37l165.77 27.66c3.54,0.57 6.37,1.56 9.84,2.13 55.54,9.13 114.85,19.43 179.5,30.08 65.48,10.79 136.38,23.65 213.44,35.83 3.04,0.48 4.74,1.46 7.85,1.96 1.41,0.23 2.92,0.7 4.19,0.93l0 -17.58zm0 322.54c-0.94,-0.27 -2.05,-0.47 -3.2,-0.85l-98.45 -31.8c-16.71,-5.52 -32.17,-10 -48.19,-15.29 -116.93,-38.6 -219.06,-70.73 -308.78,-100.45 -10.57,-3.5 -20.61,-6.33 -31,-9.78 -10.02,-3.33 -19.91,-6.6 -29.65,-9.83 -9.75,-3.23 -18.81,-5.76 -28.22,-8.89 -13.76,-4.56 -27.23,-9.03 -40.43,-13.42 -4.53,-1.5 -8.5,-2.37 -12.93,-3.84 -64.84,-21.54 -123.01,-39.67 -176.06,-57.34 -6.38,-2.13 -12.32,-3.73 -18.51,-5.8 -41.01,-13.69 -79.1,-25.35 -114.34,-37.14l0 0.34c4.89,1.64 9.83,3.3 14.82,4.97 5.06,1.7 9.98,3.69 15.2,5.44 5.2,1.74 10.46,3.5 15.78,5.29 5.45,1.83 10.67,3.94 16.19,5.8 8.35,2.8 16.83,5.65 25.46,8.55 3.01,1.01 5.67,2.28 8.66,3.28l27.22 9.16c2.62,0.87 7.02,1.6 9.31,3.41 1.04,0.82 38.18,12.95 39.23,13.3 3.43,1.15 6.59,2.62 10.13,3.81l31.93 10.76c7.38,2.48 14.52,5.31 22.16,7.89 7.63,2.57 15.34,5.17 23.17,7.81 8.04,2.71 15.76,5.75 23.94,8.51 69.01,23.3 146.31,50.86 233.21,80.29 11.8,4 23.25,8.41 35.54,12.57 103.11,34.95 220.74,76.64 357.78,123.26l0 -19.99zm-68.29 -1467.19c-102.71,49.44 -194.35,94.54 -276.26,133.4 -88.95,42.2 -168.32,81.77 -239.12,115.26 -63.73,30.15 -121.6,59.17 -174.05,83.9 -47.93,22.61 -92.01,44.83 -132.45,63.84l0 0.35c40.39,-18.98 84.44,-38.18 132.32,-60.62 52.43,-24.56 110.28,-49.93 174,-79.69 70.77,-33.06 150.11,-68.08 239.04,-109.49 93.66,-43.61 200.03,-91.01 321.17,-146.96l-44.66 0zm-292.57 1611.77l-3.65 -1.85c-92.25,-46.56 -174.18,-86.04 -246.69,-122.73 -8.54,-4.33 -16.96,-8.59 -25.28,-12.8 -8.3,-4.2 -16.04,-7.68 -24.13,-11.78 -7.89,-3.99 -15.66,-7.93 -23.34,-11.82 -7.73,-3.92 -14.99,-7.19 -22.45,-10.97 -10.91,-5.52 -21.61,-10.95 -32.12,-16.28 -3.56,-1.8 -6.68,-2.99 -10.19,-4.76 -11.82,-5.99 -23.39,-11.86 -34.72,-17.61 -1.73,-0.87 -3.04,-1.17 -4.72,-2.01 -48.5,-24.62 -92.54,-45.93 -133.2,-66.6l0 0.33c4.93,2.51 9.67,5.26 14.74,7.84 5.04,2.57 10.15,5.17 15.3,7.79 5.29,2.69 10.33,5.61 15.7,8.35 27.46,14 56.47,29.52 87.23,45.22 39.22,20.02 81.67,42.91 127.18,66.19 7.98,4.08 16.06,8.21 24.26,12.4 8.37,4.28 16.55,8.91 25.25,13.36 8.65,4.43 17.43,8.92 26.32,13.47 9.15,4.68 17.89,9.61 27.28,14.43 9.41,4.82 18.96,9.71 28.65,14.67 9.96,5.11 19.62,10.54 29.75,15.72 15.47,7.93 31.3,16.04 47.5,24.34 5.66,2.9 10.69,5.98 16.38,8.9l51.1 26.21 23.84 0zm360.86 -346.88c-128.45,-28.32 -240.64,-51.41 -338.95,-73.21 -13.33,-2.95 -25.85,-5.2 -38.84,-8.08 -94.82,-21.07 -177.88,-38.12 -251.96,-54.66 -4.28,-0.96 -8.32,-1.42 -12.69,-2.4l-37.38 -8.35c-7.96,-1.78 -15.56,-3.07 -23.41,-4.83 -7.69,-1.72 -15.27,-3.41 -22.76,-5.09 -7.45,-1.67 -14.4,-2.83 -21.63,-4.45l-60.78 -13.26c-36.8,-8.27 -71.32,-14.98 -103.36,-22.21 -5.18,-1.17 -10.3,-2.33 -15.37,-3.47 -5.07,-1.14 -9.82,-1.89 -14.79,-3.01l0 0.33c40.65,9.2 84.81,20.27 133.51,31.35 3.26,0.74 6.17,1.78 9.46,2.53 9.86,2.24 19.91,4.53 30.13,6.86 6.96,1.58 13.65,3.5 20.81,5.13 7.2,1.65 14.49,3.31 21.87,5 7.54,1.72 14.85,3.8 22.48,5.54 65.01,14.86 137.85,32.87 219.78,51.69 11.09,2.54 21.89,5.52 33.43,8.17 11.58,2.67 23.34,5.37 35.3,8.12 12.33,2.84 24.23,6.1 36.88,9.01 107.96,24.86 232.17,55.27 378.24,89.08l0 -19.79zm0 -1013.91c-136.71,44.28 -254.93,84.76 -357.69,117.87 -91.31,29.41 -172.33,57.4 -244.37,80.51 -64.68,20.74 -123.19,41.12 -176.1,58.02 -48.25,15.41 -92.5,30.94 -133.02,43.82l0 0.34c40.49,-12.86 84.69,-25.43 132.9,-40.67 52.91,-16.73 111.37,-33.51 176.05,-53.87 72.01,-22.67 153.01,-46.15 244.29,-74.76 102.81,-32.21 221.09,-66.87 357.94,-109.51l0 -21.76zm-217.62 -250.98c-48.41,25.61 -93.95,49.63 -136.86,71.88 -12.2,6.32 -23.55,12.72 -35.27,18.8 -11.46,5.94 -22.76,11.79 -33.87,17.54 -11.04,5.72 -21.36,11.57 -32.15,17.15 -10.46,5.42 -20.77,10.75 -30.93,16.02 -5.15,2.67 -9.7,5.5 -14.68,8.08l-43.09 22.3c-2.47,1.27 -4.34,2.7 -6.69,3.91l-33.6 17.37c-3.67,1.91 -9.75,4.16 -12.88,6.99 -1.38,1.24 -38.8,20.17 -43.07,22.37 -2.04,1.06 -3.75,2.37 -5.9,3.48l-34.37 17.74c-3.76,1.94 -7.19,4.12 -10.99,6.08 -7.25,3.74 -14.41,7.43 -21.49,11.09 -7.1,3.66 -13.7,7.47 -20.6,11.03 -6.74,3.47 -13.41,6.91 -19.99,10.3 -6.57,3.39 -12.8,6.98 -19.3,10.33 -48.25,24.86 -92.29,48.97 -132.87,69.81l0 0.34c4.97,-2.55 9.75,-4.67 14.75,-7.24 5.05,-2.59 10.15,-5.21 15.31,-7.85 5.28,-2.7 10.3,-4.93 15.7,-7.7 5.38,-2.76 10.82,-5.54 16.31,-8.36 5.54,-2.84 11,-5.27 16.74,-8.22 5.74,-2.94 11.54,-5.91 17.41,-8.92 2.96,-1.52 5.69,-2.54 8.76,-4.12 3.03,-1.55 6.07,-3.11 9.13,-4.67 6.09,-3.12 12.55,-7.05 18.75,-9.61l34 -17c1.84,-0.94 3.22,-1.25 5.03,-2.18l31.3 -16c3.7,-1.9 7,-3.17 10.77,-5.09 7.34,-3.75 14.77,-7.55 22.3,-11.4 7.74,-3.96 15.15,-7.31 23.02,-11.33 7.93,-4.04 15.96,-8.15 24.09,-12.29 8.36,-4.28 16.41,-7.94 25.06,-12.35 71.89,-36.69 152.39,-75.75 243.26,-121.98 24.59,-12.52 49.65,-24.71 76.11,-38.17 13.68,-6.96 26.77,-13.04 40.88,-20.21 14.19,-7.2 28.63,-14.54 43.32,-22.01 3.97,-2.02 7.92,-3.98 11.86,-5.92l-35.3 0zm217.62 1547.2l-95.87 -35.69c-10.46,-3.89 -20.05,-6.85 -30.44,-10.72 -19.81,-7.39 -39.18,-14.6 -58.12,-21.66 -18.74,-6.98 -36.23,-12.93 -54.09,-19.58 -17.35,-6.47 -34.33,-12.81 -50.95,-19.01 -16.4,-6.11 -31.81,-11.31 -47.63,-17.22 -87.5,-32.67 -165.41,-60.31 -235.34,-86.49 -42.77,-16.02 -82.69,-30.11 -120.28,-44.21 -9.13,-3.42 -17.78,-6.26 -26.55,-9.56 -8.63,-3.24 -17.12,-6.43 -25.49,-9.57 -8.34,-3.13 -16.17,-5.67 -24.27,-8.72 -7.93,-2.98 -15.75,-5.92 -23.46,-8.82 -7.57,-2.84 -14.82,-5.2 -22.26,-8 -7.25,-2.73 -14.4,-5.42 -21.45,-8.07 -3.54,-1.33 -6.73,-2.18 -10.25,-3.5l-30.13 -11.35c-1.64,-0.62 -3.02,-0.79 -4.7,-1.43l-31.36 -11.83c-0.52,-0.19 -0.61,0.07 -1.07,-0.04 -2.91,-0.77 -5.96,-2.26 -8.85,-3.36l-17.39 -6.56c-2.89,-1.09 -5.59,-1.78 -8.37,-2.83l-24.3 -9.18c-2.67,-1 -5.12,-1.62 -7.8,-2.63 -5.15,-1.94 -10.23,-3.87 -15.26,-5.77 -5.05,-1.91 -9.82,-3.41 -14.74,-5.27l0 0.3c4.86,1.84 9.77,3.7 14.74,5.58 5.06,1.92 9.98,4.09 15.18,6.06 32.14,12.18 66.67,26.28 103.93,40.44 26.54,10.09 54.46,21.44 84.09,32.72 7.75,2.94 15.33,6.22 23.22,9.23 8,3.05 16.13,6.15 24.38,9.29 8.46,3.23 16.64,6.75 25.35,10.07 8.8,3.36 17.74,6.77 26.8,10.23 9.19,3.5 18.24,7.38 27.81,11.03 9.62,3.67 19.39,7.4 29.31,11.19 5.11,1.95 9.77,4.17 14.97,6.16l48.18 18.41c2.82,1.08 5.2,2.45 8.14,3.57l59.3 22.67c1.06,0.41 1.25,0.92 2.18,1.35 6.03,2.78 12.44,4.74 18.61,7.11 12.81,4.91 25.87,9.91 39.17,15 6.87,2.63 13.41,5.64 20.22,8.26l64.52 24.72c7.66,2.93 14.81,6.21 22.73,9.25 15.62,5.99 31.57,12.11 47.84,18.35 16.91,6.49 33.4,13.38 50.93,20.11 17.72,6.81 35.84,13.76 54.35,20.87 19.09,7.33 37.77,15.11 57.82,22.82 40.57,15.59 82.35,32.26 126.64,49.32l0 -23.08zm0 -448.54c-23.99,-3.1 -46.5,-5.47 -69.26,-8.47 -23,-3.04 -45.42,-5.99 -67.27,-8.87 -5.43,-0.72 -10.01,-0.71 -15.53,-1.44 -113.92,-15.06 -213.38,-26.61 -301.38,-38.34 -7.23,-0.96 -13.82,-1.35 -20.96,-2.31 -13.82,-1.85 -27.37,-3.66 -40.65,-5.43 -6.72,-0.89 -12.8,-1.24 -19.36,-2.11 -49.35,-6.61 -94.83,-11.83 -137.48,-17.58l-51.55 -6.54c-2.48,-0.33 -4.5,-0.21 -6.91,-0.53 -36.05,-4.88 -69.58,-8.67 -101.36,-13l-38.87 -4.94c-1.63,-0.23 -3.79,-0.96 -5.34,-0.71 -3.26,0.53 -6.95,-0.62 -10.33,-1.08 -36.56,-5 -70.42,-8.67 -102.01,-13.03 -1.43,-0.19 -2.63,-0.05 -4,-0.24l-20.19 -2.79c-2.62,-0.36 -5.11,-0.41 -7.75,-0.78 -10.23,-1.42 -20.04,-2.48 -29.76,-3.83l0 0.29c9.69,1.35 19.48,3 29.69,4.43 2.63,0.36 5.04,1 7.68,1.37l16.07 2.25c2.8,0.39 5.4,1.06 8.19,1.45 22.8,3.2 46.61,7.2 71.92,10.77l37.78 5.67c1,0.15 1.61,0.58 2.6,0.72 44.21,6.07 92.51,14.46 145.67,21.85 1.27,0.18 2.04,0.7 3.32,0.87 37.37,5.21 77.29,11.93 119.97,18.07 23.29,3.35 47.24,7.26 72.48,10.89 6.41,0.93 12.51,2.28 19.17,3.24l40.82 5.9c7.16,1.04 13.8,2.5 21.15,3.56 60.1,8.72 124.96,19.2 196.45,29.61l104.35 15.81c5.44,0.79 10.13,2.08 15.81,2.91 21.85,3.2 44.26,6.48 67.25,9.84 22.8,3.33 45.51,7.26 69.62,10.84l0 -28.36z"/>
 </g>
</svg>
