<?xml version="1.0" encoding="UTF-8"?>
<!DOCTYPE svg PUBLIC "-//W3C//DTD SVG 1.1//EN" "http://www.w3.org/Graphics/SVG/1.1/DTD/svg11.dtd">
<!-- Creator: CorelDRAW 2021 (64-Bit) -->
<svg xmlns="http://www.w3.org/2000/svg" xml:space="preserve" width="4.83326in" height="1.10005in" version="1.1" style="shape-rendering:geometricPrecision; text-rendering:geometricPrecision; image-rendering:optimizeQuality; fill-rule:evenodd; clip-rule:evenodd"
viewBox="0 0 4833.34 1100.07"
 xmlns:xlink="http://www.w3.org/1999/xlink"
 xmlns:xodm="http://www.corel.com/coreldraw/odm/2003">
 <defs>
  <style type="text/css">
   <![CDATA[
    .fil0 {fill:#E7E7E7}
    .fil1 {fill:#E7E7E7}
   ]]>
  </style>
 </defs>
 <g id="Layer_x0020_1">
  <metadata id="CorelCorpID_0Corel-Layer"/>
  <path class="fil0" d="M0.69 720.15l-0.03 18.5 123.57 -13.24c4.51,-0.46 12.57,-0.63 16.58,-1.83 4.42,-1.31 56.71,-6.16 62.29,-6.73 20.13,-2.07 38.93,-4.41 58.12,-6.38 36.8,-3.79 71.21,-7.7 104.82,-11.15l69.83 -7.52c7.35,-0.75 14.96,-1.15 22.11,-2.25 1,-0.15 1.2,-0.48 2.34,-0.6l39.32 -4.01c13.61,-1.39 26.38,-3.02 39.45,-4.35 25.23,-2.57 49.01,-5.3 72.41,-7.68 22.35,-2.28 43.92,-5.01 64.89,-6.89 1.23,-0.11 2.25,-0.52 3.63,-0.66l26.36 -2.67c9.81,-0.99 19.04,-2.2 28.5,-3.16 35.97,-3.63 69.45,-7.7 101.22,-10.72 1.02,-0.1 1.66,-0.42 2.72,-0.52 28.79,-2.85 55.99,-6.09 81.73,-8.65 6.49,-0.65 12.63,-1.48 18.92,-2.11 6.19,-0.62 12.31,-1.23 18.34,-1.83 0.81,-0.08 1.36,-0.37 2.11,-0.43 10.99,-0.94 21.8,-2.37 32.23,-3.41 21.6,-2.14 42,-4.56 61.61,-6.5l0 -0.19c-1.18,0.11 -2.27,0.02 -3.52,0.15 -18.45,1.81 -37.73,3.29 -57.93,5.26 -5.62,0.55 -11.08,0.87 -16.8,1.43 -5.8,0.56 -11.67,1.13 -17.62,1.71 -1.52,0.15 -2.83,0.06 -4.41,0.21 -36.09,3.5 -75.04,6.57 -117.48,10.67 -2,0.19 -3.65,0.1 -5.69,0.3 -30.02,2.89 -61.81,5.41 -95.55,8.64 -9.44,0.9 -18.7,1.51 -28.38,2.43 -9.87,0.94 -19.91,1.9 -30.12,2.87 -2.69,0.26 -4.9,0.18 -7.6,0.43 -63,6 -132.8,11.68 -211.07,19.08 -3.8,0.36 -6.94,0.31 -10.68,0.66 -89.49,8.43 -190.67,16.8 -306.89,27.66 -5.69,0.53 -10.56,0.56 -16.08,1.08l-114.69 10.25c-1.59,0.15 -3.19,0.31 -4.8,0.44 -1.64,0.13 -3.78,-0.31 -3.78,1.71zm1.04 -567.73c7.52,1.59 13.86,2.49 21.1,4.02 5.76,1.22 16.07,4.16 21.1,4.21 4.85,0.04 15.28,3.05 20.67,4.19 6.92,1.46 13,2.33 20.02,3.82 13.43,2.85 25.86,5.05 39.04,7.86 3.42,0.72 5.78,0.8 9.28,1.55 21.81,4.64 42.89,8.31 63.59,12.72l25.81 5.1c1.42,0.3 2.87,0.65 4.28,0.93 1.57,0.3 2.19,0.03 3.97,0.43 22.34,4.96 43.37,8.5 64.59,13.04l0 -0.38c-1.25,-0.27 -2.07,-0.84 -3.67,-1.17 -19.65,-4.06 -39.87,-9.33 -60.65,-13.8 -3.07,-0.66 -5.42,-1.58 -8.24,-2.17l-17.3 -3.72c-3.11,-0.67 -5.27,-1.54 -8.5,-2.23 -12.08,-2.61 -23.45,-5.46 -35.78,-8.13 -6.42,-1.39 -11.88,-2.98 -18.32,-4.37 -6.13,-1.33 -13.01,-2.54 -18.74,-4.44 -5.61,-1.86 -13.49,-2.94 -19.43,-4.22 -19.23,-4.16 -39.78,-9.61 -60.39,-13.94l-42.38 -10.09 -0.02 10.81zm-1.26 684.16l-0.01 7.22c76.84,-12.31 147.14,-25.23 212.55,-35.64 7.93,-1.26 15.04,-2.79 22.94,-4.05 7.68,-1.22 15.28,-2.43 22.82,-3.63 3.8,-0.6 6.8,-1.46 10.67,-2.08 4.57,-0.72 30.41,-4.49 32.52,-5.32 2.73,-1.08 26.29,-4.39 30.95,-5.13 3.63,-0.57 6.5,-1.4 9.94,-1.94 6.71,-1.06 13.35,-2.11 19.94,-3.15 6.72,-1.06 12.7,-2.37 19.21,-3.39l0 -0.36c-52.65,8.3 -108.73,15.61 -169.52,25.14 -8.13,1.27 -15.39,2.01 -23.61,3.3 -8.21,1.28 -16.5,2.58 -24.87,3.89l-51.74 7.68c-2.23,0.37 -3.58,0.12 -6.1,0.52l-41.44 6.46c-2.75,0.43 -4.2,0.19 -6.76,0.61l-54.73 8.06c-1.46,0.19 -2.74,-0.02 -2.74,1.8zm0.55 -297.78c97.7,0.36 185.72,-0.93 265.29,-0.56 18.76,0.09 36.7,-0.21 54.8,-0.12 9.04,0.04 17.22,-0.28 26.01,-0.24 8.55,0.04 17,0.09 25.36,0.13 8.33,0.04 16.05,-0.28 24.32,-0.23 8,0.04 15.91,0.08 23.74,0.13 4.02,0.02 7.31,-0.31 11.28,-0.29 11.43,0.07 22.69,0.13 33.77,0.19l0 -0.34c-1.95,-0.01 -3.22,-0.36 -5.26,-0.37l-16.61 -0.1c-7.42,-0.05 -15.56,0.59 -22.78,-0.47 -2.94,-0.43 -19.24,-0.15 -23.72,-0.17 -4,-0.03 -8.01,-0.05 -12.06,-0.08 -4.31,-0.03 -8.07,-0.41 -12.25,-0.43 -8.35,-0.06 -16.8,-0.11 -25.35,-0.17 -8.8,-0.06 -17.2,-0.49 -25.99,-0.55 -8.94,-0.06 -17.99,-0.12 -27.15,-0.19 -9.46,-0.07 -18.21,-0.51 -27.86,-0.57 -9.51,-0.07 -19.13,-0.14 -28.87,-0.2 -9.98,-0.07 -19.54,-0.54 -29.94,-0.62 -63.61,-0.46 -132.34,-2.27 -206.73,-2.87l-0.01 8.11zm-0.04 19.85c0,0.26 0,0.52 0,0.77l-0.01 6.78c0.28,2.43 1.63,1.6 6.88,0.97 4.05,-0.49 34.59,-0.43 40.8,-0.5 5.46,-0.06 9.98,-0.55 15.57,-0.61 40.8,-0.46 79.31,-1.73 116.66,-2.14 4.63,-0.05 8.4,-0.49 13.11,-0.54l26.69 -0.28c4.52,-0.05 8.19,-0.48 12.76,-0.53 33.65,-0.35 65.27,-1.43 96.32,-1.74 3.88,-0.04 6.99,-0.44 10.91,-0.48l22.23 -0.21c3.77,-0.04 6.84,-0.43 10.66,-0.46 14.36,-0.13 27.85,-0.62 41.56,-0.74l0 -0.35c-13.68,0.12 -27.21,-0.11 -41.56,0.01 -3.7,0.03 -6.66,-0.31 -10.43,-0.28l-22.22 0.19c-3.95,0.03 -7.11,-0.31 -11.13,-0.28 -31.02,0.25 -62.66,-0.26 -96.32,-0.01 -4.44,0.04 -7.98,-0.33 -12.49,-0.3l-26.68 0.2c-4.75,0.04 -8.55,-0.35 -13.39,-0.31 -37.34,0.27 -75.82,-0.3 -116.65,-0.03 -5.43,0.04 -9.74,-0.38 -15.24,-0.34 -5.05,0.04 -38.02,0.58 -40.65,0.07 -1.43,-0.28 -2.37,-0.24 -3.92,-0.24 -1.59,-0.01 -3.43,-0.59 -3.44,1.38zm354.96 -558.64c5.43,1.93 10.82,3.86 16.19,5.8l47.87 17c2,0.74 3.42,0.89 5.56,1.67l39.33 13.59c-29.77,-10.82 -60.32,-22.62 -92.76,-34.43 -3.26,-1.19 -6.11,-2.43 -9.16,-3.64l-7.04 0zm-355.83 1036.1c58.32,-15.36 112.21,-29.98 163.87,-43.58 48.58,-12.78 94.45,-24.86 137.84,-36.28 20.95,-5.51 40.63,-11.06 60.52,-16.29l157.22 -41.34c2,-0.52 3.45,-1.23 5.54,-1.78l121.55 -31.93c12.81,-3.36 24.97,-6.85 37.18,-10.05 23.59,-6.19 46.25,-12.14 68.05,-17.86 21.06,-5.53 41.01,-11.02 60.5,-16.13l0 -0.26c-178.7,46.81 -430.33,111.29 -812.26,210.97l-0.01 4.51zm136.94 -1036.1c11.19,3.44 21.78,6.51 32.85,10.01 49.94,15.81 96.45,29.76 140.98,43.89 5.52,1.75 10.19,2.85 15.64,4.59 10.56,3.35 20.97,6.65 31.24,9.91 5.27,1.67 9.92,2.78 14.93,4.37 9.86,3.13 19.6,6.22 29.21,9.28 9.59,3.05 18.6,5.56 28.08,8.57 35.88,11.41 69.67,21.48 102.29,31.86l0 -0.32c-1.91,-0.61 -3.54,-1.45 -5.65,-2.13 -47.65,-15.19 -98.64,-32.49 -153.69,-50.08l-53.94 -17.61c-1.34,-0.43 -2.69,-0.85 -4.04,-1.28 -1.54,-0.49 -2.13,-1.09 -3.81,-1.61 -44.07,-13.7 -91.35,-30.02 -140.94,-45.92 -3.64,-1.17 -7.23,-2.35 -10.82,-3.54l-22.33 0zm87.04 1100.02c35.28,-12.17 68.89,-23.92 101.42,-34.92l56.56 -19.48c2.82,-0.95 4.81,-1.98 7.59,-2.92 10.28,-3.47 20.41,-6.89 30.42,-10.27 9.87,-3.33 19.23,-6.83 28.98,-10.12 18.84,-6.36 36.67,-12.7 54.61,-18.75l44.56 -15.34c2.2,-0.74 3.77,-1.59 5.98,-2.33l0 -0.32c-33.45,11.25 -68.13,22.25 -105.15,34.69l-51.46 16.93c-2.77,0.93 -4.74,1.23 -7.51,2.16 -10.42,3.5 -20.98,7.04 -31.7,10.63 -10.9,3.65 -21.5,6.84 -32.87,10.65 -22.91,7.68 -45.84,14.98 -70.25,23.15l-49.36 16.23 18.18 0zm297.82 -1100.02l18.73 7.63c9.88,4.02 19.09,7.46 28.72,11.38 18.75,7.64 36.48,14.56 54.14,21.76l0 -0.3c-17.58,-7.17 -35.28,-14.7 -53.97,-22.34 -9.6,-3.92 -18.81,-8 -28.71,-12.04l-14.93 -6.1 -3.97 0zm-475.87 0l25.26 7.43c7.64,2.3 14.38,3.89 22.05,6.2 28.87,8.69 55.93,16.41 83.04,24.58 6.61,1.99 12.58,3.38 19.28,5.4 40.86,12.32 79.77,23.27 116.86,34.47 3.07,0.93 5.52,1.28 8.32,2.13 32.45,9.92 63.26,18.39 93.03,27.4 9.89,2.99 19.14,5.44 28.63,8.32 18.62,5.64 36.24,10.63 53.99,16.02 2.33,0.7 3.96,0.87 6.28,1.57l43.76 12.63 -43.39 -13.51c-2.22,-0.67 -4.06,-1.57 -6.46,-2.3 -17.74,-5.4 -35.33,-11.09 -53.97,-16.76 -23.52,-7.16 -48.25,-15.41 -73.56,-23.13 -5.46,-1.67 -10.32,-3.51 -15.68,-5.15 -10.69,-3.26 -21.63,-6.37 -32.61,-9.94 -1.42,-0.46 -2.12,-1.05 -3.78,-1.54l-29.77 -9.09c-6,-1.83 -11.26,-3.82 -17.21,-5.64l-73.86 -22.98c-6.81,-2.08 -12.73,-4.3 -19.55,-6.39 -27.1,-8.3 -54.13,-16.99 -83.01,-25.84 -4.13,-1.27 -7.96,-2.57 -11.84,-3.87l-35.8 0zm-45.97 1065.01c-0,2.19 3.25,0.44 6.53,-0.48l7.17 -2.45c4.78,-1.68 10.35,-2.89 15.17,-4.23l57.64 -16.11c9.58,-2.68 18.36,-5.56 27.47,-8.1 17.85,-4.98 35.35,-9.87 52.49,-14.65 17.04,-4.75 32.95,-9.6 49.42,-14.19 61.81,-17.24 118.67,-33.85 172.1,-48.72 6.57,-1.83 12.37,-3.8 18.77,-5.58l45.51 -12.66c3.15,-0.87 5.58,-1.89 8.65,-2.74 11.49,-3.19 22.8,-6.34 33.92,-9.43 11.13,-3.09 21.52,-6.31 32.31,-9.31 40.94,-11.37 79.12,-22.58 115.44,-32.65l-51.17 13.57c-1.43,0.4 -2.18,0.28 -3.54,0.67 -19.53,5.59 -39.56,10.62 -60.21,16.33 -43.53,12.03 -89.56,24.05 -139.26,37.75l-70.38 19.04c-2.88,0.79 -8.04,2.67 -10.65,2.78 -2.87,0.11 -39.74,10.72 -43.86,11.85 -15.51,4.27 -30.59,8.02 -46.56,12.41 -66.69,18.35 -138.32,37.18 -216.95,58.77l-0.02 8.13zm0.3 -165.69c125.18,-23.78 234.35,-45.7 330.86,-63.97 15.12,-2.86 29.31,-5.91 43.93,-8.67 14.23,-2.69 28.19,-5.33 41.89,-7.92 6.79,-1.28 12.93,-2.79 19.67,-4.06 4.79,-0.91 54.79,-9.95 56.77,-10.85 2.4,-1.1 47.92,-9.22 52.4,-10.07 5.76,-1.09 10.91,-2.37 16.5,-3.43 10.83,-2.04 21.48,-4.04 31.96,-6.02 10.44,-1.96 20.21,-4.11 30.28,-6 19.63,-3.69 38.35,-7.5 56.68,-10.95l0 -0.29c-56.56,10.61 -118.68,21.31 -187.55,34.17 -12.33,2.3 -24.3,4.2 -37.11,6.59 -12.95,2.42 -26.15,4.88 -39.6,7.39 -6.89,1.28 -13.17,2.1 -20.22,3.41l-54.03 10.07c-3.43,0.64 -8,1.91 -11.32,2.09 -7,0.38 -15.17,2.47 -22.72,3.87 -15.84,2.95 -32.01,5.96 -48.51,9.03 -8.61,1.6 -16.51,2.68 -25.15,4.29 -17.3,3.22 -34.96,6.5 -53.02,9.85 -18.68,3.47 -36.89,6.44 -56.28,10.04 -19.72,3.66 -39.89,7.41 -60.52,11.23 -21.23,3.94 -42.39,7.43 -64.89,11.6l-0.02 8.57zm413.85 -899.32l0.64 0.24c4.89,1.85 9.07,3.07 13.82,4.86 35.88,13.54 69.64,25.28 102.11,37.55l0 -0.32c-19.85,-7.51 -40.56,-16.01 -61.79,-24.05 -4.45,-1.69 -8.43,-3.53 -13.06,-5.28l-20.15 -7.63c-2.4,-0.91 -4.19,-1.93 -6.71,-2.89l-6.5 -2.48 -8.37 0zm55.39 0c2.86,1.1 5.74,2.2 8.62,3.34 13.02,5.1 25.8,10.11 38.34,15.03 12.29,4.82 24.1,9.13 36.1,13.83 11.72,4.59 23.23,9.11 34.53,13.54 5.52,2.17 10.73,3.9 16.28,6.08 3.83,1.5 45.63,18.24 47.12,18.41 2.24,0.26 39.74,15.39 43.66,16.93 4.78,1.88 9.22,3.34 13.8,5.14l0 -0.28c-9.21,-3.62 -18.57,-7.3 -28.08,-11.04 -9.76,-3.84 -19.38,-7.91 -29.34,-11.83 -10.15,-4 -20.48,-8.06 -30.98,-12.19 -10.8,-4.25 -21.28,-8.68 -32.46,-13.08 -34.71,-13.66 -71.43,-28.31 -110.39,-43.89l-7.2 0zm46.76 1100.02c57.04,-23.87 109.28,-45.88 157.53,-65.73l0 -0.28c-2.3,0.94 -4.24,1.45 -6.64,2.44l-35.08 14.41c-4.96,2.04 -9.46,3.59 -14.46,5.64 -9.93,4.08 -20.03,8.23 -30.29,12.44 -10.52,4.32 -20.73,8.2 -31.64,12.67 -14.78,6.06 -29.86,12.18 -45.3,18.41l5.87 0zm-516.35 -4.76l84.93 -25.5c4.19,-1.23 7.33,-2.59 11.24,-3.74 30.43,-8.94 58.94,-17.78 87.29,-26.13 26.69,-7.85 53.52,-16.54 78.55,-23.9 24.94,-7.33 48.46,-14.64 72,-21.53 2.92,-0.85 5.24,-1.91 8.31,-2.81 35.82,-10.51 70.01,-21.25 102.62,-30.8 5.14,-1.51 9.71,-3.19 14.63,-4.62 19.19,-5.62 37.28,-11.25 55.44,-16.56 4.6,-1.35 8.62,-2.85 13.05,-4.14l38.18 -11.78c-33.76,9.85 -69.16,19.19 -106.67,30.1l-44.61 12.64c-5.31,1.54 -9.96,2.54 -15.37,4.11 -21.53,6.26 -42.99,12.13 -65.81,18.75 -5.88,1.71 -11.11,2.85 -17.15,4.61l-73.42 20.91c-6.55,1.9 -12.46,3.21 -19.25,5.18l-35.45 10.27c-2.13,0.63 -3.04,0.45 -5.02,1.03 -42.52,12.56 -86.85,24.29 -133.77,37.84 -16.6,4.8 -32.76,9.01 -49.69,13.9l-0.02 12.19zm1.94 -1061.34l-0.01 5.86c198.86,54.09 358.67,96.47 490.96,132.55 7.59,2.07 14.55,3.64 22.02,5.68 21.55,5.88 42.43,11.58 62.65,17.1 13.11,3.58 25.67,6.7 38.37,10.17 12.39,3.39 24.53,6.7 36.43,9.96 11.73,3.2 22.79,5.94 34.09,9.03 11.03,3.02 21.86,5.98 32.48,8.88 10.53,2.88 20.52,5.34 30.61,8.1 9.88,2.7 19.59,5.36 29.13,7.98l0 -0.26c-81,-22.19 -175.4,-49.28 -286.15,-79.72 -79.82,-21.95 -169.39,-47.32 -270.83,-75.25 -22.11,-6.09 -44.02,-12.54 -67.43,-18.99l-112.56 -31.03c-3.66,-1.01 -6.06,-2.12 -9.61,-3.09l-25.67 -7.09c-1.72,-0.48 -4.46,-1.96 -4.46,0.12zm-1.39 756.63c40.63,-5.34 80.08,-11.4 117.56,-16.31 7.63,-1 14.24,-2.28 21.81,-3.27l36.95 -4.82c2,-0.25 2.92,-0.82 5.06,-1.08 53,-6.53 102.89,-14.58 149.64,-20.65 44.19,-5.74 85.65,-12.17 125.16,-17.27 4.93,-0.64 9.25,-1.53 14,-2.14l54.22 -7.32c4.42,-0.57 8.39,-1.4 12.86,-1.98l18.91 -2.43c2.26,-0.29 3.92,-0.82 6.07,-1.09l0 -0.31c-16.75,2.14 -33.37,3.94 -50.95,6.19 -4.59,0.58 -8.64,0.78 -13.18,1.35l-56.42 6.84c-4.98,0.63 -9.59,0.87 -14.79,1.54l-22.88 2.91c-2.82,0.36 -4.85,0.26 -7.65,0.61 -21.41,2.71 -42.73,5.05 -65.35,7.91 -5.91,0.75 -11.06,1.03 -16.96,1.77 -38.68,4.88 -79.28,9.21 -122.07,14.59 -3.68,0.46 -6.33,0.39 -10.04,0.86 -28.18,3.54 -56.37,6.65 -86.45,10.42 -7.85,0.98 -14.69,1.41 -22.62,2.4l-72.87 8.66 -0.02 12.63zm0.53 -288.28l-0.02 10.82c35.08,0.61 70.06,0.36 102.54,0.94 32.19,0.58 62.37,0.71 92.38,1.26 7.24,0.13 13.93,-0.15 21.27,-0.01l80.86 1.11c6.54,0.12 12.42,-0.15 18.98,-0.02l32.32 0.61c1.76,0.04 2.87,-0.3 4.3,-0.3 11.79,-0.01 23.5,0.46 34.94,0.69 5.8,0.11 10.89,-0.15 16.65,-0.04l63.97 0.91c5.28,0.11 9.87,-0.14 15.08,-0.04 19.8,0.39 38.48,0.44 57.19,0.82 4.7,0.09 8.79,-0.14 13.39,-0.04l39.23 0.18c-17.17,-0.36 -34.41,-1.17 -52.62,-1.41 -1.24,-0.02 -1.8,-0.38 -3.13,-0.39l-24.85 -0.54c-4.94,-0.1 -9.39,-0.53 -14.26,-0.63l-61.18 -1.67c-5.54,-0.12 -10.68,-0.58 -16.11,-0.7 -22.37,-0.5 -44.76,-1.35 -68.5,-1.88 -23.93,-0.54 -49.54,-1.87 -75.1,-2.45 -27.01,-0.62 -54.23,-1.63 -83.23,-2.3 -3.87,-0.09 -6.72,-0.56 -10.57,-0.65 -53.44,-1.25 -110.38,-3.44 -171.2,-4.89 -2.17,-0.06 -4.69,0.04 -6.82,-0.17 -1.26,-0.12 -5.5,-1.85 -5.5,0.77zm0.08 -46c46.51,2.23 89.89,3.89 132.17,5.94 20.5,0.99 39.6,1.5 59.14,2.45 19,0.92 37.59,1.83 55.75,2.71 4.63,0.22 8.46,0.02 12.85,0.23l63.65 3.11c8.31,0.41 15.81,0.41 23.84,0.8 15.56,0.76 30.8,1.51 45.74,2.24 14.8,0.72 28.75,1.06 43.06,1.76 53.66,2.65 103.1,4.44 149.45,6.75l55.99 2.49c2.47,0.13 5.31,0.52 7.52,0.13 1.33,-0.24 27.44,1.34 29.47,1.44 9.67,0.48 18.82,0.66 28.09,1.13l0 -0.28c-37.83,-1.92 -77.89,-4.55 -121.07,-6.76 -11.39,-0.58 -22.45,-1.47 -34.22,-2.07 -11.87,-0.61 -23.96,-1.24 -36.28,-1.87 -6.22,-0.32 -12.16,-0.95 -18.63,-1.28l-39.63 -2.05c-6.98,-0.36 -13.52,-1.04 -20.49,-1.41 -121.01,-6.29 -263.65,-15.33 -436.39,-24.47l-0.02 9.02zm0.07 -37.88l-0.02 12.17c65.22,4.04 125.29,6.49 182.1,10.05 7.02,0.44 13.05,0.42 19.95,0.85l58.11 3.26c36.19,2.28 71.58,3.41 104.58,5.51 5.4,0.35 10.76,0.69 16.08,1.03 5.55,0.35 10.33,0.3 15.74,0.65l23.09 1.48c2.73,0.18 4.69,-0.04 7.4,0.13 8.8,0.57 20.95,1.8 29.45,1.55 4.47,-0.13 9.68,0.63 14.17,0.92 4.73,0.3 9.42,0.58 14.08,0.91 1.37,0.1 2.05,-0.19 3.19,-0.14l23.96 1.56c4.37,0.28 8.43,0.22 12.91,0.52 4.37,0.28 8.7,0.57 13.01,0.85 4.43,0.29 8.26,0.22 12.59,0.5 4.2,0.28 8.37,0.55 12.52,0.82l0 -0.31c-29.14,-1.91 -60,-4.92 -92.06,-7.04 -4.75,-0.31 -9.2,-0.95 -14.17,-1.28 -39.58,-2.63 -80.98,-6.62 -125.41,-9.45 -2.75,-0.18 -5.17,-0.72 -8.18,-0.93 -8.76,-0.59 -17.61,-1.19 -26.57,-1.79 -6.05,-0.41 -11.65,-1.17 -17.97,-1.59 -6.17,-0.42 -12.38,-0.84 -18.65,-1.26 -6.46,-0.44 -12.12,-1.21 -18.57,-1.65 -52.73,-3.58 -109.22,-8.68 -169.45,-12.82 -7.93,-0.54 -15.26,-1.48 -23.55,-2.05 -8.1,-0.56 -16.27,-1.12 -24.51,-1.69 -3.98,-0.28 -8.57,-0.31 -12.51,-0.86 -1.91,-0.26 -3.37,-0.69 -5.8,-0.85 -2.94,-0.2 -5.5,-1.16 -5.5,0.97zm-0.48 261.61c65.17,-4.7 125.28,-10.35 182.19,-14.37 3.45,-0.24 6.14,-0.84 9.76,-1.1l30.21 -2.15c6.59,-0.47 12.41,-1.28 19.02,-1.75 6.42,-0.46 12.78,-0.91 19.09,-1.35 6.4,-0.45 12.03,-1.24 18.15,-1.67 47.18,-3.33 91.79,-7.57 133.71,-10.51 5.25,-0.37 9.84,-1.04 15.09,-1.4 5.03,-0.35 10.02,-0.7 14.98,-1.04 5.09,-0.35 9.6,-1.01 14.48,-1.35 37.53,-2.61 72.68,-6.02 106.47,-8.34l0 -0.31c-4.2,0.29 -7.89,0.22 -12.18,0.51 -29.8,2.04 -61.26,3.19 -93.89,5.39l-44.52 2.66c-5.3,0.35 -9.98,0.32 -15.4,0.68 -5.2,0.35 -10.45,0.7 -15.73,1.06 -5.55,0.37 -10.65,0.35 -16.08,0.72l-29.28 1.96c-1.73,0.13 -2.44,-0.23 -4.17,-0.1 -23.32,1.77 -46.6,2.73 -71.36,4.37 -3.33,0.22 -5.74,-0.01 -8.97,0.2l-29.13 1.93c-6.82,0.45 -12.79,0.44 -19.74,0.91 -34.17,2.25 -69.81,3.75 -106.9,6.18 -30.64,2 -63.02,3.24 -95.78,5.36l-0.02 13.54zm1.22 -666.35l112.83 31.85c4.09,1.17 11.31,3.83 14.97,4.17 4.26,0.4 52.19,14.65 57.5,16.18 18.71,5.36 36.16,9.96 54,15.08 66.97,19.21 128.11,36.02 185.16,52.41 6.76,1.94 13.2,3.44 20.01,5.4 13.16,3.79 26.09,7.5 38.77,11.15 6.39,1.83 12.24,3.19 18.6,5.02 47.35,13.63 91.17,25.63 132.47,37.53l50.02 14.13c2.43,0.7 4.39,0.98 6.84,1.69l0 -0.28c-37.49,-10.83 -77.07,-22.87 -119.7,-35.22l-60.34 -17.79c-2.95,-0.86 -6.37,-1.56 -9.29,-2.69l-37.53 -11.21c-13.26,-3.85 -26.15,-7.93 -39.85,-11.91 -56.91,-16.51 -117.95,-34.98 -184.89,-54.44 -8.76,-2.55 -17.13,-5.37 -26.28,-8.04l-55.78 -16.22c-9.93,-2.89 -19.09,-5.97 -29.33,-8.95 -41.05,-11.95 -83.26,-24.69 -128.18,-37.77l-0.02 9.91zm-1.76 958.8l-0.02 12.64c67.39,-15.9 129.2,-31.75 187.61,-45.5 7.19,-1.69 13.5,-3.57 20.66,-5.26 6.86,-1.61 13.67,-3.21 20.42,-4.8 6.93,-1.63 12.93,-3.43 19.65,-5.01 32.01,-7.52 62.73,-15.48 92.3,-22.41 44.73,-10.48 87.66,-21.93 127.4,-31.21 4.88,-1.14 9.72,-2.27 14.53,-3.39 4.88,-1.14 9.17,-2.47 14.05,-3.61 4.69,-1.09 9.33,-2.18 13.95,-3.25 4.74,-1.11 8.87,-2.4 13.48,-3.47l20 -4.66c2.21,-0.51 4.02,-1.26 6.36,-1.8l19.21 -4.47c2.31,-0.54 4.13,-1.27 6.28,-1.77l0 -0.31c-34.28,7.96 -69.91,15.24 -108.06,24.07 -2.64,0.61 -4.69,0.74 -7.19,1.32l-22.62 5.23c-5.24,1.21 -9.91,1.94 -15.29,3.19 -5.24,1.21 -10.51,2.43 -15.83,3.65 -5.54,1.28 -10.41,2.05 -15.96,3.33 -38.97,8.99 -80.3,17.39 -123.66,27.37 -45.84,10.54 -94.74,20.56 -146.36,32.39 -7.79,1.79 -14.83,2.98 -22.91,4.83 -7.88,1.81 -15.82,3.63 -23.84,5.46 -8.37,1.92 -15.73,3.16 -24.17,5.09l-47.61 10.41c-1.29,0.28 -2.39,0.19 -2.39,1.93zm73.42 127.58l10.61 -3.35c9.2,-2.85 17.58,-5.87 26.33,-8.59 34.52,-10.69 66.82,-21.1 98.77,-30.98 7.75,-2.4 14.76,-4.97 22.52,-7.37 44.05,-13.62 85.82,-27.28 125.43,-39.51 6.61,-2.04 12.42,-4.2 18.91,-6.2 24.82,-7.66 48.22,-15.22 71.49,-22.4 3.04,-0.94 5.35,-1.99 8.31,-2.9 35.53,-10.94 69.28,-21.99 101.45,-31.88 4.89,-1.5 9.33,-3.18 14.24,-4.69 18.8,-5.78 36.61,-11.56 54.41,-17.02l0 -0.3c-1.24,0.38 -1.93,0.27 -3.04,0.62l-23.34 7.16c-4.7,1.44 -8.89,2.41 -13.63,3.87 -62.93,19.28 -132.61,38.91 -209.67,62.43 -31.78,9.7 -65.27,19.16 -100.06,29.76 -7.41,2.26 -14.03,3.89 -21.55,6.17l-39.5 12.02c-2.31,0.71 -3.54,0.65 -5.68,1.32 -31.97,10 -64.31,19.15 -98.74,29.61 -9.04,2.75 -17.32,4.83 -26.32,7.56l-49.11 14.65 38.17 0zm392.73 0l0.6 -0.24c146.38,-58.15 264.8,-105.73 362.84,-144.63 12.65,-5.02 24.78,-10.08 36.89,-14.88l96.62 -38.75c-40.55,16.06 -84.71,33.3 -133.52,52.62 -6.52,2.58 -12.81,4.82 -19.44,7.44 -95.61,37.82 -210.52,82.79 -351.64,138.43l7.63 0zm-464.89 -818.69l-0.02 9.46c46.67,6.39 90.77,11.67 133.31,17.85 2.54,0.37 4.55,0.2 7.39,0.59l52.21 7.18c19.31,2.66 37.38,4.74 55.88,7.3 35.35,4.87 68.51,9.06 101,13.55 8.01,1.11 15.35,1.76 23.03,2.82l44.84 6.2c7.36,1.02 13.99,1.59 21.22,2.59 27.63,3.83 53.64,7.1 79.17,10.64l62.39 8.34c2.46,0.34 6.3,1.31 8.56,1.14 2.78,-0.21 29.29,3.82 32.61,4.28 10.62,1.48 20.65,2.58 30.96,4.02 20,2.79 38.99,5.15 57.77,7.78l0 -0.28c-4.7,-0.66 -9,-1.54 -13.72,-2.2l-29 -4.07c-5.02,-0.7 -9.72,-1.66 -14.91,-2.38 -20.73,-2.91 -41.71,-6.16 -63.86,-9.28l-68.5 -9.95c-1.07,-0.16 -1.29,-0.51 -2.31,-0.68 -12.56,-2.06 -25.49,-3.59 -38.56,-5.43 -13.45,-1.9 -26.72,-4.11 -40.82,-6.1 -28.72,-4.06 -58.1,-8.57 -89.35,-13 -8.07,-1.15 -15.49,-2.56 -23.76,-3.74 -59.5,-8.44 -123.57,-18.33 -193.15,-28.24 -39.55,-5.63 -81.03,-12.18 -124.53,-18.17 -3.83,-0.53 -7.89,-2.82 -7.89,-0.22zm-1.17 638.75c-0,0.17 -0,0.35 -0,0.51l-0.01 4.91c0.36,2.13 2.31,0.87 10.97,-0.9 3.97,-0.81 7.92,-1.62 11.85,-2.43 4.06,-0.83 7.14,-1.9 11.37,-2.77l141.61 -28.96c13.51,-2.76 25.93,-5.7 38.94,-8.36l107.45 -21.95c11.26,-2.3 21.61,-4.78 32.55,-7.02 31.41,-6.41 61.54,-12.56 90.46,-18.46 9.51,-1.94 18.3,-4.07 27.6,-5.96 26.72,-5.45 52.44,-10.69 77.21,-15.73 8.06,-1.65 15.59,-3.49 23.53,-5.11 23.02,-4.69 45.24,-9.2 66.68,-13.57 7,-1.43 13.63,-3.07 20.58,-4.48 20.03,-4.07 39.41,-8.01 58.15,-11.82 6.08,-1.24 11.96,-2.7 18.03,-3.93l51.17 -10.39c2.81,-0.57 5.22,-1.32 7.97,-1.88l53.32 -11.06c-2.45,0.5 -4.58,0.68 -7.08,1.19l-54.1 10.95c-2.73,0.56 -5.24,0.8 -8.08,1.37l-61.1 12.35c-1.65,0.33 -2.82,0.29 -4.43,0.62l-74.28 14.99c-1.77,0.36 -3.18,0.34 -5.07,0.72l-38.42 7.74c-15.21,3.07 -30.92,6.61 -46.88,9.46 -1.02,0.18 -1.53,-0.04 -2.73,0.22 -27.97,5.9 -57.49,11.58 -88.03,17.72 -3.7,0.75 -10.59,2.8 -13.91,2.61 -1.83,-0.11 -104.36,20.72 -118.89,23.77 -1.72,0.36 -2.44,0.11 -3.98,0.41l-136.53 27.44c-3.63,0.73 -6.42,0.87 -9.84,1.57l-165.11 33.13c-3.91,0.78 -5.7,0.57 -8.93,1.29 -1.19,0.26 -2.04,0.24 -2.04,1.81zm0.08 -46.5c41.28,-7.27 79.78,-14.48 117.58,-21.13 9.33,-1.64 17.62,-3.52 26.82,-5.13 51.68,-9.08 100.36,-18.41 146.26,-26.45 7.67,-1.34 14.48,-2.91 22.02,-4.24 28.63,-5.01 55.58,-10.13 82.27,-14.74 1.81,-0.32 2.88,-0.88 4.48,-1.15l33.26 -5.79c6.29,-1.1 11.86,-2.41 18.06,-3.49 73.92,-12.88 140.65,-26.04 200.9,-36.47l0 -0.29c-4.53,0.78 -8.63,1.2 -13.25,1.99 -27.65,4.77 -56.58,9.14 -86.88,14.35 -5.37,0.93 -10.24,1.44 -15.72,2.38 -43.96,7.55 -90.58,14.53 -140.82,23.12 -33,5.65 -67.77,10.85 -104.05,17.04 -7.63,1.3 -14.57,2.1 -22.41,3.43 -11.61,1.98 -23.39,3.98 -35.36,6.02 -4.31,0.74 -7.73,0.93 -11.96,1.64 -33.45,5.69 -67.36,11.04 -103.59,17.2 -9.41,1.6 -17.98,2.63 -27.67,4.27l-89.9 14.8 -0.02 12.63zm1.02 -556.64c-0,2.26 5.67,2.05 8.91,2.44l29.54 3.17c32.02,3.92 62.92,7.7 92.79,11.37 6.07,0.74 11.25,0.96 17.37,1.72 22.73,2.79 44.86,5.5 66.42,8.15 21.02,2.58 41.04,4.65 61.21,7.13 38.6,4.74 74.76,8.82 109.92,13.15l84.4 10.07c4.02,0.49 7.35,0.57 11.25,1.05 57.39,7.1 109.76,12.96 158.49,19.02 21.42,2.66 42.23,4.86 62.27,7.45 1.39,0.18 2.39,0.02 3.85,0.2 10.38,1.3 20.56,2.56 30.57,3.81 9.93,1.24 19.36,2.15 29,3.35l0 -0.27c-19.2,-2.4 -38.69,-5.11 -59.3,-7.7l-64.02 -8.32c-0.94,-0.11 -1.21,-0.44 -2.06,-0.57 -11.77,-1.77 -23.88,-3 -36.13,-4.54 -12.63,-1.59 -25.01,-3.46 -38.16,-5.11 -27,-3.41 -54.58,-7.21 -83.93,-10.92l-82.72 -10.8c-3.87,-0.49 -9.08,-0.65 -12.84,-1.65 -7.99,-2.1 -17.16,-2.51 -25.72,-3.6 -103.75,-13.16 -222.67,-29.5 -361.08,-47.15l-0.02 8.56zm0.15 -79.78c-0,2.2 3.55,1.94 5.15,2.2 2.27,0.37 4.12,0.67 5.9,0.65 2.46,-0.04 32.69,5.28 36.59,5.93 4.24,0.7 7.26,0.76 11.37,1.44 8.89,1.48 28.92,5.48 35.12,5.8 8.3,0.43 28.12,4.29 38.28,5.96 1.98,0.33 3.08,0.07 5.32,0.45l42.05 6.57c52.97,8.81 102.27,15.48 149.04,23.31 5.85,0.98 10.91,1.46 16.61,2.41 5.54,0.93 11.04,1.85 16.48,2.76 5.4,0.9 10.4,1.38 15.91,2.31 5.38,0.9 10.71,1.77 16.02,2.7 1.49,0.26 2.07,-0.04 3.62,0.24l22.85 3.84c1.55,0.27 2.42,0.07 3.7,0.26l22.23 3.76c2.5,0.43 4.5,0.42 7.13,0.86 4.78,0.8 9.52,1.6 14.23,2.4 4.82,0.81 8.98,1.18 13.76,1.98 27.08,4.57 53.13,8 78.17,12.24l0 -0.31c-4.26,-0.72 -8.04,-1.69 -12.23,-2.4 -4.19,-0.71 -8.41,-1.43 -12.64,-2.15 -4.33,-0.74 -8.23,-1.72 -12.71,-2.48 -4.35,-0.74 -8.74,-1.49 -13.14,-2.24 -2.24,-0.38 -4.01,-1.01 -6.39,-1.41 -4.35,-0.74 -17.8,-2.54 -20.37,-3.67 -1.5,-0.66 -18,-3.21 -21.03,-3.73 -2.6,-0.44 -4.47,-1.11 -7.05,-1.55 -4.81,-0.82 -9.64,-1.65 -14.52,-2.48 -5.08,-0.87 -9.52,-1.97 -14.61,-2.84 -40.89,-7 -84.24,-15.9 -130.13,-23.8 -6.14,-1.06 -11.5,-2.36 -17.76,-3.44 -6.09,-1.05 -12.23,-2.11 -18.42,-3.18 -3.33,-0.57 -5.75,-1.38 -8.98,-1.94 -9,-1.55 -20.15,-3.07 -28.91,-4.98l-34.69 -6.4c-1.98,-0.33 -2.89,-0.93 -5.03,-1.29 -20.72,-3.43 -41.73,-7.64 -63.48,-11.41 -7.65,-1.33 -14.46,-2.93 -22.34,-4.3 -30.77,-5.34 -62.16,-11.67 -95.08,-17.41l-0.03 15.33zm561.51 862.86l8.59 -3.67c5.12,-2.19 9.78,-4.48 14.9,-6.67 5,-2.13 9.95,-4.25 14.87,-6.35 4.95,-2.11 9.46,-4.33 14.22,-6.37l41.38 -18.23c-22.49,9.58 -45.89,18.94 -70.16,29.26 -5.17,2.2 -9.85,3.88 -15.06,6.09l-13.96 5.93 5.19 0zm-148.83 0c68.04,-26.06 129.63,-50.28 186.32,-71.95 6.78,-2.59 13.19,-5.35 19.94,-7.93 13.05,-4.99 25.83,-9.87 38.34,-14.65 6.22,-2.38 11.99,-4.87 18.15,-7.22 46.16,-17.63 88.56,-34.35 128.19,-49.47l0 -0.26c-4.89,1.87 -9.51,3.37 -14.42,5.24l-38.06 14.5c-2.66,1.01 -5.11,1.67 -7.89,2.73 -10.78,4.11 -21.77,8.29 -32.98,12.56 -11.45,4.36 -22.85,8.42 -34.85,12.98 -24.6,9.36 -49.82,18.65 -76.59,28.84l-84.12 31.67c-1.16,0.43 -1.61,0.26 -2.87,0.75 -31.92,12.45 -65.22,24.43 -100.1,37.67l-12.05 4.56 12.98 0zm-414.1 -90.1c-0,2.17 3.24,0.55 4.82,0.15l17 -4.7c108.69,-27.15 205.16,-52.05 291.42,-73.56 21.66,-5.4 42.16,-10.88 62.5,-15.95 19.87,-4.95 39.22,-9.77 58.06,-14.46 4.73,-1.18 8.77,-2.52 13.46,-3.69 97.45,-24.25 182.13,-46.24 256.78,-64.75 1.63,-0.4 2.75,-0.96 4.39,-1.37l30.91 -7.67c11.47,-2.84 22.33,-5.8 33.32,-8.52 21.3,-5.28 41.44,-10.52 61.15,-15.4l-52.84 12.55c-2.14,0.53 -6.09,2 -8.01,1.82 -1.31,-0.12 -13.84,3.3 -16.35,3.92 -40.27,9.93 -83.54,20.03 -130.27,31.54l-77.28 18.71c-1.94,0.48 -3.9,0.96 -5.86,1.44 -2.18,0.54 -3.71,0.59 -5.91,1.13 -67.13,16.5 -140.82,33.89 -223.34,54.12l-123.26 29.83c-6.66,1.63 -12.4,2.63 -19.11,4.27 -26.36,6.45 -53.56,13.11 -81.64,19.98 -29.12,7.13 -58.6,13.89 -89.93,21.56l-0.02 9.03zm0.45 -248.26c58.03,-6.73 111.73,-13.39 162.92,-19.32 48.25,-5.59 93.59,-11.6 136.94,-16.23 1.63,-0.17 2.2,-0.62 3.61,-0.81 18.78,-2.53 38.64,-4.44 56.56,-6.51 19.3,-2.22 37.5,-4.68 55.91,-6.8 35.23,-4.06 68.29,-8.19 100.38,-11.87 7.83,-0.9 15,-2.05 22.65,-2.92 50.71,-5.81 97.53,-11.77 141.11,-16.74l59.83 -7.1c2.8,-0.32 5.17,-0.86 7.95,-1.17 21.06,-2.39 41.06,-4.93 60.54,-7.13l0 -0.26c-19.42,2.2 -39.4,4.19 -60.41,6.57 -2.67,0.3 -5.15,0.31 -7.95,0.62 -42.08,4.74 -87.32,9.25 -136.37,14.75 -6.99,0.78 -13.58,1.21 -20.63,2l-43.71 4.89c-7.64,0.85 -14.91,1.35 -22.82,2.23 -32.01,3.57 -64.98,6.91 -100.14,10.83 -34.44,3.84 -70.55,7.36 -108.53,11.72 -2.68,0.31 -4.82,0.16 -7.72,0.48 -88.95,9.87 -187.71,19.97 -300.1,32.39l-0.02 10.38zm0.11 -56.85c40.46,-3.46 79.2,-6.77 116.32,-9.95 35.89,-3.07 69.49,-6.35 102.64,-9.17 31.58,-2.69 61.97,-5.28 91.23,-7.78 28.39,-2.42 55.14,-5.06 81.63,-7.31 25.33,-2.15 49.81,-4.23 73.46,-6.24 23.02,-1.96 44.82,-4.14 66.47,-5.97 20.77,-1.76 40.9,-3.47 60.42,-5.12 19.02,-1.61 37.15,-3.45 55.17,-4.97 17.34,-1.46 34.19,-2.89 50.58,-4.28 15.98,-1.35 31.31,-2.92 46.53,-4.2 82.78,-6.97 154.12,-13.69 216.22,-18.87l0 -0.22c-84.75,7.06 -187.12,14.54 -313.17,24.91 -159.2,13.11 -366.52,28.65 -647.49,51.5l-0.01 7.67zm0.09 -50.99c10.64,-0.62 20.07,-1.61 30.51,-2.21 10.06,-0.58 20.01,-1.16 29.85,-1.73 5.11,-0.3 9.3,-0.97 14.08,-1.25l42.78 -2.46c2.58,-0.14 3.94,-0.67 6.33,-0.8 10.18,-0.5 41.11,-1.83 46.53,-3.01l38.06 -2.24c4.42,-0.25 7.94,-0.85 12.14,-1.09 8.09,-0.46 16.09,-0.92 24.02,-1.37 8.06,-0.46 15.35,-1.26 23.07,-1.7 7.63,-0.43 15.18,-0.86 22.67,-1.28 7.65,-0.44 14.47,-1.2 22.04,-1.62 55.64,-3.14 107.59,-7.47 155.88,-10.15 5.99,-0.33 11.39,-0.96 17.17,-1.28 5.69,-0.31 11.33,-0.63 16.93,-0.94 5.65,-0.31 10.72,-0.92 16.35,-1.23 5.48,-0.3 10.91,-0.6 16.3,-0.89 2.78,-0.15 4.92,-0.59 7.65,-0.74l23.3 -1.26c1.24,-0.06 2.08,-0.44 3.49,-0.51l22.52 -1.22c0.56,-0.03 1.21,-0.01 1.76,-0.1 0.72,-0.11 0.88,-0.36 1.75,-0.41l21.32 -1.15c2.5,-0.13 4.43,-0.54 6.89,-0.67 4.61,-0.25 9.18,-0.5 13.72,-0.74 4.68,-0.26 8.87,-0.78 13.41,-1.02l0 -0.3c-4.44,0.24 -8.91,0.48 -13.41,0.72 -4.6,0.25 -8.83,0.18 -13.57,0.43 -37.93,2.02 -78.32,2.89 -121.3,5.14 -5.76,0.3 -10.96,0.24 -16.73,0.54 -5.8,0.3 -11.65,0.6 -17.54,0.91 -5.93,0.31 -11.45,0.26 -17.6,0.58 -6.03,0.31 -12.11,0.63 -18.25,0.94 -3.19,0.17 -5.72,-0.06 -9,0.11 -8.16,0.42 -21.78,1.77 -28.97,1.5l-34.62 1.42c-1.98,0.11 -3.04,-0.23 -4.95,-0.12l-31.59 1.62c-3.73,0.19 -6.78,-0.03 -10.66,0.17 -7.28,0.37 -14.62,0.74 -22.03,1.12 -7.7,0.39 -14.63,0.36 -22.41,0.76 -7.7,0.39 -15.47,0.78 -23.32,1.18 -8.04,0.41 -15.62,0.39 -24.01,0.81 -67.4,3.39 -140.74,5.35 -220.53,9.3l-0.03 16.24zm0.06 -29.32c-0,2.22 1.53,1.04 2.76,0.82l44.92 -1.96c4.27,-0.18 11.98,0.08 15.75,-0.86 3.74,-0.93 45.03,-2.17 52.87,-2.5l56.85 -2.83c2.37,-0.08 4.13,-0.59 6.77,-0.7l40.08 -1.69c4.61,-0.19 8.24,-0.74 12.76,-0.93l37.63 -1.57c4.09,-0.17 7.72,-0.71 11.99,-0.89 7.98,-0.33 15.88,-0.66 23.69,-0.99 8.03,-0.33 15.24,-1.01 22.99,-1.33 7.52,-0.31 14.95,-0.62 22.32,-0.93 7.55,-0.31 14.28,-0.95 21.69,-1.26 7.16,-0.29 14.25,-0.59 21.28,-0.87 7.04,-0.29 13.46,-0.91 20.47,-1.19 51.87,-2.12 100.3,-5.41 145.27,-7.2 42.13,-1.68 81.78,-4.45 118.88,-5.89l0 -0.29c-9.03,0.35 -18.02,0.41 -27.46,0.77 -4.85,0.19 -9.28,0.06 -14.13,0.25 -4.89,0.19 -9.81,0.37 -14.78,0.56 -5.07,0.19 -9.67,0.07 -14.82,0.27 -5.13,0.19 -10.29,0.39 -15.51,0.59 -5.26,0.2 -10.13,0.07 -15.56,0.28 -5.38,0.2 -10.81,0.41 -16.29,0.61 -5.43,0.2 -10.68,0.08 -16.35,0.3 -5.67,0.21 -11.37,0.43 -17.13,0.64 -3,0.11 -5.36,-0.12 -8.37,-0.01l-26.89 1c-2.96,0.11 -5.65,-0.13 -8.82,-0.01l-28.36 1.06c-1.54,0.07 -2.76,-0.25 -4.54,-0.19 -4.85,0.18 -32.64,1.56 -34.62,1.13 -3.06,-0.67 -31.45,1.31 -38.74,1.22 -1.13,-0.02 -1.35,-0.33 -2.62,-0.29l-38.38 1.41c-1.95,0.09 -3.39,-0.25 -5.57,-0.17l-34.82 1.26c-4.22,0.15 -7.57,-0.11 -11.8,0.04l-37 1.33c-4.24,0.15 -8.03,-0.11 -12.54,0.05 -8.57,0.31 -17.22,0.61 -25.97,0.93 -9.16,0.32 -17.59,0.22 -26.8,0.55 -9.13,0.32 -18.36,0.65 -27.69,0.98 -9.76,0.34 -18.65,0.24 -28.61,0.59 -9.76,0.34 -19.62,0.69 -29.59,1.04 -10.33,0.36 -19.91,0.26 -30.62,0.64 -21.33,0.74 -42.47,1.04 -64.53,1.8l-0.03 14.43zm0.07 -39.24l-0.02 10.83c55.53,-1.5 106.96,-3.32 156.25,-4.65 46.16,-1.24 90.61,-3.21 132.03,-4.3 39.85,-1.05 77.12,-2.4 113.27,-3.34 4.31,-0.11 8.34,-0.57 12.82,-0.68l37.72 -0.98c8.27,-0.22 15.92,-0.75 23.88,-0.96l88.61 -2.58c7.01,-0.18 13.41,-0.65 20.25,-0.83 26.4,-0.66 51.26,-1.59 75.61,-2.19 5.96,-0.15 11.48,-0.57 17.38,-0.72 36.22,-0.89 70.32,-2.28 102.42,-3.05 2.54,-0.06 4.69,-0.37 7.16,-0.43l0 -0.26c-19.43,0.46 -39.21,0.66 -60.06,1.15 -21.36,0.5 -43.94,0.46 -67.03,0.99 -49.39,1.13 -102.82,1.41 -161.23,2.71l-72.09 1.26c-8.63,0.19 -16.87,0.02 -25.83,0.21 -36.13,0.79 -73.39,1.22 -113.34,2.08 -5.33,0.11 -9.87,-0.17 -15.17,-0.06 -76.09,1.61 -159.86,2.54 -252.51,4.48 -3.85,0.08 -6.45,-0.32 -10.17,-0.24 -1.82,0.04 -3.65,0.08 -5.48,0.11 -1.72,0.02 -4.47,-0.64 -4.47,1.44zm0.18 -99.23c107.12,3.43 201.99,5.27 287.74,8.08 2.78,0.09 4.82,-0.24 7.35,-0.14l51.19 1.7c9.38,0.31 18.24,0.24 27.56,0.55 9.04,0.3 17.96,0.6 26.78,0.89 8.89,0.3 17.03,0.22 25.63,0.5 64.36,2.16 123.31,3.18 177.28,5.03 6.52,0.22 12.59,0.13 19.05,0.35 6.27,0.22 12.48,0.43 18.63,0.65 6.2,0.21 11.94,0.11 17.93,0.32 45.67,1.59 87.7,2.24 127.05,3.63l0 -0.26c-4.79,-0.17 -9.28,-0.59 -14.2,-0.77 -35.05,-1.26 -72.6,-3.45 -112.56,-4.92l-55.75 -2.35c-6.64,-0.24 -12.84,-0.78 -19.63,-1.03l-30.89 -1.15c-3.56,-0.13 -6.75,-0.57 -10.46,-0.71l-38.6 -1.44c-2.09,-0.08 -3.5,-0.47 -5.52,-0.54 -63.91,-2.26 -133.55,-6.11 -210.84,-9.08 -85.19,-3.27 -181.14,-8.65 -287.73,-12.85l-0.02 13.53zm208.79 -486.03c4.38,1.37 8.78,2.76 13.26,4.24 10.79,3.57 21.44,7.09 31.95,10.56 10.67,3.53 20.38,6.35 30.74,9.78 76.58,25.32 145.56,47.06 208.99,68.11 2.04,0.68 3.36,0.78 5.37,1.45l38.37 12.72c3.69,1.22 6.78,1.93 10.37,3.12 10.38,3.44 20.59,6.83 30.65,10.17 6.7,2.22 12.87,3.96 19.49,6.16 6.42,2.13 12.77,4.24 19.06,6.33 6.35,2.11 12.19,3.75 18.35,5.8 41.02,13.63 79.5,25.59 115.42,37.56 10.02,3.34 19.51,6.24 29.12,9.44l-44.15 -15.26c-5.28,-1.76 -10.2,-3.68 -15.58,-5.48 -5.29,-1.77 -10.63,-3.55 -16.01,-5.35 -5.54,-1.85 -10.8,-3.89 -16.33,-5.74l-25.59 -8.56c-3.09,-1.03 -5.76,-2.22 -8.78,-3.23 -49.19,-16.46 -102.09,-35.11 -160.12,-54.56 -7.67,-2.57 -14.95,-5.35 -22.89,-8.01 -7.86,-2.64 -15.82,-5.31 -23.87,-8.01 -8.31,-2.79 -16.06,-5.73 -24.49,-8.56 -56.22,-18.87 -117.22,-40.32 -183.24,-62.68l-30.1 0zm150.15 1100.02l13.16 -4.86c4.59,-1.7 8.47,-3.48 12.9,-5.12l37.38 -13.79c4.29,-1.58 7.85,-3.25 12.05,-4.79 11.84,-4.37 23.49,-8.66 34.95,-12.89 3.99,-1.47 7.31,-3.02 11.27,-4.48 11.09,-4.09 22.01,-8.11 32.75,-12.06 3.65,-1.35 6.73,-2.81 10.4,-4.16l30.76 -11.32c3.43,-1.26 6.43,-2.68 9.94,-3.97 6.55,-2.41 13.02,-4.79 19.43,-7.15 6.46,-2.37 12.52,-4.91 18.71,-7.19 6.17,-2.26 12.27,-4.51 18.31,-6.73 6.15,-2.26 11.88,-4.67 17.79,-6.83 5.82,-2.14 11.58,-4.26 17.29,-6.35 5.76,-2.11 11.1,-4.36 16.66,-6.41 5.5,-2.02 10.95,-4.02 16.35,-6 5.5,-2.02 10.57,-4.17 15.9,-6.12 5.2,-1.91 10.36,-3.8 15.48,-5.68 5.22,-1.91 9.99,-3.94 15.07,-5.8 4.93,-1.81 9.83,-3.6 14.67,-5.38 4.95,-1.81 9.46,-3.74 14.3,-5.51l0 -0.27c-4.73,1.73 -9.49,3.48 -14.3,5.24 -4.94,1.81 -9.53,3.22 -14.54,5.05 -4.98,1.82 -10,3.66 -15.06,5.51 -5.26,1.93 -10.13,3.43 -15.47,5.39 -5.25,1.92 -10.55,3.86 -15.9,5.82 -5.49,2.01 -10.59,3.59 -16.2,5.63 -5.54,2.03 -11.15,4.07 -16.8,6.14 -5.84,2.13 -11.29,3.83 -17.28,6.02 -5.87,2.15 -11.79,4.31 -17.78,6.5 -6.11,2.23 -11.86,4.02 -18.15,6.32 -6.22,2.27 -12.5,4.56 -18.85,6.88 -6.52,2.38 -12.69,4.32 -19.43,6.77 -6.61,2.41 -13.29,4.85 -20.03,7.31 -6.91,2.52 -13.5,4.6 -20.66,7.21 -57.28,20.88 -119.92,42.34 -188.07,67.07l23.03 0zm-358.21 -1012.94l-0.02 10.37c68.42,16.49 131.24,31.21 190.62,45.53 7.24,1.75 13.59,2.88 20.81,4.63l168.49 40.32c11.2,2.71 21.81,4.92 32.82,7.58l57.82 14c1.51,0.38 2.18,0.17 3.64,0.54 56.47,14.24 108.67,25.71 156.75,37.37 7.67,1.86 15.24,3.7 22.72,5.52 7.54,1.83 14.65,3.26 21.89,5.02 28.18,6.85 54.65,13 80.28,19.24l53.34 12.72c5.65,1.37 11.04,2.43 16.65,3.8 21.53,5.25 41.89,9.97 61.74,14.81l0 -0.23c-4.93,-1.2 -9.59,-2.58 -14.61,-3.81 -36.24,-8.86 -75.12,-18.87 -117.23,-29.19 -3.19,-0.78 -6.03,-1.75 -9.3,-2.55l-92.76 -23.03c-7.54,-1.85 -14.89,-3.95 -22.72,-5.87l-45.19 -11.09c-1.17,-0.28 -1.79,-0.76 -3.07,-1.07 -52.15,-12.45 -108.65,-27.38 -170.16,-42.54 -10.85,-2.67 -21.86,-5.39 -33.05,-8.14 -11.52,-2.84 -22.65,-5.94 -34.37,-8.83 -48.73,-12.02 -99.9,-25.02 -155.32,-38.7l-151.68 -37.88c-4.33,-1.06 -7.98,-2.42 -12.63,-3.57l-19.63 -4.85c-3.05,-0.75 -5.83,-2.24 -5.84,-0.09zm-1.34 730.99c124.93,-18.28 233.78,-35.39 330.11,-49.42 54.43,-7.93 105.34,-16.03 152.7,-22.9 9.29,-1.35 17.95,-2.93 26.88,-4.22l51.05 -7.44c3.52,-1.25 42.72,-6.45 47.07,-7.08 7.63,-1.1 14.76,-2.44 22.27,-3.52 88.32,-12.75 164.92,-25.11 231.8,-34.68l0 -0.24c-24.64,3.52 -50.63,6.73 -77.89,10.61 -5.74,0.82 -11.23,1.34 -17.01,2.16 -8.77,1.25 -17.68,2.52 -26.74,3.8 -2.77,0.39 -6.51,1.39 -9.2,1.29 -3.44,-0.13 -14.32,1.78 -18.61,2.39 -6.43,0.91 -12.93,1.83 -19.5,2.77 -6.71,0.95 -13.11,1.57 -20.04,2.56 -95.74,13.57 -208.41,27.84 -342.53,46.69 -46.43,6.52 -96.4,12.76 -148.94,20.11 -56.61,7.93 -116.37,15.85 -181.39,24.95l-0.02 12.19zm1.14 -621.48l-0.02 12.61c115.6,20.91 216.92,38.04 307.75,54.54 10.67,1.94 20.71,3.39 31.25,5.31 10.21,1.86 20.29,3.69 30.24,5.5 9.98,1.81 19.13,3.12 28.85,4.89 9.51,1.73 18.9,3.44 28.17,5.13 9.23,1.68 17.85,2.91 26.71,4.52l75.16 13.38c60.01,10.96 115.21,19.85 165.45,29.08 6.02,1.11 11.98,2.2 17.87,3.28 5.89,1.08 11.38,1.81 17.21,2.88 5.66,1.04 11.27,2.07 16.82,3.09 5.64,1.04 10.83,1.72 16.32,2.73 7.99,1.47 15.85,2.92 23.61,4.35 2.61,0.48 4.98,0.66 7.65,1.15 7.54,1.39 14.97,2.76 22.3,4.11 2.55,0.47 4.78,0.63 7.23,1.08l0 -0.25c-39.86,-7.37 -82.55,-16.07 -129.14,-24.71 -6.04,-1.12 -12,-2.51 -18.3,-3.68 -6.28,-1.17 -12.62,-2.34 -19.03,-3.53 -6.56,-1.22 -12.76,-2.67 -19.49,-3.92 -6.74,-1.25 -13.56,-2.52 -20.45,-3.8 -7.05,-1.31 -13.7,-2.85 -20.82,-4.18 -51.77,-9.64 -108.1,-21.13 -169.3,-32.57 -47.22,-8.83 -97.62,-19 -151.61,-29.11 -11.36,-2.13 -22.38,-4.58 -34.25,-6.81 -11.75,-2.2 -23.67,-4.44 -35.77,-6.71 -12.57,-2.36 -24.42,-4.99 -37.38,-7.43 -12.83,-2.41 -25.87,-4.86 -39.1,-7.35 -13.79,-2.59 -26.94,-5.49 -40.95,-8.13 -5.21,-0.98 -72.65,-13.16 -76.5,-14.65 -1.79,-0.69 -3.78,-0.9 -5.66,-1.26 -1.57,-0.3 -4.8,-1.73 -4.81,0.45zm0.02 -13.97c14.01,2.73 27.81,5.43 41.41,8.08 13.71,2.68 26.23,4.69 39.6,7.3 97.84,19.12 185.49,34.71 264.4,50.2 18.64,3.66 36.45,6.8 54.37,10.32 8.89,1.75 17.02,3 25.64,4.69 8.42,1.66 16.74,3.3 24.96,4.91 8.19,1.61 15.8,2.78 23.91,4.37 7.85,1.55 15.62,3.08 23.3,4.59 3.9,0.77 7.15,1.08 11,1.84l32.98 6.51c1.89,0.38 3.2,0.32 5.17,0.7l33.62 6.65c1.09,0.22 1.55,0.03 2.43,0.16 8.96,1.26 20.22,4.01 29.35,5.82 3.33,0.66 6.2,0.92 9.39,1.56 6.28,1.24 12.49,2.47 18.64,3.69 6.2,1.23 11.99,2.09 17.95,3.27 5.87,1.16 11.67,2.31 17.43,3.46 5.85,1.16 11.19,1.93 16.93,3.07 32.6,6.48 63.4,11.79 92.56,17.6l0 -0.26c-19.25,-3.84 -39.11,-8.35 -59.86,-12.5 -5.39,-1.07 -10.44,-2.36 -15.86,-3.44 -5.47,-1.1 -11,-2.2 -16.58,-3.32 -5.71,-1.14 -11.06,-2.5 -16.92,-3.68 -5.8,-1.16 -11.65,-2.33 -17.57,-3.52 -3.06,-0.61 -5.67,-1.43 -8.69,-2.04l-27.74 -5.57c-1.74,-0.35 -2.91,-0.89 -4.59,-1.22 -5.09,-1.01 -31.7,-5.96 -34.16,-7.09 -1.67,-0.77 -26.74,-5.46 -30.87,-6.3 -3.65,-0.74 -6.95,-1.72 -10.46,-2.43l-32.98 -6.64c-3.77,-0.76 -7.22,-1.78 -11.17,-2.58 -7.61,-1.54 -15.32,-3.09 -23.11,-4.66 -8.1,-1.63 -15.65,-3.5 -23.9,-5.17 -8.22,-1.66 -16.54,-3.34 -24.95,-5.04 -8.55,-1.73 -16.75,-3.73 -25.63,-5.53 -73.19,-14.8 -154.21,-32.75 -244.14,-51.02 -12.26,-2.49 -23.9,-5.28 -36.31,-7.8 -12.54,-2.55 -25.27,-5.14 -38.19,-7.77 -13.32,-2.71 -25.83,-5.69 -39.58,-8.49 -13.7,-2.79 -27.61,-5.62 -41.74,-8.5l-0.03 15.78zm-0.38 207.81l-0.02 12.62c128.36,9.84 239.43,17.18 337.74,24.79 5.94,0.46 11.17,0.5 16.89,0.94 16.74,1.3 33.11,2.57 49.12,3.82 10.59,0.82 20.44,1.24 30.8,2.04 10.04,0.78 19.95,1.55 29.72,2.31 9.79,0.76 18.87,1.14 28.32,1.87 62.05,4.85 118.84,8.38 170.78,12.47 34.6,2.73 67.22,4.75 98.07,7.2 6.02,0.48 11.68,0.67 17.63,1.14 5.79,0.46 11.51,0.92 17.18,1.37 5.74,0.46 11.06,0.63 16.65,1.07 5.43,0.43 10.81,0.86 16.13,1.29 5.33,0.43 10.41,0.58 15.54,0.99l22.59 1.81c2.57,0.2 4.85,0.15 7.32,0.35l0 -0.24c-40.35,-3.25 -83.83,-7.53 -131.48,-11.4 -6.24,-0.51 -12.35,-1.28 -18.83,-1.8 -6.46,-0.53 -13,-1.06 -19.61,-1.6 -6.78,-0.56 -13.21,-1.36 -20.16,-1.93 -6.97,-0.57 -14.02,-1.15 -21.16,-1.73 -7.28,-0.59 -14.27,-1.46 -21.64,-2.07l-70.37 -6.08c-69.5,-5.72 -147.39,-13.52 -234.15,-20.74 -11.64,-0.97 -23.45,-1.95 -35.45,-2.95 -12.3,-1.02 -24.11,-2.39 -36.88,-3.45 -12.78,-1.07 -25.75,-2.15 -38.94,-3.25 -13.72,-1.14 -26.82,-2.64 -40.88,-3.82 -21.22,-1.78 -42.98,-3.6 -65.32,-5.46 -7.69,-0.65 -14.63,-1.65 -22.6,-2.32l-94.58 -8.43c-1.29,-0.12 -2.39,-0.55 -2.39,1.19zm0.1 -54.11c0,0.27 -0,0.54 -0,0.79l-0.02 8.38c0.37,2.05 1.85,1.4 6.87,1.93 6.23,0.67 18.93,2.36 23.68,2.15 3.27,-0.14 88.33,9.41 90.23,9.61 37.46,4.02 72.49,7.37 106.84,11.06 64.59,6.94 123.64,12.92 179.04,18.88 13.19,1.42 25.65,2.42 38.49,3.8 83.04,8.96 156.71,16.3 222.84,23.48 4.53,0.49 8.66,0.65 13.02,1.13 62.15,6.75 117.95,12.3 168.59,17.83 3.24,0.35 6.15,0.43 9.37,0.78 45.19,4.94 86.4,9.01 124.31,13.17l0 -0.21c-1.28,-0.14 -2.3,-0.47 -3.54,-0.61l-26.39 -2.91c-32.08,-3.54 -66.52,-8.02 -103.64,-11.93 -0.9,-0.09 -1.38,-0.41 -2.24,-0.49 -25.61,-2.53 -52.65,-6.11 -81.06,-9.27l-96.71 -11.05c-0.78,-0.09 -0.91,-0.33 -1.55,-0.47 -4.18,-0.93 -9.12,-1.02 -13.45,-1.5l-42.69 -4.77c-10.02,-1.12 -19.77,-2.52 -30.01,-3.67l-165.3 -18.87c-3.52,-0.39 -6.35,-1.07 -9.81,-1.46 -55.38,-6.23 -114.52,-13.26 -178.98,-20.53 -65.29,-7.37 -135.99,-16.14 -212.83,-24.45 -3.03,-0.33 -4.72,-0.99 -7.83,-1.34 -3.33,-0.37 -7.2,-1.68 -7.21,0.54zm0.39 -211.39c-0,2.15 2.78,1.98 5.83,2.67l98.16 21.71c16.67,3.76 32.08,6.82 48.05,10.43 116.59,26.34 218.43,48.27 307.89,68.56 10.54,2.39 20.55,4.32 30.91,6.67 10,2.27 19.85,4.51 29.56,6.71 9.72,2.2 18.76,3.93 28.15,6.07 13.71,3.11 27.15,6.17 40.31,9.16 4.52,1.03 8.47,1.62 12.89,2.62 64.65,14.7 122.66,27.07 175.55,39.14 6.36,1.45 12.29,2.54 18.46,3.95 40.9,9.34 78.88,17.3 114.02,25.35l0 -0.23c-4.88,-1.12 -9.8,-2.25 -14.78,-3.39 -5.04,-1.16 -9.95,-2.52 -15.16,-3.71 -5.19,-1.19 -10.43,-2.39 -15.73,-3.61 -5.44,-1.25 -10.63,-2.69 -16.15,-3.96 -8.33,-1.91 -16.78,-3.86 -25.39,-5.83 -3,-0.69 -5.66,-1.55 -8.64,-2.24l-27.15 -6.25c-2.61,-0.6 -7,-1.09 -9.28,-2.33 -1.04,-0.56 -38.07,-8.84 -39.11,-9.08 -3.42,-0.79 -6.57,-1.79 -10.1,-2.6l-31.85 -7.34c-7.35,-1.7 -14.48,-3.62 -22.1,-5.38 -7.6,-1.75 -15.3,-3.53 -23.1,-5.33 -8.02,-1.85 -15.72,-3.93 -23.87,-5.81 -68.82,-15.9 -145.9,-34.71 -232.54,-54.8 -11.77,-2.73 -23.18,-5.74 -35.43,-8.58 -103.47,-24.01 -221.6,-52.67 -359.38,-84.73l-0.02 12.17zm156.4 975.08c68.52,-22.75 131.62,-43.8 189.8,-62.7 88.7,-28.8 167.84,-55.81 238.43,-78.67 63.55,-20.58 121.25,-40.38 173.55,-57.26 47.8,-15.43 91.75,-30.59 132.07,-43.57l0 -0.24c-40.28,12.95 -84.19,26.06 -131.95,41.37 -52.28,16.76 -109.96,34.08 -173.5,54.39 -70.57,22.56 -149.68,46.47 -238.36,74.73 -69.38,22.11 -145.76,45.65 -229.97,71.95l39.93 0zm123.07 -1100.02c29.99,10.19 58.85,20.01 86.64,29.61 91.98,31.78 173.68,58.72 245.98,83.77 8.52,2.95 16.92,5.86 25.2,8.73 8.28,2.87 15.99,5.24 24.06,8.04 7.86,2.72 15.62,5.41 23.27,8.07 7.71,2.67 14.95,4.91 22.39,7.48 10.88,3.77 21.55,7.48 32.02,11.11 3.55,1.23 6.66,2.04 10.16,3.25 11.78,4.09 23.32,8.09 34.61,12.02 1.72,0.6 3.04,0.8 4.7,1.37 48.37,16.8 92.28,31.34 132.81,45.45l0 -0.22c-4.92,-1.71 -9.64,-3.59 -14.69,-5.35 -5.03,-1.75 -10.11,-3.53 -15.26,-5.32 -5.27,-1.83 -10.3,-3.83 -15.65,-5.7 -27.38,-9.55 -56.31,-20.15 -86.98,-30.86 -39.11,-13.66 -81.44,-29.29 -126.81,-45.17 -7.96,-2.78 -16.02,-5.61 -24.19,-8.46 -8.34,-2.92 -16.5,-6.08 -25.18,-9.12 -8.63,-3.02 -17.37,-6.09 -26.24,-9.19 -9.12,-3.19 -17.83,-6.56 -27.21,-9.85 -9.39,-3.29 -18.91,-6.63 -28.57,-10.01 -9.94,-3.48 -19.57,-7.19 -29.67,-10.73 -15.43,-5.41 -31.21,-10.95 -47.36,-16.61 -5.64,-1.98 -10.67,-4.08 -16.33,-6.07l-61.13 -21.46c-3.29,-1.15 -5.89,-2.43 -9.04,-3.54 -19.52,-6.85 -39.56,-13.94 -60.15,-21.24l-27.39 0zm-279.73 264.65c129.3,19.53 242.11,35.41 340.88,50.4 13.3,2.02 25.78,3.55 38.73,5.52 94.55,14.38 177.37,26.02 251.24,37.31 4.27,0.65 8.3,0.97 12.65,1.64l37.27 5.7c7.93,1.21 15.52,2.09 23.34,3.3 7.66,1.17 15.22,2.33 22.69,3.48 7.43,1.14 14.36,1.93 21.57,3.04l60.6 9.05c36.69,5.64 71.12,10.22 103.06,15.16 5.16,0.8 10.27,1.59 15.32,2.37 5.05,0.78 9.79,1.29 14.74,2.06l0 -0.22c-40.53,-6.28 -84.57,-13.83 -133.13,-21.39 -3.26,-0.51 -6.15,-1.21 -9.43,-1.72 -9.83,-1.53 -19.85,-3.09 -30.05,-4.69 -6.93,-1.08 -13.61,-2.39 -20.75,-3.5 -7.18,-1.12 -14.45,-2.26 -21.81,-3.41 -7.52,-1.17 -14.8,-2.59 -22.42,-3.78 -64.83,-10.14 -137.46,-22.44 -219.16,-35.28 -11.05,-1.74 -21.82,-3.77 -33.33,-5.58 -11.54,-1.82 -23.27,-3.66 -35.19,-5.54 -12.3,-1.94 -24.16,-4.16 -36.78,-6.15 -108.36,-17.08 -233.12,-37.99 -380.03,-61.25l-0.02 13.52zm-1.27 693.35c138.1,-30.59 257.33,-58.54 360.84,-81.37 91.05,-20.08 171.83,-39.18 243.67,-54.95 64.5,-14.16 122.84,-28.07 175.6,-39.6 48.11,-10.52 92.23,-21.12 132.64,-29.91l0 -0.23c-40.37,8.78 -84.45,17.35 -132.52,27.76 -52.76,11.42 -111.05,22.87 -175.55,36.76 -71.8,15.47 -152.57,31.5 -243.59,51.02 -103.56,22.21 -222.84,46.11 -361.05,75.62l-0.03 14.9zm299.68 142.02c19.83,-7.13 39.14,-14.04 57.95,-20.71 12.17,-4.32 23.48,-8.69 35.17,-12.83 11.43,-4.05 22.69,-8.04 33.77,-11.97 11.01,-3.9 21.3,-7.89 32.05,-11.7 10.43,-3.7 20.71,-7.34 30.84,-10.93 5.14,-1.82 9.67,-3.76 14.64,-5.52l42.97 -15.22c2.46,-0.87 4.33,-1.85 6.67,-2.67l33.5 -11.85c3.66,-1.3 9.72,-2.84 12.84,-4.77 1.37,-0.85 38.68,-13.76 42.95,-15.27 2.03,-0.72 3.74,-1.62 5.88,-2.37l34.27 -12.11c3.75,-1.32 7.16,-2.81 10.95,-4.15 7.23,-2.56 14.37,-5.07 21.43,-7.57 7.08,-2.5 13.66,-5.1 20.54,-7.53 6.72,-2.37 13.37,-4.72 19.93,-7.03 6.56,-2.31 12.76,-4.77 19.24,-7.05 48.11,-16.97 92.03,-33.42 132.49,-47.65l0 -0.23c-4.95,1.74 -9.72,3.19 -14.71,4.94 -5.03,1.77 -10.12,3.56 -15.26,5.36 -5.26,1.85 -10.27,3.36 -15.65,5.25 -5.36,1.88 -10.78,3.78 -16.26,5.71 -5.52,1.94 -10.96,3.59 -16.69,5.61 -5.72,2.01 -11.51,4.04 -17.37,6.09 -2.95,1.04 -5.68,1.74 -8.74,2.81 -3.02,1.06 -6.06,2.12 -9.11,3.19 -6.08,2.13 -12.52,4.81 -18.7,6.56l-33.91 11.6c-1.83,0.64 -3.21,0.85 -5.01,1.49l-31.21 10.92c-3.7,1.3 -6.98,2.16 -10.74,3.48 -7.32,2.56 -14.73,5.15 -22.24,7.78 -7.72,2.7 -15.11,4.99 -22.95,7.73 -7.91,2.76 -15.91,5.56 -24.02,8.39 -8.34,2.92 -16.36,5.42 -24.98,8.43 -71.69,25.04 -151.96,51.69 -242.57,83.25 -24.52,8.54 -49.51,16.87 -75.89,26.05 -4.46,1.55 -8.85,3.04 -13.24,4.51l31.17 0zm-298.06 -1028.25c33.91,8.64 66.59,16.97 98.14,25 10.43,2.66 20,4.67 30.35,7.32 19.76,5.04 39.07,9.96 57.95,14.78 18.68,4.77 36.12,8.82 53.93,13.37 17.3,4.42 34.23,8.74 50.81,12.97 16.35,4.17 31.72,7.72 47.49,11.75 87.25,22.3 164.94,41.16 234.67,59.03 42.65,10.93 82.45,20.55 119.93,30.17 9.1,2.33 17.73,4.27 26.47,6.52 8.6,2.21 17.07,4.39 25.42,6.53 8.32,2.14 16.12,3.87 24.2,5.95 7.91,2.04 15.7,4.04 23.39,6.02 7.55,1.94 14.78,3.55 22.2,5.46 7.23,1.86 14.36,3.7 21.39,5.51 3.54,0.91 6.72,1.48 10.22,2.39l30.04 7.74c1.64,0.42 3.01,0.54 4.69,0.97l31.28 8.07c0.52,0.13 0.61,-0.05 1.06,0.03 2.91,0.53 5.95,1.54 8.83,2.29l17.34 4.48c2.88,0.74 5.57,1.22 8.35,1.93l24.23 6.26c2.66,0.69 5.11,1.11 7.77,1.8 5.13,1.33 10.2,2.64 15.22,3.94 5.04,1.3 9.8,2.32 14.7,3.59l0 -0.21c-4.85,-1.26 -9.74,-2.52 -14.7,-3.81 -5.05,-1.31 -9.95,-2.79 -15.14,-4.13 -32.05,-8.32 -66.48,-17.94 -103.64,-27.6 -26.46,-6.89 -54.3,-14.63 -83.84,-22.33 -7.73,-2.01 -15.28,-4.24 -23.15,-6.3 -7.98,-2.08 -16.08,-4.2 -24.31,-6.34 -8.44,-2.2 -16.59,-4.61 -25.28,-6.87 -8.77,-2.29 -17.69,-4.62 -26.73,-6.98 -9.16,-2.39 -18.19,-5.04 -27.73,-7.53 -9.59,-2.5 -19.33,-5.05 -29.22,-7.64 -5.1,-1.33 -9.74,-2.85 -14.93,-4.2l-48.04 -12.57c-2.81,-0.74 -5.19,-1.67 -8.12,-2.44l-59.13 -15.47c-1.06,-0.28 -1.24,-0.63 -2.18,-0.92 -6.01,-1.9 -12.4,-3.24 -18.56,-4.85 -12.78,-3.35 -25.79,-6.76 -39.05,-10.24 -6.86,-1.8 -13.37,-3.85 -20.17,-5.63l-64.34 -16.87c-7.63,-2 -14.76,-4.24 -22.67,-6.32 -15.58,-4.09 -31.48,-8.27 -47.71,-12.53 -16.87,-4.43 -33.3,-9.13 -50.79,-13.72 -17.67,-4.65 -35.73,-9.39 -54.19,-14.24 -19.03,-5 -37.66,-10.32 -57.65,-15.57 -41.22,-10.84 -83.69,-22.45 -128.79,-34.32l-0.03 15.77zm-0.57 306.49c25.09,2.26 48.49,3.93 72.17,6.06 22.94,2.07 45.29,4.09 67.08,6.06 5.41,0.49 9.98,0.48 15.48,0.98 113.6,10.28 212.77,18.17 300.52,26.17 7.22,0.66 13.78,0.92 20.91,1.57 13.78,1.26 27.29,2.5 40.54,3.71 6.7,0.61 12.76,0.84 19.3,1.44 49.21,4.51 94.56,8.07 137.09,12l51.4 4.46c2.47,0.23 4.49,0.14 6.89,0.36 35.95,3.33 69.38,5.92 101.07,8.87l38.76 3.37c1.62,0.15 3.78,0.66 5.32,0.48 3.25,-0.36 6.93,0.43 10.3,0.74 36.45,3.41 70.21,5.92 101.71,8.89 1.43,0.13 2.62,0.04 4,0.17l20.13 1.9c2.61,0.25 5.09,0.28 7.73,0.53 10.2,0.97 19.98,1.69 29.67,2.61l0 -0.2c-9.66,-0.92 -19.42,-2.05 -29.6,-3.02 -2.62,-0.25 -5.03,-0.69 -7.66,-0.94l-16.02 -1.54c-2.8,-0.27 -5.39,-0.72 -8.17,-0.99 -22.74,-2.19 -46.47,-4.91 -71.71,-7.35l-37.68 -3.87c-1,-0.1 -1.61,-0.4 -2.59,-0.49 -44.08,-4.14 -92.24,-9.87 -145.25,-14.91 -1.26,-0.12 -2.03,-0.48 -3.31,-0.6 -37.27,-3.56 -77.07,-8.14 -119.63,-12.33 -23.22,-2.29 -47.11,-4.95 -72.27,-7.44 -6.39,-0.63 -12.48,-1.56 -19.11,-2.21l-40.71 -4.03c-7.13,-0.71 -13.76,-1.7 -21.09,-2.43 -59.93,-5.95 -124.6,-13.1 -195.89,-20.21l-104.05 -10.79c-5.43,-0.54 -10.11,-1.42 -15.77,-1.99 -21.79,-2.18 -44.13,-4.42 -67.05,-6.72 -23.7,-2.37 -47.3,-5.19 -72.49,-7.71l-0.04 19.39z"/>
  <path class="fil1" d="M4833.34 390.16l-120.15 12.83c-4.52,0.46 -12.6,0.63 -16.63,1.83 -4.43,1.31 -56.87,6.16 -62.47,6.73 -20.19,2.07 -39.05,4.41 -58.29,6.38 -36.9,3.79 -71.41,7.7 -105.12,11.15l-70.03 7.52c-7.37,0.75 -15.01,1.15 -22.18,2.25 -1,0.15 -1.21,0.48 -2.35,0.6l-39.44 4.01c-13.65,1.39 -26.46,3.02 -39.56,4.35 -25.3,2.57 -49.15,5.3 -72.62,7.68 -22.41,2.28 -44.04,5.01 -65.08,6.89 -1.23,0.11 -2.25,0.52 -3.64,0.66l-26.43 2.67c-9.83,0.99 -19.1,2.2 -28.59,3.16 -36.06,3.63 -69.65,7.7 -101.51,10.72 -1.03,0.1 -1.67,0.42 -2.72,0.52 -28.87,2.85 -56.15,6.09 -81.97,8.65 -6.51,0.65 -12.67,1.48 -18.97,2.11 -6.21,0.62 -12.34,1.23 -18.39,1.83 -0.82,0.08 -1.37,0.37 -2.11,0.43 -11.02,0.94 -21.86,2.37 -32.33,3.41 -21.67,2.14 -42.11,4.56 -61.78,6.5l0 0.19c1.18,-0.11 2.28,-0.02 3.53,-0.15 18.5,-1.81 37.84,-3.29 58.1,-5.26 5.63,-0.55 11.11,-0.87 16.84,-1.43 5.81,-0.56 11.7,-1.13 17.67,-1.71 1.52,-0.15 2.84,-0.06 4.43,-0.21 36.19,-3.5 75.25,-6.57 117.81,-10.67 2,-0.19 3.66,-0.1 5.7,-0.3 30.11,-2.89 61.99,-5.41 95.83,-8.64 9.47,-0.9 18.75,-1.51 28.46,-2.43 9.9,-0.94 19.96,-1.9 30.21,-2.87 2.7,-0.26 4.92,-0.18 7.62,-0.43 63.18,-6 133.18,-11.68 211.67,-19.08 3.8,-0.36 6.96,-0.31 10.7,-0.66 89.75,-8.43 191.22,-16.8 307.77,-27.66 5.7,-0.53 10.59,-0.56 16.12,-1.08l115.03 -10.25c1.59,-0.15 3.2,-0.31 4.81,-0.44l0.05 -0 0 -19.81zm0 585.28c-6.4,-1.27 -12.08,-2.12 -18.46,-3.47 -5.78,-1.22 -16.11,-4.16 -21.16,-4.21 -4.86,-0.04 -15.32,-3.05 -20.72,-4.19 -6.94,-1.46 -13.04,-2.33 -20.08,-3.82 -13.46,-2.85 -25.94,-5.05 -39.15,-7.86 -3.43,-0.72 -5.8,-0.8 -9.3,-1.55 -21.87,-4.64 -43.02,-8.31 -63.78,-12.72l-25.88 -5.1c-1.43,-0.3 -2.87,-0.65 -4.29,-0.93 -1.57,-0.3 -2.19,-0.03 -3.98,-0.43 -22.4,-4.96 -43.49,-8.5 -64.77,-13.04l0 0.38c1.25,0.27 2.07,0.84 3.68,1.17 19.71,4.06 39.98,9.33 60.83,13.8 3.08,0.66 5.43,1.58 8.26,2.17l17.35 3.72c3.11,0.67 5.29,1.54 8.53,2.23 12.12,2.61 23.52,5.46 35.89,8.13 6.44,1.39 11.92,2.98 18.38,4.37 6.15,1.33 13.05,2.54 18.8,4.44 5.62,1.86 13.53,2.94 19.49,4.22 19.28,4.16 39.89,9.61 60.56,13.94l39.83 9.45 0 -10.72zm0 -690.19c-75.52,12.12 -144.71,24.77 -209.19,35 -7.96,1.26 -15.09,2.79 -23.01,4.05 -7.7,1.22 -15.33,2.43 -22.88,3.63 -3.81,0.6 -6.82,1.46 -10.7,2.08 -4.59,0.72 -30.5,4.49 -32.61,5.32 -2.74,1.08 -26.37,4.39 -31.04,5.13 -3.63,0.57 -6.51,1.4 -9.96,1.94 -6.73,1.06 -13.39,2.11 -20,3.15 -6.74,1.06 -12.74,2.37 -19.26,3.39l0 0.36c52.8,-8.3 109.04,-15.61 170.01,-25.14 8.15,-1.27 15.44,-2.01 23.68,-3.3 8.23,-1.28 16.55,-2.58 24.95,-3.89l51.89 -7.68c2.24,-0.37 3.59,-0.12 6.12,-0.52l41.56 -6.46c2.75,-0.43 4.22,-0.19 6.78,-0.61l53.68 -7.88 0 -8.57zm0 304.36c-96.62,-0.32 -183.77,0.94 -262.64,0.57 -18.81,-0.09 -36.8,0.21 -54.95,0.12 -9.07,-0.04 -17.28,0.28 -26.09,0.24 -8.57,-0.04 -17.05,-0.09 -25.43,-0.13 -8.36,-0.04 -16.09,0.28 -24.39,0.23 -8.02,-0.04 -15.96,-0.08 -23.81,-0.13 -4.03,-0.02 -7.33,0.31 -11.32,0.29 -11.46,-0.07 -22.76,-0.13 -33.87,-0.19l0 0.34c1.96,0.01 3.23,0.36 5.27,0.37l16.66 0.1c7.44,0.05 15.6,-0.59 22.85,0.47 2.95,0.43 19.29,0.15 23.78,0.17 4.01,0.03 8.04,0.05 12.09,0.08 4.33,0.03 8.1,0.41 12.29,0.43 8.38,0.06 16.85,0.11 25.43,0.17 8.82,0.06 17.25,0.49 26.06,0.55 8.97,0.06 18.04,0.12 27.22,0.19 9.48,0.07 18.26,0.51 27.94,0.57 9.54,0.07 19.19,0.14 28.96,0.2 10.01,0.07 19.59,0.54 30.02,0.62 62.83,0.46 130.62,2.22 203.92,2.84l0 -8.1zm0 -28.84c-0.9,0.13 -2.03,0.31 -3.44,0.48 -4.06,0.49 -34.69,0.43 -40.91,0.5 -5.48,0.06 -10.01,0.55 -15.61,0.61 -40.92,0.46 -79.54,1.73 -116.99,2.14 -4.64,0.05 -8.42,0.49 -13.15,0.54l-26.78 0.28c-4.52,0.05 -8.21,0.48 -12.8,0.53 -33.74,0.35 -65.46,1.43 -96.59,1.74 -3.89,0.04 -7.01,0.44 -10.94,0.48l-22.29 0.21c-3.78,0.04 -6.86,0.43 -10.69,0.46 -14.4,0.13 -27.93,0.62 -41.68,0.74l-0 0.35c13.72,-0.12 27.29,0.11 41.69,-0.01 3.7,-0.03 6.67,0.31 10.46,0.28l22.29 -0.19c3.96,-0.03 7.13,0.31 11.17,0.28 31.11,-0.25 62.84,0.26 96.59,0.01 4.46,-0.04 8,0.33 12.53,0.3l26.76 -0.2c4.76,-0.04 8.57,0.35 13.43,0.31 37.45,-0.27 76.04,0.3 116.99,0.03 5.44,-0.04 9.77,0.38 15.28,0.34 5.06,-0.04 38.13,-0.58 40.77,-0.07 1.43,0.28 2.38,0.24 3.93,0.24l0 -10.39zm-433.6 539.3l-28.19 -9.72c8.73,3.16 17.52,6.41 26.41,9.72l1.78 0zm433.6 -1006.62c-56.83,14.95 -109.49,29.18 -160.02,42.44 -48.71,12.78 -94.72,24.86 -138.23,36.28 -21.01,5.51 -40.75,11.06 -60.7,16.29l-157.67 41.34c-2,0.52 -3.46,1.23 -5.56,1.78l-121.9 31.93c-12.84,3.36 -25.04,6.85 -37.28,10.05 -23.66,6.19 -46.38,12.14 -68.24,17.86 -21.12,5.53 -41.13,11.02 -60.68,16.13l0 0.26c178.53,-46.63 429.68,-110.81 810.28,-209.85l0 -4.5zm-224.9 1006.62c-28.4,-8.74 -55.77,-17.12 -82.44,-25.55 -5.54,-1.75 -10.22,-2.85 -15.69,-4.59 -10.58,-3.35 -21.03,-6.65 -31.34,-9.91 -5.28,-1.67 -9.94,-2.78 -14.97,-4.37 -9.89,-3.13 -19.65,-6.22 -29.29,-9.28 -9.62,-3.05 -18.66,-5.56 -28.16,-8.57 -35.98,-11.41 -69.87,-21.48 -102.58,-31.86l0 0.32c1.92,0.61 3.55,1.45 5.67,2.13 47.79,15.19 98.92,32.49 154.13,50.08l54.1 17.61c1.34,0.43 2.7,0.85 4.05,1.28 1.54,0.49 2.14,1.09 3.82,1.61 21.13,6.55 42.99,13.7 65.5,21.11l17.2 0zm86.41 -1100.02l-25.63 8.81c-3.7,1.25 -6.31,2.54 -9.96,3.77 -52.64,17.77 -101.4,35 -147.93,50.69l-56.72 19.48c-2.82,0.95 -4.82,1.98 -7.61,2.92 -10.31,3.47 -20.48,6.89 -30.5,10.27 -9.91,3.33 -19.29,6.83 -29.07,10.12 -18.9,6.36 -36.77,12.7 -54.76,18.75l-44.69 15.34c-2.21,0.74 -3.78,1.59 -6,2.33l0 0.32c33.54,-11.25 68.32,-22.25 105.45,-34.69l51.61 -16.93c2.78,-0.93 4.76,-1.23 7.53,-2.16 10.45,-3.5 21.04,-7.04 31.8,-10.63 10.93,-3.65 21.56,-6.84 32.96,-10.65 22.98,-7.68 45.97,-14.98 70.45,-23.15l67.07 -22c3.6,-1.2 6.19,-1.65 9.84,-2.87 19.56,-6.52 39.48,-13.06 59.85,-19.71l-23.68 0zm-451.32 1100.02c-10.5,-4.18 -20.78,-8.26 -31.04,-12.43l0 0.3c9.71,3.95 19.45,8.01 29.38,12.13l1.66 0zm450.7 0c-11.19,-3.28 -22.26,-6.53 -33.35,-9.86 -6.63,-1.99 -12.61,-3.38 -19.33,-5.4 -40.98,-12.32 -80,-23.27 -117.2,-34.47 -3.07,-0.93 -5.53,-1.28 -8.34,-2.13 -32.55,-9.92 -63.44,-18.39 -93.29,-27.4 -9.92,-2.99 -19.2,-5.44 -28.71,-8.32 -18.67,-5.64 -36.34,-10.63 -54.15,-16.02 -2.33,-0.7 -3.97,-0.87 -6.29,-1.57l-43.88 -12.63 43.51 13.51c2.24,0.67 4.07,1.57 6.48,2.3 17.8,5.4 35.43,11.09 54.13,16.76 23.59,7.16 48.39,15.41 73.77,23.13 5.47,1.67 10.35,3.51 15.73,5.15 10.72,3.26 21.69,6.37 32.71,9.94 1.42,0.46 2.13,1.05 3.79,1.54l29.85 9.09c6.02,1.83 11.29,3.82 17.26,5.64l74.06 22.98c6.83,2.08 12.77,4.3 19.61,6.39l4.48 1.37 29.17 0zm139.1 -1036.87c-0.7,0.24 -1.44,0.48 -2.17,0.69l-7.19 2.45c-4.79,1.68 -10.38,2.89 -15.21,4.23l-57.8 16.11c-9.61,2.68 -18.42,5.56 -27.55,8.1 -17.91,4.98 -35.45,9.87 -52.64,14.65 -17.08,4.75 -33.04,9.6 -49.56,14.19 -61.99,17.24 -119.01,33.85 -172.6,48.72 -6.59,1.83 -12.41,3.8 -18.82,5.58l-45.64 12.66c-3.16,0.87 -5.59,1.89 -8.67,2.74 -11.52,3.19 -22.86,6.34 -34.02,9.43 -11.17,3.09 -21.58,6.31 -32.41,9.31 -41.06,11.37 -79.34,22.58 -115.77,32.65l51.31 -13.57c1.43,-0.4 2.19,-0.28 3.55,-0.67 19.58,-5.59 39.67,-10.62 60.38,-16.33 43.66,-12.03 89.82,-24.05 139.66,-37.75l70.59 -19.04c2.89,-0.79 8.06,-2.67 10.67,-2.78 2.88,-0.11 39.85,-10.72 43.99,-11.85 15.56,-4.27 30.69,-8.02 46.69,-12.41 65.65,-18.01 136.07,-36.48 213.22,-57.58l0 -9.54zm0 166.67c-123.83,23.48 -232,45.13 -327.74,63.19 -15.17,2.86 -29.39,5.91 -44.06,8.67 -14.27,2.69 -28.27,5.33 -42.01,7.92 -6.81,1.28 -12.97,2.79 -19.73,4.06 -4.8,0.91 -54.95,9.95 -56.93,10.85 -2.41,1.1 -48.06,9.22 -52.55,10.07 -5.77,1.09 -10.93,2.37 -16.55,3.43 -10.86,2.04 -21.55,4.04 -32.05,6.02 -10.47,1.96 -20.27,4.11 -30.36,6 -19.69,3.69 -38.46,7.5 -56.84,10.95l0 0.29c56.72,-10.61 119.02,-21.31 188.08,-34.17 12.36,-2.3 24.37,-4.2 37.22,-6.59 12.99,-2.42 26.23,-4.88 39.71,-7.39 6.91,-1.28 13.21,-2.1 20.27,-3.41l54.19 -10.07c3.43,-0.64 8.02,-1.91 11.35,-2.09 7.02,-0.38 15.21,-2.47 22.78,-3.87 15.88,-2.95 32.1,-5.96 48.65,-9.03 8.63,-1.6 16.56,-2.68 25.22,-4.29 17.35,-3.22 35.06,-6.5 53.17,-9.85 18.74,-3.47 37,-6.44 56.45,-10.04 19.78,-3.66 40,-7.41 60.7,-11.23 20.01,-3.7 39.96,-7 61.02,-10.85l0 -8.55zm-489 870.2c-13.19,-4.78 -26.13,-9.5 -38.88,-14.31l0 0.32c11.72,4.42 23.72,9.18 35.96,13.99l2.92 0zm-50.8 0c-3.33,-1.27 -6.66,-2.55 -10.01,-3.85 -11.75,-4.59 -23.29,-9.11 -34.63,-13.54 -5.54,-2.17 -10.76,-3.9 -16.32,-6.08 -3.84,-1.5 -45.77,-18.24 -47.26,-18.41 -2.24,-0.26 -39.85,-15.39 -43.79,-16.93 -4.79,-1.88 -9.25,-3.34 -13.84,-5.14l0 0.28c9.23,3.62 18.62,7.3 28.16,11.04 9.79,3.84 19.44,7.91 29.43,11.83 10.18,4 20.54,8.06 31.08,12.19 10.83,4.25 21.34,8.68 32.55,13.08 12.85,5.05 26,10.23 39.41,15.54l5.22 0zm94.58 -1100.02c-84.5,34.97 -159.17,66.59 -226.17,94.07l0 0.28c2.31,-0.94 4.25,-1.45 6.66,-2.44l35.18 -14.41c4.98,-2.04 9.49,-3.59 14.5,-5.64 9.96,-4.08 20.09,-8.23 30.38,-12.44 10.55,-4.32 20.78,-8.2 31.72,-12.67 36.55,-14.96 74.97,-30.22 115.83,-46.76l-8.11 0zm445.22 34.43l-80.75 24.18c-4.19,1.23 -7.35,2.59 -11.28,3.74 -30.52,8.94 -59.11,17.78 -87.54,26.13 -26.76,7.85 -53.67,16.54 -78.77,23.9 -25.01,7.33 -48.6,14.64 -72.21,21.53 -2.93,0.85 -5.26,1.91 -8.34,2.81 -35.92,10.51 -70.21,21.25 -102.91,30.8 -5.16,1.51 -9.74,3.19 -14.68,4.62 -19.24,5.62 -37.38,11.25 -55.6,16.56 -4.61,1.35 -8.65,2.85 -13.09,4.14l-38.28 11.78c33.86,-9.85 69.36,-19.19 106.97,-30.1l44.74 -12.64c5.33,-1.54 9.99,-2.54 15.41,-4.11 21.59,-6.26 43.11,-12.13 66,-18.75 5.9,-1.71 11.14,-2.85 17.21,-4.61l73.63 -20.91c6.57,-1.9 12.5,-3.21 19.31,-5.18l35.55 -10.27c2.13,-0.63 3.05,-0.45 5.04,-1.03 42.64,-12.56 87.1,-24.29 134.16,-37.84 15.2,-4.38 30.04,-8.28 45.42,-12.64l0 -12.13zm0 1053.48c-198.27,-53.77 -357.76,-95.94 -489.87,-131.87 -7.62,-2.07 -14.59,-3.64 -22.08,-5.68 -21.61,-5.88 -42.55,-11.58 -62.83,-17.1 -13.14,-3.58 -25.74,-6.7 -38.48,-10.17 -12.43,-3.39 -24.6,-6.7 -36.54,-9.96 -11.76,-3.2 -22.85,-5.94 -34.19,-9.03 -11.06,-3.02 -21.92,-5.98 -32.58,-8.88 -10.56,-2.88 -20.57,-5.34 -30.69,-8.1 -9.91,-2.7 -19.65,-5.36 -29.22,-7.98l0 0.26c81.24,22.19 175.91,49.28 286.97,79.72 80.05,21.95 169.88,47.32 271.61,75.25 22.18,6.09 44.15,12.54 67.62,18.99l112.89 31.03c3.67,1.01 6.07,2.12 9.64,3.09l25.75 7.09c0.59,0.17 1.31,0.45 2,0.67l0 -7.33zm0 -749.58c-39.39,5.21 -77.63,11.04 -114.03,15.8 -7.65,1 -14.28,2.28 -21.87,3.27l-37.06 4.82c-2.01,0.25 -2.93,0.82 -5.08,1.08 -53.15,6.53 -103.18,14.58 -150.07,20.65 -44.32,5.74 -85.9,12.17 -125.52,17.27 -4.94,0.64 -9.28,1.53 -14.04,2.14l-54.37 7.32c-4.43,0.57 -8.41,1.4 -12.89,1.98l-18.97 2.43c-2.26,0.29 -3.93,0.82 -6.09,1.09l0 0.31c16.79,-2.14 33.47,-3.94 51.1,-6.19 4.6,-0.58 8.67,-0.78 13.22,-1.35l56.58 -6.84c5,-0.63 9.62,-0.87 14.83,-1.54l22.95 -2.91c2.83,-0.36 4.86,-0.26 7.67,-0.61 21.47,-2.71 42.85,-5.05 65.54,-7.91 5.92,-0.75 11.08,-1.03 17.02,-1.77 38.78,-4.88 79.5,-9.21 122.42,-14.59 3.69,-0.46 6.35,-0.39 10.07,-0.86 28.26,-3.54 56.53,-6.65 86.7,-10.42 7.87,-0.98 14.72,-1.41 22.68,-2.4l69.23 -8.2 0 -12.58zm0 276.89c-34.05,-0.54 -67.93,-0.32 -99.48,-0.89 -32.28,-0.58 -62.54,-0.71 -92.65,-1.26 -7.26,-0.13 -13.96,0.15 -21.33,0.01l-81.09 -1.11c-6.56,-0.12 -12.45,0.15 -19.04,0.02l-32.41 -0.61c-1.76,-0.04 -2.87,0.3 -4.32,0.3 -11.82,0.01 -23.57,-0.46 -35.04,-0.69 -5.82,-0.11 -10.92,0.15 -16.7,0.04l-64.16 -0.91c-5.29,-0.11 -9.9,0.14 -15.12,0.04 -19.85,-0.39 -38.58,-0.44 -57.35,-0.82 -4.72,-0.09 -8.82,0.14 -13.43,0.04l-39.34 -0.18c17.21,0.36 34.51,1.17 52.77,1.41 1.24,0.02 1.81,0.38 3.13,0.39l24.93 0.54c4.95,0.1 9.42,0.53 14.3,0.63l61.36 1.67c5.56,0.12 10.71,0.58 16.16,0.7 22.43,0.5 44.89,1.35 68.69,1.88 24,0.54 49.68,1.87 75.31,2.45 27.09,0.62 54.38,1.63 83.47,2.3 3.89,0.09 6.74,0.56 10.61,0.65 53.59,1.25 110.7,3.44 171.69,4.89 2.18,0.06 4.7,-0.04 6.84,0.17 0.45,0.04 1.29,0.29 2.17,0.48l0 -12.13zm0 56.73c-45.42,-2.16 -87.88,-3.79 -129.29,-5.78 -20.55,-0.99 -39.71,-1.5 -59.31,-2.45 -19.06,-0.92 -37.69,-1.83 -55.91,-2.71 -4.63,-0.22 -8.48,-0.02 -12.89,-0.23l-63.84 -3.11c-8.33,-0.41 -15.85,-0.41 -23.91,-0.8 -15.6,-0.76 -30.89,-1.51 -45.87,-2.24 -14.85,-0.72 -28.83,-1.06 -43.19,-1.76 -53.82,-2.65 -103.4,-4.44 -149.88,-6.75l-56.15 -2.49c-2.48,-0.13 -5.32,-0.52 -7.54,-0.13 -1.34,0.24 -27.51,-1.34 -29.56,-1.44 -9.69,-0.48 -18.87,-0.66 -28.17,-1.13l0 0.28c37.94,1.92 78.12,4.55 121.42,6.76 11.43,0.58 22.52,1.47 34.32,2.07 11.91,0.61 24.03,1.24 36.39,1.87 6.24,0.32 12.19,0.95 18.68,1.28l39.75 2.05c7,0.36 13.56,1.04 20.55,1.41 120.6,6.25 262.62,15.22 434.4,24.3l0 -9zm0 25.66c-64.17,-3.92 -123.36,-6.35 -179.41,-9.85 -7.05,-0.44 -13.09,-0.42 -20,-0.85l-58.28 -3.26c-36.29,-2.28 -71.79,-3.41 -104.88,-5.51 -5.42,-0.35 -10.79,-0.69 -16.13,-1.03 -5.56,-0.35 -10.36,-0.3 -15.78,-0.65l-23.16 -1.48c-2.74,-0.18 -4.7,0.04 -7.42,-0.13 -8.82,-0.57 -21.01,-1.8 -29.53,-1.55 -4.49,0.13 -9.71,-0.63 -14.22,-0.92 -4.74,-0.3 -9.45,-0.58 -14.12,-0.91 -1.37,-0.1 -2.06,0.19 -3.2,0.14l-24.02 -1.56c-4.39,-0.28 -8.46,-0.22 -12.95,-0.52 -4.38,-0.28 -8.73,-0.57 -13.04,-0.85 -4.45,-0.29 -8.29,-0.22 -12.63,-0.5 -4.21,-0.28 -8.39,-0.55 -12.56,-0.82l0 0.31c29.23,1.91 60.17,4.92 92.32,7.04 4.77,0.31 9.22,0.95 14.21,1.28 39.69,2.63 81.21,6.62 125.77,9.45 2.76,0.18 5.18,0.72 8.2,0.93 8.79,0.59 17.66,1.19 26.64,1.79 6.07,0.41 11.68,1.17 18.02,1.59 6.19,0.42 12.42,0.84 18.7,1.26 6.48,0.44 12.15,1.21 18.62,1.65 52.88,3.58 109.53,8.68 169.94,12.82 7.95,0.54 15.3,1.48 23.61,2.05 8.12,0.56 16.32,1.12 24.58,1.69 3.99,0.28 8.59,0.31 12.54,0.86 1.91,0.26 3.38,0.69 5.82,0.85 0.82,0.06 1.61,0.17 2.33,0.26l0 -13.6zm0 -248.97c-63.95,4.65 -123.04,10.16 -179.05,14.11 -3.46,0.24 -6.16,0.84 -9.79,1.1l-30.3 2.15c-6.61,0.47 -12.44,1.28 -19.07,1.75 -6.44,0.46 -12.82,0.91 -19.15,1.35 -6.42,0.45 -12.07,1.24 -18.2,1.67 -47.32,3.33 -92.05,7.57 -134.1,10.51 -5.26,0.37 -9.87,1.04 -15.13,1.4 -5.04,0.35 -10.05,0.7 -15.02,1.04 -5.11,0.35 -9.63,1.01 -14.52,1.35 -37.64,2.61 -72.89,6.02 -106.77,8.34l0 0.31c4.21,-0.29 7.91,-0.22 12.22,-0.51 29.89,-2.04 61.44,-3.19 94.16,-5.39l44.65 -2.66c5.32,-0.35 10,-0.32 15.45,-0.68 5.22,-0.35 10.48,-0.7 15.78,-1.06 5.56,-0.37 10.69,-0.35 16.12,-0.72l29.36 -1.96c1.74,-0.13 2.45,0.23 4.19,0.1 23.39,-1.77 46.74,-2.73 71.56,-4.37 3.33,-0.22 5.76,0.01 9,-0.2l29.21 -1.93c6.84,-0.45 12.83,-0.44 19.8,-0.91 34.27,-2.25 70.01,-3.75 107.21,-6.18 29.59,-1.93 60.8,-3.15 92.41,-5.13l0 -13.5zm-49.8 651.38l-60.91 -17.15c-4.1,-1.17 -11.34,-3.83 -15.01,-4.17 -4.27,-0.4 -52.34,-14.65 -57.67,-16.18 -18.76,-5.36 -36.26,-9.96 -54.16,-15.08 -67.16,-19.21 -128.48,-36.02 -185.69,-52.41 -6.78,-1.94 -13.24,-3.44 -20.07,-5.4 -13.2,-3.79 -26.17,-7.5 -38.88,-11.15 -6.41,-1.83 -12.28,-3.19 -18.65,-5.02 -47.49,-13.63 -91.44,-25.63 -132.86,-37.53l-50.17 -14.13c-2.44,-0.7 -4.41,-0.98 -6.86,-1.69l0 0.28c37.6,10.83 77.29,22.87 120.04,35.22l60.52 17.79c2.96,0.86 6.38,1.56 9.32,2.69l37.63 11.21c13.3,3.85 26.23,7.93 39.97,11.91 57.07,16.51 118.29,34.98 185.42,54.44 8.79,2.55 17.17,5.37 26.35,8.04l55.94 16.22c9.96,2.89 19.15,5.97 29.41,8.95 14.78,4.29 29.71,8.69 44.87,13.16l31.45 0zm49.8 -955.74c-65.93,15.57 -126.57,31.04 -183.92,44.5 -7.21,1.69 -13.54,3.57 -20.72,5.26 -6.88,1.61 -13.7,3.21 -20.48,4.8 -6.94,1.63 -12.96,3.43 -19.71,5.01 -32.1,7.52 -62.91,15.48 -92.56,22.41 -44.86,10.48 -87.91,21.93 -127.76,31.21 -4.89,1.14 -9.74,2.27 -14.57,3.39 -4.89,1.14 -9.2,2.47 -14.09,3.61 -4.7,1.09 -9.36,2.18 -13.99,3.25 -4.76,1.11 -8.9,2.4 -13.52,3.47l-20.05 4.66c-2.22,0.51 -4.04,1.26 -6.38,1.8l-19.27 4.47c-2.32,0.54 -4.14,1.27 -6.3,1.77l0 0.31c34.38,-7.96 70.11,-15.24 108.36,-24.07 2.65,-0.61 4.7,-0.74 7.22,-1.32l22.69 -5.23c5.26,-1.21 9.93,-1.94 15.33,-3.19 5.25,-1.21 10.54,-2.43 15.87,-3.65 5.56,-1.28 10.45,-2.05 16.01,-3.33 39.08,-8.99 80.53,-17.39 124.01,-27.37 45.97,-10.54 95.01,-20.56 146.78,-32.39 7.81,-1.79 14.88,-2.98 22.98,-4.83 7.9,-1.81 15.87,-3.63 23.9,-5.46 8.4,-1.92 15.78,-3.16 24.24,-5.09l45.94 -10.01 0 -13.97zm0 -137.76l-80.07 25.17c-9.22,2.85 -17.62,5.87 -26.41,8.59 -34.62,10.69 -67.01,21.1 -99.05,30.98 -7.77,2.4 -14.8,4.97 -22.58,7.37 -44.18,13.62 -86.07,27.28 -125.79,39.51 -6.63,2.04 -12.46,4.2 -18.96,6.2 -24.89,7.66 -48.36,15.22 -71.7,22.4 -3.06,0.94 -5.37,1.99 -8.33,2.9 -35.63,10.94 -69.48,21.99 -101.74,31.88 -4.9,1.5 -9.35,3.18 -14.28,4.69 -18.85,5.78 -36.72,11.56 -54.57,17.02l0 0.3c1.25,-0.38 1.93,-0.27 3.05,-0.62l23.41 -7.16c4.71,-1.44 8.91,-2.41 13.66,-3.87 63.11,-19.28 132.99,-38.91 210.28,-62.43 31.87,-9.7 65.45,-19.16 100.35,-29.76 7.43,-2.26 14.08,-3.89 21.61,-6.17l39.61 -12.02c2.32,-0.71 3.55,-0.65 5.7,-1.32 32.06,-10 64.49,-19.15 99.02,-29.61 9.07,-2.75 17.36,-4.83 26.39,-7.56l80.41 -23.92 0 -12.56zm-392.61 -6.52c-24.71,9.81 -48.08,19.4 -71.27,28.58 -146.8,58.15 -265.56,105.73 -363.88,144.63 -12.69,5.02 -24.85,10.08 -37,14.88l-96.9 38.75c40.67,-16.06 84.95,-33.3 133.9,-52.62 6.54,-2.58 12.84,-4.82 19.49,-7.44 110.28,-43.49 246.15,-96.45 418.18,-164.22l6.56 -2.56 -9.08 0zm392.61 837.17c-45.71,-6.22 -88.97,-11.4 -130.74,-17.45 -2.55,-0.37 -4.56,-0.2 -7.41,-0.59l-52.36 -7.18c-19.36,-2.66 -37.48,-4.74 -56.04,-7.3 -35.45,-4.87 -68.7,-9.06 -101.29,-13.55 -8.03,-1.11 -15.4,-1.76 -23.09,-2.82l-44.97 -6.2c-7.38,-1.02 -14.03,-1.59 -21.29,-2.59 -27.71,-3.83 -53.8,-7.1 -79.39,-10.64l-62.58 -8.34c-2.46,-0.34 -6.32,-1.31 -8.58,-1.14 -2.79,0.21 -29.37,-3.82 -32.71,-4.28 -10.65,-1.48 -20.71,-2.58 -31.05,-4.02 -20.06,-2.79 -39.1,-5.15 -57.94,-7.78l0 0.28c4.71,0.66 9.02,1.54 13.75,2.2l29.09 4.07c5.04,0.7 9.75,1.66 14.95,2.38 20.79,2.91 41.83,6.16 64.04,9.28l68.69 9.95c1.07,0.16 1.3,0.51 2.31,0.68 12.6,2.06 25.56,3.59 38.67,5.43 13.49,1.9 26.8,4.11 40.94,6.1 28.8,4.06 58.26,8.57 89.6,13 8.09,1.15 15.53,2.56 23.83,3.74 59.67,8.44 123.92,18.33 193.7,28.24 39.66,5.63 81.26,12.18 124.88,18.17 1.75,0.24 3.54,0.85 4.98,1.19l0 -10.83zm0 -634.96c-1.61,0.37 -3.83,0.93 -6.88,1.55 -3.98,0.81 -7.95,1.62 -11.89,2.43 -4.07,0.83 -7.16,1.9 -11.4,2.77l-142.02 28.96c-13.55,2.76 -26,5.7 -39.06,8.36l-107.76 21.95c-11.3,2.3 -21.67,4.78 -32.64,7.02 -31.5,6.41 -61.72,12.56 -90.72,18.46 -9.54,1.94 -18.35,4.07 -27.68,5.96 -26.8,5.45 -52.59,10.69 -77.43,15.73 -8.08,1.65 -15.63,3.49 -23.6,5.11 -23.09,4.69 -45.37,9.2 -66.87,13.57 -7.02,1.43 -13.67,3.07 -20.64,4.48 -20.09,4.07 -39.52,8.01 -58.32,11.82 -6.1,1.24 -11.99,2.7 -18.08,3.93l-51.32 10.39c-2.82,0.57 -5.24,1.32 -7.99,1.88l-53.48 11.06c2.46,-0.5 4.59,-0.68 7.1,-1.19l54.25 -10.95c2.74,-0.56 5.26,-0.8 8.11,-1.37l61.27 -12.35c1.66,-0.33 2.83,-0.29 4.44,-0.62l74.49 -14.99c1.77,-0.36 3.19,-0.34 5.08,-0.72l38.53 -7.74c15.25,-3.07 31.01,-6.61 47.02,-9.46 1.02,-0.18 1.53,0.04 2.74,-0.22 28.05,-5.9 57.65,-11.58 88.28,-17.72 3.71,-0.75 10.62,-2.8 13.95,-2.61 1.83,0.11 104.66,-20.72 119.23,-23.77 1.72,-0.36 2.45,-0.11 4,-0.41l136.92 -27.44c3.64,-0.73 6.44,-0.87 9.87,-1.57l165.58 -33.13c3.01,-0.6 4.77,-0.61 6.89,-0.91l0 -8.26zm0 53.28c-39.88,7.03 -77.21,13.99 -113.89,20.42 -9.36,1.64 -17.67,3.52 -26.89,5.13 -51.83,9.08 -100.64,18.41 -146.68,26.45 -7.69,1.34 -14.52,2.91 -22.09,4.24 -28.72,5.01 -55.74,10.13 -82.5,14.74 -1.82,0.32 -2.89,0.88 -4.49,1.15l-33.35 5.79c-6.31,1.1 -11.89,2.41 -18.11,3.49 -74.14,12.88 -141.05,26.04 -201.48,36.47l0 0.29c4.54,-0.78 8.65,-1.2 13.29,-1.99 27.73,-4.77 56.74,-9.14 87.13,-14.35 5.39,-0.93 10.27,-1.44 15.77,-2.38 44.09,-7.55 90.84,-14.53 141.23,-23.12 33.09,-5.65 67.96,-10.85 104.34,-17.04 7.65,-1.3 14.61,-2.1 22.47,-3.43 11.64,-1.98 23.46,-3.98 35.46,-6.02 4.32,-0.74 7.75,-0.93 11.99,-1.64 33.54,-5.69 67.55,-11.04 103.89,-17.2 9.44,-1.6 18.03,-2.63 27.75,-4.27l86.16 -14.14 0 -12.58zm0 554.05c-1.87,-0.31 -4.23,-0.35 -5.93,-0.56l-29.63 -3.17c-32.11,-3.92 -63.11,-7.7 -93.06,-11.37 -6.08,-0.74 -11.29,-0.96 -17.43,-1.72 -22.79,-2.79 -44.98,-5.5 -66.61,-8.15 -21.08,-2.58 -41.16,-4.65 -61.38,-7.13 -38.72,-4.74 -74.97,-8.82 -110.23,-13.15l-84.64 -10.07c-4.02,-0.49 -7.37,-0.57 -11.28,-1.05 -57.56,-7.1 -110.08,-12.96 -158.95,-19.02 -21.48,-2.66 -42.35,-4.86 -62.45,-7.45 -1.39,-0.18 -2.39,-0.02 -3.86,-0.2 -10.41,-1.3 -20.62,-2.56 -30.66,-3.81 -9.96,-1.24 -19.42,-2.15 -29.08,-3.35l0 0.27c19.25,2.4 38.8,5.11 59.47,7.7l64.21 8.32c0.95,0.11 1.21,0.44 2.07,0.57 11.8,1.77 23.95,3 36.24,4.54 12.67,1.59 25.08,3.46 38.27,5.11 27.08,3.41 54.74,7.21 84.17,10.92l82.95 10.8c3.89,0.49 9.11,0.65 12.88,1.65 8.02,2.1 17.21,2.51 25.8,3.6 103.3,13.06 221.6,29.26 359.13,46.77l0 -10.06zm0 79.69c-0.85,-0.11 -1.72,-0.13 -2.31,-0.23 -2.28,-0.37 -4.14,-0.67 -5.92,-0.65 -2.46,0.04 -32.78,-5.28 -36.69,-5.93 -4.26,-0.7 -7.28,-0.76 -11.41,-1.44 -8.92,-1.48 -29,-5.48 -35.22,-5.8 -8.32,-0.43 -28.2,-4.29 -38.39,-5.96 -1.98,-0.33 -3.09,-0.07 -5.34,-0.45l-42.17 -6.57c-53.12,-8.81 -102.56,-15.48 -149.47,-23.31 -5.87,-0.98 -10.94,-1.46 -16.66,-2.41 -5.56,-0.93 -11.07,-1.85 -16.54,-2.76 -5.41,-0.9 -10.43,-1.38 -15.96,-2.31 -5.39,-0.9 -10.74,-1.77 -16.06,-2.7 -1.5,-0.26 -2.08,0.04 -3.63,-0.24l-22.91 -3.84c-1.56,-0.27 -2.43,-0.07 -3.71,-0.26l-22.3 -3.76c-2.51,-0.43 -4.51,-0.42 -7.15,-0.86 -4.79,-0.8 -9.55,-1.6 -14.28,-2.4 -4.83,-0.81 -9,-1.18 -13.79,-1.98 -27.15,-4.57 -53.29,-8 -78.39,-12.24l0 0.31c4.27,0.72 8.06,1.69 12.27,2.4 4.2,0.71 8.43,1.43 12.68,2.15 4.34,0.74 8.26,1.72 12.75,2.48 4.36,0.74 8.76,1.49 13.18,2.24 2.25,0.38 4.02,1.01 6.4,1.41 4.36,0.74 17.85,2.54 20.43,3.67 1.51,0.66 18.06,3.21 21.09,3.73 2.61,0.44 4.48,1.11 7.07,1.55 4.82,0.82 9.67,1.65 14.56,2.48 5.09,0.87 9.55,1.97 14.65,2.84 41,7 84.48,15.9 130.51,23.8 6.15,1.06 11.54,2.36 17.81,3.44 6.11,1.05 12.26,2.11 18.47,3.18 3.34,0.57 5.76,1.38 9.01,1.94 9.03,1.55 20.22,3.07 28.99,4.98l34.79 6.4c1.99,0.33 2.9,0.93 5.04,1.29 20.77,3.43 41.84,7.64 63.66,11.41 7.68,1.33 14.5,2.93 22.41,4.3 29.98,5.19 60.54,11.31 92.53,16.91l0 -16.81zm-494.97 -889.23c-14.48,6.31 -28.68,12.45 -42.62,18.38 -2.63,1.11 -5.01,2.45 -7.79,3.63l-23.51 10c-5.13,2.19 -9.8,4.48 -14.94,6.67 -5.01,2.13 -9.98,4.25 -14.92,6.35 -4.96,2.11 -9.49,4.33 -14.26,6.37l-41.5 18.23c22.56,-9.58 46.02,-18.94 70.36,-29.26 5.19,-2.2 9.88,-3.88 15.1,-6.09l23.33 -9.89c2.87,-1.22 5.15,-1.86 7.96,-3.06 16.66,-7.06 33.67,-14.12 51.13,-21.33l-8.33 0zm157.24 0l-16.69 6.37c-19.34,7.39 -37.56,14.7 -55.86,21.69 -68.53,26.17 -130.53,50.48 -187.59,72.23 -6.8,2.59 -13.23,5.35 -20,7.93 -13.09,4.99 -25.9,9.87 -38.45,14.65 -6.24,2.38 -12.03,4.87 -18.21,7.22 -46.29,17.63 -88.81,34.35 -128.55,49.47l-0 0.26c4.91,-1.87 9.54,-3.37 14.46,-5.24l38.17 -14.5c2.67,-1.01 5.12,-1.67 7.91,-2.73 10.81,-4.11 21.84,-8.29 33.08,-12.56 11.48,-4.36 22.91,-8.42 34.94,-12.98 24.67,-9.36 49.96,-18.65 76.82,-28.84l84.36 -31.67c1.16,-0.43 1.61,-0.26 2.88,-0.75 32.01,-12.45 65.41,-24.43 100.39,-37.67 28.33,-10.72 57.37,-21.49 87.81,-32.91l-15.46 0zm337.73 118.14l-0.56 0.16 -17.05 4.7c-109.01,27.15 -205.76,52.05 -292.26,73.56 -21.72,5.4 -42.28,10.88 -62.69,15.95 -19.93,4.95 -39.33,9.77 -58.23,14.46 -4.74,1.18 -8.79,2.52 -13.5,3.69 -97.73,24.25 -182.66,46.24 -257.52,64.75 -1.63,0.4 -2.76,0.96 -4.4,1.37l-31 7.67c-11.5,2.84 -22.4,5.8 -33.42,8.52 -21.37,5.28 -41.56,10.52 -61.33,15.4l52.99 -12.55c2.15,-0.53 6.11,-2 8.03,-1.82 1.32,0.12 13.89,-3.3 16.39,-3.92 40.39,-9.93 83.78,-20.03 130.65,-31.54l77.51 -18.71c1.95,-0.48 3.91,-0.96 5.87,-1.44 2.19,-0.54 3.72,-0.59 5.92,-1.13 67.33,-16.5 141.22,-33.89 223.98,-54.12l123.62 -29.83c6.68,-1.63 12.44,-2.63 19.17,-4.27 26.44,-6.45 53.72,-13.11 81.88,-19.98 27.89,-6.8 56.09,-13.28 85.93,-20.52l0 -10.38zm0 249.01c-56.74,6.58 -109.36,13.08 -159.57,18.87 -48.39,5.59 -93.86,11.6 -137.34,16.23 -1.64,0.17 -2.21,0.62 -3.63,0.81 -18.83,2.53 -38.75,4.44 -56.72,6.51 -19.35,2.22 -37.6,4.68 -56.08,6.8 -35.33,4.06 -68.49,8.19 -100.67,11.87 -7.85,0.9 -15.04,2.05 -22.71,2.92 -50.85,5.81 -97.8,11.77 -141.51,16.74l-60 7.1c-2.81,0.32 -5.19,0.86 -7.98,1.17 -21.12,2.39 -41.18,4.93 -60.71,7.13l0 0.26c19.48,-2.2 39.52,-4.19 60.58,-6.57 2.67,-0.3 5.17,-0.31 7.97,-0.62 42.21,-4.74 87.58,-9.25 136.76,-14.75 7.01,-0.78 13.62,-1.21 20.69,-2l43.84 -4.89c7.66,-0.85 14.95,-1.35 22.88,-2.23 32.1,-3.57 65.16,-6.91 100.43,-10.83 34.54,-3.84 70.75,-7.36 108.84,-11.72 2.69,-0.31 4.83,-0.16 7.74,-0.48 88.21,-9.76 186.02,-19.74 297.16,-31.97l0 -10.35zm0 56.73l-112.94 9.63c-36,3.07 -69.69,6.35 -102.93,9.17 -31.68,2.69 -62.15,5.28 -91.5,7.78 -28.48,2.42 -55.3,5.06 -81.86,7.31 -25.41,2.15 -49.95,4.23 -73.68,6.24 -23.08,1.96 -44.95,4.14 -66.66,5.97 -20.83,1.76 -41.02,3.47 -60.6,5.12 -19.08,1.61 -37.26,3.45 -55.33,4.97 -17.39,1.46 -34.29,2.89 -50.72,4.28 -16.02,1.35 -31.39,2.92 -46.66,4.2 -83.02,6.97 -154.57,13.69 -216.84,18.87l0 0.22c85,-7.06 187.66,-14.54 314.07,-24.91 158.95,-13.05 365.76,-28.51 645.65,-51.21l0 -7.66zm0 50.9c-9.22,0.61 -17.71,1.45 -26.98,1.98 -10.09,0.58 -20.06,1.16 -29.93,1.73 -5.12,0.3 -9.32,0.97 -14.12,1.25l-42.91 2.46c-2.59,0.14 -3.95,0.67 -6.34,0.8 -10.21,0.5 -41.23,1.83 -46.67,3.01l-38.17 2.24c-4.43,0.25 -7.96,0.85 -12.18,1.09 -8.11,0.46 -16.13,0.92 -24.09,1.37 -8.08,0.46 -15.39,1.26 -23.13,1.7 -7.65,0.43 -15.23,0.86 -22.74,1.28 -7.67,0.44 -14.52,1.2 -22.1,1.62 -55.8,3.14 -107.9,7.47 -156.33,10.15 -6.01,0.33 -11.42,0.96 -17.21,1.28 -5.71,0.31 -11.37,0.63 -16.98,0.94 -5.66,0.31 -10.75,0.92 -16.39,1.23 -5.49,0.3 -10.94,0.6 -16.35,0.89 -2.79,0.15 -4.93,0.59 -7.68,0.74l-23.36 1.26c-1.25,0.06 -2.09,0.44 -3.5,0.51l-22.58 1.22c-0.56,0.03 -1.21,0.01 -1.76,0.1 -0.72,0.11 -0.88,0.36 -1.76,0.41l-21.39 1.15c-2.5,0.13 -4.44,0.54 -6.91,0.67 -4.62,0.25 -9.21,0.5 -13.76,0.74 -4.7,0.26 -8.9,0.78 -13.46,1.02l0 0.3c4.45,-0.24 8.94,-0.48 13.45,-0.72 4.61,-0.25 8.85,-0.18 13.6,-0.43 38.04,-2.02 78.55,-2.89 121.65,-5.14 5.78,-0.3 10.99,-0.24 16.78,-0.54 5.82,-0.3 11.68,-0.6 17.59,-0.91 5.95,-0.31 11.49,-0.26 17.65,-0.58 6.05,-0.31 12.15,-0.63 18.3,-0.94 3.2,-0.17 5.74,0.06 9.03,-0.11 8.18,-0.42 21.85,-1.77 29.04,-1.5l34.72 -1.42c1.99,-0.11 3.05,0.23 4.96,0.12l31.67 -1.62c3.74,-0.19 6.8,0.03 10.69,-0.17 7.3,-0.37 14.66,-0.74 22.09,-1.12 7.72,-0.39 14.68,-0.36 22.47,-0.76 7.72,-0.39 15.51,-0.78 23.39,-1.18 8.07,-0.41 15.67,-0.39 24.08,-0.81 66.58,-3.34 138.95,-5.3 217.57,-9.12l0 -16.19zm0 28.31l-44.25 1.93c-4.29,0.18 -12.02,-0.08 -15.8,0.86 -3.75,0.93 -45.16,2.17 -53.02,2.5l-57.01 2.83c-2.38,0.08 -4.14,0.59 -6.79,0.7l-40.19 1.69c-4.62,0.19 -8.26,0.74 -12.8,0.93l-37.73 1.57c-4.11,0.17 -7.74,0.71 -12.03,0.89 -8,0.33 -15.92,0.66 -23.76,0.99 -8.05,0.33 -15.28,1.01 -23.06,1.33 -7.54,0.31 -14.99,0.62 -22.38,0.93 -7.57,0.31 -14.33,0.95 -21.75,1.26 -7.18,0.29 -14.3,0.59 -21.33,0.87 -7.06,0.29 -13.5,0.91 -20.53,1.19 -52.01,2.12 -100.58,5.41 -145.69,7.2 -42.24,1.68 -82.02,4.45 -119.23,5.89l0 0.29c9.06,-0.35 18.08,-0.41 27.54,-0.77 4.86,-0.19 9.3,-0.06 14.18,-0.25 4.9,-0.19 9.83,-0.37 14.82,-0.56 5.08,-0.19 9.7,-0.07 14.86,-0.27 5.15,-0.19 10.32,-0.39 15.56,-0.59 5.28,-0.2 10.16,-0.07 15.6,-0.28 5.4,-0.2 10.84,-0.41 16.34,-0.61 5.44,-0.2 10.71,-0.08 16.4,-0.3 5.68,-0.21 11.41,-0.43 17.18,-0.64 3.01,-0.11 5.38,0.12 8.4,0.01l26.97 -1c2.98,-0.11 5.67,0.13 8.85,0.01l28.44 -1.06c1.54,-0.07 2.76,0.25 4.55,0.19 4.87,-0.18 32.74,-1.56 34.72,-1.13 3.07,0.67 31.54,-1.31 38.85,-1.22 1.13,0.02 1.35,0.33 2.62,0.29l38.5 -1.41c1.95,-0.09 3.4,0.25 5.59,0.17l34.92 -1.26c4.23,-0.15 7.59,0.11 11.83,-0.04l37.11 -1.33c4.24,-0.15 8.05,0.11 12.58,-0.05 8.59,-0.31 17.27,-0.61 26.04,-0.93 9.19,-0.32 17.64,-0.22 26.87,-0.55 9.16,-0.32 18.42,-0.65 27.77,-0.98 9.79,-0.34 18.7,-0.24 28.69,-0.59 9.78,-0.34 19.67,-0.69 29.67,-1.04 10.36,-0.36 19.97,-0.26 30.71,-0.64 20.25,-0.7 40.32,-1 61.18,-1.68l0 -15.34zm0 29.3c-54.35,1.48 -104.79,3.26 -153.18,4.55 -46.29,1.24 -90.87,3.21 -132.42,4.3 -39.96,1.05 -77.34,2.4 -113.6,3.34 -4.32,0.11 -8.37,0.57 -12.85,0.68l-37.83 0.98c-8.3,0.22 -15.97,0.75 -23.95,0.96l-88.86 2.58c-7.03,0.18 -13.45,0.65 -20.31,0.83 -26.47,0.66 -51.41,1.59 -75.82,2.19 -5.98,0.15 -11.51,0.57 -17.43,0.72 -36.33,0.89 -70.52,2.28 -102.71,3.05 -2.55,0.06 -4.7,0.37 -7.18,0.43l0 0.26c19.49,-0.46 39.32,-0.66 60.24,-1.15 21.42,-0.5 44.07,-0.46 67.23,-0.99 49.54,-1.13 103.12,-1.41 161.7,-2.71l72.29 -1.26c8.66,-0.19 16.93,-0.02 25.91,-0.21 36.23,-0.79 73.6,-1.22 113.66,-2.08 5.35,-0.11 9.9,0.17 15.21,0.06 76.31,-1.61 160.32,-2.54 253.24,-4.48 3.87,-0.08 6.47,0.32 10.19,0.24 1.83,-0.04 3.66,-0.08 5.49,-0.11 0.3,-0 0.64,0.01 0.99,0.03l0 -12.21zm0 109.85c-106.06,-3.37 -200.14,-5.19 -285.25,-7.98 -2.78,-0.09 -4.83,0.24 -7.37,0.14l-51.34 -1.7c-9.41,-0.31 -18.29,-0.24 -27.64,-0.55 -9.06,-0.3 -18.02,-0.6 -26.86,-0.89 -8.92,-0.3 -17.08,-0.22 -25.71,-0.5 -64.54,-2.16 -123.67,-3.18 -177.79,-5.03 -6.54,-0.22 -12.62,-0.13 -19.11,-0.35 -6.29,-0.22 -12.52,-0.43 -18.68,-0.65 -6.22,-0.21 -11.98,-0.11 -17.98,-0.32 -45.8,-1.59 -87.95,-2.24 -127.42,-3.63l0 0.26c4.8,0.17 9.31,0.59 14.24,0.77 35.15,1.26 72.81,3.45 112.89,4.92l55.9 2.35c6.66,0.24 12.88,0.78 19.69,1.03l30.98 1.15c3.57,0.13 6.77,0.57 10.49,0.71l38.72 1.44c2.09,0.08 3.52,0.47 5.53,0.54 64.09,2.26 133.93,6.11 211.45,9.08 84.55,3.23 179.69,8.54 285.26,12.72l0 -13.51zm-293.71 457.79c-72.25,-23.72 -137.7,-44.34 -198.13,-64.34 -2.05,-0.68 -3.37,-0.78 -5.39,-1.45l-38.47 -12.72c-3.7,-1.22 -6.8,-1.93 -10.4,-3.12 -10.41,-3.44 -20.65,-6.83 -30.74,-10.17 -6.72,-2.22 -12.91,-3.96 -19.55,-6.16 -6.43,-2.13 -12.81,-4.24 -19.12,-6.33 -6.37,-2.11 -12.22,-3.75 -18.4,-5.8 -41.13,-13.63 -79.73,-25.59 -115.75,-37.56 -10.05,-3.34 -19.57,-6.24 -29.21,-9.44l44.28 15.26c5.3,1.76 10.23,3.68 15.62,5.48 5.3,1.77 10.65,3.55 16.06,5.35 5.55,1.85 10.83,3.89 16.37,5.74l25.67 8.56c3.1,1.03 5.77,2.22 8.81,3.23 49.34,16.46 102.38,35.11 160.59,54.56 7.69,2.57 15,5.35 22.95,8.01 7.89,2.64 15.87,5.31 23.94,8.01 8.33,2.79 16.11,5.73 24.56,8.56 32.01,10.72 65.57,22.26 100.71,34.34l25.61 0zm13.04 -1100.02l-35.34 13.02c-4.85,1.79 -9.04,3.7 -13.64,5.39l-40.2 14.8c-4.61,1.7 -8.49,3.48 -12.93,5.12l-37.49 13.79c-4.3,1.58 -7.88,3.25 -12.08,4.79 -11.88,4.37 -23.56,8.66 -35.05,12.89 -4,1.47 -7.33,3.02 -11.3,4.48 -11.13,4.09 -22.07,8.11 -32.84,12.06 -3.67,1.35 -6.75,2.81 -10.43,4.16l-30.84 11.32c-3.44,1.26 -6.45,2.68 -9.97,3.97 -6.56,2.41 -13.06,4.79 -19.49,7.15 -6.48,2.37 -12.56,4.91 -18.76,7.19 -6.18,2.26 -12.3,4.51 -18.36,6.73 -6.17,2.26 -11.91,4.67 -17.84,6.83 -5.83,2.14 -11.61,4.26 -17.33,6.35 -5.78,2.11 -11.13,4.36 -16.71,6.41 -5.52,2.02 -10.98,4.02 -16.39,6 -5.52,2.02 -10.61,4.17 -15.95,6.12 -5.22,1.91 -10.39,3.8 -15.52,5.68 -5.24,1.91 -10.02,3.94 -15.11,5.8 -4.95,1.81 -9.86,3.6 -14.72,5.38 -4.96,1.81 -9.49,3.74 -14.34,5.51l0 0.27c4.74,-1.73 9.52,-3.48 14.34,-5.24 4.96,-1.81 9.56,-3.22 14.59,-5.05 4.99,-1.82 10.02,-3.66 15.1,-5.51 5.27,-1.93 10.16,-3.43 15.52,-5.39 5.26,-1.92 10.58,-3.86 15.94,-5.82 5.51,-2.01 10.63,-3.59 16.24,-5.63 5.56,-2.03 11.18,-4.07 16.85,-6.14 5.86,-2.13 11.32,-3.83 17.33,-6.02 5.89,-2.15 11.83,-4.31 17.83,-6.5 6.13,-2.23 11.89,-4.02 18.21,-6.32 6.24,-2.27 12.54,-4.56 18.91,-6.88 6.54,-2.38 12.72,-4.32 19.48,-6.77 6.63,-2.41 13.32,-4.85 20.08,-7.31 6.93,-2.52 13.54,-4.6 20.72,-7.21 58.4,-21.23 122.36,-43.06 192.03,-68.31 24.43,-8.85 49.71,-17.85 75.86,-27.11l-26.4 0zm280.68 1030.3c-67.61,-16.24 -129.77,-30.77 -188.57,-44.91 -7.26,-1.75 -13.63,-2.88 -20.87,-4.63l-168.98 -40.32c-11.23,-2.71 -21.87,-4.92 -32.92,-7.58l-57.99 -14c-1.52,-0.38 -2.19,-0.17 -3.65,-0.54 -56.64,-14.24 -108.98,-25.71 -157.21,-37.37 -7.69,-1.86 -15.28,-3.7 -22.78,-5.52 -7.56,-1.83 -14.69,-3.26 -21.96,-5.02 -28.26,-6.85 -54.82,-13 -80.52,-19.24l-53.49 -12.72c-5.67,-1.37 -11.07,-2.43 -16.7,-3.8 -21.59,-5.25 -42.01,-9.97 -61.91,-14.81l0 0.23c4.94,1.2 9.62,2.58 14.65,3.81 36.35,8.86 75.33,18.87 117.57,29.19 3.19,0.78 6.04,1.75 9.32,2.55l93.03 23.03c7.56,1.85 14.93,3.95 22.78,5.87l45.32 11.09c1.17,0.28 1.79,0.76 3.08,1.07 52.3,12.45 108.96,27.38 170.65,42.54 10.88,2.67 21.93,5.39 33.14,8.14 11.56,2.84 22.71,5.94 34.47,8.83 48.87,12.02 100.19,25.02 155.77,38.7l152.12 37.88c4.34,1.06 8,2.42 12.67,3.57l19.69 4.85c1.18,0.29 2.32,0.69 3.28,0.95l0 -11.85zm0 -719.43c-123.65,18.07 -231.54,34.97 -327.13,48.85 -54.59,7.93 -105.64,16.03 -153.14,22.9 -9.32,1.35 -18,2.93 -26.96,4.22l-51.2 7.44c-3.53,1.25 -42.84,6.45 -47.2,7.08 -7.65,1.1 -14.8,2.44 -22.34,3.52 -88.58,12.75 -165.39,25.11 -232.46,34.68l-0 0.24c24.71,-3.52 50.78,-6.73 78.12,-10.61 5.76,-0.82 11.26,-1.34 17.06,-2.16 8.79,-1.25 17.73,-2.52 26.81,-3.8 2.78,-0.39 6.53,-1.39 9.22,-1.29 3.45,0.13 14.36,-1.78 18.67,-2.39 6.44,-0.91 12.96,-1.83 19.56,-2.77 6.73,-0.95 13.15,-1.57 20.09,-2.56 96.01,-13.57 209.01,-27.84 343.52,-46.69 46.56,-6.52 96.67,-12.76 149.36,-20.11 55.63,-7.77 114.31,-15.54 178.01,-24.4l0 -12.16zm0 607.79c-114.77,-20.69 -215.47,-37.67 -305.83,-54.04 -10.7,-1.94 -20.77,-3.39 -31.34,-5.31 -10.24,-1.86 -20.35,-3.69 -30.33,-5.5 -10.01,-1.81 -19.19,-3.12 -28.93,-4.89 -9.54,-1.73 -18.95,-3.44 -28.25,-5.13 -9.25,-1.68 -17.9,-2.91 -26.78,-4.52l-75.38 -13.38c-60.18,-10.96 -115.55,-19.85 -165.93,-29.08 -6.04,-1.11 -12.01,-2.2 -17.92,-3.28 -5.91,-1.08 -11.41,-1.81 -17.25,-2.88 -5.68,-1.04 -11.3,-2.07 -16.87,-3.09 -5.65,-1.04 -10.87,-1.72 -16.37,-2.73 -8.01,-1.47 -15.9,-2.92 -23.68,-4.35 -2.62,-0.48 -4.99,-0.66 -7.67,-1.15 -7.56,-1.39 -15.01,-2.76 -22.36,-4.11 -2.56,-0.47 -4.8,-0.63 -7.25,-1.08l0 0.25c39.97,7.37 82.78,16.07 129.5,24.71 6.06,1.12 12.04,2.51 18.35,3.68 6.29,1.17 12.65,2.34 19.08,3.53 6.58,1.22 12.79,2.67 19.55,3.92 6.76,1.25 13.59,2.52 20.51,3.8 7.07,1.31 13.74,2.85 20.88,4.18 51.91,9.64 108.41,21.13 169.79,32.57 47.36,8.83 97.9,19 152.04,29.11 11.39,2.13 22.45,4.58 34.35,6.81 11.79,2.2 23.74,4.44 35.87,6.71 12.6,2.36 24.49,4.99 37.48,7.43 12.87,2.41 25.94,4.86 39.22,7.35 13.83,2.59 27.02,5.49 41.07,8.13 5.22,0.98 72.86,13.16 76.72,14.65 1.79,0.69 3.8,0.9 5.68,1.26 0.55,0.1 1.3,0.35 2.04,0.52l0 -14.09zm0 26.56l-38.77 -7.54c-13.75,-2.68 -26.3,-4.69 -39.71,-7.3 -98.12,-19.12 -186.02,-34.71 -265.16,-50.2 -18.69,-3.66 -36.55,-6.8 -54.52,-10.32 -8.92,-1.75 -17.07,-3 -25.71,-4.69 -8.45,-1.66 -16.78,-3.3 -25.03,-4.91 -8.22,-1.61 -15.85,-2.78 -23.98,-4.37 -7.88,-1.55 -15.67,-3.08 -23.37,-4.59 -3.91,-0.77 -7.17,-1.08 -11.02,-1.84l-33.08 -6.51c-1.89,-0.38 -3.21,-0.32 -5.18,-0.7l-33.72 -6.65c-1.09,-0.22 -1.55,-0.03 -2.44,-0.16 -8.99,-1.26 -20.28,-4.01 -29.44,-5.82 -3.34,-0.66 -6.22,-0.92 -9.41,-1.56 -6.3,-1.24 -12.53,-2.47 -18.7,-3.69 -6.21,-1.23 -12.02,-2.09 -18,-3.27 -5.89,-1.16 -11.71,-2.31 -17.48,-3.46 -5.87,-1.16 -11.23,-1.93 -16.98,-3.07 -32.7,-6.48 -63.58,-11.79 -92.82,-17.6l0 0.26c19.31,3.84 39.23,8.35 60.03,12.5 5.41,1.07 10.47,2.36 15.9,3.44 5.49,1.1 11.03,2.2 16.62,3.32 5.72,1.14 11.09,2.5 16.97,3.68 5.82,1.16 11.69,2.33 17.61,3.52 3.07,0.61 5.69,1.43 8.71,2.04l27.83 5.57c1.74,0.35 2.92,0.89 4.61,1.22 5.1,1.01 31.78,5.96 34.25,7.09 1.67,0.77 26.82,5.46 30.96,6.3 3.67,0.74 6.96,1.72 10.49,2.43l33.08 6.64c3.78,0.76 7.23,1.78 11.2,2.58 7.64,1.54 15.37,3.09 23.18,4.66 8.12,1.63 15.7,3.5 23.97,5.17 8.24,1.66 16.58,3.34 25.02,5.04 8.57,1.73 16.8,3.73 25.71,5.53 73.4,14.8 154.65,32.75 244.84,51.02 12.3,2.49 23.96,5.28 36.41,7.8 12.58,2.55 25.35,5.14 38.3,7.77 13.35,2.71 25.9,5.69 39.7,8.49l39.13 7.95 0 -15.76zm0 -220.14c-127.39,-9.72 -237.76,-17 -335.55,-24.55 -5.96,-0.46 -11.2,-0.5 -16.93,-0.94 -16.78,-1.3 -33.21,-2.57 -49.26,-3.82 -10.63,-0.82 -20.5,-1.24 -30.89,-2.04 -10.07,-0.78 -20.01,-1.55 -29.8,-2.31 -9.82,-0.76 -18.93,-1.14 -28.4,-1.87 -62.23,-4.85 -119.18,-8.38 -171.27,-12.47 -34.69,-2.73 -67.41,-4.75 -98.35,-7.2 -6.03,-0.48 -11.71,-0.67 -17.67,-1.14 -5.8,-0.46 -11.55,-0.92 -17.23,-1.37 -5.75,-0.46 -11.09,-0.63 -16.69,-1.07 -5.45,-0.43 -10.84,-0.86 -16.18,-1.29 -5.35,-0.43 -10.44,-0.58 -15.58,-0.99l-22.66 -1.81c-2.57,-0.2 -4.86,-0.15 -7.33,-0.35l0 0.24c40.47,3.25 84.07,7.53 131.86,11.4 6.26,0.51 12.38,1.28 18.88,1.8 6.48,0.53 13.04,1.06 19.67,1.6 6.8,0.56 13.25,1.36 20.21,1.93 6.99,0.57 14.06,1.15 21.22,1.73 7.3,0.59 14.31,1.46 21.7,2.07l70.57 6.08c69.69,5.72 147.81,13.52 234.83,20.74 11.67,0.97 23.52,1.95 35.55,2.95 12.34,1.02 24.17,2.39 36.98,3.45 12.81,1.07 25.82,2.15 39.05,3.25 13.76,1.14 26.89,2.64 41,3.82 21.28,1.78 43.11,3.6 65.5,5.46 7.72,0.65 14.67,1.65 22.67,2.32l94.11 8.36 0 -13.98zm0 56.14c-0.96,-0.06 -2.21,-0.1 -3.83,-0.28 -6.25,-0.67 -18.99,-2.36 -23.75,-2.15 -3.28,0.14 -88.58,-9.41 -90.49,-9.61 -37.56,-4.02 -72.7,-7.37 -107.14,-11.06 -64.77,-6.94 -123.99,-12.92 -179.56,-18.88 -13.23,-1.42 -25.73,-2.42 -38.6,-3.8 -83.28,-8.96 -157.16,-16.3 -223.48,-23.48 -4.54,-0.49 -8.68,-0.65 -13.05,-1.13 -62.33,-6.75 -118.29,-12.3 -169.07,-17.83 -3.25,-0.35 -6.17,-0.43 -9.39,-0.78 -45.32,-4.94 -86.65,-9.01 -124.66,-13.17l0 0.21c1.28,0.14 2.3,0.47 3.54,0.61l26.47 2.91c32.17,3.54 66.72,8.02 103.94,11.93 0.9,0.09 1.39,0.41 2.25,0.49 25.68,2.53 52.8,6.11 81.29,9.27l96.99 11.05c0.78,0.09 0.91,0.33 1.55,0.47 4.2,0.93 9.15,1.02 13.49,1.5l42.81 4.77c10.05,1.12 19.83,2.52 30.1,3.67l165.77 18.87c3.54,0.39 6.37,1.07 9.84,1.46 55.54,6.23 114.85,13.26 179.5,20.53 65.48,7.37 136.38,16.14 213.44,24.45 3.04,0.33 4.74,0.99 7.85,1.34 1.41,0.15 2.92,0.48 4.19,0.63l0 -12zm0 220.13c-0.94,-0.19 -2.05,-0.32 -3.2,-0.58l-98.45 -21.71c-16.71,-3.76 -32.17,-6.82 -48.19,-10.43 -116.93,-26.34 -219.06,-48.27 -308.78,-68.56 -10.57,-2.39 -20.61,-4.32 -31,-6.67 -10.02,-2.27 -19.91,-4.51 -29.65,-6.71 -9.75,-2.2 -18.81,-3.93 -28.22,-6.07 -13.76,-3.11 -27.23,-6.17 -40.43,-9.16 -4.53,-1.03 -8.5,-1.62 -12.93,-2.62 -64.84,-14.7 -123.01,-27.07 -176.06,-39.14 -6.38,-1.45 -12.32,-2.54 -18.51,-3.95 -41.01,-9.34 -79.1,-17.3 -114.34,-25.35l0 0.23c4.89,1.12 9.83,2.25 14.82,3.39 5.06,1.16 9.98,2.52 15.2,3.71 5.2,1.19 10.46,2.39 15.78,3.61 5.45,1.25 10.67,2.69 16.19,3.96 8.35,1.91 16.83,3.86 25.46,5.83 3.01,0.69 5.67,1.55 8.66,2.24l27.22 6.25c2.62,0.6 7.02,1.09 9.31,2.33 1.04,0.56 38.18,8.84 39.23,9.08 3.43,0.79 6.59,1.79 10.13,2.6l31.93 7.34c7.38,1.7 14.52,3.62 22.16,5.38 7.63,1.75 15.34,3.53 23.17,5.33 8.04,1.85 15.76,3.93 23.94,5.81 69.01,15.9 146.31,34.71 233.21,54.8 11.8,2.73 23.25,5.74 35.54,8.58 103.11,23.85 220.74,52.3 357.78,84.12l0 -13.64zm-68.29 -1001.34c-102.71,33.74 -194.35,64.52 -276.26,91.04 -88.95,28.8 -168.32,55.81 -239.12,78.67 -63.73,20.58 -121.6,40.38 -174.05,57.26 -47.93,15.43 -92.01,30.59 -132.45,43.57l0 0.24c40.39,-12.95 84.44,-26.06 132.32,-41.37 52.43,-16.76 110.28,-34.08 174,-54.39 70.77,-22.56 150.11,-46.47 239.04,-74.73 93.66,-29.76 200.03,-62.12 321.17,-100.3l-44.66 0zm-292.57 1100.02l-3.65 -1.26c-92.25,-31.78 -174.18,-58.72 -246.69,-83.77 -8.54,-2.95 -16.96,-5.86 -25.28,-8.73 -8.3,-2.87 -16.04,-5.24 -24.13,-8.04 -7.89,-2.72 -15.66,-5.41 -23.34,-8.07 -7.73,-2.67 -14.99,-4.91 -22.45,-7.48 -10.91,-3.77 -21.61,-7.48 -32.12,-11.11 -3.56,-1.23 -6.68,-2.04 -10.19,-3.25 -11.82,-4.09 -23.39,-8.09 -34.72,-12.02 -1.73,-0.6 -3.04,-0.8 -4.72,-1.37 -48.5,-16.8 -92.54,-31.34 -133.2,-45.45l0 0.22c4.93,1.71 9.67,3.59 14.74,5.35 5.04,1.75 10.15,3.53 15.3,5.32 5.29,1.83 10.33,3.83 15.7,5.7 27.46,9.55 56.47,20.15 87.23,30.86 39.22,13.66 81.67,29.29 127.18,45.17 7.98,2.78 16.06,5.61 24.26,8.46 8.37,2.92 16.55,6.08 25.25,9.12 8.65,3.02 17.43,6.09 26.32,9.19 9.15,3.19 17.89,6.56 27.28,9.85 9.41,3.29 18.96,6.63 28.65,10.01 9.96,3.48 19.62,7.19 29.75,10.73 15.47,5.41 31.3,10.95 47.5,16.61 5.66,1.98 10.69,4.08 16.38,6.07l51.1 17.89 23.84 0zm360.86 -236.74c-128.45,-19.33 -240.64,-35.08 -338.95,-49.96 -13.33,-2.02 -25.85,-3.55 -38.84,-5.52 -94.82,-14.38 -177.88,-26.02 -251.96,-37.31 -4.28,-0.65 -8.32,-0.97 -12.69,-1.64l-37.38 -5.7c-7.96,-1.21 -15.56,-2.09 -23.41,-3.3 -7.69,-1.17 -15.27,-2.33 -22.76,-3.48 -7.45,-1.14 -14.4,-1.93 -21.63,-3.04l-60.78 -9.05c-36.8,-5.64 -71.32,-10.22 -103.36,-15.16 -5.18,-0.8 -10.3,-1.59 -15.37,-2.37 -5.07,-0.78 -9.82,-1.29 -14.79,-2.06l0 0.22c40.65,6.28 84.81,13.83 133.51,21.39 3.26,0.51 6.17,1.21 9.46,1.72 9.86,1.53 19.91,3.09 30.13,4.69 6.96,1.08 13.65,2.39 20.81,3.5 7.2,1.12 14.49,2.26 21.87,3.41 7.54,1.17 14.85,2.59 22.48,3.78 65.01,10.14 137.85,22.44 219.78,35.28 11.09,1.74 21.89,3.77 33.43,5.58 11.58,1.82 23.34,3.66 35.3,5.54 12.33,1.94 24.23,4.16 36.88,6.15 107.96,16.97 232.17,37.73 378.24,60.8l0 -13.51zm0 -691.99c-136.71,30.22 -254.93,57.85 -357.69,80.45 -91.31,20.08 -172.33,39.18 -244.37,54.95 -64.68,14.16 -123.19,28.07 -176.1,39.6 -48.25,10.52 -92.5,21.12 -133.02,29.91l0 0.23c40.49,-8.78 84.69,-17.35 132.9,-27.76 52.91,-11.42 111.37,-22.87 176.05,-36.76 72.01,-15.47 153.01,-31.5 244.29,-51.02 102.81,-21.98 221.09,-45.64 357.94,-74.74l0 -14.85zm-217.62 -171.29c-48.41,17.48 -93.95,33.87 -136.86,49.06 -12.2,4.32 -23.55,8.69 -35.27,12.83 -11.46,4.05 -22.76,8.04 -33.87,11.97 -11.04,3.9 -21.36,7.89 -32.15,11.7 -10.46,3.7 -20.77,7.34 -30.93,10.93 -5.15,1.82 -9.7,3.76 -14.68,5.52l-43.09 15.22c-2.47,0.87 -4.34,1.85 -6.69,2.67l-33.6 11.85c-3.67,1.3 -9.75,2.84 -12.88,4.77 -1.38,0.85 -38.8,13.76 -43.07,15.27 -2.04,0.72 -3.75,1.62 -5.9,2.37l-34.37 12.11c-3.76,1.32 -7.19,2.81 -10.99,4.15 -7.25,2.56 -14.41,5.07 -21.49,7.57 -7.1,2.5 -13.7,5.1 -20.6,7.53 -6.74,2.37 -13.41,4.72 -19.99,7.03 -6.57,2.31 -12.8,4.77 -19.3,7.05 -48.25,16.97 -92.29,33.42 -132.87,47.65l0 0.23c4.97,-1.74 9.75,-3.19 14.75,-4.94 5.05,-1.77 10.15,-3.56 15.31,-5.36 5.28,-1.85 10.3,-3.36 15.7,-5.25 5.38,-1.88 10.82,-3.78 16.31,-5.71 5.54,-1.94 11,-3.59 16.74,-5.61 5.74,-2.01 11.54,-4.04 17.41,-6.09 2.96,-1.04 5.69,-1.74 8.76,-2.81 3.03,-1.06 6.07,-2.12 9.13,-3.19 6.09,-2.13 12.55,-4.81 18.75,-6.56l34 -11.6c1.84,-0.64 3.22,-0.85 5.03,-1.49l31.3 -10.92c3.7,-1.3 7,-2.16 10.77,-3.48 7.34,-2.56 14.77,-5.15 22.3,-7.78 7.74,-2.7 15.15,-4.99 23.02,-7.73 7.93,-2.76 15.96,-5.56 24.09,-8.39 8.36,-2.92 16.41,-5.42 25.06,-8.43 71.89,-25.04 152.39,-51.69 243.26,-83.25 24.59,-8.54 49.65,-16.87 76.11,-26.05 13.68,-4.75 26.77,-8.9 40.88,-13.8 14.19,-4.92 28.63,-9.93 43.32,-15.02 3.97,-1.38 7.92,-2.72 11.86,-4.04l-35.3 0zm217.62 1055.95l-95.87 -24.36c-10.46,-2.66 -20.05,-4.67 -30.44,-7.32 -19.81,-5.04 -39.18,-9.96 -58.12,-14.78 -18.74,-4.77 -36.23,-8.82 -54.09,-13.37 -17.35,-4.42 -34.33,-8.74 -50.95,-12.97 -16.4,-4.17 -31.81,-7.72 -47.63,-11.75 -87.5,-22.3 -165.41,-41.16 -235.34,-59.03 -42.77,-10.93 -82.69,-20.55 -120.28,-30.17 -9.13,-2.33 -17.78,-4.27 -26.55,-6.52 -8.63,-2.21 -17.12,-4.39 -25.49,-6.53 -8.34,-2.14 -16.17,-3.87 -24.27,-5.95 -7.93,-2.04 -15.75,-4.04 -23.46,-6.02 -7.57,-1.94 -14.82,-3.55 -22.26,-5.46 -7.25,-1.86 -14.4,-3.7 -21.45,-5.51 -3.54,-0.91 -6.73,-1.48 -10.25,-2.39l-30.13 -7.74c-1.64,-0.42 -3.02,-0.54 -4.7,-0.97l-31.36 -8.07c-0.52,-0.13 -0.61,0.05 -1.07,-0.03 -2.91,-0.53 -5.96,-1.54 -8.85,-2.29l-17.39 -4.48c-2.89,-0.74 -5.59,-1.22 -8.37,-1.93l-24.3 -6.26c-2.67,-0.69 -5.12,-1.11 -7.8,-1.8 -5.15,-1.33 -10.23,-2.64 -15.26,-3.94 -5.05,-1.3 -9.82,-2.32 -14.74,-3.59l0 0.21c4.86,1.26 9.77,2.52 14.74,3.81 5.06,1.31 9.98,2.79 15.18,4.13 32.14,8.32 66.67,17.94 103.93,27.6 26.54,6.89 54.46,14.63 84.09,22.33 7.75,2.01 15.33,4.24 23.22,6.3 8,2.08 16.13,4.2 24.38,6.34 8.46,2.2 16.64,4.61 25.35,6.87 8.8,2.29 17.74,4.62 26.8,6.98 9.19,2.39 18.24,5.04 27.81,7.53 9.62,2.5 19.39,5.05 29.31,7.64 5.11,1.33 9.77,2.85 14.97,4.2l48.18 12.57c2.82,0.74 5.2,1.67 8.14,2.44l59.3 15.47c1.06,0.28 1.25,0.63 2.18,0.92 6.03,1.9 12.44,3.24 18.61,4.85 12.81,3.35 25.87,6.76 39.17,10.24 6.87,1.8 13.41,3.85 20.22,5.63l64.52 16.87c7.66,2 14.81,4.24 22.73,6.32 15.62,4.09 31.57,8.27 47.84,12.53 16.91,4.43 33.4,9.13 50.93,13.72 17.72,4.65 35.84,9.39 54.35,14.24 19.09,5 37.77,10.32 57.82,15.57 40.57,10.64 82.35,22.02 126.64,33.66l0 -15.75zm0 -306.13c-23.99,-2.12 -46.5,-3.73 -69.26,-5.78 -23,-2.07 -45.42,-4.09 -67.27,-6.06 -5.43,-0.49 -10.01,-0.48 -15.53,-0.98 -113.92,-10.28 -213.38,-18.17 -301.38,-26.17 -7.23,-0.66 -13.82,-0.92 -20.96,-1.57 -13.82,-1.26 -27.37,-2.5 -40.65,-3.71 -6.72,-0.61 -12.8,-0.84 -19.36,-1.44 -49.35,-4.51 -94.83,-8.07 -137.48,-12l-51.55 -4.46c-2.48,-0.23 -4.5,-0.14 -6.91,-0.36 -36.05,-3.33 -69.58,-5.92 -101.36,-8.87l-38.87 -3.37c-1.63,-0.15 -3.79,-0.66 -5.34,-0.48 -3.26,0.36 -6.95,-0.43 -10.33,-0.74 -36.56,-3.41 -70.42,-5.92 -102.01,-8.89 -1.43,-0.13 -2.63,-0.04 -4,-0.17l-20.19 -1.9c-2.62,-0.25 -5.11,-0.28 -7.75,-0.53 -10.23,-0.97 -20.04,-1.69 -29.76,-2.61l0 0.2c9.69,0.92 19.48,2.05 29.69,3.02 2.63,0.25 5.04,0.69 7.68,0.94l16.07 1.54c2.8,0.27 5.4,0.72 8.19,0.99 22.8,2.19 46.61,4.91 71.92,7.35l37.78 3.87c1,0.1 1.61,0.4 2.6,0.49 44.21,4.14 92.51,9.87 145.67,14.91 1.27,0.12 2.04,0.48 3.32,0.6 37.37,3.56 77.29,8.14 119.97,12.33 23.29,2.29 47.24,4.95 72.48,7.44 6.41,0.63 12.51,1.56 19.17,2.21l40.82 4.03c7.16,0.71 13.8,1.7 21.15,2.43 60.1,5.95 124.96,13.1 196.45,20.21l104.35 10.79c5.44,0.54 10.13,1.42 15.81,1.99 21.85,2.18 44.26,4.42 67.25,6.72 22.8,2.28 45.51,4.96 69.62,7.4l0 -19.35z"/>
 </g>
</svg>
