<?xml version="1.0" encoding="UTF-8"?>
<!DOCTYPE svg PUBLIC "-//W3C//DTD SVG 1.1//EN" "http://www.w3.org/Graphics/SVG/1.1/DTD/svg11.dtd">
<!-- Creator: CorelDRAW 2021 (64-Bit) -->
<svg xmlns="http://www.w3.org/2000/svg" xml:space="preserve" width="4.83333in" height="1.61181in" version="1.1" style="shape-rendering:geometricPrecision; text-rendering:geometricPrecision; image-rendering:optimizeQuality; fill-rule:evenodd; clip-rule:evenodd"
viewBox="0 0 4833.34 1611.81"
 xmlns:xlink="http://www.w3.org/1999/xlink"
 xmlns:xodm="http://www.corel.com/coreldraw/odm/2003">
 <defs>
  <style type="text/css">
   <![CDATA[
    .fil0 {fill:#E7E7E7}
   ]]>
  </style>
 </defs>
 <g id="Layer_x0020_1">
  <metadata id="CorelCorpID_0Corel-Layer"/>
  <path class="fil0" d="M4833.34 571.67l-120.26 18.8c-4.52,0.68 -12.61,0.93 -16.64,2.67 -4.43,1.93 -56.92,9.03 -62.52,9.87 -20.2,3.03 -39.08,6.45 -58.33,9.35 -36.94,5.55 -71.48,11.28 -105.22,16.34l-70.09 11.02c-7.38,1.1 -15.02,1.68 -22.2,3.3 -1.01,0.22 -1.21,0.7 -2.35,0.88l-39.47 5.88c-13.65,2.04 -26.48,4.43 -39.59,6.38 -25.32,3.76 -49.19,7.77 -72.69,11.25 -22.43,3.33 -44.08,7.33 -65.13,10.09 -1.23,0.16 -2.25,0.76 -3.64,0.96l-26.46 3.91c-9.85,1.45 -19.12,3.22 -28.61,4.63 -36.09,5.32 -69.7,11.27 -101.59,15.7 -1.03,0.14 -1.67,0.61 -2.73,0.76 -28.9,4.18 -56.19,8.92 -82.04,12.69 -6.52,0.94 -12.67,2.17 -18.99,3.09 -6.22,0.9 -12.35,1.8 -18.41,2.68 -0.82,0.11 -1.37,0.53 -2.12,0.62 -11.03,1.38 -21.88,3.48 -32.35,5 -21.69,3.13 -42.15,6.69 -61.83,9.52l0 0.29c1.18,-0.17 2.28,-0.04 3.53,-0.21 18.52,-2.66 37.87,-4.83 58.15,-7.72 5.64,-0.8 11.12,-1.26 16.86,-2.08 5.81,-0.83 11.71,-1.67 17.69,-2.51 1.52,-0.22 2.84,-0.08 4.43,-0.31 36.21,-5.13 75.32,-9.63 117.91,-15.63 2,-0.28 3.67,-0.15 5.71,-0.43 30.14,-4.22 62.04,-7.93 95.91,-12.67 9.48,-1.32 18.77,-2.2 28.48,-3.57 9.91,-1.37 19.98,-2.78 30.23,-4.21 2.7,-0.37 4.93,-0.26 7.63,-0.64 63.23,-8.78 133.29,-17.11 211.85,-27.94 3.8,-0.52 6.96,-0.45 10.71,-0.97 89.83,-12.35 191.39,-24.61 308.03,-40.53 5.71,-0.78 10.6,-0.83 16.13,-1.58l115.12 -15.02c1.6,-0.22 3.2,-0.46 4.81,-0.65l0.05 -0 0 -29.02zm-4833.34 510.06l120.2 -18.85c4.51,-0.69 12.58,-0.93 16.59,-2.69 4.42,-1.92 56.76,-9.02 62.34,-9.85 20.14,-3.05 38.96,-6.46 58.17,-9.35 36.83,-5.56 71.27,-11.29 104.91,-16.35l69.89 -11.01c7.35,-1.1 14.98,-1.68 22.14,-3.31 1,-0.22 1.2,-0.7 2.34,-0.88l39.36 -5.87c13.62,-2.04 26.41,-4.43 39.48,-6.38 25.25,-3.77 49.06,-7.77 72.47,-11.26 22.37,-3.33 43.96,-7.34 64.95,-10.09 1.23,-0.17 2.25,-0.76 3.63,-0.96l26.38 -3.92c9.81,-1.45 19.06,-3.22 28.53,-4.62 36,-5.32 69.51,-11.28 101.31,-15.72 1.02,-0.14 1.66,-0.6 2.72,-0.76 28.82,-4.17 56.04,-8.92 81.81,-12.68 6.5,-0.95 12.64,-2.18 18.93,-3.09 6.2,-0.9 12.31,-1.8 18.35,-2.68 0.81,-0.12 1.36,-0.54 2.11,-0.63 11,-1.37 21.82,-3.48 32.26,-5 21.62,-3.13 42.03,-6.69 61.66,-9.52l0 -0.29c-1.18,0.17 -2.27,0.04 -3.52,0.22 -18.47,2.65 -37.77,4.82 -57.98,7.71 -5.63,0.8 -11.09,1.26 -16.81,2.09 -5.8,0.82 -11.68,1.65 -17.63,2.51 -1.52,0.21 -2.83,0.08 -4.41,0.3 -36.12,5.14 -75.11,9.63 -117.58,15.63 -2,0.28 -3.65,0.15 -5.7,0.44 -30.05,4.22 -61.86,7.93 -95.63,12.66 -9.45,1.32 -18.72,2.21 -28.41,3.57 -9.88,1.38 -19.93,2.78 -30.15,4.21 -2.69,0.37 -4.91,0.26 -7.61,0.63 -63.05,8.79 -132.91,17.11 -211.24,27.95 -3.8,0.53 -6.95,0.45 -10.69,0.97 -89.57,12.36 -190.84,24.61 -307.15,40.54 -5.7,0.78 -10.57,0.82 -16.09,1.58l-114.79 15.01c-1.59,0.22 -3.19,0.46 -4.8,0.65l-0.34 0.03 0 29.05zm0 -857.68c6.51,1.91 12.26,3.17 18.72,5.17 5.77,1.78 16.09,6.1 21.12,6.17 4.85,0.06 15.29,4.47 20.69,6.15 6.93,2.14 13.01,3.4 20.03,5.59 13.44,4.17 25.89,7.39 39.07,11.51 3.42,1.06 5.79,1.19 9.28,2.27 21.83,6.8 42.93,12.18 63.65,18.63l25.83 7.48c1.42,0.44 2.87,0.96 4.28,1.37 1.57,0.44 2.19,0.04 3.98,0.62 22.36,7.27 43.4,12.44 64.64,19.11l0 -0.55c-1.25,-0.39 -2.07,-1.23 -3.67,-1.71 -19.67,-5.95 -39.91,-13.69 -60.7,-20.23 -3.07,-0.97 -5.43,-2.31 -8.25,-3.17l-17.31 -5.46c-3.11,-0.97 -5.28,-2.24 -8.51,-3.27 -12.09,-3.82 -23.47,-8.01 -35.81,-11.9 -6.43,-2.03 -11.89,-4.37 -18.34,-6.41 -6.14,-1.95 -13.02,-3.72 -18.76,-6.52 -5.61,-2.73 -13.5,-4.31 -19.45,-6.19 -19.24,-6.09 -39.81,-14.09 -60.44,-20.43l-40.04 -13.96 0 15.74zm0 1011.42c75.48,-17.77 144.64,-36.34 209.07,-51.36 7.94,-1.84 15.06,-4.09 22.96,-5.93 7.69,-1.78 15.3,-3.56 22.84,-5.3 3.8,-0.89 6.8,-2.15 10.68,-3.05 4.58,-1.06 30.44,-6.57 32.55,-7.8 2.73,-1.58 26.31,-6.43 30.98,-7.51 3.63,-0.84 6.5,-2.04 9.95,-2.85 6.71,-1.54 13.36,-3.09 19.95,-4.62 6.73,-1.56 12.71,-3.47 19.22,-4.98l0 -0.52c-52.69,12.16 -108.82,22.87 -169.66,36.83 -8.13,1.85 -15.41,2.94 -23.63,4.82 -8.22,1.89 -16.52,3.79 -24.9,5.7l-51.78 11.26c-2.23,0.54 -3.58,0.18 -6.11,0.77l-41.48 9.48c-2.75,0.64 -4.21,0.28 -6.77,0.89l-53.87 11.61 0 12.56zm0 -446.02c96.55,0.48 183.62,-1.37 262.41,-0.83 18.77,0.13 36.73,-0.31 54.84,-0.18 9.05,0.07 17.24,-0.41 26.03,-0.34 8.56,0.06 17.02,0.13 25.39,0.19 8.34,0.06 16.06,-0.41 24.33,-0.34 8.01,0.06 15.93,0.12 23.77,0.19 4.02,0.04 7.31,-0.45 11.29,-0.42 11.44,0.1 22.71,0.19 33.8,0.28l0 -0.5c-1.95,-0.01 -3.23,-0.52 -5.26,-0.54l-16.63 -0.15c-7.43,-0.07 -15.57,0.86 -22.8,-0.69 -2.94,-0.64 -19.26,-0.22 -23.74,-0.25 -4,-0.05 -8.02,-0.08 -12.06,-0.12 -4.31,-0.04 -8.08,-0.59 -12.26,-0.63 -8.36,-0.09 -16.82,-0.18 -25.37,-0.25 -8.8,-0.09 -17.21,-0.72 -26.01,-0.8 -8.95,-0.09 -18,-0.18 -27.17,-0.28 -9.46,-0.1 -18.22,-0.74 -27.89,-0.84 -9.52,-0.1 -19.15,-0.2 -28.89,-0.3 -9.99,-0.1 -19.56,-0.78 -29.96,-0.9 -62.78,-0.67 -130.55,-3.25 -203.81,-4.16l0 11.85zm0 42.32c0.95,-0.19 2.17,-0.49 3.73,-0.76 4.06,-0.73 34.62,-0.63 40.83,-0.74 5.47,-0.09 9.99,-0.8 15.58,-0.9 40.83,-0.68 79.37,-2.54 116.75,-3.13 4.63,-0.08 8.41,-0.73 13.13,-0.8l26.72 -0.42c4.52,-0.07 8.19,-0.71 12.77,-0.78 33.67,-0.51 65.33,-2.09 96.4,-2.54 3.89,-0.06 7,-0.65 10.91,-0.7l22.25 -0.31c3.77,-0.06 6.84,-0.63 10.67,-0.68 14.37,-0.19 27.87,-0.9 41.59,-1.09l0 -0.52c-13.69,0.19 -27.24,-0.16 -41.6,0.02 -3.7,0.05 -6.67,-0.45 -10.44,-0.4l-22.25 0.27c-3.95,0.06 -7.11,-0.44 -11.14,-0.4 -31.05,0.37 -62.71,-0.39 -96.4,-0.01 -4.45,0.05 -7.99,-0.48 -12.5,-0.44l-26.7 0.29c-4.76,0.06 -8.56,-0.51 -13.41,-0.45 -37.37,0.39 -75.89,-0.45 -116.74,-0.04 -5.43,0.05 -9.75,-0.55 -15.26,-0.51 -5.05,0.06 -38.05,0.86 -40.69,0.12 -1.43,-0.41 -2.37,-0.35 -3.93,-0.36l-0.29 -0.01 0 15.28zm352.12 -831.77c5.44,2.83 10.83,5.65 16.21,8.5l47.91 24.92c2,1.07 3.42,1.3 5.56,2.43l39.37 19.91c-29.8,-15.85 -60.37,-33.14 -92.84,-50.44 -3.27,-1.74 -6.12,-3.56 -9.17,-5.33l-7.04 0zm-352.12 1516.55c56.83,-21.94 109.48,-42.83 159.99,-62.3 48.62,-18.73 94.54,-36.42 137.96,-53.15 20.96,-8.07 40.67,-16.2 60.58,-23.86l157.35 -60.57c2,-0.77 3.45,-1.8 5.54,-2.61l121.65 -46.79c12.82,-4.93 25,-10.03 37.21,-14.72 23.6,-9.07 46.29,-17.79 68.1,-26.17 21.07,-8.1 41.04,-16.14 60.56,-23.63l0 -0.37c-178.22,68.34 -428.95,162.4 -808.95,307.58l0 6.59zm133.04 -1516.55c11.2,5.05 21.8,9.54 32.88,14.67 49.98,23.17 96.53,43.61 141.1,64.31 5.53,2.56 10.2,4.18 15.66,6.71 10.56,4.91 20.99,9.75 31.27,14.53 5.28,2.44 9.93,4.07 14.95,6.41 9.87,4.59 19.61,9.11 29.23,13.59 9.6,4.47 18.62,8.15 28.1,12.56 35.91,16.71 69.72,31.47 102.37,46.69l0 -0.46c-1.91,-0.89 -3.55,-2.14 -5.65,-3.12 -47.69,-22.25 -98.72,-47.6 -153.82,-73.37l-53.99 -25.8c-1.34,-0.62 -2.69,-1.23 -4.04,-1.87 -1.54,-0.72 -2.14,-1.6 -3.82,-2.36 -44.11,-20.08 -91.43,-43.99 -141.06,-67.28 -3.64,-1.7 -7.24,-3.44 -10.82,-5.19l-22.35 0zm87.11 1611.74c35.31,-17.83 68.95,-35.04 101.5,-51.16l56.61 -28.54c2.82,-1.4 4.81,-2.9 7.59,-4.28 10.28,-5.09 20.43,-10.09 30.44,-15.05 9.88,-4.88 19.24,-10.02 29,-14.83 18.86,-9.32 36.7,-18.62 54.66,-27.48l44.6 -22.49c2.21,-1.08 3.78,-2.32 5.99,-3.41l0 -0.46c-33.48,16.48 -68.19,32.6 -105.24,50.82l-51.51 24.81c-2.77,1.36 -4.74,1.8 -7.51,3.17 -10.43,5.13 -21,10.31 -31.73,15.57 -10.91,5.35 -21.51,10.03 -32.89,15.62 -22.94,11.25 -45.89,21.94 -70.31,33.92l-49.4 23.78 18.19 0zm298.07 -1611.74l18.74 11.18c9.89,5.88 19.11,10.93 28.74,16.67 18.76,11.19 36.52,21.34 54.19,31.89l0 -0.43c-17.59,-10.52 -35.31,-21.55 -54.02,-32.74 -9.61,-5.73 -18.83,-11.71 -28.74,-17.64l-14.94 -8.93 -3.98 0zm-476.28 0l25.28 10.89c7.65,3.36 14.39,5.7 22.07,9.09 28.89,12.72 55.98,24.05 83.12,36 6.61,2.93 12.58,4.96 19.3,7.92 40.9,18.05 79.83,34.1 116.96,50.5 3.07,1.34 5.52,1.87 8.32,3.11 32.48,14.54 63.31,26.96 93.11,40.16 9.9,4.38 19.16,7.97 28.65,12.18 18.64,8.26 36.27,15.58 54.04,23.47 2.33,1.03 3.96,1.28 6.28,2.31l43.79 18.51 -43.42 -19.8c-2.23,-0.99 -4.06,-2.3 -6.47,-3.37 -17.76,-7.91 -35.36,-16.24 -54.02,-24.55 -23.54,-10.5 -48.29,-22.58 -73.62,-33.89 -5.46,-2.44 -10.32,-5.13 -15.69,-7.53 -10.7,-4.79 -21.65,-9.34 -32.64,-14.57 -1.42,-0.67 -2.12,-1.54 -3.78,-2.26l-29.8 -13.33c-6,-2.69 -11.27,-5.6 -17.22,-8.26l-73.92 -33.68c-6.82,-3.06 -12.74,-6.3 -19.57,-9.36 -27.12,-12.17 -54.18,-24.9 -83.08,-37.87 -4.13,-1.86 -7.97,-3.77 -11.85,-5.68l-35.83 0zm-41.94 1560.9c0.78,-0.39 1.62,-0.81 2.46,-1.15l7.17 -3.6c4.79,-2.46 10.36,-4.23 15.18,-6.2l57.69 -23.6c9.59,-3.93 18.38,-8.15 27.5,-11.87 17.87,-7.3 35.38,-14.46 52.54,-21.47 17.05,-6.96 32.97,-14.07 49.46,-20.79 61.86,-25.26 118.78,-49.6 172.25,-71.39 6.57,-2.68 12.38,-5.56 18.79,-8.17l45.55 -18.56c3.16,-1.28 5.59,-2.77 8.65,-4.02 11.5,-4.68 22.82,-9.28 33.95,-13.81 11.14,-4.54 21.54,-9.25 32.34,-13.64 40.97,-16.66 79.19,-33.09 115.54,-47.84l-51.21 19.89c-1.43,0.59 -2.18,0.4 -3.54,0.98 -19.54,8.19 -39.59,15.57 -60.26,23.92 -43.57,17.63 -89.63,35.23 -139.38,55.32l-70.44 27.89c-2.88,1.16 -8.05,3.92 -10.65,4.07 -2.88,0.15 -39.77,15.7 -43.9,17.36 -15.53,6.26 -30.62,11.76 -46.6,18.19 -65.59,26.42 -135.97,53.54 -213.08,84.48l0 14zm0 -244.26c123.7,-34.44 231.75,-66.19 327.37,-92.68 15.14,-4.19 29.33,-8.65 43.97,-12.7 14.24,-3.94 28.22,-7.81 41.93,-11.6 6.8,-1.88 12.94,-4.09 19.69,-5.95 4.79,-1.33 54.84,-14.57 56.82,-15.91 2.4,-1.61 47.96,-13.52 52.44,-14.74 5.76,-1.6 10.91,-3.48 16.52,-5.03 10.84,-2.99 21.5,-5.93 31.98,-8.82 10.45,-2.87 20.23,-6.01 30.31,-8.78 19.65,-5.41 38.38,-11 56.72,-16.04l0 -0.42c-56.61,15.54 -118.78,31.23 -187.7,50.08 -12.34,3.37 -24.32,6.16 -37.14,9.66 -12.97,3.54 -26.17,7.15 -39.63,10.83 -6.9,1.88 -13.18,3.09 -20.23,5l-54.07 14.75c-3.43,0.93 -8.01,2.8 -11.34,3.06 -7,0.56 -15.18,3.61 -22.73,5.67 -15.85,4.32 -32.04,8.73 -48.55,13.23 -8.61,2.35 -16.53,3.93 -25.17,6.28 -17.31,4.71 -34.99,9.53 -53.07,14.44 -18.7,5.09 -36.92,9.43 -56.33,14.7 -19.74,5.37 -39.92,10.85 -60.57,16.46 -20.06,5.45 -40.07,10.31 -61.19,15.98l0 12.53zm410.43 -1316.63l0.64 0.35c4.9,2.71 9.08,4.5 13.84,7.13 35.91,19.83 69.7,37.04 102.2,55.02l0 -0.47c-19.87,-11.01 -40.6,-23.46 -61.85,-35.24 -4.46,-2.46 -8.44,-5.17 -13.06,-7.74l-20.17 -11.19c-2.4,-1.33 -4.19,-2.83 -6.71,-4.23l-6.51 -3.63 -8.37 0zm55.43 0c2.87,1.61 5.74,3.23 8.63,4.89 13.03,7.48 25.82,14.81 38.37,22.02 12.3,7.06 24.12,13.38 36.13,20.28 11.72,6.72 23.24,13.34 34.56,19.84 5.52,3.18 10.74,5.72 16.29,8.91 3.83,2.2 45.67,26.72 47.16,26.97 2.24,0.39 39.77,22.56 43.7,24.81 4.78,2.76 9.23,4.89 13.81,7.54l0 -0.41c-9.22,-5.31 -18.59,-10.7 -28.11,-16.18 -9.77,-5.62 -19.4,-11.59 -29.36,-17.33 -10.16,-5.85 -20.5,-11.81 -31.01,-17.87 -10.81,-6.22 -21.3,-12.71 -32.48,-19.16 -34.74,-20.02 -71.5,-41.48 -110.48,-64.31l-7.21 0zm46.8 1611.74c57.09,-34.97 109.37,-67.22 157.67,-96.3l0 -0.42c-2.3,1.39 -4.24,2.13 -6.65,3.57l-35.11 21.11c-4.97,3 -9.47,5.26 -14.48,8.27 -9.94,5.98 -20.05,12.06 -30.31,18.22 -10.54,6.33 -20.75,12.02 -31.67,18.56 -14.79,8.88 -29.89,17.85 -45.33,26.98l5.88 0zm-512.67 -8.78l80.87 -35.56c4.19,-1.81 7.34,-3.79 11.26,-5.48 30.45,-13.09 58.99,-26.05 87.36,-38.28 26.71,-11.51 53.56,-24.24 78.61,-35.02 24.96,-10.73 48.5,-21.45 72.06,-31.54 2.92,-1.25 5.24,-2.8 8.31,-4.12 35.85,-15.41 70.07,-31.13 102.71,-45.13 5.15,-2.21 9.72,-4.67 14.65,-6.77 19.2,-8.24 37.31,-16.48 55.48,-24.26 4.61,-1.97 8.63,-4.17 13.06,-6.07l38.21 -17.27c-33.79,14.44 -69.22,28.11 -106.76,44.1l-44.65 18.52c-5.31,2.26 -9.96,3.72 -15.38,6.02 -21.55,9.17 -43.03,17.78 -65.87,27.48 -5.89,2.5 -11.12,4.18 -17.17,6.75l-73.49 30.63c-6.56,2.79 -12.47,4.71 -19.27,7.6l-35.48 15.05c-2.13,0.92 -3.04,0.66 -5.02,1.51 -42.56,18.41 -86.93,35.58 -133.89,55.45 -15.27,6.45 -30.16,12.19 -45.62,18.63l0 17.78zm0 -1543.8c198.01,78.83 357.27,140.67 489.19,193.33 7.6,3.05 14.56,5.34 22.03,8.32 21.57,8.62 42.46,16.98 62.7,25.07 13.11,5.25 25.69,9.83 38.4,14.9 12.4,4.96 24.55,9.83 36.46,14.59 11.74,4.7 22.81,8.7 34.12,13.22 11.04,4.42 21.87,8.76 32.52,13.02 10.54,4.22 20.53,7.82 30.63,11.86 9.89,3.97 19.61,7.86 29.16,11.69l0 -0.38c-81.07,-32.52 -175.56,-72.2 -286.39,-116.81 -79.89,-32.15 -169.54,-69.32 -271.06,-110.26 -22.14,-8.93 -44.06,-18.37 -67.49,-27.82l-112.66 -45.47c-3.66,-1.47 -6.06,-3.1 -9.62,-4.52l-25.69 -10.39c-0.68,-0.28 -1.52,-0.79 -2.29,-1.11l0 10.75zm0 1098.46c39.41,-7.66 77.68,-16.22 114.09,-23.21 7.63,-1.46 14.25,-3.35 21.83,-4.79l36.98 -7.07c2,-0.37 2.92,-1.2 5.06,-1.58 53.04,-9.57 102.98,-21.37 149.77,-30.26 44.23,-8.41 85.73,-17.84 125.27,-25.32 4.93,-0.92 9.26,-2.24 14.01,-3.13l54.27 -10.73c4.42,-0.82 8.39,-2.04 12.87,-2.89l18.93 -3.56c2.26,-0.42 3.93,-1.2 6.08,-1.59l0 -0.46c-16.76,3.13 -33.41,5.78 -51,9.07 -4.59,0.85 -8.65,1.13 -13.19,1.98l-56.47 10.02c-4.98,0.93 -9.6,1.28 -14.8,2.26l-22.9 4.26c-2.82,0.53 -4.85,0.38 -7.65,0.89 -21.43,3.98 -42.76,7.39 -65.41,11.59 -5.91,1.09 -11.06,1.51 -16.98,2.6 -38.71,7.15 -79.35,13.5 -122.17,21.39 -3.69,0.67 -6.34,0.57 -10.06,1.25 -28.2,5.18 -56.42,9.75 -86.52,15.27 -7.86,1.43 -14.7,2.06 -22.64,3.51l-69.39 12.07 0 18.44zm0 -405.76c34.08,0.81 68.01,0.47 99.57,1.31 32.21,0.85 62.43,1.04 92.46,1.85 7.25,0.19 13.94,-0.21 21.28,-0.01l80.93 1.63c6.54,0.19 12.43,-0.21 19,-0.02l32.34 0.89c1.76,0.06 2.87,-0.43 4.31,-0.43 11.8,-0.02 23.52,0.68 34.96,1 5.81,0.16 10.9,-0.21 16.67,-0.05l64.03 1.33c5.28,0.15 9.88,-0.21 15.09,-0.06 19.81,0.58 38.51,0.64 57.23,1.21 4.7,0.13 8.8,-0.21 13.4,-0.07l39.26 0.26c-17.18,-0.52 -34.44,-1.71 -52.67,-2.07 -1.24,-0.02 -1.8,-0.56 -3.13,-0.57l-24.87 -0.79c-4.94,-0.14 -9.4,-0.78 -14.28,-0.92l-61.23 -2.45c-5.55,-0.18 -10.69,-0.86 -16.13,-1.02 -22.39,-0.73 -44.8,-1.98 -68.56,-2.75 -23.95,-0.8 -49.59,-2.74 -75.16,-3.59 -27.04,-0.91 -54.28,-2.39 -83.3,-3.38 -3.88,-0.13 -6.72,-0.82 -10.58,-0.95 -53.48,-1.83 -110.48,-5.05 -171.35,-7.16 -2.17,-0.09 -4.69,0.04 -6.83,-0.25 -0.5,-0.07 -1.47,-0.51 -2.46,-0.78l0 17.84zm0 -83.13c45.44,3.17 87.91,5.56 129.32,8.49 20.51,1.45 39.63,2.2 59.2,3.58 19.02,1.35 37.62,2.68 55.79,3.98 4.63,0.33 8.47,0.02 12.86,0.33l63.71 4.55c8.31,0.6 15.81,0.6 23.85,1.18 15.57,1.11 30.83,2.21 45.78,3.28 14.81,1.06 28.78,1.56 43.1,2.59 53.7,3.87 103.19,6.5 149.57,9.88l56.03 3.66c2.48,0.17 5.32,0.75 7.53,0.17 1.33,-0.35 27.46,1.96 29.5,2.12 9.67,0.71 18.83,0.97 28.12,1.65l0 -0.41c-37.86,-2.81 -77.96,-6.66 -121.17,-9.91 -11.41,-0.85 -22.48,-2.15 -34.25,-3.03 -11.89,-0.91 -23.98,-1.81 -36.31,-2.74 -6.23,-0.48 -12.17,-1.39 -18.65,-1.88l-39.67 -3c-6.99,-0.54 -13.54,-1.54 -20.51,-2.06 -120.43,-9.16 -262.25,-22.31 -433.82,-35.63l0 13.19zm0 -37.61c64.15,5.75 123.33,9.33 179.35,14.46 7.03,0.65 13.06,0.61 19.96,1.24l58.15 4.78c36.22,3.35 71.64,4.99 104.67,8.07 5.41,0.51 10.77,1.01 16.09,1.51 5.55,0.52 10.34,0.44 15.75,0.95l23.12 2.16c2.73,0.26 4.69,-0.06 7.4,0.19 8.8,0.83 20.97,2.64 29.47,2.28 4.47,-0.19 9.69,0.91 14.18,1.34 4.74,0.44 9.43,0.85 14.1,1.34 1.37,0.14 2.05,-0.28 3.19,-0.21l23.98 2.29c4.38,0.42 8.44,0.33 12.92,0.76 4.37,0.41 8.71,0.82 13.02,1.24 4.44,0.42 8.27,0.32 12.61,0.73 4.2,0.4 8.38,0.81 12.53,1.2l0 -0.46c-29.17,-2.8 -60.05,-7.21 -92.14,-10.31 -4.75,-0.47 -9.2,-1.41 -14.18,-1.88 -39.61,-3.86 -81.05,-9.7 -125.52,-13.85 -2.76,-0.26 -5.17,-1.06 -8.19,-1.36 -8.77,-0.86 -17.63,-1.74 -26.59,-2.63 -6.06,-0.59 -11.66,-1.7 -17.99,-2.33 -6.17,-0.61 -12.4,-1.22 -18.67,-1.84 -6.46,-0.64 -12.13,-1.78 -18.59,-2.42 -52.78,-5.25 -109.31,-12.72 -169.59,-18.78 -7.93,-0.79 -15.27,-2.17 -23.57,-3 -8.11,-0.83 -16.28,-1.65 -24.53,-2.48 -3.98,-0.4 -8.58,-0.45 -12.52,-1.26 -1.91,-0.39 -3.37,-1.01 -5.8,-1.25 -0.93,-0.09 -1.83,-0.3 -2.62,-0.43l0 19.96zm0 364.84c63.93,-6.82 123,-14.9 178.98,-20.69 3.46,-0.35 6.15,-1.23 9.78,-1.61l30.24 -3.15c6.59,-0.68 12.41,-1.87 19.03,-2.56 6.42,-0.67 12.8,-1.32 19.11,-1.99 6.4,-0.66 12.04,-1.81 18.17,-2.45 47.22,-4.88 91.87,-11.09 133.83,-15.39 5.25,-0.54 9.85,-1.53 15.1,-2.06 5.04,-0.51 10.04,-1.02 14.99,-1.53 5.1,-0.52 9.61,-1.47 14.49,-1.98 37.56,-3.83 72.74,-8.81 106.56,-12.22l0 -0.45c-4.2,0.42 -7.9,0.32 -12.19,0.75 -29.83,2.98 -61.32,4.67 -93.97,7.9l-44.56 3.9c-5.31,0.52 -9.98,0.46 -15.42,1 -5.21,0.52 -10.46,1.03 -15.74,1.55 -5.55,0.55 -10.66,0.52 -16.09,1.05l-29.3 2.87c-1.73,0.2 -2.44,-0.33 -4.18,-0.15 -23.34,2.59 -46.65,4 -71.42,6.4 -3.33,0.32 -5.75,-0.01 -8.98,0.31l-29.15 2.82c-6.83,0.66 -12.8,0.65 -19.75,1.32 -34.2,3.29 -69.87,5.5 -107,9.06 -29.63,2.83 -60.87,4.62 -92.52,7.55l0 19.78zm0 -975.09l110.78 45.78c4.09,1.72 11.31,5.61 14.98,6.11 4.26,0.59 52.23,21.47 57.55,23.71 18.72,7.85 36.19,14.59 54.05,22.09 67.02,28.14 128.22,52.78 185.31,76.79 6.77,2.85 13.21,5.05 20.04,7.92 13.17,5.55 26.11,10.99 38.8,16.33 6.39,2.7 12.25,4.67 18.62,7.36 47.39,19.96 91.25,37.54 132.58,54.98l50.07 20.71c2.43,1.03 4.4,1.44 6.85,2.48l0 -0.42c-37.53,-15.88 -77.13,-33.52 -119.8,-51.6l-60.39 -26.07c-2.96,-1.26 -6.37,-2.28 -9.3,-3.94l-37.56 -16.42c-13.28,-5.63 -26.18,-11.63 -39.89,-17.45 -56.96,-24.19 -118.05,-51.24 -185.05,-79.76 -8.77,-3.73 -17.14,-7.87 -26.3,-11.78l-55.82 -23.78c-9.94,-4.23 -19.11,-8.74 -29.35,-13.11 -40.43,-17.24 -82,-35.58 -126.16,-54.43l0 14.49zm0 1421.11c65.92,-22.84 126.52,-45.55 183.85,-65.3 7.19,-2.48 13.51,-5.24 20.67,-7.7 6.87,-2.36 13.69,-4.71 20.44,-7.03 6.93,-2.39 12.94,-5.03 19.67,-7.34 32.04,-11.01 62.78,-22.68 92.38,-32.83 44.77,-15.36 87.74,-32.14 127.51,-45.73 4.89,-1.66 9.72,-3.32 14.54,-4.97 4.88,-1.67 9.18,-3.61 14.06,-5.28 4.69,-1.59 9.34,-3.19 13.96,-4.77 4.74,-1.61 8.88,-3.51 13.49,-5.07l20.02 -6.83c2.21,-0.74 4.02,-1.84 6.37,-2.64l19.23 -6.55c2.31,-0.79 4.13,-1.87 6.28,-2.59l0 -0.47c-34.31,11.66 -69.97,22.34 -108.15,35.27 -2.64,0.9 -4.69,1.09 -7.2,1.95l-22.64 7.65c-5.25,1.78 -9.92,2.85 -15.3,4.67 -5.24,1.77 -10.52,3.56 -15.85,5.35 -5.54,1.87 -10.42,3 -15.97,4.87 -39,13.18 -80.37,25.49 -123.76,40.1 -45.88,15.45 -94.82,30.13 -146.48,47.45 -7.8,2.63 -14.85,4.37 -22.93,7.08 -7.88,2.65 -15.83,5.31 -23.85,8 -8.38,2.81 -15.75,4.64 -24.19,7.46l-46.14 14.76 0 20.48zm69.58 169.76l10.62 -4.9c9.2,-4.19 17.59,-8.61 26.35,-12.59 34.55,-15.65 66.87,-30.9 98.85,-45.39 7.76,-3.52 14.77,-7.28 22.54,-10.8 44.09,-19.96 85.9,-39.98 125.53,-57.9 6.62,-2.98 12.43,-6.15 18.93,-9.09 24.84,-11.21 48.26,-22.3 71.56,-32.81 3.04,-1.37 5.35,-2.92 8.32,-4.25 35.56,-16.04 69.34,-32.22 101.53,-46.71 4.89,-2.21 9.33,-4.66 14.25,-6.88 18.81,-8.46 36.65,-16.93 54.46,-24.93l0 -0.44c-1.24,0.56 -1.93,0.4 -3.05,0.92l-23.35 10.49c-4.7,2.11 -8.89,3.54 -13.64,5.67 -62.98,28.24 -132.73,57.02 -209.85,91.46 -31.81,14.21 -65.33,28.07 -100.15,43.61 -7.41,3.31 -14.04,5.7 -21.56,9.05l-39.53 17.61c-2.31,1.04 -3.54,0.96 -5.69,1.93 -31.99,14.65 -64.36,28.06 -98.82,43.4 -9.05,4.02 -17.33,7.07 -26.34,11.08l-49.15 21.47 38.2 0zm393.06 0l0.6 -0.35c146.5,-85.19 265.03,-154.92 363.15,-211.91 12.67,-7.35 24.8,-14.76 36.93,-21.8l96.71 -56.78c-40.59,23.54 -84.78,48.8 -133.64,77.11 -6.52,3.78 -12.81,7.06 -19.45,10.9 -95.69,55.4 -210.69,121.3 -351.93,202.82l7.64 0zm-462.65 -1185.13c45.72,9.13 89,16.74 130.77,25.63 2.54,0.54 4.55,0.3 7.4,0.87l52.26 10.52c19.32,3.89 37.41,6.94 55.93,10.69 35.37,7.13 68.56,13.28 101.09,19.85 8.02,1.62 15.37,2.58 23.05,4.13l44.88 9.09c7.37,1.49 14,2.33 21.24,3.79 27.65,5.61 53.69,10.4 79.23,15.59l62.45 12.22c2.46,0.5 6.31,1.93 8.57,1.67 2.78,-0.3 29.31,5.6 32.64,6.27 10.63,2.17 20.67,3.78 30.99,5.88 20.02,4.09 39.02,7.56 57.82,11.4l0 -0.41c-4.7,-0.96 -9.01,-2.26 -13.73,-3.23l-29.02 -5.96c-5.03,-1.04 -9.73,-2.43 -14.92,-3.49 -20.75,-4.26 -41.74,-9.02 -63.91,-13.6l-68.56 -14.56c-1.07,-0.24 -1.3,-0.76 -2.31,-1 -12.57,-3.02 -25.51,-5.25 -38.59,-7.96 -13.46,-2.78 -26.75,-6.02 -40.85,-8.95 -28.74,-5.94 -58.15,-12.56 -89.43,-19.04 -8.07,-1.68 -15.5,-3.76 -23.78,-5.47 -59.56,-12.37 -123.67,-26.86 -193.32,-41.39 -39.59,-8.25 -81.09,-17.85 -124.63,-26.62 -1.87,-0.38 -3.78,-1.37 -5.26,-1.84l0 15.91zm0 930.49c1.63,-0.54 3.93,-1.4 7.16,-2.37 3.97,-1.19 7.93,-2.38 11.85,-3.55 4.07,-1.22 7.15,-2.79 11.38,-4.06l141.74 -42.43c13.52,-4.05 25.95,-8.37 38.97,-12.26l107.54 -32.16c11.28,-3.37 21.64,-7.01 32.58,-10.28 31.44,-9.4 61.59,-18.4 90.54,-27.04 9.52,-2.84 18.31,-5.96 27.63,-8.73 26.75,-7.99 52.48,-15.66 77.27,-23.05 8.06,-2.41 15.6,-5.12 23.55,-7.48 23.05,-6.87 45.28,-13.5 66.74,-19.89 7,-2.09 13.64,-4.51 20.59,-6.57 20.05,-5.97 39.44,-11.74 58.21,-17.32 6.08,-1.81 11.96,-3.96 18.04,-5.76l51.21 -15.22c2.81,-0.84 5.23,-1.94 7.98,-2.75l53.37 -16.21c-2.46,0.72 -4.59,1 -7.09,1.74l-54.15 16.03c-2.73,0.81 -5.24,1.17 -8.09,2.02l-61.15 18.09c-1.65,0.49 -2.83,0.43 -4.44,0.91l-74.34 21.96c-1.77,0.53 -3.18,0.5 -5.07,1.06l-38.45 11.35c-15.22,4.5 -30.95,9.7 -46.92,13.87 -1.02,0.27 -1.54,-0.05 -2.74,0.32 -28,8.65 -57.54,16.97 -88.11,25.97 -3.7,1.09 -10.6,4.11 -13.93,3.81 -1.83,-0.16 -104.44,30.37 -118.99,34.83 -1.72,0.52 -2.44,0.15 -3.99,0.59l-136.64 40.2c-3.63,1.07 -6.43,1.28 -9.85,2.3l-165.25 48.54c-3.15,0.93 -4.92,0.9 -7.17,1.4l0 12.14zm0 -78.08c39.91,-10.32 77.26,-20.54 113.96,-29.99 9.34,-2.41 17.63,-5.16 26.83,-7.52 51.72,-13.3 100.44,-26.97 146.39,-38.76 7.67,-1.97 14.49,-4.26 22.04,-6.21 28.66,-7.33 55.63,-14.84 82.34,-21.59 1.81,-0.46 2.88,-1.28 4.48,-1.69l33.28 -8.48c6.3,-1.61 11.87,-3.54 18.07,-5.11 73.98,-18.87 140.77,-38.15 201.07,-53.43l0 -0.43c-4.53,1.14 -8.63,1.75 -13.26,2.92 -27.68,6.99 -56.63,13.4 -86.96,21.04 -5.38,1.35 -10.25,2.11 -15.74,3.49 -44,11.06 -90.66,21.28 -140.94,33.88 -33.02,8.27 -67.83,15.9 -104.13,24.96 -7.64,1.91 -14.58,3.08 -22.43,5.03 -11.62,2.9 -23.41,5.84 -35.39,8.82 -4.31,1.07 -7.74,1.36 -11.96,2.41 -33.48,8.33 -67.42,16.17 -103.68,25.19 -9.42,2.34 -18,3.85 -27.69,6.25l-86.28 20.8 0 18.44zm0 -811.95c1.91,0.53 4.43,0.59 6.21,0.91l29.57 4.64c32.05,5.74 62.98,11.29 92.87,16.65 6.07,1.09 11.26,1.41 17.39,2.52 22.74,4.08 44.9,8.06 66.47,11.94 21.04,3.77 41.07,6.8 61.26,10.43 38.64,6.96 74.82,12.94 110.01,19.29l84.47 14.74c4.02,0.72 7.36,0.83 11.26,1.54 57.44,10.39 109.85,18.99 158.63,27.86 21.44,3.89 42.27,7.12 62.33,10.92 1.39,0.26 2.39,0.03 3.85,0.29 10.39,1.9 20.59,3.76 30.6,5.58 9.94,1.81 19.38,3.15 29.02,4.91l0 -0.39c-19.21,-3.52 -38.72,-7.49 -59.35,-11.28l-64.07 -12.19c-0.94,-0.16 -1.21,-0.65 -2.07,-0.84 -11.78,-2.59 -23.9,-4.39 -36.16,-6.64 -12.65,-2.33 -25.03,-5.07 -38.2,-7.5 -27.02,-4.98 -54.62,-10.56 -84,-16l-82.79 -15.83c-3.88,-0.72 -9.09,-0.96 -12.85,-2.42 -7.99,-3.09 -17.17,-3.68 -25.74,-5.28 -103.16,-19.15 -221.32,-42.9 -358.7,-68.58l0 14.72zm0 -116.75c0.94,0.2 1.94,0.24 2.6,0.4 2.28,0.54 4.13,0.98 5.91,0.95 2.46,-0.06 32.72,7.74 36.62,8.68 4.25,1.03 7.26,1.12 11.38,2.11 8.9,2.17 28.95,8.03 35.15,8.49 8.3,0.63 28.15,6.29 38.31,8.73 1.98,0.48 3.08,0.1 5.33,0.66l42.09 9.63c53.02,12.91 102.36,22.69 149.17,34.16 5.86,1.44 10.92,2.13 16.63,3.53 5.55,1.36 11.04,2.7 16.5,4.05 5.41,1.32 10.41,2.03 15.93,3.38 5.39,1.32 10.72,2.59 16.03,3.94 1.49,0.39 2.07,-0.04 3.62,0.35l22.87 5.63c1.55,0.39 2.42,0.1 3.7,0.37l22.26 5.5c2.5,0.63 4.5,0.61 7.13,1.27 4.78,1.17 9.53,2.35 14.24,3.52 4.83,1.18 8.98,1.72 13.77,2.91 27.1,6.69 53.18,11.73 78.24,17.94l0 -0.46c-4.26,-1.06 -8.05,-2.47 -12.25,-3.51 -4.19,-1.04 -8.41,-2.09 -12.65,-3.15 -4.33,-1.07 -8.24,-2.52 -12.72,-3.63 -4.35,-1.09 -8.74,-2.19 -13.15,-3.28 -2.24,-0.55 -4.01,-1.48 -6.39,-2.07 -4.35,-1.09 -17.82,-3.72 -20.39,-5.37 -1.51,-0.97 -18.02,-4.71 -21.05,-5.46 -2.6,-0.66 -4.47,-1.63 -7.05,-2.28 -4.81,-1.2 -9.65,-2.41 -14.53,-3.63 -5.09,-1.27 -9.53,-2.89 -14.62,-4.16 -40.92,-10.26 -84.31,-23.3 -130.24,-34.88 -6.14,-1.55 -11.52,-3.45 -17.77,-5.04 -6.1,-1.54 -12.24,-3.09 -18.44,-4.65 -3.33,-0.84 -5.75,-2.03 -8.99,-2.84 -9.01,-2.27 -20.17,-4.5 -28.93,-7.3l-34.72 -9.38c-1.98,-0.47 -2.89,-1.36 -5.04,-1.88 -20.73,-5.03 -41.76,-11.19 -63.53,-16.72 -7.66,-1.94 -14.47,-4.3 -22.36,-6.3 -30.01,-7.63 -60.6,-16.63 -92.63,-24.85l0 24.64zm559.44 1261.43l8.6 -5.37c5.12,-3.2 9.79,-6.57 14.92,-9.77 5,-3.13 9.96,-6.22 14.88,-9.3 4.96,-3.09 9.47,-6.34 14.24,-9.33l41.42 -26.7c-22.51,14.03 -45.93,27.74 -70.22,42.86 -5.18,3.22 -9.87,5.69 -15.07,8.93l-13.97 8.69 5.2 0zm-148.96 0c68.1,-38.19 129.74,-73.66 186.48,-105.42 6.79,-3.8 13.2,-7.85 19.96,-11.63 13.06,-7.31 25.85,-14.46 38.37,-21.47 6.23,-3.48 12,-7.15 18.17,-10.58 46.2,-25.84 88.63,-50.34 128.3,-72.49l0 -0.38c-4.9,2.73 -9.52,4.94 -14.43,7.68l-38.09 21.24c-2.67,1.48 -5.11,2.45 -7.9,4.01 -10.79,6.01 -21.79,12.15 -33,18.39 -11.45,6.38 -22.87,12.33 -34.88,19.02 -24.62,13.71 -49.86,27.33 -76.66,42.25l-84.19 46.4c-1.16,0.64 -1.61,0.38 -2.88,1.11 -31.94,18.24 -65.28,35.8 -100.19,55.19l-12.06 6.68 12.99 0zm-410.48 -131.41c0.31,-0.15 0.6,-0.29 0.85,-0.39l17.01 -6.88c108.78,-39.78 205.34,-76.26 291.67,-107.78 21.69,-7.91 42.2,-15.94 62.56,-23.35 19.89,-7.25 39.25,-14.31 58.11,-21.2 4.74,-1.72 8.78,-3.69 13.48,-5.41 97.53,-35.54 182.28,-67.75 257,-94.87 1.63,-0.59 2.75,-1.42 4.39,-2l30.93 -11.24c11.48,-4.17 22.35,-8.5 33.35,-12.48 21.32,-7.73 41.48,-15.41 61.21,-22.56l-52.88 18.4c-2.14,0.77 -6.1,2.92 -8.02,2.66 -1.31,-0.17 -13.85,4.84 -16.36,5.76 -40.31,14.55 -83.61,29.34 -130.38,46.2l-77.35 27.41c-1.95,0.7 -3.9,1.41 -5.86,2.12 -2.18,0.78 -3.72,0.87 -5.91,1.65 -67.19,24.18 -140.94,49.66 -223.53,79.3l-123.37 43.7c-6.66,2.39 -12.41,3.85 -19.13,6.26 -26.39,9.45 -53.61,19.21 -81.7,29.28 -27.92,10 -56.17,19.53 -86.06,30.17l0 15.25zm0 -364.94c56.73,-9.66 109.34,-19.19 159.54,-27.7 48.3,-8.19 93.67,-16.99 137.06,-23.78 1.63,-0.26 2.2,-0.91 3.61,-1.19 18.8,-3.71 38.68,-6.5 56.61,-9.53 19.31,-3.27 37.53,-6.86 55.96,-9.96 35.26,-5.94 68.35,-12 100.47,-17.4 7.84,-1.32 15.01,-3 22.66,-4.28 50.75,-8.52 97.61,-17.24 141.23,-24.53l59.88 -10.4c2.8,-0.47 5.17,-1.26 7.96,-1.72 21.08,-3.5 41.1,-7.21 60.59,-10.45l0 -0.37c-19.43,3.21 -39.44,6.14 -60.46,9.62 -2.67,0.44 -5.16,0.45 -7.96,0.91 -42.12,6.95 -87.4,13.56 -136.48,21.62 -6.99,1.14 -13.59,1.78 -20.65,2.94l-43.75 7.16c-7.65,1.26 -14.93,1.97 -22.83,3.27 -32.04,5.24 -65.04,10.13 -100.23,15.87 -34.47,5.63 -70.61,10.78 -108.62,17.17 -2.68,0.45 -4.83,0.24 -7.73,0.71 -88.1,14.31 -185.82,28.96 -296.85,46.89l0 15.18zm0 -83.13l113.01 -14.14c35.92,-4.49 69.55,-9.29 102.72,-13.44 31.61,-3.94 62.02,-7.74 91.31,-11.4 28.42,-3.54 55.19,-7.4 81.7,-10.71 25.35,-3.15 49.85,-6.19 73.53,-9.15 23.03,-2.87 44.86,-6.07 66.53,-8.75 20.79,-2.58 40.93,-5.09 60.47,-7.51 19.04,-2.36 37.19,-5.06 55.22,-7.29 17.36,-2.15 34.22,-4.23 50.61,-6.26 16,-1.98 31.34,-4.28 46.57,-6.15 82.85,-10.22 154.26,-20.06 216.4,-27.66l0 -0.32c-84.82,10.34 -187.28,21.3 -313.43,36.5 -158.69,19.13 -365.17,41.79 -644.65,75.06l0 11.22zm0 -74.57c9.32,-0.91 17.86,-2.15 27.22,-2.94 10.07,-0.86 20.02,-1.7 29.88,-2.54 5.11,-0.43 9.3,-1.42 14.09,-1.82l42.82 -3.61c2.58,-0.21 3.94,-0.99 6.33,-1.17 10.19,-0.73 41.15,-2.67 46.57,-4.41l38.09 -3.28c4.43,-0.36 7.94,-1.26 12.16,-1.59 8.09,-0.67 16.1,-1.35 24.04,-2 8.06,-0.67 15.36,-1.85 23.09,-2.5 7.63,-0.63 15.19,-1.26 22.69,-1.88 7.66,-0.64 14.48,-1.76 22.05,-2.38 55.69,-4.59 107.69,-10.94 156.01,-14.86 6,-0.48 11.39,-1.41 17.18,-1.87 5.7,-0.46 11.34,-0.92 16.94,-1.38 5.65,-0.45 10.73,-1.35 16.36,-1.8 5.48,-0.43 10.91,-0.87 16.31,-1.3 2.78,-0.22 4.92,-0.87 7.66,-1.09l23.31 -1.85c1.24,-0.09 2.09,-0.64 3.5,-0.76l22.53 -1.79c0.56,-0.06 1.21,-0.02 1.76,-0.15 0.73,-0.17 0.88,-0.53 1.76,-0.61l21.34 -1.68c2.5,-0.2 4.44,-0.79 6.9,-0.98 4.61,-0.38 9.19,-0.73 13.73,-1.09 4.69,-0.37 8.88,-1.13 13.43,-1.49l0 -0.44c-4.44,0.35 -8.92,0.7 -13.42,1.06 -4.6,0.36 -8.84,0.26 -13.57,0.62 -37.97,2.96 -78.39,4.24 -121.41,7.53 -5.77,0.44 -10.97,0.36 -16.75,0.8 -5.81,0.43 -11.66,0.88 -17.56,1.33 -5.94,0.46 -11.46,0.38 -17.61,0.85 -6.04,0.46 -12.12,0.92 -18.26,1.38 -3.19,0.25 -5.73,-0.07 -9.01,0.18 -8.17,0.61 -21.8,2.58 -28.99,2.2l-34.65 2.07c-1.98,0.16 -3.05,-0.33 -4.95,-0.17l-31.61 2.37c-3.74,0.29 -6.79,-0.04 -10.68,0.25 -7.28,0.54 -14.63,1.09 -22.04,1.64 -7.7,0.56 -14.65,0.53 -22.43,1.11 -7.71,0.57 -15.48,1.15 -23.34,1.73 -8.05,0.59 -15.64,0.57 -24.03,1.19 -66.54,4.91 -138.85,7.76 -217.43,13.38l0 23.73zm0 -41.49l44.46 -2.84c4.28,-0.26 11.99,0.11 15.77,-1.26 3.74,-1.36 45.07,-3.17 52.91,-3.67l56.9 -4.14c2.37,-0.12 4.13,-0.86 6.77,-1.03l40.11 -2.47c4.61,-0.28 8.24,-1.08 12.77,-1.36l37.66 -2.3c4.09,-0.26 7.72,-1.04 12,-1.3 7.99,-0.49 15.89,-0.97 23.71,-1.45 8.04,-0.48 15.24,-1.46 23.01,-1.94 7.52,-0.45 14.96,-0.91 22.34,-1.36 7.56,-0.45 14.29,-1.39 21.7,-1.84 7.17,-0.42 14.26,-0.86 21.3,-1.28 7.05,-0.42 13.47,-1.33 20.48,-1.75 51.91,-3.11 100.39,-7.93 145.4,-10.55 42.16,-2.46 81.85,-6.51 118.98,-8.63l0 -0.42c-9.04,0.52 -18.03,0.6 -27.48,1.13 -4.85,0.27 -9.28,0.08 -14.15,0.36 -4.89,0.27 -9.81,0.55 -14.79,0.83 -5.07,0.27 -9.68,0.1 -14.83,0.39 -5.13,0.29 -10.3,0.57 -15.52,0.87 -5.26,0.29 -10.14,0.11 -15.57,0.4 -5.39,0.29 -10.83,0.6 -16.31,0.9 -5.44,0.3 -10.69,0.12 -16.37,0.44 -5.67,0.31 -11.38,0.63 -17.15,0.94 -3,0.17 -5.37,-0.18 -8.38,-0.02l-26.91 1.48c-2.97,0.16 -5.66,-0.19 -8.83,-0.01l-28.38 1.55c-1.54,0.1 -2.77,-0.37 -4.55,-0.27 -4.85,0.27 -32.67,2.28 -34.65,1.65 -3.06,-0.98 -31.47,1.92 -38.77,1.79 -1.13,-0.02 -1.35,-0.48 -2.62,-0.43l-38.41 2.07c-1.95,0.13 -3.4,-0.37 -5.58,-0.25l-34.85 1.84c-4.22,0.22 -7.58,-0.17 -11.81,0.06l-37.04 1.95c-4.24,0.21 -8.04,-0.17 -12.55,0.07 -8.57,0.45 -17.24,0.9 -25.99,1.35 -9.17,0.47 -17.6,0.33 -26.82,0.8 -9.14,0.47 -18.38,0.95 -27.72,1.43 -9.76,0.51 -18.66,0.35 -28.63,0.87 -9.76,0.5 -19.63,1.01 -29.61,1.52 -10.35,0.53 -19.93,0.39 -30.65,0.94 -20.31,1.04 -40.44,1.47 -61.35,2.48l0 22.48zm0 -42.94c54.35,-2.18 104.79,-4.78 153.17,-6.68 46.2,-1.83 90.69,-4.71 132.15,-6.31 39.88,-1.54 77.19,-3.51 113.37,-4.88 4.31,-0.18 8.35,-0.83 12.82,-1l37.75 -1.44c8.28,-0.31 15.94,-1.1 23.9,-1.39l88.68 -3.78c7.02,-0.27 13.43,-0.96 20.26,-1.22 26.42,-0.97 51.31,-2.32 75.67,-3.21 5.97,-0.21 11.49,-0.84 17.4,-1.05 36.26,-1.31 70.38,-3.34 102.5,-4.47 2.54,-0.09 4.69,-0.54 7.17,-0.63l0 -0.39c-19.45,0.68 -39.24,0.96 -60.11,1.68 -21.38,0.74 -43.98,0.67 -67.09,1.45 -49.44,1.66 -102.91,2.06 -161.37,3.97l-72.15 1.84c-8.64,0.28 -16.89,0.03 -25.85,0.31 -36.16,1.16 -73.45,1.79 -113.43,3.05 -5.34,0.17 -9.88,-0.24 -15.18,-0.07 -76.16,2.36 -160,3.72 -252.72,6.56 -3.86,0.12 -6.46,-0.47 -10.17,-0.36 -1.82,0.06 -3.65,0.12 -5.48,0.17 -0.39,0.01 -0.83,-0.04 -1.28,-0.07l0 17.93zm0 -160.98c105.98,4.94 199.95,7.63 284.97,11.7 2.78,0.15 4.82,-0.35 7.36,-0.2l51.24 2.49c9.39,0.45 18.25,0.35 27.58,0.8 9.05,0.45 17.98,0.88 26.81,1.32 8.9,0.43 17.05,0.31 25.66,0.73 64.41,3.17 123.42,4.67 177.43,7.37 6.52,0.33 12.6,0.19 19.07,0.52 6.28,0.32 12.5,0.64 18.65,0.94 6.21,0.31 11.95,0.18 17.95,0.48 45.71,2.33 87.78,3.28 127.17,5.32l0 -0.37c-4.8,-0.26 -9.3,-0.88 -14.22,-1.14 -35.08,-1.85 -72.66,-5.06 -112.66,-7.2l-55.79 -3.44c-6.64,-0.35 -12.85,-1.15 -19.65,-1.51l-30.92 -1.68c-3.56,-0.2 -6.76,-0.84 -10.47,-1.04l-38.64 -2.11c-2.09,-0.11 -3.51,-0.69 -5.52,-0.78 -63.96,-3.32 -133.67,-8.96 -211.02,-13.31 -84.46,-4.75 -179.5,-12.53 -284.99,-18.65l0 19.79zm205.96 -712.27c4.38,2 8.78,4.04 13.28,6.22 10.8,5.22 21.46,10.38 31.98,15.47 10.68,5.17 20.39,9.3 30.76,14.32 76.65,37.11 145.69,68.95 209.17,99.8 2.04,0.99 3.36,1.14 5.37,2.13l38.4 18.64c3.7,1.8 6.79,2.83 10.38,4.57 10.39,5.04 20.62,10.01 30.68,14.9 6.7,3.26 12.88,5.8 19.51,9.02 6.43,3.13 12.78,6.22 19.08,9.28 6.36,3.09 12.2,5.5 18.36,8.5 41.05,19.97 79.56,37.49 115.52,55.03 10.03,4.88 19.53,9.13 29.15,13.82l-44.19 -22.35c-5.29,-2.58 -10.21,-5.39 -15.59,-8.02 -5.3,-2.6 -10.63,-5.21 -16.03,-7.84 -5.54,-2.7 -10.81,-5.7 -16.35,-8.41l-25.61 -12.53c-3.09,-1.52 -5.76,-3.25 -8.79,-4.74 -49.23,-24.11 -102.18,-51.43 -160.26,-79.94 -7.68,-3.78 -14.97,-7.84 -22.91,-11.74 -7.87,-3.87 -15.83,-7.78 -23.88,-11.74 -8.31,-4.08 -16.08,-8.39 -24.51,-12.55 -56.27,-27.65 -117.32,-59.08 -183.39,-91.84l-30.13 0zm150.28 1611.74l13.17 -7.12c4.6,-2.48 8.48,-5.1 12.91,-7.5l37.41 -20.2c4.3,-2.32 7.86,-4.76 12.06,-7.02 11.86,-6.41 23.52,-12.7 34.98,-18.89 4,-2.15 7.31,-4.43 11.28,-6.57 11.11,-5.98 22.03,-11.87 32.78,-17.67 3.66,-1.97 6.74,-4.12 10.41,-6.09l30.78 -16.58c3.43,-1.85 6.44,-3.93 9.95,-5.82 6.56,-3.53 13.04,-7.02 19.45,-10.48 6.46,-3.47 12.54,-7.2 18.72,-10.53 6.17,-3.31 12.28,-6.6 18.33,-9.85 6.15,-3.32 11.89,-6.85 17.8,-10.02 5.82,-3.14 11.59,-6.24 17.3,-9.31 5.77,-3.09 11.11,-6.39 16.68,-9.39 5.5,-2.96 10.95,-5.89 16.36,-8.79 5.51,-2.97 10.59,-6.1 15.91,-8.97 5.21,-2.8 10.37,-5.57 15.49,-8.31 5.22,-2.8 10,-5.77 15.08,-8.5 4.94,-2.65 9.84,-5.28 14.68,-7.88 4.96,-2.66 9.47,-5.48 14.31,-8.07l0 -0.39c-4.74,2.54 -9.5,5.09 -14.31,7.67 -4.94,2.65 -9.54,4.71 -14.56,7.41 -4.98,2.66 -10.01,5.36 -15.07,8.07 -5.26,2.82 -10.13,5.03 -15.49,7.89 -5.25,2.81 -10.56,5.65 -15.91,8.52 -5.5,2.95 -10.61,5.25 -16.21,8.26 -5.55,2.98 -11.16,5.96 -16.81,9 -5.85,3.11 -11.3,5.61 -17.3,8.81 -5.87,3.15 -11.8,6.31 -17.8,9.52 -6.12,3.28 -11.87,5.9 -18.17,9.27 -6.22,3.33 -12.52,6.69 -18.87,10.09 -6.52,3.48 -12.7,6.32 -19.44,9.92 -6.61,3.54 -13.3,7.1 -20.04,10.7 -6.91,3.69 -13.51,6.75 -20.68,10.57 -57.33,30.59 -120.02,62.04 -188.23,98.28l23.05 0zm-356.24 -1468.15c67.59,23.83 129.72,45.16 188.49,65.91 7.24,2.56 13.6,4.22 20.82,6.78l168.63 59.08c11.2,3.97 21.83,7.2 32.85,11.11l57.87 20.5c1.51,0.56 2.18,0.25 3.65,0.8 56.52,20.87 108.76,37.66 156.89,54.76 7.68,2.72 15.26,5.42 22.74,8.07 7.54,2.67 14.66,4.79 21.91,7.37 28.2,10.03 54.7,19.06 80.35,28.18l53.38 18.63c5.66,2.01 11.05,3.57 16.67,5.57 21.55,7.69 41.93,14.6 61.79,21.69l0 -0.34c-4.94,-1.77 -9.6,-3.78 -14.63,-5.58 -36.28,-12.98 -75.18,-27.65 -117.33,-42.76 -3.19,-1.15 -6.04,-2.57 -9.3,-3.73l-92.84 -33.74c-7.54,-2.71 -14.9,-5.78 -22.74,-8.61l-45.22 -16.25c-1.17,-0.4 -1.8,-1.12 -3.08,-1.56 -52.19,-18.26 -108.74,-40.13 -170.3,-62.33 -10.86,-3.91 -21.88,-7.89 -33.08,-11.93 -11.54,-4.16 -22.67,-8.71 -34.4,-12.94 -48.77,-17.6 -99.99,-36.67 -155.46,-56.7l-151.81 -55.5c-4.33,-1.56 -7.99,-3.54 -12.64,-5.22l-19.65 -7.11c-1.3,-0.47 -2.56,-1.14 -3.56,-1.5l0 17.36zm0 1054.27c123.52,-26.5 231.3,-51.28 326.77,-71.63 54.48,-11.61 105.43,-23.49 152.83,-33.56 9.3,-1.97 17.96,-4.29 26.91,-6.19l51.1 -10.9c3.52,-1.84 42.76,-9.46 47.11,-10.37 7.63,-1.62 14.77,-3.57 22.29,-5.16 88.4,-18.69 165.06,-36.78 231.99,-50.81l0 -0.37c-24.66,5.17 -50.68,9.86 -77.96,15.56 -5.75,1.2 -11.24,1.96 -17.03,3.16 -8.78,1.83 -17.7,3.69 -26.76,5.57 -2.77,0.58 -6.52,2.04 -9.2,1.9 -3.44,-0.19 -14.33,2.59 -18.63,3.49 -6.43,1.33 -12.93,2.68 -19.52,4.06 -6.72,1.39 -13.13,2.3 -20.05,3.74 -95.82,19.87 -208.59,40.79 -342.83,68.41 -46.47,9.56 -96.48,18.69 -149.07,29.47 -55.61,11.41 -114.27,22.8 -177.95,35.81l0 17.81zm0 -890.67c114.66,30.34 215.26,55.25 305.51,79.25 10.67,2.84 20.73,4.97 31.28,7.77 10.22,2.73 20.31,5.42 30.27,8.06 9.99,2.66 19.15,4.57 28.87,7.16 9.52,2.54 18.91,5.05 28.19,7.52 9.24,2.47 17.87,4.27 26.72,6.63l75.23 19.6c60.06,16.06 115.32,29.1 165.59,42.61 6.03,1.62 11.98,3.23 17.89,4.81 5.9,1.58 11.39,2.65 17.22,4.22 5.67,1.53 11.28,3.03 16.83,4.54 5.64,1.52 10.84,2.52 16.33,4 8,2.15 15.87,4.28 23.63,6.37 2.61,0.69 4.98,0.96 7.65,1.68 7.54,2.04 14.98,4.04 22.32,6.03 2.55,0.68 4.78,0.91 7.24,1.57l0 -0.37c-39.9,-10.8 -82.63,-23.55 -129.25,-36.2 -6.05,-1.65 -12.01,-3.68 -18.31,-5.39 -6.28,-1.71 -12.63,-3.44 -19.04,-5.18 -6.57,-1.79 -12.77,-3.91 -19.51,-5.75 -6.75,-1.83 -13.56,-3.69 -20.46,-5.57 -7.06,-1.91 -13.71,-4.19 -20.83,-6.12 -51.82,-14.13 -108.2,-30.95 -169.45,-47.71 -47.26,-12.94 -97.71,-27.83 -151.74,-42.66 -11.37,-3.12 -22.4,-6.72 -34.28,-9.98 -11.76,-3.23 -23.69,-6.51 -35.8,-9.83 -12.57,-3.46 -24.44,-7.31 -37.41,-10.89 -12.84,-3.52 -25.89,-7.11 -39.14,-10.76 -13.8,-3.8 -26.96,-8.05 -40.99,-11.91 -5.21,-1.43 -72.72,-19.28 -76.57,-21.47 -1.79,-1.01 -3.79,-1.32 -5.67,-1.84 -0.62,-0.17 -1.5,-0.6 -2.33,-0.87l0 20.67zm0 -38.92l38.99 11.15c13.72,3.92 26.25,6.86 39.63,10.69 97.92,28.02 185.65,50.86 264.62,73.56 18.65,5.37 36.48,9.96 54.41,15.12 8.9,2.57 17.04,4.39 25.66,6.88 8.43,2.42 16.75,4.82 24.98,7.2 8.2,2.36 15.82,4.07 23.93,6.41 7.86,2.27 15.63,4.52 23.32,6.74 3.9,1.11 7.15,1.58 11,2.69l33.01 9.54c1.89,0.56 3.2,0.47 5.17,1.03l33.65 9.74c1.09,0.33 1.55,0.06 2.43,0.23 8.97,1.86 20.24,5.89 29.38,8.53 3.33,0.96 6.2,1.35 9.39,2.28 6.28,1.83 12.5,3.63 18.66,5.41 6.2,1.8 12,3.06 17.96,4.79 5.87,1.7 11.69,3.39 17.44,5.06 5.85,1.7 11.2,2.83 16.94,4.5 32.63,9.48 63.45,17.26 92.64,25.78l0 -0.37c-19.27,-5.63 -39.15,-12.24 -59.91,-18.31 -5.39,-1.57 -10.45,-3.47 -15.87,-5.05 -5.48,-1.61 -11,-3.23 -16.59,-4.87 -5.72,-1.67 -11.07,-3.67 -16.93,-5.39 -5.8,-1.7 -11.66,-3.42 -17.58,-5.16 -3.06,-0.9 -5.67,-2.1 -8.7,-2.99l-27.77 -8.16c-1.74,-0.52 -2.92,-1.3 -4.59,-1.78 -5.09,-1.48 -31.72,-8.73 -34.19,-10.4 -1.67,-1.13 -26.76,-8 -30.89,-9.22 -3.66,-1.07 -6.96,-2.51 -10.47,-3.56l-33.01 -9.73c-3.78,-1.12 -7.22,-2.61 -11.18,-3.78 -7.62,-2.26 -15.33,-4.54 -23.13,-6.83 -8.11,-2.4 -15.67,-5.13 -23.93,-7.57 -8.23,-2.44 -16.55,-4.89 -24.97,-7.38 -8.56,-2.54 -16.77,-5.48 -25.65,-8.1 -73.26,-21.69 -154.34,-47.99 -244.35,-74.76 -12.28,-3.66 -23.92,-7.73 -36.35,-11.44 -12.55,-3.74 -25.3,-7.54 -38.22,-11.38 -13.33,-3.97 -25.85,-8.34 -39.62,-12.44l-39.35 -11.74 0 23.09zm0 322.61c127.26,14.26 237.51,24.93 335.17,35.99 5.95,0.68 11.18,0.74 16.9,1.39 16.75,1.9 33.14,3.77 49.16,5.59 10.6,1.2 20.45,1.81 30.82,2.98 10.06,1.15 19.97,2.28 29.75,3.4 9.8,1.11 18.89,1.66 28.34,2.74 62.1,7.11 118.94,12.28 170.92,18.28 34.63,4 67.28,6.96 98.16,10.55 6.02,0.7 11.69,0.97 17.64,1.67 5.79,0.67 11.52,1.33 17.19,2 5.74,0.66 11.06,0.91 16.66,1.56 5.43,0.64 10.81,1.26 16.14,1.89 5.34,0.62 10.42,0.85 15.56,1.45l22.62 2.65c2.57,0.3 4.85,0.22 7.32,0.51l0 -0.35c-40.39,-4.75 -83.9,-11.04 -131.59,-16.7 -6.25,-0.74 -12.36,-1.87 -18.85,-2.64 -6.46,-0.78 -13,-1.55 -19.63,-2.34 -6.79,-0.81 -13.22,-2 -20.17,-2.82 -6.98,-0.84 -14.03,-1.69 -21.18,-2.54 -7.29,-0.87 -14.28,-2.15 -21.66,-3.03l-70.43 -8.91c-69.56,-8.37 -147.52,-19.81 -234.35,-30.39 -11.65,-1.42 -23.46,-2.86 -35.48,-4.32 -12.31,-1.5 -24.13,-3.49 -36.91,-5.06 -12.79,-1.56 -25.77,-3.15 -38.98,-4.77 -13.72,-1.67 -26.84,-3.87 -40.91,-5.59 -21.24,-2.61 -43.02,-5.28 -65.37,-8.02 -7.7,-0.94 -14.64,-2.42 -22.62,-3.4l-94.22 -12.29 0 20.5zm0 -82.26c1,0.09 2.33,0.15 4.11,0.43 6.24,0.98 18.95,3.46 23.7,3.16 3.28,-0.2 88.41,13.78 90.3,14.08 37.49,5.89 72.56,10.8 106.93,16.2 64.64,10.17 123.74,18.93 179.19,27.67 13.2,2.09 25.68,3.54 38.53,5.57 83.11,13.13 156.84,23.89 223.03,34.4 4.54,0.71 8.67,0.96 13.03,1.65 62.2,9.89 118.05,18.02 168.73,26.11 3.24,0.52 6.15,0.63 9.38,1.15 45.22,7.25 86.47,13.2 124.41,19.3l0 -0.3c-1.28,-0.21 -2.3,-0.69 -3.54,-0.89l-26.42 -4.26c-32.11,-5.19 -66.58,-11.76 -103.73,-17.48 -0.9,-0.13 -1.38,-0.61 -2.24,-0.73 -25.63,-3.71 -52.69,-8.94 -81.13,-13.57l-96.79 -16.19c-0.78,-0.13 -0.92,-0.48 -1.56,-0.69 -4.18,-1.37 -9.13,-1.5 -13.46,-2.21l-42.73 -6.99c-10.03,-1.64 -19.79,-3.68 -30.04,-5.37l-165.44 -27.65c-3.53,-0.58 -6.35,-1.57 -9.82,-2.13 -55.42,-9.14 -114.62,-19.44 -179.13,-30.08 -65.35,-10.8 -136.11,-23.65 -213.02,-35.83 -3.04,-0.48 -4.72,-1.45 -7.83,-1.96 -1.52,-0.24 -3.15,-0.78 -4.48,-0.97l0 17.6zm0 -322.6c1,0.32 2.22,0.52 3.49,0.94l98.25 31.8c16.69,5.52 32.11,10 48.09,15.3 116.69,38.59 218.62,70.73 308.15,100.45 10.55,3.49 20.57,6.33 30.93,9.77 10.01,3.33 19.87,6.61 29.59,9.83 9.73,3.23 18.78,5.77 28.17,8.89 13.72,4.56 27.17,9.04 40.34,13.42 4.52,1.51 8.48,2.38 12.9,3.84 64.7,21.54 122.76,39.67 175.7,57.35 6.36,2.13 12.3,3.73 18.48,5.79 40.93,13.69 78.94,25.35 114.11,37.15l0 -0.35c-4.88,-1.63 -9.81,-3.29 -14.8,-4.97 -5.05,-1.69 -9.96,-3.68 -15.17,-5.43 -5.19,-1.74 -10.44,-3.51 -15.74,-5.29 -5.44,-1.83 -10.65,-3.94 -16.16,-5.8 -8.33,-2.8 -16.8,-5.66 -25.41,-8.56 -3,-1 -5.67,-2.27 -8.65,-3.27l-27.17 -9.15c-2.61,-0.87 -7,-1.6 -9.29,-3.41 -1.04,-0.81 -38.11,-12.95 -39.15,-13.31 -3.42,-1.15 -6.57,-2.62 -10.11,-3.81l-31.88 -10.76c-7.36,-2.48 -14.49,-5.3 -22.11,-7.88 -7.61,-2.57 -15.31,-5.17 -23.12,-7.81 -8.03,-2.72 -15.74,-5.76 -23.9,-8.52 -68.87,-23.29 -146.02,-50.85 -232.74,-80.28 -11.78,-4 -23.2,-8.41 -35.46,-12.57 -102.98,-34.98 -220.46,-76.69 -357.36,-123.36l0 20zm154.19 1425.72c68.57,-33.33 131.73,-64.18 189.96,-91.86 88.78,-42.2 167.98,-81.76 238.64,-115.26 63.61,-30.15 121.35,-59.17 173.7,-83.89 47.84,-22.61 91.83,-44.83 132.18,-63.84l0 -0.35c-40.31,18.98 -84.26,38.18 -132.06,60.61 -52.33,24.56 -110.06,49.93 -173.65,79.69 -70.63,33.05 -149.81,68.08 -238.57,109.5 -69.44,32.39 -145.88,66.89 -230.17,105.41l39.96 0zm123.18 -1611.74c30.02,14.93 58.89,29.31 86.71,43.38 92.06,46.56 173.82,86.04 246.19,122.73 8.52,4.33 16.93,8.59 25.22,12.8 8.29,4.2 16,7.68 24.08,11.78 7.87,3.99 15.63,7.93 23.29,11.82 7.72,3.92 14.97,7.19 22.41,10.96 10.89,5.54 21.57,10.96 32.05,16.28 3.55,1.8 6.67,3 10.17,4.77 11.8,6 23.34,11.86 34.65,17.61 1.73,0.87 3.04,1.17 4.71,2.02 48.41,24.63 92.36,45.92 132.93,66.6l0 -0.33c-4.92,-2.51 -9.65,-5.27 -14.7,-7.85 -5.04,-2.56 -10.12,-5.16 -15.27,-7.78 -5.28,-2.7 -10.31,-5.61 -15.67,-8.35 -27.4,-14 -56.36,-29.52 -87.06,-45.22 -39.15,-20.02 -81.5,-42.91 -126.92,-66.19 -7.96,-4.08 -16.03,-8.21 -24.21,-12.41 -8.35,-4.28 -16.52,-8.9 -25.2,-13.35 -8.63,-4.43 -17.39,-8.92 -26.26,-13.47 -9.13,-4.68 -17.85,-9.61 -27.23,-14.43 -9.39,-4.81 -18.93,-9.71 -28.59,-14.67 -9.94,-5.1 -19.58,-10.54 -29.69,-15.72 -15.44,-7.93 -31.24,-16.04 -47.4,-24.34 -5.65,-2.9 -10.68,-5.98 -16.35,-8.9l-61.19 -31.44c-3.29,-1.69 -5.89,-3.55 -9.05,-5.18 -19.54,-10.04 -39.59,-20.42 -60.2,-31.11l-27.42 0zm-277.36 388.34c128.32,28.35 240.38,51.45 338.56,73.28 13.31,2.95 25.81,5.19 38.76,8.07 94.63,21.07 177.52,38.12 251.45,54.67 4.28,0.96 8.31,1.42 12.67,2.4l37.31 8.36c7.94,1.76 15.52,3.07 23.36,4.82 7.67,1.72 15.24,3.42 22.71,5.09 7.43,1.67 14.37,2.83 21.59,4.45l60.65 13.26c36.72,8.26 71.18,14.97 103.15,22.2 5.17,1.17 10.28,2.33 15.33,3.47 5.06,1.13 9.8,1.88 14.76,3l0 -0.33c-40.57,-9.2 -84.64,-20.27 -133.24,-31.34 -3.26,-0.74 -6.15,-1.78 -9.44,-2.52 -9.84,-2.25 -19.86,-4.54 -30.07,-6.87 -6.94,-1.59 -13.62,-3.5 -20.77,-5.14 -7.19,-1.64 -14.46,-3.3 -21.83,-5 -7.52,-1.72 -14.82,-3.8 -22.44,-5.54 -64.88,-14.86 -137.57,-32.87 -219.34,-51.69 -11.06,-2.54 -21.84,-5.52 -33.36,-8.17 -11.55,-2.67 -23.28,-5.37 -35.22,-8.12 -12.31,-2.84 -24.18,-6.09 -36.81,-9.01 -107.82,-24.88 -231.86,-55.31 -377.77,-89.15l0 19.79zm0 1014.06c136.57,-44.32 254.64,-84.83 357.27,-117.96 91.13,-29.43 171.98,-57.41 243.87,-80.52 64.55,-20.75 122.95,-41.13 175.75,-58.02 48.15,-15.41 92.31,-30.94 132.75,-43.82l0 -0.34c-40.41,12.86 -84.53,25.43 -132.63,40.67 -52.8,16.73 -111.15,33.52 -175.7,53.87 -71.87,22.66 -152.7,46.15 -243.79,74.76 -102.69,32.23 -220.82,66.92 -357.52,109.59l0 21.77zm296.06 209.34c19.85,-10.44 39.17,-20.56 57.99,-30.34 12.18,-6.32 23.5,-12.73 35.2,-18.8 11.44,-5.94 22.71,-11.78 33.8,-17.54 11.02,-5.71 21.32,-11.57 32.08,-17.15 10.44,-5.42 20.72,-10.75 30.87,-16.02 5.15,-2.66 9.68,-5.5 14.65,-8.07l43 -22.3c2.46,-1.27 4.33,-2.71 6.68,-3.91l33.54 -17.37c3.66,-1.9 9.73,-4.16 12.85,-6.99 1.37,-1.24 38.72,-20.16 42.98,-22.37 2.03,-1.06 3.74,-2.36 5.88,-3.48l34.3 -17.74c3.75,-1.94 7.17,-4.12 10.96,-6.08 7.24,-3.74 14.39,-7.43 21.44,-11.09 7.09,-3.65 13.67,-7.46 20.56,-11.03 6.73,-3.48 13.38,-6.91 19.95,-10.3 6.56,-3.4 12.77,-6.99 19.26,-10.34 48.16,-24.86 92.11,-48.96 132.6,-69.81l0 -0.33c-4.96,2.55 -9.73,4.67 -14.72,7.23 -5.04,2.58 -10.13,5.21 -15.28,7.86 -5.27,2.7 -10.28,4.93 -15.67,7.7 -5.37,2.75 -10.79,5.54 -16.28,8.36 -5.52,2.84 -10.97,5.27 -16.71,8.22 -5.72,2.94 -11.52,5.91 -17.38,8.92 -2.96,1.52 -5.68,2.55 -8.74,4.11 -3.02,1.55 -6.06,3.11 -9.11,4.67 -6.08,3.12 -12.53,7.05 -18.71,9.61l-33.94 17c-1.83,0.94 -3.21,1.26 -5.02,2.17l-31.24 16.01c-3.7,1.9 -6.99,3.17 -10.75,5.09 -7.33,3.74 -14.75,7.55 -22.26,11.4 -7.73,3.96 -15.12,7.31 -22.97,11.33 -7.91,4.04 -15.93,8.15 -24.04,12.29 -8.35,4.28 -16.37,7.93 -25.01,12.35 -71.75,36.68 -152.08,75.74 -242.78,121.98 -24.54,12.51 -49.55,24.72 -75.95,38.17 -4.46,2.27 -8.86,4.45 -13.25,6.6l31.2 0zm-296.06 -1505.75l95.97 35.8c10.44,3.89 20.01,6.85 30.38,10.72 19.78,7.39 39.11,14.6 58,21.66 18.7,6.98 36.15,12.93 53.98,19.58 17.31,6.47 34.26,12.8 50.85,19.01 16.37,6.11 31.75,11.31 47.53,17.21 87.33,32.67 165.08,60.32 234.87,86.5 42.69,16.02 82.52,30.11 120.04,44.2 9.11,3.42 17.75,6.26 26.5,9.56 8.61,3.23 17.09,6.42 25.44,9.57 8.32,3.13 16.13,5.68 24.22,8.72 7.92,2.99 15.72,5.92 23.41,8.82 7.56,2.84 14.79,5.19 22.22,7.99 7.24,2.72 14.37,5.42 21.41,8.07 3.54,1.33 6.72,2.17 10.23,3.49l30.07 11.34c1.64,0.62 3.01,0.8 4.69,1.43l31.3 11.83c0.52,0.18 0.61,-0.08 1.07,0.04 2.91,0.77 5.95,2.26 8.83,3.36l17.36 6.56c2.89,1.08 5.58,1.78 8.35,2.82l24.26 9.18c2.66,1 5.11,1.61 7.78,2.63 5.13,1.94 10.21,3.87 15.23,5.77 5.04,1.91 9.8,3.4 14.71,5.26l0 -0.31c-4.85,-1.84 -9.75,-3.69 -14.71,-5.57 -5.05,-1.91 -9.96,-4.08 -15.15,-6.06 -32.08,-12.17 -66.54,-26.28 -103.72,-40.43 -26.48,-10.09 -54.35,-21.44 -83.92,-32.72 -7.74,-2.94 -15.3,-6.22 -23.17,-9.23 -7.99,-3.05 -16.1,-6.15 -24.33,-9.28 -8.44,-3.24 -16.61,-6.76 -25.31,-10.08 -8.78,-3.35 -17.7,-6.76 -26.75,-10.22 -9.17,-3.5 -18.2,-7.38 -27.76,-11.03 -9.59,-3.67 -19.34,-7.41 -29.25,-11.19 -5.1,-1.96 -9.75,-4.18 -14.94,-6.17l-48.09 -18.41c-2.81,-1.07 -5.19,-2.45 -8.13,-3.58l-59.18 -22.66c-1.06,-0.4 -1.24,-0.92 -2.18,-1.35 -6.01,-2.78 -12.41,-4.74 -18.57,-7.1 -12.78,-4.9 -25.81,-9.9 -39.08,-15 -6.87,-2.63 -13.39,-5.64 -20.19,-8.26l-64.39 -24.71c-7.64,-2.94 -14.78,-6.22 -22.69,-9.25 -15.59,-6 -31.5,-12.12 -47.75,-18.36 -16.88,-6.49 -33.33,-13.38 -50.83,-20.11 -17.69,-6.81 -35.76,-13.75 -54.24,-20.87 -19.04,-7.32 -37.69,-15.12 -57.7,-22.82 -40.57,-15.63 -82.37,-32.33 -126.67,-49.43l0 23.09zm0 448.59c24.06,3.13 46.6,5.51 69.42,8.52 22.96,3.04 45.33,5.99 67.14,8.87 5.41,0.72 9.99,0.71 15.5,1.44 113.7,15.06 212.95,26.61 300.78,38.34 7.22,0.96 13.79,1.35 20.92,2.31 13.8,1.85 27.31,3.65 40.57,5.43 6.71,0.9 12.77,1.24 19.32,2.12 49.25,6.61 94.64,11.83 137.21,17.58l51.44 6.53c2.48,0.33 4.5,0.2 6.9,0.53 35.98,4.89 69.44,8.67 101.16,13l38.79 4.94c1.62,0.22 3.78,0.96 5.33,0.71 3.25,-0.54 6.94,0.62 10.31,1.09 36.48,4.99 70.27,8.66 101.8,13.02 1.44,0.2 2.62,0.05 4,0.24l20.15 2.8c2.62,0.36 5.1,0.4 7.74,0.78 10.21,1.42 20,2.48 29.7,3.82l0 -0.28c-9.67,-1.35 -19.44,-3.01 -29.63,-4.43 -2.62,-0.37 -5.03,-1.01 -7.67,-1.37l-16.04 -2.25c-2.8,-0.39 -5.39,-1.06 -8.18,-1.45 -22.76,-3.21 -46.51,-7.2 -71.78,-10.76l-37.71 -5.68c-1,-0.15 -1.61,-0.59 -2.59,-0.73 -44.12,-6.06 -92.32,-14.45 -145.38,-21.85 -1.26,-0.17 -2.03,-0.69 -3.31,-0.87 -37.3,-5.22 -77.13,-11.93 -119.73,-18.06 -23.24,-3.35 -47.15,-7.27 -72.33,-10.9 -6.4,-0.93 -12.48,-2.28 -19.13,-3.25l-40.74 -5.9c-7.14,-1.04 -13.77,-2.49 -21.11,-3.55 -59.98,-8.72 -124.71,-19.2 -196.06,-29.61l-104.13 -15.81c-5.43,-0.79 -10.12,-2.09 -15.78,-2.91 -21.81,-3.2 -44.17,-6.48 -67.11,-9.84 -22.85,-3.35 -45.6,-7.3 -69.77,-10.89l0 28.35zm4833.34 874.62c-6.41,-1.85 -12.09,-3.1 -18.48,-5.08 -5.79,-1.79 -16.13,-6.09 -21.18,-6.17 -4.86,-0.06 -15.33,-4.46 -20.74,-6.14 -6.95,-2.15 -13.06,-3.41 -20.09,-5.59 -13.47,-4.17 -25.96,-7.39 -39.18,-11.51 -3.43,-1.06 -5.8,-1.17 -9.31,-2.26 -21.89,-6.8 -43.05,-12.18 -63.83,-18.63l-25.9 -7.48c-1.43,-0.44 -2.88,-0.96 -4.3,-1.37 -1.57,-0.44 -2.2,-0.05 -3.99,-0.63 -22.42,-7.27 -43.53,-12.45 -64.83,-19.11l0 0.56c1.25,0.39 2.07,1.22 3.68,1.71 19.73,5.94 40.02,13.67 60.88,20.22 3.08,0.96 5.44,2.31 8.27,3.18l17.37 5.46c3.11,0.97 5.29,2.25 8.53,3.28 12.13,3.81 23.54,8 35.92,11.9 6.45,2.03 11.93,4.38 18.39,6.41 6.16,1.94 13.06,3.72 18.81,6.51 5.63,2.72 13.55,4.3 19.51,6.19 19.3,6.09 39.93,14.09 60.61,20.42l39.86 13.85 0 -15.72zm0 -1011.26c-75.58,17.76 -144.84,36.29 -209.37,51.29 -7.97,1.84 -15.1,4.09 -23.04,5.93 -7.7,1.79 -15.33,3.55 -22.9,5.31 -3.81,0.88 -6.82,2.14 -10.71,3.04 -4.6,1.06 -30.53,6.57 -32.65,7.79 -2.74,1.58 -26.39,6.43 -31.07,7.52 -3.63,0.84 -6.51,2.05 -9.97,2.84 -6.74,1.55 -13.4,3.11 -20.01,4.63 -6.75,1.56 -12.75,3.46 -19.28,4.97l0 0.52c52.84,-12.16 109.13,-22.87 170.15,-36.83 8.16,-1.87 15.45,-2.94 23.7,-4.83 8.24,-1.88 16.57,-3.78 24.97,-5.7l51.93 -11.25c2.24,-0.53 3.59,-0.17 6.12,-0.77l41.6 -9.48c2.75,-0.63 4.22,-0.28 6.79,-0.89l53.73 -11.56 0 -12.55zm0 445.95c-96.7,-0.47 -183.93,1.37 -262.87,0.83 -18.82,-0.12 -36.83,0.31 -55,0.18 -9.08,-0.07 -17.29,0.42 -26.11,0.35 -8.58,-0.07 -17.06,-0.13 -25.45,-0.19 -8.37,-0.06 -16.11,0.4 -24.41,0.33 -8.03,-0.06 -15.98,-0.12 -23.83,-0.17 -4.04,-0.05 -7.34,0.45 -11.33,0.41 -11.47,-0.09 -22.78,-0.18 -33.89,-0.28l0 0.49c1.96,0.02 3.23,0.52 5.28,0.54l16.67 0.15c7.44,0.07 15.61,-0.86 22.86,0.69 2.96,0.64 19.31,0.22 23.81,0.25 4.01,0.04 8.04,0.07 12.09,0.11 4.33,0.05 8.11,0.6 12.3,0.64 8.39,0.09 16.87,0.17 25.44,0.25 8.83,0.08 17.26,0.71 26.09,0.8 8.98,0.09 18.06,0.17 27.25,0.27 9.49,0.1 18.28,0.74 27.96,0.84 9.54,0.1 19.2,0.2 28.98,0.3 10.02,0.11 19.6,0.8 30.05,0.91 62.88,0.67 130.74,3.25 204.1,4.17l0 -11.86zm0 -42.26c-0.9,0.19 -2.03,0.46 -3.44,0.7 -4.07,0.72 -34.72,0.63 -40.95,0.73 -5.48,0.09 -10.02,0.81 -15.62,0.9 -40.96,0.67 -79.61,2.54 -117.09,3.14 -4.64,0.07 -8.43,0.72 -13.16,0.79l-26.8 0.42c-4.53,0.07 -8.22,0.71 -12.8,0.78 -33.77,0.51 -65.52,2.09 -96.68,2.54 -3.89,0.06 -7.02,0.65 -10.95,0.71l-22.31 0.31c-3.79,0.04 -6.87,0.62 -10.7,0.67 -14.42,0.2 -27.96,0.91 -41.72,1.08l-0 0.52c13.73,-0.17 27.31,0.16 41.72,-0.02 3.7,-0.04 6.67,0.46 10.47,0.4l22.3 -0.27c3.96,-0.05 7.14,0.45 11.18,0.4 31.14,-0.36 62.89,0.39 96.68,0.02 4.46,-0.05 8.01,0.49 12.54,0.43l26.78 -0.29c4.76,-0.05 8.58,0.51 13.44,0.45 37.48,-0.4 76.11,0.44 117.09,0.04 5.44,-0.04 9.78,0.56 15.3,0.51 5.07,-0.05 38.16,-0.85 40.81,-0.11 1.43,0.4 2.38,0.34 3.93,0.36l0 -15.22zm-433.97 790.18l-28.22 -14.24c8.74,4.63 17.54,9.4 26.43,14.24l1.78 0zm433.97 -1474.9c-56.88,21.89 -109.59,42.76 -160.16,62.19 -48.76,18.73 -94.8,36.42 -138.35,53.15 -21.02,8.07 -40.78,16.2 -60.75,23.86l-157.8 60.57c-2,0.77 -3.46,1.8 -5.56,2.61l-122 46.78c-12.85,4.93 -25.06,10.03 -37.31,14.73 -23.68,9.06 -46.42,17.79 -68.3,26.17 -21.14,8.1 -41.16,16.15 -60.73,23.63l0 0.37c178.69,-68.33 430.05,-162.36 810.97,-307.47l0 -6.59zm-225.09 1474.9c-28.42,-12.81 -55.82,-25.08 -82.51,-37.44 -5.54,-2.56 -10.23,-4.19 -15.7,-6.72 -10.59,-4.9 -21.05,-9.74 -31.37,-14.52 -5.28,-2.44 -9.95,-4.08 -14.98,-6.41 -9.9,-4.6 -19.67,-9.12 -29.31,-13.59 -9.63,-4.46 -18.67,-8.15 -28.18,-12.56 -36.02,-16.72 -69.93,-31.48 -102.67,-46.69l0 0.47c1.92,0.9 3.56,2.13 5.67,3.12 47.83,22.25 99,47.59 154.26,73.37l54.14 25.79c1.35,0.62 2.7,1.24 4.06,1.87 1.54,0.72 2.15,1.6 3.82,2.36 21.14,9.6 43.03,20.08 65.55,30.94l17.22 0zm86.49 -1611.74l-25.65 12.91c-3.7,1.82 -6.31,3.72 -9.97,5.52 -52.69,26.04 -101.48,51.29 -148.05,74.27l-56.77 28.54c-2.83,1.39 -4.83,2.9 -7.61,4.28 -10.31,5.08 -20.49,10.09 -30.53,15.04 -9.91,4.89 -19.3,10.01 -29.09,14.83 -18.91,9.33 -36.8,18.62 -54.81,27.48l-44.73 22.48c-2.21,1.09 -3.79,2.32 -6,3.42l0 0.47c33.57,-16.49 68.39,-32.61 105.54,-50.83l51.65 -24.8c2.78,-1.37 4.76,-1.8 7.54,-3.17 10.46,-5.13 21.06,-10.31 31.82,-15.57 10.94,-5.35 21.57,-10.03 32.99,-15.61 23,-11.25 46.01,-21.95 70.5,-33.93l67.13 -32.22c3.61,-1.76 6.2,-2.43 9.85,-4.21 19.57,-9.56 39.52,-19.13 59.9,-28.88l-23.7 0zm-451.71 1611.74c-10.51,-6.12 -20.8,-12.09 -31.07,-18.21l0 0.44c9.72,5.78 19.46,11.74 29.4,17.77l1.67 0zm451.08 0c-11.2,-4.8 -22.28,-9.57 -33.37,-14.44 -6.63,-2.92 -12.62,-4.95 -19.35,-7.92 -41.02,-18.04 -80.07,-34.09 -117.3,-50.5 -3.08,-1.35 -5.54,-1.87 -8.35,-3.12 -32.57,-14.54 -63.5,-26.95 -93.37,-40.16 -9.93,-4.39 -19.21,-7.97 -28.73,-12.17 -18.69,-8.27 -36.37,-15.59 -54.19,-23.47 -2.34,-1.03 -3.98,-1.28 -6.3,-2.31l-43.92 -18.51 43.55 19.8c2.24,0.99 4.07,2.3 6.48,3.36 17.81,7.91 35.46,16.24 54.17,24.56 23.61,10.49 48.43,22.57 73.83,33.89 5.48,2.44 10.35,5.13 15.74,7.54 10.73,4.78 21.71,9.34 32.73,14.57 1.42,0.67 2.13,1.54 3.8,2.26l29.88 13.32c6.02,2.69 11.3,5.6 17.28,8.27l74.13 33.67c6.83,3.06 12.78,6.31 19.63,9.37l4.48 2 29.19 0zm139.22 -1519.23c-0.7,0.35 -1.44,0.71 -2.17,1.02l-7.2 3.59c-4.8,2.46 -10.39,4.23 -15.22,6.2l-57.85 23.61c-9.62,3.92 -18.44,8.14 -27.58,11.87 -17.92,7.3 -35.48,14.45 -52.69,21.47 -17.1,6.96 -33.07,14.06 -49.61,20.79 -62.04,25.25 -119.11,49.59 -172.74,71.39 -6.59,2.68 -12.41,5.56 -18.84,8.17l-45.68 18.55c-3.17,1.28 -5.6,2.78 -8.68,4.02 -11.54,4.68 -22.88,9.29 -34.05,13.82 -11.18,4.53 -21.6,9.24 -32.44,13.64 -41.09,16.65 -79.41,33.08 -115.87,47.84l51.35 -19.89c1.43,-0.59 2.19,-0.41 3.56,-0.98 19.6,-8.19 39.7,-15.56 60.43,-23.92 43.7,-17.62 89.9,-35.23 139.78,-55.32l70.65 -27.89c2.89,-1.16 8.07,-3.91 10.69,-4.07 2.88,-0.15 39.89,-15.7 44.02,-17.37 15.57,-6.25 30.72,-11.76 46.74,-18.19 65.7,-26.39 136.19,-53.45 213.4,-84.36l0 -13.98zm0 244.21c-123.93,34.41 -232.2,66.12 -328.02,92.59 -15.18,4.19 -29.42,8.66 -44.09,12.7 -14.28,3.94 -28.3,7.81 -42.04,11.6 -6.82,1.89 -12.98,4.09 -19.75,5.96 -4.81,1.33 -54.99,14.57 -56.98,15.9 -2.41,1.61 -48.1,13.52 -52.59,14.76 -5.78,1.59 -10.94,3.48 -16.57,5.02 -10.87,2.99 -21.56,5.92 -32.08,8.81 -10.48,2.87 -20.29,6.02 -30.39,8.79 -19.7,5.41 -38.49,11 -56.89,16.03l0 0.42c56.77,-15.54 119.12,-31.23 188.24,-50.07 12.37,-3.38 24.39,-6.16 37.25,-9.67 13,-3.54 26.25,-7.15 39.75,-10.83 6.91,-1.87 13.22,-3.07 20.29,-5l54.24 -14.74c3.44,-0.94 8.03,-2.8 11.37,-3.06 7.02,-0.57 15.22,-3.63 22.8,-5.68 15.9,-4.33 32.13,-8.73 48.69,-13.23 8.64,-2.35 16.57,-3.93 25.24,-6.29 17.36,-4.71 35.09,-9.52 53.22,-14.44 18.75,-5.09 37.03,-9.43 56.49,-14.7 19.8,-5.36 40.04,-10.85 60.75,-16.45 20.03,-5.43 40,-10.27 61.07,-15.91l0 -12.52zm-489.41 1275.01c-13.2,-7 -26.15,-13.93 -38.91,-20.96l0 0.46c11.72,6.48 23.74,13.46 35.99,20.5l2.92 0zm-50.85 0c-3.33,-1.86 -6.66,-3.73 -10.02,-5.65 -11.76,-6.73 -23.31,-13.35 -34.66,-19.85 -5.54,-3.17 -10.76,-5.72 -16.34,-8.91 -3.84,-2.2 -45.81,-26.72 -47.3,-26.98 -2.24,-0.39 -39.89,-22.56 -43.83,-24.81 -4.79,-2.75 -9.26,-4.89 -13.85,-7.53l0 0.41c9.24,5.31 18.64,10.7 28.19,16.18 9.8,5.63 19.46,11.59 29.45,17.33 10.19,5.85 20.56,11.8 31.1,17.86 10.84,6.22 21.36,12.72 32.58,19.17 12.87,7.39 26.02,14.98 39.45,22.77l5.22 0zm94.67 -1611.74c-84.57,51.23 -159.3,97.57 -226.37,137.83l0 0.42c2.31,-1.39 4.26,-2.13 6.67,-3.57l35.21 -21.11c4.98,-2.99 9.5,-5.25 14.52,-8.26 9.97,-5.98 20.11,-12.06 30.41,-18.23 10.56,-6.32 20.8,-12.01 31.75,-18.56 36.58,-21.92 75.03,-44.29 115.93,-68.52l-8.11 0zm445.6 50.45l-80.82 35.43c-4.2,1.81 -7.35,3.8 -11.29,5.48 -30.54,13.09 -59.15,26.06 -87.61,38.29 -26.79,11.51 -53.72,24.24 -78.84,35.02 -25.02,10.74 -48.64,21.45 -72.26,31.55 -2.93,1.25 -5.26,2.8 -8.35,4.12 -35.95,15.39 -70.27,31.13 -103,45.13 -5.17,2.2 -9.76,4.66 -14.69,6.77 -19.26,8.22 -37.41,16.47 -55.65,24.26 -4.61,1.97 -8.65,4.17 -13.1,6.06l-38.31 17.26c33.89,-14.43 69.42,-28.11 107.06,-44.1l44.78 -18.52c5.33,-2.26 10,-3.73 15.43,-6.02 21.61,-9.17 43.15,-17.77 66.06,-27.47 5.91,-2.51 11.15,-4.19 17.22,-6.76l73.69 -30.63c6.57,-2.78 12.51,-4.7 19.33,-7.59l35.58 -15.06c2.14,-0.92 3.05,-0.66 5.04,-1.51 42.68,-18.41 87.17,-35.59 134.27,-55.45 15.22,-6.41 30.06,-12.13 45.46,-18.52l0 -17.77zm0 1543.56c-198.44,-78.78 -358.06,-140.58 -490.29,-193.22 -7.63,-3.04 -14.6,-5.33 -22.1,-8.31 -21.63,-8.62 -42.58,-16.98 -62.88,-25.07 -13.15,-5.24 -25.77,-9.82 -38.51,-14.9 -12.44,-4.96 -24.63,-9.83 -36.57,-14.59 -11.77,-4.69 -22.88,-8.69 -34.22,-13.22 -11.07,-4.42 -21.94,-8.75 -32.6,-13.02 -10.57,-4.21 -20.59,-7.81 -30.72,-11.85 -9.92,-3.96 -19.67,-7.86 -29.24,-11.69l0 0.38c81.31,32.51 176.06,72.19 287.22,116.8 80.11,32.16 170.02,69.33 271.84,110.27 22.2,8.92 44.19,18.36 67.68,27.82l112.98 45.46c3.67,1.48 6.07,3.1 9.65,4.52l25.77 10.4c0.59,0.24 1.31,0.66 2,0.98l0 -10.74zm0 -1098.28c-39.42,7.64 -77.69,16.19 -114.12,23.15 -7.65,1.47 -14.3,3.35 -21.89,4.8l-37.09 7.07c-2.02,0.36 -2.94,1.2 -5.08,1.58 -53.2,9.57 -103.27,21.37 -150.2,30.26 -44.36,8.41 -85.97,17.83 -125.63,25.31 -4.94,0.93 -9.29,2.24 -14.06,3.13l-54.43 10.72c-4.43,0.83 -8.41,2.06 -12.9,2.9l-18.98 3.55c-2.27,0.42 -3.94,1.2 -6.1,1.6l0 0.46c16.81,-3.13 33.5,-5.78 51.14,-9.07 4.6,-0.85 8.67,-1.14 13.23,-1.99l56.63 -10.02c5,-0.93 9.63,-1.28 14.85,-2.25l22.96 -4.26c2.83,-0.52 4.87,-0.38 7.67,-0.9 21.48,-3.97 42.89,-7.39 65.59,-11.58 5.93,-1.09 11.09,-1.51 17.03,-2.6 38.82,-7.14 79.57,-13.49 122.52,-21.38 3.69,-0.67 6.36,-0.57 10.09,-1.26 28.28,-5.18 56.58,-9.74 86.77,-15.26 7.88,-1.44 14.74,-2.06 22.7,-3.51l69.29 -12.02 0 -18.43zm0 405.7c-34.08,-0.8 -67.99,-0.48 -99.56,-1.3 -32.3,-0.85 -62.6,-1.04 -92.73,-1.85 -7.27,-0.19 -13.98,0.22 -21.35,0.02l-81.16 -1.63c-6.56,-0.19 -12.46,0.22 -19.06,0.03l-32.44 -0.9c-1.76,-0.06 -2.87,0.43 -4.31,0.43 -11.83,0.02 -23.59,-0.68 -35.07,-1 -5.83,-0.17 -10.93,0.22 -16.72,0.05l-64.21 -1.33c-5.3,-0.16 -9.91,0.2 -15.13,0.04 -19.87,-0.57 -38.61,-0.64 -57.4,-1.2 -4.72,-0.13 -8.82,0.2 -13.44,0.07l-39.38 -0.26c17.23,0.52 34.54,1.7 52.82,2.07 1.24,0.02 1.81,0.56 3.14,0.57l24.95 0.78c4.95,0.15 9.43,0.78 14.31,0.93l61.41 2.45c5.56,0.17 10.72,0.85 16.17,1.02 22.46,0.73 44.93,1.98 68.76,2.76 24.02,0.79 49.72,2.74 75.38,3.59 27.11,0.92 54.43,2.4 83.54,3.38 3.89,0.13 6.74,0.83 10.61,0.96 53.63,1.82 110.8,5.04 171.84,7.17 2.18,0.07 4.7,-0.06 6.85,0.24 0.45,0.06 1.29,0.43 2.17,0.69l0 -17.76zm0 83.11c-45.46,-3.16 -87.95,-5.55 -129.4,-8.48 -20.57,-1.44 -39.74,-2.19 -59.36,-3.58 -19.07,-1.35 -37.72,-2.68 -55.96,-3.97 -4.64,-0.33 -8.49,-0.03 -12.89,-0.34l-63.89 -4.55c-8.34,-0.59 -15.87,-0.59 -23.93,-1.17 -15.61,-1.12 -30.92,-2.22 -45.91,-3.29 -14.85,-1.06 -28.85,-1.55 -43.22,-2.59 -53.86,-3.87 -103.48,-6.5 -150,-9.89l-56.19 -3.65c-2.48,-0.19 -5.33,-0.76 -7.55,-0.19 -1.34,0.35 -27.54,-1.96 -29.58,-2.11 -9.7,-0.7 -18.89,-0.98 -28.2,-1.66l0 0.41c37.98,2.81 78.19,6.67 121.52,9.9 11.44,0.85 22.54,2.15 34.34,3.03 11.93,0.91 24.06,1.82 36.42,2.74 6.25,0.47 12.21,1.4 18.7,1.89l39.79 3c7,0.53 13.57,1.53 20.56,2.06 120.71,9.15 262.85,22.29 434.77,35.59l0 -13.18zm0 37.6c-64.22,-5.74 -123.47,-9.31 -179.57,-14.43 -7.05,-0.65 -13.1,-0.61 -20.02,-1.25l-58.32 -4.78c-36.32,-3.35 -71.85,-5 -104.97,-8.08 -5.42,-0.5 -10.8,-1 -16.14,-1.5 -5.57,-0.52 -10.37,-0.44 -15.8,-0.95l-23.18 -2.16c-2.74,-0.26 -4.71,0.06 -7.43,-0.19 -8.83,-0.83 -21.03,-2.63 -29.55,-2.27 -4.49,0.19 -9.72,-0.92 -14.23,-1.34 -4.74,-0.45 -9.46,-0.85 -14.13,-1.33 -1.37,-0.15 -2.06,0.28 -3.2,0.2l-24.04 -2.29c-4.4,-0.42 -8.46,-0.33 -12.96,-0.75 -4.38,-0.42 -8.74,-0.83 -13.05,-1.25 -4.46,-0.42 -8.3,-0.32 -12.64,-0.72 -4.22,-0.41 -8.4,-0.81 -12.57,-1.21l0 0.47c29.25,2.79 60.23,7.2 92.4,10.31 4.78,0.46 9.23,1.39 14.23,1.88 39.72,3.85 81.28,9.7 125.87,13.84 2.76,0.26 5.19,1.06 8.21,1.37 8.8,0.86 17.68,1.74 26.67,2.62 6.07,0.59 11.69,1.71 18.04,2.33 6.19,0.61 12.43,1.23 18.72,1.85 6.48,0.64 12.16,1.78 18.64,2.42 52.93,5.25 109.62,12.71 170.08,18.77 7.95,0.8 15.31,2.18 23.63,3 8.13,0.83 16.33,1.64 24.6,2.48 3.99,0.41 8.6,0.45 12.55,1.26 1.91,0.39 3.38,1.02 5.83,1.25 0.82,0.09 1.61,0.25 2.33,0.38l0 -19.93zm0 -364.8c-64,6.82 -123.15,14.89 -179.2,20.67 -3.46,0.37 -6.17,1.24 -9.8,1.62l-30.32 3.14c-6.61,0.69 -12.45,1.87 -19.09,2.57 -6.44,0.66 -12.83,1.32 -19.17,1.98 -6.43,0.67 -12.08,1.81 -18.22,2.45 -47.36,4.89 -92.13,11.09 -134.22,15.4 -5.26,0.54 -9.88,1.52 -15.15,2.06 -5.05,0.5 -10.06,1.02 -15.03,1.53 -5.11,0.52 -9.63,1.48 -14.53,1.98 -37.67,3.83 -72.95,8.82 -106.87,12.23l0 0.46c4.22,-0.42 7.92,-0.33 12.23,-0.76 29.92,-2.98 61.49,-4.66 94.24,-7.89l44.69 -3.9c5.33,-0.53 10.01,-0.47 15.46,-1 5.22,-0.52 10.49,-1.03 15.8,-1.55 5.56,-0.55 10.69,-0.52 16.13,-1.06l29.39 -2.87c1.74,-0.2 2.45,0.34 4.19,0.15 23.41,-2.59 46.78,-4 71.63,-6.4 3.33,-0.32 5.76,0.02 9,-0.3l29.24 -2.83c6.85,-0.65 12.83,-0.65 19.81,-1.32 34.3,-3.3 70.06,-5.49 107.3,-9.06 29.62,-2.82 60.85,-4.61 92.49,-7.52l0 -19.79zm-49.84 954.41l-60.97 -25.12c-4.1,-1.72 -11.35,-5.61 -15.02,-6.11 -4.28,-0.58 -52.39,-21.47 -57.72,-23.7 -18.78,-7.86 -36.29,-14.59 -54.2,-22.1 -67.22,-28.14 -128.59,-52.78 -185.85,-76.79 -6.79,-2.84 -13.25,-5.05 -20.09,-7.91 -13.21,-5.56 -26.19,-10.99 -38.91,-16.34 -6.41,-2.69 -12.29,-4.67 -18.67,-7.35 -47.53,-19.96 -91.52,-37.55 -132.97,-54.99l-50.21 -20.7c-2.44,-1.03 -4.41,-1.45 -6.87,-2.48l0 0.42c37.63,15.87 77.36,33.51 120.15,51.59l60.57 26.07c2.96,1.26 6.38,2.28 9.33,3.94l37.66 16.43c13.31,5.64 26.25,11.62 40.01,17.44 57.12,24.2 118.39,51.26 185.58,79.76 8.8,3.73 17.19,7.88 26.37,11.78l55.98 23.77c9.97,4.24 19.16,8.74 29.44,13.11 14.79,6.28 29.74,12.72 44.9,19.28l31.48 0zm49.84 -1400.35c-65.99,22.81 -126.67,45.49 -184.08,65.2 -7.21,2.48 -13.55,5.24 -20.74,7.7 -6.89,2.37 -13.72,4.7 -20.5,7.03 -6.95,2.4 -12.97,5.04 -19.73,7.35 -32.13,11.01 -62.96,22.68 -92.65,32.83 -44.89,15.35 -87.99,32.14 -127.87,45.72 -4.9,1.67 -9.75,3.33 -14.58,4.97 -4.9,1.67 -9.21,3.63 -14.1,5.28 -4.7,1.6 -9.37,3.19 -14,4.77 -4.76,1.62 -8.91,3.52 -13.54,5.08l-20.07 6.82c-2.22,0.75 -4.04,1.83 -6.39,2.64l-19.28 6.55c-2.32,0.79 -4.14,1.86 -6.31,2.59l0 0.46c34.41,-11.65 70.17,-22.34 108.46,-35.27 2.65,-0.89 4.7,-1.09 7.22,-1.94l22.7 -7.66c5.26,-1.78 9.94,-2.85 15.34,-4.68 5.26,-1.77 10.55,-3.55 15.89,-5.35 5.56,-1.87 10.45,-3 16.02,-4.87 39.11,-13.18 80.59,-25.49 124.12,-40.1 46.01,-15.44 95.09,-30.11 146.91,-47.45 7.81,-2.62 14.89,-4.37 22.99,-7.07 7.91,-2.65 15.89,-5.31 23.93,-8.01 8.4,-2.81 15.79,-4.63 24.26,-7.46l45.98 -14.67 0 -20.47zm0 -201.85l-80.14 36.89c-9.23,4.17 -17.63,8.6 -26.43,12.58 -34.65,15.66 -67.07,30.91 -99.14,45.39 -7.78,3.52 -14.81,7.28 -22.6,10.8 -44.22,19.96 -86.15,39.98 -125.9,57.89 -6.63,3 -12.47,6.16 -18.98,9.09 -24.91,11.22 -48.39,22.31 -71.76,32.82 -3.06,1.38 -5.37,2.91 -8.34,4.25 -35.67,16.02 -69.54,32.21 -101.83,46.71 -4.91,2.2 -9.36,4.65 -14.3,6.87 -18.87,8.47 -36.75,16.93 -54.61,24.93l0 0.44c1.25,-0.55 1.93,-0.39 3.05,-0.91l23.43 -10.5c4.72,-2.1 8.92,-3.53 13.67,-5.67 63.17,-28.24 133.11,-57.01 210.45,-91.46 31.9,-14.21 65.51,-28.07 100.44,-43.61 7.44,-3.31 14.08,-5.69 21.63,-9.04l39.64 -17.62c2.32,-1.04 3.55,-0.95 5.7,-1.93 32.08,-14.64 64.55,-28.06 99.11,-43.39 9.07,-4.02 17.37,-7.07 26.41,-11.08l80.48 -35.06 0 -18.4zm-392.95 -9.55c-24.72,14.37 -48.11,28.42 -71.33,41.88 -146.93,85.19 -265.79,154.92 -364.2,211.91 -12.7,7.35 -24.87,14.77 -37.03,21.8l-96.98 56.78c40.7,-23.53 85.02,-48.79 134.02,-77.11 6.54,-3.78 12.85,-7.05 19.51,-10.9 110.37,-63.72 246.36,-141.32 418.54,-240.61l6.57 -3.74 -9.09 0zm392.95 1226.62c-45.74,-9.11 -89.05,-16.7 -130.85,-25.57 -2.55,-0.54 -4.56,-0.3 -7.42,-0.87l-52.4 -10.52c-19.38,-3.9 -37.52,-6.96 -56.09,-10.69 -35.48,-7.13 -68.76,-13.28 -101.38,-19.85 -8.04,-1.62 -15.41,-2.57 -23.11,-4.13l-45.01 -9.09c-7.39,-1.49 -14.04,-2.33 -21.31,-3.78 -27.73,-5.61 -53.84,-10.41 -79.46,-15.6l-62.63 -12.22c-2.46,-0.49 -6.32,-1.93 -8.59,-1.67 -2.79,0.31 -29.4,-5.59 -32.74,-6.26 -10.66,-2.18 -20.72,-3.79 -31.07,-5.89 -20.09,-4.09 -39.14,-7.55 -57.99,-11.39l0 0.4c4.71,0.96 9.03,2.26 13.76,3.22l29.11 5.96c5.04,1.04 9.76,2.44 14.96,3.49 20.81,4.27 41.86,9.02 64.09,13.59l68.76 14.57c1.07,0.23 1.3,0.75 2.31,0.99 12.61,3.01 25.58,5.26 38.7,7.96 13.51,2.78 26.82,6.02 40.97,8.94 28.83,5.96 58.32,12.57 89.68,19.05 8.1,1.68 15.55,3.75 23.85,5.48 59.72,12.36 124.02,26.86 193.87,41.38 39.7,8.25 81.33,17.85 124.99,26.62 1.76,0.35 3.55,1.25 4.98,1.74l0 -15.87zm0 -930.34c-1.61,0.54 -3.83,1.36 -6.89,2.28 -3.98,1.18 -7.96,2.37 -11.89,3.55 -4.07,1.21 -7.17,2.78 -11.41,4.06l-142.14 42.43c-13.56,4.04 -26.02,8.36 -39.09,12.25l-107.85 32.17c-11.31,3.36 -21.69,7 -32.67,10.28 -31.54,9.39 -61.77,18.39 -90.8,27.04 -9.54,2.83 -18.36,5.96 -27.7,8.73 -26.83,7.99 -52.63,15.66 -77.49,23.05 -8.09,2.41 -15.65,5.12 -23.62,7.49 -23.11,6.87 -45.41,13.48 -66.93,19.88 -7.03,2.09 -13.68,4.5 -20.65,6.57 -20.11,5.96 -39.55,11.74 -58.37,17.33 -6.11,1.81 -12,3.95 -18.09,5.76l-51.36 15.23c-2.82,0.84 -5.24,1.94 -8,2.75l-53.52 16.2c2.46,-0.72 4.6,-0.99 7.1,-1.72l54.3 -16.04c2.74,-0.81 5.26,-1.17 8.11,-2.01l61.33 -18.09c1.66,-0.48 2.83,-0.43 4.44,-0.9l74.56 -21.97c1.77,-0.52 3.19,-0.51 5.09,-1.06l38.56 -11.35c15.26,-4.49 31.04,-9.7 47.06,-13.87 1.03,-0.26 1.54,0.06 2.74,-0.32 28.07,-8.65 57.7,-16.96 88.35,-25.96 3.72,-1.09 10.63,-4.11 13.96,-3.82 1.83,0.16 104.75,-30.37 119.33,-34.82 1.72,-0.53 2.45,-0.16 4,-0.6l137.04 -40.2c3.64,-1.07 6.44,-1.28 9.87,-2.3l165.72 -48.54c3.02,-0.88 4.78,-0.9 6.9,-1.35l0 -12.09zm0 78.06c-39.92,10.3 -77.28,20.49 -113.98,29.92 -9.37,2.4 -17.69,5.16 -26.92,7.52 -51.87,13.31 -100.73,26.98 -146.81,38.77 -7.69,1.96 -14.53,4.26 -22.1,6.2 -28.74,7.34 -55.79,14.85 -82.57,21.6 -1.82,0.47 -2.89,1.28 -4.49,1.68l-33.38 8.5c-6.31,1.6 -11.9,3.53 -18.12,5.11 -74.2,18.87 -141.17,38.16 -201.65,53.43l0 0.43c4.54,-1.15 8.66,-1.76 13.3,-2.92 27.75,-6.99 56.79,-13.39 87.2,-21.03 5.4,-1.35 10.28,-2.11 15.79,-3.49 44.13,-11.07 90.91,-21.29 141.35,-33.88 33.12,-8.28 68.02,-15.9 104.43,-24.97 7.66,-1.91 14.62,-3.07 22.5,-5.03 11.65,-2.9 23.47,-5.84 35.49,-8.83 4.32,-1.07 7.76,-1.34 12,-2.4 33.57,-8.34 67.61,-16.18 103.98,-25.2 9.44,-2.33 18.05,-3.84 27.77,-6.25l86.23 -20.72 0 -18.43zm0 811.79c-1.87,-0.46 -4.23,-0.52 -5.94,-0.82l-29.65 -4.64c-32.14,-5.74 -63.16,-11.3 -93.14,-16.66 -6.08,-1.09 -11.3,-1.42 -17.44,-2.52 -22.81,-4.09 -45.02,-8.06 -66.66,-11.94 -21.1,-3.79 -41.19,-6.8 -61.43,-10.44 -38.75,-6.95 -75.04,-12.93 -110.33,-19.28l-84.72 -14.75c-4.02,-0.72 -7.37,-0.83 -11.29,-1.54 -57.6,-10.4 -110.17,-19 -159.09,-27.87 -21.5,-3.89 -42.39,-7.12 -62.5,-10.91 -1.39,-0.26 -2.39,-0.03 -3.87,-0.29 -10.41,-1.9 -20.64,-3.76 -30.68,-5.58 -9.97,-1.82 -19.44,-3.15 -29.11,-4.92l0 0.39c19.27,3.52 38.84,7.5 59.52,11.28l64.27 12.19c0.95,0.16 1.21,0.65 2.07,0.84 11.81,2.59 23.97,4.39 36.27,6.64 12.67,2.34 25.1,5.07 38.3,7.5 27.11,4.99 54.79,10.57 84.25,16l83.03 15.83c3.89,0.72 9.11,0.96 12.89,2.41 8.02,3.09 17.23,3.69 25.82,5.28 103.39,19.14 221.78,42.87 359.43,68.53l0 -14.75zm0 116.77c-0.85,-0.16 -1.72,-0.2 -2.31,-0.34 -2.28,-0.54 -4.15,-0.99 -5.93,-0.94 -2.46,0.05 -32.81,-7.74 -36.72,-8.69 -4.26,-1.03 -7.29,-1.11 -11.41,-2.11 -8.93,-2.18 -29.03,-8.03 -35.25,-8.5 -8.33,-0.63 -28.23,-6.29 -38.42,-8.72 -1.98,-0.48 -3.09,-0.11 -5.34,-0.67l-42.21 -9.64c-53.17,-12.91 -102.65,-22.69 -149.59,-34.15 -5.88,-1.44 -10.95,-2.14 -16.68,-3.54 -5.56,-1.36 -11.08,-2.7 -16.55,-4.05 -5.42,-1.32 -10.44,-2.02 -15.98,-3.37 -5.4,-1.33 -10.75,-2.6 -16.07,-3.96 -1.5,-0.38 -2.08,0.05 -3.63,-0.35l-22.94 -5.63c-1.56,-0.39 -2.43,-0.1 -3.71,-0.37l-22.31 -5.51c-2.51,-0.62 -4.52,-0.61 -7.16,-1.26 -4.8,-1.18 -9.56,-2.35 -14.29,-3.51 -4.83,-1.19 -9.01,-1.73 -13.8,-2.91 -27.18,-6.7 -53.33,-11.73 -78.46,-17.94l0 0.45c4.28,1.06 8.07,2.48 12.28,3.52 4.2,1.05 8.44,2.09 12.69,3.15 4.35,1.09 8.26,2.52 12.76,3.64 4.37,1.08 8.76,2.19 13.19,3.27 2.25,0.56 4.02,1.48 6.41,2.07 4.36,1.08 17.87,3.72 20.45,5.37 1.51,0.96 18.07,4.72 21.1,5.47 2.61,0.65 4.49,1.62 7.07,2.26 4.82,1.21 9.68,2.42 14.57,3.64 5.1,1.28 9.56,2.89 14.67,4.16 41.04,10.26 84.55,23.3 130.62,34.88 6.15,1.54 11.54,3.45 17.82,5.03 6.11,1.54 12.27,3.09 18.49,4.66 3.34,0.84 5.76,2.03 9.02,2.84 9.04,2.27 20.23,4.51 29.02,7.29l34.81 9.38c1.99,0.48 2.91,1.36 5.05,1.89 20.79,5.02 41.87,11.19 63.71,16.71 7.69,1.94 14.52,4.29 22.43,6.31 30,7.59 60.59,16.57 92.61,24.78l0 -24.62zm-495.39 -1302.91c-14.49,9.24 -28.7,18.24 -42.65,26.92 -2.63,1.64 -5.02,3.59 -7.8,5.33l-23.54 14.65c-5.13,3.2 -9.81,6.57 -14.95,9.78 -5.02,3.12 -9.99,6.21 -14.93,9.3 -4.97,3.09 -9.5,6.35 -14.28,9.33l-41.54 26.71c22.58,-14.03 46.06,-27.75 70.42,-42.87 5.2,-3.23 9.89,-5.68 15.11,-8.93l23.35 -14.48c2.87,-1.79 5.15,-2.73 7.97,-4.48 16.67,-10.34 33.7,-20.69 51.17,-31.26l-8.34 0zm157.38 0l-16.7 9.34c-19.36,10.83 -37.59,21.54 -55.91,31.78 -68.59,38.34 -130.65,73.96 -187.74,105.83 -6.8,3.8 -13.24,7.84 -20.02,11.62 -13.09,7.31 -25.92,14.46 -38.48,21.47 -6.25,3.49 -12.04,7.15 -18.22,10.59 -46.33,25.83 -88.88,50.33 -128.67,72.49l-0 0.37c4.91,-2.74 9.55,-4.94 14.47,-7.68l38.2 -21.24c2.67,-1.48 5.13,-2.45 7.92,-4 10.82,-6.02 21.85,-12.15 33.1,-18.4 11.49,-6.39 22.94,-12.33 34.97,-19.02 24.7,-13.71 50,-27.33 76.88,-42.25l84.43 -46.4c1.16,-0.64 1.62,-0.38 2.89,-1.1 32.03,-18.24 65.46,-35.8 100.47,-55.19 28.35,-15.71 57.42,-31.49 87.89,-48.22l-15.47 0zm338.02 173.09l-0.56 0.24 -17.06 6.89c-109.09,39.78 -205.93,76.25 -292.5,107.77 -21.74,7.9 -42.31,15.93 -62.74,23.37 -19.94,7.25 -39.36,14.31 -58.28,21.19 -4.74,1.73 -8.8,3.7 -13.51,5.41 -97.81,35.53 -182.82,67.75 -257.74,94.87 -1.63,0.59 -2.76,1.41 -4.4,2l-31.02 11.23c-11.52,4.17 -22.42,8.5 -33.44,12.48 -21.39,7.73 -41.6,15.42 -61.39,22.57l53.04 -18.39c2.15,-0.78 6.12,-2.93 8.04,-2.67 1.32,0.19 13.89,-4.83 16.41,-5.74 40.42,-14.56 83.85,-29.35 130.76,-46.21l77.57 -27.41c1.95,-0.71 3.91,-1.41 5.87,-2.12 2.19,-0.78 3.73,-0.86 5.93,-1.66 67.39,-24.17 141.34,-49.65 224.17,-79.3l123.73 -43.71c6.68,-2.39 12.44,-3.84 19.18,-6.25 26.46,-9.45 53.76,-19.2 81.94,-29.28 27.91,-9.97 56.14,-19.46 86,-30.07l0 -15.2zm0 364.85c-56.78,9.64 -109.45,19.15 -159.7,27.65 -48.43,8.19 -93.94,17 -137.46,23.78 -1.64,0.26 -2.21,0.91 -3.63,1.2 -18.85,3.71 -38.78,6.51 -56.77,9.54 -19.37,3.26 -37.63,6.85 -56.12,9.96 -35.36,5.94 -68.54,11.99 -100.76,17.39 -7.86,1.32 -15.05,3 -22.73,4.28 -50.9,8.51 -97.89,17.24 -141.64,24.53l-60.05 10.41c-2.81,0.46 -5.19,1.26 -7.98,1.71 -21.14,3.51 -41.21,7.22 -60.76,10.45l0 0.38c19.49,-3.22 39.55,-6.15 60.63,-9.63 2.68,-0.43 5.17,-0.45 7.98,-0.91 42.24,-6.94 87.65,-13.55 136.88,-21.61 7.02,-1.15 13.63,-1.78 20.71,-2.94l43.88 -7.17c7.67,-1.26 14.96,-1.97 22.9,-3.27 32.13,-5.24 65.22,-10.12 100.52,-15.86 34.57,-5.63 70.81,-10.79 108.94,-17.17 2.69,-0.45 4.83,-0.24 7.75,-0.71 88.28,-14.29 186.18,-28.93 297.41,-46.84l0 -15.17zm0 83.11l-113.04 14.1c-36.03,4.5 -69.75,9.3 -103.02,13.44 -31.7,3.95 -62.2,7.75 -91.57,11.41 -28.5,3.54 -55.34,7.41 -81.93,10.71 -25.43,3.15 -50,6.2 -73.74,9.15 -23.1,2.87 -44.99,6.06 -66.72,8.76 -20.85,2.58 -41.05,5.08 -60.65,7.5 -19.09,2.37 -37.3,5.05 -55.38,7.28 -17.41,2.15 -34.32,4.24 -50.76,6.27 -16.04,1.97 -31.42,4.27 -46.7,6.15 -83.09,10.22 -154.7,20.06 -217.02,27.65l0 0.32c85.07,-10.33 187.82,-21.29 314.33,-36.5 159.08,-19.11 366.07,-41.77 646.2,-75.02l0 -11.22zm0 74.57c-9.23,0.9 -17.72,2.13 -27,2.9 -10.1,0.86 -20.08,1.7 -29.96,2.54 -5.13,0.43 -9.33,1.43 -14.13,1.83l-42.94 3.61c-2.59,0.2 -3.96,0.98 -6.35,1.17 -10.22,0.74 -41.26,2.67 -46.7,4.41l-38.2 3.27c-4.44,0.37 -7.97,1.26 -12.19,1.61 -8.11,0.67 -16.15,1.33 -24.11,2 -8.09,0.67 -15.4,1.85 -23.15,2.49 -7.66,0.64 -15.24,1.26 -22.76,1.89 -7.68,0.63 -14.52,1.75 -22.12,2.37 -55.85,4.6 -107.99,10.95 -156.46,14.87 -6.01,0.48 -11.43,1.41 -17.22,1.88 -5.72,0.46 -11.38,0.91 -16.99,1.37 -5.67,0.45 -10.76,1.34 -16.41,1.8 -5.5,0.44 -10.94,0.87 -16.36,1.31 -2.79,0.22 -4.93,0.87 -7.69,1.08l-23.37 1.86c-1.25,0.09 -2.1,0.64 -3.51,0.75l-22.6 1.8c-0.56,0.04 -1.22,0.01 -1.77,0.14 -0.72,0.17 -0.88,0.54 -1.76,0.61l-21.4 1.68c-2.51,0.2 -4.45,0.8 -6.92,0.98 -4.63,0.38 -9.22,0.73 -13.77,1.09 -4.7,0.38 -8.91,1.14 -13.46,1.49l0 0.44c4.45,-0.35 8.94,-0.7 13.46,-1.06 4.61,-0.36 8.86,-0.26 13.62,-0.62 38.07,-2.96 78.61,-4.24 121.75,-7.53 5.78,-0.44 11,-0.36 16.8,-0.8 5.81,-0.44 11.69,-0.89 17.6,-1.34 5.95,-0.45 11.5,-0.37 17.67,-0.85 6.05,-0.45 12.16,-0.91 18.31,-1.38 3.21,-0.24 5.75,0.09 9.04,-0.17 8.19,-0.61 21.87,-2.59 29.07,-2.2l34.76 -2.08c1.99,-0.15 3.06,0.34 4.97,0.18l31.7 -2.37c3.74,-0.29 6.81,0.04 10.7,-0.25 7.3,-0.54 14.67,-1.08 22.11,-1.63 7.72,-0.57 14.69,-0.54 22.5,-1.11 7.73,-0.57 15.52,-1.15 23.4,-1.72 8.07,-0.6 15.69,-0.58 24.11,-1.19 66.64,-4.9 139.07,-7.76 217.76,-13.37l0 -23.72zm0 41.48l-44.29 2.83c-4.29,0.26 -12.02,-0.12 -15.81,1.26 -3.76,1.36 -45.2,3.17 -53.07,3.66l-57.06 4.15c-2.38,0.11 -4.15,0.85 -6.8,1.02l-40.22 2.48c-4.63,0.28 -8.26,1.09 -12.8,1.35l-37.77 2.31c-4.11,0.26 -7.74,1.04 -12.04,1.3 -8.01,0.49 -15.93,0.97 -23.78,1.45 -8.06,0.48 -15.29,1.48 -23.08,1.94 -7.54,0.46 -15,0.91 -22.4,1.35 -7.58,0.46 -14.34,1.4 -21.76,1.85 -7.19,0.43 -14.31,0.85 -21.36,1.27 -7.07,0.42 -13.51,1.32 -20.55,1.74 -52.06,3.12 -100.67,7.93 -145.81,10.56 -42.28,2.46 -82.09,6.52 -119.33,8.64l0 0.42c9.06,-0.52 18.09,-0.61 27.56,-1.13 4.86,-0.28 9.31,-0.09 14.19,-0.37 4.91,-0.27 9.84,-0.55 14.83,-0.82 5.09,-0.28 9.7,-0.1 14.87,-0.39 5.15,-0.28 10.33,-0.57 15.57,-0.86 5.28,-0.3 10.17,-0.11 15.61,-0.41 5.41,-0.29 10.85,-0.59 16.35,-0.9 5.45,-0.3 10.72,-0.11 16.42,-0.43 5.69,-0.31 11.41,-0.63 17.2,-0.94 3.01,-0.17 5.39,0.17 8.41,0.01l26.99 -1.48c2.98,-0.16 5.67,0.19 8.86,0.02l28.46 -1.55c1.54,-0.1 2.77,0.37 4.55,0.27 4.87,-0.27 32.77,-2.29 34.76,-1.65 3.07,0.98 31.56,-1.93 38.89,-1.8 1.13,0.03 1.35,0.48 2.63,0.43l38.53 -2.06c1.95,-0.13 3.4,0.37 5.59,0.25l34.95 -1.84c4.23,-0.22 7.6,0.16 11.84,-0.06l37.14 -1.94c4.25,-0.22 8.06,0.16 12.59,-0.07 8.6,-0.45 17.28,-0.9 26.06,-1.35 9.2,-0.47 17.66,-0.33 26.9,-0.8 9.17,-0.48 18.43,-0.96 27.8,-1.44 9.8,-0.5 18.72,-0.35 28.72,-0.85 9.79,-0.51 19.69,-1.02 29.7,-1.52 10.37,-0.53 19.99,-0.39 30.73,-0.94 20.27,-1.03 40.36,-1.46 61.23,-2.46l0 -22.48zm0 42.93c-54.39,2.17 -104.88,4.77 -153.32,6.66 -46.33,1.82 -90.95,4.72 -132.53,6.31 -40,1.54 -77.41,3.51 -113.7,4.89 -4.32,0.17 -8.37,0.83 -12.86,1l-37.86 1.43c-8.3,0.32 -15.98,1.1 -23.96,1.39l-88.94 3.79c-7.04,0.26 -13.46,0.96 -20.33,1.2 -26.49,0.98 -51.46,2.32 -75.89,3.22 -5.98,0.22 -11.52,0.84 -17.44,1.06 -36.36,1.3 -70.58,3.33 -102.8,4.46 -2.55,0.09 -4.7,0.54 -7.19,0.63l0 0.39c19.51,-0.68 39.36,-0.97 60.29,-1.68 21.44,-0.74 44.11,-0.67 67.28,-1.45 49.57,-1.67 103.2,-2.07 161.83,-3.98l72.35 -1.84c8.67,-0.28 16.94,-0.02 25.93,-0.3 36.26,-1.16 73.66,-1.8 113.76,-3.06 5.35,-0.17 9.91,0.25 15.22,0.08 76.38,-2.37 160.46,-3.73 253.45,-6.56 3.87,-0.11 6.48,0.48 10.2,0.35 1.83,-0.06 3.67,-0.11 5.5,-0.16 0.3,-0 0.64,0.02 0.99,0.05l0 -17.89zm0 160.96c-106.15,-4.94 -200.31,-7.61 -285.49,-11.69 -2.79,-0.13 -4.84,0.35 -7.38,0.2l-51.39 -2.48c-9.42,-0.45 -18.3,-0.34 -27.66,-0.8 -9.07,-0.44 -18.04,-0.88 -26.88,-1.3 -8.93,-0.43 -17.09,-0.32 -25.73,-0.74 -64.6,-3.16 -123.78,-4.67 -177.95,-7.37 -6.54,-0.33 -12.63,-0.19 -19.12,-0.52 -6.3,-0.32 -12.53,-0.63 -18.7,-0.94 -6.23,-0.31 -11.98,-0.17 -18,-0.47 -45.84,-2.33 -88.03,-3.27 -127.53,-5.32l0 0.38c4.81,0.26 9.32,0.87 14.26,1.13 35.19,1.84 72.87,5.06 112.98,7.21l55.95 3.44c6.67,0.36 12.89,1.14 19.71,1.5l31.01 1.68c3.57,0.2 6.78,0.84 10.5,1.05l38.75 2.11c2.1,0.12 3.52,0.69 5.54,0.8 64.15,3.31 134.05,8.95 211.63,13.3 84.63,4.74 179.84,12.52 285.51,18.63l0 -19.79zm-293.96 670.75c-72.31,-34.76 -137.82,-64.96 -198.3,-94.27 -2.06,-1 -3.38,-1.15 -5.4,-2.13l-38.5 -18.65c-3.7,-1.79 -6.81,-2.81 -10.41,-4.56 -10.42,-5.06 -20.67,-10.02 -30.76,-14.91 -6.72,-3.26 -12.92,-5.81 -19.57,-9.02 -6.44,-3.13 -12.82,-6.22 -19.13,-9.28 -6.37,-3.09 -12.24,-5.5 -18.41,-8.49 -41.17,-19.98 -79.8,-37.5 -115.85,-55.03 -10.06,-4.89 -19.59,-9.14 -29.23,-13.82l44.31 22.36c5.3,2.58 10.24,5.39 15.63,8.02 5.3,2.59 10.67,5.2 16.07,7.84 5.55,2.7 10.84,5.7 16.39,8.41l25.69 12.52c3.1,1.51 5.78,3.25 8.81,4.74 49.38,24.11 102.47,51.44 160.72,79.94 7.7,3.77 15.01,7.84 22.96,11.74 7.9,3.86 15.89,7.78 23.96,11.73 8.34,4.08 16.12,8.4 24.58,12.54 32.04,15.7 65.63,32.62 100.8,50.31l25.63 0zm13.05 -1611.74l-35.37 19.07c-4.86,2.62 -9.05,5.42 -13.65,7.9l-40.23 21.68c-4.61,2.49 -8.5,5.11 -12.95,7.5l-37.52 20.2c-4.31,2.32 -7.89,4.76 -12.09,7.01 -11.89,6.4 -23.58,12.7 -35.08,18.88 -4.01,2.16 -7.34,4.44 -11.31,6.57 -11.13,5.99 -22.09,11.87 -32.87,17.67 -3.67,1.97 -6.75,4.12 -10.44,6.09l-30.87 16.59c-3.44,1.85 -6.46,3.93 -9.98,5.81 -6.57,3.54 -13.07,7.02 -19.51,10.48 -6.48,3.48 -12.56,7.2 -18.78,10.54 -6.19,3.31 -12.31,6.6 -18.38,9.86 -6.17,3.31 -11.92,6.84 -17.86,10.02 -5.84,3.13 -11.62,6.23 -17.35,9.3 -5.78,3.09 -11.14,6.4 -16.72,9.39 -5.52,2.95 -10.98,5.88 -16.4,8.78 -5.53,2.97 -10.62,6.11 -15.96,8.98 -5.23,2.79 -10.41,5.57 -15.54,8.32 -5.24,2.8 -10.03,5.78 -15.12,8.5 -4.96,2.66 -9.87,5.28 -14.73,7.89 -4.96,2.65 -9.5,5.48 -14.35,8.06l0 0.39c4.74,-2.53 9.52,-5.09 14.35,-7.67 4.97,-2.66 9.56,-4.71 14.61,-7.4 5,-2.67 10.03,-5.37 15.11,-8.08 5.28,-2.81 10.17,-5.03 15.54,-7.88 5.27,-2.82 10.59,-5.66 15.95,-8.53 5.51,-2.94 10.64,-5.26 16.26,-8.26 5.57,-2.97 11.2,-5.97 16.87,-9 5.87,-3.13 11.33,-5.61 17.35,-8.83 5.89,-3.13 11.84,-6.3 17.85,-9.52 6.14,-3.26 11.9,-5.89 18.22,-9.26 6.25,-3.34 12.55,-6.69 18.93,-10.09 6.55,-3.48 12.74,-6.32 19.5,-9.92 6.63,-3.54 13.33,-7.1 20.1,-10.71 6.94,-3.68 13.55,-6.74 20.74,-10.57 58.46,-31.11 122.47,-63.09 192.2,-100.09 24.44,-12.97 49.76,-26.15 75.93,-39.71l-26.42 0zm280.92 1509.58c-67.67,-23.79 -129.88,-45.07 -188.74,-65.8 -7.27,-2.56 -13.65,-4.22 -20.88,-6.78l-169.12 -59.08c-11.24,-3.97 -21.89,-7.21 -32.95,-11.11l-58.04 -20.51c-1.52,-0.55 -2.19,-0.24 -3.65,-0.79 -56.69,-20.87 -109.08,-37.66 -157.34,-54.76 -7.7,-2.73 -15.3,-5.43 -22.81,-8.08 -7.56,-2.68 -14.7,-4.78 -21.97,-7.36 -28.28,-10.04 -54.86,-19.06 -80.58,-28.19l-53.54 -18.63c-5.68,-2.01 -11.08,-3.56 -16.72,-5.56 -21.61,-7.69 -42.04,-14.6 -61.97,-21.69l0 0.33c4.95,1.76 9.63,3.79 14.67,5.58 36.38,12.98 75.4,27.65 117.68,42.76 3.19,1.14 6.04,2.56 9.33,3.72l93.1 33.74c7.56,2.71 14.94,5.79 22.81,8.61l45.36 16.25c1.17,0.41 1.79,1.12 3.09,1.57 52.34,18.25 109.06,40.11 170.79,62.32 10.89,3.92 21.95,7.89 33.17,11.93 11.57,4.16 22.73,8.7 34.5,12.94 48.91,17.61 100.28,36.66 155.9,56.71l152.25 55.49c4.34,1.57 8.01,3.55 12.68,5.24l19.7 7.11c1.18,0.43 2.32,1.02 3.28,1.39l0 -17.35zm0 -1054.12c-123.76,26.48 -231.74,51.24 -327.41,71.58 -54.64,11.61 -105.73,23.48 -153.27,33.56 -9.32,1.97 -18.02,4.29 -26.98,6.19l-51.25 10.9c-3.53,1.83 -42.88,9.44 -47.24,10.37 -7.65,1.61 -14.81,3.57 -22.35,5.16 -88.65,18.68 -165.53,36.78 -232.66,50.81l-0 0.36c24.73,-5.16 50.83,-9.87 78.19,-15.55 5.76,-1.21 11.27,-1.96 17.07,-3.16 8.8,-1.83 17.75,-3.69 26.83,-5.57 2.78,-0.58 6.53,-2.04 9.23,-1.9 3.45,0.19 14.37,-2.61 18.69,-3.5 6.45,-1.33 12.97,-2.68 19.57,-4.05 6.74,-1.41 13.17,-2.31 20.11,-3.74 96.09,-19.88 209.19,-40.8 343.82,-68.42 46.6,-9.55 96.76,-18.68 149.49,-29.47 55.68,-11.38 114.41,-22.77 178.17,-35.75l0 -17.82zm0 890.54c-114.87,-30.31 -215.66,-55.21 -306.09,-79.17 -10.7,-2.84 -20.79,-4.98 -31.37,-7.78 -10.25,-2.72 -20.36,-5.41 -30.35,-8.06 -10.02,-2.65 -19.2,-4.57 -28.95,-7.16 -9.54,-2.54 -18.97,-5.04 -28.28,-7.52 -9.26,-2.47 -17.92,-4.26 -26.8,-6.63l-75.44 -19.61c-60.24,-16.06 -115.64,-29.09 -166.07,-42.61 -6.04,-1.62 -12.02,-3.21 -17.94,-4.81 -5.91,-1.58 -11.42,-2.65 -17.27,-4.22 -5.69,-1.52 -11.31,-3.04 -16.88,-4.53 -5.66,-1.52 -10.88,-2.53 -16.39,-4.01 -8.02,-2.14 -15.91,-4.27 -23.7,-6.36 -2.62,-0.7 -4.99,-0.96 -7.67,-1.68 -7.56,-2.04 -15.02,-4.05 -22.38,-6.03 -2.56,-0.68 -4.8,-0.92 -7.26,-1.58l0 0.37c40.01,10.8 82.85,23.55 129.61,36.2 6.07,1.65 12.04,3.68 18.37,5.4 6.3,1.71 12.67,3.43 19.1,5.17 6.59,1.8 12.81,3.91 19.56,5.74 6.77,1.84 13.61,3.7 20.53,5.57 7.07,1.92 13.75,4.19 20.9,6.12 51.96,14.12 108.5,30.95 169.93,47.72 47.4,12.94 97.98,27.83 152.17,42.66 11.4,3.11 22.46,6.71 34.38,9.98 11.8,3.23 23.75,6.51 35.9,9.83 12.61,3.46 24.52,7.31 37.52,10.89 12.89,3.52 25.96,7.12 39.26,10.76 13.83,3.8 27.04,8.04 41.1,11.91 5.23,1.44 72.93,19.28 76.79,21.47 1.79,1.02 3.8,1.32 5.69,1.83 0.55,0.16 1.3,0.51 2.04,0.77l0 -20.64zm0 38.91l-38.8 -11.06c-13.77,-3.92 -26.33,-6.86 -39.74,-10.69 -98.21,-28.02 -186.18,-50.85 -265.39,-73.56 -18.7,-5.37 -36.58,-9.96 -54.57,-15.13 -8.93,-2.57 -17.08,-4.39 -25.73,-6.87 -8.45,-2.43 -16.8,-4.83 -25.06,-7.2 -8.22,-2.36 -15.87,-4.07 -24,-6.4 -7.89,-2.28 -15.68,-4.52 -23.39,-6.74 -3.91,-1.13 -7.17,-1.58 -11.03,-2.7l-33.11 -9.54c-1.89,-0.55 -3.21,-0.46 -5.18,-1.03l-33.75 -9.74c-1.09,-0.33 -1.55,-0.04 -2.44,-0.23 -9,-1.85 -20.3,-5.87 -29.46,-8.52 -3.34,-0.97 -6.22,-1.35 -9.42,-2.28 -6.3,-1.83 -12.54,-3.62 -18.71,-5.41 -6.22,-1.8 -12.03,-3.06 -18.01,-4.78 -5.89,-1.7 -11.72,-3.4 -17.5,-5.06 -5.87,-1.7 -11.24,-2.83 -17,-4.5 -32.72,-9.5 -63.63,-17.27 -92.91,-25.79l0 0.38c19.33,5.63 39.26,12.23 60.08,18.31 5.41,1.57 10.48,3.46 15.91,5.04 5.5,1.61 11.04,3.24 16.64,4.87 5.73,1.67 11.1,3.66 16.98,5.39 5.82,1.7 11.69,3.42 17.63,5.16 3.07,0.89 5.69,2.09 8.72,2.98l27.85 8.15c1.74,0.52 2.92,1.31 4.61,1.8 5.11,1.48 31.81,8.72 34.28,10.39 1.68,1.13 26.85,8.01 30.98,9.22 3.67,1.09 6.97,2.52 10.5,3.57l33.11 9.73c3.78,1.11 7.24,2.6 11.21,3.78 7.65,2.26 15.38,4.53 23.2,6.83 8.13,2.39 15.71,5.13 23.99,7.57 8.25,2.43 16.6,4.89 25.05,7.39 8.58,2.53 16.81,5.46 25.72,8.09 73.46,21.69 154.78,47.98 245.05,74.76 12.31,3.65 23.98,7.73 36.45,11.43 12.59,3.74 25.37,7.53 38.33,11.38 13.37,3.97 25.92,8.33 39.73,12.44l39.16 11.64 0 -23.09zm0 -322.55c-127.5,-14.25 -237.96,-24.91 -335.83,-35.97 -5.96,-0.68 -11.21,-0.72 -16.95,-1.39 -16.8,-1.9 -33.23,-3.76 -49.3,-5.58 -10.63,-1.2 -20.52,-1.81 -30.91,-3 -10.08,-1.15 -20.03,-2.27 -29.83,-3.39 -9.83,-1.11 -18.94,-1.67 -28.43,-2.74 -62.28,-7.11 -119.28,-12.28 -171.42,-18.28 -34.72,-4 -67.46,-6.96 -98.43,-10.54 -6.04,-0.7 -11.72,-0.98 -17.69,-1.67 -5.81,-0.67 -11.56,-1.35 -17.24,-2 -5.76,-0.67 -11.09,-0.93 -16.71,-1.57 -5.45,-0.64 -10.85,-1.26 -16.19,-1.88 -5.35,-0.63 -10.44,-0.86 -15.59,-1.45l-22.68 -2.66c-2.58,-0.3 -4.87,-0.22 -7.34,-0.5l0 0.34c40.5,4.76 84.15,11.04 131.97,16.71 6.27,0.74 12.39,1.87 18.89,2.64 6.49,0.76 13.05,1.55 19.69,2.33 6.8,0.81 13.26,2 20.23,2.83 7,0.84 14.08,1.69 21.24,2.54 7.31,0.87 14.33,2.14 21.72,3.03l70.63 8.91c69.76,8.37 147.94,19.8 235.03,30.38 11.68,1.42 23.54,2.86 35.58,4.32 12.35,1.5 24.2,3.5 37.02,5.06 12.82,1.56 25.85,3.15 39.08,4.76 13.77,1.67 26.92,3.87 41.04,5.6 21.3,2.59 43.14,5.27 65.56,8 7.72,0.94 14.68,2.42 22.68,3.41l94.19 12.24 0 -20.49zm0 82.26c-0.96,-0.08 -2.21,-0.15 -3.83,-0.41 -6.26,-0.98 -19.01,-3.45 -23.77,-3.15 -3.28,0.2 -88.66,-13.78 -90.56,-14.07 -37.6,-5.89 -72.76,-10.81 -107.24,-16.21 -64.83,-10.17 -124.09,-18.93 -179.71,-27.67 -13.24,-2.08 -25.75,-3.54 -38.63,-5.57 -83.35,-13.13 -157.3,-23.89 -223.67,-34.4 -4.55,-0.72 -8.69,-0.96 -13.06,-1.66 -62.38,-9.88 -118.39,-18.02 -169.21,-26.12 -3.26,-0.52 -6.17,-0.63 -9.4,-1.14 -45.36,-7.24 -86.72,-13.2 -124.77,-19.3l0 0.31c1.28,0.2 2.31,0.68 3.55,0.88l26.49 4.26c32.2,5.19 66.78,11.76 104.04,17.48 0.9,0.13 1.39,0.6 2.25,0.72 25.7,3.71 52.84,8.95 81.35,13.57l97.07 16.19c0.78,0.13 0.91,0.49 1.55,0.7 4.2,1.36 9.15,1.49 13.5,2.2l42.85 7c10.06,1.64 19.84,3.68 30.13,5.37l165.92 27.66c3.54,0.57 6.37,1.56 9.85,2.13 55.58,9.13 114.95,19.44 179.65,30.08 65.54,10.8 136.5,23.66 213.63,35.83 3.04,0.48 4.74,1.46 7.86,1.96 1.41,0.22 2.92,0.7 4.19,0.93l0 -17.58zm0 322.54c-0.94,-0.27 -2.05,-0.47 -3.2,-0.85l-98.54 -31.81c-16.73,-5.51 -32.2,-9.99 -48.22,-15.28 -117.02,-38.6 -219.24,-70.73 -309.04,-100.45 -10.58,-3.5 -20.63,-6.34 -31.02,-9.78 -10.03,-3.33 -19.93,-6.6 -29.67,-9.83 -9.76,-3.23 -18.83,-5.76 -28.25,-8.88 -13.77,-4.57 -27.25,-9.04 -40.46,-13.41 -4.54,-1.51 -8.5,-2.38 -12.94,-3.85 -64.89,-21.54 -123.11,-39.66 -176.21,-57.35 -6.38,-2.13 -12.33,-3.72 -18.53,-5.79 -41.05,-13.69 -79.17,-25.35 -114.44,-37.15l0 0.34c4.9,1.64 9.84,3.29 14.84,4.97 5.06,1.7 9.98,3.68 15.21,5.44 5.21,1.74 10.48,3.51 15.8,5.29 5.46,1.83 10.67,3.94 16.21,5.8 8.35,2.8 16.84,5.65 25.48,8.55 3.01,1.01 5.68,2.27 8.67,3.28l27.25 9.16c2.62,0.87 7.02,1.59 9.31,3.4 1.04,0.83 38.22,12.96 39.26,13.31 3.43,1.15 6.59,2.62 10.14,3.81l31.96 10.76c7.39,2.48 14.54,5.31 22.18,7.89 7.63,2.56 15.36,5.17 23.19,7.81 8.05,2.71 15.77,5.74 23.96,8.52 69.07,23.3 146.44,50.86 233.41,80.29 11.81,4 23.27,8.4 35.57,12.57 103.2,34.95 220.92,76.63 358.09,123.25l0 -19.99zm-68.35 -1467.16c-102.8,49.44 -194.52,94.54 -276.49,133.39 -89.03,42.2 -168.47,81.77 -239.32,115.27 -63.79,30.15 -121.71,59.16 -174.2,83.89 -47.97,22.61 -92.09,44.83 -132.56,63.85l0 0.34c40.43,-18.98 84.51,-38.18 132.44,-60.61 52.48,-24.55 110.38,-49.93 174.15,-79.69 70.83,-33.05 150.24,-68.08 239.24,-109.48 93.74,-43.61 200.2,-91 321.44,-146.95l-44.7 0zm-292.82 1611.74l-3.66 -1.84c-92.32,-46.57 -174.32,-86.04 -246.89,-122.74 -8.55,-4.32 -16.98,-8.58 -25.3,-12.79 -8.31,-4.21 -16.06,-7.69 -24.15,-11.79 -7.89,-3.99 -15.67,-7.93 -23.36,-11.82 -7.74,-3.91 -15,-7.19 -22.46,-10.96 -10.92,-5.52 -21.63,-10.95 -32.15,-16.28 -3.56,-1.8 -6.69,-2.99 -10.2,-4.77 -11.83,-5.99 -23.4,-11.86 -34.74,-17.6 -1.73,-0.87 -3.05,-1.17 -4.72,-2.01 -48.55,-24.63 -92.63,-45.93 -133.31,-66.6l0 0.33c4.93,2.51 9.68,5.26 14.74,7.84 5.05,2.57 10.16,5.17 15.31,7.8 5.3,2.69 10.34,5.61 15.71,8.35 27.48,13.99 56.52,29.52 87.31,45.2 39.25,20.03 81.74,42.92 127.28,66.2 7.99,4.07 16.07,8.21 24.28,12.41 8.37,4.27 16.57,8.9 25.28,13.35 8.66,4.42 17.44,8.91 26.35,13.47 9.15,4.68 17.9,9.61 27.31,14.43 9.42,4.82 18.97,9.7 28.67,14.67 9.98,5.11 19.64,10.54 29.78,15.73 15.48,7.93 31.33,16.05 47.54,24.34 5.66,2.9 10.7,5.99 16.39,8.89l51.14 26.21 23.86 0zm361.16 -346.87c-128.57,-28.33 -240.85,-51.41 -339.24,-73.2 -13.34,-2.96 -25.88,-5.19 -38.87,-8.08 -94.91,-21.06 -178.04,-38.12 -252.18,-54.67 -4.29,-0.95 -8.33,-1.42 -12.7,-2.4l-37.41 -8.35c-7.96,-1.78 -15.57,-3.07 -23.43,-4.83 -7.69,-1.72 -15.28,-3.42 -22.78,-5.1 -7.45,-1.66 -14.42,-2.83 -21.65,-4.45l-60.83 -13.25c-36.83,-8.27 -71.39,-14.98 -103.45,-22.21 -5.19,-1.17 -10.31,-2.32 -15.38,-3.47 -5.07,-1.14 -9.82,-1.88 -14.8,-3l0 0.33c40.69,9.2 84.89,20.27 133.63,31.35 3.26,0.74 6.17,1.78 9.46,2.53 9.87,2.24 19.92,4.54 30.16,6.86 6.96,1.58 13.67,3.5 20.83,5.13 7.2,1.64 14.5,3.31 21.89,5 7.54,1.72 14.86,3.8 22.5,5.54 65.07,14.86 137.96,32.88 219.97,51.69 11.1,2.54 21.91,5.52 33.46,8.17 11.59,2.67 23.35,5.37 35.33,8.12 12.34,2.84 24.24,6.09 36.91,9 108.05,24.87 232.36,55.28 378.56,89.09l0 -19.79zm0 -1013.89c-136.83,44.28 -255.15,84.76 -358,117.87 -91.39,29.41 -172.47,57.41 -244.58,80.5 -64.73,20.75 -123.3,41.13 -176.25,58.02 -48.29,15.41 -92.58,30.94 -133.13,43.83l0 0.34c40.52,-12.86 84.77,-25.43 133.02,-40.67 52.95,-16.73 111.46,-33.52 176.2,-53.87 72.07,-22.67 153.14,-46.16 244.5,-74.76 102.9,-32.22 221.28,-66.87 358.24,-109.51l0 -21.76zm-217.8 -250.98c-48.45,25.61 -94.03,49.63 -136.98,71.87 -12.21,6.32 -23.56,12.73 -35.3,18.8 -11.47,5.94 -22.77,11.79 -33.89,17.54 -11.06,5.72 -21.38,11.57 -32.18,17.15 -10.47,5.41 -20.78,10.76 -30.96,16.01 -5.15,2.67 -9.7,5.51 -14.69,8.09l-43.13 22.29c-2.47,1.28 -4.35,2.7 -6.7,3.92l-33.63 17.37c-3.68,1.9 -9.76,4.16 -12.89,6.98 -1.38,1.25 -38.83,20.17 -43.1,22.37 -2.04,1.05 -3.76,2.37 -5.91,3.47l-34.4 17.75c-3.76,1.94 -7.19,4.11 -11,6.07 -7.26,3.74 -14.43,7.44 -21.51,11.09 -7.11,3.67 -13.71,7.47 -20.61,11.03 -6.75,3.48 -13.42,6.91 -20.01,10.3 -6.58,3.39 -12.81,6.99 -19.31,10.33 -48.3,24.87 -92.37,48.96 -132.99,69.81l0 0.33c4.98,-2.55 9.76,-4.66 14.77,-7.23 5.06,-2.59 10.16,-5.2 15.32,-7.86 5.28,-2.69 10.31,-4.92 15.71,-7.69 5.39,-2.76 10.83,-5.55 16.33,-8.37 5.54,-2.84 11,-5.26 16.76,-8.22 5.74,-2.94 11.56,-5.91 17.43,-8.91 2.96,-1.52 5.7,-2.55 8.77,-4.12 3.04,-1.55 6.08,-3.11 9.14,-4.67 6.1,-3.12 12.56,-7.05 18.77,-9.61l34.02 -17c1.84,-0.95 3.23,-1.26 5.04,-2.19l31.33 -16c3.7,-1.9 7,-3.17 10.78,-5.09 7.35,-3.76 14.79,-7.56 22.32,-11.4 7.75,-3.96 15.16,-7.31 23.04,-11.33 7.94,-4.05 15.97,-8.15 24.11,-12.3 8.37,-4.27 16.42,-7.93 25.07,-12.35 71.96,-36.68 152.52,-75.74 243.47,-121.98 24.62,-12.52 49.7,-24.71 76.18,-38.17 13.7,-6.95 26.8,-13.04 40.92,-20.21 14.2,-7.2 28.65,-14.54 43.35,-22 3.97,-2.02 7.93,-3.99 11.87,-5.92l-35.33 0zm217.8 1547.18l-95.95 -35.69c-10.46,-3.9 -20.07,-6.85 -30.46,-10.71 -19.83,-7.39 -39.22,-14.6 -58.17,-21.66 -18.75,-6.98 -36.26,-12.93 -54.13,-19.59 -17.36,-6.46 -34.36,-12.8 -51,-19 -16.42,-6.12 -31.83,-11.31 -47.67,-17.22 -87.57,-32.67 -165.55,-60.3 -235.54,-86.5 -42.81,-16 -82.76,-30.1 -120.38,-44.2 -9.13,-3.42 -17.8,-6.26 -26.57,-9.55 -8.63,-3.24 -17.13,-6.43 -25.51,-9.57 -8.35,-3.13 -16.19,-5.68 -24.29,-8.73 -7.94,-2.98 -15.76,-5.91 -23.48,-8.81 -7.57,-2.85 -14.83,-5.2 -22.28,-8 -7.26,-2.73 -14.41,-5.42 -21.47,-8.07 -3.54,-1.33 -6.74,-2.17 -10.26,-3.49l-30.15 -11.35c-1.65,-0.62 -3.02,-0.8 -4.71,-1.43l-31.39 -11.83c-0.52,-0.19 -0.61,0.07 -1.07,-0.04 -2.92,-0.77 -5.97,-2.27 -8.86,-3.37l-17.41 -6.56c-2.89,-1.09 -5.59,-1.78 -8.38,-2.83l-24.33 -9.18c-2.67,-1 -5.13,-1.62 -7.8,-2.63 -5.15,-1.94 -10.24,-3.87 -15.28,-5.77 -5.06,-1.91 -9.83,-3.41 -14.75,-5.28l0 0.31c4.86,1.84 9.78,3.7 14.75,5.58 5.07,1.91 9.98,4.09 15.2,6.06 32.17,12.18 66.73,26.28 104.02,40.44 26.56,10.09 54.5,21.43 84.16,32.72 7.76,2.95 15.34,6.22 23.24,9.23 8.01,3.05 16.15,6.15 24.4,9.29 8.46,3.23 16.65,6.75 25.37,10.07 8.8,3.35 17.75,6.76 26.83,10.22 9.2,3.5 18.26,7.38 27.83,11.04 9.63,3.67 19.4,7.4 29.33,11.19 5.12,1.95 9.78,4.17 14.99,6.16l48.22 18.41c2.82,1.09 5.21,2.46 8.15,3.58l59.35 22.67c1.06,0.41 1.25,0.92 2.19,1.35 6.03,2.78 12.45,4.74 18.63,7.11 12.82,4.9 25.89,9.9 39.2,14.99 6.88,2.63 13.42,5.65 20.24,8.26l64.58 24.72c7.66,2.94 14.82,6.22 22.75,9.25 15.64,5.99 31.59,12.11 47.89,18.35 16.93,6.5 33.43,13.38 50.98,20.11 17.74,6.81 35.86,13.76 54.39,20.87 19.1,7.33 37.8,15.12 57.87,22.81 40.6,15.6 82.42,32.26 126.74,49.32l0 -23.08zm0 -448.54c-24.01,-3.1 -46.54,-5.46 -69.32,-8.48 -23.03,-3.03 -45.46,-5.98 -67.33,-8.87 -5.43,-0.71 -10.02,-0.71 -15.54,-1.44 -114.02,-15.06 -213.56,-26.61 -301.64,-38.34 -7.24,-0.96 -13.83,-1.35 -20.98,-2.31 -13.83,-1.85 -27.39,-3.65 -40.69,-5.43 -6.73,-0.9 -12.8,-1.23 -19.38,-2.12 -49.39,-6.61 -94.91,-11.83 -137.6,-17.57l-51.59 -6.54c-2.48,-0.33 -4.51,-0.2 -6.92,-0.53 -36.09,-4.88 -69.64,-8.67 -101.45,-13l-38.9 -4.93c-1.63,-0.22 -3.79,-0.96 -5.34,-0.71 -3.26,0.53 -6.96,-0.63 -10.34,-1.09 -36.59,-5 -70.48,-8.67 -102.09,-13.02 -1.43,-0.2 -2.63,-0.06 -4.01,-0.25l-20.21 -2.78c-2.62,-0.36 -5.11,-0.41 -7.76,-0.78 -10.24,-1.42 -20.05,-2.48 -29.78,-3.83l0 0.29c9.7,1.35 19.5,3 29.71,4.43 2.63,0.37 5.05,1 7.69,1.38l16.09 2.25c2.8,0.39 5.41,1.06 8.2,1.45 22.82,3.2 46.65,7.19 71.98,10.76l37.82 5.67c1,0.15 1.62,0.59 2.61,0.72 44.24,6.07 92.59,14.46 145.79,21.85 1.27,0.19 2.04,0.7 3.32,0.87 37.41,5.21 77.35,11.93 120.07,18.07 23.31,3.35 47.28,7.26 72.54,10.9 6.42,0.92 12.52,2.28 19.19,3.24l40.86 5.9c7.17,1.04 13.81,2.5 21.17,3.56 60.15,8.71 125.06,19.2 196.62,29.61l104.44 15.82c5.44,0.78 10.14,2.07 15.81,2.91 21.87,3.2 44.3,6.48 67.31,9.84 22.81,3.34 45.54,7.27 69.67,10.85l0 -28.36z"/>
 </g>
</svg>
