<?xml version="1.0" encoding="UTF-8"?>
<!DOCTYPE svg PUBLIC "-//W3C//DTD SVG 1.1//EN" "http://www.w3.org/Graphics/SVG/1.1/DTD/svg11.dtd">
<!-- Creator: CorelDRAW 2021 (64-Bit) -->
<svg xmlns="http://www.w3.org/2000/svg" xml:space="preserve" width="1.61476in" height="1.61181in" version="1.1" style="shape-rendering:geometricPrecision; text-rendering:geometricPrecision; image-rendering:optimizeQuality; fill-rule:evenodd; clip-rule:evenodd"
viewBox="0 0 547.2 546.2"
 xmlns:xlink="http://www.w3.org/1999/xlink"
 xmlns:xodm="http://www.corel.com/coreldraw/odm/2003">
 <defs>
  <style type="text/css">
   <![CDATA[
    .fil0 {fill:#E7E7E7}
   ]]>
  </style>
 </defs>
 <g id="Layer_x0020_1">
  <metadata id="CorelCorpID_0Corel-Layer"/>
  <path class="fil0" d="M547.2 193.72l-13.61 6.37c-0.51,0.23 -1.43,0.31 -1.88,0.91 -0.5,0.66 -6.44,3.06 -7.08,3.34 -2.29,1.03 -4.42,2.19 -6.6,3.17 -4.18,1.88 -8.09,3.82 -11.91,5.54l-7.93 3.73c-0.84,0.37 -1.7,0.57 -2.51,1.12 -0.11,0.08 -0.14,0.24 -0.27,0.3l-4.47 1.99c-1.55,0.69 -3,1.5 -4.48,2.16 -2.87,1.27 -5.57,2.63 -8.23,3.81 -2.54,1.13 -4.99,2.49 -7.37,3.42 -0.14,0.05 -0.26,0.26 -0.41,0.33l-3 1.32c-1.12,0.49 -2.16,1.09 -3.24,1.57 -4.09,1.8 -7.89,3.82 -11.5,5.32 -0.12,0.05 -0.19,0.21 -0.31,0.26 -3.27,1.42 -6.36,3.02 -9.29,4.3 -0.74,0.32 -1.43,0.74 -2.15,1.05 -0.7,0.31 -1.4,0.61 -2.08,0.91 -0.09,0.04 -0.15,0.18 -0.24,0.21 -1.25,0.47 -2.48,1.18 -3.66,1.69 -2.45,1.06 -4.77,2.27 -7,3.22l0 0.1c0.13,-0.06 0.26,-0.01 0.4,-0.07 2.1,-0.9 4.29,-1.64 6.58,-2.62 0.64,-0.27 1.26,-0.43 1.91,-0.71 0.66,-0.28 1.33,-0.56 2,-0.85 0.17,-0.07 0.32,-0.03 0.5,-0.11 4.1,-1.74 8.53,-3.26 13.35,-5.3 0.23,-0.09 0.41,-0.05 0.65,-0.15 3.41,-1.43 7.02,-2.69 10.86,-4.29 1.07,-0.45 2.13,-0.75 3.22,-1.21 1.12,-0.47 2.26,-0.94 3.42,-1.43 0.31,-0.13 0.56,-0.09 0.86,-0.22 7.16,-2.98 15.09,-5.8 23.99,-9.47 0.43,-0.18 0.79,-0.15 1.21,-0.33 10.17,-4.19 21.67,-8.34 34.87,-13.73 0.65,-0.26 1.2,-0.28 1.83,-0.53l13.03 -5.09c0.18,-0.07 0.36,-0.16 0.55,-0.22l0.01 -0 0 -9.83zm-547.2 172.85l13.61 -6.39c0.51,-0.23 1.42,-0.31 1.88,-0.91 0.5,-0.65 6.43,-3.06 7.06,-3.34 2.28,-1.03 4.41,-2.19 6.59,-3.17 4.17,-1.88 8.07,-3.83 11.88,-5.54l7.91 -3.73c0.83,-0.37 1.7,-0.57 2.51,-1.12 0.11,-0.08 0.14,-0.24 0.27,-0.3l4.46 -1.99c1.54,-0.69 2.99,-1.5 4.47,-2.16 2.86,-1.28 5.55,-2.63 8.21,-3.81 2.53,-1.13 4.98,-2.49 7.35,-3.42 0.14,-0.06 0.25,-0.26 0.41,-0.33l2.99 -1.33c1.11,-0.49 2.16,-1.09 3.23,-1.57 4.07,-1.8 7.87,-3.82 11.47,-5.33 0.12,-0.05 0.19,-0.2 0.31,-0.26 3.26,-1.41 6.34,-3.02 9.26,-4.3 0.74,-0.32 1.43,-0.74 2.14,-1.05 0.7,-0.31 1.39,-0.61 2.08,-0.91 0.09,-0.04 0.15,-0.18 0.24,-0.21 1.24,-0.46 2.47,-1.18 3.65,-1.69 2.45,-1.06 4.76,-2.27 6.98,-3.22l0 -0.1c-0.13,0.06 -0.26,0.01 -0.4,0.07 -2.09,0.9 -4.28,1.63 -6.57,2.61 -0.64,0.27 -1.25,0.43 -1.9,0.71 -0.66,0.28 -1.32,0.56 -2,0.85 -0.17,0.07 -0.32,0.03 -0.5,0.1 -4.09,1.74 -8.5,3.26 -13.31,5.3 -0.23,0.1 -0.41,0.05 -0.64,0.15 -3.4,1.43 -7,2.69 -10.83,4.29 -1.07,0.45 -2.12,0.75 -3.22,1.21 -1.12,0.47 -2.26,0.94 -3.41,1.43 -0.3,0.13 -0.56,0.09 -0.86,0.21 -7.14,2.98 -15.05,5.8 -23.92,9.47 -0.43,0.18 -0.79,0.15 -1.21,0.33 -10.14,4.19 -21.61,8.34 -34.77,13.74 -0.64,0.26 -1.2,0.28 -1.82,0.53l-13 5.09c-0.18,0.07 -0.36,0.16 -0.54,0.22l-0.04 0.01 0 9.84zm0 -290.64c0.74,0.65 1.39,1.07 2.12,1.75 0.65,0.6 1.82,2.07 2.39,2.09 0.55,0.02 1.73,1.52 2.34,2.08 0.78,0.73 1.47,1.15 2.27,1.89 1.52,1.41 2.93,2.5 4.42,3.9 0.39,0.36 0.66,0.4 1.05,0.77 2.47,2.3 4.86,4.13 7.21,6.31l2.93 2.53c0.16,0.15 0.32,0.33 0.48,0.47 0.18,0.15 0.25,0.01 0.45,0.21 2.53,2.46 4.91,4.22 7.32,6.47l0 -0.19c-0.14,-0.13 -0.23,-0.42 -0.41,-0.58 -2.23,-2.02 -4.52,-4.64 -6.87,-6.85 -0.35,-0.33 -0.61,-0.78 -0.93,-1.08l-1.96 -1.85c-0.35,-0.33 -0.6,-0.76 -0.96,-1.11 -1.37,-1.29 -2.66,-2.71 -4.05,-4.03 -0.73,-0.69 -1.35,-1.48 -2.08,-2.17 -0.7,-0.66 -1.47,-1.26 -2.12,-2.21 -0.64,-0.93 -1.53,-1.46 -2.2,-2.1 -2.18,-2.07 -4.51,-4.77 -6.84,-6.92l-4.53 -4.73 0 5.33zm0 342.74c8.55,-6.02 16.38,-12.32 23.67,-17.4 0.9,-0.62 1.71,-1.39 2.6,-2.01 0.87,-0.6 1.73,-1.2 2.59,-1.8 0.43,-0.3 0.77,-0.73 1.21,-1.03 0.52,-0.36 3.45,-2.23 3.68,-2.64 0.31,-0.54 2.98,-2.18 3.51,-2.55 0.41,-0.29 0.74,-0.69 1.13,-0.96 0.76,-0.52 1.51,-1.05 2.26,-1.56 0.76,-0.53 1.44,-1.18 2.18,-1.69l0 -0.18c-5.96,4.12 -12.32,7.75 -19.21,12.48 -0.92,0.63 -1.75,1 -2.67,1.63 -0.93,0.64 -1.87,1.28 -2.82,1.93l-5.86 3.81c-0.25,0.18 -0.41,0.06 -0.69,0.26l-4.69 3.21c-0.31,0.22 -0.48,0.1 -0.77,0.3l-6.1 3.93 0 4.26zm0 -151.14c10.93,0.16 20.79,-0.47 29.71,-0.28 2.13,0.04 4.16,-0.11 6.21,-0.06 1.02,0.03 1.95,-0.14 2.95,-0.11 0.97,0.02 1.93,0.04 2.87,0.06 0.94,0.02 1.82,-0.14 2.76,-0.11 0.91,0.02 1.8,0.04 2.69,0.06 0.45,0.01 0.83,-0.15 1.28,-0.14 1.3,0.03 2.57,0.06 3.83,0.1l0 -0.17c-0.22,-0 -0.37,-0.18 -0.6,-0.18l-1.88 -0.05c-0.84,-0.02 -1.76,0.29 -2.58,-0.23 -0.33,-0.22 -2.18,-0.07 -2.69,-0.09 -0.45,-0.02 -0.91,-0.03 -1.37,-0.04 -0.49,-0.01 -0.91,-0.2 -1.39,-0.21 -0.95,-0.03 -1.9,-0.06 -2.87,-0.09 -1,-0.03 -1.95,-0.25 -2.95,-0.27 -1.01,-0.03 -2.04,-0.06 -3.08,-0.09 -1.07,-0.03 -2.06,-0.25 -3.16,-0.29 -1.08,-0.03 -2.17,-0.07 -3.27,-0.1 -1.13,-0.03 -2.21,-0.27 -3.39,-0.31 -7.11,-0.23 -14.78,-1.1 -23.07,-1.41l0 4.02zm0 14.34c0.11,-0.07 0.25,-0.17 0.42,-0.26 0.46,-0.25 3.92,-0.21 4.62,-0.25 0.62,-0.03 1.13,-0.27 1.76,-0.3 4.62,-0.23 8.99,-0.86 13.22,-1.06 0.52,-0.03 0.95,-0.25 1.49,-0.27l3.02 -0.14c0.51,-0.02 0.93,-0.24 1.45,-0.26 3.81,-0.17 7.4,-0.71 10.91,-0.86 0.44,-0.02 0.79,-0.22 1.24,-0.24l2.52 -0.1c0.43,-0.02 0.78,-0.21 1.21,-0.23 1.63,-0.07 3.16,-0.31 4.71,-0.37l0 -0.18c-1.55,0.06 -3.08,-0.05 -4.71,0.01 -0.42,0.02 -0.76,-0.15 -1.18,-0.13l-2.52 0.09c-0.45,0.02 -0.81,-0.15 -1.26,-0.13 -3.52,0.12 -7.1,-0.13 -10.91,-0 -0.5,0.02 -0.9,-0.16 -1.42,-0.15l-3.02 0.1c-0.54,0.02 -0.97,-0.17 -1.52,-0.15 -4.23,0.13 -8.59,-0.15 -13.22,-0.01 -0.62,0.02 -1.1,-0.19 -1.73,-0.17 -0.57,0.02 -4.31,0.29 -4.61,0.04 -0.16,-0.14 -0.27,-0.12 -0.44,-0.12l-0.03 -0 0 5.18zm39.86 -281.87c0.62,0.96 1.23,1.91 1.84,2.88l5.42 8.44c0.23,0.36 0.39,0.44 0.63,0.82l4.46 6.75c-3.37,-5.37 -6.83,-11.23 -10.51,-17.09 -0.37,-0.59 -0.69,-1.2 -1.04,-1.81l-0.8 0zm-39.86 513.92c6.43,-7.43 12.39,-14.52 18.11,-21.11 5.5,-6.35 10.7,-12.34 15.62,-18.01 2.37,-2.74 4.6,-5.49 6.86,-8.09l17.81 -20.53c0.23,-0.26 0.39,-0.61 0.63,-0.88l13.77 -15.86c1.45,-1.67 2.83,-3.4 4.21,-4.99 2.67,-3.07 5.24,-6.03 7.71,-8.87 2.39,-2.74 4.65,-5.47 6.86,-8.01l0 -0.12c-20.18,23.16 -48.56,55.03 -91.58,104.23l0 2.23zm15.06 -513.92c1.27,1.71 2.47,3.23 3.72,4.97 5.66,7.85 10.93,14.78 15.98,21.79 0.63,0.87 1.16,1.42 1.77,2.27 1.2,1.66 2.38,3.3 3.54,4.92 0.6,0.83 1.12,1.38 1.69,2.17 1.12,1.56 2.22,3.09 3.31,4.6 1.09,1.51 2.11,2.76 3.18,4.26 4.07,5.66 7.89,10.67 11.59,15.82l0 -0.16c-0.22,-0.3 -0.4,-0.72 -0.64,-1.06 -5.4,-7.54 -11.18,-16.13 -17.41,-24.86l-6.11 -8.74c-0.15,-0.21 -0.3,-0.42 -0.46,-0.63 -0.17,-0.24 -0.24,-0.54 -0.43,-0.8 -4.99,-6.81 -10.35,-14.91 -15.97,-22.8 -0.41,-0.58 -0.82,-1.17 -1.22,-1.76l-2.53 0zm9.86 546.18c4,-6.04 7.81,-11.88 11.49,-17.34l6.41 -9.67c0.32,-0.47 0.54,-0.98 0.86,-1.45 1.16,-1.72 2.31,-3.42 3.45,-5.1 1.12,-1.65 2.18,-3.39 3.28,-5.02 2.14,-3.16 4.16,-6.31 6.19,-9.31l5.05 -7.62c0.25,-0.37 0.43,-0.79 0.68,-1.16l0 -0.16c-3.79,5.59 -7.72,11.05 -11.91,17.22l-5.83 8.41c-0.31,0.46 -0.54,0.61 -0.85,1.07 -1.18,1.74 -2.38,3.49 -3.59,5.28 -1.24,1.81 -2.44,3.4 -3.72,5.29 -2.6,3.81 -5.19,7.44 -7.96,11.5l-5.59 8.06 2.06 0zm33.75 -546.18l2.12 3.79c1.12,1.99 2.16,3.7 3.25,5.65 2.12,3.79 4.13,7.23 6.13,10.81l0 -0.15c-1.99,-3.56 -4,-7.3 -6.12,-11.09 -1.09,-1.94 -2.13,-3.97 -3.25,-5.98l-1.69 -3.03 -0.45 0zm-53.92 0l2.86 3.69c0.87,1.14 1.63,1.93 2.5,3.08 3.27,4.31 6.34,8.15 9.41,12.2 0.75,0.99 1.42,1.68 2.18,2.68 4.63,6.12 9.04,11.56 13.24,17.11 0.35,0.45 0.63,0.63 0.94,1.06 3.68,4.93 7.17,9.14 10.54,13.61 1.12,1.48 2.17,2.7 3.24,4.13 2.11,2.8 4.11,5.28 6.12,7.95 0.26,0.35 0.45,0.43 0.71,0.78l4.96 6.27 -4.92 -6.71c-0.25,-0.34 -0.46,-0.78 -0.73,-1.14 -2.01,-2.68 -4,-5.5 -6.12,-8.32 -2.66,-3.56 -5.47,-7.65 -8.34,-11.49 -0.62,-0.83 -1.17,-1.74 -1.78,-2.55 -1.21,-1.62 -2.45,-3.16 -3.7,-4.94 -0.16,-0.23 -0.24,-0.52 -0.43,-0.76l-3.37 -4.52c-0.68,-0.91 -1.28,-1.9 -1.95,-2.8l-8.37 -11.41c-0.77,-1.04 -1.44,-2.13 -2.21,-3.17 -3.07,-4.12 -6.13,-8.44 -9.41,-12.83 -0.47,-0.63 -0.9,-1.28 -1.34,-1.92l-4.06 0zm-4.75 528.95c0.09,-0.13 0.18,-0.27 0.28,-0.39l0.81 -1.22c0.54,-0.83 1.17,-1.43 1.72,-2.1l6.53 -8c1.09,-1.33 2.08,-2.76 3.11,-4.02 2.02,-2.47 4.01,-4.9 5.95,-7.28 1.93,-2.36 3.73,-4.77 5.6,-7.05 7,-8.56 13.45,-16.81 19.5,-24.19 0.74,-0.91 1.4,-1.88 2.13,-2.77l5.16 -6.29c0.36,-0.43 0.63,-0.94 0.98,-1.36 1.3,-1.58 2.58,-3.15 3.85,-4.68 1.26,-1.54 2.44,-3.13 3.66,-4.62 4.64,-5.64 8.97,-11.21 13.08,-16.21l-5.8 6.74c-0.16,0.2 -0.25,0.14 -0.4,0.33 -2.21,2.78 -4.48,5.28 -6.82,8.11 -4.93,5.97 -10.15,11.94 -15.78,18.74l-7.97 9.45c-0.33,0.39 -0.91,1.33 -1.21,1.38 -0.33,0.05 -4.5,5.32 -4.97,5.88 -1.76,2.12 -3.47,3.99 -5.28,6.17 -7.43,8.95 -15.39,18.14 -24.12,28.63l0 4.74zm0 -82.77c14,-11.67 26.24,-22.43 37.06,-31.41 1.71,-1.42 3.32,-2.93 4.98,-4.31 1.61,-1.34 3.2,-2.65 4.75,-3.93 0.77,-0.64 1.46,-1.39 2.23,-2.02 0.54,-0.45 6.21,-4.94 6.43,-5.39 0.27,-0.55 5.43,-4.58 5.94,-5 0.65,-0.54 1.24,-1.18 1.87,-1.7 1.23,-1.01 2.43,-2.01 3.62,-2.99 1.18,-0.97 2.29,-2.04 3.43,-2.98 2.22,-1.83 4.35,-3.73 6.42,-5.44l0 -0.14c-6.41,5.27 -13.45,10.58 -21.25,16.97 -1.4,1.14 -2.75,2.09 -4.2,3.27 -1.47,1.2 -2.96,2.42 -4.49,3.67 -0.78,0.64 -1.49,1.05 -2.29,1.7l-6.12 5c-0.39,0.32 -0.91,0.95 -1.28,1.04 -0.79,0.19 -1.72,1.22 -2.57,1.92 -1.79,1.46 -3.63,2.96 -5.5,4.48 -0.98,0.8 -1.87,1.33 -2.85,2.13 -1.96,1.6 -3.96,3.23 -6.01,4.89 -2.12,1.73 -4.18,3.2 -6.38,4.98 -2.23,1.82 -4.52,3.68 -6.86,5.58 -2.27,1.85 -4.54,3.49 -6.93,5.42l0 4.25zm46.47 -446.17l0.07 0.12c0.55,0.92 1.03,1.52 1.57,2.41 4.07,6.72 7.89,12.55 11.57,18.65l0 -0.16c-2.25,-3.73 -4.6,-7.95 -7,-11.94 -0.5,-0.83 -0.96,-1.75 -1.48,-2.62l-2.28 -3.79c-0.27,-0.45 -0.47,-0.96 -0.76,-1.43l-0.74 -1.23 -0.95 0zm6.28 0c0.32,0.55 0.65,1.1 0.98,1.66 1.47,2.53 2.92,5.02 4.34,7.46 1.39,2.39 2.73,4.53 4.09,6.87 1.33,2.28 2.63,4.52 3.91,6.72 0.62,1.08 1.22,1.94 1.84,3.02 0.43,0.74 5.17,9.06 5.34,9.14 0.25,0.13 4.5,7.64 4.95,8.41 0.54,0.93 1.04,1.66 1.56,2.55l0 -0.14c-1.04,-1.8 -2.11,-3.63 -3.18,-5.48 -1.11,-1.91 -2.2,-3.93 -3.32,-5.87 -1.15,-1.98 -2.32,-4 -3.51,-6.06 -1.22,-2.11 -2.41,-4.31 -3.68,-6.49 -3.93,-6.78 -8.09,-14.06 -12.51,-21.79l-0.82 0zm5.3 546.18c6.46,-11.85 12.38,-22.78 17.85,-32.63l0 -0.14c-0.26,0.47 -0.48,0.72 -0.75,1.21l-3.98 7.15c-0.56,1.02 -1.07,1.78 -1.64,2.8 -1.13,2.03 -2.27,4.09 -3.43,6.18 -1.19,2.14 -2.35,4.07 -3.59,6.29 -1.67,3.01 -3.38,6.05 -5.13,9.14l0.67 0zm-58.04 -2.98l9.16 -12.05c0.47,-0.61 0.83,-1.28 1.27,-1.86 3.45,-4.44 6.68,-8.83 9.89,-12.97 3.02,-3.9 6.06,-8.21 8.9,-11.87 2.83,-3.64 5.49,-7.27 8.16,-10.69 0.33,-0.42 0.59,-0.95 0.94,-1.4 4.06,-5.22 7.93,-10.55 11.63,-15.29 0.58,-0.75 1.1,-1.58 1.66,-2.29 2.17,-2.79 4.22,-5.59 6.28,-8.22 0.52,-0.67 0.98,-1.41 1.48,-2.06l4.33 -5.85c-3.83,4.89 -7.84,9.53 -12.09,14.94l-5.06 6.28c-0.6,0.77 -1.13,1.26 -1.74,2.04 -2.44,3.11 -4.87,6.02 -7.46,9.31 -0.67,0.85 -1.26,1.42 -1.94,2.29l-8.32 10.38c-0.74,0.95 -1.41,1.6 -2.18,2.57l-4.02 5.1c-0.24,0.31 -0.34,0.22 -0.57,0.51 -4.82,6.24 -9.84,12.06 -15.16,18.79 -1.73,2.19 -3.41,4.13 -5.16,6.31l0 6.03zm0 -523.15c22.42,26.71 40.45,47.67 55.38,65.51 0.86,1.03 1.65,1.81 2.49,2.82 2.44,2.92 4.81,5.75 7.1,8.49 1.48,1.78 2.91,3.33 4.35,5.05 1.4,1.68 2.78,3.33 4.13,4.95 1.33,1.59 2.58,2.95 3.86,4.48 1.25,1.5 2.48,2.97 3.68,4.41 1.19,1.43 2.33,2.65 3.47,4.02 1.12,1.34 2.22,2.66 3.3,3.96l0 -0.13c-9.18,-11.02 -19.87,-24.47 -32.42,-39.58 -9.04,-10.89 -19.19,-23.49 -30.69,-37.36 -2.51,-3.02 -4.99,-6.23 -7.64,-9.43l-12.75 -15.41c-0.41,-0.5 -0.69,-1.05 -1.09,-1.53l-2.91 -3.52c-0.08,-0.09 -0.17,-0.27 -0.26,-0.38l0 3.64zm0 372.24c4.46,-2.59 8.79,-5.5 12.92,-7.87 0.86,-0.5 1.61,-1.14 2.47,-1.62l4.19 -2.4c0.23,-0.12 0.33,-0.41 0.57,-0.54 6.01,-3.24 11.66,-7.24 16.96,-10.25 5.01,-2.85 9.7,-6.05 14.18,-8.58 0.56,-0.31 1.05,-0.76 1.59,-1.06l6.14 -3.64c0.5,-0.28 0.95,-0.69 1.46,-0.98l2.14 -1.21c0.26,-0.14 0.44,-0.41 0.69,-0.54l0 -0.15c-1.9,1.06 -3.78,1.96 -5.77,3.07 -0.52,0.29 -0.98,0.38 -1.49,0.67l-6.39 3.4c-0.57,0.32 -1.09,0.43 -1.68,0.76l-2.59 1.44c-0.32,0.18 -0.55,0.13 -0.87,0.3 -2.43,1.35 -4.84,2.51 -7.41,3.93 -0.67,0.37 -1.25,0.51 -1.92,0.88 -4.38,2.42 -8.98,4.57 -13.83,7.25 -0.42,0.23 -0.72,0.19 -1.14,0.42 -3.19,1.76 -6.39,3.3 -9.8,5.18 -0.89,0.49 -1.66,0.7 -2.56,1.19l-7.86 4.09 0 6.25zm0 -137.5c3.86,0.27 7.7,0.16 11.27,0.44 3.65,0.29 7.07,0.35 10.47,0.63 0.82,0.07 1.58,-0.07 2.41,-0l9.16 0.55c0.74,0.06 1.41,-0.07 2.15,-0.01l3.66 0.3c0.2,0.02 0.33,-0.15 0.49,-0.15 1.34,-0.01 2.66,0.23 3.96,0.34 0.66,0.05 1.23,-0.07 1.89,-0.02l7.25 0.45c0.6,0.05 1.12,-0.07 1.71,-0.02 2.24,0.2 4.36,0.22 6.48,0.41 0.53,0.05 1,-0.07 1.52,-0.02l4.45 0.09c-1.94,-0.18 -3.9,-0.58 -5.96,-0.7 -0.14,-0.01 -0.2,-0.19 -0.35,-0.19l-2.82 -0.27c-0.56,-0.05 -1.06,-0.26 -1.62,-0.31l-6.93 -0.83c-0.63,-0.06 -1.21,-0.29 -1.83,-0.35 -2.53,-0.25 -5.07,-0.67 -7.76,-0.93 -2.71,-0.27 -5.61,-0.93 -8.51,-1.22 -3.06,-0.31 -6.15,-0.81 -9.43,-1.14 -0.44,-0.05 -0.76,-0.28 -1.2,-0.32 -6.06,-0.62 -12.51,-1.71 -19.4,-2.43 -0.25,-0.03 -0.53,0.01 -0.77,-0.08 -0.06,-0.02 -0.17,-0.17 -0.28,-0.26l0 6.05zm0 -28.17c5.14,1.07 9.95,1.88 14.64,2.88 2.32,0.49 4.49,0.74 6.7,1.21 2.15,0.46 4.26,0.91 6.32,1.35 0.52,0.11 0.96,0.01 1.46,0.11l7.21 1.54c0.94,0.2 1.79,0.2 2.7,0.4 1.76,0.38 3.49,0.75 5.18,1.11 1.68,0.36 3.26,0.53 4.88,0.88 6.08,1.31 11.68,2.2 16.93,3.35l6.34 1.24c0.28,0.06 0.6,0.25 0.85,0.06 0.15,-0.12 3.11,0.67 3.34,0.72 1.09,0.24 2.13,0.33 3.18,0.56l0 -0.14c-4.29,-0.95 -8.83,-2.26 -13.72,-3.36 -1.29,-0.29 -2.54,-0.73 -3.88,-1.03 -1.34,-0.31 -2.71,-0.61 -4.11,-0.93 -0.71,-0.16 -1.38,-0.47 -2.11,-0.64l-4.49 -1.02c-0.79,-0.18 -1.53,-0.52 -2.32,-0.7 -13.63,-3.1 -29.69,-7.56 -49.11,-12.07l0 4.47zm0 -12.74c7.26,1.95 13.96,3.16 20.3,4.9 0.8,0.22 1.48,0.21 2.26,0.42l6.58 1.62c4.1,1.14 8.11,1.69 11.85,2.74 0.61,0.17 1.22,0.34 1.82,0.51 0.63,0.18 1.17,0.15 1.78,0.32l2.62 0.73c0.31,0.09 0.53,-0.02 0.84,0.07 1,0.28 2.37,0.89 3.34,0.77 0.51,-0.06 1.1,0.31 1.6,0.45 0.54,0.15 1.07,0.29 1.6,0.45 0.15,0.05 0.23,-0.1 0.36,-0.07l2.71 0.78c0.5,0.14 0.96,0.11 1.46,0.26 0.49,0.14 0.99,0.28 1.47,0.42 0.5,0.14 0.94,0.11 1.43,0.25 0.48,0.14 0.95,0.27 1.42,0.41l0 -0.16c-3.3,-0.95 -6.8,-2.44 -10.43,-3.49 -0.54,-0.16 -1.04,-0.48 -1.6,-0.64 -4.48,-1.31 -9.18,-3.29 -14.21,-4.69 -0.31,-0.09 -0.59,-0.36 -0.93,-0.46 -0.99,-0.29 -2,-0.59 -3.01,-0.89 -0.69,-0.2 -1.32,-0.58 -2.04,-0.79 -0.7,-0.21 -1.4,-0.41 -2.11,-0.62 -0.73,-0.22 -1.37,-0.6 -2.1,-0.82 -5.97,-1.78 -12.38,-4.31 -19.2,-6.37 -0.9,-0.27 -1.73,-0.73 -2.67,-1.02 -0.92,-0.28 -1.84,-0.56 -2.78,-0.84 -0.45,-0.13 -0.97,-0.15 -1.42,-0.43 -0.22,-0.13 -0.38,-0.34 -0.66,-0.42 -0.11,-0.03 -0.21,-0.1 -0.3,-0.15l0 6.76zm0 123.64c7.24,-2.31 13.93,-5.05 20.26,-7.01 0.39,-0.12 0.7,-0.42 1.11,-0.55l3.42 -1.07c0.75,-0.23 1.41,-0.63 2.15,-0.87 0.73,-0.23 1.45,-0.45 2.16,-0.67 0.72,-0.22 1.36,-0.62 2.06,-0.83 5.35,-1.65 10.4,-3.76 15.15,-5.22 0.6,-0.18 1.12,-0.52 1.71,-0.7 0.57,-0.17 1.14,-0.35 1.7,-0.52 0.58,-0.17 1.09,-0.5 1.64,-0.67 4.25,-1.3 8.24,-2.99 12.06,-4.14l0 -0.15c-0.48,0.14 -0.9,0.11 -1.38,0.25 -3.38,1.01 -6.94,1.58 -10.64,2.68l-5.04 1.32c-0.6,0.18 -1.13,0.16 -1.75,0.34 -0.59,0.17 -1.18,0.35 -1.78,0.52 -0.63,0.19 -1.21,0.18 -1.82,0.35l-3.32 0.97c-0.2,0.07 -0.28,-0.11 -0.47,-0.05 -2.64,0.88 -5.28,1.35 -8.08,2.17 -0.38,0.11 -0.65,-0 -1.02,0.1l-3.3 0.96c-0.77,0.22 -1.45,0.22 -2.24,0.45 -3.87,1.12 -7.91,1.86 -12.11,3.07 -3.35,0.96 -6.89,1.56 -10.47,2.56l0 6.7zm0 -330.43l12.54 15.51c0.46,0.58 1.28,1.9 1.7,2.07 0.48,0.2 5.91,7.28 6.52,8.03 2.12,2.66 4.1,4.94 6.12,7.49 7.59,9.54 14.52,17.88 20.98,26.02 0.77,0.97 1.5,1.71 2.27,2.68 1.49,1.88 2.96,3.72 4.39,5.53 0.72,0.91 1.39,1.58 2.11,2.49 5.36,6.76 10.33,12.72 15.01,18.63l5.67 7.02c0.27,0.35 0.5,0.49 0.78,0.84l0 -0.14c-4.25,-5.38 -8.73,-11.36 -13.56,-17.49l-6.84 -8.83c-0.33,-0.43 -0.72,-0.77 -1.05,-1.34l-4.25 -5.56c-1.5,-1.91 -2.96,-3.94 -4.52,-5.91 -6.45,-8.2 -13.37,-17.37 -20.95,-27.03 -0.99,-1.26 -1.94,-2.67 -2.98,-3.99l-6.32 -8.06c-1.12,-1.43 -2.16,-2.96 -3.32,-4.44 -4.58,-5.84 -9.28,-12.06 -14.28,-18.44l0 4.91zm0 481.58c7.46,-7.74 14.32,-15.44 20.81,-22.13 0.81,-0.84 1.53,-1.78 2.34,-2.61 0.78,-0.8 1.55,-1.6 2.31,-2.38 0.78,-0.81 1.46,-1.7 2.23,-2.49 3.63,-3.73 7.11,-7.68 10.46,-11.13 5.07,-5.21 9.93,-10.89 14.44,-15.5 0.55,-0.56 1.1,-1.13 1.65,-1.68 0.55,-0.56 1.04,-1.22 1.59,-1.79 0.53,-0.54 1.06,-1.08 1.58,-1.62 0.54,-0.55 1.01,-1.19 1.53,-1.72l2.27 -2.31c0.25,-0.25 0.45,-0.62 0.72,-0.89l2.18 -2.22c0.26,-0.27 0.47,-0.63 0.71,-0.88l0 -0.16c-3.88,3.95 -7.92,7.57 -12.24,11.95 -0.3,0.3 -0.53,0.37 -0.82,0.66l-2.56 2.59c-0.59,0.6 -1.12,0.97 -1.73,1.58 -0.59,0.6 -1.19,1.2 -1.79,1.81 -0.63,0.64 -1.18,1.02 -1.81,1.65 -4.41,4.47 -9.1,8.64 -14.01,13.59 -5.19,5.24 -10.74,10.21 -16.58,16.08 -0.88,0.89 -1.68,1.48 -2.6,2.4 -0.89,0.9 -1.79,1.8 -2.7,2.71 -0.95,0.95 -1.78,1.57 -2.74,2.53l-5.22 5 0 6.94zm7.88 57.53l1.2 -1.66c1.04,-1.42 1.99,-2.92 2.98,-4.27 3.91,-5.3 7.57,-10.47 11.19,-15.38 0.88,-1.19 1.67,-2.47 2.55,-3.66 4.99,-6.76 9.73,-13.55 14.21,-19.62 0.75,-1.01 1.41,-2.09 2.14,-3.08 2.81,-3.8 5.46,-7.56 8.1,-11.12 0.34,-0.47 0.61,-0.99 0.94,-1.44 4.03,-5.44 7.85,-10.92 11.5,-15.83 0.55,-0.75 1.06,-1.58 1.61,-2.33 2.13,-2.87 4.15,-5.74 6.17,-8.45l0 -0.15c-0.14,0.19 -0.22,0.14 -0.35,0.31l-2.64 3.55c-0.53,0.72 -1.01,1.2 -1.54,1.92 -7.13,9.57 -15.03,19.32 -23.76,30.99 -3.6,4.81 -7.4,9.51 -11.34,14.78 -0.84,1.12 -1.59,1.93 -2.44,3.07l-4.47 5.97c-0.26,0.35 -0.4,0.33 -0.64,0.65 -3.62,4.96 -7.29,9.51 -11.19,14.71 -1.02,1.36 -1.96,2.39 -2.98,3.75l-5.57 7.28 4.33 0zm44.5 0l0.07 -0.12c16.59,-28.87 30.01,-52.5 41.11,-71.81 1.43,-2.49 2.81,-5 4.18,-7.39l10.95 -19.24c-4.6,7.98 -9.6,16.54 -15.13,26.13 -0.74,1.28 -1.45,2.39 -2.2,3.69 -10.83,18.77 -23.85,41.11 -39.84,68.73l0.86 0zm-52.38 -401.61c5.18,3.09 10.08,5.67 14.81,8.69 0.29,0.18 0.51,0.1 0.84,0.29l5.92 3.56c2.19,1.32 4.24,2.35 6.33,3.62 4.01,2.42 7.76,4.5 11.44,6.73 0.91,0.55 1.74,0.87 2.61,1.4l5.08 3.08c0.83,0.5 1.58,0.79 2.4,1.28 3.13,1.9 6.08,3.52 8.97,5.28l7.07 4.14c0.28,0.17 0.71,0.65 0.97,0.57 0.31,-0.1 3.32,1.9 3.7,2.13 1.2,0.74 2.34,1.28 3.51,1.99 2.27,1.38 4.42,2.56 6.55,3.86l0 -0.14c-0.53,-0.33 -1.02,-0.77 -1.56,-1.09l-3.29 -2.02c-0.57,-0.35 -1.1,-0.82 -1.69,-1.18 -2.35,-1.44 -4.73,-3.06 -7.24,-4.61l-7.76 -4.93c-0.12,-0.08 -0.15,-0.26 -0.26,-0.34 -1.42,-1.02 -2.89,-1.78 -4.37,-2.7 -1.52,-0.94 -3.03,-2.04 -4.62,-3.03 -3.26,-2.01 -6.58,-4.25 -10.12,-6.45 -0.91,-0.57 -1.75,-1.27 -2.69,-1.85 -6.74,-4.19 -14,-9.1 -21.89,-14.03 -4.48,-2.8 -9.18,-6.05 -14.11,-9.02 -0.21,-0.13 -0.43,-0.46 -0.6,-0.62l0 5.39zm0 315.32c0.18,-0.18 0.44,-0.47 0.81,-0.8 0.45,-0.4 0.9,-0.81 1.34,-1.2 0.46,-0.41 0.81,-0.95 1.29,-1.38l16.05 -14.38c1.53,-1.37 2.94,-2.84 4.41,-4.15l12.18 -10.9c1.28,-1.14 2.45,-2.38 3.69,-3.48 3.56,-3.18 6.97,-6.23 10.25,-9.16 1.08,-0.96 2.07,-2.02 3.13,-2.96 3.03,-2.71 5.94,-5.31 8.75,-7.81 0.91,-0.82 1.77,-1.74 2.67,-2.54 2.61,-2.33 5.13,-4.57 7.56,-6.74 0.79,-0.71 1.54,-1.53 2.33,-2.23 2.27,-2.02 4.47,-3.98 6.59,-5.87 0.69,-0.61 1.36,-1.34 2.04,-1.95l5.8 -5.16c0.32,-0.28 0.59,-0.66 0.9,-0.93l6.04 -5.49c-0.28,0.24 -0.52,0.34 -0.8,0.59l-6.13 5.43c-0.31,0.28 -0.59,0.4 -0.92,0.68l-6.92 6.13c-0.19,0.17 -0.32,0.15 -0.5,0.31l-8.42 7.44c-0.2,0.18 -0.36,0.17 -0.58,0.36l-4.35 3.85c-1.72,1.52 -3.5,3.29 -5.31,4.7 -0.12,0.09 -0.17,-0.02 -0.31,0.11 -3.17,2.93 -6.51,5.75 -9.97,8.8 -0.42,0.37 -1.2,1.39 -1.58,1.29 -0.21,-0.05 -11.82,10.29 -13.47,11.8 -0.19,0.18 -0.28,0.05 -0.45,0.2l-15.47 13.62c-0.41,0.36 -0.73,0.43 -1.12,0.78l-18.71 16.45c-0.36,0.31 -0.56,0.3 -0.81,0.47l0 4.11zm0 -26.46c4.52,-3.5 8.75,-6.96 12.9,-10.16 1.06,-0.82 2,-1.75 3.04,-2.55 5.86,-4.51 11.37,-9.14 16.57,-13.13 0.87,-0.67 1.64,-1.44 2.49,-2.11 3.24,-2.48 6.3,-5.03 9.32,-7.32 0.21,-0.16 0.33,-0.43 0.51,-0.57l3.77 -2.88c0.71,-0.54 1.34,-1.2 2.05,-1.73 8.38,-6.39 15.94,-12.93 22.76,-18.11l0 -0.14c-0.51,0.39 -0.98,0.59 -1.5,0.99 -3.13,2.37 -6.41,4.54 -9.84,7.13 -0.61,0.46 -1.16,0.71 -1.78,1.18 -4.98,3.75 -10.26,7.21 -15.96,11.48 -3.74,2.8 -7.68,5.39 -11.79,8.46 -0.86,0.65 -1.65,1.04 -2.54,1.71 -1.32,0.98 -2.65,1.98 -4.01,2.99 -0.49,0.36 -0.88,0.46 -1.35,0.82 -3.79,2.82 -7.63,5.48 -11.74,8.54 -1.07,0.79 -2.04,1.31 -3.14,2.12l-9.77 7.05 0 6.25zm0 -275.15c0.22,0.18 0.5,0.2 0.7,0.31l3.35 1.57c3.63,1.95 7.13,3.83 10.51,5.64 0.69,0.37 1.28,0.48 1.97,0.85 2.57,1.38 5.08,2.73 7.53,4.05 2.38,1.28 4.65,2.31 6.93,3.53 4.37,2.36 8.47,4.39 12.45,6.54l9.56 5c0.46,0.24 0.83,0.28 1.28,0.52 6.5,3.52 12.44,6.44 17.96,9.44 2.43,1.32 4.79,2.41 7.06,3.7 0.16,0.09 0.27,0.01 0.44,0.1 1.18,0.64 2.33,1.27 3.46,1.89 1.12,0.62 2.19,1.07 3.28,1.66l0 -0.13c-2.17,-1.19 -4.38,-2.54 -6.72,-3.82l-7.26 -4.13c-0.11,-0.05 -0.14,-0.22 -0.23,-0.29 -1.33,-0.88 -2.71,-1.49 -4.09,-2.25 -1.43,-0.79 -2.83,-1.72 -4.32,-2.54 -3.06,-1.69 -6.18,-3.58 -9.51,-5.42l-9.37 -5.36c-0.44,-0.24 -1.03,-0.33 -1.46,-0.82 -0.9,-1.05 -1.94,-1.25 -2.91,-1.79 -11.68,-6.49 -25.06,-14.54 -40.61,-23.24l0 4.99zm0 -39.56c0.11,0.07 0.22,0.08 0.29,0.13 0.26,0.18 0.47,0.33 0.67,0.32 0.28,-0.02 3.7,2.62 4.15,2.94 0.48,0.35 0.82,0.38 1.29,0.72 1.01,0.74 3.28,2.72 3.98,2.88 0.94,0.21 3.19,2.13 4.34,2.96 0.22,0.16 0.35,0.03 0.6,0.22l4.76 3.26c6,4.38 11.59,7.69 16.89,11.58 0.66,0.49 1.24,0.72 1.88,1.2 0.63,0.46 1.25,0.92 1.87,1.37 0.61,0.45 1.18,0.69 1.8,1.15 0.61,0.45 1.21,0.88 1.81,1.34 0.17,0.13 0.23,-0.01 0.41,0.12l2.59 1.91c0.18,0.13 0.27,0.03 0.42,0.13l2.52 1.86c0.28,0.21 0.51,0.21 0.81,0.43 0.54,0.4 1.08,0.8 1.61,1.19 0.55,0.4 1.02,0.58 1.56,0.98 3.07,2.27 6.02,3.97 8.86,6.08l0 -0.15c-0.48,-0.36 -0.91,-0.84 -1.39,-1.19 -0.47,-0.35 -0.95,-0.71 -1.43,-1.07 -0.49,-0.36 -0.93,-0.86 -1.44,-1.23 -0.49,-0.37 -0.99,-0.74 -1.49,-1.11 -0.25,-0.19 -0.45,-0.5 -0.72,-0.7 -0.49,-0.37 -2.02,-1.26 -2.31,-1.82 -0.17,-0.33 -2.04,-1.6 -2.38,-1.85 -0.29,-0.22 -0.51,-0.55 -0.8,-0.77 -0.55,-0.41 -1.09,-0.82 -1.65,-1.23 -0.58,-0.43 -1.08,-0.98 -1.66,-1.41 -4.63,-3.48 -9.55,-7.9 -14.75,-11.82 -0.7,-0.52 -1.3,-1.17 -2.01,-1.71 -0.69,-0.52 -1.39,-1.05 -2.09,-1.58 -0.38,-0.28 -0.65,-0.69 -1.02,-0.96 -1.02,-0.77 -2.28,-1.53 -3.28,-2.47l-3.93 -3.18c-0.23,-0.16 -0.33,-0.46 -0.57,-0.64 -2.35,-1.71 -4.73,-3.79 -7.19,-5.67 -0.87,-0.66 -1.64,-1.46 -2.53,-2.14 -3.4,-2.58 -6.86,-5.64 -10.49,-8.42l0 8.35zm63.34 427.47l0.97 -1.82c0.58,-1.08 1.11,-2.23 1.69,-3.31 0.57,-1.06 1.13,-2.11 1.69,-3.15 0.56,-1.05 1.07,-2.15 1.61,-3.16l4.69 -9.05c-2.55,4.75 -5.2,9.4 -7.95,14.52 -0.59,1.09 -1.12,1.93 -1.71,3.02l-1.58 2.95 0.59 0zm-16.86 0c7.71,-12.94 14.69,-24.96 21.11,-35.72 0.77,-1.29 1.49,-2.66 2.26,-3.94 1.48,-2.48 2.93,-4.9 4.34,-7.28 0.7,-1.18 1.36,-2.42 2.06,-3.59 5.23,-8.76 10.03,-17.06 14.52,-24.57l0 -0.13c-0.55,0.93 -1.08,1.67 -1.63,2.6l-4.31 7.2c-0.3,0.5 -0.58,0.83 -0.89,1.36 -1.22,2.04 -2.47,4.12 -3.74,6.23 -1.3,2.16 -2.59,4.18 -3.95,6.45 -2.79,4.65 -5.64,9.26 -8.68,14.32l-9.53 15.72c-0.13,0.22 -0.18,0.13 -0.33,0.37 -3.62,6.18 -7.39,12.13 -11.34,18.7l-1.36 2.26 1.47 0zm-46.47 -44.53c0.03,-0.05 0.07,-0.1 0.1,-0.13l1.93 -2.33c12.32,-13.48 23.25,-25.84 33.02,-36.52 2.45,-2.68 4.78,-5.4 7.08,-7.91 2.25,-2.46 4.44,-4.85 6.58,-7.18 0.54,-0.58 0.99,-1.25 1.53,-1.83 11.04,-12.04 20.64,-22.96 29.1,-32.15 0.18,-0.2 0.31,-0.48 0.5,-0.68l3.5 -3.81c1.3,-1.41 2.53,-2.88 3.78,-4.23 2.41,-2.62 4.69,-5.22 6.93,-7.65l-5.99 6.23c-0.24,0.26 -0.69,0.99 -0.91,0.9 -0.15,-0.06 -1.57,1.64 -1.85,1.95 -4.56,4.93 -9.47,9.94 -14.76,15.66l-8.76 9.29c-0.22,0.24 -0.44,0.48 -0.66,0.72 -0.25,0.26 -0.42,0.29 -0.67,0.56 -7.61,8.19 -15.96,16.83 -25.31,26.87l-13.97 14.81c-0.75,0.81 -1.4,1.3 -2.17,2.12 -2.99,3.2 -6.07,6.51 -9.25,9.92 -3.16,3.39 -6.36,6.62 -9.74,10.22l0 5.17zm0 -123.67c6.42,-3.27 12.38,-6.5 18.06,-9.39 5.47,-2.77 10.6,-5.76 15.52,-8.06 0.18,-0.09 0.25,-0.31 0.41,-0.4 2.13,-1.26 4.38,-2.2 6.41,-3.23 2.19,-1.11 4.25,-2.32 6.34,-3.38 3.99,-2.01 7.74,-4.07 11.37,-5.9 0.89,-0.45 1.7,-1.02 2.57,-1.45 5.74,-2.89 11.05,-5.84 15.99,-8.31l6.78 -3.52c0.32,-0.16 0.58,-0.43 0.9,-0.58 2.39,-1.19 4.65,-2.44 6.86,-3.54l0 -0.13c-2.2,1.09 -4.46,2.08 -6.84,3.26 -0.3,0.15 -0.58,0.15 -0.9,0.31 -4.77,2.35 -9.9,4.59 -15.45,7.33 -0.79,0.39 -1.54,0.6 -2.34,1l-4.95 2.43c-0.87,0.43 -1.69,0.67 -2.59,1.11 -3.63,1.78 -7.36,3.43 -11.35,5.38 -3.9,1.91 -7.99,3.65 -12.3,5.82 -0.3,0.15 -0.55,0.08 -0.88,0.24 -9.98,4.85 -21.04,9.81 -33.61,15.89l0 5.14zm0 -28.17l12.79 -4.79c4.07,-1.52 7.87,-3.15 11.63,-4.55 3.58,-1.34 7.02,-2.62 10.34,-3.86 3.22,-1.2 6.25,-2.51 9.25,-3.63 2.87,-1.07 5.64,-2.1 8.33,-3.1 2.61,-0.97 5.08,-2.06 7.53,-2.96 2.35,-0.87 4.63,-1.72 6.85,-2.54 2.15,-0.8 4.21,-1.71 6.25,-2.47 1.97,-0.73 3.87,-1.43 5.73,-2.12 1.81,-0.67 3.55,-1.45 5.27,-2.09 9.38,-3.46 17.46,-6.8 24.5,-9.37l0 -0.11c-9.6,3.5 -21.2,7.22 -35.48,12.37 -17.97,6.48 -41.34,14.16 -72.98,25.44l0 3.8zm0 -25.27c1.06,-0.31 2.02,-0.73 3.08,-1 1.14,-0.29 2.27,-0.58 3.38,-0.86 0.58,-0.15 1.05,-0.48 1.59,-0.62l4.85 -1.22c0.29,-0.07 0.45,-0.33 0.72,-0.39 1.15,-0.25 4.66,-0.91 5.27,-1.49l4.31 -1.11c0.5,-0.12 0.9,-0.43 1.38,-0.54 0.92,-0.23 1.82,-0.46 2.72,-0.68 0.91,-0.23 1.74,-0.63 2.61,-0.85 0.86,-0.21 1.72,-0.43 2.57,-0.64 0.87,-0.22 1.64,-0.6 2.5,-0.81 6.31,-1.56 12.19,-3.71 17.66,-5.04 0.68,-0.16 1.29,-0.48 1.95,-0.64 0.65,-0.15 1.28,-0.31 1.92,-0.47 0.64,-0.15 1.22,-0.46 1.85,-0.61 0.62,-0.15 1.24,-0.3 1.85,-0.44 0.31,-0.08 0.56,-0.3 0.87,-0.37l2.64 -0.63c0.14,-0.03 0.24,-0.22 0.4,-0.26l2.55 -0.61c0.06,-0.02 0.14,-0.01 0.2,-0.05 0.08,-0.06 0.1,-0.18 0.2,-0.21l2.41 -0.57c0.28,-0.07 0.5,-0.27 0.78,-0.33 0.52,-0.13 1.04,-0.25 1.55,-0.37 0.53,-0.13 1.01,-0.38 1.52,-0.51l0 -0.15c-0.5,0.12 -1.01,0.24 -1.52,0.36 -0.52,0.12 -1,0.09 -1.54,0.21 -4.3,1 -8.87,1.44 -13.74,2.55 -0.65,0.15 -1.24,0.12 -1.9,0.27 -0.66,0.15 -1.32,0.3 -1.99,0.45 -0.67,0.15 -1.3,0.13 -1.99,0.29 -0.68,0.16 -1.37,0.31 -2.07,0.47 -0.36,0.08 -0.65,-0.02 -1.02,0.06 -0.92,0.21 -2.47,0.88 -3.28,0.74l-3.92 0.7c-0.22,0.05 -0.34,-0.11 -0.56,-0.06l-3.58 0.8c-0.42,0.1 -0.77,-0.01 -1.21,0.09 -0.82,0.18 -1.66,0.37 -2.5,0.56 -0.87,0.19 -1.66,0.18 -2.54,0.37 -0.87,0.19 -1.75,0.39 -2.64,0.59 -0.91,0.2 -1.77,0.19 -2.72,0.4 -7.53,1.66 -15.72,2.63 -24.62,4.53l0 8.04zm0 -14.06l5.03 -0.96c0.48,-0.09 1.36,0.04 1.79,-0.43 0.42,-0.46 5.1,-1.07 5.99,-1.24l6.44 -1.4c0.27,-0.04 0.47,-0.29 0.77,-0.35l4.54 -0.84c0.52,-0.09 0.93,-0.37 1.44,-0.46l4.26 -0.78c0.46,-0.09 0.88,-0.35 1.36,-0.44 0.9,-0.17 1.8,-0.33 2.68,-0.49 0.91,-0.16 1.73,-0.5 2.61,-0.66 0.85,-0.15 1.69,-0.31 2.53,-0.46 0.86,-0.15 1.62,-0.47 2.46,-0.62 0.81,-0.14 1.62,-0.29 2.41,-0.43 0.8,-0.14 1.53,-0.45 2.32,-0.59 5.88,-1.06 11.36,-2.69 16.46,-3.58 4.77,-0.84 9.27,-2.21 13.47,-2.93l0 -0.14c-1.02,0.17 -2.04,0.2 -3.11,0.38 -0.55,0.09 -1.05,0.03 -1.6,0.12 -0.55,0.09 -1.11,0.19 -1.67,0.28 -0.57,0.09 -1.1,0.03 -1.68,0.13 -0.58,0.1 -1.17,0.19 -1.76,0.29 -0.6,0.1 -1.15,0.04 -1.76,0.14 -0.61,0.1 -1.22,0.2 -1.85,0.31 -0.62,0.1 -1.21,0.04 -1.85,0.15 -0.64,0.1 -1.29,0.21 -1.94,0.32 -0.34,0.06 -0.61,-0.06 -0.95,-0.01l-3.05 0.5c-0.34,0.05 -0.64,-0.06 -1,-0l-3.21 0.52c-0.17,0.03 -0.31,-0.13 -0.51,-0.09 -0.55,0.09 -3.7,0.77 -3.92,0.56 -0.35,-0.33 -3.56,0.65 -4.39,0.61 -0.13,-0.01 -0.15,-0.16 -0.3,-0.14l-4.35 0.7c-0.22,0.04 -0.39,-0.12 -0.63,-0.09l-3.95 0.62c-0.48,0.08 -0.86,-0.06 -1.34,0.02l-4.19 0.66c-0.48,0.07 -0.91,-0.06 -1.42,0.03 -0.97,0.15 -1.95,0.3 -2.94,0.46 -1.04,0.16 -1.99,0.11 -3.04,0.27 -1.03,0.16 -2.08,0.32 -3.14,0.48 -1.1,0.17 -2.11,0.12 -3.24,0.29 -1.1,0.17 -2.22,0.34 -3.35,0.51 -1.17,0.18 -2.26,0.13 -3.47,0.32 -2.3,0.35 -4.58,0.5 -6.95,0.84l0 7.62zm0 -14.55c6.15,-0.74 11.86,-1.62 17.34,-2.26 5.23,-0.62 10.27,-1.6 14.96,-2.14 4.51,-0.52 8.74,-1.19 12.83,-1.65 0.49,-0.06 0.95,-0.28 1.45,-0.34l4.27 -0.49c0.94,-0.1 1.8,-0.37 2.71,-0.47l10.04 -1.28c0.8,-0.09 1.52,-0.33 2.29,-0.41 2.99,-0.33 5.81,-0.79 8.57,-1.09 0.68,-0.07 1.3,-0.28 1.97,-0.35 4.1,-0.44 7.97,-1.13 11.6,-1.52 0.29,-0.03 0.53,-0.18 0.81,-0.21l0 -0.13c-2.2,0.23 -4.44,0.33 -6.81,0.57 -2.42,0.25 -4.98,0.23 -7.6,0.49 -5.6,0.56 -11.65,0.7 -18.27,1.34l-8.17 0.62c-0.98,0.09 -1.91,0.01 -2.93,0.11 -4.09,0.39 -8.32,0.61 -12.84,1.03 -0.6,0.06 -1.12,-0.08 -1.72,-0.03 -8.62,0.8 -18.11,1.26 -28.61,2.22 -0.44,0.04 -0.73,-0.16 -1.15,-0.12 -0.21,0.02 -0.41,0.04 -0.62,0.06 -0.04,0 -0.09,-0.01 -0.15,-0.03l0 6.08zm0 -54.55c12,1.67 22.64,2.59 32.26,3.97 0.31,0.05 0.55,-0.12 0.83,-0.07l5.8 0.84c1.06,0.15 2.07,0.12 3.12,0.27 1.02,0.15 2.04,0.3 3.04,0.45 1.01,0.14 1.93,0.1 2.9,0.25 7.29,1.07 13.97,1.58 20.09,2.5 0.74,0.11 1.43,0.07 2.16,0.17 0.71,0.11 1.42,0.22 2.11,0.32 0.7,0.11 1.35,0.06 2.03,0.16 5.18,0.79 9.94,1.11 14.4,1.8l0 -0.13c-0.54,-0.09 -1.05,-0.3 -1.61,-0.39 -3.97,-0.63 -8.23,-1.71 -12.75,-2.44l-6.32 -1.17c-0.75,-0.12 -1.46,-0.39 -2.23,-0.51l-3.5 -0.57c-0.4,-0.07 -0.76,-0.28 -1.18,-0.35l-4.37 -0.72c-0.24,-0.04 -0.4,-0.23 -0.63,-0.27 -7.24,-1.13 -15.13,-3.04 -23.89,-4.51 -9.56,-1.61 -20.32,-4.25 -32.27,-6.32l0 6.71zm23.32 -241.37c0.5,0.68 1,1.37 1.5,2.11 1.22,1.77 2.43,3.52 3.62,5.24 1.21,1.75 2.31,3.15 3.48,4.85 8.68,12.57 16.49,23.37 23.68,33.82 0.23,0.34 0.38,0.39 0.61,0.72l4.35 6.32c0.42,0.61 0.77,0.96 1.17,1.55 1.18,1.71 2.33,3.39 3.47,5.05 0.76,1.1 1.46,1.97 2.21,3.06 0.73,1.06 1.45,2.11 2.16,3.15 0.72,1.05 1.38,1.87 2.08,2.88 4.65,6.77 9.01,12.71 13.08,18.65 1.14,1.65 2.21,3.1 3.3,4.68l-5 -7.58c-0.6,-0.88 -1.16,-1.83 -1.77,-2.72 -0.6,-0.88 -1.2,-1.77 -1.81,-2.66 -0.63,-0.92 -1.22,-1.93 -1.85,-2.85l-2.9 -4.25c-0.35,-0.51 -0.65,-1.1 -1,-1.6 -5.57,-8.17 -11.57,-17.43 -18.14,-27.09 -0.87,-1.28 -1.7,-2.66 -2.59,-3.98 -0.89,-1.31 -1.79,-2.64 -2.7,-3.98 -0.94,-1.38 -1.82,-2.84 -2.78,-4.25 -6.37,-9.37 -13.28,-20.02 -20.76,-31.12l-3.41 0zm17.01 546.18l1.49 -2.41c0.52,-0.84 0.96,-1.73 1.46,-2.54l4.24 -6.84c0.49,-0.79 0.89,-1.61 1.36,-2.38 1.34,-2.17 2.66,-4.3 3.96,-6.4 0.45,-0.73 0.83,-1.5 1.28,-2.23 1.26,-2.03 2.49,-4.02 3.71,-5.99 0.41,-0.67 0.76,-1.4 1.18,-2.07l3.48 -5.62c0.39,-0.63 0.73,-1.33 1.13,-1.97 0.74,-1.2 1.48,-2.38 2.2,-3.55 0.73,-1.18 1.42,-2.44 2.12,-3.57 0.7,-1.12 1.39,-2.24 2.07,-3.34 0.7,-1.12 1.35,-2.32 2.02,-3.4 0.66,-1.06 1.31,-2.11 1.96,-3.16 0.65,-1.05 1.26,-2.17 1.89,-3.18 0.62,-1 1.24,-2 1.85,-2.98 0.62,-1.01 1.2,-2.07 1.8,-3.04 0.59,-0.95 1.17,-1.89 1.75,-2.82 0.59,-0.95 1.13,-1.96 1.71,-2.88 0.56,-0.9 1.11,-1.79 1.66,-2.67 0.56,-0.9 1.07,-1.86 1.62,-2.74l0 -0.13c-0.54,0.86 -1.08,1.73 -1.62,2.6 -0.56,0.9 -1.08,1.6 -1.65,2.51 -0.56,0.9 -1.13,1.82 -1.71,2.74 -0.6,0.96 -1.15,1.7 -1.75,2.67 -0.6,0.95 -1.2,1.92 -1.8,2.89 -0.62,1 -1.2,1.78 -1.84,2.8 -0.63,1.01 -1.26,2.02 -1.9,3.05 -0.66,1.06 -1.28,1.9 -1.96,2.99 -0.66,1.07 -1.34,2.14 -2.01,3.22 -0.69,1.11 -1.34,2 -2.06,3.14 -0.7,1.13 -1.42,2.27 -2.14,3.42 -0.74,1.18 -1.44,2.14 -2.2,3.36 -0.75,1.2 -1.51,2.41 -2.27,3.63 -0.78,1.25 -1.53,2.29 -2.34,3.58 -6.49,10.37 -13.59,21.02 -21.31,33.3l2.61 0zm-40.33 -497.52c7.65,8.07 14.69,15.3 21.34,22.33 0.82,0.87 1.54,1.43 2.36,2.3l19.09 20.02c1.27,1.34 2.47,2.44 3.72,3.76l6.55 6.95c0.17,0.19 0.25,0.08 0.41,0.27 6.4,7.07 12.31,12.76 17.76,18.56 0.87,0.92 1.73,1.84 2.57,2.74 0.85,0.91 1.66,1.62 2.48,2.5 3.19,3.4 6.19,6.46 9.1,9.55l6.04 6.31c0.64,0.68 1.25,1.21 1.89,1.89 2.44,2.6 4.75,4.95 7,7.35l0 -0.12c-0.56,-0.6 -1.09,-1.28 -1.66,-1.89 -4.11,-4.4 -8.51,-9.37 -13.28,-14.49 -0.36,-0.39 -0.68,-0.87 -1.05,-1.26l-10.51 -11.43c-0.85,-0.92 -1.69,-1.96 -2.57,-2.92l-5.12 -5.51c-0.13,-0.14 -0.2,-0.38 -0.35,-0.53 -5.91,-6.19 -12.31,-13.6 -19.28,-21.12 -1.23,-1.33 -2.48,-2.67 -3.74,-4.04 -1.31,-1.41 -2.57,-2.95 -3.89,-4.39 -5.52,-5.96 -11.32,-12.42 -17.6,-19.22l-17.19 -18.81c-0.49,-0.53 -0.91,-1.2 -1.43,-1.77l-2.23 -2.41c-0.15,-0.16 -0.29,-0.39 -0.4,-0.51l0 5.88zm0 357.27c13.98,-8.98 26.19,-17.38 36.99,-24.27 6.17,-3.93 11.94,-7.96 17.3,-11.37 1.05,-0.67 2.03,-1.45 3.05,-2.1l5.78 -3.69c0.4,-0.62 4.84,-3.21 5.33,-3.52 0.86,-0.55 1.67,-1.21 2.52,-1.75 10.01,-6.33 18.69,-12.46 26.27,-17.22l0 -0.12c-2.79,1.75 -5.74,3.34 -8.83,5.27 -0.65,0.41 -1.27,0.67 -1.93,1.07 -0.99,0.62 -2,1.25 -3.03,1.89 -0.31,0.2 -0.74,0.69 -1.04,0.64 -0.39,-0.06 -1.62,0.88 -2.11,1.18 -0.73,0.45 -1.46,0.91 -2.21,1.37 -0.76,0.47 -1.49,0.78 -2.27,1.27 -10.85,6.73 -23.61,13.82 -38.81,23.18 -5.26,3.24 -10.92,6.33 -16.88,9.99 -6.3,3.87 -12.94,7.73 -20.15,12.14l0 6.04zm0 -301.82c12.98,10.28 24.37,18.72 34.59,26.86 1.21,0.96 2.35,1.68 3.54,2.63 1.16,0.92 2.3,1.84 3.43,2.73 1.13,0.9 2.17,1.55 3.27,2.43 1.08,0.86 2.14,1.71 3.19,2.55 1.05,0.84 2.02,1.45 3.03,2.25l8.52 6.64c6.8,5.44 13.06,9.86 18.75,14.44 0.68,0.55 1.36,1.09 2.03,1.63 0.67,0.54 1.29,0.9 1.95,1.43 0.64,0.52 1.28,1.03 1.91,1.54 0.64,0.51 1.23,0.85 1.85,1.36 0.91,0.73 1.8,1.45 2.68,2.16 0.29,0.23 0.56,0.32 0.87,0.57 0.85,0.69 1.7,1.37 2.53,2.04 0.29,0.23 0.54,0.31 0.82,0.53l0 -0.13c-4.52,-3.66 -9.35,-7.98 -14.63,-12.27 -0.68,-0.56 -1.36,-1.25 -2.07,-1.83 -0.71,-0.58 -1.43,-1.16 -2.16,-1.75 -0.74,-0.61 -1.44,-1.32 -2.21,-1.95 -0.76,-0.62 -1.54,-1.25 -2.32,-1.89 -0.8,-0.65 -1.55,-1.42 -2.36,-2.07 -5.87,-4.79 -12.25,-10.49 -19.18,-16.17 -5.35,-4.38 -11.06,-9.43 -17.18,-14.46 -1.29,-1.06 -2.54,-2.28 -3.88,-3.38 -1.33,-1.1 -2.68,-2.21 -4.05,-3.33 -1.42,-1.17 -2.77,-2.48 -4.23,-3.69 -1.45,-1.19 -2.93,-2.41 -4.43,-3.64 -1.56,-1.29 -3.05,-2.73 -4.64,-4.04 -0.59,-0.49 -8.23,-6.53 -8.67,-7.28 -0.2,-0.34 -0.43,-0.45 -0.64,-0.62 -0.07,-0.06 -0.17,-0.2 -0.26,-0.29l0 7zm0 -13.19l4.41 3.78c1.55,1.33 2.97,2.33 4.49,3.62 11.09,9.49 21.02,17.23 29.96,24.93 2.11,1.82 4.13,3.38 6.16,5.12 1.01,0.87 1.93,1.49 2.9,2.33 0.95,0.82 1.9,1.63 2.83,2.44 0.93,0.8 1.79,1.38 2.71,2.17 0.89,0.77 1.77,1.53 2.64,2.28 0.44,0.38 0.81,0.53 1.25,0.91l3.74 3.23c0.21,0.19 0.36,0.16 0.59,0.35l3.81 3.3c0.12,0.11 0.17,0.02 0.28,0.08 1.02,0.63 2.29,1.99 3.32,2.89 0.38,0.33 0.7,0.46 1.06,0.77 0.71,0.62 1.42,1.23 2.11,1.83 0.7,0.61 1.36,1.04 2.03,1.62 0.67,0.58 1.32,1.15 1.98,1.72 0.66,0.58 1.27,0.96 1.92,1.53 3.69,3.21 7.18,5.85 10.49,8.73l0 -0.12c-2.18,-1.91 -4.43,-4.15 -6.78,-6.21 -0.61,-0.53 -1.18,-1.18 -1.8,-1.71 -0.62,-0.55 -1.24,-1.1 -1.88,-1.65 -0.65,-0.57 -1.25,-1.24 -1.92,-1.83 -0.66,-0.58 -1.32,-1.16 -1.99,-1.75 -0.35,-0.3 -0.64,-0.71 -0.98,-1.01l-3.14 -2.76c-0.2,-0.17 -0.33,-0.44 -0.52,-0.6 -0.58,-0.5 -3.59,-2.96 -3.87,-3.52 -0.19,-0.38 -3.03,-2.71 -3.5,-3.13 -0.41,-0.36 -0.79,-0.85 -1.19,-1.2l-3.74 -3.3c-0.43,-0.38 -0.82,-0.88 -1.27,-1.28 -0.86,-0.76 -1.74,-1.54 -2.62,-2.32 -0.92,-0.81 -1.77,-1.74 -2.71,-2.56 -0.93,-0.83 -1.87,-1.66 -2.83,-2.5 -0.97,-0.86 -1.9,-1.86 -2.9,-2.75 -8.29,-7.35 -17.47,-16.26 -27.66,-25.33 -1.39,-1.24 -2.71,-2.62 -4.11,-3.88 -1.42,-1.27 -2.86,-2.55 -4.33,-3.86 -1.51,-1.35 -2.93,-2.83 -4.49,-4.22l-4.45 -3.98 0 7.82zm0 109.32c14.41,4.83 26.89,8.45 37.95,12.2 0.67,0.23 1.26,0.25 1.91,0.47 1.9,0.64 3.75,1.28 5.57,1.9 1.2,0.41 2.31,0.61 3.49,1.01 1.14,0.39 2.26,0.77 3.37,1.15 1.11,0.37 2.14,0.56 3.21,0.93 7.03,2.41 13.47,4.16 19.35,6.19 3.92,1.36 7.62,2.36 11.11,3.57 0.68,0.24 1.32,0.33 2,0.57 0.66,0.23 1.3,0.45 1.95,0.68 0.65,0.22 1.25,0.31 1.89,0.53 0.62,0.22 1.22,0.43 1.83,0.64 0.6,0.21 1.18,0.29 1.76,0.49l2.56 0.9c0.29,0.1 0.55,0.07 0.83,0.17l0 -0.12c-4.57,-1.61 -9.5,-3.74 -14.9,-5.66 -0.71,-0.25 -1.4,-0.63 -2.13,-0.9 -0.73,-0.26 -1.47,-0.53 -2.22,-0.79 -0.77,-0.28 -1.5,-0.68 -2.28,-0.96 -0.79,-0.28 -1.59,-0.57 -2.4,-0.86 -0.82,-0.29 -1.62,-0.73 -2.45,-1.03l-7.97 -3.02c-7.87,-2.84 -16.7,-6.71 -26.53,-10.3 -1.32,-0.48 -2.66,-0.97 -4.02,-1.46 -1.39,-0.51 -2.73,-1.18 -4.18,-1.71 -1.45,-0.53 -2.92,-1.07 -4.41,-1.62 -1.55,-0.57 -3.04,-1.31 -4.63,-1.89 -2.4,-0.88 -4.87,-1.79 -7.4,-2.72 -0.87,-0.32 -1.66,-0.82 -2.56,-1.15l-10.67 -4.16 0 6.95zm0 -27.87c0.11,0.03 0.26,0.05 0.47,0.15 0.71,0.33 2.15,1.17 2.68,1.07 0.37,-0.07 10.01,4.67 10.22,4.77 4.24,1.99 8.21,3.66 12.11,5.49 7.32,3.45 14.01,6.41 20.29,9.38 1.5,0.71 2.91,1.2 4.36,1.89 9.41,4.45 17.76,8.1 25.25,11.66 0.51,0.24 0.98,0.32 1.48,0.56 7.04,3.35 13.37,6.11 19.1,8.85 0.37,0.17 0.7,0.21 1.06,0.39 5.12,2.46 9.79,4.47 14.08,6.54l0 -0.1c-0.14,-0.07 -0.26,-0.23 -0.4,-0.3l-2.99 -1.44c-3.63,-1.76 -7.54,-3.98 -11.74,-5.92 -0.1,-0.05 -0.16,-0.21 -0.25,-0.25 -2.9,-1.26 -5.96,-3.03 -9.18,-4.6l-10.96 -5.48c-0.09,-0.05 -0.1,-0.16 -0.18,-0.23 -0.47,-0.46 -1.03,-0.51 -1.52,-0.75l-4.84 -2.37c-1.14,-0.56 -2.24,-1.25 -3.4,-1.82l-18.73 -9.37c-0.4,-0.2 -0.72,-0.53 -1.11,-0.72 -6.27,-3.1 -12.98,-6.59 -20.28,-10.19 -7.4,-3.66 -15.41,-8.02 -24.12,-12.14 -0.34,-0.16 -0.53,-0.49 -0.89,-0.66 -0.17,-0.08 -0.36,-0.26 -0.51,-0.33l0 5.96zm0 -109.32c0.11,0.11 0.25,0.18 0.39,0.32l11.12 10.77c1.89,1.87 3.64,3.39 5.44,5.18 13.21,13.08 24.75,23.97 34.89,34.04 1.19,1.18 2.33,2.15 3.5,3.31 1.13,1.13 2.25,2.24 3.35,3.33 1.1,1.1 2.13,1.95 3.19,3.01 1.55,1.54 3.08,3.06 4.57,4.55 0.51,0.51 0.96,0.81 1.46,1.3 7.33,7.3 13.9,13.44 19.89,19.43 0.72,0.72 1.39,1.26 2.09,1.96 4.63,4.64 8.94,8.59 12.92,12.59l0 -0.12c-0.55,-0.55 -1.11,-1.12 -1.68,-1.68 -0.57,-0.57 -1.13,-1.25 -1.72,-1.84 -0.59,-0.59 -1.18,-1.19 -1.78,-1.79 -0.62,-0.62 -1.2,-1.34 -1.83,-1.97 -0.94,-0.95 -1.9,-1.92 -2.88,-2.9 -0.34,-0.34 -0.64,-0.77 -0.98,-1.11l-3.08 -3.1c-0.3,-0.3 -0.79,-0.54 -1.05,-1.16 -0.12,-0.28 -4.31,-4.39 -4.43,-4.51 -0.39,-0.39 -0.74,-0.89 -1.14,-1.29l-3.61 -3.65c-0.83,-0.84 -1.64,-1.8 -2.5,-2.67 -0.86,-0.87 -1.73,-1.75 -2.62,-2.65 -0.91,-0.92 -1.78,-1.95 -2.7,-2.89 -7.8,-7.89 -16.53,-17.23 -26.35,-27.2 -1.33,-1.36 -2.63,-2.85 -4.01,-4.26 -11.66,-11.85 -24.96,-25.99 -40.46,-41.8l0 6.78zm17.46 483.14c7.76,-11.29 14.91,-21.75 21.51,-31.13 10.05,-14.3 19.02,-27.71 27.02,-39.06 7.2,-10.22 13.74,-20.05 19.67,-28.43 5.42,-7.66 10.4,-15.19 14.97,-21.63l0 -0.12c-4.56,6.43 -9.54,12.94 -14.95,20.54 -5.92,8.32 -12.46,16.92 -19.66,27 -8,11.2 -16.96,23.07 -27.01,37.11 -7.86,10.98 -16.52,22.67 -26.06,35.72l4.52 0zm13.94 -546.18c3.4,5.06 6.67,9.93 9.82,14.7 10.42,15.78 19.68,29.16 27.87,41.59 0.96,1.47 1.92,2.91 2.86,4.34 0.94,1.42 1.81,2.6 2.73,3.99 0.89,1.35 1.77,2.69 2.64,4.01 0.87,1.33 1.69,2.44 2.54,3.71 1.23,1.88 2.44,3.71 3.63,5.52 0.4,0.61 0.75,1.02 1.15,1.62 1.33,2.03 2.64,4.02 3.92,5.97 0.19,0.3 0.34,0.39 0.53,0.68 5.48,8.35 10.46,15.56 15.05,22.57l0 -0.11c-0.56,-0.85 -1.09,-1.79 -1.67,-2.66 -0.57,-0.87 -1.15,-1.75 -1.73,-2.64 -0.6,-0.91 -1.17,-1.9 -1.77,-2.83 -3.1,-4.75 -6.38,-10 -9.86,-15.32 -4.43,-6.78 -9.23,-14.54 -14.37,-22.43 -0.9,-1.38 -1.81,-2.78 -2.74,-4.2 -0.95,-1.45 -1.87,-3.02 -2.85,-4.53 -0.98,-1.5 -1.97,-3.02 -2.97,-4.56 -1.03,-1.59 -2.02,-3.26 -3.08,-4.89 -1.06,-1.63 -2.14,-3.29 -3.24,-4.97 -1.13,-1.73 -2.22,-3.57 -3.36,-5.33 -1.75,-2.69 -3.54,-5.44 -5.37,-8.25 -0.64,-0.98 -1.21,-2.03 -1.85,-3.02l-6.93 -10.65c-0.37,-0.57 -0.67,-1.2 -1.02,-1.76 -2.21,-3.4 -4.48,-6.92 -6.81,-10.54l-3.1 0zm-31.4 131.6c14.53,9.61 27.21,17.44 38.33,24.83 1.51,1 2.92,1.76 4.39,2.74 10.71,7.14 20.1,12.92 28.47,18.52 0.48,0.33 0.94,0.48 1.43,0.81l4.22 2.83c0.9,0.6 1.76,1.04 2.65,1.63 0.87,0.58 1.73,1.16 2.57,1.73 0.84,0.57 1.63,0.96 2.44,1.51l6.87 4.49c4.16,2.8 8.06,5.07 11.68,7.52 0.59,0.4 1.16,0.79 1.74,1.18 0.57,0.38 1.11,0.64 1.67,1.02l0 -0.11c-4.59,-3.12 -9.58,-6.87 -15.09,-10.62 -0.37,-0.25 -0.7,-0.6 -1.07,-0.85 -1.11,-0.76 -2.25,-1.54 -3.4,-2.33 -0.79,-0.54 -1.54,-1.19 -2.35,-1.74 -0.81,-0.56 -1.64,-1.12 -2.47,-1.69 -0.85,-0.58 -1.68,-1.29 -2.54,-1.88 -7.35,-5.04 -15.57,-11.14 -24.83,-17.51 -1.25,-0.86 -2.47,-1.87 -3.78,-2.77 -1.31,-0.91 -2.64,-1.82 -3.99,-2.75 -1.39,-0.96 -2.74,-2.07 -4.17,-3.05 -12.21,-8.43 -26.25,-18.74 -42.77,-30.21l0 6.71zm0 343.64c15.46,-15.02 28.83,-28.75 40.45,-39.97 10.32,-9.97 19.47,-19.45 27.61,-27.29 7.31,-7.03 13.92,-13.94 19.9,-19.66 5.45,-5.22 10.45,-10.49 15.03,-14.85l0 -0.12c-4.57,4.36 -9.57,8.62 -15.02,13.78 -5.98,5.67 -12.58,11.36 -19.89,18.25 -8.14,7.68 -17.29,15.64 -27.6,25.33 -11.62,10.92 -25,22.68 -40.48,37.14l0 7.38zm33.52 70.94c2.25,-3.54 4.44,-6.97 6.57,-10.28 1.38,-2.14 2.66,-4.31 3.99,-6.37 1.3,-2.01 2.57,-3.99 3.83,-5.94 1.25,-1.94 2.41,-3.92 3.63,-5.81 1.18,-1.84 2.35,-3.64 3.5,-5.43 0.58,-0.9 1.1,-1.86 1.66,-2.74l4.87 -7.56c0.28,-0.43 0.49,-0.92 0.76,-1.33l3.8 -5.89c0.41,-0.64 1.1,-1.41 1.45,-2.37 0.16,-0.42 4.38,-6.83 4.87,-7.58 0.23,-0.36 0.42,-0.8 0.67,-1.18l3.88 -6.01c0.42,-0.66 0.81,-1.4 1.24,-2.06 0.82,-1.27 1.63,-2.52 2.43,-3.76 0.8,-1.24 1.55,-2.53 2.33,-3.74 0.76,-1.18 1.52,-2.34 2.26,-3.49 0.74,-1.15 1.45,-2.37 2.18,-3.5 5.45,-8.42 10.43,-16.59 15.01,-23.66l0 -0.11c-0.56,0.86 -1.1,1.58 -1.67,2.45 -0.57,0.88 -1.15,1.77 -1.73,2.66 -0.6,0.92 -1.16,1.67 -1.77,2.61 -0.61,0.93 -1.22,1.88 -1.84,2.83 -0.62,0.96 -1.24,1.79 -1.89,2.78 -0.65,1 -1.3,2 -1.97,3.02 -0.33,0.51 -0.64,0.86 -0.99,1.39 -0.34,0.52 -0.69,1.05 -1.03,1.58 -0.69,1.06 -1.42,2.39 -2.12,3.26l-3.84 5.76c-0.21,0.32 -0.36,0.43 -0.57,0.74l-3.54 5.42c-0.42,0.64 -0.79,1.07 -1.22,1.73 -0.83,1.27 -1.67,2.56 -2.52,3.86 -0.88,1.34 -1.71,2.48 -2.6,3.84 -0.9,1.37 -1.8,2.76 -2.72,4.17 -0.95,1.45 -1.85,2.69 -2.83,4.19 -8.12,12.43 -17.22,25.67 -27.49,41.33 -2.78,4.24 -5.61,8.38 -8.6,12.93 -0.5,0.77 -1,1.51 -1.5,2.24l3.53 0zm-33.52 -510.26l10.87 12.13c1.18,1.32 2.27,2.32 3.44,3.63 2.24,2.5 4.43,4.95 6.57,7.34 2.12,2.36 4.09,4.38 6.11,6.63 1.96,2.19 3.88,4.34 5.76,6.44 1.85,2.07 3.59,3.83 5.38,5.83 9.89,11.07 18.69,20.44 26.59,29.31 4.83,5.43 9.34,10.2 13.59,14.98 1.03,1.16 2.01,2.12 3,3.24 0.97,1.09 1.93,2.17 2.88,3.24 0.94,1.06 1.83,1.92 2.74,2.95 0.9,1.01 1.78,2.01 2.65,2.99 0.86,0.96 1.67,1.76 2.51,2.71 0.82,0.92 1.63,1.84 2.42,2.74 0.4,0.45 0.76,0.73 1.16,1.18l3.4 3.84c0.19,0.21 0.34,0.27 0.53,0.49l3.54 4.01c0.06,0.06 0.07,-0.03 0.12,0.01 0.33,0.26 0.68,0.77 1,1.14l1.97 2.22c0.33,0.37 0.63,0.6 0.95,0.96l2.75 3.11c0.3,0.34 0.58,0.55 0.88,0.89 0.58,0.66 1.16,1.31 1.73,1.96 0.57,0.65 1.11,1.15 1.67,1.78l0 -0.11c-0.55,-0.62 -1.1,-1.25 -1.67,-1.89 -0.57,-0.65 -1.13,-1.38 -1.72,-2.05 -3.63,-4.13 -7.53,-8.9 -11.74,-13.7 -3,-3.42 -6.15,-7.26 -9.5,-11.09 -0.88,-1 -1.73,-2.11 -2.62,-3.13 -0.91,-1.03 -1.82,-2.09 -2.76,-3.15 -0.96,-1.1 -1.88,-2.29 -2.86,-3.42 -0.99,-1.14 -2,-2.29 -3.03,-3.46 -1.04,-1.19 -2.06,-2.5 -3.14,-3.74 -1.09,-1.24 -2.19,-2.51 -3.31,-3.79 -0.58,-0.66 -1.1,-1.42 -1.69,-2.09l-5.44 -6.24c-0.32,-0.36 -0.59,-0.83 -0.92,-1.21l-6.7 -7.68c-0.12,-0.14 -0.14,-0.31 -0.25,-0.46 -0.68,-0.94 -1.4,-1.6 -2.1,-2.41 -1.45,-1.66 -2.92,-3.36 -4.43,-5.08 -0.78,-0.89 -1.52,-1.91 -2.29,-2.8l-7.29 -8.37c-0.86,-1 -1.67,-2.11 -2.57,-3.14 -1.77,-2.03 -3.57,-4.11 -5.41,-6.22 -1.91,-2.2 -3.77,-4.53 -5.75,-6.81 -2,-2.31 -4.05,-4.66 -6.14,-7.07 -2.16,-2.48 -4.27,-5.12 -6.53,-7.73 -4.59,-5.3 -9.32,-10.96 -14.34,-16.75l0 7.82zm0 152.02c2.72,1.06 5.28,1.87 7.86,2.89 2.6,1.03 5.13,2.03 7.6,3.01 0.61,0.24 1.13,0.24 1.75,0.49 12.87,5.1 24.11,9.02 34.05,12.99 0.82,0.33 1.56,0.46 2.37,0.78 1.56,0.63 3.09,1.24 4.59,1.84 0.76,0.31 1.45,0.42 2.19,0.72 5.58,2.24 10.71,4.01 15.53,5.96l5.82 2.21c0.28,0.11 0.51,0.07 0.78,0.18 4.07,1.66 7.86,2.94 11.45,4.41l4.39 1.67c0.18,0.08 0.43,0.33 0.6,0.24 0.37,-0.18 0.78,0.21 1.17,0.37 4.13,1.69 7.96,2.94 11.52,4.41 0.16,0.07 0.3,0.02 0.45,0.08l2.28 0.95c0.3,0.12 0.58,0.14 0.88,0.26 1.16,0.48 2.26,0.84 3.36,1.3l0 -0.09c-1.1,-0.46 -2.2,-1.02 -3.35,-1.5 -0.3,-0.12 -0.57,-0.34 -0.87,-0.46l-1.82 -0.76c-0.32,-0.13 -0.61,-0.36 -0.92,-0.49 -2.58,-1.09 -5.27,-2.44 -8.13,-3.65l-4.27 -1.92c-0.11,-0.05 -0.18,-0.2 -0.29,-0.25 -5,-2.05 -10.45,-4.9 -16.46,-7.4 -0.14,-0.06 -0.23,-0.23 -0.37,-0.3 -4.22,-1.77 -8.73,-4.04 -13.56,-6.12 -2.63,-1.14 -5.34,-2.46 -8.19,-3.69 -0.72,-0.31 -1.41,-0.77 -2.17,-1.1l-4.61 -2c-0.81,-0.35 -1.56,-0.84 -2.39,-1.2 -6.79,-2.96 -14.12,-6.51 -22.2,-10.04l-11.79 -5.36c-0.62,-0.27 -1.14,-0.71 -1.79,-0.99 -2.47,-1.08 -5,-2.2 -7.6,-3.33 -2.59,-1.14 -5.16,-2.47 -7.9,-3.69l0 9.61zm547.2 296.39c-0.73,-0.63 -1.37,-1.05 -2.09,-1.72 -0.66,-0.61 -1.83,-2.07 -2.4,-2.09 -0.55,-0.02 -1.74,-1.51 -2.35,-2.08 -0.79,-0.73 -1.48,-1.16 -2.27,-1.9 -1.52,-1.41 -2.94,-2.51 -4.44,-3.9 -0.39,-0.36 -0.66,-0.4 -1.05,-0.77 -2.48,-2.3 -4.87,-4.13 -7.23,-6.31l-2.93 -2.53c-0.16,-0.15 -0.33,-0.33 -0.49,-0.46 -0.18,-0.15 -0.25,-0.02 -0.45,-0.21 -2.54,-2.46 -4.93,-4.22 -7.34,-6.48l0 0.19c0.14,0.13 0.23,0.41 0.42,0.58 2.23,2.01 4.53,4.63 6.89,6.85 0.35,0.33 0.62,0.78 0.94,1.08l1.97 1.85c0.35,0.33 0.6,0.76 0.97,1.11 1.37,1.29 2.66,2.71 4.07,4.03 0.73,0.69 1.35,1.48 2.08,2.17 0.7,0.66 1.48,1.26 2.13,2.21 0.64,0.92 1.53,1.46 2.21,2.1 2.19,2.07 4.52,4.77 6.86,6.92l4.51 4.69 0 -5.33zm0 -342.69c-8.56,6.02 -16.4,12.3 -23.7,17.38 -0.9,0.62 -1.71,1.39 -2.61,2.01 -0.87,0.61 -1.74,1.2 -2.59,1.8 -0.43,0.3 -0.77,0.73 -1.21,1.03 -0.52,0.36 -3.46,2.23 -3.7,2.64 -0.31,0.54 -2.99,2.18 -3.52,2.55 -0.41,0.28 -0.74,0.7 -1.13,0.96 -0.76,0.52 -1.52,1.05 -2.27,1.57 -0.76,0.53 -1.44,1.17 -2.18,1.68l0 0.18c5.98,-4.12 12.36,-7.75 19.26,-12.48 0.92,-0.63 1.75,-1 2.68,-1.64 0.93,-0.64 1.88,-1.28 2.83,-1.93l5.88 -3.81c0.25,-0.18 0.41,-0.06 0.69,-0.26l4.71 -3.21c0.31,-0.21 0.48,-0.09 0.77,-0.3l6.08 -3.92 0 -4.25zm0 151.12c-10.95,-0.16 -20.82,0.46 -29.76,0.28 -2.13,-0.04 -4.17,0.11 -6.23,0.06 -1.03,-0.02 -1.96,0.14 -2.96,0.12 -0.97,-0.02 -1.93,-0.04 -2.88,-0.07 -0.95,-0.02 -1.82,0.14 -2.76,0.11 -0.91,-0.02 -1.81,-0.04 -2.7,-0.06 -0.46,-0.02 -0.83,0.15 -1.28,0.14 -1.3,-0.03 -2.58,-0.06 -3.84,-0.09l0 0.17c0.22,0.01 0.37,0.18 0.6,0.18l1.89 0.05c0.84,0.02 1.77,-0.29 2.59,0.23 0.33,0.22 2.19,0.07 2.69,0.09 0.45,0.01 0.91,0.03 1.37,0.04 0.49,0.02 0.92,0.2 1.39,0.22 0.95,0.03 1.91,0.06 2.88,0.09 1,0.03 1.95,0.24 2.95,0.27 1.02,0.03 2.04,0.06 3.08,0.09 1.08,0.03 2.07,0.25 3.17,0.29 1.08,0.03 2.17,0.07 3.28,0.1 1.13,0.04 2.22,0.27 3.4,0.31 7.12,0.23 14.8,1.1 23.11,1.41l0 -4.02zm0 -14.32c-0.1,0.06 -0.23,0.15 -0.39,0.24 -0.46,0.24 -3.93,0.21 -4.64,0.25 -0.62,0.03 -1.14,0.28 -1.77,0.31 -4.64,0.23 -9.01,0.86 -13.26,1.06 -0.53,0.03 -0.96,0.24 -1.49,0.27l-3.03 0.14c-0.51,0.02 -0.93,0.24 -1.45,0.26 -3.82,0.17 -7.42,0.71 -10.94,0.86 -0.44,0.02 -0.8,0.22 -1.24,0.24l-2.53 0.11c-0.43,0.01 -0.78,0.21 -1.21,0.23 -1.63,0.07 -3.17,0.31 -4.72,0.37l-0 0.17c1.55,-0.06 3.09,0.05 4.72,-0.01 0.42,-0.01 0.76,0.15 1.18,0.14l2.53 -0.09c0.45,-0.02 0.81,0.15 1.26,0.13 3.53,-0.12 7.12,0.13 10.95,0.01 0.51,-0.02 0.91,0.17 1.42,0.15l3.03 -0.1c0.54,-0.02 0.97,0.17 1.52,0.15 4.24,-0.13 8.62,0.15 13.26,0.01 0.62,-0.01 1.11,0.19 1.73,0.17 0.57,-0.02 4.32,-0.29 4.62,-0.04 0.16,0.14 0.27,0.11 0.45,0.12l0 -5.16zm-49.13 267.77l-3.2 -4.83c0.99,1.57 1.99,3.18 2.99,4.83l0.2 0zm49.13 -499.8c-6.44,7.42 -12.41,14.49 -18.13,21.07 -5.52,6.35 -10.73,12.34 -15.66,18.01 -2.38,2.74 -4.62,5.49 -6.88,8.09l-17.87 20.52c-0.23,0.26 -0.39,0.61 -0.63,0.88l-13.81 15.85c-1.46,1.67 -2.84,3.4 -4.23,4.99 -2.68,3.07 -5.26,6.03 -7.73,8.87 -2.39,2.74 -4.66,5.47 -6.87,8.01l0 0.13c20.23,-23.16 48.69,-55.02 91.81,-104.19l0 -2.23zm-25.48 499.8c-3.22,-4.34 -6.32,-8.5 -9.34,-12.69 -0.63,-0.87 -1.16,-1.42 -1.78,-2.28 -1.2,-1.66 -2.38,-3.3 -3.55,-4.92 -0.6,-0.83 -1.13,-1.38 -1.7,-2.17 -1.12,-1.56 -2.23,-3.09 -3.32,-4.61 -1.09,-1.51 -2.11,-2.76 -3.19,-4.25 -4.08,-5.66 -7.92,-10.67 -11.62,-15.82l0 0.16c0.22,0.3 0.4,0.72 0.64,1.06 5.42,7.54 11.21,16.13 17.47,24.86l6.13 8.74c0.15,0.21 0.31,0.42 0.46,0.64 0.17,0.24 0.24,0.54 0.43,0.8 2.39,3.25 4.87,6.8 7.42,10.49l1.95 0zm9.79 -546.18l-2.9 4.37c-0.42,0.62 -0.72,1.26 -1.13,1.87 -5.96,8.83 -11.49,17.38 -16.76,25.17l-6.43 9.67c-0.32,0.47 -0.55,0.98 -0.86,1.45 -1.17,1.72 -2.32,3.42 -3.46,5.1 -1.12,1.66 -2.19,3.39 -3.29,5.02 -2.14,3.16 -4.17,6.31 -6.21,9.31l-5.06 7.62c-0.25,0.37 -0.43,0.79 -0.68,1.16l0 0.16c3.8,-5.59 7.74,-11.05 11.95,-17.22l5.85 -8.4c0.31,-0.46 0.54,-0.61 0.85,-1.08 1.18,-1.74 2.38,-3.5 3.6,-5.28 1.24,-1.81 2.44,-3.4 3.74,-5.29 2.6,-3.81 5.21,-7.44 7.98,-11.5l7.6 -10.92c0.41,-0.6 0.7,-0.82 1.11,-1.43 2.22,-3.24 4.47,-6.48 6.78,-9.79l-2.68 0zm-51.14 546.18c-1.19,-2.07 -2.35,-4.1 -3.52,-6.17l0 0.15c1.1,1.96 2.2,3.98 3.33,6.02l0.19 0zm51.07 0c-1.27,-1.63 -2.52,-3.24 -3.78,-4.89 -0.75,-0.99 -1.43,-1.68 -2.19,-2.68 -4.64,-6.11 -9.07,-11.55 -13.28,-17.11 -0.35,-0.46 -0.63,-0.64 -0.95,-1.06 -3.69,-4.93 -7.19,-9.13 -10.57,-13.61 -1.12,-1.49 -2.18,-2.7 -3.25,-4.13 -2.12,-2.8 -4.12,-5.28 -6.14,-7.95 -0.26,-0.35 -0.45,-0.43 -0.71,-0.78l-4.97 -6.27 4.93 6.71c0.25,0.34 0.46,0.78 0.73,1.14 2.02,2.68 4.02,5.5 6.13,8.32 2.67,3.55 5.48,7.65 8.36,11.48 0.62,0.83 1.17,1.74 1.78,2.55 1.22,1.62 2.46,3.16 3.71,4.94 0.16,0.23 0.24,0.52 0.43,0.76l3.38 4.51c0.68,0.91 1.28,1.9 1.96,2.8l8.39 11.41c0.77,1.04 1.45,2.14 2.22,3.18l0.51 0.68 3.3 0zm15.76 -514.83c-0.08,0.12 -0.16,0.24 -0.25,0.34l-0.82 1.22c-0.54,0.83 -1.18,1.43 -1.72,2.1l-6.55 8c-1.09,1.33 -2.09,2.76 -3.12,4.02 -2.03,2.47 -4.02,4.9 -5.96,7.28 -1.94,2.36 -3.74,4.77 -5.62,7.05 -7.02,8.56 -13.49,16.8 -19.56,24.19 -0.75,0.91 -1.41,1.88 -2.13,2.77l-5.17 6.29c-0.36,0.43 -0.63,0.94 -0.98,1.36 -1.3,1.59 -2.59,3.15 -3.85,4.68 -1.26,1.54 -2.45,3.13 -3.67,4.62 -4.65,5.64 -8.99,11.21 -13.12,16.21l5.81 -6.74c0.16,-0.2 0.25,-0.14 0.4,-0.33 2.22,-2.78 4.49,-5.27 6.84,-8.11 4.95,-5.97 10.18,-11.94 15.82,-18.74l8 -9.45c0.33,-0.39 0.91,-1.32 1.21,-1.38 0.33,-0.05 4.51,-5.32 4.98,-5.89 1.76,-2.12 3.48,-3.98 5.29,-6.16 7.44,-8.94 15.42,-18.11 24.16,-28.59l0 -4.74zm0 82.76c-14.03,11.66 -26.29,22.41 -37.14,31.38 -1.72,1.42 -3.33,2.94 -4.99,4.31 -1.62,1.33 -3.2,2.65 -4.76,3.93 -0.77,0.64 -1.47,1.39 -2.23,2.02 -0.54,0.45 -6.23,4.94 -6.45,5.39 -0.27,0.55 -5.44,4.58 -5.95,5 -0.65,0.54 -1.24,1.18 -1.87,1.7 -1.23,1.01 -2.44,2.01 -3.63,2.99 -1.19,0.97 -2.3,2.04 -3.44,2.98 -2.23,1.83 -4.36,3.73 -6.44,5.43l0 0.14c6.43,-5.26 13.49,-10.58 21.31,-16.97 1.4,-1.14 2.76,-2.09 4.22,-3.28 1.47,-1.2 2.97,-2.42 4.5,-3.67 0.78,-0.64 1.5,-1.04 2.3,-1.69l6.14 -5c0.39,-0.32 0.91,-0.95 1.29,-1.04 0.8,-0.19 1.73,-1.23 2.58,-1.92 1.8,-1.47 3.64,-2.96 5.51,-4.48 0.98,-0.8 1.88,-1.33 2.86,-2.13 1.97,-1.6 3.97,-3.23 6.03,-4.89 2.12,-1.73 4.19,-3.19 6.4,-4.98 2.24,-1.82 4.53,-3.68 6.88,-5.58 2.27,-1.84 4.53,-3.48 6.91,-5.39l0 -4.24zm-55.41 432.07c-1.5,-2.37 -2.96,-4.72 -4.41,-7.1l0 0.16c1.33,2.19 2.69,4.56 4.07,6.95l0.33 0zm-5.76 0c-0.38,-0.63 -0.75,-1.26 -1.13,-1.91 -1.33,-2.28 -2.64,-4.52 -3.92,-6.73 -0.63,-1.07 -1.22,-1.94 -1.85,-3.02 -0.43,-0.74 -5.19,-9.06 -5.36,-9.14 -0.25,-0.13 -4.52,-7.64 -4.96,-8.41 -0.54,-0.93 -1.05,-1.66 -1.57,-2.55l0 0.14c1.05,1.8 2.11,3.63 3.19,5.48 1.11,1.91 2.2,3.93 3.33,5.87 1.15,1.98 2.33,4 3.52,6.05 1.23,2.11 2.42,4.31 3.69,6.5 1.46,2.5 2.95,5.08 4.47,7.72l0.59 0zm10.72 -546.18c-9.57,17.36 -18.04,33.06 -25.63,46.71l0 0.14c0.26,-0.47 0.48,-0.72 0.76,-1.21l3.99 -7.16c0.56,-1.01 1.08,-1.78 1.64,-2.8 1.13,-2.03 2.28,-4.09 3.44,-6.18 1.2,-2.14 2.35,-4.07 3.59,-6.29 4.14,-7.43 8.49,-15.01 13.13,-23.22l-0.92 0zm50.45 17.1l-9.15 12c-0.47,0.61 -0.83,1.29 -1.28,1.86 -3.46,4.44 -6.7,8.83 -9.92,12.97 -3.03,3.9 -6.08,8.22 -8.93,11.87 -2.83,3.64 -5.51,7.27 -8.18,10.69 -0.33,0.42 -0.6,0.95 -0.94,1.4 -4.07,5.22 -7.96,10.55 -11.66,15.29 -0.59,0.75 -1.1,1.58 -1.66,2.29 -2.18,2.79 -4.24,5.58 -6.3,8.22 -0.52,0.67 -0.98,1.41 -1.48,2.05l-4.34 5.85c3.84,-4.89 7.86,-9.53 12.12,-14.94l5.07 -6.27c0.6,-0.77 1.13,-1.26 1.75,-2.04 2.45,-3.11 4.88,-6.02 7.48,-9.31 0.67,-0.85 1.26,-1.42 1.95,-2.29l8.34 -10.38c0.74,-0.94 1.42,-1.59 2.19,-2.57l4.03 -5.1c0.24,-0.31 0.35,-0.22 0.57,-0.51 4.83,-6.24 9.87,-12.06 15.2,-18.79 1.72,-2.17 3.4,-4.11 5.15,-6.28l0 -6.02zm0 523.07c-22.47,-26.7 -40.54,-47.64 -55.51,-65.48 -0.86,-1.03 -1.65,-1.81 -2.5,-2.82 -2.45,-2.92 -4.82,-5.75 -7.12,-8.49 -1.49,-1.78 -2.92,-3.33 -4.36,-5.05 -1.41,-1.68 -2.79,-3.33 -4.14,-4.95 -1.33,-1.59 -2.59,-2.94 -3.87,-4.48 -1.25,-1.5 -2.48,-2.97 -3.69,-4.41 -1.2,-1.43 -2.33,-2.65 -3.48,-4.02 -1.12,-1.34 -2.23,-2.66 -3.31,-3.96l0 0.13c9.21,11.02 19.93,24.46 32.52,39.58 9.07,10.9 19.25,23.49 30.78,37.37 2.51,3.02 5,6.22 7.66,9.43l12.79 15.41c0.42,0.5 0.69,1.05 1.09,1.53l2.92 3.52c0.07,0.08 0.15,0.22 0.23,0.33l0 -3.64zm0 -372.18c-4.46,2.59 -8.8,5.48 -12.92,7.84 -0.87,0.5 -1.62,1.13 -2.48,1.62l-4.2 2.39c-0.23,0.12 -0.33,0.41 -0.58,0.54 -6.02,3.24 -11.69,7.24 -17.01,10.26 -5.02,2.85 -9.73,6.04 -14.22,8.58 -0.56,0.32 -1.05,0.76 -1.59,1.06l-6.16 3.63c-0.5,0.28 -0.95,0.7 -1.46,0.98l-2.15 1.2c-0.26,0.14 -0.45,0.41 -0.69,0.54l0 0.16c1.9,-1.06 3.79,-1.96 5.79,-3.07 0.52,-0.29 0.98,-0.39 1.5,-0.67l6.41 -3.4c0.57,-0.31 1.09,-0.43 1.68,-0.76l2.6 -1.44c0.32,-0.18 0.55,-0.13 0.87,-0.3 2.43,-1.34 4.86,-2.5 7.43,-3.93 0.67,-0.37 1.26,-0.51 1.93,-0.88 4.39,-2.42 9.01,-4.57 13.87,-7.25 0.42,-0.23 0.72,-0.19 1.14,-0.43 3.2,-1.76 6.41,-3.3 9.82,-5.17 0.89,-0.49 1.67,-0.7 2.57,-1.19l7.84 -4.07 0 -6.25zm0 137.48c-3.86,-0.27 -7.7,-0.16 -11.27,-0.44 -3.66,-0.29 -7.09,-0.35 -10.5,-0.63 -0.82,-0.07 -1.58,0.07 -2.42,0.01l-9.19 -0.55c-0.74,-0.06 -1.41,0.07 -2.16,0.01l-3.67 -0.31c-0.2,-0.02 -0.33,0.15 -0.49,0.15 -1.34,0.01 -2.67,-0.23 -3.97,-0.34 -0.66,-0.06 -1.24,0.07 -1.89,0.02l-7.27 -0.45c-0.6,-0.05 -1.12,0.07 -1.71,0.01 -2.25,-0.19 -4.37,-0.22 -6.5,-0.41 -0.53,-0.05 -1,0.07 -1.52,0.02l-4.46 -0.09c1.95,0.18 3.91,0.58 5.98,0.7 0.14,0.01 0.2,0.19 0.35,0.19l2.82 0.27c0.56,0.05 1.07,0.26 1.62,0.31l6.95 0.83c0.63,0.06 1.21,0.29 1.83,0.35 2.54,0.25 5.09,0.67 7.78,0.94 2.72,0.27 5.63,0.93 8.53,1.22 3.07,0.31 6.16,0.81 9.46,1.14 0.44,0.04 0.76,0.28 1.2,0.33 6.07,0.62 12.55,1.71 19.45,2.43 0.25,0.03 0.53,-0.02 0.78,0.08 0.05,0.02 0.15,0.14 0.25,0.23l0 -6.02zm0 28.16c-5.15,-1.07 -9.96,-1.88 -14.65,-2.87 -2.33,-0.49 -4.5,-0.74 -6.72,-1.21 -2.16,-0.46 -4.27,-0.91 -6.34,-1.35 -0.52,-0.11 -0.96,-0.01 -1.46,-0.12l-7.23 -1.54c-0.94,-0.2 -1.8,-0.2 -2.71,-0.4 -1.77,-0.38 -3.5,-0.75 -5.2,-1.11 -1.68,-0.36 -3.27,-0.53 -4.89,-0.88 -6.1,-1.31 -11.72,-2.2 -16.98,-3.35l-6.36 -1.24c-0.28,-0.06 -0.6,-0.26 -0.85,-0.06 -0.15,0.12 -3.12,-0.66 -3.35,-0.72 -1.1,-0.24 -2.14,-0.33 -3.19,-0.56l0 0.14c4.3,0.95 8.85,2.26 13.76,3.36 1.29,0.29 2.55,0.73 3.89,1.03 1.35,0.31 2.72,0.62 4.12,0.93 0.71,0.16 1.38,0.47 2.12,0.64l4.5 1.02c0.79,0.18 1.54,0.52 2.33,0.7 13.67,3.1 29.76,7.55 49.22,12.06l0 -4.47zm0 12.74c-7.27,-1.95 -13.98,-3.16 -20.33,-4.89 -0.8,-0.22 -1.48,-0.21 -2.27,-0.42l-6.6 -1.62c-4.11,-1.14 -8.13,-1.69 -11.88,-2.74 -0.61,-0.17 -1.22,-0.34 -1.83,-0.51 -0.63,-0.18 -1.17,-0.15 -1.79,-0.32l-2.62 -0.73c-0.31,-0.09 -0.53,0.02 -0.84,-0.07 -1,-0.28 -2.38,-0.89 -3.35,-0.77 -0.51,0.07 -1.1,-0.31 -1.61,-0.45 -0.54,-0.15 -1.07,-0.29 -1.6,-0.45 -0.15,-0.05 -0.23,0.1 -0.36,0.07l-2.72 -0.78c-0.5,-0.14 -0.96,-0.11 -1.47,-0.25 -0.5,-0.14 -0.99,-0.28 -1.48,-0.42 -0.5,-0.14 -0.94,-0.11 -1.43,-0.24 -0.48,-0.14 -0.95,-0.27 -1.42,-0.41l0 0.16c3.31,0.95 6.82,2.44 10.46,3.49 0.54,0.16 1.04,0.47 1.61,0.64 4.5,1.3 9.2,3.29 14.25,4.69 0.31,0.09 0.59,0.36 0.93,0.46 1,0.29 2,0.59 3.02,0.89 0.69,0.2 1.32,0.58 2.04,0.79 0.7,0.21 1.41,0.42 2.12,0.63 0.73,0.22 1.38,0.6 2.11,0.82 5.99,1.78 12.41,4.31 19.26,6.36 0.9,0.27 1.73,0.74 2.67,1.02 0.92,0.28 1.85,0.56 2.79,0.84 0.45,0.14 0.97,0.15 1.42,0.43 0.22,0.13 0.38,0.34 0.66,0.42 0.09,0.03 0.18,0.08 0.26,0.13l0 -6.75zm0 -123.62c-7.25,2.31 -13.94,5.05 -20.29,7 -0.39,0.12 -0.7,0.42 -1.11,0.55l-3.43 1.06c-0.75,0.23 -1.41,0.64 -2.16,0.87 -0.73,0.22 -1.45,0.45 -2.17,0.67 -0.73,0.23 -1.37,0.62 -2.06,0.83 -5.36,1.66 -10.43,3.76 -15.2,5.22 -0.6,0.18 -1.12,0.51 -1.71,0.7 -0.57,0.17 -1.14,0.34 -1.7,0.52 -0.58,0.17 -1.09,0.5 -1.65,0.67 -4.26,1.3 -8.26,2.99 -12.1,4.14l0 0.15c0.48,-0.14 0.9,-0.11 1.38,-0.26 3.39,-1.01 6.96,-1.58 10.67,-2.67l5.06 -1.32c0.6,-0.18 1.13,-0.16 1.75,-0.34 0.59,-0.17 1.19,-0.35 1.79,-0.52 0.63,-0.19 1.21,-0.18 1.83,-0.36l3.33 -0.97c0.2,-0.07 0.28,0.12 0.47,0.05 2.65,-0.88 5.3,-1.35 8.11,-2.17 0.38,-0.11 0.65,0.01 1.02,-0.1l3.31 -0.96c0.78,-0.22 1.45,-0.22 2.24,-0.45 3.88,-1.12 7.93,-1.86 12.15,-3.07 3.35,-0.96 6.89,-1.56 10.47,-2.55l0 -6.71zm-5.64 323.42l-6.9 -8.51c-0.46,-0.58 -1.28,-1.9 -1.7,-2.07 -0.48,-0.2 -5.93,-7.28 -6.53,-8.03 -2.13,-2.66 -4.11,-4.95 -6.14,-7.49 -7.61,-9.54 -14.56,-17.88 -21.04,-26.02 -0.77,-0.96 -1.5,-1.71 -2.27,-2.68 -1.5,-1.88 -2.97,-3.72 -4.41,-5.54 -0.73,-0.91 -1.39,-1.58 -2.11,-2.49 -5.38,-6.76 -10.36,-12.72 -15.05,-18.64l-5.68 -7.02c-0.28,-0.35 -0.5,-0.49 -0.78,-0.84l0 0.14c4.26,5.38 8.76,11.35 13.6,17.48l6.86 8.84c0.34,0.43 0.72,0.77 1.06,1.33l4.26 5.57c1.51,1.91 2.97,3.94 4.53,5.91 6.47,8.2 13.4,17.37 21.01,27.03 1,1.26 1.95,2.67 2.99,3.99l6.34 8.06c1.13,1.44 2.17,2.96 3.33,4.44 1.67,2.13 3.37,4.31 5.08,6.53l3.56 0zm5.64 -474.54c-7.47,7.73 -14.34,15.41 -20.84,22.09 -0.82,0.84 -1.53,1.78 -2.35,2.61 -0.78,0.8 -1.55,1.59 -2.32,2.38 -0.79,0.81 -1.47,1.71 -2.23,2.49 -3.64,3.73 -7.13,7.69 -10.49,11.13 -5.08,5.2 -9.96,10.89 -14.48,15.49 -0.56,0.57 -1.1,1.13 -1.65,1.68 -0.56,0.57 -1.04,1.23 -1.6,1.79 -0.53,0.54 -1.06,1.08 -1.58,1.62 -0.54,0.55 -1.01,1.19 -1.53,1.72l-2.27 2.31c-0.25,0.25 -0.46,0.62 -0.72,0.89l-2.18 2.22c-0.26,0.27 -0.47,0.63 -0.71,0.88l0 0.16c3.9,-3.95 7.94,-7.57 12.28,-11.95 0.3,-0.3 0.53,-0.37 0.82,-0.66l2.57 -2.6c0.6,-0.6 1.12,-0.96 1.74,-1.58 0.6,-0.6 1.2,-1.2 1.8,-1.81 0.63,-0.64 1.18,-1.02 1.81,-1.65 4.43,-4.47 9.13,-8.64 14.05,-13.59 5.21,-5.23 10.77,-10.2 16.63,-16.08 0.88,-0.89 1.69,-1.48 2.6,-2.4 0.9,-0.9 1.8,-1.8 2.71,-2.71 0.95,-0.95 1.79,-1.57 2.75,-2.53l5.21 -4.97 0 -6.94zm0 -68.4l-9.07 12.5c-1.04,1.41 -2,2.92 -2.99,4.26 -3.92,5.31 -7.59,10.48 -11.22,15.38 -0.88,1.19 -1.68,2.47 -2.56,3.66 -5.01,6.76 -9.75,13.55 -14.25,19.62 -0.75,1.02 -1.41,2.09 -2.15,3.08 -2.82,3.8 -5.48,7.56 -8.12,11.12 -0.35,0.47 -0.61,0.99 -0.94,1.44 -4.04,5.43 -7.87,10.92 -11.53,15.83 -0.56,0.75 -1.06,1.58 -1.62,2.33 -2.14,2.87 -4.16,5.74 -6.18,8.45l0 0.15c0.14,-0.19 0.22,-0.13 0.35,-0.31l2.65 -3.56c0.53,-0.71 1.01,-1.2 1.55,-1.92 7.15,-9.57 15.07,-19.32 23.83,-30.99 3.61,-4.81 7.42,-9.51 11.37,-14.78 0.84,-1.12 1.59,-1.93 2.45,-3.06l4.49 -5.97c0.26,-0.35 0.4,-0.32 0.65,-0.66 3.63,-4.96 7.31,-9.51 11.22,-14.7 1.03,-1.36 1.97,-2.4 2.99,-3.75l9.11 -11.88 0 -6.24zm-44.49 -3.24c-2.8,4.87 -5.45,9.63 -8.08,14.19 -16.63,28.87 -30.09,52.5 -41.23,71.81 -1.44,2.49 -2.82,5 -4.19,7.39l-10.98 19.24c4.61,-7.97 9.62,-16.53 15.17,-26.13 0.74,-1.28 1.46,-2.39 2.21,-3.69 12.5,-21.59 27.89,-47.89 47.38,-81.54l0.74 -1.27 -1.03 0zm44.49 415.67c-5.18,-3.09 -10.08,-5.66 -14.81,-8.67 -0.29,-0.18 -0.52,-0.1 -0.84,-0.29l-5.93 -3.56c-2.19,-1.32 -4.25,-2.36 -6.35,-3.62 -4.02,-2.41 -7.78,-4.5 -11.48,-6.73 -0.91,-0.55 -1.75,-0.87 -2.62,-1.4l-5.1 -3.08c-0.84,-0.5 -1.59,-0.79 -2.41,-1.28 -3.14,-1.9 -6.1,-3.53 -9,-5.29l-7.09 -4.14c-0.28,-0.17 -0.72,-0.65 -0.97,-0.57 -0.32,0.11 -3.33,-1.89 -3.71,-2.12 -1.21,-0.74 -2.35,-1.28 -3.52,-2 -2.27,-1.39 -4.43,-2.56 -6.57,-3.86l0 0.13c0.53,0.33 1.02,0.77 1.56,1.09l3.3 2.02c0.57,0.35 1.1,0.83 1.69,1.18 2.36,1.45 4.74,3.06 7.26,4.61l7.78 4.94c0.12,0.08 0.15,0.25 0.26,0.34 1.43,1.02 2.9,1.78 4.38,2.7 1.53,0.94 3.04,2.04 4.64,3.03 3.26,2.02 6.6,4.26 10.15,6.45 0.92,0.57 1.76,1.27 2.7,1.86 6.76,4.19 14.04,9.1 21.95,14.02 4.49,2.8 9.21,6.05 14.15,9.02 0.2,0.12 0.4,0.42 0.56,0.59l0 -5.38zm0 -315.27c-0.18,0.18 -0.43,0.46 -0.78,0.77 -0.45,0.4 -0.9,0.8 -1.35,1.2 -0.46,0.41 -0.81,0.94 -1.29,1.37l-16.09 14.38c-1.53,1.37 -2.95,2.83 -4.43,4.15l-12.21 10.9c-1.28,1.14 -2.46,2.37 -3.7,3.48 -3.57,3.18 -6.99,6.23 -10.28,9.16 -1.08,0.96 -2.08,2.02 -3.14,2.96 -3.04,2.71 -5.96,5.31 -8.77,7.81 -0.92,0.82 -1.77,1.73 -2.67,2.54 -2.62,2.33 -5.14,4.57 -7.58,6.74 -0.8,0.71 -1.55,1.53 -2.34,2.23 -2.28,2.02 -4.48,3.98 -6.61,5.87 -0.69,0.61 -1.36,1.34 -2.05,1.95l-5.81 5.16c-0.32,0.28 -0.59,0.66 -0.91,0.93l-6.06 5.49c0.28,-0.24 0.52,-0.33 0.8,-0.58l6.15 -5.44c0.31,-0.27 0.6,-0.4 0.92,-0.68l6.94 -6.13c0.19,-0.16 0.32,-0.15 0.5,-0.31l8.44 -7.45c0.2,-0.18 0.36,-0.17 0.58,-0.36l4.37 -3.85c1.73,-1.52 3.51,-3.29 5.33,-4.7 0.12,-0.09 0.17,0.02 0.31,-0.11 3.18,-2.93 6.53,-5.75 10,-8.8 0.42,-0.37 1.2,-1.39 1.58,-1.3 0.21,0.05 11.86,-10.29 13.51,-11.8 0.19,-0.18 0.28,-0.05 0.45,-0.2l15.51 -13.62c0.41,-0.36 0.73,-0.43 1.12,-0.78l18.76 -16.45c0.34,-0.3 0.54,-0.31 0.78,-0.46l0 -4.1zm0 26.45c-4.52,3.49 -8.75,6.94 -12.91,10.14 -1.06,0.81 -2,1.75 -3.05,2.55 -5.87,4.51 -11.4,9.14 -16.62,13.14 -0.87,0.66 -1.65,1.44 -2.5,2.1 -3.25,2.49 -6.32,5.03 -9.35,7.32 -0.21,0.16 -0.33,0.43 -0.51,0.57l-3.78 2.88c-0.71,0.54 -1.35,1.2 -2.05,1.73 -8.4,6.39 -15.98,12.93 -22.83,18.11l0 0.14c0.51,-0.39 0.98,-0.6 1.51,-0.99 3.14,-2.37 6.43,-4.54 9.87,-7.13 0.61,-0.46 1.16,-0.72 1.79,-1.18 5,-3.75 10.29,-7.22 16,-11.48 3.75,-2.8 7.7,-5.39 11.82,-8.46 0.87,-0.65 1.66,-1.04 2.55,-1.7 1.32,-0.98 2.66,-1.98 4.02,-2.99 0.49,-0.36 0.88,-0.45 1.36,-0.81 3.8,-2.83 7.65,-5.48 11.77,-8.54 1.07,-0.79 2.04,-1.3 3.14,-2.12l9.76 -7.02 0 -6.25zm0 275.09c-0.21,-0.16 -0.48,-0.18 -0.67,-0.28l-3.36 -1.57c-3.64,-1.95 -7.15,-3.83 -10.54,-5.64 -0.69,-0.37 -1.28,-0.48 -1.97,-0.85 -2.58,-1.38 -5.1,-2.73 -7.55,-4.05 -2.39,-1.28 -4.66,-2.31 -6.95,-3.54 -4.39,-2.36 -8.5,-4.38 -12.49,-6.53l-9.59 -5c-0.45,-0.24 -0.84,-0.28 -1.28,-0.52 -6.52,-3.52 -12.47,-6.44 -18.01,-9.44 -2.43,-1.32 -4.8,-2.41 -7.08,-3.7 -0.16,-0.09 -0.27,-0.01 -0.44,-0.1 -1.18,-0.64 -2.34,-1.28 -3.47,-1.89 -1.13,-0.62 -2.2,-1.07 -3.3,-1.67l0 0.13c2.18,1.19 4.4,2.54 6.74,3.82l7.28 4.13c0.11,0.05 0.14,0.22 0.23,0.29 1.34,0.88 2.71,1.49 4.11,2.25 1.44,0.79 2.84,1.72 4.34,2.54 3.07,1.69 6.2,3.58 9.54,5.42l9.4 5.36c0.44,0.25 1.03,0.33 1.46,0.82 0.91,1.05 1.95,1.25 2.92,1.79 11.7,6.49 25.11,14.53 40.69,23.22l0 -5zm0 39.57c-0.1,-0.05 -0.19,-0.07 -0.26,-0.12 -0.26,-0.18 -0.47,-0.33 -0.67,-0.32 -0.28,0.02 -3.71,-2.62 -4.16,-2.94 -0.48,-0.35 -0.83,-0.38 -1.29,-0.71 -1.01,-0.74 -3.29,-2.72 -3.99,-2.88 -0.94,-0.21 -3.2,-2.13 -4.35,-2.96 -0.22,-0.16 -0.35,-0.04 -0.6,-0.23l-4.78 -3.27c-6.02,-4.37 -11.62,-7.69 -16.94,-11.57 -0.67,-0.49 -1.24,-0.73 -1.89,-1.2 -0.63,-0.46 -1.25,-0.92 -1.87,-1.37 -0.61,-0.45 -1.18,-0.68 -1.81,-1.14 -0.61,-0.45 -1.22,-0.88 -1.82,-1.34 -0.17,-0.13 -0.23,0.02 -0.41,-0.12l-2.6 -1.91c-0.18,-0.13 -0.27,-0.03 -0.42,-0.13l-2.53 -1.87c-0.29,-0.21 -0.51,-0.21 -0.81,-0.43 -0.54,-0.4 -1.08,-0.8 -1.62,-1.19 -0.55,-0.4 -1.02,-0.59 -1.56,-0.98 -3.08,-2.27 -6.04,-3.97 -8.88,-6.08l0 0.15c0.48,0.36 0.91,0.84 1.39,1.19 0.48,0.35 0.96,0.71 1.44,1.07 0.49,0.37 0.94,0.86 1.44,1.23 0.49,0.37 0.99,0.74 1.49,1.11 0.25,0.19 0.45,0.5 0.73,0.7 0.49,0.37 2.02,1.26 2.31,1.82 0.17,0.33 2.05,1.6 2.39,1.85 0.29,0.22 0.51,0.55 0.8,0.77 0.55,0.41 1.1,0.82 1.65,1.23 0.58,0.43 1.08,0.98 1.66,1.41 4.65,3.48 9.57,7.9 14.79,11.82 0.7,0.52 1.31,1.17 2.02,1.71 0.69,0.52 1.39,1.05 2.09,1.58 0.38,0.28 0.65,0.69 1.02,0.96 1.02,0.77 2.29,1.53 3.28,2.47l3.94 3.18c0.23,0.16 0.33,0.46 0.57,0.64 2.35,1.7 4.74,3.79 7.21,5.66 0.87,0.66 1.64,1.45 2.54,2.14 3.4,2.57 6.86,5.62 10.48,8.4l0 -8.34zm-56.08 -441.52c-1.64,3.13 -3.25,6.18 -4.83,9.12 -0.3,0.56 -0.57,1.22 -0.88,1.81l-2.66 4.96c-0.58,1.09 -1.11,2.23 -1.69,3.31 -0.57,1.06 -1.13,2.11 -1.69,3.15 -0.56,1.05 -1.08,2.15 -1.62,3.16l-4.7 9.05c2.56,-4.75 5.22,-9.4 7.97,-14.53 0.59,-1.09 1.12,-1.93 1.71,-3.02l2.64 -4.91c0.32,-0.61 0.58,-0.93 0.9,-1.52 1.89,-3.5 3.82,-7.01 5.79,-10.59l-0.94 0zm17.82 0l-1.89 3.16c-2.19,3.67 -4.26,7.3 -6.33,10.77 -7.77,12.99 -14.79,25.06 -21.26,35.86 -0.77,1.29 -1.5,2.66 -2.27,3.94 -1.48,2.48 -2.94,4.9 -4.36,7.28 -0.71,1.18 -1.36,2.42 -2.06,3.59 -5.25,8.75 -10.06,17.06 -14.57,24.57l-0 0.13c0.56,-0.93 1.08,-1.67 1.64,-2.6l4.33 -7.2c0.3,-0.5 0.58,-0.83 0.9,-1.36 1.23,-2.04 2.47,-4.12 3.75,-6.23 1.3,-2.16 2.6,-4.18 3.96,-6.45 2.8,-4.65 5.66,-9.26 8.7,-14.32l9.56 -15.72c0.13,-0.22 0.18,-0.13 0.33,-0.37 3.63,-6.18 7.41,-12.13 11.37,-18.7 3.21,-5.32 6.5,-10.67 9.95,-16.34l-1.75 0zm38.27 58.66l-0.06 0.08 -1.93 2.33c-12.35,13.48 -23.31,25.84 -33.12,36.52 -2.46,2.68 -4.79,5.4 -7.1,7.92 -2.26,2.46 -4.46,4.85 -6.6,7.18 -0.54,0.59 -1,1.25 -1.53,1.83 -11.07,12.04 -20.7,22.96 -29.18,32.15 -0.18,0.2 -0.31,0.48 -0.5,0.68l-3.51 3.8c-1.3,1.41 -2.54,2.88 -3.79,4.23 -2.42,2.62 -4.71,5.23 -6.95,7.65l6 -6.23c0.24,-0.26 0.69,-0.99 0.91,-0.91 0.15,0.06 1.57,-1.64 1.86,-1.95 4.58,-4.93 9.49,-9.95 14.8,-15.66l8.78 -9.29c0.22,-0.24 0.44,-0.48 0.66,-0.72 0.25,-0.26 0.42,-0.29 0.67,-0.56 7.63,-8.19 16,-16.82 25.38,-26.87l14.01 -14.81c0.76,-0.81 1.41,-1.3 2.17,-2.12 3,-3.2 6.09,-6.51 9.28,-9.92 3.16,-3.38 6.36,-6.59 9.74,-10.19l0 -5.15zm0 123.64c-6.43,3.27 -12.39,6.49 -18.08,9.37 -5.48,2.78 -10.64,5.76 -15.56,8.06 -0.19,0.09 -0.25,0.31 -0.41,0.41 -2.13,1.26 -4.39,2.21 -6.43,3.23 -2.19,1.1 -4.26,2.32 -6.35,3.37 -4,2.01 -7.76,4.06 -11.41,5.89 -0.89,0.45 -1.7,1.02 -2.57,1.45 -5.76,2.88 -11.08,5.84 -16.04,8.31l-6.8 3.53c-0.32,0.16 -0.59,0.43 -0.9,0.58 -2.39,1.19 -4.67,2.45 -6.88,3.54l0 0.13c2.21,-1.09 4.48,-2.08 6.86,-3.26 0.3,-0.15 0.59,-0.15 0.9,-0.31 4.78,-2.35 9.92,-4.59 15.5,-7.32 0.79,-0.39 1.54,-0.6 2.35,-1l4.97 -2.43c0.87,-0.43 1.69,-0.67 2.59,-1.11 3.64,-1.78 7.38,-3.43 11.38,-5.38 3.91,-1.91 8.02,-3.66 12.33,-5.82 0.3,-0.15 0.55,-0.08 0.88,-0.24 10,-4.84 21.08,-9.8 33.67,-15.87l0 -5.14zm0 28.16l-12.8 4.78c-4.08,1.52 -7.9,3.15 -11.66,4.55 -3.59,1.34 -7.04,2.63 -10.37,3.87 -3.23,1.2 -6.27,2.51 -9.28,3.63 -2.88,1.07 -5.66,2.1 -8.35,3.1 -2.62,0.97 -5.09,2.05 -7.55,2.97 -2.36,0.87 -4.65,1.72 -6.87,2.54 -2.16,0.8 -4.22,1.71 -6.27,2.47 -1.97,0.73 -3.89,1.44 -5.75,2.13 -1.82,0.67 -3.56,1.45 -5.29,2.09 -9.41,3.46 -17.51,6.8 -24.57,9.37l0 0.11c9.63,-3.5 21.27,-7.21 35.59,-12.37 18.01,-6.48 41.45,-14.16 73.16,-25.42l0 -3.8zm0 25.27c-1.04,0.3 -2.01,0.72 -3.06,0.98 -1.14,0.29 -2.27,0.58 -3.39,0.86 -0.58,0.15 -1.06,0.48 -1.6,0.62l-4.86 1.22c-0.29,0.07 -0.45,0.33 -0.72,0.39 -1.16,0.25 -4.67,0.91 -5.29,1.49l-4.33 1.11c-0.5,0.13 -0.9,0.43 -1.38,0.54 -0.92,0.23 -1.83,0.45 -2.73,0.68 -0.92,0.23 -1.74,0.63 -2.62,0.84 -0.87,0.22 -1.73,0.43 -2.58,0.64 -0.87,0.21 -1.64,0.59 -2.5,0.8 -6.32,1.56 -12.22,3.71 -17.71,5.04 -0.68,0.16 -1.29,0.48 -1.95,0.64 -0.65,0.15 -1.29,0.31 -1.92,0.46 -0.64,0.15 -1.22,0.45 -1.86,0.61 -0.62,0.15 -1.24,0.3 -1.85,0.44 -0.32,0.08 -0.56,0.29 -0.87,0.37l-2.65 0.63c-0.14,0.03 -0.24,0.22 -0.4,0.25l-2.56 0.61c-0.06,0.01 -0.14,0 -0.2,0.05 -0.08,0.06 -0.1,0.18 -0.2,0.21l-2.42 0.57c-0.28,0.07 -0.5,0.27 -0.78,0.33 -0.52,0.13 -1.04,0.25 -1.56,0.37 -0.53,0.13 -1.01,0.39 -1.52,0.51l0 0.15c0.5,-0.12 1.01,-0.24 1.52,-0.36 0.52,-0.12 1,-0.09 1.54,-0.21 4.31,-1 8.9,-1.44 13.78,-2.55 0.66,-0.15 1.25,-0.12 1.9,-0.27 0.66,-0.15 1.32,-0.3 1.99,-0.45 0.68,-0.15 1.3,-0.13 2,-0.29 0.69,-0.15 1.38,-0.31 2.07,-0.47 0.36,-0.08 0.65,0.03 1.02,-0.06 0.93,-0.21 2.48,-0.88 3.29,-0.74l3.93 -0.71c0.23,-0.05 0.35,0.11 0.56,0.06l3.59 -0.8c0.42,-0.1 0.77,0.01 1.21,-0.09 0.83,-0.18 1.66,-0.37 2.5,-0.55 0.87,-0.19 1.66,-0.18 2.55,-0.38 0.87,-0.19 1.76,-0.39 2.65,-0.58 0.91,-0.2 1.78,-0.2 2.73,-0.4 7.54,-1.66 15.74,-2.63 24.65,-4.53l0 -8.04zm0 14.06l-5.01 0.96c-0.49,0.09 -1.36,-0.04 -1.79,0.43 -0.43,0.46 -5.12,1.08 -6.01,1.24l-6.46 1.41c-0.27,0.04 -0.47,0.29 -0.77,0.34l-4.55 0.84c-0.52,0.09 -0.94,0.37 -1.45,0.46l-4.28 0.78c-0.47,0.09 -0.88,0.35 -1.36,0.44 -0.91,0.17 -1.8,0.33 -2.69,0.49 -0.91,0.16 -1.73,0.5 -2.61,0.66 -0.86,0.16 -1.7,0.31 -2.54,0.46 -0.86,0.16 -1.62,0.47 -2.46,0.63 -0.81,0.14 -1.62,0.29 -2.42,0.43 -0.8,0.14 -1.53,0.45 -2.33,0.59 -5.89,1.06 -11.4,2.69 -16.51,3.58 -4.79,0.83 -9.29,2.21 -13.51,2.93l0 0.14c1.03,-0.17 2.05,-0.21 3.12,-0.38 0.55,-0.09 1.05,-0.03 1.61,-0.12 0.56,-0.09 1.11,-0.19 1.68,-0.28 0.58,-0.1 1.1,-0.03 1.68,-0.13 0.58,-0.1 1.17,-0.19 1.76,-0.29 0.6,-0.1 1.15,-0.04 1.77,-0.14 0.61,-0.1 1.23,-0.2 1.85,-0.3 0.62,-0.1 1.21,-0.04 1.86,-0.15 0.64,-0.11 1.29,-0.21 1.95,-0.32 0.34,-0.06 0.61,0.06 0.95,0l3.06 -0.5c0.34,-0.05 0.64,0.06 1,0.01l3.22 -0.53c0.17,-0.03 0.31,0.12 0.51,0.09 0.55,-0.09 3.71,-0.78 3.93,-0.56 0.35,0.33 3.57,-0.65 4.4,-0.61 0.13,0.01 0.15,0.16 0.3,0.14l4.36 -0.7c0.22,-0.04 0.38,0.13 0.63,0.08l3.96 -0.62c0.48,-0.08 0.86,0.05 1.34,-0.02l4.21 -0.66c0.48,-0.07 0.91,0.05 1.42,-0.03 0.97,-0.15 1.96,-0.3 2.95,-0.46 1.04,-0.16 2,-0.11 3.04,-0.27 1.04,-0.16 2.09,-0.32 3.15,-0.49 1.11,-0.17 2.12,-0.12 3.25,-0.29 1.11,-0.17 2.23,-0.34 3.36,-0.52 1.17,-0.18 2.26,-0.13 3.48,-0.32 2.29,-0.35 4.57,-0.5 6.93,-0.83l0 -7.62zm0 14.55c-6.16,0.74 -11.87,1.62 -17.36,2.26 -5.25,0.62 -10.3,1.6 -15,2.14 -4.53,0.52 -8.76,1.19 -12.87,1.66 -0.49,0.06 -0.95,0.28 -1.46,0.34l-4.29 0.49c-0.94,0.11 -1.81,0.37 -2.71,0.47l-10.07 1.28c-0.8,0.09 -1.52,0.33 -2.3,0.41 -3,0.33 -5.82,0.79 -8.59,1.09 -0.68,0.07 -1.3,0.28 -1.97,0.36 -4.12,0.44 -7.99,1.13 -11.64,1.51 -0.29,0.03 -0.53,0.18 -0.81,0.21l0 0.13c2.21,-0.23 4.45,-0.33 6.83,-0.57 2.43,-0.25 4.99,-0.23 7.62,-0.49 5.61,-0.57 11.68,-0.7 18.32,-1.35l8.19 -0.62c0.98,-0.09 1.92,-0.01 2.94,-0.1 4.1,-0.39 8.34,-0.61 12.88,-1.04 0.61,-0.06 1.12,0.09 1.72,0.03 8.65,-0.8 18.17,-1.26 28.69,-2.22 0.44,-0.04 0.73,0.16 1.16,0.12 0.21,-0.02 0.41,-0.04 0.62,-0.05 0.03,-0 0.07,0.01 0.11,0.02l0 -6.06zm0 54.54c-12.02,-1.68 -22.68,-2.58 -32.32,-3.96 -0.32,-0.05 -0.55,0.12 -0.84,0.07l-5.82 -0.84c-1.07,-0.15 -2.07,-0.12 -3.13,-0.27 -1.03,-0.15 -2.04,-0.3 -3.04,-0.44 -1.01,-0.15 -1.94,-0.11 -2.91,-0.25 -7.31,-1.07 -14.01,-1.58 -20.15,-2.5 -0.74,-0.11 -1.43,-0.07 -2.16,-0.17 -0.71,-0.11 -1.42,-0.21 -2.12,-0.32 -0.71,-0.11 -1.36,-0.06 -2.04,-0.16 -5.19,-0.79 -9.97,-1.11 -14.44,-1.8l0 0.13c0.54,0.09 1.05,0.29 1.61,0.38 3.98,0.62 8.25,1.71 12.79,2.44l6.33 1.17c0.75,0.12 1.46,0.39 2.23,0.51l3.51 0.57c0.41,0.07 0.77,0.28 1.19,0.36l4.39 0.71c0.24,0.04 0.4,0.23 0.63,0.27 7.26,1.12 15.17,3.03 23.96,4.51 9.58,1.61 20.36,4.24 32.32,6.31l0 -6.71zm-33.28 227.3c-8.19,-11.78 -15.6,-22.01 -22.45,-31.94 -0.23,-0.34 -0.38,-0.39 -0.61,-0.72l-4.36 -6.32c-0.42,-0.61 -0.77,-0.95 -1.18,-1.55 -1.18,-1.71 -2.34,-3.4 -3.48,-5.05 -0.76,-1.1 -1.46,-1.97 -2.22,-3.06 -0.73,-1.06 -1.45,-2.11 -2.17,-3.15 -0.72,-1.05 -1.39,-1.86 -2.09,-2.88 -4.66,-6.77 -9.03,-12.71 -13.12,-18.65 -1.14,-1.66 -2.22,-3.1 -3.31,-4.68l5.02 7.58c0.6,0.88 1.16,1.83 1.77,2.72 0.6,0.88 1.21,1.76 1.82,2.66 0.63,0.92 1.23,1.93 1.86,2.85l2.91 4.24c0.35,0.51 0.65,1.1 1,1.6 5.59,8.17 11.6,17.43 18.2,27.09 0.87,1.28 1.7,2.66 2.6,3.98 0.89,1.31 1.8,2.64 2.71,3.98 0.94,1.38 1.83,2.85 2.78,4.25 3.63,5.32 7.43,11.05 11.41,17.05l2.9 0zm1.48 -546.18l-4.01 6.46c-0.55,0.89 -1.02,1.84 -1.55,2.68l-4.55 7.35c-0.52,0.84 -0.96,1.73 -1.46,2.54l-4.25 6.85c-0.49,0.79 -0.89,1.61 -1.37,2.38 -1.34,2.17 -2.67,4.3 -3.97,6.4 -0.45,0.73 -0.83,1.5 -1.28,2.23 -1.26,2.03 -2.5,4.02 -3.72,5.99 -0.41,0.67 -0.76,1.4 -1.18,2.06l-3.49 5.62c-0.39,0.63 -0.73,1.33 -1.13,1.97 -0.74,1.2 -1.48,2.38 -2.21,3.55 -0.73,1.18 -1.42,2.44 -2.13,3.57 -0.7,1.12 -1.39,2.24 -2.08,3.34 -0.7,1.12 -1.35,2.32 -2.02,3.4 -0.66,1.06 -1.32,2.11 -1.97,3.15 -0.65,1.05 -1.26,2.17 -1.89,3.18 -0.62,1 -1.24,1.99 -1.86,2.98 -0.63,1.01 -1.2,2.07 -1.81,3.04 -0.59,0.95 -1.18,1.89 -1.76,2.82 -0.59,0.95 -1.14,1.96 -1.71,2.88 -0.56,0.9 -1.12,1.79 -1.67,2.67 -0.56,0.9 -1.08,1.86 -1.62,2.73l0 0.13c0.54,-0.86 1.08,-1.73 1.62,-2.6 0.56,-0.9 1.08,-1.6 1.65,-2.51 0.56,-0.91 1.14,-1.82 1.71,-2.74 0.6,-0.95 1.15,-1.7 1.76,-2.67 0.6,-0.96 1.2,-1.92 1.81,-2.89 0.62,-1 1.2,-1.78 1.84,-2.8 0.63,-1.01 1.27,-2.02 1.91,-3.05 0.66,-1.06 1.28,-1.9 1.96,-2.99 0.67,-1.06 1.34,-2.13 2.02,-3.22 0.69,-1.11 1.35,-2 2.06,-3.14 0.71,-1.13 1.42,-2.27 2.14,-3.42 0.74,-1.18 1.44,-2.14 2.21,-3.36 0.75,-1.2 1.51,-2.41 2.28,-3.63 0.79,-1.25 1.53,-2.28 2.35,-3.58 6.62,-10.54 13.86,-21.38 21.76,-33.92 2.77,-4.39 5.63,-8.86 8.6,-13.46l-2.99 0zm31.8 511.56c-7.66,-8.06 -14.7,-15.27 -21.37,-22.3 -0.82,-0.87 -1.54,-1.43 -2.36,-2.3l-19.15 -20.02c-1.27,-1.34 -2.48,-2.44 -3.73,-3.77l-6.57 -6.95c-0.17,-0.19 -0.25,-0.08 -0.41,-0.27 -6.42,-7.07 -12.35,-12.76 -17.81,-18.56 -0.87,-0.93 -1.73,-1.84 -2.58,-2.74 -0.86,-0.91 -1.66,-1.62 -2.49,-2.49 -3.2,-3.4 -6.21,-6.46 -9.12,-9.55l-6.06 -6.31c-0.64,-0.68 -1.25,-1.2 -1.89,-1.88 -2.45,-2.61 -4.76,-4.95 -7.02,-7.35l0 0.11c0.56,0.6 1.09,1.28 1.66,1.89 4.12,4.4 8.54,9.37 13.32,14.49 0.36,0.39 0.68,0.87 1.06,1.26l10.54 11.43c0.86,0.92 1.69,1.96 2.58,2.92l5.14 5.51c0.13,0.14 0.2,0.38 0.35,0.53 5.93,6.18 12.35,13.59 19.34,21.12 1.23,1.33 2.49,2.67 3.76,4.04 1.31,1.41 2.57,2.95 3.91,4.39 5.54,5.97 11.35,12.42 17.65,19.22l17.24 18.8c0.49,0.53 0.91,1.2 1.44,1.77l2.23 2.41c0.13,0.15 0.26,0.35 0.37,0.47l0 -5.88zm0 -357.21c-14.01,8.97 -26.24,17.37 -37.07,24.26 -6.19,3.93 -11.97,7.96 -17.35,11.37 -1.06,0.67 -2.04,1.45 -3.05,2.1l-5.8 3.69c-0.4,0.62 -4.85,3.2 -5.35,3.51 -0.87,0.55 -1.68,1.21 -2.53,1.75 -10.04,6.33 -18.74,12.46 -26.34,17.22l0 0.12c2.8,-1.75 5.75,-3.34 8.85,-5.27 0.65,-0.41 1.28,-0.67 1.93,-1.07 1,-0.62 2.01,-1.25 3.04,-1.89 0.32,-0.2 0.74,-0.69 1.05,-0.64 0.39,0.06 1.63,-0.88 2.11,-1.19 0.73,-0.45 1.47,-0.91 2.22,-1.37 0.76,-0.48 1.49,-0.78 2.28,-1.27 10.88,-6.74 23.68,-13.82 38.92,-23.18 5.28,-3.24 10.95,-6.33 16.93,-9.99 6.3,-3.86 12.95,-7.72 20.17,-12.12l0 -6.04zm0 301.78c-13,-10.27 -24.41,-18.71 -34.65,-26.83 -1.21,-0.96 -2.35,-1.69 -3.55,-2.64 -1.16,-0.92 -2.31,-1.83 -3.44,-2.73 -1.13,-0.9 -2.17,-1.55 -3.28,-2.43 -1.08,-0.86 -2.15,-1.71 -3.2,-2.55 -1.05,-0.84 -2.03,-1.44 -3.04,-2.25l-8.54 -6.64c-6.82,-5.44 -13.09,-9.86 -18.8,-14.44 -0.68,-0.55 -1.36,-1.09 -2.03,-1.63 -0.67,-0.53 -1.29,-0.9 -1.96,-1.43 -0.64,-0.52 -1.28,-1.03 -1.91,-1.53 -0.64,-0.51 -1.23,-0.86 -1.86,-1.36 -0.91,-0.73 -1.8,-1.45 -2.68,-2.16 -0.3,-0.24 -0.56,-0.33 -0.87,-0.57 -0.86,-0.69 -1.7,-1.37 -2.53,-2.04 -0.29,-0.23 -0.54,-0.31 -0.82,-0.53l0 0.12c4.53,3.66 9.38,7.98 14.67,12.27 0.69,0.56 1.36,1.25 2.08,1.83 0.71,0.58 1.43,1.16 2.16,1.75 0.75,0.61 1.45,1.32 2.21,1.95 0.77,0.62 1.54,1.25 2.32,1.89 0.8,0.65 1.56,1.42 2.37,2.07 5.88,4.79 12.28,10.49 19.24,16.17 5.37,4.38 11.09,9.43 17.23,14.46 1.29,1.06 2.54,2.27 3.89,3.38 1.34,1.09 2.69,2.21 4.06,3.33 1.43,1.17 2.78,2.48 4.25,3.69 1.46,1.19 2.94,2.41 4.44,3.65 1.57,1.29 3.06,2.73 4.65,4.04 0.59,0.49 8.26,6.53 8.69,7.28 0.2,0.35 0.43,0.45 0.64,0.62 0.06,0.05 0.15,0.17 0.23,0.26l0 -6.99zm0 13.19l-4.39 -3.75c-1.56,-1.33 -2.98,-2.33 -4.5,-3.62 -11.12,-9.49 -21.08,-17.23 -30.05,-24.93 -2.12,-1.82 -4.14,-3.38 -6.18,-5.13 -1.01,-0.87 -1.93,-1.49 -2.91,-2.33 -0.96,-0.82 -1.9,-1.64 -2.84,-2.44 -0.93,-0.8 -1.8,-1.38 -2.72,-2.17 -0.89,-0.77 -1.77,-1.53 -2.65,-2.28 -0.44,-0.38 -0.81,-0.53 -1.25,-0.92l-3.75 -3.23c-0.21,-0.19 -0.36,-0.16 -0.59,-0.35l-3.82 -3.3c-0.12,-0.11 -0.18,-0.01 -0.28,-0.08 -1.02,-0.63 -2.3,-1.99 -3.34,-2.89 -0.38,-0.33 -0.7,-0.46 -1.07,-0.77 -0.71,-0.62 -1.42,-1.23 -2.12,-1.83 -0.7,-0.61 -1.36,-1.04 -2.04,-1.62 -0.67,-0.58 -1.33,-1.15 -1.98,-1.72 -0.66,-0.58 -1.27,-0.96 -1.92,-1.53 -3.7,-3.22 -7.2,-5.85 -10.52,-8.74l0 0.13c2.19,1.91 4.45,4.15 6.8,6.21 0.61,0.53 1.19,1.17 1.8,1.71 0.62,0.55 1.25,1.1 1.88,1.65 0.65,0.57 1.26,1.24 1.92,1.83 0.66,0.58 1.32,1.16 2,1.75 0.35,0.3 0.64,0.71 0.99,1.01l3.15 2.76c0.2,0.17 0.33,0.44 0.52,0.61 0.58,0.5 3.6,2.95 3.88,3.52 0.19,0.38 3.04,2.71 3.51,3.12 0.42,0.37 0.79,0.85 1.19,1.21l3.75 3.3c0.43,0.38 0.82,0.88 1.27,1.28 0.87,0.76 1.74,1.53 2.63,2.31 0.92,0.81 1.78,1.74 2.72,2.57 0.93,0.82 1.88,1.66 2.84,2.5 0.97,0.86 1.9,1.85 2.91,2.74 8.32,7.35 17.52,16.26 27.74,25.33 1.39,1.24 2.72,2.62 4.13,3.87 1.42,1.27 2.87,2.55 4.34,3.86 1.51,1.34 2.94,2.82 4.5,4.22l4.43 3.95 0 -7.82zm0 -109.3c-14.44,-4.83 -26.94,-8.44 -38.02,-12.19 -0.68,-0.23 -1.27,-0.25 -1.92,-0.47 -1.9,-0.64 -3.76,-1.28 -5.58,-1.89 -1.2,-0.41 -2.32,-0.61 -3.5,-1.02 -1.14,-0.39 -2.27,-0.77 -3.38,-1.15 -1.11,-0.38 -2.14,-0.57 -3.22,-0.93 -7.05,-2.41 -13.5,-4.16 -19.41,-6.19 -3.93,-1.35 -7.64,-2.36 -11.14,-3.57 -0.68,-0.24 -1.33,-0.33 -2,-0.57 -0.66,-0.23 -1.31,-0.46 -1.95,-0.68 -0.65,-0.23 -1.26,-0.31 -1.89,-0.53 -0.62,-0.22 -1.23,-0.43 -1.83,-0.64 -0.61,-0.21 -1.18,-0.29 -1.77,-0.49l-2.57 -0.9c-0.29,-0.1 -0.55,-0.08 -0.83,-0.17l0 0.12c4.59,1.61 9.53,3.74 14.94,5.66 0.71,0.25 1.4,0.63 2.14,0.9 0.74,0.26 1.48,0.53 2.23,0.79 0.77,0.28 1.5,0.68 2.29,0.96 0.79,0.28 1.59,0.57 2.41,0.86 0.83,0.29 1.62,0.72 2.46,1.03l8 3.02c7.9,2.84 16.75,6.71 26.61,10.29 1.32,0.48 2.67,0.97 4.03,1.46 1.4,0.51 2.74,1.19 4.19,1.72 1.45,0.53 2.93,1.07 4.43,1.61 1.56,0.57 3.05,1.31 4.65,1.9 2.41,0.88 4.88,1.79 7.42,2.71 0.88,0.32 1.66,0.82 2.57,1.16l10.66 4.15 0 -6.94zm0 27.87c-0.11,-0.03 -0.25,-0.05 -0.43,-0.14 -0.71,-0.33 -2.15,-1.17 -2.69,-1.07 -0.37,0.07 -10.04,-4.67 -10.25,-4.77 -4.26,-2 -8.24,-3.66 -12.14,-5.49 -7.34,-3.45 -14.05,-6.42 -20.35,-9.38 -1.5,-0.7 -2.92,-1.2 -4.37,-1.89 -9.44,-4.45 -17.81,-8.09 -25.32,-11.66 -0.51,-0.24 -0.98,-0.32 -1.48,-0.56 -7.06,-3.35 -13.4,-6.11 -19.16,-8.85 -0.37,-0.18 -0.7,-0.21 -1.06,-0.39 -5.14,-2.45 -9.82,-4.47 -14.13,-6.54l0 0.11c0.14,0.07 0.26,0.23 0.4,0.3l3 1.44c3.64,1.76 7.56,3.98 11.78,5.92 0.1,0.05 0.16,0.2 0.25,0.24 2.91,1.26 5.98,3.03 9.21,4.6l10.99 5.48c0.09,0.04 0.1,0.17 0.17,0.24 0.48,0.46 1.04,0.51 1.53,0.75l4.85 2.37c1.14,0.56 2.25,1.25 3.41,1.82l18.78 9.37c0.4,0.19 0.72,0.53 1.11,0.72 6.29,3.09 13.01,6.59 20.34,10.19 7.42,3.66 15.45,8.02 24.19,12.14 0.35,0.16 0.54,0.5 0.89,0.67 0.16,0.08 0.33,0.24 0.47,0.32l0 -5.96zm0 109.3c-0.11,-0.09 -0.23,-0.16 -0.36,-0.29l-11.15 -10.78c-1.89,-1.87 -3.64,-3.39 -5.46,-5.18 -13.25,-13.08 -24.82,-23.97 -34.99,-34.04 -1.2,-1.19 -2.33,-2.15 -3.51,-3.32 -1.14,-1.13 -2.26,-2.24 -3.36,-3.33 -1.1,-1.09 -2.13,-1.95 -3.2,-3.01 -1.56,-1.55 -3.09,-3.06 -4.58,-4.55 -0.51,-0.51 -0.96,-0.81 -1.46,-1.3 -7.35,-7.3 -13.94,-13.44 -19.95,-19.43 -0.72,-0.72 -1.4,-1.26 -2.1,-1.96 -4.65,-4.64 -8.96,-8.59 -12.96,-12.59l0 0.12c0.56,0.56 1.11,1.12 1.68,1.68 0.57,0.58 1.13,1.25 1.72,1.84 0.59,0.59 1.19,1.19 1.79,1.79 0.62,0.62 1.21,1.33 1.84,1.96 0.95,0.95 1.91,1.92 2.88,2.9 0.34,0.34 0.64,0.77 0.98,1.11l3.08 3.1c0.3,0.3 0.8,0.54 1.05,1.15 0.12,0.28 4.33,4.39 4.45,4.51 0.39,0.39 0.75,0.89 1.15,1.29l3.62 3.65c0.84,0.84 1.65,1.8 2.51,2.67 0.86,0.87 1.74,1.75 2.63,2.65 0.91,0.92 1.79,1.95 2.71,2.89 7.82,7.9 16.58,17.23 26.43,27.21 1.34,1.36 2.63,2.85 4.03,4.26 11.68,11.84 25.01,25.97 40.54,41.77l0 -6.77zm-7.74 -497.18c-11.64,16.75 -22.02,32.04 -31.3,45.2 -10.08,14.3 -19.07,27.71 -27.09,39.06 -7.22,10.22 -13.78,20.05 -19.72,28.43 -5.43,7.66 -10.43,15.19 -15.01,21.64l0 0.11c4.58,-6.43 9.57,-12.94 14.99,-20.54 5.94,-8.32 12.5,-16.92 19.72,-27 8.02,-11.2 17.01,-23.07 27.08,-37.1 10.61,-14.78 22.67,-30.84 36.39,-49.8l-5.06 0zm-33.15 546.18l-0.41 -0.62c-10.45,-15.78 -19.74,-29.16 -27.95,-41.59 -0.97,-1.46 -1.92,-2.91 -2.86,-4.33 -0.94,-1.43 -1.82,-2.61 -2.73,-3.99 -0.89,-1.35 -1.78,-2.69 -2.65,-4.01 -0.88,-1.33 -1.7,-2.44 -2.54,-3.72 -1.24,-1.87 -2.45,-3.71 -3.64,-5.52 -0.4,-0.61 -0.76,-1.01 -1.16,-1.62 -1.34,-2.03 -2.65,-4.02 -3.93,-5.96 -0.2,-0.3 -0.35,-0.39 -0.53,-0.68 -5.5,-8.35 -10.49,-15.56 -15.09,-22.57l0 0.11c0.56,0.85 1.1,1.78 1.67,2.66 0.57,0.87 1.15,1.75 1.73,2.64 0.6,0.91 1.17,1.9 1.78,2.83 3.11,4.74 6.4,10 9.88,15.32 4.44,6.79 9.25,14.54 14.41,22.43 0.9,1.38 1.82,2.78 2.75,4.21 0.95,1.45 1.88,3.02 2.86,4.53 0.98,1.5 1.98,3.02 2.98,4.56 1.04,1.58 2.03,3.26 3.09,4.89 1.07,1.63 2.15,3.29 3.25,4.97 1.13,1.73 2.22,3.57 3.37,5.33 1.75,2.69 3.55,5.44 5.38,8.25 0.64,0.98 1.21,2.03 1.86,3.01l5.79 8.88 2.7 0zm40.89 -117.55c-14.56,-9.6 -27.27,-17.42 -38.41,-24.81 -1.51,-1 -2.93,-1.76 -4.4,-2.74 -10.74,-7.14 -20.15,-12.92 -28.55,-18.52 -0.49,-0.32 -0.94,-0.48 -1.44,-0.81l-4.23 -2.83c-0.9,-0.6 -1.76,-1.04 -2.65,-1.64 -0.87,-0.58 -1.73,-1.16 -2.58,-1.73 -0.84,-0.56 -1.63,-0.96 -2.45,-1.51l-6.89 -4.49c-4.17,-2.8 -8.08,-5.08 -11.71,-7.53 -0.59,-0.39 -1.17,-0.79 -1.74,-1.18 -0.57,-0.39 -1.11,-0.64 -1.68,-1.02l0 0.11c4.61,3.12 9.61,6.87 15.13,10.62 0.37,0.25 0.7,0.6 1.07,0.86 1.12,0.76 2.25,1.54 3.41,2.33 0.79,0.54 1.55,1.18 2.36,1.74 0.82,0.56 1.64,1.12 2.48,1.69 0.85,0.58 1.68,1.29 2.55,1.88 7.37,5.04 15.62,11.14 24.9,17.51 1.26,0.86 2.48,1.87 3.79,2.77 1.31,0.9 2.64,1.82 4,2.75 1.4,0.96 2.75,2.07 4.18,3.05 12.23,8.43 26.31,18.73 42.86,30.19l0 -6.71zm0 -343.58c-15.49,15 -28.89,28.72 -40.53,39.94 -10.35,9.97 -19.53,19.45 -27.69,27.28 -7.33,7.03 -13.96,13.94 -19.95,19.66 -5.47,5.22 -10.48,10.49 -15.07,14.85l0 0.11c4.59,-4.36 9.6,-8.62 15.06,-13.78 5.99,-5.67 12.62,-11.36 19.95,-18.25 8.16,-7.68 17.34,-15.64 27.68,-25.33 11.65,-10.92 25.05,-22.66 40.56,-37.11l0 -7.37zm-24.66 -85.05c-5.49,8.68 -10.65,16.82 -15.51,24.36 -1.38,2.14 -2.67,4.31 -4,6.37 -1.3,2.01 -2.58,3.99 -3.84,5.94 -1.25,1.94 -2.42,3.92 -3.64,5.81 -1.19,1.83 -2.35,3.64 -3.5,5.43 -0.58,0.91 -1.1,1.87 -1.66,2.74l-4.88 7.55c-0.28,0.43 -0.49,0.92 -0.76,1.33l-3.81 5.89c-0.42,0.64 -1.1,1.41 -1.46,2.37 -0.16,0.42 -4.4,6.83 -4.88,7.58 -0.23,0.36 -0.43,0.8 -0.67,1.18l-3.89 6.02c-0.43,0.66 -0.81,1.39 -1.24,2.06 -0.82,1.27 -1.63,2.52 -2.43,3.76 -0.81,1.24 -1.55,2.53 -2.33,3.74 -0.76,1.18 -1.52,2.34 -2.27,3.49 -0.74,1.15 -1.45,2.37 -2.19,3.5 -5.47,8.43 -10.46,16.59 -15.06,23.66l0 0.11c0.56,-0.86 1.11,-1.58 1.67,-2.45 0.57,-0.88 1.15,-1.76 1.74,-2.66 0.6,-0.91 1.17,-1.67 1.78,-2.6 0.61,-0.94 1.22,-1.88 1.85,-2.84 0.63,-0.96 1.25,-1.78 1.9,-2.78 0.65,-1 1.31,-2 1.97,-3.02 0.34,-0.51 0.65,-0.86 0.99,-1.4 0.34,-0.52 0.69,-1.05 1.04,-1.58 0.69,-1.06 1.42,-2.39 2.13,-3.26l3.85 -5.76c0.21,-0.32 0.37,-0.43 0.57,-0.74l3.55 -5.42c0.42,-0.64 0.79,-1.08 1.22,-1.73 0.83,-1.27 1.67,-2.56 2.53,-3.86 0.88,-1.34 1.72,-2.48 2.61,-3.84 0.9,-1.37 1.81,-2.76 2.73,-4.17 0.95,-1.45 1.86,-2.69 2.84,-4.19 8.15,-12.43 17.27,-25.67 27.56,-41.33 2.79,-4.24 5.63,-8.37 8.62,-12.93 1.55,-2.36 3.03,-4.42 4.63,-6.85 1.61,-2.44 3.24,-4.93 4.91,-7.46 0.45,-0.69 0.9,-1.35 1.34,-2.01l-4 0zm24.66 524.3l-10.86 -12.09c-1.18,-1.32 -2.27,-2.32 -3.45,-3.63 -2.25,-2.5 -4.44,-4.95 -6.59,-7.34 -2.12,-2.37 -4.11,-4.38 -6.13,-6.64 -1.97,-2.19 -3.89,-4.34 -5.77,-6.44 -1.86,-2.07 -3.6,-3.83 -5.4,-5.84 -9.91,-11.07 -18.74,-20.44 -26.67,-29.31 -4.85,-5.42 -9.37,-10.2 -13.63,-14.98 -1.03,-1.16 -2.01,-2.12 -3.01,-3.24 -0.98,-1.1 -1.94,-2.18 -2.89,-3.24 -0.94,-1.06 -1.83,-1.92 -2.75,-2.96 -0.9,-1.01 -1.79,-2 -2.66,-2.98 -0.86,-0.96 -1.68,-1.76 -2.52,-2.71 -0.82,-0.93 -1.63,-1.84 -2.43,-2.74 -0.4,-0.45 -0.76,-0.74 -1.16,-1.18l-3.41 -3.85c-0.19,-0.21 -0.34,-0.27 -0.53,-0.48l-3.55 -4.01c-0.06,-0.06 -0.07,0.03 -0.12,-0.01 -0.33,-0.26 -0.68,-0.77 -1,-1.14l-1.97 -2.22c-0.33,-0.37 -0.63,-0.6 -0.95,-0.96l-2.75 -3.11c-0.3,-0.34 -0.58,-0.55 -0.88,-0.89 -0.58,-0.66 -1.16,-1.31 -1.73,-1.95 -0.57,-0.65 -1.11,-1.16 -1.67,-1.79l0 0.11c0.55,0.62 1.11,1.25 1.67,1.89 0.57,0.65 1.13,1.39 1.72,2.05 3.64,4.13 7.55,8.91 11.78,13.7 3.01,3.42 6.17,7.26 9.53,11.09 0.88,1 1.74,2.11 2.63,3.13 0.91,1.03 1.83,2.08 2.76,3.15 0.96,1.1 1.89,2.29 2.87,3.41 1,1.14 2.01,2.29 3.04,3.46 1.04,1.19 2.07,2.5 3.15,3.74 1.09,1.24 2.2,2.51 3.32,3.79 0.58,0.66 1.11,1.41 1.7,2.09l5.46 6.24c0.32,0.37 0.59,0.83 0.92,1.21l6.72 7.68c0.12,0.14 0.14,0.31 0.25,0.46 0.68,0.94 1.41,1.61 2.11,2.41 1.45,1.66 2.93,3.35 4.44,5.08 0.78,0.89 1.52,1.91 2.29,2.8l7.31 8.38c0.87,1 1.68,2.11 2.58,3.14 1.77,2.03 3.58,4.11 5.42,6.22 1.92,2.2 3.78,4.53 5.77,6.81 2.01,2.31 4.06,4.66 6.16,7.07 2.16,2.48 4.28,5.12 6.55,7.73 4.6,5.29 9.33,10.93 14.35,16.71l0 -7.82zm0 -152c-2.72,-1.05 -5.27,-1.85 -7.85,-2.87 -2.61,-1.03 -5.15,-2.03 -7.62,-3.01 -0.62,-0.24 -1.14,-0.24 -1.76,-0.49 -12.91,-5.1 -24.18,-9.02 -34.15,-12.99 -0.82,-0.33 -1.57,-0.46 -2.38,-0.78 -1.56,-0.63 -3.1,-1.24 -4.61,-1.84 -0.76,-0.3 -1.45,-0.42 -2.19,-0.72 -5.59,-2.24 -10.75,-4.01 -15.58,-5.96l-5.84 -2.21c-0.28,-0.11 -0.51,-0.07 -0.78,-0.18 -4.09,-1.65 -7.88,-2.94 -11.48,-4.4l-4.4 -1.67c-0.19,-0.08 -0.43,-0.33 -0.61,-0.24 -0.37,0.18 -0.79,-0.21 -1.17,-0.37 -4.14,-1.69 -7.98,-2.94 -11.56,-4.41 -0.16,-0.07 -0.3,-0.02 -0.45,-0.08l-2.29 -0.94c-0.3,-0.12 -0.58,-0.14 -0.88,-0.26 -1.16,-0.48 -2.27,-0.84 -3.37,-1.3l0 0.1c1.1,0.46 2.21,1.02 3.36,1.5 0.3,0.13 0.57,0.34 0.87,0.47l1.82 0.76c0.32,0.13 0.61,0.36 0.93,0.49 2.58,1.08 5.28,2.44 8.15,3.65l4.28 1.92c0.11,0.05 0.18,0.2 0.29,0.24 5.01,2.06 10.48,4.9 16.51,7.41 0.14,0.06 0.23,0.24 0.38,0.3 4.23,1.77 8.76,4.04 13.59,6.12 2.64,1.14 5.35,2.46 8.21,3.69 0.73,0.31 1.42,0.77 2.17,1.1l4.63 2c0.81,0.35 1.56,0.85 2.4,1.21 6.81,2.95 14.16,6.51 22.26,10.03l11.82 5.36c0.62,0.27 1.15,0.7 1.79,0.98 2.48,1.08 5.02,2.2 7.62,3.33 2.58,1.13 5.16,2.46 7.89,3.68l0 -9.61z"/>
 </g>
</svg>
