<svg width="123px" height="31px" viewBox="0 0 123 31" fill="none" xmlns="http://www.w3.org/2000/svg"><style>*, ::before, ::after { box-sizing: inherit; }
*, ::before, ::after { box-sizing: inherit; }</style><g id="Aptos" clip-path="url(#clip0_1709_12546)"><path id="Vector" d="M94.1826 10.9056H91.6722C91.3803 10.9056 91.1017 10.7798 90.9075 10.5611L89.8899 9.41157C89.7384 9.24055 89.5198 9.1416 89.2913 9.1416C89.0629 9.1416 88.8442 9.23933 88.6927 9.41157L87.8193 10.3986C87.5334 10.7211 87.123 10.9068 86.6918 10.9068H72.9537C72.5628 12.0221 72.3074 13.1997 72.2061 14.4226H85.1758C85.4042 14.4226 85.6216 14.3297 85.7792 14.1648L86.9874 12.9053C87.1376 12.7478 87.3465 12.6586 87.564 12.6586H87.6141C87.8425 12.6586 88.0612 12.7563 88.2127 12.9286L89.2302 14.0781C89.4245 14.2967 89.7018 14.4226 89.995 14.4226H100.581C100.48 13.1997 100.225 12.0221 99.8337 10.9068H94.1826V10.9056Z" fill="white"></path><path id="Vector_2" d="M80.0566 21.812C80.2851 21.812 80.5025 21.7192 80.6601 21.5542L81.8683 20.2948C82.0185 20.1372 82.2274 20.048 82.4449 20.048H82.4949C82.7234 20.048 82.942 20.1457 83.0935 20.318L84.1111 21.4675C84.3054 21.6862 84.5827 21.812 84.8758 21.812H99.2223C99.7598 20.7016 100.153 19.5093 100.388 18.262H86.6178C86.3259 18.262 86.0474 18.1362 85.8531 17.9175L84.8355 16.768C84.684 16.597 84.4654 16.498 84.2369 16.498C84.0085 16.498 83.7898 16.5958 83.6384 16.768L82.7649 17.7551C82.4791 18.0776 82.0686 18.2633 81.6374 18.2633H72.4033C72.6379 19.5117 73.0312 20.7028 73.5687 21.8132H80.0566V21.812Z" fill="currentColor"></path><path id="Vector_3" d="M90.2333 7.06471C90.4618 7.06471 90.6792 6.97187 90.8368 6.80696L92.0449 5.54749C92.1952 5.3899 92.4041 5.30073 92.6215 5.30073H92.6716C92.9001 5.30073 93.1187 5.39845 93.2702 5.5707L94.2878 6.72022C94.482 6.93889 94.7593 7.06471 95.0525 7.06471H97.7803C95.182 3.61126 91.0493 1.37695 86.3951 1.37695C81.7408 1.37695 77.6081 3.61126 75.0098 7.06471H90.2345H90.2333Z" fill="currentColor"></path><path id="Vector_4" d="M84.7533 25.3314H81.0225C80.7305 25.3314 80.452 25.2055 80.2578 24.9869L79.2402 23.8374C79.0887 23.6663 78.87 23.5674 78.6416 23.5674C78.4132 23.5674 78.1945 23.6651 78.043 23.8374L77.1696 24.8244C76.8837 25.1469 76.4733 25.3326 76.042 25.3326H75.9834C78.583 28.1178 82.2832 29.8611 86.3939 29.8611C90.5045 29.8611 94.2048 28.1178 96.8043 25.3326H84.7533V25.3314Z" fill="currentColor"></path><path id="Vector_5" d="M23.4388 28.9399L20.5412 21.9023H7.59588L4.69825 28.9399H1.34863L14.0496 2.29688L26.7884 28.9399H23.4388ZM8.68677 19.2307H19.4124L14.0325 7.87958L8.68799 19.2307H8.68677Z" fill="currentColor"></path><path id="Vector_6" d="M31.415 28.9399V2.29688H38.8289C44.6242 2.29688 47.6721 4.96851 47.6721 9.97339C47.6721 14.9783 44.436 17.5754 38.791 17.5754H34.5387V28.9399H31.415ZM34.5387 14.7902H38.0764C42.5548 14.7902 44.5118 13.323 44.5118 9.97339C44.5118 6.62377 42.5169 5.0809 38.0764 5.0809H34.5387V14.7902Z" fill="currentColor"></path><path id="Vector_7" d="M59.0165 5.15664H49.835V2.29688H71.3229V5.15664H62.1401V28.9399H59.0165V5.15664Z" fill="currentColor"></path><path id="Vector_8" d="M104.98 24.0853L107.67 22.2603L107.877 22.6927C109.533 25.7027 111.339 26.9072 114.087 26.9072C117.135 26.9072 119.28 24.8 119.28 22.2407C119.28 19.8317 118.075 18.2143 113.259 16.2195C107.727 13.9241 105.845 11.553 105.845 8.16669C105.845 4.47868 108.742 1.58105 113.747 1.58105C117.435 1.58105 119.957 3.1618 121.387 5.72105L119.204 7.22606L118.564 7.0758C117.435 5.30693 116.043 4.29056 113.671 4.29056C110.774 4.29056 109.081 5.90918 109.081 8.09095C109.081 10.1225 110.172 11.2891 114.876 13.4342C121.01 16.2195 122.516 18.5148 122.516 22.2028C122.516 26.2292 119.054 29.6534 114.123 29.6534C109.983 29.6534 107.124 28.0726 104.979 24.0841L104.98 24.0853Z" fill="currentColor"></path></g><defs><clipPath id="clip0_1709_12546"><rect width="122.16" height="30" fill="currentColor" transform="translate(0.827148 0.800293)"></rect></clipPath></defs></svg>