<svg width="92px" height="31px" viewBox="0 0 92 31" fill="none" xmlns="http://www.w3.org/2000/svg"><style>*, ::before, ::after { box-sizing: inherit; }
*, ::before, ::after { box-sizing: inherit; }</style><g clip-path="url(#clip0_838_12017)"><path fill-rule="evenodd" clip-rule="evenodd" d="M37.7068 2.80029C38.9538 2.80029 39.962 3.75542 39.962 5.00241C39.962 6.2494 38.9539 7.20445 37.7068 7.20445C36.4598 7.20445 35.4517 6.2494 35.4517 5.00241C35.4517 3.75542 36.4599 2.80029 37.7068 2.80029ZM35.9823 22.4335V9.56579H39.4313V22.4335H35.9823ZM33.8072 12.6168C33.5684 12.5371 33.0644 12.4841 32.5603 12.4841C31.0479 12.4841 29.4295 13.7091 29.4295 15.2214V22.4333H25.9805V9.56565H29.2969V10.8657C30.0663 9.91054 31.4724 9.30029 33.0378 9.30029C33.4292 9.30311 33.8197 9.33861 34.2052 9.40642L33.8072 12.6168ZM45.8523 10.6011C46.9187 9.74265 48.2508 9.28253 49.6196 9.29986C53.1211 9.29986 55.9332 12.2189 55.9332 16.0129C55.9332 17.7643 55.324 19.3554 54.3154 20.523C53.1745 21.8495 51.3443 22.6992 49.4339 22.6992C48.184 22.719 46.9655 22.3066 45.9845 21.5316V28.8004H42.5352V9.56573H45.8523V10.6011ZM45.6498 16.0242C45.6498 18.0893 47.0579 19.5678 49.2004 19.5678C51.0292 19.5678 52.5119 17.981 52.5119 16.0242C52.5119 14.0674 51.0292 12.4805 49.2004 12.4805C47.0579 12.4805 45.6498 13.959 45.6498 16.0242ZM76.8671 22.4337H73.4179V3.59647H76.8671V22.4337ZM85.649 22.6986C87.6388 22.6986 89.6817 21.8761 90.9287 20.3904L88.9654 18.4271C88.3552 19.0903 87.1877 19.9128 85.7286 19.9128C83.8979 19.9128 82.4387 18.6658 82.253 16.8618H91.1675C91.2225 16.5375 91.2492 16.209 91.2472 15.8801C91.2472 12.2983 88.7267 9.30029 85.1714 9.30029C81.3509 9.30029 78.91 12.431 78.91 16.0128C78.91 20.0456 81.8019 22.6986 85.649 22.6986ZM85.1714 12.0861C86.5776 12.0861 87.6123 13.2004 87.7184 14.3413H82.4122C82.5714 13.174 83.7387 12.0861 85.1714 12.0861ZM65.0617 9.29986C63.6928 9.28254 62.3607 9.74266 61.2944 10.6011V9.56573H57.9772V28.8004H61.4266V21.5316C62.4076 22.3066 63.626 22.719 64.876 22.6992C66.7864 22.6992 68.6165 21.8495 69.7574 20.523C70.7661 19.3554 71.3752 17.7643 71.3752 16.0129C71.3752 12.2189 68.5631 9.29986 65.0617 9.29986ZM64.6424 19.5678C62.5 19.5678 61.0918 18.0893 61.0918 16.0242C61.0918 13.959 62.5 12.4805 64.6424 12.4805C66.4712 12.4805 67.954 14.0673 67.954 16.0241C67.954 17.981 66.4712 19.5678 64.6424 19.5678ZM16.3457 17.135C17.2143 17.1653 18.0913 17.2956 18.87 17.7453C19.5693 18.149 20.15 18.7297 20.5537 19.429C20.9575 20.1283 21.17 20.9216 21.17 21.7291C21.17 22.5366 20.9575 23.3298 20.5537 24.0291C20.15 24.7284 19.5693 25.3091 18.87 25.7129C18.1707 26.1166 17.3774 26.3292 16.5699 26.3292C15.7624 26.3292 14.9692 26.1166 14.2699 25.7129C13.5706 25.3091 12.9899 24.7284 12.5861 24.0291C12.1824 23.3298 11.9698 22.5366 11.9698 21.7291C11.9698 20.838 12.2864 20.0179 12.6908 19.2573C13.1713 18.3537 12.9034 17.2567 12.0367 16.756C10.8559 16.0737 9.9192 16.8388 9.54416 17.439C9.08743 18.1699 8.53568 18.8547 7.7635 19.3006C7.06419 19.7043 6.27092 19.9169 5.46343 19.9169C4.65593 19.9169 3.86267 19.7043 3.16336 19.3006C2.46404 18.8968 1.88333 18.3161 1.47958 17.6168C1.07584 16.9175 0.863281 16.1242 0.863281 15.3167C0.863281 14.5092 1.07584 13.716 1.47958 13.0167C1.88333 12.3174 2.46404 11.7366 3.16336 11.3329C3.86267 10.9291 4.65593 10.7166 5.46343 10.7166C6.27092 10.7166 7.06419 10.9292 7.7635 11.3329C8.5359 11.7789 9.08759 12.4642 9.54461 13.1956C10.0857 14.0615 11.1689 14.3788 12.0368 13.8777C13.2036 13.2041 13.0314 12.0165 12.6912 11.3767C12.2868 10.616 11.9698 9.79582 11.9698 8.90455C11.9697 8.09704 12.1823 7.30376 12.586 6.60443C12.9897 5.9051 13.5704 5.32436 14.2697 4.9206C14.9691 4.51683 15.7623 4.30425 16.5698 4.30423C17.3773 4.30422 18.1706 4.51676 18.8699 4.9205C19.5693 5.32424 20.15 5.90496 20.5538 6.60427C20.9575 7.30359 21.1701 8.09686 21.1701 8.90437C21.1701 9.71187 20.9575 10.5051 20.5538 11.2045C20.15 11.9038 19.5693 12.4845 18.87 12.8883C18.0915 13.3377 17.2146 13.4682 16.346 13.4986C15.3303 13.534 14.5296 14.329 14.5296 15.3168C14.5296 16.6425 15.6169 17.1095 16.3457 17.135Z" fill="currentColor"></path></g><defs><clipPath id="clip0_838_12017"><rect width="90.3838" height="30" fill="currentColor" transform="translate(0.863281 0.800293)"></rect></clipPath></defs></svg>