<svg width="51px" height="28px" viewBox="0 0 51 28" fill="none" xmlns="http://www.w3.org/2000/svg"><style>*, ::before, ::after { box-sizing: inherit; }
*, ::before, ::after { box-sizing: inherit; }</style><path d="M44.4499 17.1439C44.4499 17.8548 44.2931 18.4465 43.9849 18.9028C43.68 19.3603 43.2966 19.7039 42.8445 19.9251C42.3968 20.1463 41.9501 20.259 41.5184 20.259C40.8011 20.259 40.2019 20.0121 39.7402 19.5256C39.2806 19.0371 39.0486 18.3702 39.0486 17.5434V10.0708H37.0234V17.6669C37.0234 18.6816 37.192 19.5364 37.526 20.2086C37.861 20.8797 38.3303 21.3908 38.9198 21.7269C39.5061 22.0566 40.1847 22.2241 40.9364 22.2241C41.8448 22.2241 42.6094 22.0083 43.2086 21.583C43.7498 21.1943 44.1664 20.7229 44.4499 20.1807V22.0706H46.4751V10.0708H44.4499V17.145V17.1439Z" fill="currentColor"></path><path d="M34.0019 14.5035C33.5358 14.1728 33.0397 13.9075 32.5275 13.7153C32.0282 13.5274 31.5686 13.3771 31.1595 13.2686L29.5552 12.8369C29.2675 12.7618 28.9475 12.6619 28.606 12.5406C28.2667 12.416 27.937 12.256 27.6288 12.067C27.326 11.8759 27.0737 11.6365 26.8782 11.3541C26.6914 11.0717 26.5969 10.728 26.5969 10.3318C26.5969 9.85611 26.7343 9.42552 27.006 9.05291C27.2841 8.676 27.6782 8.37533 28.1743 8.1595C28.6801 7.94151 29.2803 7.83091 29.9579 7.83091C30.8835 7.83091 31.6739 8.04138 32.3085 8.45802C32.9324 8.86714 33.2932 9.45021 33.3812 10.1911L33.392 10.2856H35.4397L35.4354 10.175C35.4096 9.36324 35.1541 8.62768 34.6784 7.98984C34.2091 7.35414 33.5648 6.8473 32.7648 6.48328C31.967 6.11497 31.0425 5.9292 30.0191 5.9292C28.9958 5.9292 28.0745 6.11819 27.2508 6.4908C26.4294 6.86019 25.7647 7.38743 25.275 8.05963C24.7875 8.72969 24.5406 9.52538 24.5406 10.4242C24.5406 11.5098 24.9142 12.401 25.6498 13.0732C26.3746 13.7357 27.37 14.2522 28.6081 14.6087L30.5421 15.1617C31.0865 15.3131 31.6008 15.4925 32.0701 15.6943C32.5286 15.8919 32.9034 16.1507 33.1836 16.4653C33.4553 16.7703 33.5938 17.1751 33.5938 17.668C33.5938 18.2135 33.4317 18.6967 33.1106 19.1048C32.7863 19.5128 32.3385 19.8371 31.7812 20.069C31.2196 20.2978 30.5743 20.4137 29.8656 20.4137C29.2567 20.4137 28.679 20.3225 28.1518 20.1431C27.6342 19.9606 27.1993 19.6814 26.8611 19.3131C26.5303 18.9437 26.3381 18.4691 26.2898 17.9021L26.2812 17.8044H24.1035L24.1121 17.9193C24.1744 18.7944 24.4471 19.5751 24.9228 20.2376C25.4028 20.9002 26.0675 21.4231 26.8997 21.7925C27.733 22.1597 28.7316 22.3466 29.8666 22.3466C31.0843 22.3466 32.1356 22.1393 32.9893 21.7302C33.8526 21.3189 34.5184 20.7563 34.9662 20.0572C35.4204 19.3571 35.6512 18.5636 35.6512 17.697C35.6512 16.9443 35.4934 16.2989 35.1831 15.7781C34.8749 15.2605 34.4776 14.8321 34.0019 14.5024V14.5035Z" fill="currentColor"></path><path d="M50.706 6.98806C50.706 6.62082 50.5653 6.30297 50.2893 6.04311C50.0187 5.78432 49.6901 5.65332 49.31 5.65332C48.9299 5.65332 48.5992 5.78432 48.3232 6.04419C48.0515 6.30405 47.9141 6.62189 47.9141 6.98914C47.9141 7.35638 48.0515 7.67315 48.3243 7.93409C48.5992 8.19288 48.931 8.32388 49.3111 8.32388C49.6912 8.32388 49.9887 8.20469 50.2507 7.9706L50.2625 7.95986C50.2721 7.95127 50.2818 7.94268 50.2915 7.93301L50.3301 7.89543C50.5814 7.64201 50.7081 7.33705 50.7081 6.98806H50.706Z" fill="currentColor"></path><path d="M50.3025 10.0708H48.2773V22.0706H50.3025V10.0708Z" fill="currentColor"></path><path fill-rule="evenodd" clip-rule="evenodd" d="M17.1504 11.8378C18.2135 13.1725 18.8492 14.8605 18.8492 16.6968C18.8492 18.533 18.1941 20.2725 17.1031 21.6148L17.0087 21.7308L16.984 21.5836C16.9625 21.4591 16.9378 21.3324 16.9088 21.2057C16.3622 18.8046 14.5818 16.7461 11.6514 15.0785C9.6724 13.9553 8.53953 12.6045 8.24209 11.0679C8.04987 10.0746 8.19269 9.07702 8.46866 8.22227C8.74463 7.3686 9.15482 6.65237 9.50381 6.22177L10.6442 4.82797C10.8439 4.58314 11.2187 4.58314 11.4184 4.82797L17.1515 11.8378H17.1504ZM18.9533 10.4451L11.3121 1.10293C11.1661 0.924675 10.8933 0.924675 10.7473 1.10293L3.10714 10.4451L3.08244 10.4762C1.67683 12.2211 0.834961 14.4385 0.834961 16.8525C0.834961 22.4738 5.39972 27.0311 11.0297 27.0311C16.6597 27.0311 21.2244 22.4738 21.2244 16.8525C21.2244 14.4385 20.3826 12.2211 18.9769 10.4773L18.9522 10.4461L18.9533 10.4451ZM4.93583 11.8077L5.61877 10.9712L5.63918 11.1258C5.65528 11.2483 5.67569 11.3707 5.69931 11.4942C6.14172 13.8147 7.72129 15.7486 10.3618 17.2465C12.6576 18.5534 13.9945 20.0556 14.3789 21.7028C14.54 22.3901 14.5679 23.0666 14.4981 23.6582L14.4938 23.6948L14.4605 23.7109C13.4243 24.2166 12.2592 24.5012 11.0286 24.5012C6.71084 24.5012 3.21022 21.007 3.21022 16.6957C3.21022 14.8444 3.85558 13.1446 4.93368 11.8056L4.93583 11.8077Z" fill="currentColor"></path></svg>