<?xml version="1.0" encoding="UTF-8"?>
<!DOCTYPE svg PUBLIC "-//W3C//DTD SVG 1.1//EN" "http://www.w3.org/Graphics/SVG/1.1/DTD/svg11.dtd">
<!-- Creator: CorelDRAW 2021 (64-Bit) -->
<svg xmlns="http://www.w3.org/2000/svg" xml:space="preserve" width="1.95144in" height="0.310795in" version="1.1" style="shape-rendering:geometricPrecision; text-rendering:geometricPrecision; image-rendering:optimizeQuality; fill-rule:evenodd; clip-rule:evenodd"
viewBox="0 0 4073.15 648.71"
 xmlns:xlink="http://www.w3.org/1999/xlink"
 xmlns:xodm="http://www.corel.com/coreldraw/odm/2003">
 <defs>
  <style type="text/css">
   <![CDATA[
    .fil0 {fill:black;fill-rule:nonzero}
    .fil1 {fill:black;fill-rule:nonzero}
   ]]>
  </style>
 </defs>
 <g id="Layer_x0020_1">
  <metadata id="CorelCorpID_0Corel-Layer"/>
  <g id="_1993034838144">
   <g>
    <path class="fil0" d="M336.62 373.73l-31.53 85.99c-0.49,1.16 -0.75,2.45 -0.75,3.75 0,1.31 0.25,2.6 0.73,3.79l54.08 148.1 62.87 -36.03 -75.31 -205.61c-0.81,-2.07 -2.81,-3.43 -5.04,-3.43 -2.23,0 -4.22,1.36 -5.04,3.43l-0.02 0.02zm63.08 -144.86c-0.78,-2.11 -2.8,-3.51 -5.05,-3.51 -2.26,0 -4.27,1.4 -5.05,3.51l-31.53 85.95c-0.48,1.19 -0.73,2.47 -0.73,3.78 0,1.31 0.25,2.57 0.73,3.76l88.85 242.53 62.7 -36.03 -109.91 -300.21 0 0.22z"/>
   </g>
   <g>
    <path class="fil0" d="M288.31 36.25c1.6,0 3.1,0.43 4.49,1.27l243.29 141.41c2.79,1.55 4.5,4.49 4.5,7.69 0,0.03 0,0.07 0,0.08l0 275.15c0,0 0,0.02 0,0.03 0,3.2 -1.72,6.14 -4.5,7.71l-243.29 141.99c-1.36,0.76 -2.93,1.17 -4.49,1.17 -1.56,0 -3.11,-0.4 -4.48,-1.17l-243.3 -141.69c-2.79,-1.59 -4.51,-4.53 -4.51,-7.72 0,-0.07 0,-0.15 0,-0.21l0 -275.26c0,-3.28 1.82,-6.14 4.5,-7.77l243.29 -141.46c1.33,-0.89 2.91,-1.4 4.49,-1.43l0 0.21zm-4.49 -35.02c-8.46,0 -17.12,2.32 -24.69,6.64l-234.45 136.28c-15.22,8.74 -24.64,24.98 -24.68,42.56l0 275.15c0,17.5 9.38,33.9 24.68,42.71l238.96 137.5c7.49,4.36 16.03,6.64 24.68,6.64 8.66,0 17.19,-2.28 24.68,-6.64l238.96 -137.5c15.25,-8.67 24.68,-24.87 24.68,-42.41 0,-0.1 0,-0.21 0,-0.3l0 -275.15c0,-17.5 -9.38,-33.91 -24.68,-42.56l-238.96 -137.5c-7.51,-4.29 -16.02,-6.59 -24.68,-6.64l-4.49 1.22zm0 0l0 0 0 0z"/>
   </g>
   <polygon class="fil0" points="130.3,565.29 152.25,505.29 196.39,541.86 155.19,579.7 "/>
   <path class="fil0" d="M268.33 162.17l-60.75 0c-4.56,0.1 -8.59,3.04 -10.07,7.36l-129.71 359.17 62.52 36.58 143.09 -395.53c0.22,-0.62 0.35,-1.27 0.35,-1.94 0,-1.14 -0.37,-2.26 -1.04,-3.2 -1,-1.52 -2.72,-2.45 -4.54,-2.45 -0.02,0 -0.02,0 -0.03,0l0.19 0zm110.34 2.45l-60.55 0c-4.53,0.08 -8.55,2.94 -10.11,7.2l-148.51 409.79 62.74 36.58 161.46 -446.12c0.25,-0.63 0.39,-1.3 0.39,-1.98 0,-3.01 -2.42,-5.44 -5.42,-5.47z"/>
   <path class="fil1" d="M908.17 390.41l147.01 0 -68.02 -125.41c-1.29,-1.94 -2.58,-2.91 -4.83,-2.91l-2.58 0c-1.93,0 -3.55,0.97 -4.83,2.91l-66.74 125.41zm2794.86 -189.25c6.12,0 11.61,0.33 16.12,1.3 4.51,0.96 8.7,2.57 11.92,4.83 3.55,2.58 6.45,5.8 9.35,9.99 2.58,4.19 5.48,9.67 8.38,16.44l88.99 205.37c1.28,2.58 3.22,3.86 6.12,3.86l5.16 0c2.9,0 4.83,-1.28 6.12,-3.86l88.99 -205.37c2.89,-6.77 5.47,-12.25 8.37,-16.44 2.58,-4.19 5.8,-7.41 9.35,-9.99 3.55,-2.57 7.42,-4.19 11.6,-4.83 4.52,-0.97 9.68,-1.3 16.12,-1.3l45.78 0c14.83,0 24.83,3.23 29.99,10 5.16,6.77 7.74,18.05 7.74,34.5l0 245.34c0,6.12 -3.23,9.35 -9.67,9.35l-43.53 0c-6.13,0 -9.35,-3.23 -9.35,-9.35l0 -223.1c0,-2.9 -1.28,-4.19 -3.54,-4.19l-3.87 0c-2.9,0 -4.83,1.29 -5.48,3.54l-86.4 191.51c-3.55,7.73 -6.77,14.18 -10.64,19.34 -3.55,5.15 -7.41,9.67 -11.61,12.89 -4.19,3.54 -8.69,5.8 -14.18,7.41 -5.17,1.3 -11.61,2.26 -18.7,2.26l-20.63 0c-7.09,0 -13.21,-0.64 -18.69,-2.26 -5.17,-1.29 -10,-3.87 -14.19,-7.41 -4.19,-3.55 -8.06,-7.74 -11.6,-12.89 -3.55,-5.16 -7.09,-11.61 -10.32,-19.34l-86.4 -191.51c-0.97,-2.25 -2.58,-3.54 -5.48,-3.54l-3.87 0c-2.26,0 -3.54,1.29 -3.54,4.19l0 223.1c0,6.12 -3.23,9.35 -9.36,9.35l-43.52 0c-6.45,0 -9.99,-3.23 -9.99,-9.35l0 -245.34c0,-16.12 2.58,-27.73 7.73,-34.5 5.17,-6.77 15.15,-10 30.31,-10l46.42 0zm-490.68 0c6.12,0 9.34,3.23 9.34,9.35l0 170.55c0,11.28 0.97,20.95 2.91,28.38 1.93,7.4 4.83,13.53 9.34,18.05 4.2,4.52 10,7.42 17.41,9.35 7.41,1.93 16.44,2.9 27.73,2.9l118 0c10.96,0 20.31,-0.97 27.73,-2.9 7.42,-1.93 12.89,-4.83 17.41,-9.35 4.19,-4.51 7.41,-10.31 9.02,-18.05 1.62,-7.42 2.58,-17.09 2.58,-28.38l0 -170.55c0,-6.12 3.22,-9.35 9.35,-9.35l46.75 0c6.12,0 9.34,3.23 9.34,9.35l0 177c0,20.63 -2.25,38.05 -6.44,52.23 -4.2,14.51 -11.28,26.12 -20.63,35.14 -9.67,9.03 -21.92,15.47 -37.08,19.34 -15.15,3.87 -33.85,6.13 -55.45,6.13l-123.16 0c-21.6,0 -39.98,-1.94 -55.13,-6.13 -15.15,-3.87 -27.4,-10.63 -37.07,-19.34 -9.67,-9.02 -16.44,-20.63 -20.96,-35.14 -4.51,-14.51 -6.76,-31.92 -6.76,-52.23l0 -177c0,-6.12 3.22,-9.35 9.99,-9.35l45.78 0zm-417.51 152.82l163.77 0c14.51,0 24.83,-3.22 30.63,-9.35 6.12,-6.12 9.02,-15.79 9.02,-28.69l0 -18.06c0,-12.89 -2.9,-22.24 -9.02,-28.69 -6.13,-6.13 -16.12,-9.35 -30.63,-9.35l-157.97 0c-3.88,0 -5.49,1.61 -5.49,5.16l-0.32 88.98zm176.99 -152.81c32.89,0 56.42,7.41 70.61,22.24 14.18,14.83 21.28,36.75 21.28,65.76l0 24.5c0,24.5 -4.83,43.85 -14.82,58.03 -10,14.18 -26.12,23.53 -48.69,27.41l73.19 90.59c1.29,1.29 1.94,3.55 1.29,6.45 -0.64,2.9 -2.9,4.18 -6.76,4.18l-55.13 0c-3.88,0 -6.13,-0.31 -7.74,-1.28 -1.29,-0.97 -2.9,-2.26 -4.19,-4.19l-67.7 -88.98 -137.99 0 0 85.11c0,6.12 -3.22,9.34 -9.34,9.34l-46.43 0c-6.45,0 -9.99,-3.22 -9.99,-9.34l0 -276.94c0,-8.71 4.19,-12.89 12.89,-12.89l229.54 0zm-338.18 -0.01c6.44,0 9.99,3.23 9.99,9.35l0 41.92c0,6.44 -3.22,9.99 -9.99,9.99l-134.12 0 0 228.9c0,6.13 -3.23,9.35 -9.35,9.35l-46.74 0c-6.13,0 -9.35,-3.22 -9.35,-9.35l0 -228.9 -134.12 0c-6.45,0 -10,-3.23 -10,-9.99l0 -41.92c0,-6.12 3.23,-9.35 10,-9.35l333.68 0zm-448.13 0c6.13,0 9.35,3.23 9.35,9.35l0 280.49c0,6.12 -3.22,9.35 -9.35,9.35l-46.1 0c-6.45,0 -9.67,-3.23 -9.67,-9.35l0 -280.49c0,-6.12 3.22,-9.35 9.67,-9.35l46.1 0zm-436.52 171.2l0 63.83c0,3.86 1.93,5.48 5.48,5.48l175.38 0c11.28,0 19.66,-1.94 24.5,-6.13 4.83,-4.19 7.41,-10.64 7.41,-19.99l0 -16.11c0,-8.71 -2.58,-15.47 -8.06,-19.99 -5.15,-4.51 -15.14,-6.76 -29.34,-6.76l-175.38 -0.32zm0 -46.75l175.38 0c14.19,0 23.86,-2.26 29.02,-6.45 5.16,-4.19 7.74,-10.64 7.74,-18.7l0 -14.5c0,-8.7 -2.58,-15.48 -7.42,-19.34 -4.83,-4.19 -12.89,-6.12 -24.18,-6.12l-175.06 0c-3.87,0 -5.48,1.93 -5.48,5.48l0 59.64zm193.76 -124.45c29.34,0 50.29,5.81 62.54,17.41 12.25,11.6 18.69,29.34 18.69,52.87l0 20.64c0,23.86 -9.02,41.91 -27.4,54.15 19.66,11.28 29.66,29.67 29.66,55.14l0 24.82c0,11.28 -1.29,21.6 -3.87,30.63 -2.58,9.03 -6.77,16.76 -12.57,23.21 -5.8,6.44 -13.54,11.28 -23.21,14.83 -9.67,3.55 -21.6,5.16 -35.79,5.16l-254.04 0c-8.7,0 -12.9,-4.19 -12.9,-12.9l0 -273.72c0,-8.7 4.2,-12.89 12.9,-12.89l245.99 0.64zm-626.74 152.82l163.77 0c14.51,0 24.83,-3.22 30.63,-9.35 6.13,-6.12 9.03,-15.79 9.03,-28.69l0 -18.06c0,-12.89 -2.9,-22.24 -9.03,-28.69 -6.12,-6.13 -16.11,-9.35 -30.63,-9.35l-158.29 0c-3.87,0 -5.48,1.61 -5.48,5.16l0 88.98zm177 -152.81c32.88,0 56.41,7.41 70.6,22.24 14.18,14.83 21.28,36.75 21.28,65.76l0 24.5c0,24.5 -4.83,43.85 -14.83,58.03 -9.99,14.18 -26.11,23.53 -48.68,27.41l73.19 90.59c1.29,1.29 1.94,3.55 1.29,6.45 -0.64,2.9 -2.9,4.18 -6.77,4.18l-55.45 0c-3.87,0 -6.12,-0.31 -7.74,-1.28 -1.28,-0.97 -2.9,-2.26 -4.19,-4.19l-67.7 -88.98 -137.99 0 0 85.11c0,6.12 -3.22,9.34 -9.35,9.34l-46.1 0c-6.45,0 -9.99,-3.22 -9.99,-9.34l0 -276.94c0,-8.71 4.19,-12.89 12.89,-12.89l229.55 0zm-501.97 0c10.96,0 19.98,2.25 27.41,6.77 7.41,4.51 14.82,12.89 21.92,25.79l141.53 256.95c1.29,2.9 1.93,5.16 0.97,7.09 -0.65,1.93 -2.91,2.9 -6.13,2.9l-54.16 0c-4.84,0 -8.06,-1.93 -9.99,-5.48l-30.31 -55.13 -201.17 0 -29.34 55.13c-1.93,3.87 -5.15,5.48 -9.67,5.48l-55.77 0c-3.87,0 -5.8,-0.97 -6.77,-2.9 -0.64,-1.93 -0.32,-4.19 0.97,-7.09l140.24 -256.95c7.09,-12.89 14.19,-21.6 20.95,-25.79 6.77,-4.52 14.83,-6.77 23.86,-6.77l25.47 0z"/>
  </g>
 </g>
</svg>
