<?xml version="1.0" encoding="UTF-8"?>
<!DOCTYPE svg PUBLIC "-//W3C//DTD SVG 1.1//EN" "http://www.w3.org/Graphics/SVG/1.1/DTD/svg11.dtd">
<!-- Creator: CorelDRAW 2021 (64-Bit) -->
<svg xmlns="http://www.w3.org/2000/svg" xml:space="preserve" width="1.02542in" height="0.237969in" version="1.1" style="shape-rendering:geometricPrecision; text-rendering:geometricPrecision; image-rendering:optimizeQuality; fill-rule:evenodd; clip-rule:evenodd"
viewBox="0 0 210.96 48.96"
 xmlns:xlink="http://www.w3.org/1999/xlink"
 xmlns:xodm="http://www.corel.com/coreldraw/odm/2003">
 <defs>
  <style type="text/css">
   <![CDATA[
    .fil0 {fill:black}
   ]]>
  </style>
 </defs>
 <g id="Layer_x0020_1">
  <metadata id="CorelCorpID_0Corel-Layer"/>
  <path class="fil0" d="M6.35 34.63c1.43,-6.73 7.3,-19.58 7.6,-25.36l-7.11 0.03c-1.7,3.49 -6.07,16.89 -6.84,21.02 1.71,1.84 3.59,3.46 6.35,4.31zm71.01 -19.78l-2.38 13.12 4.93 0 -2.46 -13.12 -0.08 0zm-4.04 -5.36l8.48 0 7.19 29.45 -7.03 0 -1.05 -5.61 -6.91 0 -1.01 5.61 -7.03 0 7.35 -29.45zm26.75 12.42c1.24,0 2.13,-0.37 2.67,-1.11 0.54,-0.77 0.81,-1.68 0.81,-2.72 0,-1.21 -0.27,-2.13 -0.81,-2.76 -0.51,-0.63 -1.41,-0.95 -2.71,-0.95l-2.06 0 0 7.55 2.1 0zm-8.88 -12.42l11.39 0c2.69,0 4.66,0.72 5.9,2.15 1.24,1.43 1.86,3.26 1.86,5.49 0,2.23 -0.5,4.07 -1.49,5.53 -0.97,1.46 -2.23,2.54 -3.8,3.26l6.58 13.03 -7.63 0 -5.65 -12.09 -0.36 0 0 12.09 -6.78 0 0 -29.45zm29.98 0l0 11.63 0.08 0 6.34 -11.63 7.31 0 -7.55 12.7 8.48 16.75 -7.63 0 -5.21 -11.1 -1.82 2.85 0 8.25 -6.79 0 0 -29.45 6.79 0zm23.19 0l0 11.01 5.41 0 0 -11.01 6.79 0 0 29.45 -6.79 0 0 -12.58 -5.41 0 0 12.58 -6.79 0 0 -29.45 6.79 0zm25.78 5.36l-2.38 13.12 4.93 0 -2.46 -13.12 -0.08 0zm-4.04 -5.36l8.48 0 7.19 29.45 -7.03 0 -1.05 -5.61 -6.91 0 -1.01 5.61 -7.03 0 7.35 -29.45zm28 0l3.55 19.35 0.08 0 3.43 -19.35 9.81 0 0 29.45 -6.3 0 0 -22.93 -0.08 0 -4.4 22.93 -5.25 0 -4.64 -22.93 -0.08 0 0 22.93 -6.06 0 0 -29.45 9.93 0zm-180.16 6.88l13.53 0.24 -2.29 -7.34 -8.84 0.01 -2.39 7.09zm6.9 2.02l-7.56 0 -2.61 8.75 6.24 4.04 3.93 -12.8zm10.32 3.55c2.7,-0.87 4.51,-2.52 6.24,-4.28l-2.61 -8.48 -7.32 0.03 3.69 12.73zm-12.65 11.22c2.4,1.04 4.4,3.15 6.85,4.53 2.56,-1.1 3.95,-2.58 6.12,-3.83 -1.11,-1.95 -0.23,-0.96 -2.44,-2.6l-8.54 -5.55 -1.99 7.44zm22.04 -6.21l-2.54 -6.92c-2.05,1.1 -8.7,5.68 -10.49,7.63 1.31,1.68 3.91,3.44 5.9,4.49l7.12 -5.19zm-33.21 -19.61l26.52 0.14 -2.02 -7.45 -22.08 -0.03 -2.42 7.34zm18.02 41.62c2.25,-0.78 4.23,-2.7 6.05,-3.78 -1.66,-3.08 -19.74,-15.35 -21.63,-16.06l-1.85 7.2 17.42 12.65zm7.99 -5.59c2.82,-1.7 15.69,-10.73 17.75,-13.05 -0.42,-2.33 -1.33,-5.2 -2.43,-6.81 -2.85,1.58 -19.43,13.51 -21.09,15.47 1.16,1.62 4.22,3.59 5.78,4.39zm8.68 -17.75l5.97 -3.95c-0.21,-2.95 -5.39,-19.42 -6.87,-21.67l-6.91 0c-0.15,3.05 6.35,21.28 7.8,25.62z"/>
 </g>
</svg>
