<svg width="105px" height="16px" viewBox="0 0 105 16" fill="none" xmlns="http://www.w3.org/2000/svg"><style>*, ::before, ::after { box-sizing: inherit; }
*, ::before, ::after { box-sizing: inherit; }</style><g clip-path="url(#clip0_491_11344)"><path fill-rule="evenodd" clip-rule="evenodd" d="M103.593 13.9555V14.3446H103.818C103.963 14.3446 104.043 14.2966 104.043 14.147C104.043 14.0274 103.98 13.9555 103.847 13.9555H103.593ZM103.397 13.782H103.847C104.107 13.782 104.245 13.9196 104.245 14.135C104.245 14.3266 104.165 14.4342 104.032 14.4881L104.239 14.8831H104.02L103.83 14.5181H103.593V14.8831H103.397V13.782ZM103.812 15.3259C104.349 15.3259 104.724 14.9907 104.724 14.3566C104.724 13.7281 104.349 13.3929 103.812 13.3929C103.27 13.3929 102.895 13.7281 102.895 14.3566C102.895 14.9907 103.27 15.3259 103.812 15.3259ZM103.812 13.2372C104.499 13.2372 104.903 13.6863 104.903 14.3566C104.903 15.0268 104.499 15.4755 103.812 15.4755C103.12 15.4755 102.722 15.0268 102.722 14.3566C102.722 13.6863 103.12 13.2372 103.812 13.2372ZM52.9348 15.3429L49.0249 8.31357L52.6935 4.17052H48.9636L45.1489 8.61817V0.238701H41.8602V15.3425H45.1489V12.6253L46.7245 10.8766L49.1918 15.3429H52.9348ZM101.791 15.3429L97.8815 8.31357L101.55 4.17052H97.8629L94.0056 8.61817V0.238701H90.7169V15.3425H94.0056V12.6253L95.5812 10.8766L98.0482 15.3429H101.791ZM25.1 11.6054C25.1 12.6299 24.1455 13.3058 23.0584 13.3058C22.0304 13.3058 21.5285 12.7581 21.5285 12.0004C21.5285 11.1999 22.0957 10.6171 23.2392 10.6171C23.9466 10.6171 24.583 10.7428 25.1 10.8674V11.6054ZM29.5875 15.1508V12.7833C29.4469 12.8208 29.2343 12.8638 29.0282 12.8638C28.5935 12.8638 28.3882 12.6412 28.3882 12.2244V8.30896C28.3882 5.38008 26.4952 3.81453 23.3582 3.81453C21.323 3.81453 19.5684 4.58503 18.4734 5.59258L20.3051 7.7325C21.0376 7.07129 22.0126 6.6402 22.9492 6.6402C24.3991 6.6402 25.0996 7.39266 25.0996 8.64124V9.00751C24.404 8.83319 23.5487 8.6704 22.4892 8.6704C19.8391 8.6704 18.1245 9.98359 18.1245 12.1814C18.1245 14.4243 19.5555 15.6045 21.7788 15.6045C23.304 15.6045 24.6496 14.959 25.3687 14.1201C25.7997 15.2221 26.7207 15.5198 27.6381 15.5198C28.2417 15.5198 28.963 15.4128 29.5875 15.1508ZM57.2515 7.26638H59.7975C61.3818 7.26617 62.1423 6.34693 62.1423 5.24268C62.1423 3.9448 61.4115 3.23387 59.7975 3.23366H57.2515V7.26638ZM62.1342 15.3425L59.3713 10.2609H57.2515V15.3425H53.8261V0.238701H59.9906C63.3255 0.238701 65.661 1.88607 65.661 5.14303C65.661 7.22505 64.6632 8.67816 62.9064 9.58838L66.1004 15.3425H62.1342ZM89.9393 6.85753C89.0244 4.88438 87.3236 3.78579 84.7531 3.78579C81.7116 3.78579 79 5.76753 79 9.68299C79 13.5105 81.3867 15.6274 84.7074 15.6274C87.041 15.6274 89.0027 14.6614 89.9186 12.5762L87.242 11.1426C86.7618 12.0744 86.0031 12.6511 84.8183 12.6511C83.2902 12.6511 82.281 11.5101 82.281 9.67816C82.281 7.84074 83.4201 6.7304 84.7954 6.7304C85.859 6.7304 86.6825 7.24099 87.1763 8.32343L89.9393 6.85753ZM41.0402 6.85753C40.1252 4.88438 38.4244 3.78579 35.854 3.78579C32.8125 3.78579 30.1009 5.76753 30.1009 9.68299C30.1009 13.5105 32.4876 15.6274 35.8083 15.6274C38.1418 15.6274 40.1036 14.6614 41.0195 12.5762L38.3429 11.1426C37.8627 12.0744 37.1037 12.6511 35.9192 12.6511C34.3911 12.6511 33.3819 11.5101 33.3819 9.67816C33.3819 7.84074 34.521 6.7304 35.8963 6.7304C36.9597 6.7304 37.7834 7.24099 38.2772 8.32343L41.0402 6.85753ZM8.52475 10.7705C8.52475 11.7614 7.86733 12.4149 6.61783 12.4149L3.6293 12.4151V9.12582H6.61783C7.80968 9.12582 8.52475 9.75431 8.52475 10.7705ZM8.21283 4.69663C8.21283 5.7218 7.58009 6.3184 6.37428 6.3184H3.63071V3.16716H6.37428C7.48118 3.16737 8.21283 3.6765 8.21283 4.69663ZM12.1642 10.9903C12.1642 9.29511 11.3169 7.98549 9.79772 7.41091C11.2368 6.60244 11.7433 5.51727 11.7433 4.25548C11.7433 2.05137 10.2039 0.238071 6.77136 0.238281L0.171875 0.238701V15.3425H7.05112C10.5077 15.3425 12.1642 13.5577 12.1642 10.9903ZM74.7055 9.69096C74.7055 11.5984 73.4797 12.6731 72.0433 12.6731C70.6069 12.6731 69.3812 11.5982 69.3812 9.69096C69.3812 7.76208 70.6053 6.7325 72.0433 6.7325C73.4813 6.7325 74.7055 7.76187 74.7055 9.69096ZM77.9783 9.69033C77.9783 6.0501 75.2531 3.76943 72.0433 3.76943C68.8329 3.76943 66.1083 6.04947 66.1083 9.69033C66.1083 13.3329 68.832 15.636 72.0433 15.636C75.2539 15.636 77.9783 13.3322 77.9783 9.69033ZM13.493 15.3425H16.8121V0.238701H13.493V15.3425Z" fill="currentColor"></path></g><defs><clipPath id="clip0_491_11344"><rect width="104.783" height="15.5234" fill="currentColor" transform="translate(0.171875 0.238281)"></rect></clipPath></defs></svg>