<?xml version="1.0" encoding="UTF-8"?>
<!DOCTYPE svg PUBLIC "-//W3C//DTD SVG 1.1//EN" "http://www.w3.org/Graphics/SVG/1.1/DTD/svg11.dtd">
<!-- Creator: CorelDRAW 2021 (64-Bit) -->
<svg xmlns="http://www.w3.org/2000/svg" xml:space="preserve" width="1.09149in" height="0.161697in" version="1.1" style="shape-rendering:geometricPrecision; text-rendering:geometricPrecision; image-rendering:optimizeQuality; fill-rule:evenodd; clip-rule:evenodd"
viewBox="0 0 158.7 23.51"
 xmlns:xlink="http://www.w3.org/1999/xlink"
 xmlns:xodm="http://www.corel.com/coreldraw/odm/2003">
 <defs>
  <style type="text/css">
   <![CDATA[
    .fil1 {fill:none}
    .fil0 {fill:black}
   ]]>
  </style>
   <clipPath id="id0">
    <path d="M-0 23.51l158.7 0 0 -23.51 -158.7 0 0 23.51z"/>
   </clipPath>
 </defs>
 <g id="Layer_x0020_1">
  <metadata id="CorelCorpID_0Corel-Layer"/>
  <g>
  </g>
  <g style="clip-path:url(#id0)">
   <g>
    <path class="fil0" d="M156.64 20.78l0 0.59 0.34 0c0.22,0 0.34,-0.07 0.34,-0.3 0,-0.18 -0.1,-0.29 -0.3,-0.29l-0.38 0zm-0.3 -0.26l0.68 0c0.39,0 0.6,0.21 0.6,0.53 0,0.29 -0.12,0.45 -0.32,0.53l0.31 0.6 -0.33 0 -0.29 -0.55 -0.36 0 0 0.55 -0.3 0 0 -1.67zm0.63 2.34c0.81,0 1.38,-0.51 1.38,-1.47 0,-0.95 -0.57,-1.46 -1.38,-1.46 -0.82,0 -1.39,0.51 -1.39,1.46 0,0.96 0.57,1.47 1.39,1.47zm0 -3.16c1.04,0 1.65,0.68 1.65,1.7 0,1.01 -0.61,1.69 -1.65,1.69 -1.05,0 -1.65,-0.68 -1.65,-1.69 0,-1.02 0.6,-1.7 1.65,-1.7zm-77.06 3.19l-5.92 -10.65 5.56 -6.27 -5.65 0 -5.78 6.74 0 -12.69 -4.98 0 0 22.88 4.98 0 0 -4.12 2.39 -2.65 3.74 6.76 5.67 0zm74 0l-5.92 -10.65 5.56 -6.27 -5.58 0 -5.84 6.74 0 -12.69 -4.98 0 0 22.88 4.98 0 0 -4.12 2.39 -2.65 3.74 6.76 5.67 0zm-116.15 -5.66c0,1.55 -1.45,2.58 -3.09,2.58 -1.56,0 -2.32,-0.83 -2.32,-1.98 0,-1.21 0.86,-2.1 2.59,-2.1 1.07,0 2.03,0.19 2.82,0.38l0 1.12zm6.8 5.37l0 -3.59c-0.21,0.06 -0.53,0.12 -0.85,0.12 -0.66,0 -0.97,-0.34 -0.97,-0.97l0 -5.93c0,-4.44 -2.87,-6.81 -7.62,-6.81 -3.08,0 -5.74,1.17 -7.4,2.69l2.77 3.24c1.11,-1 2.59,-1.65 4,-1.65 2.2,0 3.26,1.14 3.26,3.03l0 0.55c-1.05,-0.26 -2.35,-0.51 -3.95,-0.51 -4.01,0 -6.61,1.99 -6.61,5.32 0,3.4 2.17,5.18 5.53,5.18 2.31,0 4.35,-0.98 5.44,-2.25 0.65,1.67 2.05,2.12 3.44,2.12 0.91,0 2.01,-0.16 2.95,-0.56zm41.9 -11.94l3.86 0c2.4,-0 3.55,-1.39 3.55,-3.06 0,-1.97 -1.11,-3.04 -3.55,-3.04l-3.86 0 0 6.11zm7.39 12.23l-4.18 -7.7 -3.21 0 0 7.7 -5.19 0 0 -22.88 9.34 0c5.05,0 8.59,2.5 8.59,7.43 0,3.15 -1.51,5.35 -4.17,6.73l4.84 8.71 -6.01 0zm42.11 -12.85c-1.39,-2.99 -3.96,-4.65 -7.85,-4.65 -4.61,0 -8.71,3 -8.71,8.93 0,5.8 3.61,9 8.64,9 3.53,0 6.51,-1.46 7.89,-4.62l-4.05 -2.17c-0.73,1.41 -1.88,2.28 -3.67,2.28 -2.31,0 -3.84,-1.73 -3.84,-4.5 0,-2.78 1.72,-4.46 3.81,-4.46 1.61,0 2.86,0.77 3.61,2.41l4.18 -2.22zm-74.06 0c-1.39,-2.99 -3.96,-4.65 -7.85,-4.65 -4.61,0 -8.71,3 -8.71,8.93 0,5.8 3.61,9 8.64,9 3.53,0 6.51,-1.46 7.89,-4.62l-4.05 -2.17c-0.73,1.41 -1.88,2.28 -3.67,2.28 -2.31,0 -3.84,-1.73 -3.84,-4.5 0,-2.78 1.73,-4.46 3.81,-4.46 1.61,0 2.86,0.77 3.61,2.41l4.18 -2.22zm-49.25 5.93c0,1.5 -1,2.49 -2.89,2.49l-4.53 0 0 -4.98 4.53 0c1.81,0 2.89,0.95 2.89,2.49zm-0.47 -9.2c0,1.55 -0.96,2.46 -2.78,2.46l-4.16 0 0 -4.77 4.16 0c1.68,0 2.78,0.77 2.78,2.32zm5.98 9.53c0,-2.57 -1.28,-4.55 -3.58,-5.42 2.18,-1.22 2.95,-2.87 2.95,-4.78 0,-3.34 -2.33,-6.08 -7.53,-6.08l-10 0 0 22.88 10.42 0c5.23,0 7.74,-2.7 7.74,-6.59zm94.72 -1.97c0,2.89 -1.86,4.52 -4.03,4.52 -2.18,0 -4.03,-1.63 -4.03,-4.52 0,-2.92 1.85,-4.48 4.03,-4.48 2.18,0 4.03,1.56 4.03,4.48zm4.96 -0c0,-5.51 -4.13,-8.97 -8.99,-8.97 -4.86,0 -8.99,3.45 -8.99,8.97 0,5.52 4.13,9.01 8.99,9.01 4.86,0 8.99,-3.49 8.99,-9.01zm-97.67 8.56l5.03 0 0 -22.88 -5.03 0 0 22.88z"/>
   </g>
  </g>
  <polygon class="fil1" points="-0,23.51 158.7,23.51 158.7,0 -0,0 "/>
 </g>
</svg>
