<?xml version="1.0" encoding="UTF-8"?>
<!DOCTYPE svg PUBLIC "-//W3C//DTD SVG 1.1//EN" "http://www.w3.org/Graphics/SVG/1.1/DTD/svg11.dtd">
<!-- Creator: CorelDRAW 2021 (64-Bit) -->
<svg xmlns="http://www.w3.org/2000/svg" xml:space="preserve" width="1.26746in" height="0.317567in" version="1.1" style="shape-rendering:geometricPrecision; text-rendering:geometricPrecision; image-rendering:optimizeQuality; fill-rule:evenodd; clip-rule:evenodd"
viewBox="0 0 1267.05 317.46"
 xmlns:xlink="http://www.w3.org/1999/xlink"
 xmlns:xodm="http://www.corel.com/coreldraw/odm/2003">
 <defs>
  <style type="text/css">
   <![CDATA[
    .fil0 {fill:black;fill-rule:nonzero}
   ]]>
  </style>
 </defs>
 <g id="Layer_x0020_1">
  <metadata id="CorelCorpID_0Corel-Layer"/>
  <path class="fil0" d="M359.23 182.66c0,2.23 -1.87,4.11 -4.22,4.11l-77.78 0c1.99,19.23 16.42,36.83 36.84,36.83 13.96,0 24.28,-5.28 32.02,-16.42 0.82,-1.18 1.99,-2 3.4,-2 2.23,0 3.87,1.65 3.87,3.87 0,0.82 -0.24,1.41 -0.59,2 -7.86,13.61 -23.47,20.3 -38.72,20.3 -26.16,0 -44.93,-23.46 -44.93,-48.45 0,-25.11 18.65,-48.45 44.93,-48.45 26.16,0 45.05,23.23 45.16,48.22zm-261.85 36.6l97.49 -57.6 -97.49 -161.66 -97.38 161.66 97.38 57.6zm97.49 -39.07l-97.49 57.49 -97.38 -57.49 97.38 137.27 97.49 -137.27zm156.04 -1.17c-1.64,-19.24 -16.42,-36.84 -36.83,-36.84 -20.41,0 -34.85,17.6 -36.84,36.84l73.67 0zm102.77 -42.71c2.23,0 3.87,2 3.87,3.87 0,2.23 -1.65,3.87 -3.87,3.87l-20.88 0 0 82.01c0,1.99 -1.65,3.86 -3.87,3.86 -2.23,0 -3.87,-1.99 -3.87,-3.86l0 -82.01 -20.06 0c-2.23,0 -3.87,-1.65 -3.87,-3.87 0,-2 1.64,-3.87 3.87,-3.87l20.06 0 0 -29.92c0,-1.99 1.52,-3.87 3.51,-4.11 2.47,-0.23 4.35,1.53 4.35,3.87l0 30.15 20.76 0zm127.41 39.66l0 49.63c0,2.23 -2,3.87 -3.87,3.87 -2.23,0 -3.87,-1.65 -3.87,-3.87l0 -49.63c0,-16.78 -9.5,-33.44 -28.16,-33.44 -23.94,0 -34.26,20.88 -32.85,42.35 0,0.59 0.24,3.05 0.24,3.4l0 37.19c0,2 -1.53,3.87 -3.52,4.1 -2.46,0.24 -4.34,-1.52 -4.34,-3.87l0 -163.19c0,-2 1.64,-3.87 3.87,-3.87 2.23,0 3.87,2 3.87,3.87l0 92.21c6.69,-11.97 18.66,-20.06 32.62,-20.06 23,0 36.02,20.06 36.02,41.3zm139.73 6.69c0,2.23 -1.88,4.11 -4.22,4.11l-77.78 0c2,19.23 16.42,36.83 36.84,36.83 13.96,0 24.28,-5.28 32.03,-16.42 0.82,-1.18 1.99,-2 3.4,-2 2.23,0 3.87,1.65 3.87,3.87 0,0.82 -0.23,1.41 -0.59,2 -7.86,13.61 -23.46,20.3 -38.71,20.3 -26.16,0 -44.93,-23.46 -44.93,-48.45 0,-25.11 18.66,-48.45 44.93,-48.45 26.05,0 44.93,23.23 45.17,48.22zm-8.45 -3.64c-1.65,-19.24 -16.42,-36.84 -36.84,-36.84 -20.3,0 -34.84,17.6 -36.84,36.84l73.68 0zm103.94 -39.07c0,2.46 -1.41,3.87 -3.63,4.22 -22.88,3.4 -33.21,22.06 -33.21,43.76l0 37.19c0,1.99 -1.52,3.87 -3.51,4.1 -2.47,0.23 -4.35,-1.52 -4.35,-3.87l0 -84.83c0,-1.99 1.53,-3.87 3.52,-4.1 2.47,-0.23 4.34,1.52 4.34,3.87l0 17.25c6.45,-10.91 19.24,-21.24 32.62,-21.24 2,0 4.22,1.41 4.22,3.64zm128 42.7c0,2.23 -1.88,4.11 -4.22,4.11l-77.79 0c2,19.23 16.43,36.83 36.84,36.83 13.96,0 24.29,-5.28 32.03,-16.42 0.82,-1.18 2,-2 3.4,-2 2.23,0 3.87,1.65 3.87,3.87 0,0.82 -0.24,1.41 -0.59,2 -7.86,13.61 -23.46,20.3 -38.72,20.3 -26.16,0 -44.93,-23.46 -44.93,-48.45 0,-25.11 18.66,-48.45 44.93,-48.45 26.16,0 45.05,23.23 45.17,48.22zm-8.33 -3.64c-1.64,-19.24 -16.43,-36.84 -36.84,-36.84 -20.41,0 -34.84,17.6 -36.84,36.84l73.68 0zm134.09 -38.13l0 85.17c0,2.23 -1.99,3.87 -3.87,3.87 -2.23,0 -3.87,-1.64 -3.87,-3.87l0 -16.19c-6.45,12.79 -17.84,22.06 -32.38,22.06 -23.11,0 -35.9,-20.06 -35.9,-41.3l0 -49.86c0,-1.99 1.64,-3.87 3.87,-3.87 2.23,0 3.87,2 3.87,3.87l0 49.86c0,16.78 9.5,33.44 28.16,33.44 26.16,0 32.38,-24.52 32.38,-51.62l0 -31.79c0,-2.35 2.46,-4.7 5.28,-3.64 1.41,0.7 2.46,2.22 2.46,3.87l-0 0zm196.98 34.73l0 49.86c0,2.23 -2,3.87 -3.87,3.87 -2.23,0 -3.87,-1.64 -3.87,-3.87l0 -49.86c0,-16.78 -9.5,-33.21 -28.16,-33.21 -23.46,0 -32.38,25.11 -32.38,44.58l0 38.48c0,2.23 -1.99,3.87 -3.87,3.87 -2.22,0 -3.87,-1.64 -3.87,-3.87l0 -49.86c0,-16.78 -9.5,-33.21 -28.16,-33.21 -23.7,0 -33.44,18.66 -32.62,43.53 0,0.59 0.24,1.65 0,2l0 37.43c0,1.99 -1.53,3.87 -3.52,4.1 -2.46,0.24 -4.34,-1.52 -4.34,-3.87l0 -85.06c0,-1.99 1.53,-3.87 3.52,-4.1 2.46,-0.23 4.34,1.52 4.34,3.87l0 14.2c6.69,-11.97 18.66,-19.83 32.62,-19.83 15.84,0 28.16,10.09 33.2,24.76 6.45,-14.55 19.01,-24.76 35.08,-24.76 22.88,0 35.9,19.83 35.9,40.95l0 0z"/>
 </g>
</svg>
