<?xml version="1.0" encoding="UTF-8"?>
<!DOCTYPE svg PUBLIC "-//W3C//DTD SVG 1.1//EN" "http://www.w3.org/Graphics/SVG/1.1/DTD/svg11.dtd">
<!-- Creator: CorelDRAW 2021 (64-Bit) -->
<svg xmlns="http://www.w3.org/2000/svg" xml:space="preserve" width="1.09557in" height="0.140697in" version="1.1" style="shape-rendering:geometricPrecision; text-rendering:geometricPrecision; image-rendering:optimizeQuality; fill-rule:evenodd; clip-rule:evenodd"
viewBox="0 0 159.68 20.51"
 xmlns:xlink="http://www.w3.org/1999/xlink"
 xmlns:xodm="http://www.corel.com/coreldraw/odm/2003">
 <defs>
  <style type="text/css">
   <![CDATA[
    .fil0 {fill:black}
   ]]>
  </style>
 </defs>
 <g id="Layer_x0020_1">
  <metadata id="CorelCorpID_0Corel-Layer"/>
  <path class="fil0" d="M18.02 12.44c-0.95,3.39 -4.07,5.88 -7.77,5.88 -4.46,0 -8.07,-3.61 -8.07,-8.07 0,-4.46 3.61,-8.07 8.07,-8.07 2.5,0 4.73,1.14 6.21,2.92l1.69 -1.39c-1.88,-2.27 -4.72,-3.72 -7.9,-3.72 -5.66,0 -10.25,4.59 -10.25,10.25 0,5.66 4.59,10.25 10.25,10.25 3.04,0 5.78,-1.33 7.66,-3.43l0 3.02 2.6 0 0 -4.92 0 -0.41 -0.72 -0.72 -1.6 -1.6 2.09 0 0.23 0 0 -2.19 -2.19 0 -8.2 0 0 2.19 7.9 0zm13.91 -12.03l-8.68 0 0 19.69 2.57 0 0 -5.21 -2.44 -2.45 6.15 0 6.9 7.66 3.16 0 -7.19 -7.85 0.34 0c3.7,-0.17 6.36,-2.51 6.36,-5.86 0,-3.63 -2.86,-5.98 -7.18,-5.98zm4.61 5.98c0,2.32 -1.76,3.87 -4.61,3.87l-6.11 0 0 -7.61 6.11 0c2.86,0 4.61,1.42 4.61,3.74zm11.04 -5.98l3.51 0 5.77 15.27 -12.64 0 -1.7 4.41 -2.46 0 7.52 -19.69zm9.28 15.28l-0 -0 0.01 0 -0.01 0zm0 0l1.66 4.41 -2.46 0 -1.06 -2.75 1.85 -1.66zm-3.23 -2.1l-4.18 -10.95 -0.25 0 -4.21 10.95 8.65 0 0 0zm63.9 -13.18l-3.51 0 -7.52 19.69 2.46 0 1.7 -4.41 12.64 0 0 0 -1.85 1.65 1.06 2.75 2.46 0 -1.66 -4.41 0 -0 -0.01 0 -5.77 -15.27zm-1.64 2.23l4.18 10.95 -0 0 -8.65 0 4.21 -10.95 0.25 0zm-58.26 -2.23l-2.66 0 5.64 9.84 2.66 0 -5.63 -9.84zm14.29 0l-2.66 0 -7.11 12.44 0 7.25 2.6 0 0 -7.15 7.18 -12.53zm71.09 8.79l0 8.75 11.35 0 0 2.14 -13.94 0 0 -7.44 0 -1.67 0 -10.59 14.08 0 0 2.19 -11.48 0 0 6.56 2.39 0 5.61 0 0 2.19 -6.04 0 -1.96 -2.14zm15.17 -6.2c0.88,0 1.51,-0.62 1.51,-1.51 0,-0.88 -0.62,-1.5 -1.51,-1.5 -0.87,0 -1.5,0.64 -1.5,1.5 0,0.88 0.62,1.51 1.5,1.51zm0 -0.21c-0.75,0 -1.28,-0.54 -1.28,-1.3 0,-0.74 0.53,-1.29 1.28,-1.29 0.75,0 1.28,0.55 1.28,1.29 0,0.76 -0.53,1.3 -1.28,1.3zm-0.61 -0.39l0.23 0 0 -0.74 0.28 0 0.55 0.74 0.3 0 -0.58 -0.74 0.01 0c0.33,0 0.59,-0.22 0.59,-0.53 0,-0.33 -0.25,-0.56 -0.59,-0.56l-0.79 0 0 1.84zm0.23 -0.94l0 -0.7 0.53 0c0.21,0 0.39,0.14 0.39,0.35 0,0.21 -0.16,0.35 -0.39,0.35l-0.53 0zm-83.05 4.1c0,2.52 2.49,2.99 5.24,3.42l0 0c3.39,0.57 7.23,1.33 7.23,5.68 0,3.58 -2.67,5.84 -7.26,5.84 -4.89,0 -7.9,-2.62 -7.92,-6.87l0 -0.03 0 -0 0 -1.17 2.38 0 0 1.17c0.03,2.96 2.07,4.73 5.56,4.73 3.05,0 4.82,-1.36 4.82,-3.5 0,-2.63 -2.6,-3.07 -5.4,-3.53 -3.36,-0.54 -7.07,-1.44 -7.07,-5.59 0,-3.45 2.49,-5.7 7.07,-5.7 4.58,0 7.36,2.65 7.39,6.7l-2.33 0c0,-2.72 -1.85,-4.53 -5.06,-4.53 -3.02,0 -4.66,1.33 -4.66,3.4zm29.49 9.74c-1.25,1.82 -3.42,3.02 -5.77,3.02 -4.3,0 -7.42,-3.39 -7.42,-8.09 0,-4.7 3.09,-8.07 7.42,-8.07 2.33,0 4.46,1.18 5.7,3 0.1,-0.09 0.69,-0.65 1.14,-1.09l0 -0 0 -0c0.28,-0.27 0.51,-0.49 0.55,-0.52 -1.72,-2.17 -4.43,-3.55 -7.39,-3.55 -5.74,0 -9.88,4.29 -9.88,10.24 -0.03,5.95 4.14,10.27 9.88,10.27 3.01,0 5.78,-1.38 7.48,-3.54 -0.05,-0.06 -0.53,-0.52 -0.97,-0.94l-0 -0c-0.37,-0.35 -0.7,-0.68 -0.74,-0.72zm24.66 -14.9l-2.43 0 0 19.69 12.45 0 0 -2.19 -12.18 0 2.16 -2.12 0 -15.38z"/>
 </g>
</svg>
