<svg width="99px" height="30px" viewBox="0 0 99 30" fill="none" xmlns="http://www.w3.org/2000/svg"><style>*, ::before, ::after { box-sizing: inherit; }
*, ::before, ::after { box-sizing: inherit; }</style><g clip-path="url(#clip0_491_11379)"><path d="M3.44629 23.5903C4.71372 25.3533 6.3395 26.8284 8.217 27.919C10.0945 29.0095 12.1813 29.6908 14.3407 29.9184C13.2297 28.2466 11.6149 26.7086 9.59891 25.5377C7.58295 24.3668 5.44801 23.7271 3.44629 23.5903Z" fill="currentColor"></path><path d="M12.3075 20.8774C8.42362 18.6209 4.21984 18.0459 1.21191 19.0617C1.50229 20.0214 1.88525 20.9507 2.3554 21.8364C4.96877 21.7758 7.82213 22.4856 10.4772 24.0277C13.1323 25.5698 15.163 27.6981 16.4056 29.9988C17.4084 29.968 18.4059 29.8403 19.3841 29.6174C18.7759 26.5017 16.1906 23.1343 12.3075 20.8774Z" fill="currentColor"></path><path d="M30.8109 11.7176C30.3171 9.70905 29.4236 7.82057 28.1837 6.16496C26.9439 4.50934 25.3831 3.12055 23.5947 2.0815C21.8062 1.04245 19.8267 0.374456 17.7744 0.117399C15.722 -0.139658 13.6389 0.0194962 11.6494 0.585358C14.973 0.992106 18.6623 2.23982 22.2803 4.34171C25.8984 6.44359 28.8122 9.03002 30.8109 11.7176Z" fill="currentColor"></path><path d="M25.9787 19.0834C24.2774 16.2581 21.3631 13.5526 17.7729 11.4671C14.1829 9.3814 10.3899 8.19012 7.09576 8.11131C4.19766 8.04267 2.02256 8.88515 1.12974 10.4222C1.12465 10.4313 1.11753 10.4399 1.11194 10.4491C1.03161 10.7374 0.96246 11.0261 0.899414 11.316C2.14611 10.8238 3.59058 10.5498 5.19674 10.5192C8.76853 10.4522 12.7658 11.5946 16.4546 13.7377C20.1433 15.8808 23.1182 18.7886 24.8286 21.9236C25.5953 23.336 26.0738 24.7266 26.2634 26.0551C26.4841 25.8579 26.7007 25.654 26.9107 25.442C26.9163 25.4323 26.9198 25.4221 26.9254 25.412C27.8183 23.8735 27.473 21.5671 25.9787 19.0834Z" fill="currentColor"></path><path d="M15.0424 16.167C9.54468 12.9731 3.46935 12.4727 0.547852 14.7017C0.55359 15.3994 0.60693 16.0959 0.707501 16.7863C1.56691 16.5258 2.45264 16.3617 3.34833 16.2972C6.61302 16.0516 10.2123 16.9613 13.4785 18.8597C16.7447 20.7582 19.3194 23.4357 20.7237 26.3912C21.1119 27.2009 21.408 28.0516 21.6063 28.9273C22.2561 28.6726 22.8879 28.3741 23.4973 28.034C23.9864 24.3915 20.5417 19.3616 15.0424 16.167Z" fill="currentColor"></path><path d="M28.7999 14.3518C27.0794 11.5294 24.1396 8.8164 20.524 6.71706C16.9085 4.61771 13.1008 3.40763 9.79598 3.31051C7.27666 3.23781 5.32527 3.84844 4.31348 5.00209C8.5147 4.29027 14.0562 5.48664 19.4273 8.60693C24.7985 11.7273 28.5843 15.9493 30.0456 19.9512C30.5464 18.5016 30.1107 16.504 28.7999 14.3518Z" fill="currentColor"></path><path d="M44.2892 9.28511H46.854V17.8424C46.854 18.6335 46.6762 19.3206 46.3207 19.9039C45.9691 20.4872 45.4798 20.9367 44.8525 21.2522C44.2253 21.5679 43.4962 21.7257 42.6652 21.7257C41.9262 21.7257 41.255 21.5958 40.6517 21.3361C40.0525 21.0724 39.5771 20.6729 39.2255 20.1376C38.874 19.5983 38.7001 18.9211 38.7042 18.1062H41.287C41.295 18.4298 41.3609 18.7074 41.4847 18.9391C41.6126 19.1668 41.7863 19.3426 42.006 19.4665C42.2297 19.5863 42.4934 19.6462 42.7971 19.6462C43.1167 19.6462 43.3863 19.5783 43.6061 19.4425C43.8298 19.3027 43.9995 19.0989 44.1154 18.8312C44.2313 18.5636 44.2892 18.2339 44.2892 17.8424V9.28511ZM54.8541 17.6387V12.3533H57.4069V21.5578H54.9559V19.8859H54.86C54.6524 20.4252 54.3067 20.8587 53.8233 21.1863C53.344 21.5139 52.7587 21.6777 52.0676 21.6777C51.4523 21.6777 50.911 21.5379 50.4435 21.2582C49.9761 20.9786 49.6106 20.5811 49.3469 20.0657C49.0873 19.5504 48.9555 18.9331 48.9514 18.214V12.3533H51.5042V17.7585C51.5083 18.3019 51.654 18.7314 51.9417 19.0469C52.2293 19.3626 52.6149 19.5204 53.0983 19.5204C53.4059 19.5204 53.6935 19.4504 53.9611 19.3107C54.2289 19.1668 54.4446 18.9551 54.6084 18.6754C54.7762 18.3957 54.858 18.0502 54.8541 17.6387ZM59.4489 25.0095V12.3533H61.9657V13.8994H62.0796C62.1914 13.6517 62.3533 13.4 62.5649 13.1443C62.7807 12.8847 63.0603 12.6689 63.4039 12.4971C63.7514 12.3213 64.183 12.2335 64.6983 12.2335C65.3695 12.2335 65.9887 12.4092 66.556 12.7608C67.1233 13.1083 67.5767 13.6337 67.9163 14.3368C68.2559 15.0359 68.4256 15.9129 68.4256 16.9676C68.4256 17.9943 68.2599 18.8612 67.9283 19.5683C67.6007 20.2714 67.1533 20.8047 66.586 21.1683C66.0226 21.5278 65.3914 21.7077 64.6923 21.7077C64.197 21.7077 63.7755 21.6257 63.4279 21.4619C63.0843 21.2982 62.8027 21.0925 62.583 20.8447C62.3632 20.5931 62.1954 20.3394 62.0796 20.0837H62.0017V25.0095H59.4489ZM61.9477 16.9556C61.9477 17.5029 62.0236 17.9802 62.1754 18.3878C62.3273 18.7953 62.5469 19.1128 62.8347 19.3406C63.1223 19.5643 63.4718 19.6762 63.8834 19.6762C64.2989 19.6762 64.6504 19.5623 64.938 19.3347C65.2257 19.1029 65.4434 18.7833 65.5912 18.3758C65.743 17.9643 65.8189 17.4909 65.8189 16.9556C65.8189 16.4242 65.745 15.9568 65.5972 15.5533C65.4494 15.1498 65.2317 14.8342 64.944 14.6065C64.6563 14.3787 64.3028 14.2649 63.8834 14.2649C63.4679 14.2649 63.1163 14.3748 62.8287 14.5945C62.545 14.8142 62.3273 15.1258 62.1754 15.5293C62.0236 15.9328 61.9477 16.4082 61.9477 16.9556ZM70.1276 21.5578V12.3533H72.6804V21.5578H70.1276ZM71.41 11.1668C71.0304 11.1668 70.7048 11.041 70.4332 10.7892C70.1655 10.5336 70.0317 10.228 70.0317 9.87237C70.0317 9.52081 70.1655 9.2192 70.4332 8.96751C70.7048 8.71183 71.0304 8.58398 71.41 8.58398C71.7895 8.58398 72.1131 8.71183 72.3808 8.96751C72.6524 9.2192 72.7882 9.52081 72.7882 9.87237C72.7882 10.228 72.6524 10.5336 72.3808 10.7892C72.1131 11.041 71.7895 11.1668 71.41 11.1668ZM79.6213 12.3533V14.2709H74.0781V12.3533H79.6213ZM75.3366 10.148H77.8894V18.7294C77.8894 18.9651 77.9253 19.1488 77.9972 19.2807C78.0691 19.4085 78.1691 19.4984 78.2969 19.5504C78.4288 19.6023 78.5805 19.6283 78.7523 19.6283C78.8722 19.6283 78.992 19.6182 79.1119 19.5983C79.2317 19.5743 79.3236 19.5564 79.3875 19.5444L79.7891 21.444C79.6612 21.484 79.4814 21.5299 79.2497 21.5818C79.018 21.6377 78.7364 21.6717 78.4048 21.6837C77.7895 21.7077 77.2502 21.6257 76.7867 21.438C76.3274 21.2502 75.9698 20.9586 75.7141 20.5631C75.4584 20.1675 75.3326 19.6682 75.3366 19.0649V10.148ZM85.38 21.7377C84.4333 21.7377 83.6183 21.5458 82.9351 21.1623C82.2559 20.7748 81.7326 20.2275 81.3651 19.5204C80.9975 18.8093 80.8138 17.9683 80.8138 16.9976C80.8138 16.0507 80.9975 15.2197 81.3651 14.5047C81.7326 13.7895 82.25 13.2322 82.9171 12.8327C83.5883 12.4332 84.3753 12.2335 85.2782 12.2335C85.8854 12.2335 86.4508 12.3313 86.9741 12.5271C87.5014 12.7188 87.9609 13.0085 88.3524 13.396C88.7479 13.7835 89.0555 14.2709 89.2753 14.8582C89.4949 15.4415 89.6048 16.1246 89.6048 16.9077V17.6087H81.8325V16.0267H87.2018C87.2018 15.6592 87.1219 15.3336 86.9621 15.0499C86.8023 14.7663 86.5806 14.5446 86.2969 14.3847C86.0173 14.221 85.6917 14.139 85.3201 14.139C84.9327 14.139 84.5891 14.2289 84.2894 14.4087C83.9938 14.5845 83.7621 14.8222 83.5943 15.1218C83.4265 15.4175 83.3406 15.747 83.3366 16.1106V17.6147C83.3366 18.0702 83.4205 18.4637 83.5883 18.7953C83.7601 19.1269 84.0018 19.3826 84.3134 19.5624C84.625 19.7421 84.9945 19.832 85.422 19.832C85.7056 19.832 85.9653 19.7921 86.201 19.7122C86.4368 19.6322 86.6385 19.5124 86.8063 19.3526C86.9741 19.1928 87.102 18.9971 87.1898 18.7653L89.5509 18.9211C89.4311 19.4884 89.1854 19.9838 88.8138 20.4072C88.4462 20.8268 87.9708 21.1543 87.3876 21.39C86.8083 21.6218 86.1391 21.7377 85.38 21.7377ZM91.2707 21.5578V12.3533H93.7456V13.9593H93.8415C94.0094 13.388 94.291 12.9566 94.6869 12.6649C95.0816 12.3693 95.5372 12.2215 96.0528 12.2215C96.1803 12.2215 96.3181 12.2294 96.4663 12.2455C96.6144 12.2614 96.7438 12.2833 96.8563 12.3114V14.5766C96.7363 14.5406 96.5703 14.5086 96.3584 14.4807C96.1466 14.4527 95.9525 14.4387 95.7772 14.4387C95.4013 14.4387 95.0656 14.5206 94.7703 14.6844C94.4788 14.8442 94.247 15.0679 94.0753 15.3555C93.9074 15.6432 93.8235 15.9747 93.8235 16.3503V21.5578H91.2707Z" fill="currentColor"></path></g><defs><clipPath id="clip0_491_11379"><rect width="97.5" height="30" fill="currentColor" transform="translate(0.547852)"></rect></clipPath></defs></svg>