<?xml version="1.0" encoding="UTF-8"?>
<!DOCTYPE svg PUBLIC "-//W3C//DTD SVG 1.1//EN" "http://www.w3.org/Graphics/SVG/1.1/DTD/svg11.dtd">
<!-- Creator: CorelDRAW 2021 (64-Bit) -->
<svg xmlns="http://www.w3.org/2000/svg" xml:space="preserve" width="0.972465in" height="0.2585in" version="1.1" style="shape-rendering:geometricPrecision; text-rendering:geometricPrecision; image-rendering:optimizeQuality; fill-rule:evenodd; clip-rule:evenodd"
viewBox="0 0 193.72 51.49"
 xmlns:xlink="http://www.w3.org/1999/xlink"
 xmlns:xodm="http://www.corel.com/coreldraw/odm/2003">
 <defs>
  <style type="text/css">
   <![CDATA[
    .fil0 {fill:black;fill-rule:nonzero}
   ]]>
  </style>
 </defs>
 <g id="Layer_x0020_1">
  <metadata id="CorelCorpID_0Corel-Layer"/>
  <path class="fil0" d="M37.36 39.9c-5.6,-9.09 -13.94,-14.24 -24.25,-16.39 -3.65,-0.75 -7.31,-0.75 -10.84,0.65 -2.42,0.95 -2.79,1.96 -1.65,4.5 7.74,-1.84 14.95,-0.13 21.69,3.77 6.79,3.93 11.86,9.4 14.17,17.18 3.24,-0.99 3.65,-1.53 2.87,-4.54 -0.46,-1.77 -1.04,-3.61 -1.99,-5.16zm149.14 -1.63l-4.97 0 0 -18.99 4.61 0 0 2.7c0.79,-1.27 1.51,-2.11 2.14,-2.51 0.63,-0.4 1.36,-0.59 2.16,-0.59 1.14,0 2.23,0.32 3.28,0.95l-1.54 4.38c-0.84,-0.55 -1.62,-0.82 -2.34,-0.82 -0.7,0 -1.29,0.2 -1.78,0.58 -0.48,0.39 -0.87,1.09 -1.14,2.1 -0.28,1.01 -0.42,3.13 -0.42,6.36l0 5.85zm-14.05 -6l4.97 0.84c-0.63,1.84 -1.64,3.23 -3.02,4.2 -1.38,0.96 -3.1,1.44 -5.17,1.44 -3.27,0 -5.7,-1.08 -7.26,-3.24 -1.24,-1.73 -1.86,-3.92 -1.86,-6.55 0,-3.15 0.82,-5.62 2.44,-7.4 1.63,-1.79 3.69,-2.68 6.18,-2.68 2.79,0 5,0.93 6.62,2.8 1.61,1.87 2.39,4.73 2.32,8.58l-12.45 0c0.04,1.49 0.43,2.65 1.2,3.48 0.76,0.83 1.72,1.24 2.85,1.24 0.78,0 1.43,-0.21 1.96,-0.64 0.53,-0.43 0.93,-1.12 1.2,-2.07zm0.29 -5.09c-0.04,-1.46 -0.41,-2.57 -1.11,-3.32 -0.71,-0.76 -1.57,-1.14 -2.58,-1.14 -1.08,0 -1.98,0.4 -2.69,1.2 -0.71,0.8 -1.05,1.89 -1.04,3.26l7.42 0zm-14.66 -7.9l0 3.99 -3.41 0 0 7.69c0,1.56 0.03,2.47 0.1,2.73 0.07,0.26 0.21,0.47 0.45,0.64 0.23,0.16 0.51,0.25 0.84,0.25 0.47,0 1.13,-0.16 2.01,-0.48l0.42 3.9c-1.16,0.5 -2.46,0.75 -3.93,0.75 -0.89,0 -1.7,-0.15 -2.42,-0.46 -0.72,-0.3 -1.25,-0.7 -1.58,-1.18 -0.34,-0.49 -0.57,-1.14 -0.7,-1.97 -0.1,-0.59 -0.16,-1.77 -0.16,-3.56l0 -8.31 -2.29 0 0 -3.99 2.29 0 0 -3.77 4.97 -2.96 0 6.73 3.41 0zm-18.68 -2.56l0 -4.65 4.97 0 0 4.65 -4.97 0zm0 21.55l0 -18.99 4.97 0 0 18.99 -4.97 0zm-22.31 -18.99l4.65 0 0 2.79c0.6,-0.95 1.41,-1.72 2.44,-2.31 1.03,-0.59 2.17,-0.88 3.42,-0.88 2.18,0 4.04,0.87 5.56,2.6 1.52,1.73 2.29,4.14 2.29,7.23 0,3.18 -0.77,5.64 -2.3,7.4 -1.54,1.76 -3.4,2.64 -5.59,2.64 -1.04,0 -1.98,-0.21 -2.83,-0.63 -0.84,-0.41 -1.74,-1.13 -2.67,-2.14l0 9.5 -4.97 0 0 -26.2zm4.9 9.2c0,2.14 0.42,3.72 1.26,4.74 0.83,1.02 1.86,1.53 3.05,1.53 1.16,0 2.12,-0.47 2.89,-1.41 0.77,-0.94 1.15,-2.48 1.15,-4.62 0,-2 -0.39,-3.48 -1.19,-4.45 -0.79,-0.97 -1.77,-1.45 -2.93,-1.45 -1.22,0 -2.23,0.48 -3.02,1.43 -0.8,0.95 -1.2,2.36 -1.2,4.23zm-14.47 9.79l0 -2.84c-0.69,1.01 -1.59,1.82 -2.71,2.42 -1.12,0.6 -2.3,0.9 -3.54,0.9 -1.27,0 -2.41,-0.28 -3.41,-0.84 -1.01,-0.56 -1.74,-1.35 -2.18,-2.37 -0.45,-1.02 -0.68,-2.42 -0.68,-4.21l0 -12.04 4.97 0 0 8.74c0,2.68 0.09,4.31 0.28,4.92 0.18,0.6 0.51,1.08 1,1.43 0.48,0.35 1.1,0.53 1.85,0.53 0.85,0 1.61,-0.24 2.29,-0.71 0.68,-0.47 1.14,-1.05 1.39,-1.76 0.25,-0.7 0.37,-2.41 0.37,-5.13l0 -8.02 4.97 0 0 18.99 -4.61 0zm-23.27 -26.2l5.26 0 0 16.6c0,2.17 -0.19,3.84 -0.57,5.01 -0.51,1.52 -1.43,2.75 -2.76,3.68 -1.33,0.92 -3.09,1.38 -5.28,1.38 -2.56,0 -4.54,-0.72 -5.92,-2.16 -1.38,-1.44 -2.08,-3.57 -2.09,-6.36l4.97 -0.59c0.06,1.49 0.27,2.55 0.65,3.17 0.56,0.94 1.42,1.41 2.56,1.41 1.16,0 1.98,-0.34 2.46,-1.01 0.48,-0.67 0.72,-2.07 0.72,-4.19l0 -16.93zm-78.77 29.08c4.58,5.81 10.39,9.19 17.85,10.29 -2.85,-5.32 -12.89,-11.08 -17.85,-10.29zm46.45 -21.67c-3.94,-14.99 -19.94,-22.2 -31.77,-18.55 12.75,2.51 23.2,8.59 31.77,18.55zm-4.46 3.47c-4.75,-6.64 -11.3,-11.07 -18.74,-14.22 -5.15,-2.19 -10.49,-3.5 -16.16,-2.82 -1.96,0.24 -3.8,0.8 -5.31,2.07 19.35,0.49 33.9,8.87 43.91,25.41 0.02,-1.1 0.18,-2.32 -0.22,-3.31 -1.01,-2.45 -1.96,-5.01 -3.48,-7.13zm-46.22 10.21c0.61,1.36 1.01,2.89 1.93,3.99 0.46,0.56 1.86,0.34 2.83,0.48 0.15,0.02 0.3,0.04 0.45,0.06 8.62,1.28 15.43,5.46 20.29,12.74 0.28,0.43 0.75,1.06 1.12,1.06 1.46,-0.01 2.92,-0.23 4.4,-0.38 -2.2,-12.17 -20.31,-22.16 -31.02,-17.95zm42.24 -0.67c-7.19,-10.47 -17.37,-16.33 -29.81,-18.29 -3.29,-0.52 -6.65,-0.38 -9.74,1.2 -1.47,0.75 -2.78,1.72 -3.13,3.76 9.7,-2.67 18.41,-0.31 26.6,4.44 8.24,4.78 14.67,11.19 17.18,21.04 1.74,-1.54 2.05,-3.44 1.6,-5.2 -0.62,-2.41 -1.32,-4.95 -2.7,-6.95z"/>
 </g>
</svg>
