<?xml version="1.0" encoding="UTF-8"?>
<!DOCTYPE svg PUBLIC "-//W3C//DTD SVG 1.1//EN" "http://www.w3.org/Graphics/SVG/1.1/DTD/svg11.dtd">
<!-- Creator: CorelDRAW 2021 (64-Bit) -->
<svg xmlns="http://www.w3.org/2000/svg" xml:space="preserve" width="0.937094in" height="0.306925in" version="1.1" style="shape-rendering:geometricPrecision; text-rendering:geometricPrecision; image-rendering:optimizeQuality; fill-rule:evenodd; clip-rule:evenodd"
viewBox="0 0 117.59 38.51"
 xmlns:xlink="http://www.w3.org/1999/xlink"
 xmlns:xodm="http://www.corel.com/coreldraw/odm/2003">
 <defs>
  <style type="text/css">
   <![CDATA[
    .fil0 {fill:black}
   ]]>
  </style>
 </defs>
 <g id="Layer_x0020_1">
  <metadata id="CorelCorpID_0Corel-Layer"/>
  <path class="fil0" d="M54.47 11.13c9.85,-1.88 10.8,14.64 2.67,16.07 -4.77,0.84 -7.55,-2.42 -8.02,-6.57 -0.55,-4.78 1.33,-8.73 5.35,-9.49zm-35.21 -8.38c-9.11,0 -16.5,7.39 -16.5,16.51 0,9.11 7.39,16.5 16.5,16.5l9.89 0c-2.92,1.72 -6.28,2.75 -9.89,2.75 -10.66,0 -19.26,-8.68 -19.26,-19.26 0,-10.66 8.6,-19.26 19.26,-19.26 10.66,0 19.26,8.6 19.26,19.26 0,0.95 -0.09,1.89 -0.17,2.75l-2.75 0c0.17,-0.86 0.26,-1.8 0.26,-2.75 -0.09,-9.11 -7.48,-16.51 -16.59,-16.51zm15.82 27.51c-0.69,0.95 -1.55,1.89 -2.41,2.75l-4.3 0 -9.11 0c-7.56,0 -13.75,-6.19 -13.75,-13.75 0,-7.57 6.19,-13.76 13.75,-13.76 7.57,0 13.76,6.19 13.76,13.76 0,0.95 -0.09,1.89 -0.26,2.75l-2.84 0c0.26,-0.86 0.34,-1.8 0.34,-2.75 0,-6.1 -4.9,-11 -11,-11 -6.1,0 -11,4.9 -11,11 0,6.1 4.9,11 11,11l8.25 0 4.04 0 3.52 0zm1.55 -2.75c0,0 0,0 0,0 0.43,-0.86 0.77,-1.8 1.03,-2.75l-2.92 0 -2.92 0 -3.09 0 -3.35 0 -6.19 0c-3.01,0 -5.5,-2.49 -5.5,-5.5 0,-3.01 2.49,-5.5 5.5,-5.5 3.01,0 5.5,2.49 5.5,5.5 0,1.03 -0.26,1.98 -0.77,2.75l3.01 0c0.34,-0.86 0.43,-1.8 0.43,-2.75 0,-4.56 -3.7,-8.25 -8.25,-8.25 -4.56,0 -8.25,3.7 -8.25,8.25 0,4.56 3.7,8.25 8.25,8.25l7.31 0 3.7 0 3.44 0 3.09 0zm42.72 -7.25l0.01 9.77 3.18 -0.07c-0.03,-2.47 -0,-4.96 -0,-7.43 0,-2.57 0.14,-4.39 -1.11,-6.33 -0.94,-1.47 -2.95,-2.42 -5.33,-2.06 -1.65,0.25 -3.17,1.25 -3.93,2.63 -0.21,0.39 -0.1,0.39 -0.51,0.51l-0.41 -2.92 -2.7 0 -0.05 15.62c0.38,0.22 2.82,0.13 3.16,0.05l0.05 -8.98c0.08,-5.05 7.53,-6.07 7.62,-0.79zm29.6 -3.36c6.44,-1.53 7.22,9.47 2.04,10.59 -6.47,1.4 -7.24,-9.35 -2.04,-10.59zm-0.22 -2.74c-4.24,0.65 -6.9,4.31 -6.29,9.33 0.51,4.27 3.81,7.45 8.8,6.75 9.48,-1.32 8.12,-17.72 -2.51,-16.08zm-17.48 2.74c3.13,-0.74 5.44,1.39 5.58,4.2 0.08,1.59 0.1,3.04 -0.56,4.33 -0.48,0.93 -1.54,1.8 -2.84,2.09 -3.29,0.73 -5.16,-1.34 -5.47,-4.21 -0.33,-3.14 0.69,-5.8 3.29,-6.41zm5.59 0.48c-0.38,-0.11 -0.06,0.14 -0.34,-0.29 -0.33,-0.52 -0.19,-0.59 -0.88,-1.3 -3.24,-3.31 -10.7,-2.26 -10.91,6.19 -0.16,6.48 4.27,9.57 8.87,7.98 2.39,-0.83 2.68,-2.25 3.17,-2.7 0.28,0.38 0.35,2.13 0.48,2.76l2.76 0.01 0.02 -21.9 -3.15 -0.03 -0.01 9.28zm-42.77 -9.19c-5.86,0.86 -9.2,5.99 -8.38,12.81 0.7,5.87 5.09,10.28 11.95,9.2 5.81,-0.92 9.15,-5.98 8.34,-12.88 -0.69,-5.88 -5.08,-10.13 -11.91,-9.13z"/>
 </g>
</svg>
