<?xml version="1.0" encoding="UTF-8"?>
<!DOCTYPE svg PUBLIC "-//W3C//DTD SVG 1.1//EN" "http://www.w3.org/Graphics/SVG/1.1/DTD/svg11.dtd">
<!-- Creator: CorelDRAW 2021 (64-Bit) -->
<svg xmlns="http://www.w3.org/2000/svg" xml:space="preserve" width="0.941496in" height="0.312496in" version="1.1" style="shape-rendering:geometricPrecision; text-rendering:geometricPrecision; image-rendering:optimizeQuality; fill-rule:evenodd; clip-rule:evenodd"
viewBox="0 0 180.96 60.06"
 xmlns:xlink="http://www.w3.org/1999/xlink"
 xmlns:xodm="http://www.corel.com/coreldraw/odm/2003">
 <defs>
  <style type="text/css">
   <![CDATA[
    .fil1 {fill:none}
    .fil0 {fill:black}
   ]]>
  </style>
   <clipPath id="id0">
    <path d="M-0 60.06l180.96 0 0 -60.06 -180.96 0 0 60.06z"/>
   </clipPath>
 </defs>
 <g id="Layer_x0020_1">
  <metadata id="CorelCorpID_0Corel-Layer"/>
  <g>
  </g>
  <g style="clip-path:url(#id0)">
   <g>
    <path class="fil0" d="M73.77 4c2.5,0 4.51,1.91 4.51,4.41 0,2.5 -2.02,4.41 -4.51,4.41 -2.5,0 -4.52,-1.91 -4.52,-4.41 0,-2.5 2.02,-4.41 4.52,-4.41zm-3.45 39.31l0 -25.76 6.91 0 0 25.76 -6.91 0zm-4.35 -19.65c-0.48,-0.16 -1.49,-0.27 -2.5,-0.27 -3.03,0 -6.27,2.45 -6.27,5.48l0 14.44 -6.91 0 0 -25.76 6.64 0 0 2.6c1.54,-1.91 4.36,-3.13 7.49,-3.13 0.78,0.01 1.57,0.08 2.34,0.21l-0.8 6.43zm24.12 -4.04c2.14,-1.72 4.8,-2.64 7.54,-2.61 7.01,0 12.64,5.85 12.64,13.44 0,3.51 -1.22,6.69 -3.24,9.03 -2.28,2.66 -5.95,4.36 -9.77,4.36 -2.5,0.04 -4.94,-0.79 -6.91,-2.34l0 14.55 -6.91 0 0 -38.51 6.64 0 0 2.07zm-0.41 10.86c0,4.13 2.82,7.1 7.11,7.1 3.66,0 6.63,-3.18 6.63,-7.1 0,-3.92 -2.97,-7.1 -6.63,-7.1 -4.29,0 -7.11,2.96 -7.11,7.1zm62.5 12.83l-6.91 0 0 -37.72 6.91 0 0 37.72zm17.58 0.53c3.98,0 8.07,-1.65 10.57,-4.62l-3.93 -3.93c-1.22,1.33 -3.56,2.97 -6.48,2.97 -3.66,0 -6.59,-2.5 -6.96,-6.11l17.85 0c0.11,-0.65 0.16,-1.31 0.16,-1.97 0,-7.17 -5.05,-13.17 -12.17,-13.17 -7.65,0 -12.54,6.27 -12.54,13.44 0,8.07 5.79,13.39 13.49,13.39zm-0.96 -21.25c2.82,0 4.89,2.23 5.1,4.52l-10.62 0c0.32,-2.34 2.66,-4.52 5.52,-4.52zm-40.26 -5.58c-2.74,-0.03 -5.41,0.89 -7.54,2.61l0 -2.07 -6.64 0 0 38.51 6.91 0 0 -14.55c1.96,1.55 4.4,2.38 6.91,2.34 3.82,0 7.49,-1.7 9.77,-4.36 2.02,-2.34 3.24,-5.52 3.24,-9.03 0,-7.6 -5.63,-13.44 -12.64,-13.44zm-0.84 20.56c-4.29,0 -7.11,-2.96 -7.11,-7.1 0,-4.13 2.82,-7.1 7.11,-7.1 3.66,0 6.63,3.18 6.63,7.1 0,3.92 -2.97,7.1 -6.63,7.1zm-96.7 -4.87c1.74,0.06 3.49,0.32 5.05,1.22 1.4,0.81 2.56,1.97 3.37,3.37 0.81,1.4 1.23,2.99 1.23,4.61 0,1.62 -0.43,3.2 -1.23,4.61 -0.81,1.4 -1.97,2.56 -3.37,3.37 -1.4,0.81 -2.99,1.23 -4.61,1.23 -1.62,0 -3.2,-0.43 -4.61,-1.23 -1.4,-0.81 -2.56,-1.97 -3.37,-3.37 -0.81,-1.4 -1.23,-2.99 -1.23,-4.61 0,-1.78 0.63,-3.43 1.44,-4.95 0.96,-1.81 0.43,-4.01 -1.31,-5.01 -2.36,-1.37 -4.24,0.17 -4.99,1.37 -0.91,1.46 -2.02,2.83 -3.56,3.73 -1.4,0.81 -2.99,1.23 -4.61,1.23 -1.62,0 -3.2,-0.43 -4.61,-1.23 -1.4,-0.81 -2.56,-1.97 -3.37,-3.37 -0.81,-1.4 -1.23,-2.99 -1.23,-4.61 0,-1.62 0.43,-3.2 1.23,-4.6 0.81,-1.4 1.97,-2.56 3.37,-3.37 1.4,-0.81 2.99,-1.23 4.61,-1.23 1.62,0 3.2,0.43 4.61,1.23 1.55,0.89 2.65,2.26 3.57,3.73 1.08,1.73 3.25,2.37 4.99,1.37 2.34,-1.35 1.99,-3.73 1.31,-5.01 -0.81,-1.52 -1.44,-3.16 -1.44,-4.95 -0,-1.62 0.43,-3.21 1.23,-4.61 0.81,-1.4 1.97,-2.56 3.37,-3.37 1.4,-0.81 2.99,-1.23 4.61,-1.23 1.62,0 3.2,0.43 4.6,1.23 1.4,0.81 2.56,1.97 3.37,3.37 0.81,1.4 1.23,2.99 1.23,4.61 0,1.62 -0.43,3.2 -1.23,4.61 -0.81,1.4 -1.97,2.56 -3.37,3.37 -1.56,0.9 -3.31,1.16 -5.05,1.22 -2.03,0.07 -3.64,1.66 -3.64,3.64 0,2.65 2.18,3.59 3.64,3.64z"/>
   </g>
  </g>
  <polygon class="fil1" points="-0,60.06 180.96,60.06 180.96,0 -0,0 "/>
 </g>
</svg>
