<?xml version="1.0" encoding="UTF-8"?>
<!DOCTYPE svg PUBLIC "-//W3C//DTD SVG 1.1//EN" "http://www.w3.org/Graphics/SVG/1.1/DTD/svg11.dtd">
<!-- Creator: CorelDRAW 2021 (64-Bit) -->
<svg xmlns="http://www.w3.org/2000/svg" xml:space="preserve" width="0.966008in" height="0.139488in" version="1.1" style="shape-rendering:geometricPrecision; text-rendering:geometricPrecision; image-rendering:optimizeQuality; fill-rule:evenodd; clip-rule:evenodd"
viewBox="0 0 114.55 16.54"
 xmlns:xlink="http://www.w3.org/1999/xlink"
 xmlns:xodm="http://www.corel.com/coreldraw/odm/2003">
 <defs>
  <style type="text/css">
   <![CDATA[
    .fil0 {fill:black}
   ]]>
  </style>
 </defs>
 <g id="Layer_x0020_1">
  <metadata id="CorelCorpID_0Corel-Layer"/>
  <path class="fil0" d="M18.89 13.04l-3.13 3.27c-0.07,0.07 -0.15,0.13 -0.24,0.17 -0.09,0.04 -0.19,0.06 -0.29,0.06l-14.86 0c-0.07,0 -0.14,-0.02 -0.2,-0.06 -0.06,-0.04 -0.11,-0.09 -0.13,-0.15 -0.03,-0.06 -0.04,-0.13 -0.02,-0.2 0.01,-0.07 0.04,-0.13 0.09,-0.18l3.14 -3.27c0.07,-0.07 0.15,-0.13 0.24,-0.17 0.09,-0.04 0.19,-0.06 0.29,-0.06l14.86 0c0.07,0 0.14,0.02 0.2,0.06 0.06,0.04 0.11,0.09 0.13,0.16 0.03,0.06 0.04,0.13 0.02,0.2 -0.01,0.07 -0.04,0.13 -0.09,0.18zm7.4 1.99l1.37 0c2.16,-0 4.32,-0 6.49,0l0.12 0 1.75 0c2.03,-0.04 3.47,-0.39 3.51,-2.72 0.03,-1.77 0.66,-5.04 -2.54,-5.47 -1.95,-0.26 -6.02,-0.02 -8.19,-0.02l0 -2.28c11.68,0 10.26,1.01 10.26,-2.96 -2.58,0 -5.17,0 -7.75,0 -2.93,-0 -4.84,-0.21 -5.02,2.53l0 3.61c0.03,0.2 0.08,0.39 0.15,0.56 0.94,2.43 6.83,1.51 10.35,1.51l0 2.51 -10.49 0 0 2.74zm77.78 -7.75l0 -2.74 7.53 0 0 3.42 -6.84 0c-0.53,0 -0.68,-0.16 -0.68,-0.68zm10.49 -2.96l0 10.72 -2.54 0c-0.68,-0.21 -0.42,-1.09 -0.42,-4.33l-7.53 0 0 4.33 -2.55 0c-0.51,-0.16 -0.44,-0.73 -0.42,-2.51 0.1,-10 -1.08,-10.95 5.25,-10.95 3.83,0 7.95,-0.93 8.21,2.74l0 0zm-34.67 3.64l-7.07 0 0 -3.42 7.75 0 0 2.74c0,0.53 -0.16,0.68 -0.68,0.68zm-9.81 -4.11l0 11.18 2.74 0 0 -4.33 7.75 0 0 4.33 2.74 0 0 -10.49c0,-1.51 -1.06,-2.96 -2.51,-2.96l-8.21 0c-1.19,0 -2.51,1.02 -2.51,2.28zm-25.55 0.68l7.76 0 0 7.76 -7.76 0 0 -7.76zm7.53 10.49l-7.39 0c-3.7,-0.3 -3.1,-1.99 -3.1,-10.04 0,-2.1 0.89,-3.42 2.97,-3.42l7.98 0c1.36,0 2.51,1.37 2.51,2.05l0 9.35c0,0.93 -1.29,2.05 -2.97,2.05zm33.53 -11.63l0 11.63 2.74 0 0 -10.49 1.14 0 2.15 5.84c1.6,4 1.62,4.59 3.32,4.66l1.83 0c1.46,0 2.28,-0.64 2.28,-2.05l0 -11.4 -2.97 0 0 10.72 -0.91 0 -3.35 -8.74c-0.98,-2.33 -1.29,-1.98 -4.4,-1.98 -1.1,0 -1.82,0.72 -1.82,1.82zm-28.28 9.12c0,1.46 1.41,2.51 2.97,2.51l7.3 0c0.95,0 0.68,-0.79 0.68,-2.74l-7.98 0 0 -10.04c0,-0.97 -0.88,-0.68 -2.97,-0.68l0 10.95zm-41.55 -6.08c-0.07,-0.07 -0.15,-0.13 -0.24,-0.17 -0.09,-0.04 -0.19,-0.06 -0.29,-0.06l-14.86 0c-0.07,0 -0.14,0.02 -0.2,0.06 -0.06,0.04 -0.11,0.09 -0.13,0.16 -0.03,0.06 -0.04,0.13 -0.02,0.2 0.01,0.07 0.04,0.13 0.09,0.18l3.14 3.27c0.07,0.07 0.15,0.13 0.24,0.17 0.09,0.04 0.19,0.06 0.29,0.06l14.86 0c0.07,0 0.14,-0.02 0.2,-0.06 0.06,-0.04 0.11,-0.09 0.13,-0.16 0.03,-0.06 0.04,-0.13 0.02,-0.2 -0.01,-0.07 -0.04,-0.13 -0.09,-0.18l-3.13 -3.27zm-15.39 -2.35l14.86 0c0.1,0 0.2,-0.02 0.29,-0.06 0.09,-0.04 0.17,-0.1 0.24,-0.17l3.13 -3.27c0.05,-0.05 0.08,-0.11 0.09,-0.18 0.01,-0.07 0,-0.14 -0.02,-0.2 -0.03,-0.06 -0.07,-0.12 -0.13,-0.15 -0.06,-0.04 -0.13,-0.06 -0.2,-0.06l-14.86 0c-0.1,0 -0.2,0.02 -0.29,0.06 -0.09,0.04 -0.17,0.1 -0.24,0.17l-3.14 3.27c-0.05,0.05 -0.08,0.11 -0.09,0.18 -0.01,0.07 -0,0.14 0.02,0.2 0.03,0.06 0.08,0.12 0.13,0.15 0.06,0.04 0.13,0.06 0.2,0.06z"/>
 </g>
</svg>
