<?xml version="1.0" encoding="UTF-8"?>
<!DOCTYPE svg PUBLIC "-//W3C//DTD SVG 1.1//EN" "http://www.w3.org/Graphics/SVG/1.1/DTD/svg11.dtd">
<!-- Creator: CorelDRAW 2021 (64-Bit) -->
<svg xmlns="http://www.w3.org/2000/svg" xml:space="preserve" width="1.0222in" height="0.24052in" version="1.1" style="shape-rendering:geometricPrecision; text-rendering:geometricPrecision; image-rendering:optimizeQuality; fill-rule:evenodd; clip-rule:evenodd"
viewBox="0 0 217.98 51.29"
 xmlns:xlink="http://www.w3.org/1999/xlink"
 xmlns:xodm="http://www.corel.com/coreldraw/odm/2003">
 <defs>
  <style type="text/css">
   <![CDATA[
    .fil1 {fill:black;fill-rule:nonzero}
    .fil0 {fill:url(#id0);fill-rule:nonzero}
   ]]>
  </style>
  <linearGradient id="id0" gradientUnits="userSpaceOnUse" x1="107.95" y1="27.33" x2="107.97" y2="27.31">
   <stop offset="0" style="stop-opacity:1; stop-color:black"/>
   <stop offset="1" style="stop-opacity:1; stop-color:black"/>
  </linearGradient>
 </defs>
 <g id="Layer_x0020_1">
  <metadata id="CorelCorpID_0Corel-Layer"/>
  <g id="xstocks.svg">
   <g>
    <path class="fil0" d="M51.29 0.37c0,-0.21 -0.17,-0.37 -0.37,-0.37l-16.72 0 -8.55 8.55 -8.55 -8.55 -16.72 0c-0.21,0 -0.37,0.17 -0.37,0.37l0 16.72 8.55 8.55 -8.55 8.55 0 16.72c0,0.21 0.17,0.37 0.37,0.37l16.72 0 8.55 -8.55 8.55 8.55 16.72 0c0.21,0 0.37,-0.17 0.37,-0.37l0 -16.72 -8.55 -8.55 8.55 -8.55 0 -16.72 -0 0z"/>
    <path class="fil1" d="M65.84 39.2l7.28 -10.37 -7.09 -10.07 6.06 0 4.38 6.56 4.23 -6.56 6.21 0 -7.05 10.11 7.24 10.34 -6.06 0 -4.5 -6.94 -4.54 6.94 -6.17 0zm36.2 0.61c-7.02,0 -11.13,-3.74 -11.55,-9.53l5.83 -0.27c0.46,3.2 2.29,5 5.79,5 2.86,0 4.54,-1.07 4.54,-3.13 0,-1.87 -0.95,-2.97 -6.02,-4.12 -6.94,-1.56 -9.61,-3.47 -9.61,-8.09 0,-4.84 3.78,-8.16 10.14,-8.16 6.71,0 10.33,3.81 10.9,9.15l-5.79 0.3c-0.31,-2.82 -2.1,-4.65 -5.19,-4.65 -2.63,0 -4.23,1.26 -4.23,3.16 0,2.02 1.26,2.86 5.64,3.78 7.51,1.53 9.99,4.23 9.99,8.35 0,5.07 -4.04,8.2 -10.45,8.2l-0 -0zm22.54 -0.61c-4.23,0 -6.14,-1.87 -6.14,-6.14l0 -10.03 -3.28 0 0 -4.27 3.28 0 0 -4.8 5.72 0 0 4.8 5.38 0 0 4.27 -5.38 0 0 9.34c0,1.98 0.84,2.56 2.52,2.56l2.86 0 0 4.27 -4.96 0zm17.25 0.46c-6.25,0 -10.37,-4.2 -10.37,-10.68 0,-6.45 4.12,-10.68 10.37,-10.68 6.25,0 10.37,4.23 10.37,10.68 0,6.48 -4.12,10.68 -10.37,10.68zm0 -4.39c2.86,0 4.5,-2.33 4.5,-6.29 0,-3.97 -1.64,-6.29 -4.5,-6.29 -2.86,0 -4.5,2.33 -4.5,6.29 0,3.97 1.64,6.29 4.5,6.29zm23.19 4.39c-6.29,0 -10.37,-4.23 -10.37,-10.68 0,-6.45 4.08,-10.68 10.37,-10.68 5.45,0 9.38,2.97 9.99,8.01l-5.91 0.27c-0.34,-2.52 -1.91,-3.85 -4.08,-3.85 -2.86,0 -4.5,2.29 -4.5,6.25 0,3.97 1.64,6.29 4.5,6.29 2.21,0 3.77,-1.3 4.08,-4.08l5.91 0.23c-0.57,5.03 -4.42,8.24 -9.99,8.24l0 0zm13.15 -0.46l0 -27.08 5.72 0 0 15.03 7.59 -8.39 6.86 0 -7.93 8.43 8.16 12.01 -6.25 -0 -5.6 -8.77 -2.82 3.01 0 5.76 -5.72 0zm30.66 0.46c-6.33,0 -9.53,-2.9 -9.84,-6.9l5.79 -0.19c0.34,1.94 1.56,3.05 4.04,3.05 2.06,0 3.24,-0.65 3.24,-2.02 0,-1.26 -0.65,-1.87 -4.16,-2.44 -6.48,-1.07 -8.42,-2.75 -8.42,-6.29 0,-3.93 3.05,-6.56 9.07,-6.56 5.76,0 8.73,2.94 9.26,7.02l-5.76 0.23c-0.27,-1.98 -1.52,-3.2 -3.54,-3.2 -2.06,0 -3.17,0.92 -3.17,2.29 0,1.49 0.99,2.1 3.81,2.52 6.56,0.95 8.81,2.78 8.81,6.33 0,3.97 -3.58,6.18 -9.15,6.18l0 0z"/>
   </g>
  </g>
 </g>
</svg>
