<?xml version="1.0" encoding="UTF-8"?>
<!DOCTYPE svg PUBLIC "-//W3C//DTD SVG 1.1//EN" "http://www.w3.org/Graphics/SVG/1.1/DTD/svg11.dtd">
<!-- Creator: CorelDRAW 2021 (64-Bit) -->
<svg xmlns="http://www.w3.org/2000/svg" xml:space="preserve" width="1.02713in" height="1.11898in" version="1.1" style="shape-rendering:geometricPrecision; text-rendering:geometricPrecision; image-rendering:optimizeQuality; fill-rule:evenodd; clip-rule:evenodd"
viewBox="0 0 104.63 113.99"
 xmlns:xlink="http://www.w3.org/1999/xlink"
 xmlns:xodm="http://www.corel.com/coreldraw/odm/2003">
 <defs>
  <style type="text/css">
   <![CDATA[
    .fil0 {fill:#E7E7E7}
   ]]>
  </style>
 </defs>
 <g id="Layer_x0020_1">
  <metadata id="CorelCorpID_0Corel-Layer"/>
  <path class="fil0" d="M101.5 31.89c-10.75,-2.55 -25.8,-12.32 -31.85,-1.97 -5.88,-1.78 -22.93,-12.66 -21.71,-25.29 -7.29,13.19 3.35,17.12 12.46,24.46l-14.95 -4.21c5.21,9.47 34.65,24.19 44.82,29.77 -13.69,-1.28 -29.65,-10.46 -40.19,-15.58 8.74,10.68 27.21,23.78 39.11,32.54 4.44,3.26 10.34,6.62 13.99,10.04 -9.77,-1.33 -21.48,-6.69 -28.61,-11.15 -5.75,-3.61 -18.26,-12.75 -21.65,-17.87 1.57,8.32 43.99,54.89 51.72,60.57 -5.89,-2.58 -17.01,-11.02 -22.67,-15.11 -22.7,-16.41 -77.73,-56.13 -56,-86.52 10.05,-14.06 47.52,-16.78 56.8,0.05 3.73,6.77 16.62,7.78 18.74,20.26zm-44.13 50.37c-3.92,3.12 -6.09,8.48 -10.5,10.69l0.05 -11.44c-3.84,8.01 -8.16,21.41 -18.33,23.73l5.81 -24.26c-4.78,9.64 -5.81,15.56 -34.39,33.01 1.53,-5.32 31.98,-57.14 32.48,-56.46 5.04,6.83 17.92,20.49 24.89,24.73zm19.35 -69.26l-6.44 -4.83 2.87 5.39 3.57 -0.56z"/>
 </g>
</svg>
