<?xml version="1.0" encoding="UTF-8"?>
<!DOCTYPE svg PUBLIC "-//W3C//DTD SVG 1.1//EN" "http://www.w3.org/Graphics/SVG/1.1/DTD/svg11.dtd">
<!-- Creator: CorelDRAW 2021 (64-Bit) -->
<svg xmlns="http://www.w3.org/2000/svg" xml:space="preserve" width="1.02713in" height="1.11898in" version="1.1" style="shape-rendering:geometricPrecision; text-rendering:geometricPrecision; image-rendering:optimizeQuality; fill-rule:evenodd; clip-rule:evenodd"
viewBox="0 0 176.66 192.46"
 xmlns:xlink="http://www.w3.org/1999/xlink"
 xmlns:xodm="http://www.corel.com/coreldraw/odm/2003">
 <defs>
  <style type="text/css">
   <![CDATA[
    .fil0 {fill:#111111}
   ]]>
  </style>
 </defs>
 <g id="Layer_x0020_1">
  <metadata id="CorelCorpID_0Corel-Layer"/>
  <path class="fil0" d="M171.37 53.84c-18.14,-4.3 -43.55,-20.81 -53.78,-3.32 -9.94,-3.01 -38.71,-21.37 -36.66,-42.7 -12.31,22.27 5.65,28.9 21.04,41.3l-25.24 -7.1c8.79,16 58.5,40.85 75.67,50.27 -23.11,-2.16 -50.06,-17.66 -67.86,-26.3 14.76,18.03 45.95,40.14 66.04,54.93 7.49,5.51 17.45,11.18 23.62,16.95 -16.5,-2.25 -36.27,-11.29 -48.3,-18.83 -9.72,-6.09 -30.83,-21.53 -36.56,-30.18 2.65,14.05 74.27,92.67 87.32,102.26 -9.94,-4.36 -28.73,-18.61 -38.27,-25.5 -38.32,-27.7 -131.24,-94.76 -94.56,-146.07 16.97,-23.73 80.23,-28.33 95.9,0.08 6.3,11.43 28.06,13.14 31.64,34.21zm-74.51 85.05c-6.62,5.27 -10.28,14.32 -17.73,18.05l0.08 -19.32c-6.49,13.52 -13.77,36.15 -30.96,40.06l9.81 -40.96c-8.06,16.28 -9.81,26.28 -58.07,55.74 2.58,-8.98 53.99,-96.48 54.84,-95.33 8.51,11.53 30.25,34.6 42.02,41.76zm32.67 -116.94l-10.87 -8.15 4.85 9.1 6.03 -0.95z"/>
 </g>
</svg>
