<?xml version="1.0" encoding="UTF-8"?>
<!DOCTYPE svg PUBLIC "-//W3C//DTD SVG 1.1//EN" "http://www.w3.org/Graphics/SVG/1.1/DTD/svg11.dtd">
<!-- Creator: CorelDRAW 2021 (64-Bit) -->
<svg xmlns="http://www.w3.org/2000/svg" xml:space="preserve" width="1.16011in" height="1.26385in" version="1.1" style="shape-rendering:geometricPrecision; text-rendering:geometricPrecision; image-rendering:optimizeQuality; fill-rule:evenodd; clip-rule:evenodd"
viewBox="0 0 212.84 231.87"
 xmlns:xlink="http://www.w3.org/1999/xlink"
 xmlns:xodm="http://www.corel.com/coreldraw/odm/2003">
 <defs>
  <style type="text/css">
   <![CDATA[
    .fil0 {fill:#E7E7E7}
   ]]>
  </style>
 </defs>
 <g id="Layer_x0020_1">
  <metadata id="CorelCorpID_0Corel-Layer"/>
  <path class="fil0" d="M6.37 64.86c21.86,-5.18 52.47,-25.07 64.79,-4 11.97,-3.63 46.64,-25.75 44.16,-51.44 14.83,26.83 -6.81,34.82 -25.35,49.76l30.41 -8.56c-10.6,19.27 -70.48,49.21 -91.17,60.56 27.84,-2.6 60.31,-21.28 81.76,-31.68 -17.78,21.72 -55.36,48.36 -79.57,66.18 -9.02,6.64 -21.02,13.47 -28.45,20.42 19.88,-2.71 43.69,-13.6 58.19,-22.69 11.71,-7.34 37.14,-25.93 44.05,-36.36 -3.19,16.92 -89.48,111.65 -105.2,123.21 11.98,-5.25 34.61,-22.42 46.11,-30.73 46.17,-33.37 158.12,-114.17 113.92,-175.99 -20.44,-28.59 -96.66,-34.13 -115.53,0.1 -7.59,13.77 -33.81,15.83 -38.12,41.21zm89.77 102.47c7.98,6.35 12.39,17.25 21.36,21.75l-0.1 -23.28c7.82,16.29 16.59,43.55 37.3,48.26l-11.82 -49.35c9.71,19.61 11.82,31.66 69.96,67.16 -3.1,-10.82 -65.05,-116.24 -66.07,-114.85 -10.25,13.89 -36.45,41.68 -50.63,50.31zm-39.37 -140.89l13.1 -9.82 -5.84 10.96 -7.26 -1.14z"/>
 </g>
</svg>
