<?xml version="1.0" encoding="UTF-8"?>
<!DOCTYPE svg PUBLIC "-//W3C//DTD SVG 1.1//EN" "http://www.w3.org/Graphics/SVG/1.1/DTD/svg11.dtd">
<!-- Creator: CorelDRAW 2021 (64-Bit) -->
<svg xmlns="http://www.w3.org/2000/svg" xml:space="preserve" width="3.72174in" height="1.17002in" version="1.1" style="shape-rendering:geometricPrecision; text-rendering:geometricPrecision; image-rendering:optimizeQuality; fill-rule:evenodd; clip-rule:evenodd"
viewBox="0 0 7667.14 2410.35"
 xmlns:xlink="http://www.w3.org/1999/xlink"
 xmlns:xodm="http://www.corel.com/coreldraw/odm/2003">
 <defs>
  <style type="text/css">
   <![CDATA[
    .fil0 {fill:#E7E7E7}
   ]]>
  </style>
 </defs>
 <g id="Layer_x0020_1">
  <metadata id="CorelCorpID_0Corel-Layer"/>
  <path class="fil0" d="M3182.71 1051.96c0.67,31.37 1.67,61.42 3,90.13 -23.37,-56.08 -48.06,-95.47 -74.11,-118.17 -29.38,-26.04 -70.43,-39.05 -123.18,-39.05l-112.16 0 0 309.44 0 20.03 16.03 -1 54.07 -2c40.06,-1.34 70.1,-8.68 90.13,-22.03 20.7,-14.02 37.38,-39.06 50.07,-75.11l0 206.29c-12.01,-34.71 -28.7,-59.42 -50.07,-74.11 -21.36,-14.02 -51.41,-21.7 -90.13,-23.03l-54.07 -2 -16.03 -1.01 0 21.03 0 178.26c0,56.08 19.36,104.48 58.09,145.21l-242.35 0c-0.67,0 -1.66,0 -3,0 -1.34,0 -2,0 -2,0l-58.08 0c38.72,-40.73 58.08,-89.14 58.08,-145.21l0 -178.26 0 -47.07 0 -179.26c0,-56.08 -19.36,-104.48 -58.08,-145.2l554.79 0c-0.67,24.03 -1,51.41 -1,82.12zm-1130.09 -301.97c-217.31,-51.53 -521.66,-249.22 -644.08,-39.75 -119.01,-36.06 -463.71,-255.95 -439.07,-511.42 -147.41,266.7 67.69,346.12 251.98,494.72l-302.35 -85.06c105.33,191.61 700.71,489.22 906.35,602.11 -276.76,-25.87 -599.55,-211.52 -812.83,-315 176.76,215.97 550.32,480.81 791,657.97 89.7,66.02 209.01,133.94 282.87,202.98 -197.66,-26.94 -434.37,-135.2 -578.48,-225.53 -116.38,-72.96 -369.24,-257.84 -437.92,-361.47 31.74,168.24 889.53,1109.96 1045.89,1224.87 -119.08,-52.22 -344.06,-222.86 -458.38,-305.48 -459.04,-331.76 -1571.98,-1135.01 -1132.56,-1749.61 203.24,-284.28 960.94,-339.32 1148.6,0.98 75.46,136.85 336.12,157.38 378.97,409.7zm-892.44 1018.72c-79.3,63.16 -123.14,171.46 -212.39,216.19l0.97 -231.41c-77.72,161.97 -164.96,432.93 -370.78,479.8l117.52 -490.58c-96.57,194.99 -117.52,314.72 -695.5,667.64 30.85,-107.57 646.66,-1155.6 656.86,-1141.77 101.88,138.09 362.35,414.39 503.32,500.13zm391.35 -1400.63l-130.22 -97.67 58.03 108.99 72.18 -11.32zm6107.89 1796.95l3.33 3.76 -122.01 0 3.75 -3.76c13.6,-14.15 20.41,-31.23 20.41,-51.21l0 -62.88 0 -15.4c0,-16.1 -3.33,-28.6 -10,-37.48 -6.93,-8.88 -18.6,-13.46 -34.97,-13.74 -8.61,-0.28 -16.8,1.66 -24.57,5.83 -7.78,4.16 -13.46,8.12 -17.07,11.87 -3.61,3.75 -6.8,7.71 -9.58,11.87l0 67.04 0 32.9c0,19.98 6.94,37.06 20.82,51.21l3.33 3.76 -122.01 0 3.75 -3.76c13.6,-14.15 20.41,-31.23 20.41,-51.21l0 -54.14c-0.28,-18.04 -5.27,-34.84 -14.99,-50.38l-9.17 -14.99c22.77,-10.83 38.03,-18.32 45.81,-22.48l52.05 -28.31 0 69.53c13.6,-25.53 30.26,-43.58 49.97,-54.13 13.33,-6.93 28.45,-10.41 45.39,-10.41 19.71,0 35.12,3.75 46.22,11.24 11.38,7.22 18.95,16.17 22.69,26.85 3.75,10.69 5.62,23.94 5.62,39.77l0 87.45c0,19.98 6.93,37.06 20.82,51.21zm-340.62 -258.58c-8.32,8.05 -18.87,12.08 -31.65,12.08 -12.77,0 -23.32,-4.02 -31.64,-12.08 -8.05,-7.77 -12.08,-17.7 -12.08,-29.77 0,-12.08 4.02,-22.14 12.08,-30.2 8.32,-8.05 18.87,-12.07 31.64,-12.07 12.77,0 23.33,4.02 31.65,12.07 8.33,8.05 12.5,18.12 12.5,30.2 0,12.07 -4.17,22 -12.5,29.77zm7.49 202.38c0,23.32 8.05,43.3 24.15,59.96l-122 0c16.1,-16.66 24.15,-36.64 24.15,-59.96l0 -47.89c-0.28,-18.6 -5.27,-35.81 -14.99,-51.63l-9.16 -14.99c22.76,-10.83 38.03,-18.32 45.8,-22.48l52.05 -28.74 0 165.73zm-116.59 39.97c0,-0.28 0.28,-0.41 0.84,-0.41 -7.77,8.05 -16.52,14.3 -26.24,18.74 -12.21,5.83 -24.98,8.74 -38.31,8.74 -11.65,0 -21.1,-2.64 -28.31,-7.91 -1.95,-1.39 -3.75,-3.61 -5.41,-6.67 -1.67,-3.05 -3.12,-6.66 -4.37,-10.82 -1.25,-4.17 -2.02,-8.61 -2.3,-13.33 -10.27,13.6 -22.48,23.87 -36.64,30.81 -10.54,5.27 -22.9,7.91 -37.06,7.91 -20.82,0 -37.62,-5.69 -50.38,-17.07 -12.77,-11.38 -19.16,-25.82 -19.16,-43.3 0,-14.44 5.83,-25.95 17.49,-34.56 23.59,-17.49 65.37,-25.4 125.33,-23.74l0 -11.24c0,-1.66 0.06,-4.79 0.21,-9.37 0.14,-4.58 0.14,-8.39 0,-11.45 -0.15,-3.05 -0.28,-7.15 -0.42,-12.28 -0.14,-5.13 -0.41,-9.51 -0.83,-13.11 -0.42,-3.61 -1.05,-7.64 -1.88,-12.08 -0.83,-4.44 -2.01,-8.26 -3.54,-11.45 -1.52,-3.2 -3.2,-6.25 -5,-9.17 -1.8,-2.91 -4.16,-5.2 -7.08,-6.87 -2.91,-1.66 -6.03,-2.64 -9.37,-2.91 -8.61,-0.84 -17.7,1.74 -27.28,7.71 -9.58,5.97 -18.25,13.6 -26.02,22.9 -7.78,9.3 -14.3,18.12 -19.57,26.44 -5.28,8.33 -9.44,15.55 -12.5,21.66l-27.48 -64.54c0.84,-0.28 2.01,-0.76 3.54,-1.45 1.53,-0.7 4.86,-2.08 9.99,-4.17 5.14,-2.08 10.34,-3.88 15.62,-5.41 5.27,-1.52 12.08,-3.4 20.4,-5.62 8.33,-2.22 16.45,-3.68 24.36,-4.37 7.91,-0.7 17.07,-1.39 27.48,-2.08 10.41,-0.7 20.33,-0.21 29.77,1.46 26.38,2.77 47.47,11.79 63.3,27.07 13.88,13.33 20.82,33.31 20.82,59.96l0 86.19c0,9.17 1.25,15.69 3.75,19.57 3.05,5 8.33,7.49 15.82,7.49 3.61,0 7.07,-0.41 10.41,-1.25zm-133.66 1.25c10.55,0 20.41,-4.44 29.56,-13.33 -0.28,-1.94 -0.41,-3.46 -0.41,-4.57l0 -71.62 -22.07 0c-17.77,0 -30.95,2.92 -39.56,8.74 -9.72,6.11 -14.57,16.25 -14.57,30.4 0,14.71 4.44,26.79 13.33,36.23 9.16,9.43 20.4,14.15 33.72,14.15zm-140.74 14.99l3.33 3.76 -122 0 3.75 -3.76c13.6,-14.15 20.41,-31.23 20.41,-51.21l0 -62.88 0 -15.4c0,-16.1 -3.33,-28.6 -10,-37.48 -6.93,-8.88 -18.6,-13.46 -34.97,-13.74 -8.61,-0.28 -16.8,1.66 -24.57,5.83 -7.78,4.16 -13.46,8.12 -17.07,11.87 -3.61,3.75 -6.8,7.71 -9.58,11.87l0 99.94c0,19.98 6.94,37.06 20.82,51.21l3.33 3.76 -122.01 0 3.75 -3.76c13.6,-14.15 20.41,-31.23 20.41,-51.21l0 -155.32 0 -18.32c0,-19.16 -5,-36.78 -14.99,-52.88l-9.17 -15c22.77,-10.82 38.03,-18.31 45.81,-22.48l52.05 -28.31 0 137 0 54.54c13.33,-25.53 29.98,-43.58 49.97,-54.13 13.33,-6.93 28.45,-10.41 45.39,-10.41 19.71,0 35.12,3.75 46.22,11.24 11.38,7.22 18.95,16.17 22.69,26.85 3.75,10.69 5.62,23.94 5.62,39.77l0 87.45c0,19.98 6.93,37.06 20.82,51.21zm-327.29 -42.05c7.77,-2.5 15.26,-5.55 22.48,-9.16 -9.72,19.15 -22.48,34 -38.31,44.55 -17.21,11.66 -36.78,17.49 -58.71,17.49 -33.87,0 -61.56,-10.48 -83.08,-31.44 -21.51,-20.96 -32.26,-47.81 -32.26,-80.57 0,-33.87 11.52,-61.49 34.56,-82.87 22.76,-21.65 51.07,-32.47 84.94,-32.47 25.26,0 46.36,5.41 63.3,16.24 15.82,10.27 23.73,22.21 23.73,35.81 0,9.17 -2.91,16.24 -8.74,21.24 -6.11,5 -14.85,7.91 -26.23,8.74l-4.58 0.41c-2.5,-9.16 -5.13,-17.07 -7.92,-23.73 -5.27,-13.89 -10.82,-24.71 -16.65,-32.48 -9.99,-13.05 -21.38,-19.57 -34.15,-19.57 -12.77,0 -23.04,6.25 -30.81,18.74 -7.22,11.66 -10.83,27.07 -10.83,46.22 0,33.03 8.61,59.13 25.82,78.28 17.21,19.16 39.98,28.74 68.29,28.74 9.16,0 18.87,-1.4 29.15,-4.17zm-357.69 -59.96l-22.9 21.24 0 29.56c0,19.98 6.94,37.06 20.82,51.21l3.33 3.76 -122.01 0 3.75 -3.76c13.6,-14.15 20.41,-31.23 20.41,-51.21l0 -173.64c0,-19.16 -5,-36.78 -14.99,-52.88l-9.17 -15c22.77,-10.82 38.03,-18.31 45.81,-22.48l52.05 -28.31 0 137 0 92.44 0 29.15 22.07 -20.41 42.05 -39.56c9.17,-8.33 15.82,-15.55 19.99,-21.66 5,-6.66 7.49,-12.77 7.49,-18.31 0,-6.11 -2.5,-11.25 -7.49,-15.41 -3.06,-2.5 -7.36,-4.58 -12.91,-6.25l0 -2.92 109.93 0 0 2.51 -8.74 2.5c-19.99,5.27 -36.51,11.52 -49.56,18.74 -13.04,7.22 -25.54,16.1 -37.47,26.65l-9.99 8.74 -4.58 3.75 3.33 5 70.37 100.77c10.55,15.55 19.02,26.38 25.4,32.48 6.11,5.82 14.29,9.99 24.57,12.49l-98.27 0 -73.29 -106.18zm-159.48 59.96c7.77,-2.5 15.26,-5.55 22.48,-9.16 -9.72,19.15 -22.48,34 -38.31,44.55 -17.21,11.66 -36.78,17.49 -58.71,17.49 -33.87,0 -61.56,-10.48 -83.08,-31.44 -21.51,-20.96 -32.26,-47.81 -32.26,-80.57 0,-33.87 11.52,-61.49 34.56,-82.87 22.76,-21.65 51.07,-32.47 84.94,-32.47 25.26,0 46.36,5.41 63.3,16.24 15.82,10.27 23.73,22.21 23.73,35.81 0,9.17 -2.91,16.24 -8.74,21.24 -6.11,5 -14.85,7.91 -26.23,8.74l-4.58 0.41c-2.5,-9.16 -5.13,-17.07 -7.92,-23.73 -5.27,-13.89 -10.82,-24.71 -16.65,-32.48 -9.99,-13.05 -21.38,-19.57 -34.15,-19.57 -12.77,0 -23.04,6.25 -30.81,18.74 -7.22,11.66 -10.83,27.07 -10.83,46.22 0,33.03 8.61,59.13 25.82,78.28 17.21,19.16 39.98,28.74 68.29,28.74 9.16,0 18.87,-1.4 29.15,-4.17zm-251.92 -143.66c22.21,20.26 33.31,47.61 33.31,82.03 0,33.31 -12.77,60.65 -38.31,82.03 -25.82,21.65 -58.3,32.47 -97.44,32.47 -37.75,0 -67.73,-10.27 -89.94,-30.81 -22.21,-20.26 -33.31,-47.75 -33.31,-82.44 0,-33.31 12.77,-60.52 38.31,-81.62 25.82,-21.65 58.29,-32.47 97.43,-32.47 37.48,0 67.46,10.27 89.95,30.81zm-47.06 162.39c4.72,-13.88 6.25,-33.59 4.58,-59.13 -1.94,-31.92 -9.99,-60.65 -24.15,-86.19 -15.26,-26.93 -32.06,-39.7 -50.38,-38.31 -13.33,0.83 -22.76,9.02 -28.31,24.57 -4.72,13.88 -6.25,33.45 -4.58,58.71 1.95,32.2 10.14,61.06 24.58,86.61 15.26,26.93 32.34,39.7 51.21,38.31 12.77,-0.84 21.79,-9.03 27.07,-24.58zm-201.95 23.32l3.33 3.76 -122.01 0 3.75 -3.76c13.6,-14.15 20.41,-31.23 20.41,-51.21l0 -155.32 0 -18.32c0,-19.16 -5,-36.78 -14.99,-52.88l-9.17 -15c22.77,-10.82 38.03,-18.31 45.81,-22.48l52.05 -28.31 0 137 0 155.32c0,19.98 6.94,37.06 20.82,51.21zm-160.73 -124.08c15.82,11.94 23.73,26.93 23.73,44.97 0,25.54 -12.77,45.66 -38.31,60.38 -26.65,15.27 -63.85,22.9 -111.59,22.9l-62.87 0 -72.45 0c16.1,-16.93 24.15,-37.06 24.15,-60.38l0 -74.12 0 -21.23 0 -74.12c0,-23.32 -8.05,-43.44 -24.15,-60.38l24.15 0c1.39,0 2.78,0 4.17,0 1.39,0 2.91,0 4.57,0 1.67,0 3.06,0 4.17,0l33.31 0c0,0 20.68,0 62.05,0 43.3,0 75.92,5.97 97.85,17.91 20.82,11.38 31.23,27.89 31.23,49.55 0,14.16 -5.13,25.68 -15.41,34.56 -4.16,3.88 -9.02,7.49 -14.57,10.83 -5.56,3.33 -11.04,6.11 -16.45,8.33 -5.42,2.22 -10.9,4.16 -16.45,5.83 -5.56,1.66 -10.62,2.98 -15.2,3.95 -4.58,0.97 -8.74,1.74 -12.49,2.3 -3.75,0.55 -6.59,0.97 -8.54,1.25l-2.91 0.41c1.66,0 4.1,0.07 7.28,0.21 3.2,0.14 9.3,0.76 18.32,1.87 9.03,1.11 17.56,2.56 25.61,4.37 8.05,1.8 16.86,4.51 26.44,8.12 9.57,3.61 17.7,7.77 24.36,12.49zm-158.64 -27.48l0 0.41 23.73 0c17.21,0 31.23,-5.83 42.05,-17.49 10.83,-11.38 16.24,-26.24 16.24,-44.56 0,-21.1 -6.8,-37.89 -20.4,-50.38 -13.6,-11.93 -31.92,-17.9 -54.97,-17.9l-6.66 0 0 129.92zm85.36 132.41c11.38,-13.05 17.07,-30.12 17.07,-51.22 0,-22.21 -6.94,-40.53 -20.82,-54.97 -14.15,-14.71 -32.06,-22.07 -53.72,-22.07l-27.89 0 0 17.07 0 83.28c0,16.66 2.77,28.59 8.32,35.81 5.83,8.05 15.82,12.08 29.98,12.08 19.71,0 35.39,-6.66 47.05,-19.98zm-366.42 -48.72l1.66 0c-1.39,11.94 -2.64,24.29 -3.75,37.06 -0.84,12.21 -1.39,23.74 -1.66,34.57l-216.94 0 0 -4.17 125.75 -192.79 7.08 -10.83 -12.91 0.84c-33.86,1.1 -57.88,5.69 -72.03,13.74 -13.33,7.77 -26.24,23.73 -38.73,47.89l-1.66 -0.41c1.11,-8.89 2.21,-19.16 3.33,-30.82 1.11,-12.49 2.08,-24.7 2.92,-36.64l198.21 0 0 4.58 -127 192.8 -6.67 10.41 12.08 0c21.38,-0.28 38.03,-1.25 49.97,-2.91 12.49,-1.67 23.04,-4.31 31.65,-7.92 10.83,-4.44 19.98,-11.1 27.48,-19.98 6.94,-8.05 14.02,-19.85 21.24,-35.39zm-238.18 51.63c0,-0.28 0.28,-0.41 0.84,-0.41 -7.77,8.05 -16.52,14.3 -26.24,18.74 -12.21,5.83 -24.98,8.74 -38.31,8.74 -11.65,0 -21.1,-2.64 -28.31,-7.91 -1.95,-1.39 -3.75,-3.61 -5.41,-6.67 -1.67,-3.05 -3.12,-6.66 -4.37,-10.82 -1.25,-4.17 -2.02,-8.61 -2.3,-13.33 -10.27,13.6 -22.48,23.87 -36.64,30.81 -10.54,5.27 -22.9,7.91 -37.06,7.91 -20.82,0 -37.62,-5.69 -50.38,-17.07 -12.77,-11.38 -19.16,-25.82 -19.16,-43.3 0,-14.44 5.83,-25.95 17.49,-34.56 23.59,-17.49 65.37,-25.4 125.33,-23.74l0 -11.24c0,-1.66 0.06,-4.79 0.21,-9.37 0.14,-4.58 0.14,-8.39 0,-11.45 -0.15,-3.05 -0.28,-7.15 -0.42,-12.28 -0.14,-5.13 -0.41,-9.51 -0.83,-13.11 -0.42,-3.61 -1.05,-7.64 -1.88,-12.08 -0.83,-4.44 -2.01,-8.26 -3.54,-11.45 -1.52,-3.2 -3.2,-6.25 -5,-9.17 -1.8,-2.91 -4.16,-5.2 -7.08,-6.87 -2.91,-1.66 -6.03,-2.64 -9.37,-2.91 -8.61,-0.84 -17.7,1.74 -27.28,7.71 -9.58,5.97 -18.25,13.6 -26.02,22.9 -7.78,9.3 -14.3,18.12 -19.57,26.44 -5.28,8.33 -9.44,15.55 -12.5,21.66l-27.48 -64.54c0.84,-0.28 2.01,-0.76 3.54,-1.45 1.53,-0.7 4.86,-2.08 9.99,-4.17 5.14,-2.08 10.34,-3.88 15.62,-5.41 5.27,-1.52 12.08,-3.4 20.4,-5.62 8.33,-2.22 16.45,-3.68 24.36,-4.37 7.91,-0.7 17.07,-1.39 27.48,-2.08 10.41,-0.7 20.33,-0.21 29.77,1.46 26.38,2.77 47.47,11.79 63.3,27.07 13.88,13.33 20.82,33.31 20.82,59.96l0 86.19c0,9.17 1.25,15.69 3.75,19.57 3.05,5 8.33,7.49 15.82,7.49 3.61,0 7.07,-0.41 10.41,-1.25zm-133.66 1.25c10.55,0 20.41,-4.44 29.56,-13.33 -0.28,-1.94 -0.41,-3.46 -0.41,-4.57l0 -71.62 -22.07 0c-17.77,0 -30.95,2.92 -39.56,8.74 -9.72,6.11 -14.57,16.25 -14.57,30.4 0,14.71 4.44,26.79 13.33,36.23 9.16,9.43 20.4,14.15 33.72,14.15zm-145.73 -14.15c3.6,-1.11 7.07,-2.78 10.41,-5 -11.65,16.65 -22.34,28.18 -32.06,34.56 -10.55,6.94 -23.32,10.41 -38.31,10.41 -21.93,0 -37.75,-6.25 -47.47,-18.74 -10.28,-12.77 -15.41,-33.31 -15.41,-61.62l0 -129.09 -27.48 0 0 -8.32c19.71,-3.33 37.61,-10.69 53.72,-22.08 16.38,-11.65 31.23,-28.18 44.55,-49.55l2.91 0.84 0 68.71 54.55 0 0 10.41 -54.55 0 0 124.92c0,16.1 2.22,27.76 6.67,34.98 4.72,8.61 12.77,12.9 24.15,12.9 6.11,0 12.21,-1.1 18.32,-3.33zm-192.38 -159.49c16.38,18.61 24.57,43.03 24.57,73.29 0,38.03 -11.65,68.57 -34.97,91.61 -23.32,23.04 -52.88,34.56 -88.7,34.56 -6.38,0 -12.77,-0.41 -19.15,-1.25 -6.38,-0.83 -12.49,-2.08 -18.32,-3.75l-8.33 -2.5 0 48.31c0,19.98 6.94,37.2 20.82,51.63l3.33 3.75 -122.01 0 3.75 -3.75c13.6,-14.44 20.41,-31.51 20.41,-51.22l0 -154.9c0,-19.16 -5,-36.79 -14.99,-52.89l-9.17 -14.99c22.77,-10.83 38.03,-18.32 45.81,-22.48l52.05 -28.31 0 37.47 0 18.74 0 1.25 0 2.91c4.72,-10.27 11.04,-19.51 18.95,-27.69 7.91,-8.19 15.34,-14.23 22.28,-18.11 11.65,-6.39 24.7,-9.58 39.14,-9.58 26.93,0 48.44,9.29 64.54,27.89zm-61.62 173.23c6.67,-12.21 9.99,-29.84 9.99,-52.88 0,-34.71 -4.72,-62.05 -14.15,-82.03 -10.28,-21.38 -24.71,-32.06 -43.31,-32.06 -4.16,0 -8.18,0.41 -12.08,1.25 -2.77,0.83 -5.48,2.15 -8.12,3.95 -2.64,1.81 -4.86,3.68 -6.66,5.62 -1.81,1.95 -3.4,3.82 -4.79,5.63 -1.39,1.8 -2.35,3.4 -2.91,4.79l-1.25 1.66 0 1.67 0 80.78c0,25.26 4.31,44.83 12.91,58.71 9.16,15.26 21.37,22.9 36.64,22.9 14.71,0 25.95,-6.66 33.72,-19.98zm-227.36 -243.18c-8.32,8.05 -18.87,12.08 -31.65,12.08 -12.77,0 -23.32,-4.02 -31.64,-12.08 -8.05,-7.77 -12.08,-17.7 -12.08,-29.77 0,-12.08 4.02,-22.14 12.08,-30.2 8.32,-8.05 18.87,-12.07 31.64,-12.07 12.77,0 23.33,4.02 31.65,12.07 8.33,8.05 12.5,18.12 12.5,30.2 0,12.07 -4.17,22 -12.5,29.77zm7.49 202.38c0,23.32 8.05,43.3 24.15,59.96l-122 0c16.1,-16.66 24.15,-36.64 24.15,-59.96l0 -47.89c-0.28,-18.6 -5.27,-35.81 -14.99,-51.63l-9.16 -14.99c22.76,-10.83 38.03,-18.32 45.8,-22.48l52.05 -28.74 0 165.73zm-124.5 -151.57c5.56,5.83 8.33,13.74 8.33,23.73 0,3.61 -0.56,7.63 -1.67,12.08 -0.28,2.5 -0.83,4.86 -1.66,7.08 -0.84,2.22 -1.39,3.75 -1.66,4.58l-0.84 1.25c-9.44,-3.33 -19.3,-6.11 -29.56,-8.33 -6.38,-1.39 -12.77,-2.08 -19.16,-2.08 -13.33,0 -24.43,2.77 -33.31,8.33 -6.38,3.88 -13.74,9.58 -22.07,17.07l0 59.96 0 32.9c0,19.98 6.94,37.06 20.82,51.21l3.33 3.76 -122.01 0 3.75 -3.76c13.6,-14.15 20.41,-31.23 20.41,-51.21l0 -54.14c-0.28,-18.04 -5.27,-34.84 -14.99,-50.38l-9.17 -14.99c22.77,-10.83 38.03,-18.32 45.81,-22.48l52.05 -28.31 0 75.36c6.38,-13.6 12.7,-24.57 18.95,-32.9 6.25,-8.33 13.67,-16.24 22.28,-23.73 9.99,-9.17 22.21,-13.74 36.64,-13.74 10.27,0 18.18,2.91 23.73,8.74zm-412.24 74.95l-23.32 23.32 0 52.05c0,23.32 8.05,43.44 24.15,60.38l-127 0c16.1,-16.93 24.15,-37.06 24.15,-60.38l0 -167.4c0,-23.32 -8.05,-43.45 -24.15,-60.38l127 0c-16.1,16.93 -24.15,37.06 -24.15,60.38l0 74.11 0 19.16 0 13.74 27.9 -27.9 77.87 -82.02c13.6,-13.89 21.1,-25.26 22.48,-34.15 1.11,-5.83 -0.28,-10.69 -4.17,-14.57 -3.33,-3.33 -8.18,-5.56 -14.57,-6.67l-4.58 -0.83 0 -1.25 114.51 0 0 2.5 -2.91 0c-21.66,4.16 -40.67,10.82 -57.05,19.98 -16.1,9.44 -32.61,22.62 -49.55,39.56l-30.81 32.48 -4.17 4.16 3.75 4.17 107.85 141.57c11.39,14.99 23.33,29.56 35.82,43.72l-95.77 0 -103.27 -135.75zm-348.52 -76.62l56.64 0c-20.54,18.32 -35.82,40.54 -45.81,66.63l-60.79 146.58c-8.89,19.42 -17.01,35.32 -24.36,47.67 -7.36,12.35 -14.64,22.42 -21.86,30.19 -13.05,14.99 -27.9,22.49 -44.55,22.49 -11.11,0 -19.3,-3.2 -24.58,-9.58 -6.93,-8.61 -10.54,-18.46 -10.82,-29.56l0.83 -2.5c36.92,-0.84 63.3,-5.14 79.12,-12.91 17.21,-8.33 29.01,-20.12 35.39,-35.39l0.41 -0.41 4.17 -9.99c-19.99,-0.28 -34.98,-0.28 -44.97,0l-43.31 -95.36 -28.73 -62.88c-4.44,-11.38 -9.3,-21.16 -14.57,-29.35 -5.27,-8.19 -12.21,-15.48 -20.82,-21.86l-5 -3.76 127.83 0 -2.08 3.76c-8.05,14.15 -8.19,31.09 -0.42,50.8l41.64 103.26 6.25 16.25 5.83 -16.25 42.48 -101.18c3.61,-9.72 4.65,-19.57 3.12,-29.56 -1.52,-10 -5.21,-19.02 -11.04,-27.07zm-241.51 21.24c16.66,18.87 24.99,43.3 24.99,73.29 0,37.75 -11.73,68.15 -35.19,91.19 -23.46,23.04 -52.95,34.56 -88.48,34.56 -13.89,0 -28.31,-2.21 -43.31,-6.66 -12.21,-3.88 -23.59,-8.88 -34.15,-14.99 -2.21,-1.39 -4.44,-2.64 -6.66,-3.75l-33.31 23.32 -2.08 -0.42 0 -236.51c-0.55,-18.05 -5.55,-34.56 -14.99,-49.55l-9.17 -15c22.77,-10.82 38.03,-18.31 45.81,-22.48l52.05 -28.31 0 137 0 38.72c10.28,-17.76 23.32,-30.81 39.14,-39.13 11.38,-6.11 25.13,-9.17 41.23,-9.17 26.65,0 48.02,9.3 64.12,27.9zm-61.62 173.64c6.94,-12.21 10.41,-29.98 10.41,-53.3 0,-33.87 -4.86,-60.65 -14.57,-80.37 -10.28,-21.37 -24.71,-32.06 -43.31,-32.06 -5.83,0 -11.38,0.97 -16.65,2.92 -6.39,2.21 -12.64,6.38 -18.74,12.49l0 87.03c0,25.54 4.17,45.52 12.49,59.96 8.89,15.55 21.1,23.32 36.64,23.32 15,0 26.24,-6.67 33.73,-19.98zm2968.79 -1307.87c8.69,-2.67 17.02,-6.68 25.04,-12.02 -28.04,40.06 -53.74,67.76 -77.11,83.13 -25.37,16.69 -56.08,25.03 -92.14,25.03 -52.74,0 -90.79,-15.02 -114.16,-45.06 -24.7,-30.71 -37.06,-80.12 -37.06,-148.21l0 -310.44 -66.09 0 0 -20.03c47.4,-8.01 90.47,-25.7 129.19,-53.08 39.39,-28.05 75.1,-67.76 107.15,-119.18l7.02 2 0 165.24 131.19 0 0 25.04 -131.19 0 0 300.43c0,38.72 5.34,66.76 16.02,84.12 11.35,20.7 30.71,31.05 58.09,31.05 14.69,0 29.37,-2.67 44.06,-8.01zm-453.65 -175.25c17.36,13.35 30.37,28.37 39.06,45.06 8.68,16.69 13.02,35.05 13.02,55.08 0,50.74 -22.04,91.8 -66.09,123.18 -45.4,32.05 -105.15,48.06 -179.26,48.06 -40.06,0 -80.12,-4 -120.18,-12.01 -36.05,-8.01 -68.1,-18.03 -96.14,-30.04 0.67,-14.69 1.01,-31.71 1.01,-51.07 0,-20.03 -0.34,-45.4 -1.01,-76.11l6.01 0c33.38,51.41 67.1,89.46 101.15,114.17 36.72,27.37 76.11,41.06 118.16,41.06 26.04,0 47.07,-6.68 63.09,-20.03 16.69,-14.02 25.04,-32.38 25.04,-55.08 0,-24.03 -10.35,-45.73 -31.05,-65.09 -18.02,-17.36 -56.08,-38.39 -114.17,-63.09 -36.05,-15.35 -62.42,-27.71 -79.11,-37.05 -16.02,-8.69 -30.04,-17.7 -42.06,-27.04 -18.02,-14.02 -31.37,-29.71 -40.06,-47.07 -8.68,-16.03 -13.02,-34.39 -13.02,-55.08 0,-47.41 20.7,-86.13 62.09,-116.17 43.39,-31.38 101.14,-47.07 173.24,-47.07 36.05,0 68.1,3.67 96.14,11.01 26.04,7.34 54.41,19.69 85.12,37.05 0,18.03 0.67,36.72 2,56.08 0.67,17.36 2,37.38 4,60.08l-4 0c-34.72,-53.41 -65.43,-91.13 -92.14,-113.16 -30.04,-24.7 -62.42,-37.06 -97.14,-37.06 -22.69,0 -41.39,7.02 -56.08,21.03 -15.35,13.36 -23.03,30.71 -23.03,52.08 0,24.7 10.35,46.73 31.05,66.09 18.02,18.02 56.74,38.72 116.16,62.09 35.39,14.02 61.09,25.37 77.12,34.05 16.69,8.68 30.37,17.36 41.06,26.04zm-556.8 137.19c22.7,-7.34 45.07,-18.35 67.1,-33.04 -32.05,55.41 -67.76,96.47 -107.15,123.18 -42.73,29.38 -92.8,44.06 -150.22,44.06 -80.78,0 -147.55,-25.7 -200.29,-77.11 -52.74,-50.74 -79.11,-115.5 -79.11,-194.27 0,-78.11 28.71,-143.54 86.13,-196.29 57.42,-52.74 127.52,-79.11 210.3,-79.11 69.43,0 124.85,19.03 166.24,57.08 41.4,37.38 62.09,84.12 62.09,140.2 0,6.68 -0.67,14.02 -2,22.03 0,4.01 0,7.68 0,11.01l-359.51 0 4.01 19.03c11.35,54.08 36.55,96.97 75.61,128.68 39.05,31.71 85.29,47.57 138.7,47.57 32.05,0 61.42,-4.34 88.12,-13.02zm-309.44 -228.32l2 38.06 96.14 -5.01c37.38,-1.33 65.26,-18.19 83.62,-50.57 18.35,-32.38 18.52,-64.59 0.49,-96.64 0,-0.67 0,-1.17 0,-1.5 0,-0.34 -0.33,-0.5 -1,-0.5 -18.69,-32.05 -43.06,-48.07 -73.1,-48.07 -35.39,0 -62.76,15.35 -82.12,46.07 -17.36,28.7 -26.04,68.1 -26.04,118.17zm-290.42 -167.24l136.19 0c-50.07,44.06 -86.79,97.14 -110.16,159.23l-133.19 353.5c-20.03,-0.67 -40.05,-1 -60.08,-1 -20.7,0 -41.72,0.33 -63.09,1l-104.15 -229.33 -69.09 -151.21c-10.68,-27.37 -22.37,-50.9 -35.05,-70.6 -12.69,-19.69 -29.38,-37.22 -50.07,-52.57l-12.02 -9.01 307.44 0 -5 9.01c-19.37,34.05 -19.7,74.77 -1.01,122.18l100.14 248.36 15.02 39.05 14.02 -39.05 89.13 -243.35c8.01,-23.37 10.35,-47.07 7.01,-71.11 -3.33,-24.03 -12.01,-45.73 -26.04,-65.09zm-484.69 503.72l8.01 9.01 -293.43 0 9.02 -9.01c32.71,-34.05 49.07,-75.1 49.07,-123.18l0 -151.21 0 -37.06c0,-38.72 -8.01,-68.76 -24.04,-90.13 -16.68,-21.36 -44.73,-32.38 -84.12,-33.05 -20.7,-0.67 -40.39,4.01 -59.09,14.02 -18.69,10.02 -32.38,19.53 -41.06,28.54 -8.69,9.01 -16.36,18.52 -23.03,28.54l0 161.23 0 79.11c0,48.07 16.69,89.13 50.07,123.18l8.01 9.01 -293.42 0 9.01 -9.01c32.71,-34.05 49.07,-75.1 49.07,-123.18l0 -130.18c-0.67,-43.4 -12.69,-83.79 -36.05,-121.17l-22.03 -36.05c54.75,-26.04 91.46,-44.06 110.16,-54.08l125.18 -68.1 0 167.24c32.71,-61.42 72.77,-104.81 120.17,-130.18 32.05,-16.69 68.44,-25.04 109.16,-25.04 47.4,0 84.46,9.01 111.16,27.04 27.37,17.36 45.57,38.88 54.58,64.58 9.02,25.71 13.52,57.59 13.52,95.64l0 210.3c0,48.07 16.69,89.13 50.07,123.18zm-807.16 -316.45l0 178.26c0,56.08 19.36,104.48 58.09,145.21l-305.44 0c38.72,-40.73 58.08,-89.14 58.08,-145.21l0 -402.58c0,-56.08 -19.36,-104.48 -58.08,-145.2l305.44 0c-38.73,40.72 -58.09,89.13 -58.09,145.2l0 178.26 0 46.07zm4738.79 816.24c17.36,13.35 30.37,28.37 39.06,45.06 8.68,16.69 13.02,35.05 13.02,55.08 0,50.74 -22.04,91.8 -66.09,123.18 -45.4,32.05 -105.15,48.06 -179.26,48.06 -40.06,0 -80.12,-4 -120.18,-12.01 -36.05,-8.01 -68.1,-18.03 -96.14,-30.04 0.67,-14.69 1.01,-31.71 1.01,-51.07 0,-20.03 -0.34,-45.4 -1.01,-76.11l6.01 0c33.38,51.41 67.1,89.46 101.15,114.17 36.72,27.37 76.11,41.06 118.16,41.06 26.04,0 47.07,-6.68 63.09,-20.03 16.69,-14.02 25.04,-32.38 25.04,-55.08 0,-24.03 -10.35,-45.73 -31.05,-65.09 -18.02,-17.36 -56.08,-38.39 -114.17,-63.09 -36.05,-15.35 -62.42,-27.71 -79.11,-37.05 -16.02,-8.69 -30.04,-17.7 -42.06,-27.04 -18.02,-14.02 -31.37,-29.71 -40.06,-47.07 -8.68,-16.03 -13.02,-34.39 -13.02,-55.08 0,-47.41 20.7,-86.13 62.09,-116.17 43.39,-31.38 101.14,-47.07 173.24,-47.07 36.05,0 68.1,3.67 96.14,11.01 26.04,7.34 54.41,19.69 85.12,37.05 0,18.03 0.67,36.72 2,56.08 0.67,17.36 2,37.38 4,60.08l-4 0c-34.72,-53.41 -65.43,-91.13 -92.14,-113.16 -30.04,-24.7 -62.42,-37.06 -97.14,-37.06 -22.69,0 -41.39,7.02 -56.08,21.03 -15.35,13.36 -23.03,30.71 -23.03,52.08 0,24.7 10.35,46.73 31.05,66.09 18.02,18.02 56.74,38.72 116.16,62.09 35.39,14.02 61.09,25.37 77.12,34.05 16.69,8.68 30.37,17.36 41.06,26.04zm-494.71 -254.37c13.35,14.02 20.03,33.04 20.03,57.08 0,8.68 -1.33,18.35 -4.01,29.04 -0.67,6.01 -2,11.69 -4.01,17.02 -2,5.34 -3.33,9.02 -4,11.01l-2 3.01c-22.7,-8.01 -46.4,-14.69 -71.11,-20.03 -15.35,-3.33 -30.71,-5 -46.07,-5 -32.05,0 -58.75,6.68 -80.11,20.03 -15.36,9.34 -33.05,23.03 -53.08,41.06l0 144.21 0 79.11c0,48.07 16.69,89.13 50.07,123.18l8.01 9.01 -293.42 0 9.01 -9.01c32.71,-34.05 49.07,-75.1 49.07,-123.18l0 -130.18c-0.67,-43.4 -12.69,-83.79 -36.05,-121.17l-22.03 -36.05c54.75,-26.04 91.46,-44.06 110.16,-54.08l125.18 -68.1 0 181.26c15.35,-32.72 30.54,-59.09 45.57,-79.12 15.02,-20.03 32.88,-39.05 53.57,-57.08 24.04,-22.03 53.42,-33.04 88.13,-33.04 24.7,0 43.73,7.01 57.08,21.03zm-604.87 391.56c22.7,-7.34 45.07,-18.35 67.1,-33.04 -32.05,55.41 -67.76,96.47 -107.15,123.18 -42.73,29.38 -92.8,44.06 -150.22,44.06 -80.78,0 -147.55,-25.7 -200.29,-77.11 -52.74,-50.74 -79.11,-115.5 -79.11,-194.27 0,-78.11 28.71,-143.54 86.13,-196.29 57.42,-52.74 127.52,-79.11 210.3,-79.11 69.43,0 124.85,19.03 166.24,57.08 41.4,37.38 62.09,84.12 62.09,140.2 0,6.68 -0.67,14.02 -2,22.03 0,4.01 0,7.68 0,11.01l-359.51 0 4.01 19.03c11.35,54.08 36.55,96.97 75.61,128.68 39.05,31.71 85.29,47.57 138.7,47.57 32.05,0 61.42,-4.34 88.12,-13.02zm-309.44 -228.32l2 38.06 96.14 -5.01c37.38,-1.33 65.26,-18.19 83.62,-50.57 18.35,-32.38 18.52,-64.59 0.49,-96.64 0,-0.67 0,-1.17 0,-1.5 0,-0.34 -0.33,-0.5 -1,-0.5 -18.69,-32.05 -43.06,-48.07 -73.1,-48.07 -35.39,0 -62.76,15.35 -82.12,46.07 -17.36,28.7 -26.04,68.1 -26.04,118.17zm-243.35 294.42c4.67,9.35 10.35,18.36 17.02,27.04 -32.71,3.34 -63.76,7.68 -93.13,13.02 -19.36,3.34 -38.39,7.02 -57.08,11.01 -18.02,4.01 -35.38,8.35 -52.07,13.03 -2,-10.02 -3.67,-19.7 -5.01,-29.04 -2,-14.02 -4.01,-27.37 -6,-40.06l-2 -19.03c-6.68,8.68 -14.53,17.36 -23.54,26.04 -9.01,8.68 -20.86,18.53 -35.55,29.55 -14.69,11.01 -32.05,19.86 -52.08,26.54 -20.03,6.68 -40.72,10.01 -62.09,10.01 -70.1,0 -126.85,-24.36 -170.24,-73.1 -44.06,-48.74 -66.09,-111.16 -66.09,-187.27 0,-85.46 29.04,-154.22 87.12,-206.29 58.75,-52.74 132.52,-79.12 221.31,-79.12 14.02,0 27.37,1.01 40.06,3.01 13.35,1.33 26.7,4.01 40.06,8.01l20.03 7.02 0 -42.06c-0.67,-44.73 -12.69,-86.13 -36.05,-124.18l-22.03 -36.05c54.75,-26.04 91.46,-44.06 110.16,-54.07l125.18 -68.1 0 79.11 0 432.62 0 158.23c0,16.02 0.33,29.71 1,41.06 2.67,25.37 9.68,49.73 21.03,73.1zm-257.37 -7.01c25.37,0 45.06,-6.68 59.09,-20.03l-1.01 -48.07 0 -257.37c0,-40.06 -10.02,-72.1 -30.04,-96.14 -20.03,-25.37 -47.4,-38.06 -82.12,-38.06 -36.05,0 -64.42,18.36 -85.12,55.08 -18.69,33.38 -28.04,79.12 -28.04,137.2 0,82.12 14.36,146.54 43.06,193.28 30.04,49.4 71.44,74.11 124.18,74.11zm-405.58 49.07l8.01 9.01 -293.43 0 9.02 -9.01c32.71,-34.05 49.07,-75.1 49.07,-123.18l0 -151.21 0 -37.06c0,-38.72 -8.01,-68.76 -24.04,-90.13 -16.68,-21.36 -44.73,-32.38 -84.12,-33.05 -20.7,-0.67 -40.39,4.01 -59.09,14.02 -18.69,10.02 -32.38,19.53 -41.06,28.54 -8.69,9.01 -16.36,18.52 -23.03,28.54l0 161.23 0 79.11c0,48.07 16.69,89.13 50.07,123.18l8.01 9.01 -293.42 0 9.01 -9.01c32.71,-34.05 49.07,-75.1 49.07,-123.18l0 -130.18c-0.67,-43.4 -12.69,-83.79 -36.05,-121.17l-22.03 -36.05c54.75,-26.04 91.46,-44.06 110.16,-54.08l125.18 -68.1 0 167.24c32.71,-61.42 72.77,-104.81 120.17,-130.18 32.05,-16.69 68.44,-25.04 109.16,-25.04 47.4,0 84.46,9.01 111.16,27.04 27.37,17.36 45.57,38.88 54.58,64.58 9.02,25.71 13.52,57.59 13.52,95.64l0 210.3c0,48.07 16.69,89.13 50.07,123.18zm-744.07 -32.05l-236.34 58.08 0 -136.19c-30.71,52.08 -66.43,89.13 -107.15,111.16 -30.71,16.69 -64.76,25.03 -102.15,25.03 -48.07,0 -85.46,-8.68 -112.16,-26.04 -26.71,-18.02 -44.73,-39.89 -54.08,-65.59 -9.34,-25.7 -14.02,-57.59 -14.02,-95.64l0 -89.13c-0.67,-44.73 -12.69,-85.79 -36.05,-123.18l-22.04 -36.05c54.75,-26.04 91.46,-44.06 110.16,-54.07l125.18 -69.1 0 349.5c0,42.06 6.68,72.1 20.03,90.13 16.69,21.36 44.4,32.39 83.12,33.05 42.06,1.34 78.45,-17.69 109.15,-57.08l0 -321.46c25.37,-12.01 43.07,-20.69 53.08,-26.04l125.18 -68.1 -1 236.34 1 0 0 132.19c0,48.06 16.36,89.13 49.08,123.18l9.01 9.01zm-821.18 -414.59c53.41,48.74 80.12,114.5 80.12,197.28 0,80.11 -30.71,145.87 -92.14,197.28 -62.09,52.07 -140.2,78.11 -234.33,78.11 -90.8,0 -162.9,-24.7 -216.31,-74.1 -53.41,-48.74 -80.12,-114.84 -80.12,-198.29 0,-80.12 30.71,-145.55 92.13,-196.28 62.09,-52.08 140.21,-78.11 234.34,-78.11 90.13,0 162.23,24.7 216.31,74.11zm-113.16 390.56c11.35,-33.38 15.02,-80.78 11.01,-142.2 -4.67,-76.78 -24.04,-145.88 -58.09,-207.3 -36.72,-64.76 -77.11,-95.47 -121.17,-92.13 -32.05,2 -54.75,21.7 -68.1,59.08 -11.35,33.38 -15.02,80.45 -11.01,141.21 4.67,77.45 24.36,146.88 59.09,208.3 36.72,64.76 77.77,95.47 123.18,92.14 30.71,-2 52.41,-21.7 65.1,-59.09z"/>
 </g>
</svg>
