<?xml version="1.0" encoding="UTF-8"?>
<!DOCTYPE svg PUBLIC "-//W3C//DTD SVG 1.1//EN" "http://www.w3.org/Graphics/SVG/1.1/DTD/svg11.dtd">
<!-- Creator: CorelDRAW 2021 (64-Bit) -->
<svg xmlns="http://www.w3.org/2000/svg" xml:space="preserve" width="7.46874in" height="1.11898in" version="1.1" style="shape-rendering:geometricPrecision; text-rendering:geometricPrecision; image-rendering:optimizeQuality; fill-rule:evenodd; clip-rule:evenodd"
viewBox="0 0 7684.15 1151.25"
 xmlns:xlink="http://www.w3.org/1999/xlink"
 xmlns:xodm="http://www.corel.com/coreldraw/odm/2003">
 <defs>
  <style type="text/css">
   <![CDATA[
    .fil0 {fill:white}
   ]]>
  </style>
 </defs>
 <g id="Layer_x0020_1">
  <metadata id="CorelCorpID_0Corel-Layer"/>
  <path class="fil0" d="M3409.12 472.85c0.33,15.67 0.83,30.68 1.49,45.01 -11.67,-28.01 -24.01,-47.68 -37.01,-59.02 -14.67,-12.99 -35.17,-19.5 -61.51,-19.5l-56.02 0 0 154.54 0 10 8 -0.49 27.01 -1c20.01,-0.67 35.01,-4.33 45.01,-11 10.35,-7 18.66,-19.5 25.01,-37.52l0 103.02c-6,-17.34 -14.34,-29.68 -25.01,-37.01 -10.67,-7 -25.66,-10.83 -45.01,-11.51l-27.01 -1 -8 -0.51 0 10.51 0 89.03c0,28.01 9.67,52.18 29.01,72.53l-121.04 0c-0.33,0 -0.83,0 -1.49,0 -0.67,0 -1,0 -1,0l-29.01 0c19.34,-20.34 29.01,-44.52 29.01,-72.53l0 -89.03 0 -23.5 0 -89.52c0,-28.01 -9.67,-52.18 -29.01,-72.53l277.06 0c-0.33,11.99 -0.49,25.66 -0.49,41l0 0.02zm-564.39 -150.8c-108.53,-25.75 -260.52,-124.47 -321.66,-19.85 -59.43,-18.01 -231.59,-127.83 -219.27,-255.42 -73.63,133.19 33.81,172.85 125.85,247.07l-151 -42.47c52.61,95.7 349.93,244.32 452.65,300.71 -138.21,-12.91 -299.42,-105.63 -405.93,-157.31 88.27,107.86 274.84,240.12 395.04,328.59 44.8,32.97 104.39,66.89 141.28,101.37 -98.72,-13.46 -216.94,-67.53 -288.89,-112.63 -58.12,-36.43 -184.4,-128.77 -218.7,-180.53 15.85,84.03 444.24,554.33 522.34,611.71 -59.47,-26.07 -171.84,-111.31 -228.92,-152.56 -229.24,-165.7 -785.06,-566.83 -565.61,-873.78 101.49,-141.97 479.91,-169.47 573.63,0.49 37.68,68.34 167.86,78.61 189.26,204.62l-0.05 -0.01zm-445.69 508.75c-39.6,31.54 -61.51,85.62 -106.06,107.96l0.49 -115.57c-38.82,80.89 -82.38,216.21 -185.18,239.63l58.69 -244.99c-48.23,97.37 -58.69,157.19 -347.34,333.43 15.4,-53.71 322.94,-577.11 328.04,-570.22 50.88,68.97 180.95,206.94 251.36,249.77l0 0zm195.44 -699.5l-65.04 -48.78 28.99 54.43 36.05 -5.65 -0 0zm3050.35 897.42l1.67 1.88 -60.94 0 1.88 -1.88c6.79,-7.06 10.2,-15.59 10.2,-25.58l0 -31.4 0 -7.69c0,-8.04 -1.67,-14.28 -5,-18.71 -3.47,-4.43 -9.28,-6.73 -17.46,-6.85 -4.31,-0.14 -8.38,0.83 -12.26,2.92 -3.88,2.08 -6.73,4.06 -8.53,5.92 -1.79,1.88 -3.41,3.86 -4.78,5.92l0 33.48 0 16.42c0,9.98 3.47,18.5 10.41,25.58l1.67 1.88 -60.94 0 1.88 -1.88c6.79,-7.06 10.2,-15.59 10.2,-25.58l0 -27.03c-0.14,-9.02 -2.63,-17.4 -7.49,-25.15l-4.57 -7.49c11.36,-5.41 18.99,-9.16 22.87,-11.22l25.99 -14.14 0 34.72c6.79,-12.75 15.12,-21.77 24.95,-27.03 6.65,-3.47 14.22,-5.2 22.67,-5.2 9.83,0 17.54,1.88 23.09,5.61 5.69,3.61 9.47,8.08 11.34,13.4 1.88,5.35 2.82,11.95 2.82,19.85l0 43.68c0,9.98 3.47,18.5 10.41,25.58l-0.09 -0.01zm-170.1 -129.14c-4.16,4.02 -9.43,6.04 -15.81,6.04 -6.38,0 -11.65,-2 -15.81,-6.04 -4.02,-3.88 -6.04,-8.83 -6.04,-14.87 0,-6.04 2,-11.06 6.04,-15.08 4.16,-4.02 9.43,-6.02 15.81,-6.02 6.38,0 11.65,2 15.81,6.02 4.16,4.02 6.24,9.06 6.24,15.08 0,6.02 -2.08,10.98 -6.24,14.87zm3.73 101.07c0,11.65 4.02,21.63 12.06,29.95l-60.94 0c8.04,-8.32 12.06,-18.3 12.06,-29.95l0 -23.91c-0.14,-9.28 -2.63,-17.89 -7.49,-25.79l-4.57 -7.49c11.36,-5.41 18.99,-9.16 22.87,-11.22l25.99 -14.34 0 82.76 0.01 -0.02zm-58.22 19.95c0,-0.14 0.14,-0.2 0.41,-0.2 -3.88,4.02 -8.24,7.14 -13.1,9.36 -6.1,2.92 -12.48,4.37 -19.13,4.37 -5.81,0 -10.53,-1.32 -14.14,-3.96 -0.98,-0.69 -1.88,-1.79 -2.69,-3.33 -0.83,-1.53 -1.55,-3.33 -2.18,-5.41 -0.63,-2.08 -1,-4.31 -1.14,-6.65 -5.12,6.79 -11.22,11.91 -18.3,15.38 -5.26,2.63 -11.44,3.96 -18.5,3.96 -10.41,0 -18.79,-2.84 -25.15,-8.53 -6.38,-5.69 -9.57,-12.89 -9.57,-21.63 0,-7.2 2.92,-12.95 8.73,-17.26 11.79,-8.73 32.64,-12.69 62.59,-11.85l0 -5.61c0,-0.83 0.04,-2.39 0.1,-4.67 0.06,-2.28 0.06,-4.18 0,-5.71 -0.08,-1.53 -0.14,-3.57 -0.2,-6.14 -0.06,-2.57 -0.2,-4.76 -0.41,-6.55 -0.2,-1.79 -0.53,-3.82 -0.94,-6.04 -0.41,-2.22 -1,-4.12 -1.77,-5.71 -0.75,-1.59 -1.59,-3.12 -2.49,-4.57 -0.9,-1.45 -2.08,-2.59 -3.53,-3.43 -1.45,-0.83 -3.02,-1.32 -4.67,-1.45 -4.31,-0.41 -8.83,0.86 -13.63,3.86 -4.78,2.98 -9.12,6.79 -12.99,11.44 -3.88,4.65 -7.14,9.06 -9.77,13.2 -2.63,4.16 -4.71,7.77 -6.24,10.81l-13.73 -32.23c0.41,-0.14 1,-0.39 1.77,-0.73 0.77,-0.35 2.43,-1.04 5,-2.08 2.57,-1.04 5.16,-1.94 7.79,-2.69 2.63,-0.75 6.04,-1.69 10.18,-2.82 4.16,-1.1 8.22,-1.83 12.16,-2.18 3.96,-0.35 8.53,-0.69 13.73,-1.04 5.2,-0.35 10.16,-0.1 14.87,0.73 13.18,1.39 23.7,5.9 31.6,13.52 6.93,6.65 10.41,16.63 10.41,29.95l0 43.05c0,4.57 0.63,7.83 1.88,9.77 1.53,2.49 4.16,3.73 7.89,3.73 1.79,0 3.53,-0.2 5.2,-0.63l-0.04 -0.04zm-66.75 0.63c5.26,0 10.2,-2.22 14.77,-6.65 -0.14,-0.96 -0.2,-1.73 -0.2,-2.28l0 -35.76 -11.02 0c-8.87,0 -15.47,1.45 -19.75,4.37 -4.86,3.06 -7.28,8.12 -7.28,15.18 0,7.34 2.22,13.38 6.65,18.09 4.57,4.71 10.18,7.06 16.85,7.06l-0.02 0zm-70.28 7.49l1.65 1.88 -60.94 0 1.88 -1.88c6.79,-7.06 10.2,-15.59 10.2,-25.58l0 -31.4 0 -7.69c0,-8.04 -1.67,-14.28 -5,-18.71 -3.47,-4.43 -9.28,-6.73 -17.46,-6.85 -4.31,-0.14 -8.38,0.83 -12.26,2.92 -3.88,2.08 -6.73,4.06 -8.53,5.92 -1.79,1.88 -3.41,3.86 -4.78,5.92l0 49.92c0,9.98 3.47,18.5 10.41,25.58l1.67 1.88 -60.94 0 1.88 -1.88c6.79,-7.06 10.2,-15.59 10.2,-25.58l0 -77.56 0 -9.16c0,-9.57 -2.49,-18.36 -7.49,-26.42l-4.57 -7.49c11.36,-5.41 18.99,-9.14 22.87,-11.22l25.99 -14.14 0 68.42 0 27.24c6.65,-12.75 14.97,-21.77 24.95,-27.03 6.65,-3.47 14.22,-5.2 22.67,-5.2 9.83,0 17.54,1.88 23.09,5.61 5.69,3.61 9.47,8.08 11.34,13.4 1.88,5.35 2.82,11.95 2.82,19.85l0 43.68c0,9.98 3.47,18.5 10.41,25.58l-0.06 -0.01zm-163.45 -20.99c3.88,-1.24 7.63,-2.77 11.22,-4.57 -4.86,9.57 -11.22,16.97 -19.13,22.26 -8.59,5.83 -18.36,8.73 -29.31,8.73 -16.91,0 -30.74,-5.24 -41.49,-15.71 -10.75,-10.47 -16.12,-23.87 -16.12,-40.23 0,-16.91 5.75,-30.7 17.26,-41.39 11.36,-10.81 25.5,-16.22 42.41,-16.22 12.61,0 23.15,2.69 31.6,8.1 7.89,5.12 11.85,11.1 11.85,17.89 0,4.57 -1.45,8.1 -4.37,10.61 -3.06,2.49 -7.42,3.96 -13.1,4.37l-2.28 0.2c-1.24,-4.57 -2.57,-8.53 -3.96,-11.85 -2.63,-6.93 -5.41,-12.34 -8.32,-16.22 -5,-6.51 -10.67,-9.77 -17.06,-9.77 -6.38,0 -11.51,3.12 -15.38,9.36 -3.61,5.83 -5.41,13.52 -5.41,23.09 0,16.51 4.31,29.52 12.89,39.09 8.59,9.57 19.97,14.34 34.11,14.34 4.57,0 9.43,-0.69 14.57,-2.08l0.02 -0zm-178.63 -29.95l-11.44 10.61 0 14.77c0,9.98 3.47,18.5 10.41,25.58l1.67 1.88 -60.94 0 1.88 -1.88c6.79,-7.06 10.2,-15.59 10.2,-25.58l0 -86.72c0,-9.57 -2.49,-18.36 -7.49,-26.42l-4.57 -7.49c11.36,-5.41 18.99,-9.14 22.87,-11.22l25.99 -14.14 0 68.42 0 46.17 0 14.57 11.02 -10.2 20.99 -19.75c4.57,-4.16 7.89,-7.77 9.98,-10.81 2.49,-3.33 3.73,-6.38 3.73,-9.14 0,-3.06 -1.24,-5.61 -3.73,-7.69 -1.53,-1.24 -3.67,-2.28 -6.45,-3.12l0 -1.45 54.9 0 0 1.24 -4.37 1.24c-9.98,2.63 -18.24,5.75 -24.74,9.36 -6.51,3.61 -12.75,8.04 -18.71,13.3l-5 4.37 -2.28 1.88 1.67 2.49 35.15 50.33c5.26,7.77 9.51,13.18 12.69,16.22 3.06,2.92 7.14,5 12.26,6.24l-49.08 0 -36.6 -53.02 -0.01 -0.04zm-79.64 29.95c3.88,-1.24 7.63,-2.77 11.22,-4.57 -4.86,9.57 -11.22,16.97 -19.13,22.26 -8.59,5.83 -18.36,8.73 -29.31,8.73 -16.91,0 -30.74,-5.24 -41.49,-15.71 -10.75,-10.47 -16.12,-23.87 -16.12,-40.23 0,-16.91 5.75,-30.7 17.26,-41.39 11.36,-10.81 25.5,-16.22 42.41,-16.22 12.61,0 23.15,2.69 31.6,8.1 7.89,5.12 11.85,11.1 11.85,17.89 0,4.57 -1.45,8.1 -4.37,10.61 -3.06,2.49 -7.42,3.96 -13.1,4.37l-2.28 0.2c-1.24,-4.57 -2.57,-8.53 -3.96,-11.85 -2.63,-6.93 -5.41,-12.34 -8.32,-16.22 -5,-6.51 -10.67,-9.77 -17.06,-9.77 -6.38,0 -11.51,3.12 -15.38,9.36 -3.61,5.83 -5.41,13.52 -5.41,23.09 0,16.51 4.31,29.52 12.89,39.09 8.59,9.57 19.97,14.34 34.11,14.34 4.57,0 9.43,-0.69 14.57,-2.08l0.02 -0zm-125.81 -71.75c11.1,10.12 16.63,23.77 16.63,40.96 0,16.63 -6.38,30.29 -19.13,40.96 -12.89,10.81 -29.11,16.22 -48.66,16.22 -18.85,0 -33.83,-5.12 -44.92,-15.38 -11.1,-10.12 -16.63,-23.85 -16.63,-41.17 0,-16.63 6.38,-30.23 19.13,-40.76 12.89,-10.81 29.11,-16.22 48.66,-16.22 18.71,0 33.68,5.12 44.92,15.38l0 0zm-23.5 81.09c2.37,-6.93 3.12,-16.77 2.28,-29.52 -0.96,-15.93 -5,-30.29 -12.06,-43.05 -7.63,-13.44 -16.02,-19.83 -25.15,-19.13 -6.65,0.41 -11.36,4.51 -14.14,12.26 -2.37,6.93 -3.12,16.71 -2.28,29.31 0.98,16.08 5.06,30.5 12.28,43.25 7.63,13.44 16.16,19.83 25.58,19.13 6.38,-0.41 10.9,-4.51 13.52,-12.28l-0.04 0.02zm-100.86 11.65l1.67 1.88 -60.94 0 1.88 -1.88c6.79,-7.06 10.2,-15.59 10.2,-25.58l0 -77.56 0 -9.16c0,-9.57 -2.49,-18.36 -7.49,-26.42l-4.57 -7.49c11.36,-5.41 18.99,-9.14 22.87,-11.22l25.99 -14.14 0 68.42 0 77.56c0,9.98 3.47,18.5 10.41,25.58l-0.02 -0zm-80.28 -61.98c7.89,5.96 11.85,13.44 11.85,22.46 0,12.75 -6.38,22.81 -19.13,30.15 -13.3,7.63 -31.89,11.44 -55.74,11.44l-31.4 0 -36.19 0c8.04,-8.47 12.06,-18.5 12.06,-30.15l0 -37.03 0 -10.61 0 -37.03c0,-11.65 -4.02,-21.69 -12.06,-30.15l12.06 0c0.69,0 1.39,0 2.08,0 0.69,0 1.45,0 2.28,0 0.83,0 1.53,0 2.08,0l16.63 0c0,0 10.32,0 30.99,0 21.63,0 37.93,2.98 48.88,8.94 10.41,5.69 15.59,13.93 15.59,24.74 0,7.08 -2.57,12.83 -7.69,17.26 -2.08,1.94 -4.51,3.73 -7.28,5.41 -2.77,1.67 -5.51,3.06 -8.22,4.16 -2.71,1.1 -5.45,2.08 -8.22,2.92 -2.77,0.83 -5.3,1.49 -7.59,1.98 -2.28,0.49 -4.37,0.86 -6.24,1.14 -1.88,0.29 -3.28,0.49 -4.27,0.63l-1.45 0.2c0.83,0 2.04,0.04 3.63,0.1 1.59,0.06 4.65,0.39 9.16,0.94 4.51,0.55 8.77,1.28 12.79,2.18 4.02,0.9 8.43,2.24 13.2,4.06 4.78,1.79 8.83,3.88 12.16,6.24l0.04 0zm-79.24 -13.73l0 0.2 11.85 0c8.59,0 15.59,-2.92 20.99,-8.73 5.41,-5.69 8.1,-13.1 8.1,-22.26 0,-10.53 -3.39,-18.93 -10.18,-25.15 -6.79,-5.96 -15.93,-8.94 -27.46,-8.94l-3.33 0 0 64.87 0.02 0zm42.64 66.14c5.69,-6.51 8.53,-15.04 8.53,-25.58 0,-11.1 -3.47,-20.24 -10.41,-27.46 -7.06,-7.34 -16.02,-11.02 -26.83,-11.02l-13.93 0 0 8.53 0 41.6c0,8.32 1.39,14.28 4.16,17.89 2.92,4.02 7.89,6.04 14.97,6.04 9.83,0 17.67,-3.33 23.5,-9.98l0 -0.02zm-183 -24.34l0.83 0c-0.69,5.96 -1.32,12.14 -1.88,18.5 -0.41,6.1 -0.69,11.85 -0.83,17.26l-108.35 0 0 -2.08 62.79 -96.29 3.53 -5.41 -6.45 0.41c-16.91,0.55 -28.91,2.84 -35.96,6.85 -6.65,3.88 -13.1,11.85 -19.34,23.91l-0.83 -0.2c0.55,-4.45 1.1,-9.57 1.65,-15.38 0.55,-6.24 1.04,-12.34 1.45,-18.3l98.98 0 0 2.28 -63.43 96.29 -3.33 5.2 6.04 0c10.67,-0.14 18.99,-0.63 24.95,-1.45 6.24,-0.83 11.51,-2.14 15.81,-3.96 5.41,-2.22 9.98,-5.55 13.73,-9.98 3.47,-4.02 7,-9.92 10.61,-17.67l0.02 0.01zm-118.96 25.79c0,-0.14 0.14,-0.2 0.41,-0.2 -3.88,4.02 -8.24,7.14 -13.1,9.36 -6.1,2.92 -12.48,4.37 -19.13,4.37 -5.81,0 -10.53,-1.32 -14.14,-3.96 -0.98,-0.69 -1.88,-1.79 -2.69,-3.33 -0.83,-1.53 -1.55,-3.33 -2.18,-5.41 -0.63,-2.08 -1,-4.31 -1.14,-6.65 -5.12,6.79 -11.22,11.91 -18.3,15.38 -5.26,2.63 -11.44,3.96 -18.5,3.96 -10.41,0 -18.79,-2.84 -25.15,-8.53 -6.38,-5.69 -9.57,-12.89 -9.57,-21.63 0,-7.2 2.92,-12.95 8.73,-17.26 11.79,-8.73 32.64,-12.69 62.59,-11.85l0 -5.61c0,-0.83 0.04,-2.39 0.1,-4.67 0.06,-2.28 0.06,-4.18 0,-5.71 -0.08,-1.53 -0.14,-3.57 -0.2,-6.14 -0.06,-2.57 -0.2,-4.76 -0.41,-6.55 -0.2,-1.79 -0.53,-3.82 -0.94,-6.04 -0.41,-2.22 -1,-4.12 -1.77,-5.71 -0.75,-1.59 -1.59,-3.12 -2.49,-4.57 -0.9,-1.45 -2.08,-2.59 -3.53,-3.43 -1.45,-0.83 -3.02,-1.32 -4.67,-1.45 -4.31,-0.41 -8.83,0.86 -13.63,3.86 -4.78,2.98 -9.12,6.79 -12.99,11.44 -3.88,4.65 -7.14,9.06 -9.77,13.2 -2.63,4.16 -4.71,7.77 -6.24,10.81l-13.73 -32.23c0.41,-0.14 1,-0.39 1.77,-0.73 0.77,-0.35 2.43,-1.04 5,-2.08 2.57,-1.04 5.16,-1.94 7.79,-2.69 2.63,-0.75 6.04,-1.69 10.18,-2.82 4.16,-1.1 8.22,-1.83 12.16,-2.18 3.96,-0.35 8.53,-0.69 13.73,-1.04 5.2,-0.35 10.16,-0.1 14.87,0.73 13.18,1.39 23.7,5.9 31.6,13.52 6.93,6.65 10.41,16.63 10.41,29.95l0 43.05c0,4.57 0.63,7.83 1.88,9.77 1.53,2.49 4.16,3.73 7.89,3.73 1.79,0 3.53,-0.2 5.2,-0.63l-0.04 -0.04zm-66.75 0.63c5.26,0 10.2,-2.22 14.77,-6.65 -0.14,-0.96 -0.2,-1.73 -0.2,-2.28l0 -35.76 -11.02 0c-8.87,0 -15.47,1.45 -19.75,4.37 -4.86,3.06 -7.28,8.12 -7.28,15.18 0,7.34 2.22,13.38 6.65,18.09 4.57,4.71 10.18,7.06 16.85,7.06l-0.02 0zm-72.79 -7.06c1.79,-0.55 3.53,-1.39 5.2,-2.49 -5.81,8.32 -11.16,14.08 -16.02,17.26 -5.26,3.47 -11.65,5.2 -19.13,5.2 -10.96,0 -18.85,-3.12 -23.7,-9.36 -5.14,-6.38 -7.69,-16.63 -7.69,-30.78l0 -64.46 -13.73 0 0 -4.16c9.83,-1.67 18.79,-5.35 26.83,-11.02 8.18,-5.81 15.59,-14.08 22.26,-24.74l1.45 0.41 0 34.31 27.24 0 0 5.2 -27.24 0 0 62.39c0,8.04 1.1,13.87 3.33,17.46 2.37,4.31 6.38,6.45 12.06,6.45 3.06,0 6.1,-0.55 9.16,-1.65l0 -0zm-96.09 -79.64c8.18,9.28 12.26,21.5 12.26,36.6 0,18.99 -5.81,34.25 -17.46,45.76 -11.65,11.51 -26.42,17.26 -44.29,17.26 -3.18,0 -6.38,-0.2 -9.57,-0.63 -3.18,-0.41 -6.24,-1.04 -9.16,-1.88l-4.16 -1.24 0 24.13c0,9.98 3.47,18.58 10.41,25.79l1.67 1.88 -60.94 0 1.88 -1.88c6.79,-7.2 10.2,-15.73 10.2,-25.58l0 -77.36c0,-9.57 -2.49,-18.38 -7.49,-26.42l-4.57 -7.49c11.36,-5.41 18.99,-9.16 22.87,-11.22l25.99 -14.14 0 18.71 0 9.36 0 0.63 0 1.45c2.37,-5.12 5.51,-9.75 9.47,-13.83 3.96,-4.1 7.65,-7.1 11.12,-9.04 5.81,-3.18 12.34,-4.78 19.54,-4.78 13.44,0 24.19,4.65 32.23,13.93l-0.01 -0.03zm-30.78 86.52c3.33,-6.1 5,-14.89 5,-26.42 0,-17.34 -2.37,-30.99 -7.06,-40.96 -5.14,-10.67 -12.34,-16.02 -21.63,-16.02 -2.08,0 -4.08,0.2 -6.04,0.63 -1.39,0.41 -2.73,1.08 -4.06,1.98 -1.32,0.9 -2.43,1.83 -3.33,2.82 -0.9,0.98 -1.69,1.92 -2.39,2.82 -0.69,0.9 -1.18,1.69 -1.45,2.39l-0.63 0.83 0 0.83 0 40.35c0,12.61 2.14,22.38 6.45,29.31 4.57,7.63 10.67,11.44 18.3,11.44 7.34,0 12.95,-3.33 16.85,-9.98l-0.02 -0.03zm-113.55 -121.44c-4.16,4.02 -9.43,6.04 -15.81,6.04 -6.38,0 -11.65,-2 -15.81,-6.04 -4.02,-3.88 -6.04,-8.83 -6.04,-14.87 0,-6.04 2,-11.06 6.04,-15.08 4.16,-4.02 9.43,-6.02 15.81,-6.02 6.38,0 11.65,2 15.81,6.02 4.16,4.02 6.24,9.06 6.24,15.08 0,6.02 -2.08,10.98 -6.24,14.87zm3.73 101.07c0,11.65 4.02,21.63 12.06,29.95l-60.94 0c8.04,-8.32 12.06,-18.3 12.06,-29.95l0 -23.91c-0.14,-9.28 -2.63,-17.89 -7.49,-25.79l-4.57 -7.49c11.36,-5.41 18.99,-9.16 22.87,-11.22l25.99 -14.34 0 82.76 0.01 -0.02zm-62.18 -75.69c2.77,2.92 4.16,6.85 4.16,11.85 0,1.79 -0.29,3.82 -0.83,6.04 -0.14,1.24 -0.41,2.43 -0.83,3.53 -0.41,1.1 -0.69,1.88 -0.83,2.28l-0.41 0.63c-4.71,-1.67 -9.63,-3.06 -14.77,-4.16 -3.18,-0.69 -6.38,-1.04 -9.57,-1.04 -6.65,0 -12.2,1.39 -16.63,4.16 -3.18,1.94 -6.85,4.78 -11.02,8.53l0 29.95 0 16.42c0,9.98 3.47,18.5 10.41,25.58l1.67 1.88 -60.94 0 1.88 -1.88c6.79,-7.06 10.2,-15.59 10.2,-25.58l0 -27.03c-0.14,-9.02 -2.63,-17.4 -7.49,-25.15l-4.57 -7.49c11.36,-5.41 18.99,-9.16 22.87,-11.22l25.99 -14.14 0 37.64c3.18,-6.79 6.34,-12.26 9.47,-16.42 3.12,-4.16 6.83,-8.1 11.12,-11.85 5,-4.57 11.1,-6.85 18.3,-6.85 5.12,0 9.08,1.45 11.85,4.37l-0.03 -0.04zm-205.88 37.44l-11.65 11.65 0 25.99c0,11.65 4.02,21.69 12.06,30.15l-63.43 0c8.04,-8.47 12.06,-18.5 12.06,-30.15l0 -83.6c0,-11.65 -4.02,-21.71 -12.06,-30.15l63.43 0c-8.04,8.45 -12.06,18.5 -12.06,30.15l0 37.01 0 9.57 0 6.85 13.93 -13.93 38.89 -40.96c6.79,-6.93 10.53,-12.61 11.22,-17.06 0.55,-2.92 -0.14,-5.35 -2.08,-7.28 -1.65,-1.67 -4.08,-2.77 -7.28,-3.33l-2.28 -0.41 0 -0.63 57.18 0 0 1.24 -1.45 0c-10.81,2.08 -20.32,5.41 -28.5,9.98 -8.04,4.71 -16.28,11.3 -24.74,19.75l-15.38 16.22 -2.08 2.08 1.88 2.08 53.86 70.71c5.69,7.49 11.65,14.77 17.89,21.83l-47.82 0 -51.57 -67.79 0.01 0.04zm-174.06 -38.27l28.28 0c-10.26,9.16 -17.89,20.24 -22.87,33.28l-30.35 73.2c-4.45,9.71 -8.49,17.65 -12.16,23.81 -3.67,6.16 -7.3,11.2 -10.92,15.08 -6.51,7.49 -13.93,11.24 -22.26,11.24 -5.55,0 -9.63,-1.59 -12.28,-4.78 -3.47,-4.31 -5.26,-9.22 -5.41,-14.77l0.41 -1.24c18.44,-0.41 31.6,-2.57 39.52,-6.45 8.59,-4.16 14.48,-10.06 17.67,-17.67l0.2 -0.2 2.08 -5c-9.98,-0.14 -17.46,-0.14 -22.46,0l-21.63 -47.61 -14.34 -31.4c-2.22,-5.69 -4.65,-10.57 -7.28,-14.67 -2.63,-4.1 -6.1,-7.73 -10.41,-10.92l-2.49 -1.88 63.83 0 -1.04 1.88c-4.02,7.06 -4.1,15.53 -0.2,25.38l20.79 51.57 3.12 8.12 2.92 -8.12 21.22 -50.53c1.79,-4.86 2.33,-9.77 1.55,-14.77 -0.75,-5 -2.59,-9.51 -5.51,-13.52l0.02 -0.02zm-120.61 10.61c8.32,9.43 12.48,21.63 12.48,36.6 0,18.85 -5.85,34.03 -17.58,45.54 -11.71,11.51 -26.44,17.26 -44.19,17.26 -6.93,0 -14.14,-1.1 -21.63,-3.33 -6.1,-1.94 -11.79,-4.43 -17.06,-7.49 -1.1,-0.69 -2.22,-1.32 -3.33,-1.88l-16.63 11.65 -1.04 -0.2 0 -118.12c-0.29,-9.02 -2.77,-17.26 -7.49,-24.74l-4.57 -7.49c11.36,-5.41 18.99,-9.14 22.87,-11.22l25.99 -14.14 0 68.42 0 19.34c5.14,-8.87 11.65,-15.38 19.54,-19.54 5.69,-3.06 12.54,-4.57 20.58,-4.57 13.3,0 23.99,4.65 32.03,13.93l0 -0.04zm-30.78 86.72c3.47,-6.1 5.2,-14.97 5.2,-26.62 0,-16.91 -2.43,-30.29 -7.28,-40.13 -5.14,-10.67 -12.34,-16.02 -21.63,-16.02 -2.92,0 -5.69,0.49 -8.32,1.45 -3.18,1.1 -6.3,3.18 -9.36,6.24l0 43.45c0,12.75 2.08,22.73 6.24,29.95 4.45,7.77 10.55,11.65 18.3,11.65 7.49,0 13.1,-3.33 16.85,-9.98l0 0zm1482.66 -653.17c4.35,-1.32 8.51,-3.33 12.5,-6 -13.99,20.01 -26.85,33.85 -38.52,41.51 -12.67,8.34 -28.01,12.5 -46.02,12.5 -26.34,0 -45.35,-7.51 -57.02,-22.5 -12.34,-15.34 -18.5,-40.01 -18.5,-74.02l0 -155.05 -33.01 0 0 -10c23.66,-4 45.19,-12.83 64.51,-26.5 19.67,-14.01 37.52,-33.85 53.51,-59.51l3.51 1 0 82.52 65.53 0 0 12.5 -65.53 0 0 150.05c0,19.34 2.67,33.34 8,42 5.67,10.35 15.34,15.51 29.01,15.51 7.34,0 14.67,-1.32 22.01,-4l0.02 -0.04zm-226.55 -87.52c8.67,6.67 15.18,14.18 19.5,22.5 4.33,8.34 6.51,17.5 6.51,27.5 0,25.34 -11,45.84 -33.01,61.51 -22.67,16 -52.51,24.01 -89.52,24.01 -20.01,0 -40.01,-2 -60.02,-6 -18.01,-4 -34.01,-9 -48,-15 0.33,-7.34 0.51,-15.83 0.51,-25.5 0,-10 -0.16,-22.67 -0.51,-38.01l3 0c16.67,25.66 33.52,44.68 50.51,57.02 18.34,13.67 38.01,20.5 59.02,20.5 13.01,0 23.5,-3.33 31.52,-10 8.34,-7 12.5,-16.18 12.5,-27.5 0,-11.99 -5.16,-22.83 -15.51,-32.5 -9,-8.67 -28.01,-19.18 -57.02,-31.52 -18.01,-7.67 -31.17,-13.83 -39.52,-18.5 -8,-4.35 -15,-8.83 -21.01,-13.5 -9,-7 -15.67,-14.83 -20.01,-23.5 -4.33,-8 -6.51,-17.18 -6.51,-27.5 0,-23.68 10.35,-43 31.01,-58.02 21.67,-15.67 50.51,-23.5 86.52,-23.5 18.01,0 34.01,1.83 48.02,5.51 12.99,3.67 27.18,9.83 42.51,18.5 0,9 0.33,18.34 1,28.01 0.33,8.67 1,18.66 2,30.01l-2 0c-17.34,-26.66 -32.68,-45.51 -46.02,-56.51 -15,-12.34 -31.17,-18.5 -48.51,-18.5 -11.34,0 -20.67,3.51 -28.01,10.51 -7.67,6.67 -11.51,15.34 -11.51,26.01 0,12.34 5.16,23.34 15.51,33.01 9,9 28.34,19.34 58.02,31.01 17.67,7 30.5,12.67 38.52,17.01 8.34,4.33 15.18,8.67 20.5,13.01l0 -0.09zm-278.08 68.51c11.34,-3.67 22.5,-9.16 33.52,-16.51 -16,27.67 -33.85,48.19 -53.51,61.51 -21.34,14.67 -46.35,22.01 -75.01,22.01 -40.35,0 -73.69,-12.83 -100.02,-38.52 -26.34,-25.34 -39.52,-57.67 -39.52,-97.03 0,-39.01 14.34,-71.69 43,-98.02 28.68,-26.34 63.69,-39.52 105.02,-39.52 34.68,0 62.35,9.51 83.01,28.5 20.67,18.66 31.01,42 31.01,70.01 0,3.33 -0.33,7 -1,11 0,2 0,3.84 0,5.51l-179.54 0 2 9.51c5.67,27.01 18.26,48.43 37.76,64.26 19.5,15.83 42.6,23.75 69.26,23.75 16,0 30.68,-2.16 44.01,-6.51l0.01 0.04zm-154.54 -114.02l1 19.01 48 -2.51c18.66,-0.67 32.6,-9.08 41.76,-25.26 9.16,-16.18 9.24,-32.25 0.24,-48.27 0,-0.33 0,-0.59 0,-0.75 0,-0.16 -0.16,-0.24 -0.49,-0.24 -9.34,-16 -21.5,-24.01 -36.52,-24.01 -17.67,0 -31.34,7.67 -41,23.01 -8.67,14.34 -12.99,34.01 -12.99,59.02l-0 -0.01zm-145.03 -83.52l68.02 0c-25.01,22.01 -43.35,48.51 -55.02,79.52l-66.53 176.55c-10,-0.33 -19.99,-0.49 -30.01,-0.49 -10.35,0 -20.83,0.16 -31.52,0.49l-52.02 -114.53 -34.5 -75.52c-5.33,-13.67 -11.18,-25.42 -17.5,-35.25 -6.34,-9.83 -14.67,-18.58 -25.01,-26.26l-6 -4.51 153.54 0 -2.51 4.51c-9.67,17.01 -9.83,37.33 -0.51,61.02l50 124.04 7.51 19.5 7 -19.5 44.52 -121.53c4,-11.67 5.16,-23.5 3.51,-35.52 -1.67,-11.99 -6,-22.83 -12.99,-32.5l0.04 -0.02zm-242.06 251.56l4 4.51 -146.54 0 4.51 -4.51c16.34,-17.01 24.5,-37.52 24.5,-61.51l0 -75.52 0 -18.5c0,-19.34 -4,-34.33 -12.02,-45.01 -8.32,-10.67 -22.34,-16.18 -42,-16.51 -10.35,-0.33 -20.18,2 -29.5,7 -9.34,5 -16.18,9.75 -20.5,14.26 -4.35,4.51 -8.16,9.24 -11.51,14.26l0 80.52 0 39.52c0,24.01 8.34,44.52 25.01,61.51l4 4.51 -146.54 0 4.51 -4.51c16.34,-17.01 24.5,-37.52 24.5,-61.51l0 -65.02c-0.33,-21.67 -6.34,-41.84 -18.01,-60.51l-11 -18.01c27.34,-13.01 45.68,-22.01 55.02,-27.01l62.51 -34.01 0 83.52c16.34,-30.68 36.33,-52.35 60.02,-65.02 16,-8.34 34.17,-12.5 54.51,-12.5 23.66,0 42.17,4.51 55.51,13.5 13.67,8.67 22.75,19.42 27.26,32.25 4.51,12.83 6.75,28.76 6.75,47.76l0 105.02c0,24.01 8.34,44.52 25.01,61.51l0 -0.02zm-403.09 -158.04l0 89.03c0,28.01 9.67,52.18 29.01,72.53l-152.54 0c19.34,-20.34 29.01,-44.52 29.01,-72.53l0 -201.05c0,-28.01 -9.67,-52.18 -29.01,-72.53l152.54 0c-19.34,20.34 -29.01,44.52 -29.01,72.53l0 89.03 0 23.01 0 -0.02zm2366.62 407.64c8.67,6.67 15.18,14.18 19.5,22.5 4.33,8.34 6.51,17.5 6.51,27.5 0,25.34 -11,45.84 -33.01,61.51 -22.67,16 -52.51,24.01 -89.52,24.01 -20.01,0 -40.01,-2 -60.02,-6 -18.01,-4 -34.01,-9 -48,-15 0.33,-7.34 0.51,-15.83 0.51,-25.5 0,-10 -0.16,-22.67 -0.51,-38.01l3 0c16.67,25.66 33.52,44.68 50.51,57.02 18.34,13.67 38.01,20.5 59.02,20.5 13.01,0 23.5,-3.33 31.52,-10 8.34,-7 12.5,-16.18 12.5,-27.5 0,-11.99 -5.16,-22.83 -15.51,-32.5 -9,-8.67 -28.01,-19.18 -57.02,-31.52 -18.01,-7.67 -31.17,-13.83 -39.52,-18.5 -8,-4.35 -15,-8.83 -21.01,-13.5 -9,-7 -15.67,-14.83 -20.01,-23.5 -4.33,-8 -6.51,-17.18 -6.51,-27.5 0,-23.68 10.35,-43 31.01,-58.02 21.67,-15.67 50.51,-23.5 86.52,-23.5 18.01,0 34.01,1.83 48.02,5.51 12.99,3.67 27.18,9.83 42.51,18.5 0,9 0.33,18.34 1,28.01 0.33,8.67 1,18.66 2,30.01l-2 0c-17.34,-26.66 -32.68,-45.51 -46.02,-56.51 -15,-12.34 -31.17,-18.5 -48.51,-18.5 -11.34,0 -20.67,3.51 -28.01,10.51 -7.67,6.67 -11.51,15.34 -11.51,26.01 0,12.34 5.16,23.34 15.51,33.01 9,9 28.34,19.34 58.02,31.01 17.67,7 30.5,12.67 38.52,17.01 8.34,4.33 15.18,8.67 20.5,13.01l0 -0.09zm-247.07 -127.03c6.67,7 10,16.51 10,28.5 0,4.33 -0.67,9.16 -2,14.51 -0.33,3 -1,5.83 -2,8.51 -1,2.67 -1.67,4.51 -2,5.51l-1 1.51c-11.34,-4 -23.17,-7.34 -35.52,-10 -7.67,-1.67 -15.34,-2.51 -23.01,-2.51 -16,0 -29.34,3.33 -40.01,10 -7.67,4.67 -16.51,11.51 -26.5,20.5l0 72.01 0 39.52c0,24.01 8.34,44.52 25.01,61.51l4 4.51 -146.54 0 4.51 -4.51c16.34,-17.01 24.5,-37.52 24.5,-61.51l0 -65.02c-0.33,-21.67 -6.34,-41.84 -18.01,-60.51l-11 -18.01c27.34,-13.01 45.68,-22.01 55.02,-27.01l62.51 -34.01 0 90.52c7.67,-16.34 15.26,-29.5 22.75,-39.52 7.51,-10 16.42,-19.5 26.75,-28.5 12.02,-11 26.69,-16.51 44.01,-16.51 12.34,0 21.85,3.51 28.5,10.51l0.04 -0.01zm-302.07 195.54c11.34,-3.67 22.5,-9.16 33.52,-16.51 -16,27.67 -33.85,48.19 -53.51,61.51 -21.34,14.67 -46.35,22.01 -75.01,22.01 -40.35,0 -73.69,-12.83 -100.02,-38.52 -26.34,-25.34 -39.52,-57.67 -39.52,-97.03 0,-39.01 14.34,-71.69 43,-98.02 28.68,-26.34 63.69,-39.52 105.02,-39.52 34.68,0 62.35,9.51 83.01,28.5 20.67,18.66 31.01,42 31.01,70.01 0,3.33 -0.33,7 -1,11 0,2 0,3.84 0,5.51l-179.54 0 2 9.51c5.67,27.01 18.26,48.43 37.76,64.26 19.5,15.83 42.6,23.75 69.26,23.75 16,0 30.68,-2.16 44.01,-6.51l0.01 0.04zm-154.53 -114.02l1 19.01 48 -2.51c18.66,-0.67 32.6,-9.08 41.76,-25.26 9.16,-16.18 9.24,-32.25 0.24,-48.27 0,-0.33 0,-0.59 0,-0.75 0,-0.16 -0.16,-0.24 -0.49,-0.24 -9.34,-16 -21.5,-24.01 -36.52,-24.01 -17.67,0 -31.34,7.67 -41,23.01 -8.67,14.34 -12.99,34.01 -12.99,59.02l-0 -0.01zm-121.53 147.03c2.33,4.67 5.16,9.18 8.51,13.5 -16.34,1.67 -31.85,3.84 -46.51,6.51 -9.67,1.67 -19.18,3.51 -28.5,5.51 -9,2 -17.67,4.16 -26.01,6.51 -1,-5 -1.83,-9.83 -2.51,-14.51 -1,-7 -2,-13.67 -3,-20.01l-1 -9.51c-3.35,4.33 -7.26,8.67 -11.75,12.99 -4.51,4.33 -10.43,9.26 -17.75,14.75 -7.34,5.51 -16,9.92 -26.01,13.26 -10,3.33 -20.34,5 -31.01,5 -35.01,0 -63.34,-12.16 -85.03,-36.52 -22.01,-24.34 -33.01,-55.51 -33.01,-93.52 0,-42.68 14.51,-77.01 43.52,-103.02 29.34,-26.34 66.18,-39.52 110.53,-39.52 7,0 13.67,0.51 20.01,1.51 6.67,0.67 13.34,2 20.01,4l10 3.51 0 -21.01c-0.33,-22.34 -6.34,-43 -18.01,-62.02l-11 -18.01c27.34,-12.99 45.68,-22.01 55.02,-27.01l62.51 -34.01 0 39.52 0 216.06 0 79.03c0,8 0.16,14.83 0.49,20.5 1.32,12.67 4.84,24.85 10.51,36.52l-0 -0.02zm-128.52 -3.51c12.67,0 22.5,-3.33 29.5,-10l-0.51 -24.01 0 -128.52c0,-20.01 -5,-36.01 -15,-48.02 -10,-12.67 -23.66,-19.01 -41,-19.01 -18.01,0 -32.17,9.18 -42.51,27.5 -9.34,16.67 -13.99,39.52 -13.99,68.53 0,41 7.16,73.18 21.5,96.52 15,24.66 35.68,37.01 62.02,37.01l0 0.02zm-202.56 24.5l4 4.51 -146.54 0 4.51 -4.51c16.34,-17.01 24.5,-37.52 24.5,-61.51l0 -75.52 0 -18.5c0,-19.34 -4,-34.33 -12.02,-45.01 -8.32,-10.67 -22.34,-16.18 -42,-16.51 -10.35,-0.33 -20.18,2 -29.5,7 -9.34,5 -16.18,9.75 -20.5,14.26 -4.35,4.51 -8.16,9.24 -11.51,14.26l0 80.52 0 39.52c0,24.01 8.34,44.52 25.01,61.51l4 4.51 -146.54 0 4.51 -4.51c16.34,-17.01 24.5,-37.52 24.5,-61.51l0 -65.02c-0.33,-21.67 -6.34,-41.84 -18.01,-60.51l-11 -18.01c27.34,-13.01 45.68,-22.01 55.02,-27.01l62.51 -34.01 0 83.52c16.34,-30.68 36.33,-52.35 60.02,-65.02 16,-8.34 34.17,-12.5 54.51,-12.5 23.66,0 42.17,4.51 55.51,13.5 13.67,8.67 22.75,19.42 27.26,32.25 4.51,12.83 6.75,28.76 6.75,47.76l0 105.02c0,24.01 8.34,44.52 25.01,61.51l0 -0.02zm-371.6 -16l-118.04 29.01 0 -68.02c-15.34,26.01 -33.17,44.52 -53.51,55.51 -15.34,8.34 -32.34,12.5 -51.02,12.5 -24.01,0 -42.68,-4.33 -56.02,-12.99 -13.34,-9 -22.34,-19.91 -27.01,-32.76 -4.67,-12.83 -7,-28.76 -7,-47.76l0 -44.52c-0.33,-22.34 -6.34,-42.84 -18.01,-61.51l-11 -18.01c27.34,-12.99 45.68,-22.01 55.02,-27.01l62.51 -34.52 0 174.55c0,21.01 3.33,36.01 10,45.01 8.34,10.67 22.18,16.18 41.51,16.51 21.01,0.67 39.17,-8.83 54.51,-28.5l0 -160.55c12.67,-6 21.5,-10.32 26.5,-12.99l62.51 -34.01 -0.49 118.04 0.49 0 0 66.02c0,24.01 8.16,44.52 24.5,61.51l4.51 4.51 0.04 0zm-410.11 -207.05c26.66,24.34 40.01,57.18 40.01,98.53 0,40.01 -15.34,72.85 -46.02,98.53 -31.01,26.01 -70.01,39.01 -117.02,39.01 -45.35,0 -81.36,-12.34 -108.02,-37.01 -26.66,-24.34 -40.01,-57.35 -40.01,-99.02 0,-40.01 15.34,-72.69 46,-98.02 31.01,-26.01 70.01,-39.01 117.04,-39.01 45.01,0 81.01,12.34 108.02,37.01l-0 -0.02zm-56.51 195.05c5.67,-16.67 7.51,-40.35 5.51,-71.01 -2.33,-38.33 -12.02,-72.85 -29.01,-103.53 -18.34,-32.34 -38.52,-47.68 -60.51,-46 -16,1 -27.34,10.83 -34.01,29.5 -5.67,16.67 -7.51,40.17 -5.51,70.52 2.33,38.68 12.16,73.36 29.5,104.02 18.34,32.34 38.84,47.68 61.51,46.02 15.34,-1 26.17,-10.83 32.52,-29.5l0 -0.02z"/>
  <g id="_2028806233536">
   <polygon class="fil0" points="1539.13,957.58 1290.92,776.51 1042.71,957.58 1138.22,665.57 889.32,485.45 1196.55,486.05 1290.93,193.67 1385.31,486.05 1692.54,485.45 1443.63,665.56 "/>
   <polygon class="fil0" points="667.52,772.66 543.76,682.38 420,772.66 467.62,627.06 343.51,537.25 496.7,537.55 543.76,391.76 590.82,537.55 744.01,537.25 619.9,627.06 "/>
   <polygon class="fil0" points="147.99,669.2 91.47,627.96 34.94,669.2 56.69,602.69 -0,561.68 69.97,561.81 91.47,495.22 112.96,561.81 182.93,561.67 126.24,602.69 "/>
  </g>
  <g id="_2028806234208">
   <polygon class="fil0" points="6145.01,957.58 6393.22,776.51 6641.43,957.58 6545.93,665.57 6794.83,485.45 6487.6,486.05 6393.22,193.67 6298.84,486.05 5991.61,485.45 6240.51,665.56 "/>
   <polygon class="fil0" points="7016.63,772.66 7140.39,682.38 7264.15,772.66 7216.53,627.06 7340.64,537.25 7187.45,537.55 7140.39,391.76 7093.33,537.55 6940.14,537.25 7064.25,627.06 "/>
   <polygon class="fil0" points="7536.16,669.2 7592.68,627.96 7649.21,669.2 7627.46,602.69 7684.15,561.68 7614.18,561.81 7592.68,495.22 7571.19,561.81 7501.22,561.67 7557.9,602.69 "/>
  </g>
 </g>
</svg>
