<?xml version="1.0" encoding="UTF-8"?>
<!DOCTYPE svg PUBLIC "-//W3C//DTD SVG 1.1//EN" "http://www.w3.org/Graphics/SVG/1.1/DTD/svg11.dtd">
<!-- Creator: CorelDRAW 2021 (64-Bit) -->
<svg xmlns="http://www.w3.org/2000/svg" xml:space="preserve" width="3.72174in" height="1.17002in" version="1.1" style="shape-rendering:geometricPrecision; text-rendering:geometricPrecision; image-rendering:optimizeQuality; fill-rule:evenodd; clip-rule:evenodd"
viewBox="0 0 1876.93 590.06"
 xmlns:xlink="http://www.w3.org/1999/xlink"
 xmlns:xodm="http://www.corel.com/coreldraw/odm/2003">
 <defs>
  <style type="text/css">
   <![CDATA[
    .fil0 {fill:#111111}
   ]]>
  </style>
 </defs>
 <g id="Layer_x0020_1">
  <metadata id="CorelCorpID_0Corel-Layer"/>
  <path class="fil0" d="M779.13 257.52c0.16,7.68 0.41,15.04 0.73,22.06 -5.72,-13.73 -11.77,-23.37 -18.14,-28.93 -7.19,-6.37 -17.24,-9.56 -30.15,-9.56l-27.46 0 0 75.75 0 4.9 3.92 -0.24 13.24 -0.49c9.81,-0.33 17.16,-2.12 22.06,-5.39 5.07,-3.43 9.15,-9.56 12.26,-18.39l0 50.5c-2.94,-8.5 -7.03,-14.55 -12.26,-18.14 -5.23,-3.43 -12.58,-5.31 -22.06,-5.64l-13.24 -0.49 -3.92 -0.25 0 5.15 0 43.64c0,13.73 4.74,25.58 14.22,35.55l-59.33 0c-0.16,0 -0.41,0 -0.73,0 -0.33,0 -0.49,0 -0.49,0l-14.22 0c9.48,-9.97 14.22,-21.82 14.22,-35.55l0 -43.64 0 -11.52 0 -43.88c0,-13.73 -4.74,-25.58 -14.22,-35.55l135.81 0c-0.16,5.88 -0.24,12.58 -0.24,20.1zm-276.65 -73.92c-53.2,-12.62 -127.7,-61.01 -157.67,-9.73 -29.13,-8.83 -113.52,-62.66 -107.48,-125.2 -36.09,65.29 16.57,84.73 61.69,121.11l-74.02 -20.82c25.79,46.91 171.53,119.76 221.88,147.4 -67.75,-6.33 -146.77,-51.78 -198.98,-77.11 43.27,52.87 134.72,117.7 193.64,161.07 21.96,16.16 51.17,32.79 69.25,49.69 -48.39,-6.6 -106.34,-33.1 -141.61,-55.21 -28.49,-17.86 -90.39,-63.12 -107.2,-88.49 7.77,41.19 217.76,271.72 256.04,299.85 -29.15,-12.78 -84.23,-54.56 -112.21,-74.78 -112.37,-81.22 -384.82,-277.85 -277.25,-428.31 49.75,-69.59 235.24,-83.07 281.18,0.24 18.47,33.5 82.28,38.53 92.77,100.3zm-218.47 249.38c-19.41,15.46 -30.15,41.97 -51.99,52.92l0.24 -56.65c-19.03,39.65 -40.38,105.98 -90.77,117.46l28.77 -120.09c-23.64,47.73 -28.77,77.05 -170.26,163.44 7.55,-26.33 158.3,-282.89 160.8,-279.51 24.94,33.81 88.7,101.44 123.21,122.43zm95.8 -342.88l-31.88 -23.91 14.21 26.68 17.67 -2.77zm1495.22 439.9l0.82 0.92 -29.87 0 0.92 -0.92c3.33,-3.46 5,-7.64 5,-12.54l0 -15.39 0 -3.77c0,-3.94 -0.82,-7 -2.45,-9.17 -1.7,-2.17 -4.55,-3.3 -8.56,-3.36 -2.11,-0.07 -4.11,0.41 -6.01,1.43 -1.9,1.02 -3.3,1.99 -4.18,2.9 -0.88,0.92 -1.67,1.89 -2.34,2.9l0 16.41 0 8.05c0,4.89 1.7,9.07 5.1,12.54l0.82 0.92 -29.87 0 0.92 -0.92c3.33,-3.46 5,-7.64 5,-12.54l0 -13.25c-0.07,-4.42 -1.29,-8.53 -3.67,-12.33l-2.24 -3.67c5.57,-2.65 9.31,-4.49 11.21,-5.5l12.74 -6.93 0 17.02c3.33,-6.25 7.41,-10.67 12.23,-13.25 3.26,-1.7 6.97,-2.55 11.11,-2.55 4.82,0 8.6,0.92 11.32,2.75 2.79,1.77 4.64,3.96 5.56,6.57 0.92,2.62 1.38,5.86 1.38,9.73l0 21.41c0,4.89 1.7,9.07 5.1,12.54zm-83.38 -63.3c-2.04,1.97 -4.62,2.96 -7.75,2.96 -3.13,0 -5.71,-0.98 -7.75,-2.96 -1.97,-1.9 -2.96,-4.33 -2.96,-7.29 0,-2.96 0.98,-5.42 2.96,-7.39 2.04,-1.97 4.62,-2.95 7.75,-2.95 3.13,0 5.71,0.98 7.75,2.95 2.04,1.97 3.06,4.44 3.06,7.39 0,2.95 -1.02,5.38 -3.06,7.29zm1.83 49.54c0,5.71 1.97,10.6 5.91,14.68l-29.87 0c3.94,-4.08 5.91,-8.97 5.91,-14.68l0 -11.72c-0.07,-4.55 -1.29,-8.77 -3.67,-12.64l-2.24 -3.67c5.57,-2.65 9.31,-4.49 11.21,-5.5l12.74 -7.03 0 40.57zm-28.54 9.78c0,-0.07 0.07,-0.1 0.2,-0.1 -1.9,1.97 -4.04,3.5 -6.42,4.59 -2.99,1.43 -6.12,2.14 -9.38,2.14 -2.85,0 -5.16,-0.65 -6.93,-1.94 -0.48,-0.34 -0.92,-0.88 -1.32,-1.63 -0.41,-0.75 -0.76,-1.63 -1.07,-2.65 -0.31,-1.02 -0.49,-2.11 -0.56,-3.26 -2.51,3.33 -5.5,5.84 -8.97,7.54 -2.58,1.29 -5.61,1.94 -9.07,1.94 -5.1,0 -9.21,-1.39 -12.33,-4.18 -3.13,-2.79 -4.69,-6.32 -4.69,-10.6 0,-3.53 1.43,-6.35 4.28,-8.46 5.78,-4.28 16,-6.22 30.68,-5.81l0 -2.75c0,-0.41 0.02,-1.17 0.05,-2.29 0.03,-1.12 0.03,-2.05 0,-2.8 -0.04,-0.75 -0.07,-1.75 -0.1,-3.01 -0.03,-1.26 -0.1,-2.33 -0.2,-3.21 -0.1,-0.88 -0.26,-1.87 -0.46,-2.96 -0.2,-1.09 -0.49,-2.02 -0.87,-2.8 -0.37,-0.78 -0.78,-1.53 -1.22,-2.24 -0.44,-0.71 -1.02,-1.27 -1.73,-1.68 -0.71,-0.41 -1.48,-0.65 -2.29,-0.71 -2.11,-0.2 -4.33,0.42 -6.68,1.89 -2.34,1.46 -4.47,3.33 -6.37,5.61 -1.9,2.28 -3.5,4.44 -4.79,6.47 -1.29,2.04 -2.31,3.81 -3.06,5.3l-6.73 -15.8c0.2,-0.07 0.49,-0.19 0.87,-0.36 0.38,-0.17 1.19,-0.51 2.45,-1.02 1.26,-0.51 2.53,-0.95 3.82,-1.32 1.29,-0.37 2.96,-0.83 4.99,-1.38 2.04,-0.54 4.03,-0.9 5.96,-1.07 1.94,-0.17 4.18,-0.34 6.73,-0.51 2.55,-0.17 4.98,-0.05 7.29,0.36 6.46,0.68 11.62,2.89 15.49,6.63 3.4,3.26 5.1,8.15 5.1,14.68l0 21.1c0,2.24 0.31,3.84 0.92,4.79 0.75,1.22 2.04,1.83 3.87,1.83 0.88,0 1.73,-0.1 2.55,-0.31zm-32.72 0.31c2.58,0 5,-1.09 7.24,-3.26 -0.07,-0.47 -0.1,-0.85 -0.1,-1.12l0 -17.53 -5.4 0c-4.35,0 -7.58,0.71 -9.68,2.14 -2.38,1.5 -3.57,3.98 -3.57,7.44 0,3.6 1.09,6.56 3.26,8.87 2.24,2.31 4.99,3.46 8.26,3.46zm-34.45 3.67l0.81 0.92 -29.87 0 0.92 -0.92c3.33,-3.46 5,-7.64 5,-12.54l0 -15.39 0 -3.77c0,-3.94 -0.82,-7 -2.45,-9.17 -1.7,-2.17 -4.55,-3.3 -8.56,-3.36 -2.11,-0.07 -4.11,0.41 -6.01,1.43 -1.9,1.02 -3.3,1.99 -4.18,2.9 -0.88,0.92 -1.67,1.89 -2.34,2.9l0 24.47c0,4.89 1.7,9.07 5.1,12.54l0.82 0.92 -29.87 0 0.92 -0.92c3.33,-3.46 5,-7.64 5,-12.54l0 -38.02 0 -4.49c0,-4.69 -1.22,-9 -3.67,-12.95l-2.24 -3.67c5.57,-2.65 9.31,-4.48 11.21,-5.5l12.74 -6.93 0 33.54 0 13.35c3.26,-6.25 7.34,-10.67 12.23,-13.25 3.26,-1.7 6.97,-2.55 11.11,-2.55 4.82,0 8.6,0.92 11.32,2.75 2.79,1.77 4.64,3.96 5.56,6.57 0.92,2.62 1.38,5.86 1.38,9.73l0 21.41c0,4.89 1.7,9.07 5.1,12.54zm-80.12 -10.29c1.9,-0.61 3.74,-1.36 5.5,-2.24 -2.38,4.69 -5.5,8.32 -9.38,10.91 -4.21,2.86 -9,4.28 -14.37,4.28 -8.29,0 -15.07,-2.57 -20.34,-7.7 -5.27,-5.13 -7.9,-11.7 -7.9,-19.72 0,-8.29 2.82,-15.05 8.46,-20.29 5.57,-5.3 12.5,-7.95 20.79,-7.95 6.18,0 11.35,1.32 15.49,3.97 3.87,2.51 5.81,5.44 5.81,8.77 0,2.24 -0.71,3.97 -2.14,5.2 -1.5,1.22 -3.64,1.94 -6.42,2.14l-1.12 0.1c-0.61,-2.24 -1.26,-4.18 -1.94,-5.81 -1.29,-3.4 -2.65,-6.05 -4.08,-7.95 -2.45,-3.19 -5.23,-4.79 -8.36,-4.79 -3.13,0 -5.64,1.53 -7.54,4.59 -1.77,2.86 -2.65,6.63 -2.65,11.32 0,8.09 2.11,14.47 6.32,19.16 4.21,4.69 9.79,7.03 16.72,7.03 2.24,0 4.62,-0.34 7.14,-1.02zm-87.56 -14.68l-5.61 5.2 0 7.24c0,4.89 1.7,9.07 5.1,12.54l0.82 0.92 -29.87 0 0.92 -0.92c3.33,-3.46 5,-7.64 5,-12.54l0 -42.51c0,-4.69 -1.22,-9 -3.67,-12.95l-2.24 -3.67c5.57,-2.65 9.31,-4.48 11.21,-5.5l12.74 -6.93 0 33.54 0 22.63 0 7.14 5.4 -5 10.29 -9.68c2.24,-2.04 3.87,-3.81 4.89,-5.3 1.22,-1.63 1.83,-3.13 1.83,-4.48 0,-1.5 -0.61,-2.75 -1.83,-3.77 -0.75,-0.61 -1.8,-1.12 -3.16,-1.53l0 -0.71 26.91 0 0 0.61 -2.14 0.61c-4.89,1.29 -8.94,2.82 -12.13,4.59 -3.19,1.77 -6.25,3.94 -9.17,6.52l-2.45 2.14 -1.12 0.92 0.82 1.22 17.23 24.67c2.58,3.81 4.66,6.46 6.22,7.95 1.5,1.43 3.5,2.45 6.01,3.06l-24.06 0 -17.94 -25.99zm-39.04 14.68c1.9,-0.61 3.74,-1.36 5.5,-2.24 -2.38,4.69 -5.5,8.32 -9.38,10.91 -4.21,2.86 -9,4.28 -14.37,4.28 -8.29,0 -15.07,-2.57 -20.34,-7.7 -5.27,-5.13 -7.9,-11.7 -7.9,-19.72 0,-8.29 2.82,-15.05 8.46,-20.29 5.57,-5.3 12.5,-7.95 20.79,-7.95 6.18,0 11.35,1.32 15.49,3.97 3.87,2.51 5.81,5.44 5.81,8.77 0,2.24 -0.71,3.97 -2.14,5.2 -1.5,1.22 -3.64,1.94 -6.42,2.14l-1.12 0.1c-0.61,-2.24 -1.26,-4.18 -1.94,-5.81 -1.29,-3.4 -2.65,-6.05 -4.08,-7.95 -2.45,-3.19 -5.23,-4.79 -8.36,-4.79 -3.13,0 -5.64,1.53 -7.54,4.59 -1.77,2.86 -2.65,6.63 -2.65,11.32 0,8.09 2.11,14.47 6.32,19.16 4.21,4.69 9.79,7.03 16.72,7.03 2.24,0 4.62,-0.34 7.14,-1.02zm-61.67 -35.17c5.44,4.96 8.15,11.65 8.15,20.08 0,8.15 -3.13,14.85 -9.38,20.08 -6.32,5.3 -14.27,7.95 -23.85,7.95 -9.24,0 -16.58,-2.51 -22.02,-7.54 -5.44,-4.96 -8.15,-11.69 -8.15,-20.18 0,-8.15 3.13,-14.82 9.38,-19.98 6.32,-5.3 14.27,-7.95 23.85,-7.95 9.17,0 16.51,2.51 22.02,7.54zm-11.52 39.75c1.16,-3.4 1.53,-8.22 1.12,-14.47 -0.47,-7.81 -2.45,-14.85 -5.91,-21.1 -3.74,-6.59 -7.85,-9.72 -12.33,-9.38 -3.26,0.2 -5.57,2.21 -6.93,6.01 -1.16,3.4 -1.53,8.19 -1.12,14.37 0.48,7.88 2.48,14.95 6.02,21.2 3.74,6.59 7.92,9.72 12.54,9.38 3.13,-0.2 5.34,-2.21 6.63,-6.02zm-49.44 5.71l0.82 0.92 -29.87 0 0.92 -0.92c3.33,-3.46 5,-7.64 5,-12.54l0 -38.02 0 -4.49c0,-4.69 -1.22,-9 -3.67,-12.95l-2.24 -3.67c5.57,-2.65 9.31,-4.48 11.21,-5.5l12.74 -6.93 0 33.54 0 38.02c0,4.89 1.7,9.07 5.1,12.54zm-39.35 -30.38c3.87,2.92 5.81,6.59 5.81,11.01 0,6.25 -3.13,11.18 -9.38,14.78 -6.52,3.74 -15.63,5.61 -27.32,5.61l-15.39 0 -17.74 0c3.94,-4.15 5.91,-9.07 5.91,-14.78l0 -18.15 0 -5.2 0 -18.15c0,-5.71 -1.97,-10.63 -5.91,-14.78l5.91 0c0.34,0 0.68,0 1.02,0 0.34,0 0.71,0 1.12,0 0.41,0 0.75,0 1.02,0l8.15 0c0,0 5.06,0 15.19,0 10.6,0 18.59,1.46 23.96,4.38 5.1,2.79 7.64,6.83 7.64,12.13 0,3.47 -1.26,6.29 -3.77,8.46 -1.02,0.95 -2.21,1.83 -3.57,2.65 -1.36,0.82 -2.7,1.5 -4.03,2.04 -1.33,0.54 -2.67,1.02 -4.03,1.43 -1.36,0.41 -2.6,0.73 -3.72,0.97 -1.12,0.24 -2.14,0.42 -3.06,0.56 -0.92,0.14 -1.61,0.24 -2.09,0.31l-0.71 0.1c0.41,0 1,0.02 1.78,0.05 0.78,0.03 2.28,0.19 4.49,0.46 2.21,0.27 4.3,0.63 6.27,1.07 1.97,0.44 4.13,1.1 6.47,1.99 2.34,0.88 4.33,1.9 5.96,3.06zm-38.84 -6.73l0 0.1 5.81 0c4.21,0 7.64,-1.43 10.29,-4.28 2.65,-2.79 3.97,-6.42 3.97,-10.91 0,-5.16 -1.66,-9.28 -4.99,-12.33 -3.33,-2.92 -7.81,-4.38 -13.46,-4.38l-1.63 0 0 31.8zm20.9 32.42c2.79,-3.19 4.18,-7.37 4.18,-12.54 0,-5.44 -1.7,-9.92 -5.1,-13.46 -3.46,-3.6 -7.85,-5.4 -13.15,-5.4l-6.83 0 0 4.18 0 20.39c0,4.08 0.68,7 2.04,8.77 1.43,1.97 3.87,2.96 7.34,2.96 4.82,0 8.66,-1.63 11.52,-4.89zm-89.7 -11.93l0.41 0c-0.34,2.92 -0.65,5.95 -0.92,9.07 -0.2,2.99 -0.34,5.81 -0.41,8.46l-53.11 0 0 -1.02 30.78 -47.2 1.73 -2.65 -3.16 0.2c-8.29,0.27 -14.17,1.39 -17.63,3.36 -3.26,1.9 -6.42,5.81 -9.48,11.72l-0.41 -0.1c0.27,-2.18 0.54,-4.69 0.81,-7.54 0.27,-3.06 0.51,-6.05 0.71,-8.97l48.52 0 0 1.12 -31.09 47.2 -1.63 2.55 2.96 0c5.23,-0.07 9.31,-0.31 12.23,-0.71 3.06,-0.41 5.64,-1.05 7.75,-1.94 2.65,-1.09 4.89,-2.72 6.73,-4.89 1.7,-1.97 3.43,-4.86 5.2,-8.66zm-58.31 12.64c0,-0.07 0.07,-0.1 0.2,-0.1 -1.9,1.97 -4.04,3.5 -6.42,4.59 -2.99,1.43 -6.12,2.14 -9.38,2.14 -2.85,0 -5.16,-0.65 -6.93,-1.94 -0.48,-0.34 -0.92,-0.88 -1.32,-1.63 -0.41,-0.75 -0.76,-1.63 -1.07,-2.65 -0.31,-1.02 -0.49,-2.11 -0.56,-3.26 -2.51,3.33 -5.5,5.84 -8.97,7.54 -2.58,1.29 -5.61,1.94 -9.07,1.94 -5.1,0 -9.21,-1.39 -12.33,-4.18 -3.13,-2.79 -4.69,-6.32 -4.69,-10.6 0,-3.53 1.43,-6.35 4.28,-8.46 5.78,-4.28 16,-6.22 30.68,-5.81l0 -2.75c0,-0.41 0.02,-1.17 0.05,-2.29 0.03,-1.12 0.03,-2.05 0,-2.8 -0.04,-0.75 -0.07,-1.75 -0.1,-3.01 -0.03,-1.26 -0.1,-2.33 -0.2,-3.21 -0.1,-0.88 -0.26,-1.87 -0.46,-2.96 -0.2,-1.09 -0.49,-2.02 -0.87,-2.8 -0.37,-0.78 -0.78,-1.53 -1.22,-2.24 -0.44,-0.71 -1.02,-1.27 -1.73,-1.68 -0.71,-0.41 -1.48,-0.65 -2.29,-0.71 -2.11,-0.2 -4.33,0.42 -6.68,1.89 -2.34,1.46 -4.47,3.33 -6.37,5.61 -1.9,2.28 -3.5,4.44 -4.79,6.47 -1.29,2.04 -2.31,3.81 -3.06,5.3l-6.73 -15.8c0.2,-0.07 0.49,-0.19 0.87,-0.36 0.38,-0.17 1.19,-0.51 2.45,-1.02 1.26,-0.51 2.53,-0.95 3.82,-1.32 1.29,-0.37 2.96,-0.83 4.99,-1.38 2.04,-0.54 4.03,-0.9 5.96,-1.07 1.94,-0.17 4.18,-0.34 6.73,-0.51 2.55,-0.17 4.98,-0.05 7.29,0.36 6.46,0.68 11.62,2.89 15.49,6.63 3.4,3.26 5.1,8.15 5.1,14.68l0 21.1c0,2.24 0.31,3.84 0.92,4.79 0.75,1.22 2.04,1.83 3.87,1.83 0.88,0 1.73,-0.1 2.55,-0.31zm-32.72 0.31c2.58,0 5,-1.09 7.24,-3.26 -0.07,-0.47 -0.1,-0.85 -0.1,-1.12l0 -17.53 -5.4 0c-4.35,0 -7.58,0.71 -9.68,2.14 -2.38,1.5 -3.57,3.98 -3.57,7.44 0,3.6 1.09,6.56 3.26,8.87 2.24,2.31 4.99,3.46 8.26,3.46zm-35.68 -3.46c0.88,-0.27 1.73,-0.68 2.55,-1.22 -2.85,4.08 -5.47,6.9 -7.85,8.46 -2.58,1.7 -5.71,2.55 -9.38,2.55 -5.37,0 -9.24,-1.53 -11.62,-4.59 -2.52,-3.13 -3.77,-8.15 -3.77,-15.09l0 -31.6 -6.73 0 0 -2.04c4.82,-0.82 9.21,-2.62 13.15,-5.4 4.01,-2.85 7.64,-6.9 10.91,-12.13l0.71 0.2 0 16.82 13.35 0 0 2.55 -13.35 0 0 30.58c0,3.94 0.54,6.8 1.63,8.56 1.16,2.11 3.13,3.16 5.91,3.16 1.5,0 2.99,-0.27 4.49,-0.81zm-47.1 -39.04c4.01,4.55 6.01,10.54 6.01,17.94 0,9.31 -2.85,16.79 -8.56,22.43 -5.71,5.64 -12.95,8.46 -21.71,8.46 -1.56,0 -3.13,-0.1 -4.69,-0.31 -1.56,-0.2 -3.06,-0.51 -4.49,-0.92l-2.04 -0.61 0 11.83c0,4.89 1.7,9.11 5.1,12.64l0.82 0.92 -29.87 0 0.92 -0.92c3.33,-3.53 5,-7.71 5,-12.54l0 -37.92c0,-4.69 -1.22,-9.01 -3.67,-12.95l-2.24 -3.67c5.57,-2.65 9.31,-4.49 11.21,-5.5l12.74 -6.93 0 9.17 0 4.59 0 0.31 0 0.71c1.16,-2.51 2.7,-4.78 4.64,-6.78 1.94,-2.01 3.75,-3.48 5.45,-4.43 2.85,-1.56 6.05,-2.34 9.58,-2.34 6.59,0 11.86,2.28 15.8,6.83zm-15.09 42.41c1.63,-2.99 2.45,-7.3 2.45,-12.95 0,-8.5 -1.16,-15.19 -3.46,-20.08 -2.52,-5.23 -6.05,-7.85 -10.6,-7.85 -1.02,0 -2,0.1 -2.96,0.31 -0.68,0.2 -1.34,0.53 -1.99,0.97 -0.65,0.44 -1.19,0.9 -1.63,1.38 -0.44,0.48 -0.83,0.94 -1.17,1.38 -0.34,0.44 -0.58,0.83 -0.71,1.17l-0.31 0.41 0 0.41 0 19.78c0,6.18 1.05,10.97 3.16,14.37 2.24,3.74 5.23,5.61 8.97,5.61 3.6,0 6.35,-1.63 8.26,-4.89zm-55.66 -59.53c-2.04,1.97 -4.62,2.96 -7.75,2.96 -3.13,0 -5.71,-0.98 -7.75,-2.96 -1.97,-1.9 -2.96,-4.33 -2.96,-7.29 0,-2.96 0.98,-5.42 2.96,-7.39 2.04,-1.97 4.62,-2.95 7.75,-2.95 3.13,0 5.71,0.98 7.75,2.95 2.04,1.97 3.06,4.44 3.06,7.39 0,2.95 -1.02,5.38 -3.06,7.29zm1.83 49.54c0,5.71 1.97,10.6 5.91,14.68l-29.87 0c3.94,-4.08 5.91,-8.97 5.91,-14.68l0 -11.72c-0.07,-4.55 -1.29,-8.77 -3.67,-12.64l-2.24 -3.67c5.57,-2.65 9.31,-4.49 11.21,-5.5l12.74 -7.03 0 40.57zm-30.48 -37.1c1.36,1.43 2.04,3.36 2.04,5.81 0,0.88 -0.14,1.87 -0.41,2.96 -0.07,0.61 -0.2,1.19 -0.41,1.73 -0.2,0.54 -0.34,0.92 -0.41,1.12l-0.2 0.31c-2.31,-0.82 -4.72,-1.5 -7.24,-2.04 -1.56,-0.34 -3.13,-0.51 -4.69,-0.51 -3.26,0 -5.98,0.68 -8.15,2.04 -1.56,0.95 -3.36,2.34 -5.4,4.18l0 14.68 0 8.05c0,4.89 1.7,9.07 5.1,12.54l0.82 0.92 -29.87 0 0.92 -0.92c3.33,-3.46 5,-7.64 5,-12.54l0 -13.25c-0.07,-4.42 -1.29,-8.53 -3.67,-12.33l-2.24 -3.67c5.57,-2.65 9.31,-4.49 11.21,-5.5l12.74 -6.93 0 18.45c1.56,-3.33 3.11,-6.01 4.64,-8.05 1.53,-2.04 3.35,-3.97 5.45,-5.81 2.45,-2.24 5.44,-3.36 8.97,-3.36 2.51,0 4.45,0.71 5.81,2.14zm-100.92 18.35l-5.71 5.71 0 12.74c0,5.71 1.97,10.63 5.91,14.78l-31.09 0c3.94,-4.15 5.91,-9.07 5.91,-14.78l0 -40.98c0,-5.71 -1.97,-10.64 -5.91,-14.78l31.09 0c-3.94,4.14 -5.91,9.07 -5.91,14.78l0 18.14 0 4.69 0 3.36 6.83 -6.83 19.06 -20.08c3.33,-3.4 5.16,-6.18 5.5,-8.36 0.27,-1.43 -0.07,-2.62 -1.02,-3.57 -0.81,-0.82 -2,-1.36 -3.57,-1.63l-1.12 -0.2 0 -0.31 28.03 0 0 0.61 -0.71 0c-5.3,1.02 -9.96,2.65 -13.97,4.89 -3.94,2.31 -7.98,5.54 -12.13,9.68l-7.54 7.95 -1.02 1.02 0.92 1.02 26.4 34.66c2.79,3.67 5.71,7.24 8.77,10.7l-23.44 0 -25.28 -33.23zm-85.32 -18.76l13.86 0c-5.03,4.49 -8.77,9.92 -11.21,16.31l-14.88 35.88c-2.18,4.76 -4.16,8.65 -5.96,11.67 -1.8,3.02 -3.58,5.49 -5.35,7.39 -3.19,3.67 -6.83,5.51 -10.91,5.51 -2.72,0 -4.72,-0.78 -6.02,-2.34 -1.7,-2.11 -2.58,-4.52 -2.65,-7.24l0.2 -0.61c9.04,-0.2 15.49,-1.26 19.37,-3.16 4.21,-2.04 7.1,-4.93 8.66,-8.66l0.1 -0.1 1.02 -2.45c-4.89,-0.07 -8.56,-0.07 -11.01,0l-10.6 -23.34 -7.03 -15.39c-1.09,-2.79 -2.28,-5.18 -3.57,-7.19 -1.29,-2.01 -2.99,-3.79 -5.1,-5.35l-1.22 -0.92 31.29 0 -0.51 0.92c-1.97,3.46 -2.01,7.61 -0.1,12.44l10.19 25.28 1.53 3.98 1.43 -3.98 10.4 -24.77c0.88,-2.38 1.14,-4.79 0.76,-7.24 -0.37,-2.45 -1.27,-4.66 -2.7,-6.63zm-59.12 5.2c4.08,4.62 6.12,10.6 6.12,17.94 0,9.24 -2.87,16.68 -8.62,22.32 -5.74,5.64 -12.96,8.46 -21.66,8.46 -3.4,0 -6.93,-0.54 -10.6,-1.63 -2.99,-0.95 -5.78,-2.17 -8.36,-3.67 -0.54,-0.34 -1.09,-0.65 -1.63,-0.92l-8.15 5.71 -0.51 -0.1 0 -57.9c-0.14,-4.42 -1.36,-8.46 -3.67,-12.13l-2.24 -3.67c5.57,-2.65 9.31,-4.48 11.21,-5.5l12.74 -6.93 0 33.54 0 9.48c2.52,-4.35 5.71,-7.54 9.58,-9.58 2.79,-1.5 6.15,-2.24 10.09,-2.24 6.52,0 11.76,2.28 15.7,6.83zm-15.09 42.51c1.7,-2.99 2.55,-7.34 2.55,-13.05 0,-8.29 -1.19,-14.85 -3.57,-19.67 -2.52,-5.23 -6.05,-7.85 -10.6,-7.85 -1.43,0 -2.79,0.24 -4.08,0.71 -1.56,0.54 -3.09,1.56 -4.59,3.06l0 21.3c0,6.25 1.02,11.14 3.06,14.68 2.18,3.81 5.17,5.71 8.97,5.71 3.67,0 6.42,-1.63 8.26,-4.89zm726.77 -320.17c2.13,-0.65 4.17,-1.63 6.13,-2.94 -6.86,9.81 -13.16,16.59 -18.88,20.35 -6.21,4.09 -13.73,6.13 -22.56,6.13 -12.91,0 -22.23,-3.68 -27.95,-11.03 -6.05,-7.52 -9.07,-19.61 -9.07,-36.28l0 -76 -16.18 0 0 -4.9c11.6,-1.96 22.15,-6.29 31.62,-12.99 9.64,-6.87 18.39,-16.59 26.23,-29.17l1.72 0.49 0 40.45 32.12 0 0 6.13 -32.12 0 0 73.55c0,9.48 1.31,16.34 3.92,20.59 2.78,5.07 7.52,7.6 14.22,7.6 3.6,0 7.19,-0.65 10.79,-1.96zm-111.05 -42.9c4.25,3.27 7.44,6.95 9.56,11.03 2.12,4.09 3.19,8.58 3.19,13.48 0,12.42 -5.39,22.47 -16.18,30.15 -11.11,7.84 -25.74,11.77 -43.88,11.77 -9.81,0 -19.61,-0.98 -29.42,-2.94 -8.83,-1.96 -16.67,-4.41 -23.53,-7.35 0.16,-3.6 0.25,-7.76 0.25,-12.5 0,-4.9 -0.08,-11.11 -0.25,-18.63l1.47 0c8.17,12.58 16.43,21.9 24.76,27.95 8.99,6.7 18.63,10.05 28.93,10.05 6.38,0 11.52,-1.63 15.45,-4.9 4.09,-3.43 6.13,-7.93 6.13,-13.48 0,-5.88 -2.53,-11.19 -7.6,-15.93 -4.41,-4.25 -13.73,-9.4 -27.95,-15.45 -8.83,-3.76 -15.28,-6.78 -19.37,-9.07 -3.92,-2.13 -7.35,-4.33 -10.3,-6.62 -4.41,-3.43 -7.68,-7.27 -9.81,-11.52 -2.12,-3.92 -3.19,-8.42 -3.19,-13.48 0,-11.61 5.07,-21.08 15.2,-28.44 10.62,-7.68 24.76,-11.52 42.41,-11.52 8.83,0 16.67,0.9 23.54,2.7 6.37,1.8 13.32,4.82 20.84,9.07 0,4.41 0.16,8.99 0.49,13.73 0.16,4.25 0.49,9.15 0.98,14.71l-0.98 0c-8.5,-13.07 -16.02,-22.31 -22.56,-27.7 -7.35,-6.05 -15.28,-9.07 -23.78,-9.07 -5.56,0 -10.13,1.72 -13.73,5.15 -3.76,3.27 -5.64,7.52 -5.64,12.75 0,6.05 2.53,11.44 7.6,16.18 4.41,4.41 13.89,9.48 28.44,15.2 8.66,3.43 14.95,6.21 18.88,8.34 4.09,2.12 7.44,4.25 10.05,6.38zm-136.31 33.58c5.56,-1.8 11.03,-4.49 16.43,-8.09 -7.84,13.56 -16.59,23.62 -26.23,30.15 -10.46,7.19 -22.72,10.79 -36.77,10.79 -19.78,0 -36.12,-6.29 -49.03,-18.88 -12.91,-12.42 -19.37,-28.27 -19.37,-47.56 0,-19.12 7.03,-35.14 21.08,-48.05 14.06,-12.91 31.22,-19.37 51.48,-19.37 17,0 30.56,4.66 40.69,13.97 10.13,9.15 15.2,20.59 15.2,34.32 0,1.63 -0.16,3.43 -0.49,5.39 0,0.98 0,1.88 0,2.7l-88.01 0 0.98 4.66c2.78,13.24 8.95,23.74 18.51,31.5 9.56,7.76 20.88,11.64 33.95,11.64 7.84,0 15.04,-1.06 21.57,-3.19zm-75.75 -55.89l0.49 9.32 23.53 -1.23c9.15,-0.33 15.98,-4.45 20.47,-12.38 4.49,-7.93 4.53,-15.81 0.12,-23.66 0,-0.16 0,-0.29 0,-0.37 0,-0.08 -0.08,-0.12 -0.24,-0.12 -4.58,-7.84 -10.54,-11.77 -17.9,-11.77 -8.66,0 -15.36,3.76 -20.1,11.28 -4.25,7.03 -6.37,16.67 -6.37,28.93zm-71.09 -40.94l33.34 0c-12.26,10.79 -21.25,23.78 -26.97,38.98l-32.61 86.54c-4.9,-0.16 -9.8,-0.24 -14.71,-0.24 -5.07,0 -10.21,0.08 -15.45,0.24l-25.5 -56.14 -16.91 -37.02c-2.61,-6.7 -5.48,-12.46 -8.58,-17.28 -3.11,-4.82 -7.19,-9.11 -12.26,-12.87l-2.94 -2.21 75.26 0 -1.23 2.21c-4.74,8.34 -4.82,18.3 -0.25,29.91l24.51 60.8 3.68 9.56 3.43 -9.56 21.82 -59.57c1.96,-5.72 2.53,-11.52 1.72,-17.41 -0.82,-5.88 -2.94,-11.19 -6.37,-15.93zm-118.65 123.31l1.96 2.21 -71.83 0 2.21 -2.21c8.01,-8.34 12.01,-18.39 12.01,-30.15l0 -37.02 0 -9.07c0,-9.48 -1.96,-16.83 -5.89,-22.06 -4.08,-5.23 -10.95,-7.93 -20.59,-8.09 -5.07,-0.16 -9.89,0.98 -14.46,3.43 -4.58,2.45 -7.93,4.78 -10.05,6.99 -2.13,2.21 -4,4.53 -5.64,6.99l0 39.47 0 19.37c0,11.77 4.09,21.82 12.26,30.15l1.96 2.21 -71.83 0 2.21 -2.21c8.01,-8.34 12.01,-18.39 12.01,-30.15l0 -31.87c-0.16,-10.62 -3.11,-20.51 -8.83,-29.66l-5.39 -8.83c13.4,-6.38 22.39,-10.79 26.97,-13.24l30.64 -16.67 0 40.94c8.01,-15.04 17.81,-25.66 29.42,-31.87 7.84,-4.09 16.75,-6.13 26.72,-6.13 11.6,0 20.67,2.21 27.21,6.62 6.7,4.25 11.15,9.52 13.36,15.81 2.21,6.29 3.31,14.1 3.31,23.41l0 51.48c0,11.77 4.09,21.82 12.26,30.15zm-197.59 -77.47l0 43.64c0,13.73 4.74,25.58 14.22,35.55l-74.77 0c9.48,-9.97 14.22,-21.82 14.22,-35.55l0 -98.55c0,-13.73 -4.74,-25.58 -14.22,-35.55l74.77 0c-9.48,9.97 -14.22,21.82 -14.22,35.55l0 43.64 0 11.28zm1160.07 199.82c4.25,3.27 7.44,6.95 9.56,11.03 2.12,4.09 3.19,8.58 3.19,13.48 0,12.42 -5.39,22.47 -16.18,30.15 -11.11,7.84 -25.74,11.77 -43.88,11.77 -9.81,0 -19.61,-0.98 -29.42,-2.94 -8.83,-1.96 -16.67,-4.41 -23.53,-7.35 0.16,-3.6 0.25,-7.76 0.25,-12.5 0,-4.9 -0.08,-11.11 -0.25,-18.63l1.47 0c8.17,12.58 16.43,21.9 24.76,27.95 8.99,6.7 18.63,10.05 28.93,10.05 6.38,0 11.52,-1.63 15.45,-4.9 4.09,-3.43 6.13,-7.93 6.13,-13.48 0,-5.88 -2.53,-11.19 -7.6,-15.93 -4.41,-4.25 -13.73,-9.4 -27.95,-15.45 -8.83,-3.76 -15.28,-6.78 -19.37,-9.07 -3.92,-2.13 -7.35,-4.33 -10.3,-6.62 -4.41,-3.43 -7.68,-7.27 -9.81,-11.52 -2.12,-3.92 -3.19,-8.42 -3.19,-13.48 0,-11.61 5.07,-21.08 15.2,-28.44 10.62,-7.68 24.76,-11.52 42.41,-11.52 8.83,0 16.67,0.9 23.54,2.7 6.37,1.8 13.32,4.82 20.84,9.07 0,4.41 0.16,8.99 0.49,13.73 0.16,4.25 0.49,9.15 0.98,14.71l-0.98 0c-8.5,-13.07 -16.02,-22.31 -22.56,-27.7 -7.35,-6.05 -15.28,-9.07 -23.78,-9.07 -5.56,0 -10.13,1.72 -13.73,5.15 -3.76,3.27 -5.64,7.52 -5.64,12.75 0,6.05 2.53,11.44 7.6,16.18 4.41,4.41 13.89,9.48 28.44,15.2 8.66,3.43 14.95,6.21 18.88,8.34 4.09,2.12 7.44,4.25 10.05,6.38zm-121.11 -62.27c3.27,3.43 4.9,8.09 4.9,13.97 0,2.12 -0.33,4.49 -0.98,7.11 -0.16,1.47 -0.49,2.86 -0.98,4.17 -0.49,1.31 -0.82,2.21 -0.98,2.7l-0.49 0.74c-5.56,-1.96 -11.36,-3.6 -17.41,-4.9 -3.76,-0.82 -7.52,-1.23 -11.28,-1.23 -7.84,0 -14.38,1.63 -19.61,4.9 -3.76,2.29 -8.09,5.64 -12.99,10.05l0 35.3 0 19.37c0,11.77 4.09,21.82 12.26,30.15l1.96 2.21 -71.83 0 2.21 -2.21c8.01,-8.34 12.01,-18.39 12.01,-30.15l0 -31.87c-0.16,-10.62 -3.11,-20.51 -8.83,-29.66l-5.39 -8.83c13.4,-6.38 22.39,-10.79 26.97,-13.24l30.64 -16.67 0 44.37c3.76,-8.01 7.48,-14.46 11.15,-19.37 3.68,-4.9 8.05,-9.56 13.11,-13.97 5.89,-5.39 13.08,-8.09 21.57,-8.09 6.05,0 10.71,1.72 13.97,5.15zm-148.07 95.85c5.56,-1.8 11.03,-4.49 16.43,-8.09 -7.84,13.56 -16.59,23.62 -26.23,30.15 -10.46,7.19 -22.72,10.79 -36.77,10.79 -19.78,0 -36.12,-6.29 -49.03,-18.88 -12.91,-12.42 -19.37,-28.27 -19.37,-47.56 0,-19.12 7.03,-35.14 21.08,-48.05 14.06,-12.91 31.22,-19.37 51.48,-19.37 17,0 30.56,4.66 40.69,13.97 10.13,9.15 15.2,20.59 15.2,34.32 0,1.63 -0.16,3.43 -0.49,5.39 0,0.98 0,1.88 0,2.7l-88.01 0 0.98 4.66c2.78,13.24 8.95,23.74 18.51,31.5 9.56,7.76 20.88,11.64 33.95,11.64 7.84,0 15.04,-1.06 21.57,-3.19zm-75.75 -55.89l0.49 9.32 23.53 -1.23c9.15,-0.33 15.98,-4.45 20.47,-12.38 4.49,-7.93 4.53,-15.81 0.12,-23.66 0,-0.16 0,-0.29 0,-0.37 0,-0.08 -0.08,-0.12 -0.24,-0.12 -4.58,-7.84 -10.54,-11.77 -17.9,-11.77 -8.66,0 -15.36,3.76 -20.1,11.28 -4.25,7.03 -6.37,16.67 -6.37,28.93zm-59.57 72.07c1.14,2.29 2.53,4.5 4.17,6.62 -8.01,0.82 -15.61,1.88 -22.8,3.19 -4.74,0.82 -9.4,1.72 -13.97,2.7 -4.41,0.98 -8.66,2.04 -12.75,3.19 -0.49,-2.45 -0.9,-4.82 -1.23,-7.11 -0.49,-3.43 -0.98,-6.7 -1.47,-9.81l-0.49 -4.66c-1.64,2.12 -3.56,4.25 -5.76,6.37 -2.21,2.12 -5.11,4.54 -8.7,7.23 -3.6,2.7 -7.84,4.86 -12.75,6.5 -4.9,1.63 -9.97,2.45 -15.2,2.45 -17.16,0 -31.05,-5.96 -41.68,-17.9 -10.79,-11.93 -16.18,-27.21 -16.18,-45.84 0,-20.92 7.11,-37.75 21.33,-50.5 14.38,-12.91 32.44,-19.37 54.18,-19.37 3.43,0 6.7,0.25 9.81,0.74 3.27,0.33 6.54,0.98 9.81,1.96l4.9 1.72 0 -10.3c-0.16,-10.95 -3.11,-21.08 -8.83,-30.4l-5.39 -8.83c13.4,-6.37 22.39,-10.79 26.97,-13.24l30.64 -16.67 0 19.37 0 105.91 0 38.74c0,3.92 0.08,7.27 0.24,10.05 0.65,6.21 2.37,12.18 5.15,17.9zm-63 -1.72c6.21,0 11.03,-1.63 14.46,-4.9l-0.25 -11.77 0 -63c0,-9.81 -2.45,-17.65 -7.35,-23.54 -4.9,-6.21 -11.6,-9.32 -20.1,-9.32 -8.83,0 -15.77,4.5 -20.84,13.48 -4.58,8.17 -6.86,19.37 -6.86,33.59 0,20.1 3.51,35.87 10.54,47.31 7.35,12.09 17.49,18.14 30.4,18.14zm-99.29 12.01l1.96 2.21 -71.83 0 2.21 -2.21c8.01,-8.34 12.01,-18.39 12.01,-30.15l0 -37.02 0 -9.07c0,-9.48 -1.96,-16.83 -5.89,-22.06 -4.08,-5.23 -10.95,-7.93 -20.59,-8.09 -5.07,-0.16 -9.89,0.98 -14.46,3.43 -4.58,2.45 -7.93,4.78 -10.05,6.99 -2.13,2.21 -4,4.53 -5.64,6.99l0 39.47 0 19.37c0,11.77 4.09,21.82 12.26,30.15l1.96 2.21 -71.83 0 2.21 -2.21c8.01,-8.34 12.01,-18.39 12.01,-30.15l0 -31.87c-0.16,-10.62 -3.11,-20.51 -8.83,-29.66l-5.39 -8.83c13.4,-6.38 22.39,-10.79 26.97,-13.24l30.64 -16.67 0 40.94c8.01,-15.04 17.81,-25.66 29.42,-31.87 7.84,-4.09 16.75,-6.13 26.72,-6.13 11.6,0 20.67,2.21 27.21,6.62 6.7,4.25 11.15,9.52 13.36,15.81 2.21,6.29 3.31,14.1 3.31,23.41l0 51.48c0,11.77 4.09,21.82 12.26,30.15zm-182.15 -7.84l-57.86 14.22 0 -33.34c-7.52,12.75 -16.26,21.82 -26.23,27.21 -7.52,4.09 -15.85,6.13 -25.01,6.13 -11.77,0 -20.92,-2.12 -27.46,-6.37 -6.54,-4.41 -10.95,-9.76 -13.24,-16.06 -2.29,-6.29 -3.43,-14.1 -3.43,-23.41l0 -21.82c-0.16,-10.95 -3.11,-21 -8.83,-30.15l-5.39 -8.83c13.4,-6.37 22.39,-10.79 26.97,-13.24l30.64 -16.92 0 85.56c0,10.3 1.63,17.65 4.9,22.06 4.09,5.23 10.87,7.93 20.35,8.09 10.3,0.33 19.2,-4.33 26.72,-13.97l0 -78.7c6.21,-2.94 10.54,-5.06 12.99,-6.37l30.64 -16.67 -0.24 57.86 0.24 0 0 32.36c0,11.77 4,21.82 12.01,30.15l2.21 2.21zm-201.03 -101.49c13.07,11.93 19.61,28.03 19.61,48.3 0,19.61 -7.52,35.71 -22.56,48.3 -15.2,12.75 -34.32,19.12 -57.36,19.12 -22.23,0 -39.88,-6.05 -52.95,-18.14 -13.07,-11.93 -19.61,-28.11 -19.61,-48.54 0,-19.61 7.52,-35.63 22.55,-48.05 15.2,-12.75 34.32,-19.12 57.37,-19.12 22.06,0 39.71,6.05 52.95,18.14zm-27.7 95.61c2.78,-8.17 3.68,-19.78 2.7,-34.81 -1.14,-18.79 -5.89,-35.71 -14.22,-50.75 -8.99,-15.85 -18.88,-23.37 -29.66,-22.55 -7.84,0.49 -13.4,5.31 -16.67,14.46 -2.78,8.17 -3.68,19.69 -2.7,34.57 1.14,18.96 5.96,35.96 14.46,50.99 8.99,15.85 19.04,23.37 30.15,22.56 7.52,-0.49 12.83,-5.31 15.94,-14.46z"/>
 </g>
</svg>
