<?xml version="1.0" encoding="UTF-8"?>
<!DOCTYPE svg PUBLIC "-//W3C//DTD SVG 1.1//EN" "http://www.w3.org/Graphics/SVG/1.1/DTD/svg11.dtd">
<!-- Creator: CorelDRAW 2021 (64-Bit) -->
<svg xmlns="http://www.w3.org/2000/svg" xml:space="preserve" width="8.26772in" height="8.26772in" version="1.1" style="shape-rendering:geometricPrecision; text-rendering:geometricPrecision; image-rendering:optimizeQuality; fill-rule:evenodd; clip-rule:evenodd"
viewBox="0 0 8267.3 8267.3"
 xmlns:xlink="http://www.w3.org/1999/xlink"
 xmlns:xodm="http://www.corel.com/coreldraw/odm/2003">
 <defs>
  <style type="text/css">
   <![CDATA[
    .fil1 {fill:white}
    .fil0 {fill:#7A41FE;fill-rule:nonzero}
   ]]>
  </style>
 </defs>
 <g id="Layer_x0020_1">
  <metadata id="CorelCorpID_0Corel-Layer"/>
  <g id="_2624274803968">
   <path class="fil0" d="M4133.65 0l0 0c-2283.99,0 -4133.65,1849.65 -4133.65,4133.65l0 0c0,2281.88 1849.65,4133.65 4133.65,4133.65l0 0c2281.88,0 4133.65,-1849.65 4133.65,-4133.65l0 0c0,-2283.99 -1851.77,-4133.65 -4133.65,-4133.65z"/>
   <path class="fil1" d="M1438.79 4140.32l0 1499.92 139.98 -3.35c19.7,-1.06 43.29,-0.07 63.37,0.04 60.88,0.31 125.16,-8.11 186.63,-10.03 18.44,-0.57 39.64,-5.17 56.86,-6.47 60.09,-4.52 116.67,-13.55 175.51,-21.14 17.84,-2.3 33.33,-6.84 53.75,-9.58 8.8,-1.18 19.72,-3.61 27.56,-5.78l104.36 -25.63c87.69,-22.54 198.54,-68.82 275.09,-118.22 7.52,-4.85 11.14,-8.11 19.95,-13.38 14.14,-8.46 24.32,-14.43 38.32,-25.01 75.3,-56.87 108.42,-86.29 176.06,-153.93 11.06,-11.06 21.16,-20.19 31.54,-31.79l10.65 -12.68c2,-2.37 2.01,-2.49 4.6,-5.39 5.97,-6.68 10.25,-10.45 16.59,-16.75 24.91,-24.72 66.34,-78.27 89.14,-107.52l56.62 -73.37c9.72,-13.92 18.38,-23.73 28.62,-38.05l26.74 -36.59c10.07,-14.72 18.96,-23.63 28.67,-37.99l144.11 -182.54c10.7,-13.77 19.33,-23.04 29.95,-36.71l277.64 -275.67c68.32,-54.26 140.12,-105.32 217.58,-145.74l134 -59.32c16.87,-6.79 32.77,-9.56 51.11,-15.55l105.38 -24.61c20.48,-2.92 39.91,-2.63 60.99,-5.67 21.99,-3.17 37.63,-4.81 61.85,-4.81l0 1493.26c0,7.68 2.32,10 10,10l1219.94 0c63.46,0 111.53,-38.85 133.43,-93.23 4.33,-10.75 38.52,-178.64 52.49,-224.17 2.67,-8.71 2.21,-10.05 4.35,-18.98 12.87,-53.76 30.88,-106.85 49.34,-157.32l51.52 -131.8c28.03,-62.73 56.82,-123.75 89.92,-183.4 40.22,-72.46 116.95,-192.8 172.05,-254.59l17.65 -19.01c45.65,-52.82 94.73,-103.18 148.22,-148.43 115.77,-97.92 247.98,-181.8 394.29,-225.68l226.71 -49.95c44.14,-2.07 82.79,-6.69 126.63,-6.69l0 -1499.92c-101.55,0 -199.77,6.41 -300.1,6.55 -13.78,0.02 -18.95,1.38 -27.46,2.54l-208.57 18.09c-16.97,1.67 -38.77,7.28 -54.36,8.96l-80.99 12.34c-12.71,2.2 -15.83,4.18 -26.66,6.68l-52.08 11.25c-18.38,4.06 -34.23,8.46 -50.46,12.87 -110.91,30.12 -211.26,78.49 -309.49,137.15 -12.71,7.59 -25.14,16.68 -37.41,25.92 -36.33,27.34 -74.46,54.33 -106.54,86.79l-184.85 198.46c-9.52,12.93 -18.21,22.54 -28.4,34.94l-83.98 109.34c-9.99,13.33 -16.66,23.44 -26.63,36.7l-82.4 107.59c-19.68,24.63 -36.05,49.18 -56.95,73.04l-183.96 209.35c-0.48,0.49 -1.18,1.18 -1.66,1.67 -0.48,0.5 -1.17,1.2 -1.64,1.69 -2.12,2.24 -2.89,3.18 -4.76,5.24l-93.89 89.44c-0.53,0.44 -1.3,1.06 -1.83,1.5l-21 19c-12.79,10.37 -22.4,17.19 -34.67,28.66 -22.11,20.68 -47.84,36.49 -72.01,54.65l-85.99 57.33c-53.38,32.22 -112.47,66.02 -171.83,84.82 -29.13,9.23 -54.5,21.75 -84.61,28.72 -35.18,8.14 -68.64,18.93 -104.96,21.7 -56.77,4.33 -41.65,6.93 -113.06,6.93l0 -1489.92c0,-7.68 -2.32,-10 -10,-10l-1219.94 0c-63.18,0 -112.92,39.39 -134.93,95.05 -6.81,17.23 -12.36,57.45 -15.52,77.81 -5.96,38.35 -19.44,75.06 -27.11,112.88 -0.91,4.49 -1.94,12.12 -4.05,19.28l-26.39 90.27c-21.03,81.87 -53.45,162.57 -87.51,239.15l-92.71 187.27c-27.18,49.58 -58.32,96.53 -90.39,142.93l-231.03 258.94c-36.7,31.23 -75.19,65.06 -116.8,89.85 -10.5,6.25 -16.61,12.03 -27.85,18.82l-135.07 74.92c-5.98,2.71 -10.35,3.95 -16.6,6.73l-100.11 39.88c-11.91,4.46 -21.33,6.35 -35.64,11.03 -35.25,11.52 -74.3,22.86 -112.16,27.84l-122.62 17.38c-33.88,0.86 -56.91,3.22 -90.11,3.22z"/>
  </g>
 </g>
</svg>
